# https://github.com/mikedh/trimesh
v 0.01075890 0.00094128 -0.00375000
v 0.01095814 0.00095871 -0.00375000
v 0.01080000 -0.00000000 -0.00375000
v 0.01100000 -0.00000000 -0.00375000
v 0.01075890 -0.00094128 -0.00375000
v 0.01095814 -0.00095871 -0.00375000
v 0.01063592 -0.00187540 -0.00375000
v 0.01083289 -0.00191013 -0.00375000
v 0.01043200 -0.00279525 -0.00375000
v 0.01062518 -0.00284701 -0.00375000
v 0.01014868 -0.00369382 -0.00375000
v 0.01033662 -0.00376222 -0.00375000
v 0.00978812 -0.00456428 -0.00375000
v 0.00996939 -0.00464880 -0.00375000
v 0.00935307 -0.00540000 -0.00375000
v 0.00952628 -0.00550000 -0.00375000
v 0.00884684 -0.00619463 -0.00375000
v 0.00901067 -0.00630934 -0.00375000
v 0.00827328 -0.00694211 -0.00375000
v 0.00842649 -0.00707066 -0.00375000
v 0.00763675 -0.00763675 -0.00375000
v 0.00777817 -0.00777817 -0.00375000
v 0.00694211 -0.00827328 -0.00375000
v 0.00707066 -0.00842649 -0.00375000
v 0.00619463 -0.00884684 -0.00375000
v 0.00630934 -0.00901067 -0.00375000
v 0.00540000 -0.00935307 -0.00375000
v 0.00550000 -0.00952628 -0.00375000
v 0.00456428 -0.00978812 -0.00375000
v 0.00464880 -0.00996939 -0.00375000
v 0.00369382 -0.01014868 -0.00375000
v 0.00376222 -0.01033662 -0.00375000
v 0.00279525 -0.01043200 -0.00375000
v 0.00284701 -0.01062518 -0.00375000
v 0.00187540 -0.01063592 -0.00375000
v 0.00191013 -0.01083289 -0.00375000
v 0.00094128 -0.01075890 -0.00375000
v 0.00095871 -0.01095814 -0.00375000
v -0.00000000 -0.01080000 -0.00375000
v -0.00000000 -0.01100000 -0.00375000
v -0.00094128 -0.01075890 -0.00375000
v -0.00095871 -0.01095814 -0.00375000
v -0.00187540 -0.01063592 -0.00375000
v -0.00191013 -0.01083289 -0.00375000
v -0.00279525 -0.01043200 -0.00375000
v -0.00284701 -0.01062518 -0.00375000
v -0.00369382 -0.01014868 -0.00375000
v -0.00376222 -0.01033662 -0.00375000
v -0.00456428 -0.00978812 -0.00375000
v -0.00464880 -0.00996939 -0.00375000
v -0.00540000 -0.00935307 -0.00375000
v -0.00550000 -0.00952628 -0.00375000
v -0.00619463 -0.00884684 -0.00375000
v -0.00630934 -0.00901067 -0.00375000
v -0.00694211 -0.00827328 -0.00375000
v -0.00707066 -0.00842649 -0.00375000
v -0.00763675 -0.00763675 -0.00375000
v -0.00777817 -0.00777817 -0.00375000
v -0.00827328 -0.00694211 -0.00375000
v -0.00842649 -0.00707066 -0.00375000
v -0.00884684 -0.00619463 -0.00375000
v -0.00901067 -0.00630934 -0.00375000
v -0.00935307 -0.00540000 -0.00375000
v -0.00952628 -0.00550000 -0.00375000
v -0.00978812 -0.00456428 -0.00375000
v -0.00996939 -0.00464880 -0.00375000
v -0.01014868 -0.00369382 -0.00375000
v -0.01033662 -0.00376222 -0.00375000
v -0.01043200 -0.00279525 -0.00375000
v -0.01062518 -0.00284701 -0.00375000
v -0.01063592 -0.00187540 -0.00375000
v -0.01083289 -0.00191013 -0.00375000
v -0.01075890 -0.00094128 -0.00375000
v -0.01095814 -0.00095871 -0.00375000
v -0.01080000 0.00000000 -0.00375000
v -0.01100000 0.00000000 -0.00375000
v -0.01075890 0.00094128 -0.00375000
v -0.01095814 0.00095871 -0.00375000
v -0.01063592 0.00187540 -0.00375000
v -0.01083289 0.00191013 -0.00375000
v -0.01043200 0.00279525 -0.00375000
v -0.01062518 0.00284701 -0.00375000
v -0.01014868 0.00369382 -0.00375000
v -0.01033662 0.00376222 -0.00375000
v -0.00978812 0.00456428 -0.00375000
v -0.00996939 0.00464880 -0.00375000
v -0.00935307 0.00540000 -0.00375000
v -0.00952628 0.00550000 -0.00375000
v -0.00884684 0.00619463 -0.00375000
v -0.00901067 0.00630934 -0.00375000
v -0.00827328 0.00694211 -0.00375000
v -0.00842649 0.00707066 -0.00375000
v -0.00763675 0.00763675 -0.00375000
v -0.00777817 0.00777817 -0.00375000
v -0.00694211 0.00827328 -0.00375000
v -0.00707066 0.00842649 -0.00375000
v -0.00619463 0.00884684 -0.00375000
v -0.00630934 0.00901067 -0.00375000
v -0.00540000 0.00935307 -0.00375000
v -0.00550000 0.00952628 -0.00375000
v -0.00456428 0.00978812 -0.00375000
v -0.00464880 0.00996939 -0.00375000
v -0.00369382 0.01014868 -0.00375000
v -0.00376222 0.01033662 -0.00375000
v -0.00279525 0.01043200 -0.00375000
v -0.00284701 0.01062518 -0.00375000
v -0.00187540 0.01063592 -0.00375000
v -0.00191013 0.01083289 -0.00375000
v -0.00094128 0.01075890 -0.00375000
v -0.00095871 0.01095814 -0.00375000
v 0.00000000 0.01080000 -0.00375000
v 0.00000000 0.01100000 -0.00375000
v 0.00094128 0.01075890 -0.00375000
v 0.00095871 0.01095814 -0.00375000
v 0.00187540 0.01063592 -0.00375000
v 0.00191013 0.01083289 -0.00375000
v 0.00279525 0.01043200 -0.00375000
v 0.00284701 0.01062518 -0.00375000
v 0.00369382 0.01014868 -0.00375000
v 0.00376222 0.01033662 -0.00375000
v 0.00456428 0.00978812 -0.00375000
v 0.00464880 0.00996939 -0.00375000
v 0.00540000 0.00935307 -0.00375000
v 0.00550000 0.00952628 -0.00375000
v 0.00619463 0.00884684 -0.00375000
v 0.00630934 0.00901067 -0.00375000
v 0.00694211 0.00827328 -0.00375000
v 0.00707066 0.00842649 -0.00375000
v 0.00763675 0.00763675 -0.00375000
v 0.00777817 0.00777817 -0.00375000
v 0.00827328 0.00694211 -0.00375000
v 0.00842649 0.00707066 -0.00375000
v 0.00884684 0.00619463 -0.00375000
v 0.00901067 0.00630934 -0.00375000
v 0.00935307 0.00540000 -0.00375000
v 0.00952628 0.00550000 -0.00375000
v 0.00978812 0.00456428 -0.00375000
v 0.00996939 0.00464880 -0.00375000
v 0.01014868 0.00369382 -0.00375000
v 0.01033662 0.00376222 -0.00375000
v 0.01043200 0.00279525 -0.00375000
v 0.01062518 0.00284701 -0.00375000
v 0.01063592 0.00187540 -0.00375000
v 0.01083289 0.00191013 -0.00375000
v 0.00094128 -0.01075890 -0.00400000
v 0.00187540 -0.01063592 -0.00400000
v 0.00279525 -0.01043200 -0.00400000
v 0.00369382 -0.01014868 -0.00400000
v 0.00456428 -0.00978812 -0.00400000
v 0.00540000 -0.00935307 -0.00400000
v 0.00619463 -0.00884684 -0.00400000
v 0.00694211 -0.00827328 -0.00400000
v 0.00763675 -0.00763675 -0.00400000
v 0.00827328 -0.00694211 -0.00400000
v 0.00884684 -0.00619463 -0.00400000
v 0.00935307 -0.00540000 -0.00400000
v 0.00978812 -0.00456428 -0.00400000
v 0.01014868 -0.00369382 -0.00400000
v 0.01043200 -0.00279525 -0.00400000
v 0.01063592 -0.00187540 -0.00400000
v 0.01075890 -0.00094128 -0.00400000
v 0.01080000 -0.00000000 -0.00400000
v 0.01075890 0.00094128 -0.00400000
v 0.01063592 0.00187540 -0.00400000
v 0.01043200 0.00279525 -0.00400000
v 0.01014868 0.00369382 -0.00400000
v 0.00978812 0.00456428 -0.00400000
v 0.00935307 0.00540000 -0.00400000
v 0.00884684 0.00619463 -0.00400000
v 0.00827328 0.00694211 -0.00400000
v 0.00763675 0.00763675 -0.00400000
v 0.00694211 0.00827328 -0.00400000
v 0.00619463 0.00884684 -0.00400000
v 0.00540000 0.00935307 -0.00400000
v 0.00456428 0.00978812 -0.00400000
v 0.00369382 0.01014868 -0.00400000
v 0.00279525 0.01043200 -0.00400000
v 0.00187540 0.01063592 -0.00400000
v 0.00094128 0.01075890 -0.00400000
v 0.00000000 0.01080000 -0.00400000
v -0.00094128 0.01075890 -0.00400000
v -0.00187540 0.01063592 -0.00400000
v -0.00279525 0.01043200 -0.00400000
v -0.00369382 0.01014868 -0.00400000
v -0.00456428 0.00978812 -0.00400000
v -0.00540000 0.00935307 -0.00400000
v -0.00619463 0.00884684 -0.00400000
v -0.00694211 0.00827328 -0.00400000
v -0.00763675 0.00763675 -0.00400000
v -0.00827328 0.00694211 -0.00400000
v -0.00884684 0.00619463 -0.00400000
v -0.00935307 0.00540000 -0.00400000
v -0.00978812 0.00456428 -0.00400000
v -0.01014868 0.00369382 -0.00400000
v -0.01043200 0.00279525 -0.00400000
v -0.01063592 0.00187540 -0.00400000
v -0.01075890 0.00094128 -0.00400000
v -0.01080000 0.00000000 -0.00400000
v -0.01075890 -0.00094128 -0.00400000
v -0.01063592 -0.00187540 -0.00400000
v -0.01043200 -0.00279525 -0.00400000
v -0.01014868 -0.00369382 -0.00400000
v -0.00978812 -0.00456428 -0.00400000
v -0.00935307 -0.00540000 -0.00400000
v -0.00884684 -0.00619463 -0.00400000
v -0.00827328 -0.00694211 -0.00400000
v -0.00763675 -0.00763675 -0.00400000
v -0.00694211 -0.00827328 -0.00400000
v -0.00619463 -0.00884684 -0.00400000
v -0.00540000 -0.00935307 -0.00400000
v -0.00456428 -0.00978812 -0.00400000
v -0.00369382 -0.01014868 -0.00400000
v -0.00279525 -0.01043200 -0.00400000
v -0.00187540 -0.01063592 -0.00400000
v -0.00094128 -0.01075890 -0.00400000
v -0.00000000 -0.01080000 -0.00400000
v -0.00589789 0.00412975 -0.00400000
v -0.00551552 0.00462807 -0.00400000
v -0.00509117 0.00509117 -0.00400000
v -0.00462807 0.00551552 -0.00400000
v -0.00412975 0.00589789 -0.00400000
v -0.00360000 0.00623538 -0.00400000
v -0.00304285 0.00652542 -0.00400000
v -0.00246254 0.00676579 -0.00400000
v -0.00186350 0.00695467 -0.00400000
v -0.00125027 0.00709062 -0.00400000
v -0.00062752 0.00717260 -0.00400000
v 0.00000000 0.00720000 -0.00400000
v 0.00062752 0.00717260 -0.00400000
v 0.00125027 0.00709062 -0.00400000
v 0.00186350 0.00695467 -0.00400000
v 0.00246254 0.00676579 -0.00400000
v 0.00304285 0.00652542 -0.00400000
v 0.00360000 0.00623538 -0.00400000
v 0.00412975 0.00589789 -0.00400000
v 0.00462807 0.00551552 -0.00400000
v 0.00509117 0.00509117 -0.00400000
v 0.00551552 0.00462807 -0.00400000
v 0.00589789 0.00412975 -0.00400000
v 0.00623538 0.00360000 -0.00400000
v 0.00652542 0.00304285 -0.00400000
v 0.00676579 0.00246254 -0.00400000
v 0.00695467 0.00186350 -0.00400000
v 0.00709062 0.00125027 -0.00400000
v 0.00717260 0.00062752 -0.00400000
v 0.00720000 -0.00000000 -0.00400000
v 0.00717260 -0.00062752 -0.00400000
v 0.00709062 -0.00125027 -0.00400000
v 0.00695467 -0.00186350 -0.00400000
v 0.00676579 -0.00246254 -0.00400000
v 0.00652542 -0.00304285 -0.00400000
v 0.00623538 -0.00360000 -0.00400000
v 0.00589789 -0.00412975 -0.00400000
v 0.00551552 -0.00462807 -0.00400000
v 0.00509117 -0.00509117 -0.00400000
v 0.00462807 -0.00551552 -0.00400000
v 0.00412975 -0.00589789 -0.00400000
v 0.00360000 -0.00623538 -0.00400000
v 0.00304285 -0.00652542 -0.00400000
v 0.00246254 -0.00676579 -0.00400000
v 0.00186350 -0.00695467 -0.00400000
v 0.00125027 -0.00709062 -0.00400000
v 0.00062752 -0.00717260 -0.00400000
v -0.00000000 -0.00720000 -0.00400000
v -0.00062752 -0.00717260 -0.00400000
v -0.00125027 -0.00709062 -0.00400000
v -0.00186350 -0.00695467 -0.00400000
v -0.00246254 -0.00676579 -0.00400000
v -0.00304285 -0.00652542 -0.00400000
v -0.00360000 -0.00623538 -0.00400000
v -0.00412975 -0.00589789 -0.00400000
v -0.00462807 -0.00551552 -0.00400000
v -0.00509117 -0.00509117 -0.00400000
v -0.00551552 -0.00462807 -0.00400000
v -0.00589789 -0.00412975 -0.00400000
v -0.00623538 -0.00360000 -0.00400000
v -0.00652542 -0.00304285 -0.00400000
v -0.00676579 -0.00246254 -0.00400000
v -0.00695467 -0.00186350 -0.00400000
v -0.00709062 -0.00125027 -0.00400000
v -0.00717260 -0.00062752 -0.00400000
v -0.00720000 0.00000000 -0.00400000
v -0.00717260 0.00062752 -0.00400000
v -0.00709062 0.00125027 -0.00400000
v -0.00695467 0.00186350 -0.00400000
v -0.00676579 0.00246254 -0.00400000
v -0.00652542 0.00304285 -0.00400000
v -0.00623538 0.00360000 -0.00400000
v -0.00000000 -0.00720000 -0.00375000
v 0.00062752 -0.00717260 -0.00375000
v 0.00125027 -0.00709062 -0.00375000
v 0.00186350 -0.00695467 -0.00375000
v 0.00246254 -0.00676579 -0.00375000
v 0.00304285 -0.00652542 -0.00375000
v 0.00360000 -0.00623538 -0.00375000
v 0.00412975 -0.00589789 -0.00375000
v 0.00462807 -0.00551552 -0.00375000
v 0.00509117 -0.00509117 -0.00375000
v 0.00551552 -0.00462807 -0.00375000
v 0.00589789 -0.00412975 -0.00375000
v 0.00623538 -0.00360000 -0.00375000
v 0.00652542 -0.00304285 -0.00375000
v 0.00676579 -0.00246254 -0.00375000
v 0.00695467 -0.00186350 -0.00375000
v 0.00709062 -0.00125027 -0.00375000
v 0.00717260 -0.00062752 -0.00375000
v 0.00720000 -0.00000000 -0.00375000
v 0.00717260 0.00062752 -0.00375000
v 0.00709062 0.00125027 -0.00375000
v 0.00695467 0.00186350 -0.00375000
v 0.00676579 0.00246254 -0.00375000
v 0.00652542 0.00304285 -0.00375000
v 0.00623538 0.00360000 -0.00375000
v 0.00589789 0.00412975 -0.00375000
v 0.00551552 0.00462807 -0.00375000
v 0.00509117 0.00509117 -0.00375000
v 0.00462807 0.00551552 -0.00375000
v 0.00412975 0.00589789 -0.00375000
v 0.00360000 0.00623538 -0.00375000
v 0.00304285 0.00652542 -0.00375000
v 0.00246254 0.00676579 -0.00375000
v 0.00186350 0.00695467 -0.00375000
v 0.00125027 0.00709062 -0.00375000
v 0.00062752 0.00717260 -0.00375000
v 0.00000000 0.00720000 -0.00375000
v -0.00062752 0.00717260 -0.00375000
v -0.00125027 0.00709062 -0.00375000
v -0.00186350 0.00695467 -0.00375000
v -0.00246254 0.00676579 -0.00375000
v -0.00304285 0.00652542 -0.00375000
v -0.00360000 0.00623538 -0.00375000
v -0.00412975 0.00589789 -0.00375000
v -0.00462807 0.00551552 -0.00375000
v -0.00509117 0.00509117 -0.00375000
v -0.00551552 0.00462807 -0.00375000
v -0.00589789 0.00412975 -0.00375000
v -0.00623538 0.00360000 -0.00375000
v -0.00652542 0.00304285 -0.00375000
v -0.00676579 0.00246254 -0.00375000
v -0.00695467 0.00186350 -0.00375000
v -0.00709062 0.00125027 -0.00375000
v -0.00717260 0.00062752 -0.00375000
v -0.00720000 0.00000000 -0.00375000
v -0.00717260 -0.00062752 -0.00375000
v -0.00709062 -0.00125027 -0.00375000
v -0.00695467 -0.00186350 -0.00375000
v -0.00676579 -0.00246254 -0.00375000
v -0.00652542 -0.00304285 -0.00375000
v -0.00623538 -0.00360000 -0.00375000
v -0.00589789 -0.00412975 -0.00375000
v -0.00551552 -0.00462807 -0.00375000
v -0.00509117 -0.00509117 -0.00375000
v -0.00462807 -0.00551552 -0.00375000
v -0.00412975 -0.00589789 -0.00375000
v -0.00360000 -0.00623538 -0.00375000
v -0.00304285 -0.00652542 -0.00375000
v -0.00246254 -0.00676579 -0.00375000
v -0.00186350 -0.00695467 -0.00375000
v -0.00125027 -0.00709062 -0.00375000
v -0.00062752 -0.00717260 -0.00375000
v -0.00000000 -0.00700000 0.00400000
v 0.00061009 -0.00697336 0.00375000
v 0.00061009 -0.00697336 0.00400000
v 0.00121554 -0.00689365 0.00375000
v 0.00121554 -0.00689365 0.00400000
v 0.00181173 -0.00676148 0.00375000
v 0.00181173 -0.00676148 0.00400000
v 0.00239414 -0.00657785 0.00375000
v 0.00239414 -0.00657785 0.00400000
v 0.00295833 -0.00634415 0.00375000
v 0.00295833 -0.00634415 0.00400000
v 0.00350000 -0.00606218 0.00375000
v 0.00350000 -0.00606218 0.00400000
v 0.00401503 -0.00573406 0.00375000
v 0.00401503 -0.00573406 0.00400000
v 0.00449951 -0.00536231 0.00375000
v 0.00449951 -0.00536231 0.00400000
v 0.00494975 -0.00494975 0.00375000
v 0.00494975 -0.00494975 0.00400000
v 0.00536231 -0.00449951 0.00375000
v 0.00536231 -0.00449951 0.00400000
v 0.00573406 -0.00401503 0.00375000
v 0.00573406 -0.00401503 0.00400000
v 0.00606218 -0.00350000 0.00375000
v 0.00606218 -0.00350000 0.00400000
v 0.00634415 -0.00295833 0.00375000
v 0.00634415 -0.00295833 0.00400000
v 0.00657785 -0.00239414 0.00375000
v 0.00657785 -0.00239414 0.00400000
v 0.00676148 -0.00181173 0.00375000
v 0.00676148 -0.00181173 0.00400000
v 0.00689365 -0.00121554 0.00375000
v 0.00689365 -0.00121554 0.00400000
v 0.00697336 -0.00061009 0.00375000
v 0.00697336 -0.00061009 0.00400000
v 0.00700000 -0.00000000 0.00375000
v 0.00700000 -0.00000000 0.00400000
v 0.00697336 0.00061009 0.00375000
v 0.00697336 0.00061009 0.00400000
v 0.00689365 0.00121554 0.00375000
v 0.00689365 0.00121554 0.00400000
v 0.00676148 0.00181173 0.00375000
v 0.00676148 0.00181173 0.00400000
v 0.00657785 0.00239414 0.00375000
v 0.00657785 0.00239414 0.00400000
v 0.00634415 0.00295833 0.00375000
v 0.00634415 0.00295833 0.00400000
v 0.00606218 0.00350000 0.00375000
v 0.00606218 0.00350000 0.00400000
v 0.00573406 0.00401503 0.00375000
v 0.00573406 0.00401503 0.00400000
v 0.00536231 0.00449951 0.00375000
v 0.00536231 0.00449951 0.00400000
v 0.00494975 0.00494975 0.00375000
v 0.00494975 0.00494975 0.00400000
v 0.00449951 0.00536231 0.00375000
v 0.00449951 0.00536231 0.00400000
v 0.00401503 0.00573406 0.00375000
v 0.00401503 0.00573406 0.00400000
v 0.00350000 0.00606218 0.00375000
v 0.00350000 0.00606218 0.00400000
v 0.00295833 0.00634415 0.00375000
v 0.00295833 0.00634415 0.00400000
v 0.00239414 0.00657785 0.00375000
v 0.00239414 0.00657785 0.00400000
v 0.00181173 0.00676148 0.00375000
v 0.00181173 0.00676148 0.00400000
v 0.00121554 0.00689365 0.00375000
v 0.00121554 0.00689365 0.00400000
v 0.00061009 0.00697336 0.00375000
v 0.00061009 0.00697336 0.00400000
v 0.00000000 0.00700000 0.00375000
v 0.00000000 0.00700000 0.00400000
v -0.00061009 0.00697336 0.00375000
v -0.00061009 0.00697336 0.00400000
v -0.00121554 0.00689365 0.00375000
v -0.00121554 0.00689365 0.00400000
v -0.00181173 0.00676148 0.00375000
v -0.00181173 0.00676148 0.00400000
v -0.00239414 0.00657785 0.00375000
v -0.00239414 0.00657785 0.00400000
v -0.00295833 0.00634415 0.00375000
v -0.00295833 0.00634415 0.00400000
v -0.00350000 0.00606218 0.00375000
v -0.00350000 0.00606218 0.00400000
v -0.00401503 0.00573406 0.00375000
v -0.00401503 0.00573406 0.00400000
v -0.00449951 0.00536231 0.00375000
v -0.00449951 0.00536231 0.00400000
v -0.00494975 0.00494975 0.00375000
v -0.00494975 0.00494975 0.00400000
v -0.00536231 0.00449951 0.00375000
v -0.00536231 0.00449951 0.00400000
v -0.00573406 0.00401503 0.00375000
v -0.00573406 0.00401503 0.00400000
v -0.00606218 0.00350000 0.00375000
v -0.00606218 0.00350000 0.00400000
v -0.00634415 0.00295833 0.00375000
v -0.00634415 0.00295833 0.00400000
v -0.00657785 0.00239414 0.00375000
v -0.00657785 0.00239414 0.00400000
v -0.00676148 0.00181173 0.00375000
v -0.00676148 0.00181173 0.00400000
v -0.00689365 0.00121554 0.00375000
v -0.00689365 0.00121554 0.00400000
v -0.00697336 0.00061009 0.00375000
v -0.00697336 0.00061009 0.00400000
v -0.00700000 0.00000000 0.00375000
v -0.00700000 0.00000000 0.00400000
v -0.00697336 -0.00061009 0.00375000
v -0.00697336 -0.00061009 0.00400000
v -0.00689365 -0.00121554 0.00375000
v -0.00689365 -0.00121554 0.00400000
v -0.00676148 -0.00181173 0.00375000
v -0.00676148 -0.00181173 0.00400000
v -0.00657785 -0.00239414 0.00375000
v -0.00657785 -0.00239414 0.00400000
v -0.00634415 -0.00295833 0.00375000
v -0.00634415 -0.00295833 0.00400000
v -0.00606218 -0.00350000 0.00375000
v -0.00606218 -0.00350000 0.00400000
v -0.00573406 -0.00401503 0.00375000
v -0.00573406 -0.00401503 0.00400000
v -0.00536231 -0.00449951 0.00375000
v -0.00536231 -0.00449951 0.00400000
v -0.00494975 -0.00494975 0.00375000
v -0.00494975 -0.00494975 0.00400000
v -0.00449951 -0.00536231 0.00375000
v -0.00449951 -0.00536231 0.00400000
v -0.00401503 -0.00573406 0.00375000
v -0.00401503 -0.00573406 0.00400000
v -0.00350000 -0.00606218 0.00375000
v -0.00350000 -0.00606218 0.00400000
v -0.00295833 -0.00634415 0.00375000
v -0.00295833 -0.00634415 0.00400000
v -0.00239414 -0.00657785 0.00375000
v -0.00239414 -0.00657785 0.00400000
v -0.00181173 -0.00676148 0.00375000
v -0.00181173 -0.00676148 0.00400000
v -0.00121554 -0.00689365 0.00375000
v -0.00121554 -0.00689365 0.00400000
v -0.00061009 -0.00697336 0.00375000
v -0.00061009 -0.00697336 0.00400000
v -0.00000000 -0.00700000 0.00375000
v 0.00171010 -0.00469846 0.00400000
v 0.00211309 -0.00453154 0.00400000
v 0.00250000 -0.00433013 0.00400000
v 0.00286788 -0.00409576 0.00400000
v 0.00321394 -0.00383022 0.00400000
v 0.00353553 -0.00353553 0.00400000
v 0.00383022 -0.00321394 0.00400000
v 0.00409576 -0.00286788 0.00400000
v 0.00433013 -0.00250000 0.00400000
v 0.00453154 -0.00211309 0.00400000
v 0.00469846 -0.00171010 0.00400000
v 0.00482963 -0.00129410 0.00400000
v 0.00492404 -0.00086824 0.00400000
v 0.00498097 -0.00043578 0.00400000
v 0.00500000 -0.00000000 0.00400000
v 0.00498097 0.00043578 0.00400000
v 0.00492404 0.00086824 0.00400000
v 0.00482963 0.00129410 0.00400000
v 0.00469846 0.00171010 0.00400000
v 0.00453154 0.00211309 0.00400000
v 0.00433013 0.00250000 0.00400000
v 0.00409576 0.00286788 0.00400000
v 0.00383022 0.00321394 0.00400000
v 0.00353553 0.00353553 0.00400000
v 0.00321394 0.00383022 0.00400000
v 0.00286788 0.00409576 0.00400000
v 0.00250000 0.00433013 0.00400000
v 0.00211309 0.00453154 0.00400000
v 0.00171010 0.00469846 0.00400000
v 0.00129410 0.00482963 0.00400000
v 0.00086824 0.00492404 0.00400000
v 0.00043578 0.00498097 0.00400000
v 0.00000000 0.00500000 0.00400000
v -0.00043578 0.00498097 0.00400000
v -0.00086824 0.00492404 0.00400000
v -0.00129410 0.00482963 0.00400000
v -0.00171010 0.00469846 0.00400000
v -0.00211309 0.00453154 0.00400000
v -0.00250000 0.00433013 0.00400000
v -0.00286788 0.00409576 0.00400000
v -0.00321394 0.00383022 0.00400000
v -0.00353553 0.00353553 0.00400000
v -0.00383022 0.00321394 0.00400000
v -0.00409576 0.00286788 0.00400000
v -0.00433013 0.00250000 0.00400000
v -0.00453154 0.00211309 0.00400000
v -0.00469846 0.00171010 0.00400000
v -0.00482963 0.00129410 0.00400000
v -0.00492404 0.00086824 0.00400000
v -0.00498097 0.00043578 0.00400000
v -0.00500000 0.00000000 0.00400000
v -0.00498097 -0.00043578 0.00400000
v -0.00492404 -0.00086824 0.00400000
v -0.00482963 -0.00129410 0.00400000
v -0.00469846 -0.00171010 0.00400000
v -0.00453154 -0.00211309 0.00400000
v -0.00433013 -0.00250000 0.00400000
v -0.00409576 -0.00286788 0.00400000
v -0.00383022 -0.00321394 0.00400000
v -0.00353553 -0.00353553 0.00400000
v -0.00321394 -0.00383022 0.00400000
v -0.00286788 -0.00409576 0.00400000
v -0.00250000 -0.00433013 0.00400000
v -0.00211309 -0.00453154 0.00400000
v -0.00171010 -0.00469846 0.00400000
v -0.00129410 -0.00482963 0.00400000
v -0.00086824 -0.00492404 0.00400000
v -0.00043578 -0.00498097 0.00400000
v -0.00000000 -0.00500000 0.00400000
v 0.00043578 -0.00498097 0.00400000
v 0.00086824 -0.00492404 0.00400000
v 0.00129410 -0.00482963 0.00400000
v -0.00000000 -0.00500000 -0.00400000
v 0.00043578 -0.00498097 -0.00400000
v 0.00086824 -0.00492404 -0.00400000
v 0.00129410 -0.00482963 -0.00400000
v 0.00171010 -0.00469846 -0.00400000
v 0.00211309 -0.00453154 -0.00400000
v 0.00250000 -0.00433013 -0.00400000
v 0.00286788 -0.00409576 -0.00400000
v 0.00321394 -0.00383022 -0.00400000
v 0.00353553 -0.00353553 -0.00400000
v 0.00383022 -0.00321394 -0.00400000
v 0.00409576 -0.00286788 -0.00400000
v 0.00433013 -0.00250000 -0.00400000
v 0.00453154 -0.00211309 -0.00400000
v 0.00469846 -0.00171010 -0.00400000
v 0.00482963 -0.00129410 -0.00400000
v 0.00492404 -0.00086824 -0.00400000
v 0.00498097 -0.00043578 -0.00400000
v 0.00500000 -0.00000000 -0.00400000
v 0.00498097 0.00043578 -0.00400000
v 0.00492404 0.00086824 -0.00400000
v 0.00482963 0.00129410 -0.00400000
v 0.00469846 0.00171010 -0.00400000
v 0.00453154 0.00211309 -0.00400000
v 0.00433013 0.00250000 -0.00400000
v 0.00409576 0.00286788 -0.00400000
v 0.00383022 0.00321394 -0.00400000
v 0.00353553 0.00353553 -0.00400000
v 0.00321394 0.00383022 -0.00400000
v 0.00286788 0.00409576 -0.00400000
v 0.00250000 0.00433013 -0.00400000
v 0.00211309 0.00453154 -0.00400000
v 0.00171010 0.00469846 -0.00400000
v 0.00129410 0.00482963 -0.00400000
v 0.00086824 0.00492404 -0.00400000
v 0.00043578 0.00498097 -0.00400000
v 0.00000000 0.00500000 -0.00400000
v -0.00043578 0.00498097 -0.00400000
v -0.00086824 0.00492404 -0.00400000
v -0.00129410 0.00482963 -0.00400000
v -0.00171010 0.00469846 -0.00400000
v -0.00211309 0.00453154 -0.00400000
v -0.00250000 0.00433013 -0.00400000
v -0.00286788 0.00409576 -0.00400000
v -0.00321394 0.00383022 -0.00400000
v -0.00353553 0.00353553 -0.00400000
v -0.00383022 0.00321394 -0.00400000
v -0.00409576 0.00286788 -0.00400000
v -0.00433013 0.00250000 -0.00400000
v -0.00453154 0.00211309 -0.00400000
v -0.00469846 0.00171010 -0.00400000
v -0.00482963 0.00129410 -0.00400000
v -0.00492404 0.00086824 -0.00400000
v -0.00498097 0.00043578 -0.00400000
v -0.00500000 0.00000000 -0.00400000
v -0.00498097 -0.00043578 -0.00400000
v -0.00492404 -0.00086824 -0.00400000
v -0.00482963 -0.00129410 -0.00400000
v -0.00469846 -0.00171010 -0.00400000
v -0.00453154 -0.00211309 -0.00400000
v -0.00433013 -0.00250000 -0.00400000
v -0.00409576 -0.00286788 -0.00400000
v -0.00383022 -0.00321394 -0.00400000
v -0.00353553 -0.00353553 -0.00400000
v -0.00321394 -0.00383022 -0.00400000
v -0.00286788 -0.00409576 -0.00400000
v -0.00250000 -0.00433013 -0.00400000
v -0.00211309 -0.00453154 -0.00400000
v -0.00171010 -0.00469846 -0.00400000
v -0.00129410 -0.00482963 -0.00400000
v -0.00086824 -0.00492404 -0.00400000
v -0.00043578 -0.00498097 -0.00400000
v -0.00000000 -0.01300000 0.00400000
v 0.00113302 -0.01295053 -0.00400000
v 0.00113302 -0.01295053 0.00400000
v 0.00225743 -0.01280250 -0.00400000
v 0.00225743 -0.01280250 0.00400000
v 0.00336465 -0.01255704 -0.00400000
v 0.00336465 -0.01255704 0.00400000
v 0.00444626 -0.01221600 -0.00400000
v 0.00444626 -0.01221600 0.00400000
v 0.00549404 -0.01178200 -0.00400000
v 0.00549404 -0.01178200 0.00400000
v 0.00650000 -0.01125833 -0.00400000
v 0.00650000 -0.01125833 0.00400000
v 0.00745649 -0.01064898 -0.00400000
v 0.00745649 -0.01064898 0.00400000
v 0.00835624 -0.00995858 -0.00400000
v 0.00835624 -0.00995858 0.00400000
v 0.00919239 -0.00919239 -0.00400000
v 0.00919239 -0.00919239 0.00400000
v 0.00995858 -0.00835624 -0.00400000
v 0.00995858 -0.00835624 0.00400000
v 0.01064898 -0.00745649 -0.00400000
v 0.01064898 -0.00745649 0.00400000
v 0.01125833 -0.00650000 -0.00400000
v 0.01125833 -0.00650000 0.00400000
v 0.01178200 -0.00549404 -0.00400000
v 0.01178200 -0.00549404 0.00400000
v 0.01221600 -0.00444626 -0.00400000
v 0.01221600 -0.00444626 0.00400000
v 0.01255704 -0.00336465 -0.00400000
v 0.01255704 -0.00336465 0.00400000
v 0.01280250 -0.00225743 -0.00400000
v 0.01280250 -0.00225743 0.00400000
v 0.01295053 -0.00113302 -0.00400000
v 0.01295053 -0.00113302 0.00400000
v 0.01300000 -0.00000000 -0.00400000
v 0.01300000 -0.00000000 0.00400000
v 0.01295053 0.00113302 -0.00400000
v 0.01295053 0.00113302 0.00400000
v 0.01280250 0.00225743 -0.00400000
v 0.01280250 0.00225743 0.00400000
v 0.01255704 0.00336465 -0.00400000
v 0.01255704 0.00336465 0.00400000
v 0.01221600 0.00444626 -0.00400000
v 0.01221600 0.00444626 0.00400000
v 0.01178200 0.00549404 -0.00400000
v 0.01178200 0.00549404 0.00400000
v 0.01125833 0.00650000 -0.00400000
v 0.01125833 0.00650000 0.00400000
v 0.01064898 0.00745649 -0.00400000
v 0.01064898 0.00745649 0.00400000
v 0.00995858 0.00835624 -0.00400000
v 0.00995858 0.00835624 0.00400000
v 0.00919239 0.00919239 -0.00400000
v 0.00919239 0.00919239 0.00400000
v 0.00835624 0.00995858 -0.00400000
v 0.00835624 0.00995858 0.00400000
v 0.00745649 0.01064898 -0.00400000
v 0.00745649 0.01064898 0.00400000
v 0.00650000 0.01125833 -0.00400000
v 0.00650000 0.01125833 0.00400000
v 0.00549404 0.01178200 -0.00400000
v 0.00549404 0.01178200 0.00400000
v 0.00444626 0.01221600 -0.00400000
v 0.00444626 0.01221600 0.00400000
v 0.00336465 0.01255704 -0.00400000
v 0.00336465 0.01255704 0.00400000
v 0.00225743 0.01280250 -0.00400000
v 0.00225743 0.01280250 0.00400000
v 0.00113302 0.01295053 -0.00400000
v 0.00113302 0.01295053 0.00400000
v 0.00000000 0.01300000 -0.00400000
v 0.00000000 0.01300000 0.00400000
v -0.00113302 0.01295053 -0.00400000
v -0.00113302 0.01295053 0.00400000
v -0.00225743 0.01280250 -0.00400000
v -0.00225743 0.01280250 0.00400000
v -0.00336465 0.01255704 -0.00400000
v -0.00336465 0.01255704 0.00400000
v -0.00444626 0.01221600 -0.00400000
v -0.00444626 0.01221600 0.00400000
v -0.00549404 0.01178200 -0.00400000
v -0.00549404 0.01178200 0.00400000
v -0.00650000 0.01125833 -0.00400000
v -0.00650000 0.01125833 0.00400000
v -0.00745649 0.01064898 -0.00400000
v -0.00745649 0.01064898 0.00400000
v -0.00835624 0.00995858 -0.00400000
v -0.00835624 0.00995858 0.00400000
v -0.00919239 0.00919239 -0.00400000
v -0.00919239 0.00919239 0.00400000
v -0.00995858 0.00835624 -0.00400000
v -0.00995858 0.00835624 0.00400000
v -0.01064898 0.00745649 -0.00400000
v -0.01064898 0.00745649 0.00400000
v -0.01125833 0.00650000 -0.00400000
v -0.01125833 0.00650000 0.00400000
v -0.01178200 0.00549404 -0.00400000
v -0.01178200 0.00549404 0.00400000
v -0.01221600 0.00444626 -0.00400000
v -0.01221600 0.00444626 0.00400000
v -0.01255704 0.00336465 -0.00400000
v -0.01255704 0.00336465 0.00400000
v -0.01280250 0.00225743 -0.00400000
v -0.01280250 0.00225743 0.00400000
v -0.01295053 0.00113302 -0.00400000
v -0.01295053 0.00113302 0.00400000
v -0.01300000 0.00000000 -0.00400000
v -0.01300000 0.00000000 0.00400000
v -0.01295053 -0.00113302 -0.00400000
v -0.01295053 -0.00113302 0.00400000
v -0.01280250 -0.00225743 -0.00400000
v -0.01280250 -0.00225743 0.00400000
v -0.01255704 -0.00336465 -0.00400000
v -0.01255704 -0.00336465 0.00400000
v -0.01221600 -0.00444626 -0.00400000
v -0.01221600 -0.00444626 0.00400000
v -0.01178200 -0.00549404 -0.00400000
v -0.01178200 -0.00549404 0.00400000
v -0.01125833 -0.00650000 -0.00400000
v -0.01125833 -0.00650000 0.00400000
v -0.01064898 -0.00745649 -0.00400000
v -0.01064898 -0.00745649 0.00400000
v -0.00995858 -0.00835624 -0.00400000
v -0.00995858 -0.00835624 0.00400000
v -0.00919239 -0.00919239 -0.00400000
v -0.00919239 -0.00919239 0.00400000
v -0.00835624 -0.00995858 -0.00400000
v -0.00835624 -0.00995858 0.00400000
v -0.00745649 -0.01064898 -0.00400000
v -0.00745649 -0.01064898 0.00400000
v -0.00650000 -0.01125833 -0.00400000
v -0.00650000 -0.01125833 0.00400000
v -0.00549404 -0.01178200 -0.00400000
v -0.00549404 -0.01178200 0.00400000
v -0.00444626 -0.01221600 -0.00400000
v -0.00444626 -0.01221600 0.00400000
v -0.00336465 -0.01255704 -0.00400000
v -0.00336465 -0.01255704 0.00400000
v -0.00225743 -0.01280250 -0.00400000
v -0.00225743 -0.01280250 0.00400000
v -0.00113302 -0.01295053 -0.00400000
v -0.00113302 -0.01295053 0.00400000
v -0.00000000 -0.01300000 -0.00400000
v -0.00000000 -0.01100000 0.00375000
v -0.00000000 -0.01100000 0.00400000
v 0.00095871 -0.01095814 0.00375000
v 0.00095871 -0.01095814 0.00400000
v 0.00191013 -0.01083289 0.00375000
v 0.00191013 -0.01083289 0.00400000
v 0.00284701 -0.01062518 0.00375000
v 0.00284701 -0.01062518 0.00400000
v 0.00376222 -0.01033662 0.00375000
v 0.00376222 -0.01033662 0.00400000
v 0.00464880 -0.00996939 0.00375000
v 0.00464880 -0.00996939 0.00400000
v 0.00550000 -0.00952628 0.00375000
v 0.00550000 -0.00952628 0.00400000
v 0.00630934 -0.00901067 0.00375000
v 0.00630934 -0.00901067 0.00400000
v 0.00707066 -0.00842649 0.00375000
v 0.00707066 -0.00842649 0.00400000
v 0.00777817 -0.00777817 0.00375000
v 0.00777817 -0.00777817 0.00400000
v 0.00842649 -0.00707066 0.00375000
v 0.00842649 -0.00707066 0.00400000
v 0.00901067 -0.00630934 0.00375000
v 0.00901067 -0.00630934 0.00400000
v 0.00952628 -0.00550000 0.00375000
v 0.00952628 -0.00550000 0.00400000
v 0.00996939 -0.00464880 0.00375000
v 0.00996939 -0.00464880 0.00400000
v 0.01033662 -0.00376222 0.00375000
v 0.01033662 -0.00376222 0.00400000
v 0.01062518 -0.00284701 0.00375000
v 0.01062518 -0.00284701 0.00400000
v 0.01083289 -0.00191013 0.00375000
v 0.01083289 -0.00191013 0.00400000
v 0.01095814 -0.00095871 0.00375000
v 0.01095814 -0.00095871 0.00400000
v 0.01100000 -0.00000000 0.00375000
v 0.01100000 -0.00000000 0.00400000
v 0.01095814 0.00095871 0.00375000
v 0.01095814 0.00095871 0.00400000
v 0.01083289 0.00191013 0.00375000
v 0.01083289 0.00191013 0.00400000
v 0.01062518 0.00284701 0.00375000
v 0.01062518 0.00284701 0.00400000
v 0.01033662 0.00376222 0.00375000
v 0.01033662 0.00376222 0.00400000
v 0.00996939 0.00464880 0.00375000
v 0.00996939 0.00464880 0.00400000
v 0.00952628 0.00550000 0.00375000
v 0.00952628 0.00550000 0.00400000
v 0.00901067 0.00630934 0.00375000
v 0.00901067 0.00630934 0.00400000
v 0.00842649 0.00707066 0.00375000
v 0.00842649 0.00707066 0.00400000
v 0.00777817 0.00777817 0.00375000
v 0.00777817 0.00777817 0.00400000
v 0.00707066 0.00842649 0.00375000
v 0.00707066 0.00842649 0.00400000
v 0.00630934 0.00901067 0.00375000
v 0.00630934 0.00901067 0.00400000
v 0.00550000 0.00952628 0.00375000
v 0.00550000 0.00952628 0.00400000
v 0.00464880 0.00996939 0.00375000
v 0.00464880 0.00996939 0.00400000
v 0.00376222 0.01033662 0.00375000
v 0.00376222 0.01033662 0.00400000
v 0.00284701 0.01062518 0.00375000
v 0.00284701 0.01062518 0.00400000
v 0.00191013 0.01083289 0.00375000
v 0.00191013 0.01083289 0.00400000
v 0.00095871 0.01095814 0.00375000
v 0.00095871 0.01095814 0.00400000
v 0.00000000 0.01100000 0.00375000
v 0.00000000 0.01100000 0.00400000
v -0.00095871 0.01095814 0.00375000
v -0.00095871 0.01095814 0.00400000
v -0.00191013 0.01083289 0.00375000
v -0.00191013 0.01083289 0.00400000
v -0.00284701 0.01062518 0.00375000
v -0.00284701 0.01062518 0.00400000
v -0.00376222 0.01033662 0.00375000
v -0.00376222 0.01033662 0.00400000
v -0.00464880 0.00996939 0.00375000
v -0.00464880 0.00996939 0.00400000
v -0.00550000 0.00952628 0.00375000
v -0.00550000 0.00952628 0.00400000
v -0.00630934 0.00901067 0.00375000
v -0.00630934 0.00901067 0.00400000
v -0.00707066 0.00842649 0.00375000
v -0.00707066 0.00842649 0.00400000
v -0.00777817 0.00777817 0.00375000
v -0.00777817 0.00777817 0.00400000
v -0.00842649 0.00707066 0.00375000
v -0.00842649 0.00707066 0.00400000
v -0.00901067 0.00630934 0.00375000
v -0.00901067 0.00630934 0.00400000
v -0.00952628 0.00550000 0.00375000
v -0.00952628 0.00550000 0.00400000
v -0.00996939 0.00464880 0.00375000
v -0.00996939 0.00464880 0.00400000
v -0.01033662 0.00376222 0.00375000
v -0.01033662 0.00376222 0.00400000
v -0.01062518 0.00284701 0.00375000
v -0.01062518 0.00284701 0.00400000
v -0.01083289 0.00191013 0.00375000
v -0.01083289 0.00191013 0.00400000
v -0.01095814 0.00095871 0.00375000
v -0.01095814 0.00095871 0.00400000
v -0.01100000 0.00000000 0.00375000
v -0.01100000 0.00000000 0.00400000
v -0.01095814 -0.00095871 0.00375000
v -0.01095814 -0.00095871 0.00400000
v -0.01083289 -0.00191013 0.00375000
v -0.01083289 -0.00191013 0.00400000
v -0.01062518 -0.00284701 0.00375000
v -0.01062518 -0.00284701 0.00400000
v -0.01033662 -0.00376222 0.00375000
v -0.01033662 -0.00376222 0.00400000
v -0.00996939 -0.00464880 0.00375000
v -0.00996939 -0.00464880 0.00400000
v -0.00952628 -0.00550000 0.00375000
v -0.00952628 -0.00550000 0.00400000
v -0.00901067 -0.00630934 0.00375000
v -0.00901067 -0.00630934 0.00400000
v -0.00842649 -0.00707066 0.00375000
v -0.00842649 -0.00707066 0.00400000
v -0.00777817 -0.00777817 0.00375000
v -0.00777817 -0.00777817 0.00400000
v -0.00707066 -0.00842649 0.00375000
v -0.00707066 -0.00842649 0.00400000
v -0.00630934 -0.00901067 0.00375000
v -0.00630934 -0.00901067 0.00400000
v -0.00550000 -0.00952628 0.00375000
v -0.00550000 -0.00952628 0.00400000
v -0.00464880 -0.00996939 0.00375000
v -0.00464880 -0.00996939 0.00400000
v -0.00376222 -0.01033662 0.00375000
v -0.00376222 -0.01033662 0.00400000
v -0.00284701 -0.01062518 0.00375000
v -0.00284701 -0.01062518 0.00400000
v -0.00191013 -0.01083289 0.00375000
v -0.00191013 -0.01083289 0.00400000
v -0.00095871 -0.01095814 0.00375000
v -0.00095871 -0.01095814 0.00400000
v 0.00304285 -0.00652542 0.00375000
v 0.00360000 -0.00623538 0.00375000
v 0.00412975 -0.00589789 0.00375000
v 0.00462807 -0.00551552 0.00375000
v 0.00509117 -0.00509117 0.00375000
v 0.00551552 -0.00462807 0.00375000
v 0.00589789 -0.00412975 0.00375000
v 0.00623538 -0.00360000 0.00375000
v 0.00652542 -0.00304285 0.00375000
v 0.00676579 -0.00246254 0.00375000
v 0.00695467 -0.00186350 0.00375000
v 0.00709062 -0.00125027 0.00375000
v 0.00717260 -0.00062752 0.00375000
v 0.00720000 -0.00000000 0.00375000
v 0.00717260 0.00062752 0.00375000
v 0.00709062 0.00125027 0.00375000
v 0.00695467 0.00186350 0.00375000
v 0.00676579 0.00246254 0.00375000
v 0.00652542 0.00304285 0.00375000
v 0.00623538 0.00360000 0.00375000
v 0.00589789 0.00412975 0.00375000
v 0.00551552 0.00462807 0.00375000
v 0.00509117 0.00509117 0.00375000
v 0.00462807 0.00551552 0.00375000
v 0.00412975 0.00589789 0.00375000
v 0.00360000 0.00623538 0.00375000
v 0.00304285 0.00652542 0.00375000
v 0.00246254 0.00676579 0.00375000
v 0.00186350 0.00695467 0.00375000
v 0.00125027 0.00709062 0.00375000
v 0.00062752 0.00717260 0.00375000
v 0.00000000 0.00720000 0.00375000
v -0.00062752 0.00717260 0.00375000
v -0.00125027 0.00709062 0.00375000
v -0.00186350 0.00695467 0.00375000
v -0.00246254 0.00676579 0.00375000
v -0.00304285 0.00652542 0.00375000
v -0.00360000 0.00623538 0.00375000
v -0.00412975 0.00589789 0.00375000
v -0.00462807 0.00551552 0.00375000
v -0.00509117 0.00509117 0.00375000
v -0.00551552 0.00462807 0.00375000
v -0.00589789 0.00412975 0.00375000
v -0.00623538 0.00360000 0.00375000
v -0.00652542 0.00304285 0.00375000
v -0.00676579 0.00246254 0.00375000
v -0.00695467 0.00186350 0.00375000
v -0.00709062 0.00125027 0.00375000
v -0.00717260 0.00062752 0.00375000
v -0.00720000 0.00000000 0.00375000
v -0.00717260 -0.00062752 0.00375000
v -0.00709062 -0.00125027 0.00375000
v -0.00695467 -0.00186350 0.00375000
v -0.00676579 -0.00246254 0.00375000
v -0.00652542 -0.00304285 0.00375000
v -0.00623538 -0.00360000 0.00375000
v -0.00589789 -0.00412975 0.00375000
v -0.00551552 -0.00462807 0.00375000
v -0.00509117 -0.00509117 0.00375000
v -0.00462807 -0.00551552 0.00375000
v -0.00412975 -0.00589789 0.00375000
v -0.00360000 -0.00623538 0.00375000
v -0.00304285 -0.00652542 0.00375000
v -0.00246254 -0.00676579 0.00375000
v -0.00186350 -0.00695467 0.00375000
v -0.00125027 -0.00709062 0.00375000
v -0.00062752 -0.00717260 0.00375000
v -0.00000000 -0.00720000 0.00375000
v 0.00062752 -0.00717260 0.00375000
v 0.00125027 -0.00709062 0.00375000
v 0.00186350 -0.00695467 0.00375000
v 0.00246254 -0.00676579 0.00375000
v -0.00000000 -0.00720000 0.00400000
v 0.00062752 -0.00717260 0.00400000
v 0.00125027 -0.00709062 0.00400000
v 0.00186350 -0.00695467 0.00400000
v 0.00246254 -0.00676579 0.00400000
v 0.00304285 -0.00652542 0.00400000
v 0.00360000 -0.00623538 0.00400000
v 0.00412975 -0.00589789 0.00400000
v 0.00462807 -0.00551552 0.00400000
v 0.00509117 -0.00509117 0.00400000
v 0.00551552 -0.00462807 0.00400000
v 0.00589789 -0.00412975 0.00400000
v 0.00623538 -0.00360000 0.00400000
v 0.00652542 -0.00304285 0.00400000
v 0.00676579 -0.00246254 0.00400000
v 0.00695467 -0.00186350 0.00400000
v 0.00709062 -0.00125027 0.00400000
v 0.00717260 -0.00062752 0.00400000
v 0.00720000 -0.00000000 0.00400000
v 0.00717260 0.00062752 0.00400000
v 0.00709062 0.00125027 0.00400000
v 0.00695467 0.00186350 0.00400000
v 0.00676579 0.00246254 0.00400000
v 0.00652542 0.00304285 0.00400000
v 0.00623538 0.00360000 0.00400000
v 0.00589789 0.00412975 0.00400000
v 0.00551552 0.00462807 0.00400000
v 0.00509117 0.00509117 0.00400000
v 0.00462807 0.00551552 0.00400000
v 0.00412975 0.00589789 0.00400000
v 0.00360000 0.00623538 0.00400000
v 0.00304285 0.00652542 0.00400000
v 0.00246254 0.00676579 0.00400000
v 0.00186350 0.00695467 0.00400000
v 0.00125027 0.00709062 0.00400000
v 0.00062752 0.00717260 0.00400000
v 0.00000000 0.00720000 0.00400000
v -0.00062752 0.00717260 0.00400000
v -0.00125027 0.00709062 0.00400000
v -0.00186350 0.00695467 0.00400000
v -0.00246254 0.00676579 0.00400000
v -0.00304285 0.00652542 0.00400000
v -0.00360000 0.00623538 0.00400000
v -0.00412975 0.00589789 0.00400000
v -0.00462807 0.00551552 0.00400000
v -0.00509117 0.00509117 0.00400000
v -0.00551552 0.00462807 0.00400000
v -0.00589789 0.00412975 0.00400000
v -0.00623538 0.00360000 0.00400000
v -0.00652542 0.00304285 0.00400000
v -0.00676579 0.00246254 0.00400000
v -0.00695467 0.00186350 0.00400000
v -0.00709062 0.00125027 0.00400000
v -0.00717260 0.00062752 0.00400000
v -0.00720000 0.00000000 0.00400000
v -0.00717260 -0.00062752 0.00400000
v -0.00709062 -0.00125027 0.00400000
v -0.00695467 -0.00186350 0.00400000
v -0.00676579 -0.00246254 0.00400000
v -0.00652542 -0.00304285 0.00400000
v -0.00623538 -0.00360000 0.00400000
v -0.00589789 -0.00412975 0.00400000
v -0.00551552 -0.00462807 0.00400000
v -0.00509117 -0.00509117 0.00400000
v -0.00462807 -0.00551552 0.00400000
v -0.00412975 -0.00589789 0.00400000
v -0.00360000 -0.00623538 0.00400000
v -0.00304285 -0.00652542 0.00400000
v -0.00246254 -0.00676579 0.00400000
v -0.00186350 -0.00695467 0.00400000
v -0.00125027 -0.00709062 0.00400000
v -0.00062752 -0.00717260 0.00400000
v -0.01063592 -0.00187540 0.00400000
v -0.01043200 -0.00279525 0.00400000
v -0.01014868 -0.00369382 0.00400000
v -0.00978812 -0.00456428 0.00400000
v -0.00935307 -0.00540000 0.00400000
v -0.00884684 -0.00619463 0.00400000
v -0.00827328 -0.00694211 0.00400000
v -0.00763675 -0.00763675 0.00400000
v -0.00694211 -0.00827328 0.00400000
v -0.00619463 -0.00884684 0.00400000
v -0.00540000 -0.00935307 0.00400000
v -0.00456428 -0.00978812 0.00400000
v -0.00369382 -0.01014868 0.00400000
v -0.00279525 -0.01043200 0.00400000
v -0.00187540 -0.01063592 0.00400000
v -0.00094128 -0.01075890 0.00400000
v -0.00000000 -0.01080000 0.00400000
v 0.00094128 -0.01075890 0.00400000
v 0.00187540 -0.01063592 0.00400000
v 0.00279525 -0.01043200 0.00400000
v 0.00369382 -0.01014868 0.00400000
v 0.00456428 -0.00978812 0.00400000
v 0.00540000 -0.00935307 0.00400000
v 0.00619463 -0.00884684 0.00400000
v 0.00694211 -0.00827328 0.00400000
v 0.00763675 -0.00763675 0.00400000
v 0.00827328 -0.00694211 0.00400000
v 0.00884684 -0.00619463 0.00400000
v 0.00935307 -0.00540000 0.00400000
v 0.00978812 -0.00456428 0.00400000
v 0.01014868 -0.00369382 0.00400000
v 0.01043200 -0.00279525 0.00400000
v 0.01063592 -0.00187540 0.00400000
v 0.01075890 -0.00094128 0.00400000
v 0.01080000 -0.00000000 0.00400000
v 0.01075890 0.00094128 0.00400000
v 0.01063592 0.00187540 0.00400000
v 0.01043200 0.00279525 0.00400000
v 0.01014868 0.00369382 0.00400000
v 0.00978812 0.00456428 0.00400000
v 0.00935307 0.00540000 0.00400000
v 0.00884684 0.00619463 0.00400000
v 0.00827328 0.00694211 0.00400000
v 0.00763675 0.00763675 0.00400000
v 0.00694211 0.00827328 0.00400000
v 0.00619463 0.00884684 0.00400000
v 0.00540000 0.00935307 0.00400000
v 0.00456428 0.00978812 0.00400000
v 0.00369382 0.01014868 0.00400000
v 0.00279525 0.01043200 0.00400000
v 0.00187540 0.01063592 0.00400000
v 0.00094128 0.01075890 0.00400000
v 0.00000000 0.01080000 0.00400000
v -0.00094128 0.01075890 0.00400000
v -0.00187540 0.01063592 0.00400000
v -0.00279525 0.01043200 0.00400000
v -0.00369382 0.01014868 0.00400000
v -0.00456428 0.00978812 0.00400000
v -0.00540000 0.00935307 0.00400000
v -0.00619463 0.00884684 0.00400000
v -0.00694211 0.00827328 0.00400000
v -0.00763675 0.00763675 0.00400000
v -0.00827328 0.00694211 0.00400000
v -0.00884684 0.00619463 0.00400000
v -0.00935307 0.00540000 0.00400000
v -0.00978812 0.00456428 0.00400000
v -0.01014868 0.00369382 0.00400000
v -0.01043200 0.00279525 0.00400000
v -0.01063592 0.00187540 0.00400000
v -0.01075890 0.00094128 0.00400000
v -0.01080000 0.00000000 0.00400000
v -0.01075890 -0.00094128 0.00400000
v 0.00094128 -0.01075890 0.00375000
v 0.00187540 -0.01063592 0.00375000
v 0.00279525 -0.01043200 0.00375000
v 0.00369382 -0.01014868 0.00375000
v 0.00456428 -0.00978812 0.00375000
v 0.00540000 -0.00935307 0.00375000
v 0.00619463 -0.00884684 0.00375000
v 0.00694211 -0.00827328 0.00375000
v 0.00763675 -0.00763675 0.00375000
v 0.00827328 -0.00694211 0.00375000
v 0.00884684 -0.00619463 0.00375000
v 0.00935307 -0.00540000 0.00375000
v 0.00978812 -0.00456428 0.00375000
v 0.01014868 -0.00369382 0.00375000
v 0.01043200 -0.00279525 0.00375000
v 0.01063592 -0.00187540 0.00375000
v 0.01075890 -0.00094128 0.00375000
v 0.01080000 -0.00000000 0.00375000
v 0.01075890 0.00094128 0.00375000
v 0.01063592 0.00187540 0.00375000
v 0.01043200 0.00279525 0.00375000
v 0.01014868 0.00369382 0.00375000
v 0.00978812 0.00456428 0.00375000
v 0.00935307 0.00540000 0.00375000
v 0.00884684 0.00619463 0.00375000
v 0.00827328 0.00694211 0.00375000
v 0.00763675 0.00763675 0.00375000
v 0.00694211 0.00827328 0.00375000
v 0.00619463 0.00884684 0.00375000
v 0.00540000 0.00935307 0.00375000
v 0.00456428 0.00978812 0.00375000
v 0.00369382 0.01014868 0.00375000
v 0.00279525 0.01043200 0.00375000
v 0.00187540 0.01063592 0.00375000
v 0.00094128 0.01075890 0.00375000
v 0.00000000 0.01080000 0.00375000
v -0.00094128 0.01075890 0.00375000
v -0.00187540 0.01063592 0.00375000
v -0.00279525 0.01043200 0.00375000
v -0.00369382 0.01014868 0.00375000
v -0.00456428 0.00978812 0.00375000
v -0.00540000 0.00935307 0.00375000
v -0.00619463 0.00884684 0.00375000
v -0.00694211 0.00827328 0.00375000
v -0.00763675 0.00763675 0.00375000
v -0.00827328 0.00694211 0.00375000
v -0.00884684 0.00619463 0.00375000
v -0.00935307 0.00540000 0.00375000
v -0.00978812 0.00456428 0.00375000
v -0.01014868 0.00369382 0.00375000
v -0.01043200 0.00279525 0.00375000
v -0.01063592 0.00187540 0.00375000
v -0.01075890 0.00094128 0.00375000
v -0.01080000 0.00000000 0.00375000
v -0.01075890 -0.00094128 0.00375000
v -0.01063592 -0.00187540 0.00375000
v -0.01043200 -0.00279525 0.00375000
v -0.01014868 -0.00369382 0.00375000
v -0.00978812 -0.00456428 0.00375000
v -0.00935307 -0.00540000 0.00375000
v -0.00884684 -0.00619463 0.00375000
v -0.00827328 -0.00694211 0.00375000
v -0.00763675 -0.00763675 0.00375000
v -0.00694211 -0.00827328 0.00375000
v -0.00619463 -0.00884684 0.00375000
v -0.00540000 -0.00935307 0.00375000
v -0.00456428 -0.00978812 0.00375000
v -0.00369382 -0.01014868 0.00375000
v -0.00279525 -0.01043200 0.00375000
v -0.00187540 -0.01063592 0.00375000
v -0.00094128 -0.01075890 0.00375000
v -0.00000000 -0.01080000 0.00375000
v -0.00000000 -0.01100000 -0.00400000
v 0.00095871 -0.01095814 -0.00400000
v 0.00191013 -0.01083289 -0.00400000
v 0.00284701 -0.01062518 -0.00400000
v 0.00376222 -0.01033662 -0.00400000
v 0.00464880 -0.00996939 -0.00400000
v 0.00550000 -0.00952628 -0.00400000
v 0.00630934 -0.00901067 -0.00400000
v 0.00707066 -0.00842649 -0.00400000
v 0.00777817 -0.00777817 -0.00400000
v 0.00842649 -0.00707066 -0.00400000
v 0.00901067 -0.00630934 -0.00400000
v 0.00952628 -0.00550000 -0.00400000
v 0.00996939 -0.00464880 -0.00400000
v 0.01033662 -0.00376222 -0.00400000
v 0.01062518 -0.00284701 -0.00400000
v 0.01083289 -0.00191013 -0.00400000
v 0.01095814 -0.00095871 -0.00400000
v 0.01100000 -0.00000000 -0.00400000
v 0.01095814 0.00095871 -0.00400000
v 0.01083289 0.00191013 -0.00400000
v 0.01062518 0.00284701 -0.00400000
v 0.01033662 0.00376222 -0.00400000
v 0.00996939 0.00464880 -0.00400000
v 0.00952628 0.00550000 -0.00400000
v 0.00901067 0.00630934 -0.00400000
v 0.00842649 0.00707066 -0.00400000
v 0.00777817 0.00777817 -0.00400000
v 0.00707066 0.00842649 -0.00400000
v 0.00630934 0.00901067 -0.00400000
v 0.00550000 0.00952628 -0.00400000
v 0.00464880 0.00996939 -0.00400000
v 0.00376222 0.01033662 -0.00400000
v 0.00284701 0.01062518 -0.00400000
v 0.00191013 0.01083289 -0.00400000
v 0.00095871 0.01095814 -0.00400000
v 0.00000000 0.01100000 -0.00400000
v -0.00095871 0.01095814 -0.00400000
v -0.00191013 0.01083289 -0.00400000
v -0.00284701 0.01062518 -0.00400000
v -0.00376222 0.01033662 -0.00400000
v -0.00464880 0.00996939 -0.00400000
v -0.00550000 0.00952628 -0.00400000
v -0.00630934 0.00901067 -0.00400000
v -0.00707066 0.00842649 -0.00400000
v -0.00777817 0.00777817 -0.00400000
v -0.00842649 0.00707066 -0.00400000
v -0.00901067 0.00630934 -0.00400000
v -0.00952628 0.00550000 -0.00400000
v -0.00996939 0.00464880 -0.00400000
v -0.01033662 0.00376222 -0.00400000
v -0.01062518 0.00284701 -0.00400000
v -0.01083289 0.00191013 -0.00400000
v -0.01095814 0.00095871 -0.00400000
v -0.01100000 0.00000000 -0.00400000
v -0.01095814 -0.00095871 -0.00400000
v -0.01083289 -0.00191013 -0.00400000
v -0.01062518 -0.00284701 -0.00400000
v -0.01033662 -0.00376222 -0.00400000
v -0.00996939 -0.00464880 -0.00400000
v -0.00952628 -0.00550000 -0.00400000
v -0.00901067 -0.00630934 -0.00400000
v -0.00842649 -0.00707066 -0.00400000
v -0.00777817 -0.00777817 -0.00400000
v -0.00707066 -0.00842649 -0.00400000
v -0.00630934 -0.00901067 -0.00400000
v -0.00550000 -0.00952628 -0.00400000
v -0.00464880 -0.00996939 -0.00400000
v -0.00376222 -0.01033662 -0.00400000
v -0.00284701 -0.01062518 -0.00400000
v -0.00191013 -0.01083289 -0.00400000
v -0.00095871 -0.01095814 -0.00400000
v 0.00494975 -0.00494975 -0.00400000
v 0.00449951 -0.00536231 -0.00400000
v 0.00401503 -0.00573406 -0.00400000
v 0.00350000 -0.00606218 -0.00400000
v 0.00295833 -0.00634415 -0.00400000
v 0.00239414 -0.00657785 -0.00400000
v 0.00181173 -0.00676148 -0.00400000
v 0.00121554 -0.00689365 -0.00400000
v 0.00061009 -0.00697336 -0.00400000
v -0.00000000 -0.00700000 -0.00400000
v -0.00061009 -0.00697336 -0.00400000
v -0.00121554 -0.00689365 -0.00400000
v -0.00181173 -0.00676148 -0.00400000
v -0.00239414 -0.00657785 -0.00400000
v -0.00295833 -0.00634415 -0.00400000
v -0.00350000 -0.00606218 -0.00400000
v -0.00401503 -0.00573406 -0.00400000
v -0.00449951 -0.00536231 -0.00400000
v -0.00494975 -0.00494975 -0.00400000
v -0.00536231 -0.00449951 -0.00400000
v -0.00573406 -0.00401503 -0.00400000
v -0.00606218 -0.00350000 -0.00400000
v -0.00634415 -0.00295833 -0.00400000
v -0.00657785 -0.00239414 -0.00400000
v -0.00676148 -0.00181173 -0.00400000
v -0.00689365 -0.00121554 -0.00400000
v -0.00697336 -0.00061009 -0.00400000
v -0.00700000 0.00000000 -0.00400000
v -0.00697336 0.00061009 -0.00400000
v -0.00689365 0.00121554 -0.00400000
v -0.00676148 0.00181173 -0.00400000
v -0.00657785 0.00239414 -0.00400000
v -0.00634415 0.00295833 -0.00400000
v -0.00606218 0.00350000 -0.00400000
v -0.00573406 0.00401503 -0.00400000
v -0.00536231 0.00449951 -0.00400000
v -0.00494975 0.00494975 -0.00400000
v -0.00449951 0.00536231 -0.00400000
v -0.00401503 0.00573406 -0.00400000
v -0.00350000 0.00606218 -0.00400000
v -0.00295833 0.00634415 -0.00400000
v -0.00239414 0.00657785 -0.00400000
v -0.00181173 0.00676148 -0.00400000
v -0.00121554 0.00689365 -0.00400000
v -0.00061009 0.00697336 -0.00400000
v 0.00000000 0.00700000 -0.00400000
v 0.00061009 0.00697336 -0.00400000
v 0.00121554 0.00689365 -0.00400000
v 0.00181173 0.00676148 -0.00400000
v 0.00239414 0.00657785 -0.00400000
v 0.00295833 0.00634415 -0.00400000
v 0.00350000 0.00606218 -0.00400000
v 0.00401503 0.00573406 -0.00400000
v 0.00449951 0.00536231 -0.00400000
v 0.00494975 0.00494975 -0.00400000
v 0.00536231 0.00449951 -0.00400000
v 0.00573406 0.00401503 -0.00400000
v 0.00606218 0.00350000 -0.00400000
v 0.00634415 0.00295833 -0.00400000
v 0.00657785 0.00239414 -0.00400000
v 0.00676148 0.00181173 -0.00400000
v 0.00689365 0.00121554 -0.00400000
v 0.00697336 0.00061009 -0.00400000
v 0.00700000 -0.00000000 -0.00400000
v 0.00697336 -0.00061009 -0.00400000
v 0.00689365 -0.00121554 -0.00400000
v 0.00676148 -0.00181173 -0.00400000
v 0.00657785 -0.00239414 -0.00400000
v 0.00634415 -0.00295833 -0.00400000
v 0.00606218 -0.00350000 -0.00400000
v 0.00573406 -0.00401503 -0.00400000
v 0.00536231 -0.00449951 -0.00400000
v -0.00000000 -0.00700000 -0.00375000
v 0.00061009 -0.00697336 -0.00375000
v 0.00121554 -0.00689365 -0.00375000
v 0.00181173 -0.00676148 -0.00375000
v 0.00239414 -0.00657785 -0.00375000
v 0.00295833 -0.00634415 -0.00375000
v 0.00350000 -0.00606218 -0.00375000
v 0.00401503 -0.00573406 -0.00375000
v 0.00449951 -0.00536231 -0.00375000
v 0.00494975 -0.00494975 -0.00375000
v 0.00536231 -0.00449951 -0.00375000
v 0.00573406 -0.00401503 -0.00375000
v 0.00606218 -0.00350000 -0.00375000
v 0.00634415 -0.00295833 -0.00375000
v 0.00657785 -0.00239414 -0.00375000
v 0.00676148 -0.00181173 -0.00375000
v 0.00689365 -0.00121554 -0.00375000
v 0.00697336 -0.00061009 -0.00375000
v 0.00700000 -0.00000000 -0.00375000
v 0.00697336 0.00061009 -0.00375000
v 0.00689365 0.00121554 -0.00375000
v 0.00676148 0.00181173 -0.00375000
v 0.00657785 0.00239414 -0.00375000
v 0.00634415 0.00295833 -0.00375000
v 0.00606218 0.00350000 -0.00375000
v 0.00573406 0.00401503 -0.00375000
v 0.00536231 0.00449951 -0.00375000
v 0.00494975 0.00494975 -0.00375000
v 0.00449951 0.00536231 -0.00375000
v 0.00401503 0.00573406 -0.00375000
v 0.00350000 0.00606218 -0.00375000
v 0.00295833 0.00634415 -0.00375000
v 0.00239414 0.00657785 -0.00375000
v 0.00181173 0.00676148 -0.00375000
v 0.00121554 0.00689365 -0.00375000
v 0.00061009 0.00697336 -0.00375000
v 0.00000000 0.00700000 -0.00375000
v -0.00061009 0.00697336 -0.00375000
v -0.00121554 0.00689365 -0.00375000
v -0.00181173 0.00676148 -0.00375000
v -0.00239414 0.00657785 -0.00375000
v -0.00295833 0.00634415 -0.00375000
v -0.00350000 0.00606218 -0.00375000
v -0.00401503 0.00573406 -0.00375000
v -0.00449951 0.00536231 -0.00375000
v -0.00494975 0.00494975 -0.00375000
v -0.00536231 0.00449951 -0.00375000
v -0.00573406 0.00401503 -0.00375000
v -0.00606218 0.00350000 -0.00375000
v -0.00634415 0.00295833 -0.00375000
v -0.00657785 0.00239414 -0.00375000
v -0.00676148 0.00181173 -0.00375000
v -0.00689365 0.00121554 -0.00375000
v -0.00697336 0.00061009 -0.00375000
v -0.00700000 0.00000000 -0.00375000
v -0.00697336 -0.00061009 -0.00375000
v -0.00689365 -0.00121554 -0.00375000
v -0.00676148 -0.00181173 -0.00375000
v -0.00657785 -0.00239414 -0.00375000
v -0.00634415 -0.00295833 -0.00375000
v -0.00606218 -0.00350000 -0.00375000
v -0.00573406 -0.00401503 -0.00375000
v -0.00536231 -0.00449951 -0.00375000
v -0.00494975 -0.00494975 -0.00375000
v -0.00449951 -0.00536231 -0.00375000
v -0.00401503 -0.00573406 -0.00375000
v -0.00350000 -0.00606218 -0.00375000
v -0.00295833 -0.00634415 -0.00375000
v -0.00239414 -0.00657785 -0.00375000
v -0.00181173 -0.00676148 -0.00375000
v -0.00121554 -0.00689365 -0.00375000
v -0.00061009 -0.00697336 -0.00375000
f 1 2 3
f 2 4 3
f 3 4 5
f 4 6 5
f 5 6 7
f 6 8 7
f 7 8 9
f 8 10 9
f 9 10 11
f 10 12 11
f 11 12 13
f 12 14 13
f 13 14 15
f 14 16 15
f 15 16 17
f 16 18 17
f 17 18 19
f 18 20 19
f 19 20 21
f 20 22 21
f 21 22 23
f 22 24 23
f 23 24 25
f 24 26 25
f 25 26 27
f 26 28 27
f 27 28 29
f 28 30 29
f 29 30 31
f 30 32 31
f 31 32 33
f 32 34 33
f 33 34 35
f 34 36 35
f 35 36 37
f 36 38 37
f 37 38 39
f 38 40 39
f 39 40 41
f 40 42 41
f 41 42 43
f 42 44 43
f 43 44 45
f 44 46 45
f 45 46 47
f 46 48 47
f 47 48 49
f 48 50 49
f 49 50 51
f 50 52 51
f 51 52 53
f 52 54 53
f 53 54 55
f 54 56 55
f 55 56 57
f 56 58 57
f 57 58 59
f 58 60 59
f 59 60 61
f 60 62 61
f 61 62 63
f 62 64 63
f 63 64 65
f 64 66 65
f 65 66 67
f 66 68 67
f 67 68 69
f 68 70 69
f 69 70 71
f 70 72 71
f 71 72 73
f 72 74 73
f 73 74 75
f 74 76 75
f 75 76 77
f 76 78 77
f 77 78 79
f 78 80 79
f 79 80 81
f 80 82 81
f 81 82 83
f 82 84 83
f 83 84 85
f 84 86 85
f 85 86 87
f 86 88 87
f 87 88 89
f 88 90 89
f 89 90 91
f 90 92 91
f 91 92 93
f 92 94 93
f 93 94 95
f 94 96 95
f 95 96 97
f 96 98 97
f 97 98 99
f 98 100 99
f 99 100 101
f 100 102 101
f 101 102 103
f 102 104 103
f 103 104 105
f 104 106 105
f 105 106 107
f 106 108 107
f 107 108 109
f 108 110 109
f 109 110 111
f 110 112 111
f 111 112 113
f 112 114 113
f 113 114 115
f 114 116 115
f 115 116 117
f 116 118 117
f 117 118 119
f 118 120 119
f 119 120 121
f 120 122 121
f 121 122 123
f 122 124 123
f 123 124 125
f 124 126 125
f 125 126 127
f 126 128 127
f 127 128 129
f 128 130 129
f 129 130 131
f 130 132 131
f 131 132 133
f 132 134 133
f 133 134 135
f 134 136 135
f 135 136 137
f 136 138 137
f 137 138 139
f 138 140 139
f 139 140 141
f 140 142 141
f 141 142 143
f 142 144 143
f 143 144 1
f 144 2 1
f 39 145 37
f 145 146 37
f 37 146 35
f 146 147 35
f 35 147 33
f 147 148 33
f 33 148 31
f 148 149 31
f 31 149 29
f 149 150 29
f 29 150 27
f 150 151 27
f 27 151 25
f 151 152 25
f 25 152 23
f 152 153 23
f 23 153 21
f 153 154 21
f 21 154 19
f 154 155 19
f 19 155 17
f 155 156 17
f 17 156 15
f 156 157 15
f 15 157 13
f 157 158 13
f 13 158 11
f 158 159 11
f 11 159 9
f 159 160 9
f 9 160 7
f 160 161 7
f 7 161 5
f 161 162 5
f 5 162 3
f 162 163 3
f 3 163 1
f 163 164 1
f 1 164 143
f 164 165 143
f 143 165 141
f 165 166 141
f 141 166 139
f 166 167 139
f 139 167 137
f 167 168 137
f 137 168 135
f 168 169 135
f 135 169 133
f 169 170 133
f 133 170 131
f 170 171 131
f 131 171 129
f 171 172 129
f 129 172 127
f 172 173 127
f 127 173 125
f 173 174 125
f 125 174 123
f 174 175 123
f 123 175 121
f 175 176 121
f 121 176 119
f 176 177 119
f 119 177 117
f 177 178 117
f 117 178 115
f 178 179 115
f 115 179 113
f 179 180 113
f 113 180 111
f 180 181 111
f 111 181 109
f 181 182 109
f 109 182 107
f 182 183 107
f 107 183 105
f 183 184 105
f 105 184 103
f 184 185 103
f 103 185 101
f 185 186 101
f 101 186 99
f 186 187 99
f 99 187 97
f 187 188 97
f 97 188 95
f 188 189 95
f 95 189 93
f 189 190 93
f 93 190 91
f 190 191 91
f 91 191 89
f 191 192 89
f 89 192 87
f 192 193 87
f 87 193 85
f 193 194 85
f 85 194 83
f 194 195 83
f 83 195 81
f 195 196 81
f 81 196 79
f 196 197 79
f 79 197 77
f 197 198 77
f 77 198 75
f 198 199 75
f 75 199 73
f 199 200 73
f 73 200 71
f 200 201 71
f 71 201 69
f 201 202 69
f 69 202 67
f 202 203 67
f 67 203 65
f 203 204 65
f 65 204 63
f 204 205 63
f 63 205 61
f 205 206 61
f 61 206 59
f 206 207 59
f 59 207 57
f 207 208 57
f 57 208 55
f 208 209 55
f 55 209 53
f 209 210 53
f 53 210 51
f 210 211 51
f 51 211 49
f 211 212 49
f 49 212 47
f 212 213 47
f 47 213 45
f 213 214 45
f 45 214 43
f 214 215 43
f 43 215 41
f 215 216 41
f 41 216 39
f 216 145 39
f 217 191 218
f 191 190 218
f 218 190 219
f 190 189 219
f 219 189 220
f 189 188 220
f 220 188 221
f 188 187 221
f 221 187 222
f 187 186 222
f 222 186 223
f 186 185 223
f 223 185 224
f 185 184 224
f 224 184 225
f 184 183 225
f 225 183 226
f 183 182 226
f 226 182 227
f 182 181 227
f 227 181 228
f 181 180 228
f 228 180 229
f 180 179 229
f 229 179 230
f 179 178 230
f 230 178 231
f 178 177 231
f 231 177 232
f 177 176 232
f 232 176 233
f 176 175 233
f 233 175 234
f 175 174 234
f 234 174 235
f 174 173 235
f 235 173 236
f 173 172 236
f 236 172 237
f 172 171 237
f 237 171 238
f 171 170 238
f 238 170 239
f 170 169 239
f 239 169 240
f 169 168 240
f 240 168 241
f 168 167 241
f 241 167 242
f 167 166 242
f 242 166 243
f 166 165 243
f 243 165 244
f 165 164 244
f 244 164 245
f 164 163 245
f 245 163 246
f 163 162 246
f 246 162 247
f 162 161 247
f 247 161 248
f 161 160 248
f 248 160 249
f 160 159 249
f 249 159 250
f 159 158 250
f 250 158 251
f 158 157 251
f 251 157 252
f 157 156 252
f 252 156 253
f 156 155 253
f 253 155 254
f 155 154 254
f 254 154 255
f 154 153 255
f 255 153 256
f 153 152 256
f 256 152 257
f 152 151 257
f 257 151 258
f 151 150 258
f 258 150 259
f 150 149 259
f 259 149 260
f 149 148 260
f 260 148 261
f 148 147 261
f 261 147 262
f 147 146 262
f 262 146 263
f 146 145 263
f 263 145 264
f 145 216 264
f 264 216 265
f 216 215 265
f 265 215 266
f 215 214 266
f 266 214 267
f 214 213 267
f 267 213 268
f 213 212 268
f 268 212 269
f 212 211 269
f 269 211 270
f 211 210 270
f 270 210 271
f 210 209 271
f 271 209 272
f 209 208 272
f 272 208 273
f 208 207 273
f 273 207 274
f 207 206 274
f 274 206 275
f 206 205 275
f 275 205 276
f 205 204 276
f 276 204 277
f 204 203 277
f 277 203 278
f 203 202 278
f 278 202 279
f 202 201 279
f 279 201 280
f 201 200 280
f 280 200 281
f 200 199 281
f 281 199 282
f 199 198 282
f 282 198 283
f 198 197 283
f 283 197 284
f 197 196 284
f 284 196 285
f 196 195 285
f 285 195 286
f 195 194 286
f 286 194 287
f 194 193 287
f 287 193 288
f 193 192 288
f 288 192 217
f 192 191 217
f 264 289 263
f 289 290 263
f 263 290 262
f 290 291 262
f 262 291 261
f 291 292 261
f 261 292 260
f 292 293 260
f 260 293 259
f 293 294 259
f 259 294 258
f 294 295 258
f 258 295 257
f 295 296 257
f 257 296 256
f 296 297 256
f 256 297 255
f 297 298 255
f 255 298 254
f 298 299 254
f 254 299 253
f 299 300 253
f 253 300 252
f 300 301 252
f 252 301 251
f 301 302 251
f 251 302 250
f 302 303 250
f 250 303 249
f 303 304 249
f 249 304 248
f 304 305 248
f 248 305 247
f 305 306 247
f 247 306 246
f 306 307 246
f 246 307 245
f 307 308 245
f 245 308 244
f 308 309 244
f 244 309 243
f 309 310 243
f 243 310 242
f 310 311 242
f 242 311 241
f 311 312 241
f 241 312 240
f 312 313 240
f 240 313 239
f 313 314 239
f 239 314 238
f 314 315 238
f 238 315 237
f 315 316 237
f 237 316 236
f 316 317 236
f 236 317 235
f 317 318 235
f 235 318 234
f 318 319 234
f 234 319 233
f 319 320 233
f 233 320 232
f 320 321 232
f 232 321 231
f 321 322 231
f 231 322 230
f 322 323 230
f 230 323 229
f 323 324 229
f 229 324 228
f 324 325 228
f 228 325 227
f 325 326 227
f 227 326 226
f 326 327 226
f 226 327 225
f 327 328 225
f 225 328 224
f 328 329 224
f 224 329 223
f 329 330 223
f 223 330 222
f 330 331 222
f 222 331 221
f 331 332 221
f 221 332 220
f 332 333 220
f 220 333 219
f 333 334 219
f 219 334 218
f 334 335 218
f 218 335 217
f 335 336 217
f 217 336 288
f 336 337 288
f 288 337 287
f 337 338 287
f 287 338 286
f 338 339 286
f 286 339 285
f 339 340 285
f 285 340 284
f 340 341 284
f 284 341 283
f 341 342 283
f 283 342 282
f 342 343 282
f 282 343 281
f 343 344 281
f 281 344 280
f 344 345 280
f 280 345 279
f 345 346 279
f 279 346 278
f 346 347 278
f 278 347 277
f 347 348 277
f 277 348 276
f 348 349 276
f 276 349 275
f 349 350 275
f 275 350 274
f 350 351 274
f 274 351 273
f 351 352 273
f 273 352 272
f 352 353 272
f 272 353 271
f 353 354 271
f 271 354 270
f 354 355 270
f 270 355 269
f 355 356 269
f 269 356 268
f 356 357 268
f 268 357 267
f 357 358 267
f 267 358 266
f 358 359 266
f 266 359 265
f 359 360 265
f 265 360 264
f 360 289 264
f 361 362 363
f 362 364 363
f 363 364 365
f 364 366 365
f 365 366 367
f 366 368 367
f 367 368 369
f 368 370 369
f 369 370 371
f 370 372 371
f 371 372 373
f 372 374 373
f 373 374 375
f 374 376 375
f 375 376 377
f 376 378 377
f 377 378 379
f 378 380 379
f 379 380 381
f 380 382 381
f 381 382 383
f 382 384 383
f 383 384 385
f 384 386 385
f 385 386 387
f 386 388 387
f 387 388 389
f 388 390 389
f 389 390 391
f 390 392 391
f 391 392 393
f 392 394 393
f 393 394 395
f 394 396 395
f 395 396 397
f 396 398 397
f 397 398 399
f 398 400 399
f 399 400 401
f 400 402 401
f 401 402 403
f 402 404 403
f 403 404 405
f 404 406 405
f 405 406 407
f 406 408 407
f 407 408 409
f 408 410 409
f 409 410 411
f 410 412 411
f 411 412 413
f 412 414 413
f 413 414 415
f 414 416 415
f 415 416 417
f 416 418 417
f 417 418 419
f 418 420 419
f 419 420 421
f 420 422 421
f 421 422 423
f 422 424 423
f 423 424 425
f 424 426 425
f 425 426 427
f 426 428 427
f 427 428 429
f 428 430 429
f 429 430 431
f 430 432 431
f 431 432 433
f 432 434 433
f 433 434 435
f 434 436 435
f 435 436 437
f 436 438 437
f 437 438 439
f 438 440 439
f 439 440 441
f 440 442 441
f 441 442 443
f 442 444 443
f 443 444 445
f 444 446 445
f 445 446 447
f 446 448 447
f 447 448 449
f 448 450 449
f 449 450 451
f 450 452 451
f 451 452 453
f 452 454 453
f 453 454 455
f 454 456 455
f 455 456 457
f 456 458 457
f 457 458 459
f 458 460 459
f 459 460 461
f 460 462 461
f 461 462 463
f 462 464 463
f 463 464 465
f 464 466 465
f 465 466 467
f 466 468 467
f 467 468 469
f 468 470 469
f 469 470 471
f 470 472 471
f 471 472 473
f 472 474 473
f 473 474 475
f 474 476 475
f 475 476 477
f 476 478 477
f 477 478 479
f 478 480 479
f 479 480 481
f 480 482 481
f 481 482 483
f 482 484 483
f 483 484 485
f 484 486 485
f 485 486 487
f 486 488 487
f 487 488 489
f 488 490 489
f 489 490 491
f 490 492 491
f 491 492 493
f 492 494 493
f 493 494 495
f 494 496 495
f 495 496 497
f 496 498 497
f 497 498 499
f 498 500 499
f 499 500 501
f 500 502 501
f 501 502 503
f 502 504 503
f 503 504 361
f 504 362 361
f 505 369 506
f 369 371 506
f 506 371 507
f 371 373 507
f 507 373 508
f 373 375 508
f 508 375 509
f 375 377 509
f 509 377 510
f 377 379 510
f 510 379 511
f 379 381 511
f 511 381 512
f 381 383 512
f 512 383 513
f 383 385 513
f 513 385 514
f 385 387 514
f 514 387 515
f 387 389 515
f 515 389 516
f 389 391 516
f 516 391 517
f 391 393 517
f 517 393 518
f 393 395 518
f 518 395 519
f 395 397 519
f 519 397 520
f 397 399 520
f 520 399 521
f 399 401 521
f 521 401 522
f 401 403 522
f 522 403 523
f 403 405 523
f 523 405 524
f 405 407 524
f 524 407 525
f 407 409 525
f 525 409 526
f 409 411 526
f 526 411 527
f 411 413 527
f 527 413 528
f 413 415 528
f 528 415 529
f 415 417 529
f 529 417 530
f 417 419 530
f 530 419 531
f 419 421 531
f 531 421 532
f 421 423 532
f 532 423 533
f 423 425 533
f 533 425 534
f 425 427 534
f 534 427 535
f 427 429 535
f 535 429 536
f 429 431 536
f 536 431 537
f 431 433 537
f 537 433 538
f 433 435 538
f 538 435 539
f 435 437 539
f 539 437 540
f 437 439 540
f 540 439 541
f 439 441 541
f 541 441 542
f 441 443 542
f 542 443 543
f 443 445 543
f 543 445 544
f 445 447 544
f 544 447 545
f 447 449 545
f 545 449 546
f 449 451 546
f 546 451 547
f 451 453 547
f 547 453 548
f 453 455 548
f 548 455 549
f 455 457 549
f 549 457 550
f 457 459 550
f 550 459 551
f 459 461 551
f 551 461 552
f 461 463 552
f 552 463 553
f 463 465 553
f 553 465 554
f 465 467 554
f 554 467 555
f 467 469 555
f 555 469 556
f 469 471 556
f 556 471 557
f 471 473 557
f 557 473 558
f 473 475 558
f 558 475 559
f 475 477 559
f 559 477 560
f 477 479 560
f 560 479 561
f 479 481 561
f 561 481 562
f 481 483 562
f 562 483 563
f 483 485 563
f 563 485 564
f 485 487 564
f 564 487 565
f 487 489 565
f 565 489 566
f 489 491 566
f 566 491 567
f 491 493 567
f 567 493 568
f 493 495 568
f 568 495 569
f 495 497 569
f 569 497 570
f 497 499 570
f 570 499 571
f 499 501 571
f 571 501 572
f 501 503 572
f 572 503 573
f 503 361 573
f 573 361 574
f 361 363 574
f 574 363 575
f 363 365 575
f 575 365 576
f 365 367 576
f 576 367 505
f 367 369 505
f 577 573 578
f 573 574 578
f 578 574 579
f 574 575 579
f 579 575 580
f 575 576 580
f 580 576 581
f 576 505 581
f 581 505 582
f 505 506 582
f 582 506 583
f 506 507 583
f 583 507 584
f 507 508 584
f 584 508 585
f 508 509 585
f 585 509 586
f 509 510 586
f 586 510 587
f 510 511 587
f 587 511 588
f 511 512 588
f 588 512 589
f 512 513 589
f 589 513 590
f 513 514 590
f 590 514 591
f 514 515 591
f 591 515 592
f 515 516 592
f 592 516 593
f 516 517 593
f 593 517 594
f 517 518 594
f 594 518 595
f 518 519 595
f 595 519 596
f 519 520 596
f 596 520 597
f 520 521 597
f 597 521 598
f 521 522 598
f 598 522 599
f 522 523 599
f 599 523 600
f 523 524 600
f 600 524 601
f 524 525 601
f 601 525 602
f 525 526 602
f 602 526 603
f 526 527 603
f 603 527 604
f 527 528 604
f 604 528 605
f 528 529 605
f 605 529 606
f 529 530 606
f 606 530 607
f 530 531 607
f 607 531 608
f 531 532 608
f 608 532 609
f 532 533 609
f 609 533 610
f 533 534 610
f 610 534 611
f 534 535 611
f 611 535 612
f 535 536 612
f 612 536 613
f 536 537 613
f 613 537 614
f 537 538 614
f 614 538 615
f 538 539 615
f 615 539 616
f 539 540 616
f 616 540 617
f 540 541 617
f 617 541 618
f 541 542 618
f 618 542 619
f 542 543 619
f 619 543 620
f 543 544 620
f 620 544 621
f 544 545 621
f 621 545 622
f 545 546 622
f 622 546 623
f 546 547 623
f 623 547 624
f 547 548 624
f 624 548 625
f 548 549 625
f 625 549 626
f 549 550 626
f 626 550 627
f 550 551 627
f 627 551 628
f 551 552 628
f 628 552 629
f 552 553 629
f 629 553 630
f 553 554 630
f 630 554 631
f 554 555 631
f 631 555 632
f 555 556 632
f 632 556 633
f 556 557 633
f 633 557 634
f 557 558 634
f 634 558 635
f 558 559 635
f 635 559 636
f 559 560 636
f 636 560 637
f 560 561 637
f 637 561 638
f 561 562 638
f 638 562 639
f 562 563 639
f 639 563 640
f 563 564 640
f 640 564 641
f 564 565 641
f 641 565 642
f 565 566 642
f 642 566 643
f 566 567 643
f 643 567 644
f 567 568 644
f 644 568 645
f 568 569 645
f 645 569 646
f 569 570 646
f 646 570 647
f 570 571 647
f 647 571 648
f 571 572 648
f 648 572 577
f 572 573 577
f 649 650 651
f 650 652 651
f 651 652 653
f 652 654 653
f 653 654 655
f 654 656 655
f 655 656 657
f 656 658 657
f 657 658 659
f 658 660 659
f 659 660 661
f 660 662 661
f 661 662 663
f 662 664 663
f 663 664 665
f 664 666 665
f 665 666 667
f 666 668 667
f 667 668 669
f 668 670 669
f 669 670 671
f 670 672 671
f 671 672 673
f 672 674 673
f 673 674 675
f 674 676 675
f 675 676 677
f 676 678 677
f 677 678 679
f 678 680 679
f 679 680 681
f 680 682 681
f 681 682 683
f 682 684 683
f 683 684 685
f 684 686 685
f 685 686 687
f 686 688 687
f 687 688 689
f 688 690 689
f 689 690 691
f 690 692 691
f 691 692 693
f 692 694 693
f 693 694 695
f 694 696 695
f 695 696 697
f 696 698 697
f 697 698 699
f 698 700 699
f 699 700 701
f 700 702 701
f 701 702 703
f 702 704 703
f 703 704 705
f 704 706 705
f 705 706 707
f 706 708 707
f 707 708 709
f 708 710 709
f 709 710 711
f 710 712 711
f 711 712 713
f 712 714 713
f 713 714 715
f 714 716 715
f 715 716 717
f 716 718 717
f 717 718 719
f 718 720 719
f 719 720 721
f 720 722 721
f 721 722 723
f 722 724 723
f 723 724 725
f 724 726 725
f 725 726 727
f 726 728 727
f 727 728 729
f 728 730 729
f 729 730 731
f 730 732 731
f 731 732 733
f 732 734 733
f 733 734 735
f 734 736 735
f 735 736 737
f 736 738 737
f 737 738 739
f 738 740 739
f 739 740 741
f 740 742 741
f 741 742 743
f 742 744 743
f 743 744 745
f 744 746 745
f 745 746 747
f 746 748 747
f 747 748 749
f 748 750 749
f 749 750 751
f 750 752 751
f 751 752 753
f 752 754 753
f 753 754 755
f 754 756 755
f 755 756 757
f 756 758 757
f 757 758 759
f 758 760 759
f 759 760 761
f 760 762 761
f 761 762 763
f 762 764 763
f 763 764 765
f 764 766 765
f 765 766 767
f 766 768 767
f 767 768 769
f 768 770 769
f 769 770 771
f 770 772 771
f 771 772 773
f 772 774 773
f 773 774 775
f 774 776 775
f 775 776 777
f 776 778 777
f 777 778 779
f 778 780 779
f 779 780 781
f 780 782 781
f 781 782 783
f 782 784 783
f 783 784 785
f 784 786 785
f 785 786 787
f 786 788 787
f 787 788 789
f 788 790 789
f 789 790 791
f 790 792 791
f 791 792 649
f 792 650 649
f 793 794 795
f 794 796 795
f 795 796 797
f 796 798 797
f 797 798 799
f 798 800 799
f 799 800 801
f 800 802 801
f 801 802 803
f 802 804 803
f 803 804 805
f 804 806 805
f 805 806 807
f 806 808 807
f 807 808 809
f 808 810 809
f 809 810 811
f 810 812 811
f 811 812 813
f 812 814 813
f 813 814 815
f 814 816 815
f 815 816 817
f 816 818 817
f 817 818 819
f 818 820 819
f 819 820 821
f 820 822 821
f 821 822 823
f 822 824 823
f 823 824 825
f 824 826 825
f 825 826 827
f 826 828 827
f 827 828 829
f 828 830 829
f 829 830 831
f 830 832 831
f 831 832 833
f 832 834 833
f 833 834 835
f 834 836 835
f 835 836 837
f 836 838 837
f 837 838 839
f 838 840 839
f 839 840 841
f 840 842 841
f 841 842 843
f 842 844 843
f 843 844 845
f 844 846 845
f 845 846 847
f 846 848 847
f 847 848 849
f 848 850 849
f 849 850 851
f 850 852 851
f 851 852 853
f 852 854 853
f 853 854 855
f 854 856 855
f 855 856 857
f 856 858 857
f 857 858 859
f 858 860 859
f 859 860 861
f 860 862 861
f 861 862 863
f 862 864 863
f 863 864 865
f 864 866 865
f 865 866 867
f 866 868 867
f 867 868 869
f 868 870 869
f 869 870 871
f 870 872 871
f 871 872 873
f 872 874 873
f 873 874 875
f 874 876 875
f 875 876 877
f 876 878 877
f 877 878 879
f 878 880 879
f 879 880 881
f 880 882 881
f 881 882 883
f 882 884 883
f 883 884 885
f 884 886 885
f 885 886 887
f 886 888 887
f 887 888 889
f 888 890 889
f 889 890 891
f 890 892 891
f 891 892 893
f 892 894 893
f 893 894 895
f 894 896 895
f 895 896 897
f 896 898 897
f 897 898 899
f 898 900 899
f 899 900 901
f 900 902 901
f 901 902 903
f 902 904 903
f 903 904 905
f 904 906 905
f 905 906 907
f 906 908 907
f 907 908 909
f 908 910 909
f 909 910 911
f 910 912 911
f 911 912 913
f 912 914 913
f 913 914 915
f 914 916 915
f 915 916 917
f 916 918 917
f 917 918 919
f 918 920 919
f 919 920 921
f 920 922 921
f 921 922 923
f 922 924 923
f 923 924 925
f 924 926 925
f 925 926 927
f 926 928 927
f 927 928 929
f 928 930 929
f 929 930 931
f 930 932 931
f 931 932 933
f 932 934 933
f 933 934 935
f 934 936 935
f 935 936 793
f 936 794 793
f 900 755 902
f 755 757 902
f 902 757 904
f 757 759 904
f 904 759 906
f 759 761 906
f 906 761 908
f 761 763 908
f 908 763 910
f 763 765 910
f 910 765 912
f 765 767 912
f 912 767 914
f 767 769 914
f 914 769 916
f 769 771 916
f 916 771 918
f 771 773 918
f 918 773 920
f 773 775 920
f 920 775 922
f 775 777 922
f 922 777 924
f 777 779 924
f 924 779 926
f 779 781 926
f 926 781 928
f 781 783 928
f 928 783 930
f 783 785 930
f 930 785 932
f 785 787 932
f 932 787 934
f 787 789 934
f 934 789 936
f 789 791 936
f 936 791 794
f 791 649 794
f 794 649 796
f 649 651 796
f 796 651 798
f 651 653 798
f 798 653 800
f 653 655 800
f 800 655 802
f 655 657 802
f 802 657 804
f 657 659 804
f 804 659 806
f 659 661 806
f 806 661 808
f 661 663 808
f 808 663 810
f 663 665 810
f 810 665 812
f 665 667 812
f 812 667 814
f 667 669 814
f 814 669 816
f 669 671 816
f 816 671 818
f 671 673 818
f 818 673 820
f 673 675 820
f 820 675 822
f 675 677 822
f 822 677 824
f 677 679 824
f 824 679 826
f 679 681 826
f 826 681 828
f 681 683 828
f 828 683 830
f 683 685 830
f 830 685 832
f 685 687 832
f 832 687 834
f 687 689 834
f 834 689 836
f 689 691 836
f 836 691 838
f 691 693 838
f 838 693 840
f 693 695 840
f 840 695 842
f 695 697 842
f 842 697 844
f 697 699 844
f 844 699 846
f 699 701 846
f 846 701 848
f 701 703 848
f 848 703 850
f 703 705 850
f 850 705 852
f 705 707 852
f 852 707 854
f 707 709 854
f 854 709 856
f 709 711 856
f 856 711 858
f 711 713 858
f 858 713 860
f 713 715 860
f 860 715 862
f 715 717 862
f 862 717 864
f 717 719 864
f 864 719 866
f 719 721 866
f 866 721 868
f 721 723 868
f 868 723 870
f 723 725 870
f 870 725 872
f 725 727 872
f 872 727 874
f 727 729 874
f 874 729 876
f 729 731 876
f 876 731 878
f 731 733 878
f 878 733 880
f 733 735 880
f 880 735 882
f 735 737 882
f 882 737 884
f 737 739 884
f 884 739 886
f 739 741 886
f 886 741 888
f 741 743 888
f 888 743 890
f 743 745 890
f 890 745 892
f 745 747 892
f 892 747 894
f 747 749 894
f 894 749 896
f 749 751 896
f 896 751 898
f 751 753 898
f 898 753 900
f 753 755 900
f 370 937 372
f 937 938 372
f 372 938 374
f 938 939 374
f 374 939 376
f 939 940 376
f 376 940 378
f 940 941 378
f 378 941 380
f 941 942 380
f 380 942 382
f 942 943 382
f 382 943 384
f 943 944 384
f 384 944 386
f 944 945 386
f 386 945 388
f 945 946 388
f 388 946 390
f 946 947 390
f 390 947 392
f 947 948 392
f 392 948 394
f 948 949 394
f 394 949 396
f 949 950 396
f 396 950 398
f 950 951 398
f 398 951 400
f 951 952 400
f 400 952 402
f 952 953 402
f 402 953 404
f 953 954 404
f 404 954 406
f 954 955 406
f 406 955 408
f 955 956 408
f 408 956 410
f 956 957 410
f 410 957 412
f 957 958 412
f 412 958 414
f 958 959 414
f 414 959 416
f 959 960 416
f 416 960 418
f 960 961 418
f 418 961 420
f 961 962 420
f 420 962 422
f 962 963 422
f 422 963 424
f 963 964 424
f 424 964 426
f 964 965 426
f 426 965 428
f 965 966 428
f 428 966 430
f 966 967 430
f 430 967 432
f 967 968 432
f 432 968 434
f 968 969 434
f 434 969 436
f 969 970 436
f 436 970 438
f 970 971 438
f 438 971 440
f 971 972 440
f 440 972 442
f 972 973 442
f 442 973 444
f 973 974 444
f 444 974 446
f 974 975 446
f 446 975 448
f 975 976 448
f 448 976 450
f 976 977 450
f 450 977 452
f 977 978 452
f 452 978 454
f 978 979 454
f 454 979 456
f 979 980 456
f 456 980 458
f 980 981 458
f 458 981 460
f 981 982 460
f 460 982 462
f 982 983 462
f 462 983 464
f 983 984 464
f 464 984 466
f 984 985 466
f 466 985 468
f 985 986 468
f 468 986 470
f 986 987 470
f 470 987 472
f 987 988 472
f 472 988 474
f 988 989 474
f 474 989 476
f 989 990 476
f 476 990 478
f 990 991 478
f 478 991 480
f 991 992 480
f 480 992 482
f 992 993 482
f 482 993 484
f 993 994 484
f 484 994 486
f 994 995 486
f 486 995 488
f 995 996 488
f 488 996 490
f 996 997 490
f 490 997 492
f 997 998 492
f 492 998 494
f 998 999 494
f 494 999 496
f 999 1000 496
f 496 1000 498
f 1000 1001 498
f 498 1001 500
f 1001 1002 500
f 500 1002 502
f 1002 1003 502
f 502 1003 504
f 1003 1004 504
f 504 1004 362
f 1004 1005 362
f 362 1005 364
f 1005 1006 364
f 364 1006 366
f 1006 1007 366
f 366 1007 368
f 1007 1008 368
f 368 1008 370
f 1008 937 370
f 1004 1009 1005
f 1009 1010 1005
f 1005 1010 1006
f 1010 1011 1006
f 1006 1011 1007
f 1011 1012 1007
f 1007 1012 1008
f 1012 1013 1008
f 1008 1013 937
f 1013 1014 937
f 937 1014 938
f 1014 1015 938
f 938 1015 939
f 1015 1016 939
f 939 1016 940
f 1016 1017 940
f 940 1017 941
f 1017 1018 941
f 941 1018 942
f 1018 1019 942
f 942 1019 943
f 1019 1020 943
f 943 1020 944
f 1020 1021 944
f 944 1021 945
f 1021 1022 945
f 945 1022 946
f 1022 1023 946
f 946 1023 947
f 1023 1024 947
f 947 1024 948
f 1024 1025 948
f 948 1025 949
f 1025 1026 949
f 949 1026 950
f 1026 1027 950
f 950 1027 951
f 1027 1028 951
f 951 1028 952
f 1028 1029 952
f 952 1029 953
f 1029 1030 953
f 953 1030 954
f 1030 1031 954
f 954 1031 955
f 1031 1032 955
f 955 1032 956
f 1032 1033 956
f 956 1033 957
f 1033 1034 957
f 957 1034 958
f 1034 1035 958
f 958 1035 959
f 1035 1036 959
f 959 1036 960
f 1036 1037 960
f 960 1037 961
f 1037 1038 961
f 961 1038 962
f 1038 1039 962
f 962 1039 963
f 1039 1040 963
f 963 1040 964
f 1040 1041 964
f 964 1041 965
f 1041 1042 965
f 965 1042 966
f 1042 1043 966
f 966 1043 967
f 1043 1044 967
f 967 1044 968
f 1044 1045 968
f 968 1045 969
f 1045 1046 969
f 969 1046 970
f 1046 1047 970
f 970 1047 971
f 1047 1048 971
f 971 1048 972
f 1048 1049 972
f 972 1049 973
f 1049 1050 973
f 973 1050 974
f 1050 1051 974
f 974 1051 975
f 1051 1052 975
f 975 1052 976
f 1052 1053 976
f 976 1053 977
f 1053 1054 977
f 977 1054 978
f 1054 1055 978
f 978 1055 979
f 1055 1056 979
f 979 1056 980
f 1056 1057 980
f 980 1057 981
f 1057 1058 981
f 981 1058 982
f 1058 1059 982
f 982 1059 983
f 1059 1060 983
f 983 1060 984
f 1060 1061 984
f 984 1061 985
f 1061 1062 985
f 985 1062 986
f 1062 1063 986
f 986 1063 987
f 1063 1064 987
f 987 1064 988
f 1064 1065 988
f 988 1065 989
f 1065 1066 989
f 989 1066 990
f 1066 1067 990
f 990 1067 991
f 1067 1068 991
f 991 1068 992
f 1068 1069 992
f 992 1069 993
f 1069 1070 993
f 993 1070 994
f 1070 1071 994
f 994 1071 995
f 1071 1072 995
f 995 1072 996
f 1072 1073 996
f 996 1073 997
f 1073 1074 997
f 997 1074 998
f 1074 1075 998
f 998 1075 999
f 1075 1076 999
f 999 1076 1000
f 1076 1077 1000
f 1000 1077 1001
f 1077 1078 1001
f 1001 1078 1002
f 1078 1079 1002
f 1002 1079 1003
f 1079 1080 1003
f 1003 1080 1004
f 1080 1009 1004
f 1065 1081 1066
f 1081 1082 1066
f 1066 1082 1067
f 1082 1083 1067
f 1067 1083 1068
f 1083 1084 1068
f 1068 1084 1069
f 1084 1085 1069
f 1069 1085 1070
f 1085 1086 1070
f 1070 1086 1071
f 1086 1087 1071
f 1071 1087 1072
f 1087 1088 1072
f 1072 1088 1073
f 1088 1089 1073
f 1073 1089 1074
f 1089 1090 1074
f 1074 1090 1075
f 1090 1091 1075
f 1075 1091 1076
f 1091 1092 1076
f 1076 1092 1077
f 1092 1093 1077
f 1077 1093 1078
f 1093 1094 1078
f 1078 1094 1079
f 1094 1095 1079
f 1079 1095 1080
f 1095 1096 1080
f 1080 1096 1009
f 1096 1097 1009
f 1009 1097 1010
f 1097 1098 1010
f 1010 1098 1011
f 1098 1099 1011
f 1011 1099 1012
f 1099 1100 1012
f 1012 1100 1013
f 1100 1101 1013
f 1013 1101 1014
f 1101 1102 1014
f 1014 1102 1015
f 1102 1103 1015
f 1015 1103 1016
f 1103 1104 1016
f 1016 1104 1017
f 1104 1105 1017
f 1017 1105 1018
f 1105 1106 1018
f 1018 1106 1019
f 1106 1107 1019
f 1019 1107 1020
f 1107 1108 1020
f 1020 1108 1021
f 1108 1109 1021
f 1021 1109 1022
f 1109 1110 1022
f 1022 1110 1023
f 1110 1111 1023
f 1023 1111 1024
f 1111 1112 1024
f 1024 1112 1025
f 1112 1113 1025
f 1025 1113 1026
f 1113 1114 1026
f 1026 1114 1027
f 1114 1115 1027
f 1027 1115 1028
f 1115 1116 1028
f 1028 1116 1029
f 1116 1117 1029
f 1029 1117 1030
f 1117 1118 1030
f 1030 1118 1031
f 1118 1119 1031
f 1031 1119 1032
f 1119 1120 1032
f 1032 1120 1033
f 1120 1121 1033
f 1033 1121 1034
f 1121 1122 1034
f 1034 1122 1035
f 1122 1123 1035
f 1035 1123 1036
f 1123 1124 1036
f 1036 1124 1037
f 1124 1125 1037
f 1037 1125 1038
f 1125 1126 1038
f 1038 1126 1039
f 1126 1127 1039
f 1039 1127 1040
f 1127 1128 1040
f 1040 1128 1041
f 1128 1129 1041
f 1041 1129 1042
f 1129 1130 1042
f 1042 1130 1043
f 1130 1131 1043
f 1043 1131 1044
f 1131 1132 1044
f 1044 1132 1045
f 1132 1133 1045
f 1045 1133 1046
f 1133 1134 1046
f 1046 1134 1047
f 1134 1135 1047
f 1047 1135 1048
f 1135 1136 1048
f 1048 1136 1049
f 1136 1137 1049
f 1049 1137 1050
f 1137 1138 1050
f 1050 1138 1051
f 1138 1139 1051
f 1051 1139 1052
f 1139 1140 1052
f 1052 1140 1053
f 1140 1141 1053
f 1053 1141 1054
f 1141 1142 1054
f 1054 1142 1055
f 1142 1143 1055
f 1055 1143 1056
f 1143 1144 1056
f 1056 1144 1057
f 1144 1145 1057
f 1057 1145 1058
f 1145 1146 1058
f 1058 1146 1059
f 1146 1147 1059
f 1059 1147 1060
f 1147 1148 1060
f 1060 1148 1061
f 1148 1149 1061
f 1061 1149 1062
f 1149 1150 1062
f 1062 1150 1063
f 1150 1151 1063
f 1063 1151 1064
f 1151 1152 1064
f 1064 1152 1065
f 1152 1081 1065
f 1097 1153 1098
f 1153 1154 1098
f 1098 1154 1099
f 1154 1155 1099
f 1099 1155 1100
f 1155 1156 1100
f 1100 1156 1101
f 1156 1157 1101
f 1101 1157 1102
f 1157 1158 1102
f 1102 1158 1103
f 1158 1159 1103
f 1103 1159 1104
f 1159 1160 1104
f 1104 1160 1105
f 1160 1161 1105
f 1105 1161 1106
f 1161 1162 1106
f 1106 1162 1107
f 1162 1163 1107
f 1107 1163 1108
f 1163 1164 1108
f 1108 1164 1109
f 1164 1165 1109
f 1109 1165 1110
f 1165 1166 1110
f 1110 1166 1111
f 1166 1167 1111
f 1111 1167 1112
f 1167 1168 1112
f 1112 1168 1113
f 1168 1169 1113
f 1113 1169 1114
f 1169 1170 1114
f 1114 1170 1115
f 1170 1171 1115
f 1115 1171 1116
f 1171 1172 1116
f 1116 1172 1117
f 1172 1173 1117
f 1117 1173 1118
f 1173 1174 1118
f 1118 1174 1119
f 1174 1175 1119
f 1119 1175 1120
f 1175 1176 1120
f 1120 1176 1121
f 1176 1177 1121
f 1121 1177 1122
f 1177 1178 1122
f 1122 1178 1123
f 1178 1179 1123
f 1123 1179 1124
f 1179 1180 1124
f 1124 1180 1125
f 1180 1181 1125
f 1125 1181 1126
f 1181 1182 1126
f 1126 1182 1127
f 1182 1183 1127
f 1127 1183 1128
f 1183 1184 1128
f 1128 1184 1129
f 1184 1185 1129
f 1129 1185 1130
f 1185 1186 1130
f 1130 1186 1131
f 1186 1187 1131
f 1131 1187 1132
f 1187 1188 1132
f 1132 1188 1133
f 1188 1189 1133
f 1133 1189 1134
f 1189 1190 1134
f 1134 1190 1135
f 1190 1191 1135
f 1135 1191 1136
f 1191 1192 1136
f 1136 1192 1137
f 1192 1193 1137
f 1137 1193 1138
f 1193 1194 1138
f 1138 1194 1139
f 1194 1195 1139
f 1139 1195 1140
f 1195 1196 1140
f 1140 1196 1141
f 1196 1197 1141
f 1141 1197 1142
f 1197 1198 1142
f 1142 1198 1143
f 1198 1199 1143
f 1143 1199 1144
f 1199 1200 1144
f 1144 1200 1145
f 1200 1201 1145
f 1145 1201 1146
f 1201 1202 1146
f 1146 1202 1147
f 1202 1203 1147
f 1147 1203 1148
f 1203 1204 1148
f 1148 1204 1149
f 1204 1205 1149
f 1149 1205 1150
f 1205 1206 1150
f 1150 1206 1151
f 1206 1207 1151
f 1151 1207 1152
f 1207 1208 1152
f 1152 1208 1081
f 1208 1209 1081
f 1081 1209 1082
f 1209 1210 1082
f 1082 1210 1083
f 1210 1211 1083
f 1083 1211 1084
f 1211 1212 1084
f 1084 1212 1085
f 1212 1213 1085
f 1085 1213 1086
f 1213 1214 1086
f 1086 1214 1087
f 1214 1215 1087
f 1087 1215 1088
f 1215 1216 1088
f 1088 1216 1089
f 1216 1217 1089
f 1089 1217 1090
f 1217 1218 1090
f 1090 1218 1091
f 1218 1219 1091
f 1091 1219 1092
f 1219 1220 1092
f 1092 1220 1093
f 1220 1221 1093
f 1093 1221 1094
f 1221 1222 1094
f 1094 1222 1095
f 1222 1223 1095
f 1095 1223 1096
f 1223 1224 1096
f 1096 1224 1097
f 1224 1153 1097
f 1198 885 1199
f 885 887 1199
f 1199 887 1200
f 887 889 1200
f 1200 889 1201
f 889 891 1201
f 1201 891 1202
f 891 893 1202
f 1202 893 1203
f 893 895 1203
f 1203 895 1204
f 895 897 1204
f 1204 897 1205
f 897 899 1205
f 1205 899 1206
f 899 901 1206
f 1206 901 1207
f 901 903 1207
f 1207 903 1208
f 903 905 1208
f 1208 905 1209
f 905 907 1209
f 1209 907 1210
f 907 909 1210
f 1210 909 1211
f 909 911 1211
f 1211 911 1212
f 911 913 1212
f 1212 913 1213
f 913 915 1213
f 1213 915 1214
f 915 917 1214
f 1214 917 1215
f 917 919 1215
f 1215 919 1216
f 919 921 1216
f 1216 921 1217
f 921 923 1217
f 1217 923 1218
f 923 925 1218
f 1218 925 1219
f 925 927 1219
f 1219 927 1220
f 927 929 1220
f 1220 929 1221
f 929 931 1221
f 1221 931 1222
f 931 933 1222
f 1222 933 1223
f 933 935 1223
f 1223 935 1224
f 935 793 1224
f 1224 793 1153
f 793 795 1153
f 1153 795 1154
f 795 797 1154
f 1154 797 1155
f 797 799 1155
f 1155 799 1156
f 799 801 1156
f 1156 801 1157
f 801 803 1157
f 1157 803 1158
f 803 805 1158
f 1158 805 1159
f 805 807 1159
f 1159 807 1160
f 807 809 1160
f 1160 809 1161
f 809 811 1161
f 1161 811 1162
f 811 813 1162
f 1162 813 1163
f 813 815 1163
f 1163 815 1164
f 815 817 1164
f 1164 817 1165
f 817 819 1165
f 1165 819 1166
f 819 821 1166
f 1166 821 1167
f 821 823 1167
f 1167 823 1168
f 823 825 1168
f 1168 825 1169
f 825 827 1169
f 1169 827 1170
f 827 829 1170
f 1170 829 1171
f 829 831 1171
f 1171 831 1172
f 831 833 1172
f 1172 833 1173
f 833 835 1173
f 1173 835 1174
f 835 837 1174
f 1174 837 1175
f 837 839 1175
f 1175 839 1176
f 839 841 1176
f 1176 841 1177
f 841 843 1177
f 1177 843 1178
f 843 845 1178
f 1178 845 1179
f 845 847 1179
f 1179 847 1180
f 847 849 1180
f 1180 849 1181
f 849 851 1181
f 1181 851 1182
f 851 853 1182
f 1182 853 1183
f 853 855 1183
f 1183 855 1184
f 855 857 1184
f 1184 857 1185
f 857 859 1185
f 1185 859 1186
f 859 861 1186
f 1186 861 1187
f 861 863 1187
f 1187 863 1188
f 863 865 1188
f 1188 865 1189
f 865 867 1189
f 1189 867 1190
f 867 869 1190
f 1190 869 1191
f 869 871 1191
f 1191 871 1192
f 871 873 1192
f 1192 873 1193
f 873 875 1193
f 1193 875 1194
f 875 877 1194
f 1194 877 1195
f 877 879 1195
f 1195 879 1196
f 879 881 1196
f 1196 881 1197
f 881 883 1197
f 1197 883 1198
f 883 885 1198
f 1225 40 1226
f 40 38 1226
f 1226 38 1227
f 38 36 1227
f 1227 36 1228
f 36 34 1228
f 1228 34 1229
f 34 32 1229
f 1229 32 1230
f 32 30 1230
f 1230 30 1231
f 30 28 1231
f 1231 28 1232
f 28 26 1232
f 1232 26 1233
f 26 24 1233
f 1233 24 1234
f 24 22 1234
f 1234 22 1235
f 22 20 1235
f 1235 20 1236
f 20 18 1236
f 1236 18 1237
f 18 16 1237
f 1237 16 1238
f 16 14 1238
f 1238 14 1239
f 14 12 1239
f 1239 12 1240
f 12 10 1240
f 1240 10 1241
f 10 8 1241
f 1241 8 1242
f 8 6 1242
f 1242 6 1243
f 6 4 1243
f 1243 4 1244
f 4 2 1244
f 1244 2 1245
f 2 144 1245
f 1245 144 1246
f 144 142 1246
f 1246 142 1247
f 142 140 1247
f 1247 140 1248
f 140 138 1248
f 1248 138 1249
f 138 136 1249
f 1249 136 1250
f 136 134 1250
f 1250 134 1251
f 134 132 1251
f 1251 132 1252
f 132 130 1252
f 1252 130 1253
f 130 128 1253
f 1253 128 1254
f 128 126 1254
f 1254 126 1255
f 126 124 1255
f 1255 124 1256
f 124 122 1256
f 1256 122 1257
f 122 120 1257
f 1257 120 1258
f 120 118 1258
f 1258 118 1259
f 118 116 1259
f 1259 116 1260
f 116 114 1260
f 1260 114 1261
f 114 112 1261
f 1261 112 1262
f 112 110 1262
f 1262 110 1263
f 110 108 1263
f 1263 108 1264
f 108 106 1264
f 1264 106 1265
f 106 104 1265
f 1265 104 1266
f 104 102 1266
f 1266 102 1267
f 102 100 1267
f 1267 100 1268
f 100 98 1268
f 1268 98 1269
f 98 96 1269
f 1269 96 1270
f 96 94 1270
f 1270 94 1271
f 94 92 1271
f 1271 92 1272
f 92 90 1272
f 1272 90 1273
f 90 88 1273
f 1273 88 1274
f 88 86 1274
f 1274 86 1275
f 86 84 1275
f 1275 84 1276
f 84 82 1276
f 1276 82 1277
f 82 80 1277
f 1277 80 1278
f 80 78 1278
f 1278 78 1279
f 78 76 1279
f 1279 76 1280
f 76 74 1280
f 1280 74 1281
f 74 72 1281
f 1281 72 1282
f 72 70 1282
f 1282 70 1283
f 70 68 1283
f 1283 68 1284
f 68 66 1284
f 1284 66 1285
f 66 64 1285
f 1285 64 1286
f 64 62 1286
f 1286 62 1287
f 62 60 1287
f 1287 60 1288
f 60 58 1288
f 1288 58 1289
f 58 56 1289
f 1289 56 1290
f 56 54 1290
f 1290 54 1291
f 54 52 1291
f 1291 52 1292
f 52 50 1292
f 1292 50 1293
f 50 48 1293
f 1293 48 1294
f 48 46 1294
f 1294 46 1295
f 46 44 1295
f 1295 44 1296
f 44 42 1296
f 1296 42 1225
f 42 40 1225
f 1252 702 1251
f 702 700 1251
f 1251 700 1250
f 700 698 1250
f 1250 698 1249
f 698 696 1249
f 1249 696 1248
f 696 694 1248
f 1248 694 1247
f 694 692 1247
f 1247 692 1246
f 692 690 1246
f 1246 690 1245
f 690 688 1245
f 1245 688 1244
f 688 686 1244
f 1244 686 1243
f 686 684 1243
f 1243 684 1242
f 684 682 1242
f 1242 682 1241
f 682 680 1241
f 1241 680 1240
f 680 678 1240
f 1240 678 1239
f 678 676 1239
f 1239 676 1238
f 676 674 1238
f 1238 674 1237
f 674 672 1237
f 1237 672 1236
f 672 670 1236
f 1236 670 1235
f 670 668 1235
f 1235 668 1234
f 668 666 1234
f 1234 666 1233
f 666 664 1233
f 1233 664 1232
f 664 662 1232
f 1232 662 1231
f 662 660 1231
f 1231 660 1230
f 660 658 1230
f 1230 658 1229
f 658 656 1229
f 1229 656 1228
f 656 654 1228
f 1228 654 1227
f 654 652 1227
f 1227 652 1226
f 652 650 1226
f 1226 650 1225
f 650 792 1225
f 1225 792 1296
f 792 790 1296
f 1296 790 1295
f 790 788 1295
f 1295 788 1294
f 788 786 1294
f 1294 786 1293
f 786 784 1293
f 1293 784 1292
f 784 782 1292
f 1292 782 1291
f 782 780 1291
f 1291 780 1290
f 780 778 1290
f 1290 778 1289
f 778 776 1289
f 1289 776 1288
f 776 774 1288
f 1288 774 1287
f 774 772 1287
f 1287 772 1286
f 772 770 1286
f 1286 770 1285
f 770 768 1285
f 1285 768 1284
f 768 766 1284
f 1284 766 1283
f 766 764 1283
f 1283 764 1282
f 764 762 1282
f 1282 762 1281
f 762 760 1281
f 1281 760 1280
f 760 758 1280
f 1280 758 1279
f 758 756 1279
f 1279 756 1278
f 756 754 1278
f 1278 754 1277
f 754 752 1277
f 1277 752 1276
f 752 750 1276
f 1276 750 1275
f 750 748 1275
f 1275 748 1274
f 748 746 1274
f 1274 746 1273
f 746 744 1273
f 1273 744 1272
f 744 742 1272
f 1272 742 1271
f 742 740 1271
f 1271 740 1270
f 740 738 1270
f 1270 738 1269
f 738 736 1269
f 1269 736 1268
f 736 734 1268
f 1268 734 1267
f 734 732 1267
f 1267 732 1266
f 732 730 1266
f 1266 730 1265
f 730 728 1265
f 1265 728 1264
f 728 726 1264
f 1264 726 1263
f 726 724 1263
f 1263 724 1262
f 724 722 1262
f 1262 722 1261
f 722 720 1261
f 1261 720 1260
f 720 718 1260
f 1260 718 1259
f 718 716 1259
f 1259 716 1258
f 716 714 1258
f 1258 714 1257
f 714 712 1257
f 1257 712 1256
f 712 710 1256
f 1256 710 1255
f 710 708 1255
f 1255 708 1254
f 708 706 1254
f 1254 706 1253
f 706 704 1253
f 1253 704 1252
f 704 702 1252
f 586 1297 585
f 1297 1298 585
f 585 1298 584
f 1298 1299 584
f 584 1299 583
f 1299 1300 583
f 583 1300 582
f 1300 1301 582
f 582 1301 581
f 1301 1302 581
f 581 1302 580
f 1302 1303 580
f 580 1303 579
f 1303 1304 579
f 579 1304 578
f 1304 1305 578
f 578 1305 577
f 1305 1306 577
f 577 1306 648
f 1306 1307 648
f 648 1307 647
f 1307 1308 647
f 647 1308 646
f 1308 1309 646
f 646 1309 645
f 1309 1310 645
f 645 1310 644
f 1310 1311 644
f 644 1311 643
f 1311 1312 643
f 643 1312 642
f 1312 1313 642
f 642 1313 641
f 1313 1314 641
f 641 1314 640
f 1314 1315 640
f 640 1315 639
f 1315 1316 639
f 639 1316 638
f 1316 1317 638
f 638 1317 637
f 1317 1318 637
f 637 1318 636
f 1318 1319 636
f 636 1319 635
f 1319 1320 635
f 635 1320 634
f 1320 1321 634
f 634 1321 633
f 1321 1322 633
f 633 1322 632
f 1322 1323 632
f 632 1323 631
f 1323 1324 631
f 631 1324 630
f 1324 1325 630
f 630 1325 629
f 1325 1326 629
f 629 1326 628
f 1326 1327 628
f 628 1327 627
f 1327 1328 627
f 627 1328 626
f 1328 1329 626
f 626 1329 625
f 1329 1330 625
f 625 1330 624
f 1330 1331 624
f 624 1331 623
f 1331 1332 623
f 623 1332 622
f 1332 1333 622
f 622 1333 621
f 1333 1334 621
f 621 1334 620
f 1334 1335 620
f 620 1335 619
f 1335 1336 619
f 619 1336 618
f 1336 1337 618
f 618 1337 617
f 1337 1338 617
f 617 1338 616
f 1338 1339 616
f 616 1339 615
f 1339 1340 615
f 615 1340 614
f 1340 1341 614
f 614 1341 613
f 1341 1342 613
f 613 1342 612
f 1342 1343 612
f 612 1343 611
f 1343 1344 611
f 611 1344 610
f 1344 1345 610
f 610 1345 609
f 1345 1346 609
f 609 1346 608
f 1346 1347 608
f 608 1347 607
f 1347 1348 607
f 607 1348 606
f 1348 1349 606
f 606 1349 605
f 1349 1350 605
f 605 1350 604
f 1350 1351 604
f 604 1351 603
f 1351 1352 603
f 603 1352 602
f 1352 1353 602
f 602 1353 601
f 1353 1354 601
f 601 1354 600
f 1354 1355 600
f 600 1355 599
f 1355 1356 599
f 599 1356 598
f 1356 1357 598
f 598 1357 597
f 1357 1358 597
f 597 1358 596
f 1358 1359 596
f 596 1359 595
f 1359 1360 595
f 595 1360 594
f 1360 1361 594
f 594 1361 593
f 1361 1362 593
f 593 1362 592
f 1362 1363 592
f 592 1363 591
f 1363 1364 591
f 591 1364 590
f 1364 1365 590
f 590 1365 589
f 1365 1366 589
f 589 1366 588
f 1366 1367 588
f 588 1367 587
f 1367 1368 587
f 587 1368 586
f 1368 1297 586
f 1369 1305 1370
f 1305 1304 1370
f 1370 1304 1371
f 1304 1303 1371
f 1371 1303 1372
f 1303 1302 1372
f 1372 1302 1373
f 1302 1301 1373
f 1373 1301 1374
f 1301 1300 1374
f 1374 1300 1375
f 1300 1299 1375
f 1375 1299 1376
f 1299 1298 1376
f 1376 1298 1377
f 1298 1297 1377
f 1377 1297 1378
f 1297 1368 1378
f 1378 1368 1379
f 1368 1367 1379
f 1379 1367 1380
f 1367 1366 1380
f 1380 1366 1381
f 1366 1365 1381
f 1381 1365 1382
f 1365 1364 1382
f 1382 1364 1383
f 1364 1363 1383
f 1383 1363 1384
f 1363 1362 1384
f 1384 1362 1385
f 1362 1361 1385
f 1385 1361 1386
f 1361 1360 1386
f 1386 1360 1387
f 1360 1359 1387
f 1387 1359 1388
f 1359 1358 1388
f 1388 1358 1389
f 1358 1357 1389
f 1389 1357 1390
f 1357 1356 1390
f 1390 1356 1391
f 1356 1355 1391
f 1391 1355 1392
f 1355 1354 1392
f 1392 1354 1393
f 1354 1353 1393
f 1393 1353 1394
f 1353 1352 1394
f 1394 1352 1395
f 1352 1351 1395
f 1395 1351 1396
f 1351 1350 1396
f 1396 1350 1397
f 1350 1349 1397
f 1397 1349 1398
f 1349 1348 1398
f 1398 1348 1399
f 1348 1347 1399
f 1399 1347 1400
f 1347 1346 1400
f 1400 1346 1401
f 1346 1345 1401
f 1401 1345 1402
f 1345 1344 1402
f 1402 1344 1403
f 1344 1343 1403
f 1403 1343 1404
f 1343 1342 1404
f 1404 1342 1405
f 1342 1341 1405
f 1405 1341 1406
f 1341 1340 1406
f 1406 1340 1407
f 1340 1339 1407
f 1407 1339 1408
f 1339 1338 1408
f 1408 1338 1409
f 1338 1337 1409
f 1409 1337 1410
f 1337 1336 1410
f 1410 1336 1411
f 1336 1335 1411
f 1411 1335 1412
f 1335 1334 1412
f 1412 1334 1413
f 1334 1333 1413
f 1413 1333 1414
f 1333 1332 1414
f 1414 1332 1415
f 1332 1331 1415
f 1415 1331 1416
f 1331 1330 1416
f 1416 1330 1417
f 1330 1329 1417
f 1417 1329 1418
f 1329 1328 1418
f 1418 1328 1419
f 1328 1327 1419
f 1419 1327 1420
f 1327 1326 1420
f 1420 1326 1421
f 1326 1325 1421
f 1421 1325 1422
f 1325 1324 1422
f 1422 1324 1423
f 1324 1323 1423
f 1423 1323 1424
f 1323 1322 1424
f 1424 1322 1425
f 1322 1321 1425
f 1425 1321 1426
f 1321 1320 1426
f 1426 1320 1427
f 1320 1319 1427
f 1427 1319 1428
f 1319 1318 1428
f 1428 1318 1429
f 1318 1317 1429
f 1429 1317 1430
f 1317 1316 1430
f 1430 1316 1431
f 1316 1315 1431
f 1431 1315 1432
f 1315 1314 1432
f 1432 1314 1433
f 1314 1313 1433
f 1433 1313 1434
f 1313 1312 1434
f 1434 1312 1435
f 1312 1311 1435
f 1435 1311 1436
f 1311 1310 1436
f 1436 1310 1437
f 1310 1309 1437
f 1437 1309 1438
f 1309 1308 1438
f 1438 1308 1439
f 1308 1307 1439
f 1439 1307 1440
f 1307 1306 1440
f 1440 1306 1369
f 1306 1305 1369
f 1374 294 1373
f 294 293 1373
f 1373 293 1372
f 293 292 1372
f 1372 292 1371
f 292 291 1371
f 1371 291 1370
f 291 290 1370
f 1370 290 1369
f 290 289 1369
f 1369 289 1440
f 289 360 1440
f 1440 360 1439
f 360 359 1439
f 1439 359 1438
f 359 358 1438
f 1438 358 1437
f 358 357 1437
f 1437 357 1436
f 357 356 1436
f 1436 356 1435
f 356 355 1435
f 1435 355 1434
f 355 354 1434
f 1434 354 1433
f 354 353 1433
f 1433 353 1432
f 353 352 1432
f 1432 352 1431
f 352 351 1431
f 1431 351 1430
f 351 350 1430
f 1430 350 1429
f 350 349 1429
f 1429 349 1428
f 349 348 1428
f 1428 348 1427
f 348 347 1427
f 1427 347 1426
f 347 346 1426
f 1426 346 1425
f 346 345 1425
f 1425 345 1424
f 345 344 1424
f 1424 344 1423
f 344 343 1423
f 1423 343 1422
f 343 342 1422
f 1422 342 1421
f 342 341 1421
f 1421 341 1420
f 341 340 1420
f 1420 340 1419
f 340 339 1419
f 1419 339 1418
f 339 338 1418
f 1418 338 1417
f 338 337 1417
f 1417 337 1416
f 337 336 1416
f 1416 336 1415
f 336 335 1415
f 1415 335 1414
f 335 334 1414
f 1414 334 1413
f 334 333 1413
f 1413 333 1412
f 333 332 1412
f 1412 332 1411
f 332 331 1411
f 1411 331 1410
f 331 330 1410
f 1410 330 1409
f 330 329 1409
f 1409 329 1408
f 329 328 1408
f 1408 328 1407
f 328 327 1407
f 1407 327 1406
f 327 326 1406
f 1406 326 1405
f 326 325 1405
f 1405 325 1404
f 325 324 1404
f 1404 324 1403
f 324 323 1403
f 1403 323 1402
f 323 322 1402
f 1402 322 1401
f 322 321 1401
f 1401 321 1400
f 321 320 1400
f 1400 320 1399
f 320 319 1399
f 1399 319 1398
f 319 318 1398
f 1398 318 1397
f 318 317 1397
f 1397 317 1396
f 317 316 1396
f 1396 316 1395
f 316 315 1395
f 1395 315 1394
f 315 314 1394
f 1394 314 1393
f 314 313 1393
f 1393 313 1392
f 313 312 1392
f 1392 312 1391
f 312 311 1391
f 1391 311 1390
f 311 310 1390
f 1390 310 1389
f 310 309 1389
f 1389 309 1388
f 309 308 1388
f 1388 308 1387
f 308 307 1387
f 1387 307 1386
f 307 306 1386
f 1386 306 1385
f 306 305 1385
f 1385 305 1384
f 305 304 1384
f 1384 304 1383
f 304 303 1383
f 1383 303 1382
f 303 302 1382
f 1382 302 1381
f 302 301 1381
f 1381 301 1380
f 301 300 1380
f 1380 300 1379
f 300 299 1379
f 1379 299 1378
f 299 298 1378
f 1378 298 1377
f 298 297 1377
f 1377 297 1376
f 297 296 1376
f 1376 296 1375
f 296 295 1375
f 1375 295 1374
f 295 294 1374

