# https://github.com/mikedh/trimesh
v 0.34500000 0.00000000 -0.13190000
v 0.34601521 0.00034862 -0.13090000
v 0.34501901 0.00043578 -0.13190000
v 0.34606078 0.00069459 -0.13090000
v 0.34507596 0.00086824 -0.13190000
v 0.34613630 0.00103528 -0.13090000
v 0.34517038 0.00129410 -0.13190000
v 0.34624124 0.00136808 -0.13090000
v 0.34530154 0.00171010 -0.13190000
v 0.34637478 0.00169047 -0.13090000
v 0.34546846 0.00211309 -0.13190000
v 0.34653589 0.00200000 -0.13090000
v 0.34566987 0.00250000 -0.13190000
v 0.34672338 0.00229431 -0.13090000
v 0.34590423 0.00286788 -0.13190000
v 0.34693581 0.00257115 -0.13090000
v 0.34616977 0.00321394 -0.13190000
v 0.34717157 0.00282843 -0.13090000
v 0.34646446 0.00353553 -0.13190000
v 0.34742886 0.00306418 -0.13090000
v 0.34678605 0.00383022 -0.13190000
v 0.34770569 0.00327661 -0.13090000
v 0.34713212 0.00409576 -0.13190000
v 0.34799999 0.00346410 -0.13090000
v 0.34750000 0.00433013 -0.13190000
v 0.34830952 0.00362523 -0.13090000
v 0.34788692 0.00453154 -0.13190000
v 0.34863192 0.00375877 -0.13090000
v 0.34828991 0.00469846 -0.13190000
v 0.34896472 0.00386370 -0.13090000
v 0.34870592 0.00482963 -0.13190000
v 0.34930542 0.00393923 -0.13090000
v 0.34913176 0.00492404 -0.13190000
v 0.34965137 0.00398478 -0.13090000
v 0.34956422 0.00498097 -0.13190000
v 0.34999999 0.00400000 -0.13090000
v 0.34999999 0.00500000 -0.13190000
v 0.35034862 0.00398478 -0.13090000
v 0.35043579 0.00498097 -0.13190000
v 0.35069460 0.00393923 -0.13090000
v 0.35086825 0.00492404 -0.13190000
v 0.35103527 0.00386370 -0.13090000
v 0.35129410 0.00482963 -0.13190000
v 0.35136807 0.00375877 -0.13090000
v 0.35171011 0.00469846 -0.13190000
v 0.35169047 0.00362523 -0.13090000
v 0.35211310 0.00453154 -0.13190000
v 0.35200000 0.00346410 -0.13090000
v 0.35249999 0.00433013 -0.13190000
v 0.35229430 0.00327661 -0.13090000
v 0.35286787 0.00409576 -0.13190000
v 0.35257116 0.00306418 -0.13090000
v 0.35321394 0.00383022 -0.13190000
v 0.35282841 0.00282843 -0.13090000
v 0.35353553 0.00353553 -0.13190000
v 0.35306418 0.00257115 -0.13090000
v 0.35383022 0.00321394 -0.13190000
v 0.35327661 0.00229431 -0.13090000
v 0.35409576 0.00286788 -0.13190000
v 0.35346410 0.00200000 -0.13090000
v 0.35433012 0.00250000 -0.13190000
v 0.35362524 0.00169047 -0.13090000
v 0.35453153 0.00211309 -0.13190000
v 0.35375878 0.00136808 -0.13090000
v 0.35469845 0.00171010 -0.13190000
v 0.35386372 0.00103528 -0.13090000
v 0.35482964 0.00129410 -0.13190000
v 0.35393924 0.00069459 -0.13090000
v 0.35492405 0.00086824 -0.13190000
v 0.35398477 0.00034862 -0.13090000
v 0.35498098 0.00043578 -0.13190000
v 0.35400000 0.00000000 -0.13090000
v 0.35499999 0.00000000 -0.13190000
v 0.35398477 -0.00034862 -0.13090000
v 0.35498098 -0.00043578 -0.13190000
v 0.35393924 -0.00069459 -0.13090000
v 0.35492405 -0.00086824 -0.13190000
v 0.35386372 -0.00103528 -0.13090000
v 0.35482964 -0.00129410 -0.13190000
v 0.35375878 -0.00136808 -0.13090000
v 0.35469845 -0.00171010 -0.13190000
v 0.35362524 -0.00169047 -0.13090000
v 0.35453153 -0.00211309 -0.13190000
v 0.35346410 -0.00200000 -0.13090000
v 0.35433012 -0.00250000 -0.13190000
v 0.35327661 -0.00229431 -0.13090000
v 0.35409576 -0.00286788 -0.13190000
v 0.35306418 -0.00257115 -0.13090000
v 0.35383022 -0.00321394 -0.13190000
v 0.35282841 -0.00282843 -0.13090000
v 0.35353553 -0.00353553 -0.13190000
v 0.35257116 -0.00306418 -0.13090000
v 0.35321394 -0.00383022 -0.13190000
v 0.35229430 -0.00327661 -0.13090000
v 0.35286787 -0.00409576 -0.13190000
v 0.35200000 -0.00346410 -0.13090000
v 0.35249999 -0.00433013 -0.13190000
v 0.35169047 -0.00362523 -0.13090000
v 0.35211310 -0.00453154 -0.13190000
v 0.35136807 -0.00375877 -0.13090000
v 0.35171011 -0.00469846 -0.13190000
v 0.35103527 -0.00386370 -0.13090000
v 0.35129410 -0.00482963 -0.13190000
v 0.35069460 -0.00393923 -0.13090000
v 0.35086825 -0.00492404 -0.13190000
v 0.35034862 -0.00398478 -0.13090000
v 0.35043579 -0.00498097 -0.13190000
v 0.34999999 -0.00400000 -0.13090000
v 0.34999999 -0.00500000 -0.13190000
v 0.34965137 -0.00398478 -0.13090000
v 0.34956422 -0.00498097 -0.13190000
v 0.34930542 -0.00393923 -0.13090000
v 0.34913176 -0.00492404 -0.13190000
v 0.34896472 -0.00386370 -0.13090000
v 0.34870592 -0.00482963 -0.13190000
v 0.34863192 -0.00375877 -0.13090000
v 0.34828991 -0.00469846 -0.13190000
v 0.34830952 -0.00362523 -0.13090000
v 0.34788692 -0.00453154 -0.13190000
v 0.34799999 -0.00346410 -0.13090000
v 0.34750000 -0.00433013 -0.13190000
v 0.34770569 -0.00327661 -0.13090000
v 0.34713212 -0.00409576 -0.13190000
v 0.34742886 -0.00306418 -0.13090000
v 0.34678605 -0.00383022 -0.13190000
v 0.34717157 -0.00282843 -0.13090000
v 0.34646446 -0.00353553 -0.13190000
v 0.34693581 -0.00257115 -0.13090000
v 0.34616977 -0.00321394 -0.13190000
v 0.34672338 -0.00229431 -0.13090000
v 0.34590423 -0.00286788 -0.13190000
v 0.34653589 -0.00200000 -0.13090000
v 0.34566987 -0.00250000 -0.13190000
v 0.34637478 -0.00169047 -0.13090000
v 0.34546846 -0.00211309 -0.13190000
v 0.34624124 -0.00136808 -0.13090000
v 0.34530154 -0.00171010 -0.13190000
v 0.34613630 -0.00103528 -0.13090000
v 0.34517038 -0.00129410 -0.13190000
v 0.34606078 -0.00069459 -0.13090000
v 0.34507596 -0.00086824 -0.13190000
v 0.34601521 -0.00034862 -0.13090000
v 0.34501901 -0.00043578 -0.13190000
v 0.34599999 0.00000000 -0.13090000
v 0.34500000 0.00000000 -0.19900000
v 0.34501901 0.00043578 -0.19900000
v 0.34507596 0.00086824 -0.19900000
v 0.34517038 0.00129410 -0.19900000
v 0.34530154 0.00171010 -0.19900000
v 0.34546846 0.00211309 -0.19900000
v 0.34566987 0.00250000 -0.19900000
v 0.34590423 0.00286788 -0.19900000
v 0.34616977 0.00321394 -0.19900000
v 0.34646446 0.00353553 -0.19900000
v 0.34678605 0.00383022 -0.19900000
v 0.34713212 0.00409576 -0.19900000
v 0.34750000 0.00433013 -0.19900000
v 0.34788692 0.00453154 -0.19900000
v 0.34828991 0.00469846 -0.19900000
v 0.34870592 0.00482963 -0.19900000
v 0.34913176 0.00492404 -0.19900000
v 0.34956422 0.00498097 -0.19900000
v 0.34999999 0.00500000 -0.19900000
v 0.35043579 0.00498097 -0.19900000
v 0.35086825 0.00492404 -0.19900000
v 0.35129410 0.00482963 -0.19900000
v 0.35171011 0.00469846 -0.19900000
v 0.35211310 0.00453154 -0.19900000
v 0.35249999 0.00433013 -0.19900000
v 0.35286787 0.00409576 -0.19900000
v 0.35321394 0.00383022 -0.19900000
v 0.35353553 0.00353553 -0.19900000
v 0.35383022 0.00321394 -0.19900000
v 0.35409576 0.00286788 -0.19900000
v 0.35433012 0.00250000 -0.19900000
v 0.35453153 0.00211309 -0.19900000
v 0.35469845 0.00171010 -0.19900000
v 0.35482964 0.00129410 -0.19900000
v 0.35492405 0.00086824 -0.19900000
v 0.35498098 0.00043578 -0.19900000
v 0.35499999 0.00000000 -0.19900000
v 0.35498098 -0.00043578 -0.19900000
v 0.35492405 -0.00086824 -0.19900000
v 0.35482964 -0.00129410 -0.19900000
v 0.35469845 -0.00171010 -0.19900000
v 0.35453153 -0.00211309 -0.19900000
v 0.35433012 -0.00250000 -0.19900000
v 0.35409576 -0.00286788 -0.19900000
v 0.35383022 -0.00321394 -0.19900000
v 0.35353553 -0.00353553 -0.19900000
v 0.35321394 -0.00383022 -0.19900000
v 0.35286787 -0.00409576 -0.19900000
v 0.35249999 -0.00433013 -0.19900000
v 0.35211310 -0.00453154 -0.19900000
v 0.35171011 -0.00469846 -0.19900000
v 0.35129410 -0.00482963 -0.19900000
v 0.35086825 -0.00492404 -0.19900000
v 0.35043579 -0.00498097 -0.19900000
v 0.34999999 -0.00500000 -0.19900000
v 0.34956422 -0.00498097 -0.19900000
v 0.34913176 -0.00492404 -0.19900000
v 0.34870592 -0.00482963 -0.19900000
v 0.34828991 -0.00469846 -0.19900000
v 0.34788692 -0.00453154 -0.19900000
v 0.34750000 -0.00433013 -0.19900000
v 0.34713212 -0.00409576 -0.19900000
v 0.34678605 -0.00383022 -0.19900000
v 0.34646446 -0.00353553 -0.19900000
v 0.34616977 -0.00321394 -0.19900000
v 0.34590423 -0.00286788 -0.19900000
v 0.34566987 -0.00250000 -0.19900000
v 0.34546846 -0.00211309 -0.19900000
v 0.34530154 -0.00171010 -0.19900000
v 0.34517038 -0.00129410 -0.19900000
v 0.34507596 -0.00086824 -0.19900000
v 0.34501901 -0.00043578 -0.19900000
v 0.34999999 0.00000000 -0.13090000
v 0.34606078 -0.00069459 -0.20000000
v 0.34601521 -0.00034862 -0.20000000
v 0.34999999 0.00000000 -0.20000000
v 0.34599999 0.00000000 -0.20000000
v 0.34601521 0.00034862 -0.20000000
v 0.34637478 -0.00169047 -0.20000000
v 0.34624124 -0.00136808 -0.20000000
v 0.34613630 -0.00103528 -0.20000000
v 0.34693581 -0.00257115 -0.20000000
v 0.34672338 -0.00229431 -0.20000000
v 0.34653589 -0.00200000 -0.20000000
v 0.34770569 -0.00327661 -0.20000000
v 0.34742886 -0.00306418 -0.20000000
v 0.34717157 -0.00282843 -0.20000000
v 0.34863192 -0.00375877 -0.20000000
v 0.34830952 -0.00362523 -0.20000000
v 0.34799999 -0.00346410 -0.20000000
v 0.34965137 -0.00398478 -0.20000000
v 0.34930542 -0.00393923 -0.20000000
v 0.34896472 -0.00386370 -0.20000000
v 0.35069460 -0.00393923 -0.20000000
v 0.35034862 -0.00398478 -0.20000000
v 0.34999999 -0.00400000 -0.20000000
v 0.35169047 -0.00362523 -0.20000000
v 0.35136807 -0.00375877 -0.20000000
v 0.35103527 -0.00386370 -0.20000000
v 0.35257116 -0.00306418 -0.20000000
v 0.35229430 -0.00327661 -0.20000000
v 0.35200000 -0.00346410 -0.20000000
v 0.35327661 -0.00229431 -0.20000000
v 0.35306418 -0.00257115 -0.20000000
v 0.35282841 -0.00282843 -0.20000000
v 0.35375878 -0.00136808 -0.20000000
v 0.35362524 -0.00169047 -0.20000000
v 0.35346410 -0.00200000 -0.20000000
v 0.35398477 -0.00034862 -0.20000000
v 0.35393924 -0.00069459 -0.20000000
v 0.35386372 -0.00103528 -0.20000000
v 0.35393924 0.00069459 -0.20000000
v 0.35398477 0.00034862 -0.20000000
v 0.35400000 0.00000000 -0.20000000
v 0.35362524 0.00169047 -0.20000000
v 0.35375878 0.00136808 -0.20000000
v 0.35386372 0.00103528 -0.20000000
v 0.35306418 0.00257115 -0.20000000
v 0.35327661 0.00229431 -0.20000000
v 0.35346410 0.00200000 -0.20000000
v 0.35229430 0.00327661 -0.20000000
v 0.35257116 0.00306418 -0.20000000
v 0.35282841 0.00282843 -0.20000000
v 0.35136807 0.00375877 -0.20000000
v 0.35169047 0.00362523 -0.20000000
v 0.35200000 0.00346410 -0.20000000
v 0.35034862 0.00398478 -0.20000000
v 0.35069460 0.00393923 -0.20000000
v 0.35103527 0.00386370 -0.20000000
v 0.34930542 0.00393923 -0.20000000
v 0.34965137 0.00398478 -0.20000000
v 0.34999999 0.00400000 -0.20000000
v 0.34830952 0.00362523 -0.20000000
v 0.34863192 0.00375877 -0.20000000
v 0.34896472 0.00386370 -0.20000000
v 0.34742886 0.00306418 -0.20000000
v 0.34770569 0.00327661 -0.20000000
v 0.34799999 0.00346410 -0.20000000
v 0.34672338 0.00229431 -0.20000000
v 0.34693581 0.00257115 -0.20000000
v 0.34717157 0.00282843 -0.20000000
v 0.34624124 0.00136808 -0.20000000
v 0.34637478 0.00169047 -0.20000000
v 0.34653589 0.00200000 -0.20000000
v 0.34606078 0.00069459 -0.20000000
v 0.34613630 0.00103528 -0.20000000
f 1 2 3
f 2 4 3
f 3 4 5
f 4 6 5
f 5 6 7
f 6 8 7
f 7 8 9
f 8 10 9
f 9 10 11
f 10 12 11
f 11 12 13
f 12 14 13
f 13 14 15
f 14 16 15
f 15 16 17
f 16 18 17
f 17 18 19
f 18 20 19
f 19 20 21
f 20 22 21
f 21 22 23
f 22 24 23
f 23 24 25
f 24 26 25
f 25 26 27
f 26 28 27
f 27 28 29
f 28 30 29
f 29 30 31
f 30 32 31
f 31 32 33
f 32 34 33
f 33 34 35
f 34 36 35
f 35 36 37
f 36 38 37
f 37 38 39
f 38 40 39
f 39 40 41
f 40 42 41
f 41 42 43
f 42 44 43
f 43 44 45
f 44 46 45
f 45 46 47
f 46 48 47
f 47 48 49
f 48 50 49
f 49 50 51
f 50 52 51
f 51 52 53
f 52 54 53
f 53 54 55
f 54 56 55
f 55 56 57
f 56 58 57
f 57 58 59
f 58 60 59
f 59 60 61
f 60 62 61
f 61 62 63
f 62 64 63
f 63 64 65
f 64 66 65
f 65 66 67
f 66 68 67
f 67 68 69
f 68 70 69
f 69 70 71
f 70 72 71
f 71 72 73
f 72 74 73
f 73 74 75
f 74 76 75
f 75 76 77
f 76 78 77
f 77 78 79
f 78 80 79
f 79 80 81
f 80 82 81
f 81 82 83
f 82 84 83
f 83 84 85
f 84 86 85
f 85 86 87
f 86 88 87
f 87 88 89
f 88 90 89
f 89 90 91
f 90 92 91
f 91 92 93
f 92 94 93
f 93 94 95
f 94 96 95
f 95 96 97
f 96 98 97
f 97 98 99
f 98 100 99
f 99 100 101
f 100 102 101
f 101 102 103
f 102 104 103
f 103 104 105
f 104 106 105
f 105 106 107
f 106 108 107
f 107 108 109
f 108 110 109
f 109 110 111
f 110 112 111
f 111 112 113
f 112 114 113
f 113 114 115
f 114 116 115
f 115 116 117
f 116 118 117
f 117 118 119
f 118 120 119
f 119 120 121
f 120 122 121
f 121 122 123
f 122 124 123
f 123 124 125
f 124 126 125
f 125 126 127
f 126 128 127
f 127 128 129
f 128 130 129
f 129 130 131
f 130 132 131
f 131 132 133
f 132 134 133
f 133 134 135
f 134 136 135
f 135 136 137
f 136 138 137
f 137 138 139
f 138 140 139
f 139 140 141
f 140 142 141
f 141 142 143
f 142 144 143
f 143 144 1
f 144 2 1
f 145 3 146
f 3 5 146
f 146 5 147
f 5 7 147
f 147 7 148
f 7 9 148
f 148 9 149
f 9 11 149
f 149 11 150
f 11 13 150
f 150 13 151
f 13 15 151
f 151 15 152
f 15 17 152
f 152 17 153
f 17 19 153
f 153 19 154
f 19 21 154
f 154 21 155
f 21 23 155
f 155 23 156
f 23 25 156
f 156 25 157
f 25 27 157
f 157 27 158
f 27 29 158
f 158 29 159
f 29 31 159
f 159 31 160
f 31 33 160
f 160 33 161
f 33 35 161
f 161 35 162
f 35 37 162
f 162 37 163
f 37 39 163
f 163 39 164
f 39 41 164
f 164 41 165
f 41 43 165
f 165 43 166
f 43 45 166
f 166 45 167
f 45 47 167
f 167 47 168
f 47 49 168
f 168 49 169
f 49 51 169
f 169 51 170
f 51 53 170
f 170 53 171
f 53 55 171
f 171 55 172
f 55 57 172
f 172 57 173
f 57 59 173
f 173 59 174
f 59 61 174
f 174 61 175
f 61 63 175
f 175 63 176
f 63 65 176
f 176 65 177
f 65 67 177
f 177 67 178
f 67 69 178
f 178 69 179
f 69 71 179
f 179 71 180
f 71 73 180
f 180 73 181
f 73 75 181
f 181 75 182
f 75 77 182
f 182 77 183
f 77 79 183
f 183 79 184
f 79 81 184
f 184 81 185
f 81 83 185
f 185 83 186
f 83 85 186
f 186 85 187
f 85 87 187
f 187 87 188
f 87 89 188
f 188 89 189
f 89 91 189
f 189 91 190
f 91 93 190
f 190 93 191
f 93 95 191
f 191 95 192
f 95 97 192
f 192 97 193
f 97 99 193
f 193 99 194
f 99 101 194
f 194 101 195
f 101 103 195
f 195 103 196
f 103 105 196
f 196 105 197
f 105 107 197
f 197 107 198
f 107 109 198
f 198 109 199
f 109 111 199
f 199 111 200
f 111 113 200
f 200 113 201
f 113 115 201
f 201 115 202
f 115 117 202
f 202 117 203
f 117 119 203
f 203 119 204
f 119 121 204
f 204 121 205
f 121 123 205
f 205 123 206
f 123 125 206
f 206 125 207
f 125 127 207
f 207 127 208
f 127 129 208
f 208 129 209
f 129 131 209
f 209 131 210
f 131 133 210
f 210 133 211
f 133 135 211
f 211 135 212
f 135 137 212
f 212 137 213
f 137 139 213
f 213 139 214
f 139 141 214
f 214 141 215
f 141 143 215
f 215 143 216
f 143 1 216
f 216 1 145
f 1 3 145
f 4 2 217
f 2 144 217
f 217 144 142
f 10 8 217
f 8 6 217
f 217 6 4
f 16 14 217
f 14 12 217
f 217 12 10
f 22 20 217
f 20 18 217
f 217 18 16
f 28 26 217
f 26 24 217
f 217 24 22
f 34 32 217
f 32 30 217
f 217 30 28
f 40 38 217
f 38 36 217
f 217 36 34
f 46 44 217
f 44 42 217
f 217 42 40
f 52 50 217
f 50 48 217
f 217 48 46
f 58 56 217
f 56 54 217
f 217 54 52
f 64 62 217
f 62 60 217
f 217 60 58
f 70 68 217
f 68 66 217
f 217 66 64
f 76 74 217
f 74 72 217
f 217 72 70
f 82 80 217
f 80 78 217
f 217 78 76
f 88 86 217
f 86 84 217
f 217 84 82
f 94 92 217
f 92 90 217
f 217 90 88
f 100 98 217
f 98 96 217
f 217 96 94
f 106 104 217
f 104 102 217
f 217 102 100
f 112 110 217
f 110 108 217
f 217 108 106
f 118 116 217
f 116 114 217
f 217 114 112
f 124 122 217
f 122 120 217
f 217 120 118
f 130 128 217
f 128 126 217
f 217 126 124
f 136 134 217
f 134 132 217
f 217 132 130
f 142 140 217
f 140 138 217
f 217 138 136
f 218 219 220
f 219 221 220
f 220 221 222
f 223 224 220
f 224 225 220
f 220 225 218
f 226 227 220
f 227 228 220
f 220 228 223
f 229 230 220
f 230 231 220
f 220 231 226
f 232 233 220
f 233 234 220
f 220 234 229
f 235 236 220
f 236 237 220
f 220 237 232
f 238 239 220
f 239 240 220
f 220 240 235
f 241 242 220
f 242 243 220
f 220 243 238
f 244 245 220
f 245 246 220
f 220 246 241
f 247 248 220
f 248 249 220
f 220 249 244
f 250 251 220
f 251 252 220
f 220 252 247
f 253 254 220
f 254 255 220
f 220 255 250
f 256 257 220
f 257 258 220
f 220 258 253
f 259 260 220
f 260 261 220
f 220 261 256
f 262 263 220
f 263 264 220
f 220 264 259
f 265 266 220
f 266 267 220
f 220 267 262
f 268 269 220
f 269 270 220
f 220 270 265
f 271 272 220
f 272 273 220
f 220 273 268
f 274 275 220
f 275 276 220
f 220 276 271
f 277 278 220
f 278 279 220
f 220 279 274
f 280 281 220
f 281 282 220
f 220 282 277
f 283 284 220
f 284 285 220
f 220 285 280
f 286 287 220
f 287 288 220
f 220 288 283
f 222 289 220
f 289 290 220
f 220 290 286
f 145 219 216
f 219 218 216
f 216 218 215
f 218 225 215
f 215 225 214
f 225 224 214
f 214 224 213
f 224 223 213
f 213 223 212
f 223 228 212
f 212 228 211
f 228 227 211
f 211 227 210
f 227 226 210
f 210 226 209
f 226 231 209
f 209 231 208
f 231 230 208
f 208 230 207
f 230 229 207
f 207 229 206
f 229 234 206
f 206 234 205
f 234 233 205
f 205 233 204
f 233 232 204
f 204 232 203
f 232 237 203
f 203 237 202
f 237 236 202
f 202 236 201
f 236 235 201
f 201 235 200
f 235 240 200
f 200 240 199
f 240 239 199
f 199 239 198
f 239 238 198
f 198 238 197
f 238 243 197
f 197 243 196
f 243 242 196
f 196 242 195
f 242 241 195
f 195 241 194
f 241 246 194
f 194 246 193
f 246 245 193
f 193 245 192
f 245 244 192
f 192 244 191
f 244 249 191
f 191 249 190
f 249 248 190
f 190 248 189
f 248 247 189
f 189 247 188
f 247 252 188
f 188 252 187
f 252 251 187
f 187 251 186
f 251 250 186
f 186 250 185
f 250 255 185
f 185 255 184
f 255 254 184
f 184 254 183
f 254 253 183
f 183 253 182
f 253 258 182
f 182 258 181
f 258 257 181
f 181 257 180
f 257 256 180
f 180 256 179
f 256 261 179
f 179 261 178
f 261 260 178
f 178 260 177
f 260 259 177
f 177 259 176
f 259 264 176
f 176 264 175
f 264 263 175
f 175 263 174
f 263 262 174
f 174 262 173
f 262 267 173
f 173 267 172
f 267 266 172
f 172 266 171
f 266 265 171
f 171 265 170
f 265 270 170
f 170 270 169
f 270 269 169
f 169 269 168
f 269 268 168
f 168 268 167
f 268 273 167
f 167 273 166
f 273 272 166
f 166 272 165
f 272 271 165
f 165 271 164
f 271 276 164
f 164 276 163
f 276 275 163
f 163 275 162
f 275 274 162
f 162 274 161
f 274 279 161
f 161 279 160
f 279 278 160
f 160 278 159
f 278 277 159
f 159 277 158
f 277 282 158
f 158 282 157
f 282 281 157
f 157 281 156
f 281 280 156
f 156 280 155
f 280 285 155
f 155 285 154
f 285 284 154
f 154 284 153
f 284 283 153
f 153 283 152
f 283 288 152
f 152 288 151
f 288 287 151
f 151 287 150
f 287 286 150
f 150 286 149
f 286 290 149
f 149 290 148
f 290 289 148
f 148 289 147
f 289 222 147
f 147 222 146
f 222 221 146
f 146 221 145
f 221 219 145

