# https://github.com/mikedh/trimesh
v -0.29387975 0.01207107 0.00490000
v -0.29387975 0.01507107 0.00490000
v -0.29345644 0.01207107 0.00520725
v -0.29345644 0.01507107 0.00520725
v -0.29300892 0.01207107 0.00547803
v -0.29300892 0.01507107 0.00547803
v -0.29254034 0.01207107 0.00571044
v -0.29254034 0.01507107 0.00571044
v -0.29205397 0.01207107 0.00590286
v -0.29205397 0.01507107 0.00590286
v -0.29155320 0.01207107 0.00605393
v -0.29155320 0.01507107 0.00605393
v -0.29104155 0.01207107 0.00616260
v -0.29104155 0.01507107 0.00616260
v -0.29052261 0.01207107 0.00622811
v -0.29052261 0.01507107 0.00622811
v -0.28999999 0.01207107 0.00625000
v -0.28999999 0.01507107 0.00625000
v -0.28947741 0.01207107 0.00622811
v -0.28947741 0.01507107 0.00622811
v -0.28895846 0.01207107 0.00616260
v -0.28895846 0.01507107 0.00616260
v -0.28844681 0.01207107 0.00605393
v -0.28844681 0.01507107 0.00605393
v -0.28794605 0.01207107 0.00590286
v -0.28794605 0.01507107 0.00590286
v -0.28745967 0.01207107 0.00571044
v -0.28745967 0.01507107 0.00571044
v -0.28699106 0.01207107 0.00547803
v -0.28699106 0.01507107 0.00547803
v -0.28654355 0.01207107 0.00520725
v -0.28654355 0.01507107 0.00520725
v -0.28612024 0.01207107 0.00490000
v -0.28612024 0.01507107 0.00490000
v -0.27102774 0.01207107 0.00860970
v -0.27125001 0.01207107 0.00860000
v -0.29521263 0.01207107 0.01666116
v -0.29538912 0.01207107 0.01679659
v -0.29990000 0.01207107 0.00490000
v -0.29555312 0.01207107 0.01694688
v -0.29570341 0.01207107 0.01711089
v -0.29583883 0.01207107 0.01728738
v -0.27356109 0.01207107 0.01007232
v -0.27345836 0.01207107 0.00987500
v -0.27333882 0.01207107 0.00968738
v -0.27364621 0.01207107 0.01202215
v -0.27356109 0.01207107 0.01222768
v -0.29128689 0.01207107 0.01809001
v -0.29595837 0.01207107 0.01747500
v -0.29606110 0.01207107 0.01767232
v -0.29990000 0.01207107 0.02000000
v -0.29614621 0.01207107 0.01787785
v -0.29621312 0.01207107 0.01809001
v -0.27288911 0.01207107 0.00919659
v -0.27271262 0.01207107 0.00906116
v -0.27252501 0.01207107 0.00894164
v -0.27305311 0.01207107 0.00934688
v -0.27320340 0.01207107 0.00951089
v -0.29626125 0.01207107 0.01830720
v -0.29629031 0.01207107 0.01852775
v -0.29629999 0.01207107 0.01875000
v -0.08373874 0.01207107 0.01919280
v -0.08370970 0.01207107 0.01897225
v -0.08010000 0.01207107 0.02500000
v -0.29120001 0.01207107 0.01875000
v -0.08010000 0.01207107 0.00490000
v -0.29120970 0.01207107 0.01897225
v -0.29123875 0.01207107 0.01919280
v -0.27147225 0.01207107 0.00860970
v -0.27169281 0.01207107 0.00863874
v -0.27190998 0.01207107 0.00868689
v -0.26916116 0.01207107 0.00968738
v -0.26904163 0.01207107 0.00987500
v -0.26893893 0.01207107 0.01007232
v -0.26929659 0.01207107 0.00951089
v -0.26944688 0.01207107 0.00934688
v -0.26961088 0.01207107 0.00919659
v -0.29462215 0.01207107 0.01635378
v -0.29482767 0.01207107 0.01643891
v -0.29502499 0.01207107 0.01654164
v -0.29629031 0.01207107 0.01897225
v -0.29626125 0.01207107 0.01919280
v -0.29988098 0.01207107 0.02043578
v -0.29621312 0.01207107 0.01940999
v -0.29982403 0.01207107 0.02086824
v -0.29614621 0.01207107 0.01962215
v -0.29972962 0.01207107 0.02129409
v -0.29606110 0.01207107 0.01982768
v -0.29570341 0.01207107 0.02038911
v -0.29899576 0.01207107 0.02286788
v -0.29583883 0.01207107 0.02021262
v -0.29923013 0.01207107 0.02250000
v -0.29595837 0.01207107 0.02002500
v -0.29943153 0.01207107 0.02211309
v -0.29959846 0.01207107 0.02171010
v -0.29143891 0.01207107 0.01982768
v -0.29154164 0.01207107 0.02002500
v -0.29166117 0.01207107 0.02021262
v -0.11083884 0.01207107 0.00968738
v -0.11095837 0.01207107 0.00987500
v -0.10897224 0.01207107 0.01369030
v -0.08833884 0.01207107 0.01728738
v -0.08845837 0.01207107 0.01747500
v -0.29120970 0.01207107 0.01852775
v -0.29123875 0.01207107 0.01830720
v -0.27212214 0.01207107 0.00875378
v -0.27232769 0.01207107 0.00883892
v -0.29154164 0.01207107 0.01747500
v -0.29143891 0.01207107 0.01767232
v -0.27364621 0.01207107 0.01027785
v -0.27371311 0.01207107 0.01049001
v -0.26978737 0.01207107 0.00906116
v -0.26997501 0.01207107 0.00894164
v -0.27017233 0.01207107 0.00883892
v -0.27037784 0.01207107 0.00875378
v -0.27059001 0.01207107 0.00868689
v -0.27080721 0.01207107 0.00863874
v -0.29374999 0.01207107 0.01620000
v -0.29397225 0.01207107 0.01620970
v -0.29419279 0.01207107 0.01623874
v -0.29440999 0.01207107 0.01628689
v -0.29228738 0.01207107 0.02083884
v -0.29211089 0.01207107 0.02070341
v -0.08602776 0.01207107 0.01620970
v -0.08625000 0.01207107 0.01620000
v -0.10628689 0.01207107 0.01180999
v -0.27376127 0.01207107 0.01070720
v -0.27379030 0.01207107 0.01092775
v -0.27379999 0.01207107 0.01115000
v -0.27379030 0.01207107 0.01137225
v -0.27376127 0.01207107 0.01159280
v -0.27371311 0.01207107 0.01180999
v -0.26870969 0.01207107 0.01137225
v -0.26870000 0.01207107 0.01115000
v -0.26870969 0.01207107 0.01092775
v -0.26873875 0.01207107 0.01070720
v -0.26878688 0.01207107 0.01049001
v -0.26885378 0.01207107 0.01027785
v -0.29166117 0.01207107 0.01728738
v -0.29179659 0.01207107 0.01711089
v -0.29194689 0.01207107 0.01694688
v -0.29211089 0.01207107 0.01679659
v -0.29521263 0.01207107 0.02083884
v -0.29776788 0.01207107 0.02409576
v -0.29538912 0.01207107 0.02070341
v -0.29811394 0.01207107 0.02383022
v -0.29555312 0.01207107 0.02055312
v -0.29843554 0.01207107 0.02353553
v -0.29873022 0.01207107 0.02321394
v -0.29194689 0.01207107 0.02055312
v -0.29179659 0.01207107 0.02038911
v -0.27345836 0.01207107 0.01242500
v -0.27333882 0.01207107 0.01261262
v -0.27320340 0.01207107 0.01278911
v -0.26978737 0.01207107 0.01323884
v -0.26961088 0.01207107 0.01310341
v -0.26916116 0.01207107 0.01261262
v -0.26904163 0.01207107 0.01242500
v -0.26893893 0.01207107 0.01222768
v -0.26885378 0.01207107 0.01202215
v -0.10962215 0.01207107 0.00875378
v -0.10982767 0.01207107 0.00883892
v -0.11129030 0.01207107 0.01092775
v -0.11126126 0.01207107 0.01070720
v -0.11121311 0.01207107 0.01049001
v -0.10919280 0.01207107 0.01366126
v -0.08856109 0.01207107 0.01767232
v -0.08864622 0.01207107 0.01787785
v -0.29135379 0.01207107 0.01962215
v -0.08879030 0.01207107 0.01852775
v -0.08880000 0.01207107 0.01875000
v -0.29135379 0.01207107 0.01787785
v -0.26944688 0.01207107 0.01295312
v -0.26929659 0.01207107 0.01278911
v -0.26878688 0.01207107 0.01180999
v -0.26873875 0.01207107 0.01159280
v -0.29228738 0.01207107 0.01666116
v -0.29247499 0.01207107 0.01654164
v -0.29309002 0.01207107 0.01628689
v -0.29287785 0.01207107 0.01635378
v -0.29267234 0.01207107 0.01643891
v -0.29352775 0.01207107 0.01620970
v -0.29330719 0.01207107 0.01623874
v -0.29440999 0.01207107 0.02121311
v -0.29419279 0.01207107 0.02126126
v -0.29490000 0.01207107 0.02500000
v -0.29397225 0.01207107 0.02129030
v -0.29374999 0.01207107 0.02130000
v -0.29352775 0.01207107 0.02129030
v -0.29330719 0.01207107 0.02126126
v -0.29309002 0.01207107 0.02121311
v -0.10940999 0.01207107 0.00868689
v -0.11002500 0.01207107 0.00894164
v -0.11021262 0.01207107 0.00906116
v -0.11038911 0.01207107 0.00919659
v -0.11055312 0.01207107 0.00934688
v -0.11070342 0.01207107 0.00951089
v -0.11106108 0.01207107 0.01007232
v -0.11114622 0.01207107 0.01027785
v -0.08647225 0.01207107 0.01620970
v -0.08669280 0.01207107 0.01623874
v -0.08690999 0.01207107 0.01628689
v -0.08712215 0.01207107 0.01635378
v -0.08732767 0.01207107 0.01643891
v -0.08752500 0.01207107 0.01654164
v -0.08771262 0.01207107 0.01666116
v -0.08788911 0.01207107 0.01679659
v -0.11130000 0.01207107 0.01115000
v -0.11129030 0.01207107 0.01137225
v -0.11126126 0.01207107 0.01159280
v -0.08879030 0.01207107 0.01897225
v -0.08876126 0.01207107 0.01919280
v -0.08871311 0.01207107 0.01940999
v -0.08393891 0.01207107 0.01982768
v -0.08385378 0.01207107 0.01962215
v -0.08378689 0.01207107 0.01940999
v -0.10654163 0.01207107 0.01242500
v -0.10666116 0.01207107 0.01261262
v -0.10679659 0.01207107 0.01278911
v -0.27305311 0.01207107 0.01295312
v -0.27288911 0.01207107 0.01310341
v -0.27271262 0.01207107 0.01323884
v -0.29533577 0.01207107 0.02498097
v -0.29576823 0.01207107 0.02492404
v -0.29462215 0.01207107 0.02114622
v -0.29619411 0.01207107 0.02482963
v -0.29482767 0.01207107 0.02106109
v -0.29661009 0.01207107 0.02469846
v -0.29502499 0.01207107 0.02095836
v -0.29701310 0.01207107 0.02453154
v -0.29740000 0.01207107 0.02433013
v -0.29287785 0.01207107 0.02114622
v -0.29267234 0.01207107 0.02106109
v -0.29247499 0.01207107 0.02095836
v -0.08805312 0.01207107 0.01694688
v -0.08820342 0.01207107 0.01711089
v -0.11121311 0.01207107 0.01180999
v -0.11114622 0.01207107 0.01202215
v -0.11106108 0.01207107 0.01222768
v -0.11095837 0.01207107 0.01242500
v -0.11083884 0.01207107 0.01261262
v -0.11070342 0.01207107 0.01278911
v -0.10940999 0.01207107 0.01361311
v -0.08876126 0.01207107 0.01830720
v -0.08871311 0.01207107 0.01809001
v -0.08864622 0.01207107 0.01962215
v -0.08856109 0.01207107 0.01982768
v -0.08845837 0.01207107 0.02002500
v -0.10643891 0.01207107 0.01222768
v -0.10635378 0.01207107 0.01202215
v -0.10623874 0.01207107 0.01070720
v -0.10628689 0.01207107 0.01049001
v -0.10635378 0.01207107 0.01027785
v -0.10767233 0.01207107 0.00883892
v -0.10787785 0.01207107 0.00875378
v -0.08580720 0.01207107 0.01623874
v -0.10623874 0.01207107 0.01159280
v -0.08559001 0.01207107 0.01628689
v -0.08370000 0.01207107 0.01875000
v -0.08370970 0.01207107 0.01852775
v -0.08373874 0.01207107 0.01830720
v -0.08378689 0.01207107 0.01809001
v -0.08385378 0.01207107 0.01787785
v -0.08393891 0.01207107 0.01767232
v -0.08404163 0.01207107 0.01747500
v -0.10643891 0.01207107 0.01007232
v -0.10654163 0.01207107 0.00987500
v -0.10666116 0.01207107 0.00968738
v -0.27252501 0.01207107 0.01335836
v -0.27232769 0.01207107 0.01346109
v -0.27212214 0.01207107 0.01354622
v -0.27059001 0.01207107 0.01361311
v -0.27037784 0.01207107 0.01354622
v -0.11055312 0.01207107 0.01295312
v -0.11038911 0.01207107 0.01310341
v -0.11021262 0.01207107 0.01323884
v -0.11002500 0.01207107 0.01335836
v -0.10982767 0.01207107 0.01346109
v -0.10962215 0.01207107 0.01354622
v -0.29128689 0.01207107 0.01940999
v -0.08833884 0.01207107 0.02021262
v -0.08820342 0.01207107 0.02038911
v -0.08805312 0.01207107 0.02055312
v -0.08752500 0.01207107 0.02095836
v -0.08732767 0.01207107 0.02106109
v -0.08712215 0.01207107 0.02114622
v -0.10852775 0.01207107 0.01369030
v -0.10830720 0.01207107 0.01366126
v -0.10809001 0.01207107 0.01361311
v -0.10787785 0.01207107 0.01354622
v -0.10767233 0.01207107 0.01346109
v -0.10747500 0.01207107 0.01335836
v -0.10728738 0.01207107 0.01323884
v -0.08416116 0.01207107 0.01728738
v -0.08429658 0.01207107 0.01711089
v -0.08444688 0.01207107 0.01694688
v -0.08461089 0.01207107 0.01679659
v -0.08478738 0.01207107 0.01666116
v -0.08497500 0.01207107 0.01654164
v -0.10809001 0.01207107 0.00868689
v -0.10830720 0.01207107 0.00863874
v -0.10852775 0.01207107 0.00860970
v -0.27190998 0.01207107 0.01361311
v -0.27169281 0.01207107 0.01366126
v -0.27147225 0.01207107 0.01369030
v -0.27017233 0.01207107 0.01346109
v -0.26997501 0.01207107 0.01335836
v -0.10875000 0.01207107 0.00860000
v -0.10897224 0.01207107 0.00860970
v -0.10919280 0.01207107 0.00863874
v -0.08788911 0.01207107 0.02070341
v -0.08771262 0.01207107 0.02083884
v -0.08461089 0.01207107 0.02070341
v -0.08444688 0.01207107 0.02055312
v -0.08429658 0.01207107 0.02038911
v -0.10875000 0.01207107 0.01370000
v -0.10711090 0.01207107 0.01310341
v -0.10694688 0.01207107 0.01295312
v -0.08517233 0.01207107 0.01643891
v -0.08537785 0.01207107 0.01635378
v -0.10679659 0.01207107 0.00951089
v -0.10694688 0.01207107 0.00934688
v -0.10711090 0.01207107 0.00919659
v -0.08690999 0.01207107 0.02121311
v -0.08669280 0.01207107 0.02126126
v -0.08647225 0.01207107 0.02129030
v -0.08416116 0.01207107 0.02021262
v -0.08404163 0.01207107 0.02002500
v -0.10620970 0.01207107 0.01137225
v -0.10620000 0.01207107 0.01115000
v -0.10620970 0.01207107 0.01092775
v -0.10728738 0.01207107 0.00906116
v -0.10747500 0.01207107 0.00894164
v -0.27125001 0.01207107 0.01370000
v -0.27102774 0.01207107 0.01369030
v -0.27080721 0.01207107 0.01366126
v -0.08625000 0.01207107 0.02130000
v -0.08602776 0.01207107 0.02129030
v -0.08580720 0.01207107 0.02126126
v -0.08517233 0.01207107 0.02106109
v -0.08497500 0.01207107 0.02095836
v -0.08478738 0.01207107 0.02083884
v -0.08559001 0.01207107 0.02121311
v -0.08537785 0.01207107 0.02114622
v -0.08010000 0.01507107 0.00490000
v -0.29490000 0.01507107 0.02500000
v -0.29533577 0.01507107 0.02498097
v -0.29576823 0.01507107 0.02492404
v -0.29619411 0.01507107 0.02482963
v -0.29661009 0.01507107 0.02469846
v -0.29701310 0.01507107 0.02453154
v -0.29740000 0.01507107 0.02433013
v -0.29776788 0.01507107 0.02409576
v -0.29811394 0.01507107 0.02383022
v -0.29843554 0.01507107 0.02353553
v -0.29873022 0.01507107 0.02321394
v -0.29899576 0.01507107 0.02286788
v -0.29923013 0.01507107 0.02250000
v -0.29943153 0.01507107 0.02211309
v -0.29959846 0.01507107 0.02171010
v -0.29972962 0.01507107 0.02129409
v -0.29982403 0.01507107 0.02086824
v -0.29988098 0.01507107 0.02043578
v -0.29990000 0.01507107 0.02000000
v -0.29352775 0.01507107 0.02129030
v -0.29374999 0.01507107 0.02130000
v -0.29166117 0.01507107 0.01728738
v -0.29154164 0.01507107 0.01747500
v -0.27125001 0.01507107 0.01370000
v -0.29143891 0.01507107 0.01767232
v -0.27102774 0.01507107 0.01369030
v -0.29211089 0.01507107 0.01679659
v -0.29194689 0.01507107 0.01694688
v -0.29179659 0.01507107 0.01711089
v -0.29143891 0.01507107 0.01982768
v -0.29154164 0.01507107 0.02002500
v -0.08010000 0.01507107 0.02500000
v -0.29166117 0.01507107 0.02021262
v -0.29179659 0.01507107 0.02038911
v -0.29194689 0.01507107 0.02055312
v -0.29211089 0.01507107 0.02070341
v -0.29228738 0.01507107 0.02083884
v -0.29267234 0.01507107 0.01643891
v -0.29287785 0.01507107 0.01635378
v -0.29309002 0.01507107 0.01628689
v -0.29247499 0.01507107 0.01654164
v -0.29228738 0.01507107 0.01666116
v -0.29247499 0.01507107 0.02095836
v -0.29267234 0.01507107 0.02106109
v -0.29287785 0.01507107 0.02114622
v -0.29309002 0.01507107 0.02121311
v -0.29330719 0.01507107 0.02126126
v -0.29374999 0.01507107 0.01620000
v -0.29352775 0.01507107 0.01620970
v -0.29330719 0.01507107 0.01623874
v -0.29583883 0.01507107 0.02021262
v -0.29570341 0.01507107 0.02038911
v -0.29555312 0.01507107 0.02055312
v -0.29538912 0.01507107 0.02070341
v -0.29614621 0.01507107 0.01962215
v -0.29606110 0.01507107 0.01982768
v -0.29595837 0.01507107 0.02002500
v -0.29626125 0.01507107 0.01919280
v -0.29629031 0.01507107 0.01897225
v -0.29629999 0.01507107 0.01875000
v -0.29629031 0.01507107 0.01852775
v -0.29626125 0.01507107 0.01830720
v -0.29621312 0.01507107 0.01940999
v -0.27169281 0.01507107 0.01366126
v -0.27190998 0.01507107 0.01361311
v -0.29397225 0.01507107 0.01620970
v -0.27252501 0.01507107 0.01335836
v -0.27271262 0.01507107 0.01323884
v -0.27288911 0.01507107 0.01310341
v -0.29990000 0.01507107 0.00490000
v -0.27376127 0.01507107 0.01070720
v -0.27371311 0.01507107 0.01049001
v -0.27364621 0.01507107 0.01027785
v -0.27356109 0.01507107 0.01007232
v -0.27345836 0.01507107 0.00987500
v -0.27333882 0.01507107 0.00968738
v -0.27320340 0.01507107 0.00951089
v -0.29397225 0.01507107 0.02129030
v -0.29419279 0.01507107 0.02126126
v -0.29440999 0.01507107 0.02121311
v -0.29462215 0.01507107 0.02114622
v -0.29521263 0.01507107 0.02083884
v -0.29502499 0.01507107 0.02095836
v -0.29482767 0.01507107 0.02106109
v -0.27305311 0.01507107 0.01295312
v -0.27320340 0.01507107 0.01278911
v -0.27333882 0.01507107 0.01261262
v -0.27364621 0.01507107 0.01202215
v -0.29419279 0.01507107 0.01623874
v -0.27356109 0.01507107 0.01222768
v -0.27345836 0.01507107 0.01242500
v -0.26893893 0.01507107 0.01007232
v -0.26904163 0.01507107 0.00987500
v -0.26916116 0.01507107 0.00968738
v -0.26878688 0.01507107 0.01180999
v -0.26885378 0.01507107 0.01202215
v -0.29123875 0.01507107 0.01919280
v -0.29120970 0.01507107 0.01897225
v -0.29120001 0.01507107 0.01875000
v -0.29128689 0.01507107 0.01940999
v -0.29135379 0.01507107 0.01962215
v -0.27147225 0.01507107 0.01369030
v -0.27371311 0.01507107 0.01180999
v -0.27376127 0.01507107 0.01159280
v -0.29440999 0.01507107 0.01628689
v -0.27305311 0.01507107 0.00934688
v -0.27288911 0.01507107 0.00919659
v -0.27271262 0.01507107 0.00906116
v -0.26978737 0.01507107 0.00906116
v -0.26961088 0.01507107 0.00919659
v -0.08864622 0.01507107 0.01962215
v -0.08871311 0.01507107 0.01940999
v -0.10875000 0.01507107 0.01370000
v -0.27212214 0.01507107 0.01354622
v -0.27232769 0.01507107 0.01346109
v -0.29621312 0.01507107 0.01809001
v -0.29614621 0.01507107 0.01787785
v -0.29606110 0.01507107 0.01767232
v -0.29595837 0.01507107 0.01747500
v -0.29583883 0.01507107 0.01728738
v -0.29570341 0.01507107 0.01711089
v -0.29555312 0.01507107 0.01694688
v -0.26944688 0.01507107 0.00934688
v -0.26929659 0.01507107 0.00951089
v -0.08370000 0.01507107 0.01875000
v -0.08370970 0.01507107 0.01897225
v -0.08373874 0.01507107 0.01919280
v -0.08378689 0.01507107 0.01940999
v -0.26870000 0.01507107 0.01115000
v -0.26870969 0.01507107 0.01092775
v -0.26873875 0.01507107 0.01070720
v -0.26870969 0.01507107 0.01137225
v -0.26873875 0.01507107 0.01159280
v -0.29120970 0.01507107 0.01852775
v -0.27059001 0.01507107 0.01361311
v -0.29123875 0.01507107 0.01830720
v -0.27080721 0.01507107 0.01366126
v -0.29128689 0.01507107 0.01809001
v -0.29135379 0.01507107 0.01787785
v -0.29538912 0.01507107 0.01679659
v -0.29521263 0.01507107 0.01666116
v -0.29502499 0.01507107 0.01654164
v -0.08856109 0.01507107 0.01982768
v -0.10694688 0.01507107 0.00934688
v -0.10679659 0.01507107 0.00951089
v -0.08879030 0.01507107 0.01852775
v -0.26893893 0.01507107 0.01222768
v -0.26904163 0.01507107 0.01242500
v -0.26916116 0.01507107 0.01261262
v -0.26929659 0.01507107 0.01278911
v -0.26944688 0.01507107 0.01295312
v -0.26961088 0.01507107 0.01310341
v -0.27252501 0.01507107 0.00894164
v -0.27232769 0.01507107 0.00883892
v -0.27212214 0.01507107 0.00875378
v -0.27059001 0.01507107 0.00868689
v -0.27037784 0.01507107 0.00875378
v -0.10643891 0.01507107 0.01007232
v -0.10635378 0.01507107 0.01027785
v -0.10628689 0.01507107 0.01049001
v -0.10623874 0.01507107 0.01070720
v -0.10620970 0.01507107 0.01092775
v -0.11083884 0.01507107 0.01261262
v -0.11095837 0.01507107 0.01242500
v -0.08385378 0.01507107 0.01962215
v -0.08393891 0.01507107 0.01982768
v -0.08404163 0.01507107 0.02002500
v -0.29482767 0.01507107 0.01643891
v -0.29462215 0.01507107 0.01635378
v -0.27190998 0.01507107 0.00868689
v -0.27169281 0.01507107 0.00863874
v -0.27147225 0.01507107 0.00860970
v -0.27125001 0.01507107 0.00860000
v -0.27102774 0.01507107 0.00860970
v -0.27080721 0.01507107 0.00863874
v -0.27017233 0.01507107 0.00883892
v -0.26997501 0.01507107 0.00894164
v -0.08771262 0.01507107 0.02083884
v -0.08752500 0.01507107 0.02095836
v -0.08732767 0.01507107 0.02106109
v -0.08820342 0.01507107 0.02038911
v -0.08833884 0.01507107 0.02021262
v -0.08845837 0.01507107 0.02002500
v -0.10666116 0.01507107 0.00968738
v -0.10654163 0.01507107 0.00987500
v -0.10620000 0.01507107 0.01115000
v -0.10620970 0.01507107 0.01137225
v -0.10623874 0.01507107 0.01159280
v -0.11126126 0.01507107 0.01070720
v -0.11121311 0.01507107 0.01049001
v -0.08393891 0.01507107 0.01767232
v -0.08385378 0.01507107 0.01787785
v -0.08478738 0.01507107 0.02083884
v -0.08461089 0.01507107 0.02070341
v -0.08444688 0.01507107 0.02055312
v -0.27379030 0.01507107 0.01137225
v -0.27379999 0.01507107 0.01115000
v -0.27379030 0.01507107 0.01092775
v -0.08602776 0.01507107 0.02129030
v -0.08625000 0.01507107 0.02130000
v -0.08647225 0.01507107 0.02129030
v -0.08669280 0.01507107 0.02126126
v -0.08788911 0.01507107 0.02070341
v -0.08805312 0.01507107 0.02055312
v -0.10767233 0.01507107 0.00883892
v -0.10747500 0.01507107 0.00894164
v -0.10666116 0.01507107 0.01261262
v -0.10679659 0.01507107 0.01278911
v -0.08879030 0.01507107 0.01897225
v -0.10694688 0.01507107 0.01295312
v -0.11106108 0.01507107 0.01222768
v -0.11114622 0.01507107 0.01202215
v -0.11121311 0.01507107 0.01180999
v -0.08833884 0.01507107 0.01728738
v -0.08820342 0.01507107 0.01711089
v -0.08378689 0.01507107 0.01809001
v -0.08373874 0.01507107 0.01830720
v -0.08370970 0.01507107 0.01852775
v -0.08416116 0.01507107 0.02021262
v -0.08429658 0.01507107 0.02038911
v -0.08497500 0.01507107 0.02095836
v -0.08517233 0.01507107 0.02106109
v -0.08537785 0.01507107 0.02114622
v -0.26978737 0.01507107 0.01323884
v -0.26997501 0.01507107 0.01335836
v -0.27017233 0.01507107 0.01346109
v -0.27037784 0.01507107 0.01354622
v -0.08690999 0.01507107 0.02121311
v -0.08712215 0.01507107 0.02114622
v -0.10728738 0.01507107 0.00906116
v -0.10711090 0.01507107 0.00919659
v -0.10809001 0.01507107 0.01361311
v -0.10830720 0.01507107 0.01366126
v -0.11129030 0.01507107 0.01092775
v -0.11114622 0.01507107 0.01027785
v -0.11106108 0.01507107 0.01007232
v -0.11095837 0.01507107 0.00987500
v -0.08876126 0.01507107 0.01830720
v -0.08871311 0.01507107 0.01809001
v -0.08864622 0.01507107 0.01787785
v -0.08559001 0.01507107 0.02121311
v -0.08580720 0.01507107 0.02126126
v -0.10628689 0.01507107 0.01180999
v -0.10635378 0.01507107 0.01202215
v -0.08880000 0.01507107 0.01875000
v -0.10643891 0.01507107 0.01222768
v -0.10654163 0.01507107 0.01242500
v -0.10747500 0.01507107 0.01335836
v -0.10767233 0.01507107 0.01346109
v -0.10787785 0.01507107 0.01354622
v -0.08876126 0.01507107 0.01919280
v -0.10852775 0.01507107 0.01369030
v -0.10940999 0.01507107 0.01361311
v -0.10962215 0.01507107 0.01354622
v -0.10982767 0.01507107 0.01346109
v -0.11126126 0.01507107 0.01159280
v -0.11129030 0.01507107 0.01137225
v -0.26878688 0.01507107 0.01049001
v -0.26885378 0.01507107 0.01027785
v -0.08856109 0.01507107 0.01767232
v -0.08845837 0.01507107 0.01747500
v -0.10711090 0.01507107 0.01310341
v -0.10728738 0.01507107 0.01323884
v -0.11002500 0.01507107 0.01335836
v -0.11021262 0.01507107 0.01323884
v -0.11038911 0.01507107 0.01310341
v -0.11055312 0.01507107 0.01295312
v -0.11070342 0.01507107 0.01278911
v -0.11130000 0.01507107 0.01115000
v -0.10897224 0.01507107 0.01369030
v -0.10919280 0.01507107 0.01366126
v -0.11083884 0.01507107 0.00968738
v -0.11070342 0.01507107 0.00951089
v -0.11055312 0.01507107 0.00934688
v -0.08478738 0.01507107 0.01666116
v -0.08497500 0.01507107 0.01654164
v -0.08517233 0.01507107 0.01643891
v -0.08461089 0.01507107 0.01679659
v -0.08444688 0.01507107 0.01694688
v -0.08429658 0.01507107 0.01711089
v -0.08416116 0.01507107 0.01728738
v -0.08404163 0.01507107 0.01747500
v -0.11038911 0.01507107 0.00919659
v -0.11021262 0.01507107 0.00906116
v -0.11002500 0.01507107 0.00894164
v -0.08771262 0.01507107 0.01666116
v -0.10787785 0.01507107 0.00875378
v -0.08788911 0.01507107 0.01679659
v -0.08805312 0.01507107 0.01694688
v -0.10982767 0.01507107 0.00883892
v -0.10962215 0.01507107 0.00875378
v -0.10940999 0.01507107 0.00868689
v -0.10852775 0.01507107 0.00860970
v -0.10830720 0.01507107 0.00863874
v -0.08752500 0.01507107 0.01654164
v -0.08732767 0.01507107 0.01643891
v -0.08712215 0.01507107 0.01635378
v -0.08690999 0.01507107 0.01628689
v -0.08669280 0.01507107 0.01623874
v -0.08647225 0.01507107 0.01620970
v -0.10919280 0.01507107 0.00863874
v -0.10897224 0.01507107 0.00860970
v -0.10875000 0.01507107 0.00860000
v -0.08625000 0.01507107 0.01620000
v -0.08602776 0.01507107 0.01620970
v -0.08580720 0.01507107 0.01623874
v -0.10809001 0.01507107 0.00868689
v -0.08559001 0.01507107 0.01628689
v -0.08537785 0.01507107 0.01635378
f 1 2 3
f 2 4 3
f 3 4 5
f 4 6 5
f 5 6 7
f 6 8 7
f 7 8 9
f 8 10 9
f 9 10 11
f 10 12 11
f 11 12 13
f 12 14 13
f 13 14 15
f 14 16 15
f 15 16 17
f 16 18 17
f 17 18 19
f 18 20 19
f 19 20 21
f 20 22 21
f 21 22 23
f 22 24 23
f 23 24 25
f 24 26 25
f 25 26 27
f 26 28 27
f 27 28 29
f 28 30 29
f 29 30 31
f 30 32 31
f 31 32 33
f 32 34 33
f 35 36 33
f 37 38 39
f 38 40 39
f 40 41 39
f 39 41 42
f 43 33 44
f 33 45 44
f 46 47 48
f 42 49 39
f 49 50 39
f 39 50 51
f 50 52 51
f 51 52 53
f 54 33 55
f 33 56 55
f 54 57 33
f 57 58 33
f 33 58 45
f 53 59 51
f 59 60 51
f 51 60 61
f 62 63 64
f 65 66 67
f 66 68 67
f 36 69 33
f 69 70 33
f 33 70 71
f 72 66 73
f 66 74 73
f 72 75 66
f 75 76 66
f 66 76 77
f 78 79 39
f 79 80 39
f 39 80 37
f 61 81 51
f 81 82 51
f 51 82 83
f 82 84 83
f 83 84 85
f 84 86 85
f 85 86 87
f 86 88 87
f 89 90 91
f 90 92 91
f 91 92 93
f 92 94 93
f 93 94 88
f 94 95 88
f 88 95 87
f 96 64 97
f 64 98 97
f 99 100 68
f 101 102 103
f 65 104 66
f 104 105 66
f 66 105 48
f 71 106 33
f 106 107 33
f 33 107 56
f 108 43 109
f 43 110 109
f 109 110 111
f 77 112 66
f 112 113 66
f 66 113 114
f 114 115 66
f 115 116 66
f 66 116 33
f 116 117 33
f 33 117 35
f 118 119 1
f 119 120 1
f 1 120 39
f 120 121 39
f 39 121 78
f 122 123 64
f 124 125 126
f 111 127 109
f 127 128 109
f 109 128 129
f 129 130 109
f 130 131 109
f 109 131 132
f 133 134 66
f 134 135 66
f 66 135 136
f 136 137 66
f 137 138 66
f 66 138 74
f 108 139 43
f 139 140 43
f 43 140 33
f 140 141 33
f 33 141 142
f 143 144 145
f 144 146 145
f 145 146 147
f 146 148 147
f 147 148 89
f 148 149 89
f 89 149 90
f 123 150 64
f 150 151 64
f 64 151 98
f 47 152 48
f 152 153 48
f 48 153 154
f 155 156 66
f 157 158 66
f 158 159 66
f 66 159 160
f 161 162 68
f 163 68 164
f 68 165 164
f 101 103 166
f 103 167 166
f 166 167 168
f 169 170 96
f 170 171 96
f 46 48 132
f 48 172 132
f 132 172 109
f 156 173 66
f 173 174 66
f 66 174 157
f 160 175 66
f 175 176 66
f 66 176 133
f 142 177 33
f 177 178 33
f 33 178 31
f 178 29 31
f 179 15 180
f 15 17 180
f 17 19 180
f 19 21 180
f 180 21 181
f 182 9 183
f 9 11 183
f 183 11 179
f 11 13 179
f 179 13 15
f 1 3 118
f 3 5 118
f 118 5 182
f 5 7 182
f 182 7 9
f 184 185 186
f 185 187 186
f 186 187 188
f 188 189 186
f 189 190 186
f 186 190 191
f 161 68 192
f 162 193 68
f 193 194 68
f 68 194 195
f 195 196 68
f 196 197 68
f 68 197 99
f 100 198 68
f 198 199 68
f 68 199 165
f 200 201 101
f 201 202 101
f 202 203 101
f 101 203 204
f 204 205 101
f 205 206 101
f 101 206 207
f 163 208 68
f 208 209 68
f 68 209 210
f 171 211 96
f 211 212 96
f 96 212 213
f 214 215 64
f 215 216 64
f 64 216 62
f 217 125 218
f 125 219 218
f 154 220 48
f 220 221 48
f 48 221 222
f 186 223 184
f 223 224 184
f 184 224 225
f 224 226 225
f 225 226 227
f 226 228 227
f 227 228 229
f 228 230 229
f 229 230 143
f 230 231 143
f 143 231 144
f 191 232 186
f 232 233 186
f 186 233 64
f 233 234 64
f 64 234 122
f 207 235 101
f 235 236 101
f 101 236 102
f 210 237 68
f 237 238 68
f 68 238 239
f 239 240 68
f 240 241 68
f 68 241 242
f 170 243 244
f 243 166 244
f 244 166 245
f 166 168 245
f 213 246 96
f 246 247 96
f 96 247 248
f 217 249 125
f 249 250 125
f 125 250 126
f 251 252 66
f 252 253 66
f 254 255 66
f 21 23 181
f 23 25 181
f 181 25 178
f 25 27 178
f 178 27 29
f 124 126 256
f 126 257 256
f 256 257 258
f 63 259 64
f 259 260 64
f 64 260 66
f 260 261 66
f 66 261 262
f 262 263 66
f 263 264 66
f 66 264 265
f 253 266 66
f 266 267 66
f 66 267 268
f 222 269 48
f 269 270 48
f 48 270 271
f 66 272 273
f 242 274 68
f 274 275 68
f 68 275 276
f 276 277 68
f 277 278 68
f 68 278 279
f 169 280 170
f 280 68 170
f 170 68 243
f 68 279 243
f 248 281 96
f 281 282 96
f 96 282 283
f 96 284 64
f 284 285 64
f 64 285 286
f 287 288 125
f 288 289 125
f 125 289 290
f 290 291 125
f 291 292 125
f 125 292 293
f 265 294 66
f 294 295 66
f 66 295 296
f 296 297 66
f 297 298 66
f 66 298 299
f 255 300 66
f 300 301 66
f 66 301 302
f 271 303 48
f 303 304 48
f 48 304 305
f 273 306 66
f 306 307 66
f 66 307 155
f 302 308 66
f 308 309 66
f 66 309 68
f 309 310 68
f 68 310 192
f 283 311 96
f 311 312 96
f 96 312 284
f 313 314 64
f 314 315 64
f 200 101 125
f 101 316 125
f 125 316 287
f 293 317 125
f 317 318 125
f 125 318 219
f 299 319 66
f 319 320 66
f 66 320 258
f 268 321 66
f 321 322 66
f 66 322 323
f 286 324 64
f 324 325 64
f 64 325 326
f 315 327 64
f 327 328 64
f 64 328 214
f 257 329 258
f 329 330 258
f 258 330 66
f 330 331 66
f 66 331 251
f 323 332 66
f 332 333 66
f 66 333 254
f 305 334 48
f 334 335 48
f 48 335 66
f 335 336 66
f 66 336 272
f 326 337 64
f 337 338 64
f 64 338 339
f 340 341 64
f 341 342 64
f 64 342 313
f 339 343 64
f 343 344 64
f 64 344 340
f 345 66 34
f 66 33 34
f 186 346 347
f 186 347 223
f 347 348 223
f 223 348 224
f 348 349 224
f 224 349 226
f 349 350 226
f 226 350 228
f 350 351 228
f 228 351 230
f 351 352 230
f 230 352 231
f 352 353 231
f 231 353 144
f 353 354 144
f 144 354 146
f 354 355 146
f 146 355 148
f 355 356 148
f 148 356 149
f 356 357 149
f 149 357 90
f 357 358 90
f 90 358 92
f 358 359 92
f 92 359 94
f 359 360 94
f 94 360 95
f 360 361 95
f 95 361 87
f 361 362 87
f 87 362 85
f 362 363 85
f 85 363 83
f 363 364 83
f 83 364 51
f 365 366 346
f 367 368 369
f 368 370 369
f 369 370 371
f 372 373 369
f 373 374 369
f 369 374 367
f 375 376 377
f 376 378 377
f 377 378 346
f 378 379 346
f 379 380 346
f 380 381 346
f 346 381 382
f 383 369 384
f 369 385 384
f 383 386 369
f 386 387 369
f 369 387 372
f 382 388 346
f 388 389 346
f 346 389 390
f 390 391 346
f 391 392 346
f 346 392 365
f 393 394 369
f 394 395 369
f 369 395 385
f 396 357 397
f 357 356 397
f 397 356 398
f 356 355 398
f 398 355 399
f 400 361 401
f 361 360 401
f 401 360 402
f 360 359 402
f 402 359 396
f 359 358 396
f 396 358 357
f 364 403 404
f 404 405 364
f 405 406 364
f 364 406 407
f 403 364 408
f 364 363 408
f 408 363 400
f 363 362 400
f 400 362 361
f 409 410 411
f 412 413 411
f 413 414 411
f 415 416 417
f 418 419 34
f 419 420 34
f 420 421 34
f 34 421 422
f 366 423 346
f 423 424 346
f 346 424 347
f 424 425 347
f 347 425 348
f 425 426 348
f 355 354 399
f 354 353 399
f 399 353 427
f 353 352 427
f 427 352 428
f 352 351 428
f 428 351 429
f 351 350 429
f 429 350 426
f 350 349 426
f 426 349 348
f 414 430 411
f 430 431 411
f 411 431 432
f 433 434 435
f 434 411 435
f 435 411 436
f 411 432 436
f 437 345 438
f 345 439 438
f 377 440 441
f 442 377 443
f 377 444 443
f 442 445 377
f 445 446 377
f 377 446 375
f 393 369 411
f 369 447 411
f 411 447 409
f 433 448 434
f 448 449 434
f 434 449 450
f 26 24 417
f 422 451 34
f 451 452 34
f 34 452 453
f 345 454 455
f 456 457 458
f 410 459 411
f 459 460 411
f 411 460 412
f 407 461 364
f 461 462 364
f 364 462 415
f 462 463 415
f 415 463 464
f 464 465 415
f 465 466 415
f 415 466 467
f 455 468 345
f 468 469 345
f 345 469 439
f 470 471 377
f 471 472 377
f 377 472 473
f 474 377 475
f 377 476 475
f 474 477 377
f 477 478 377
f 377 478 440
f 479 480 481
f 480 482 481
f 481 482 483
f 482 371 483
f 483 371 484
f 371 370 484
f 467 485 415
f 485 486 415
f 415 486 487
f 34 32 418
f 32 30 418
f 418 30 417
f 30 28 417
f 417 28 26
f 456 458 488
f 489 490 491
f 441 492 377
f 492 493 377
f 377 493 494
f 494 495 377
f 495 496 377
f 377 496 497
f 24 22 417
f 22 20 417
f 417 20 18
f 10 8 415
f 453 498 34
f 498 499 34
f 34 499 500
f 345 501 502
f 491 503 504
f 504 505 491
f 505 506 491
f 491 506 507
f 508 509 476
f 473 510 377
f 510 511 377
f 377 511 512
f 487 513 415
f 513 514 415
f 415 514 450
f 8 6 415
f 6 4 415
f 415 4 2
f 500 515 34
f 515 516 34
f 34 516 517
f 517 518 34
f 518 519 34
f 34 519 345
f 519 520 345
f 345 520 501
f 502 521 345
f 521 522 345
f 345 522 454
f 523 458 524
f 458 525 524
f 526 527 458
f 527 528 458
f 458 528 488
f 490 529 491
f 529 530 491
f 491 530 503
f 507 531 491
f 531 532 491
f 491 532 533
f 534 535 437
f 345 536 537
f 538 377 539
f 377 540 539
f 449 541 450
f 541 542 450
f 450 542 415
f 542 543 415
f 415 543 416
f 18 16 417
f 16 14 417
f 417 14 415
f 14 12 415
f 415 12 10
f 544 545 377
f 545 546 377
f 377 546 547
f 523 548 458
f 548 549 458
f 458 549 526
f 491 550 551
f 552 553 554
f 553 555 554
f 509 556 476
f 556 557 476
f 476 557 558
f 559 560 550
f 537 561 345
f 561 562 345
f 345 562 377
f 562 563 377
f 377 563 470
f 512 564 377
f 564 565 377
f 377 565 540
f 538 566 377
f 566 567 377
f 377 567 568
f 497 569 377
f 569 570 377
f 377 570 571
f 571 572 377
f 572 480 377
f 377 480 444
f 480 479 444
f 547 573 377
f 573 574 377
f 377 574 525
f 551 575 491
f 575 576 491
f 491 576 489
f 554 577 578
f 534 437 579
f 535 580 437
f 580 581 437
f 437 581 582
f 491 583 550
f 583 584 550
f 550 584 585
f 568 586 377
f 586 587 377
f 377 587 544
f 533 588 491
f 588 589 491
f 491 589 590
f 589 591 590
f 590 591 554
f 591 592 554
f 554 592 552
f 593 594 554
f 594 595 554
f 554 595 577
f 457 596 458
f 596 554 458
f 458 554 597
f 554 578 597
f 598 599 476
f 599 600 476
f 558 601 476
f 601 602 476
f 476 602 603
f 602 604 603
f 585 605 550
f 605 606 550
f 550 606 559
f 555 607 554
f 607 608 554
f 554 608 593
f 600 609 476
f 609 610 476
f 476 610 611
f 611 612 476
f 612 613 476
f 476 613 508
f 604 602 437
f 602 614 437
f 437 614 579
f 525 458 377
f 458 615 377
f 377 615 476
f 615 616 476
f 476 616 598
f 582 617 437
f 617 618 437
f 437 618 619
f 620 345 621
f 345 622 621
f 620 623 345
f 623 624 345
f 345 624 625
f 625 626 345
f 626 627 345
f 345 627 536
f 619 628 437
f 628 629 437
f 437 629 630
f 631 632 633
f 632 550 633
f 633 550 634
f 550 560 634
f 630 635 437
f 635 636 437
f 437 636 637
f 638 639 345
f 631 640 632
f 640 641 632
f 632 641 642
f 643 644 345
f 644 645 345
f 637 646 437
f 646 647 437
f 437 647 345
f 647 648 345
f 345 648 638
f 645 649 345
f 649 650 345
f 345 650 651
f 639 652 345
f 652 632 345
f 345 632 643
f 632 642 643
f 651 653 345
f 653 654 345
f 345 654 622
f 415 39 364
f 39 51 364
f 129 542 130
f 542 541 130
f 130 541 131
f 541 449 131
f 131 449 132
f 449 448 132
f 132 448 46
f 448 433 46
f 46 433 47
f 433 435 47
f 47 435 152
f 435 436 152
f 152 436 153
f 436 432 153
f 153 432 154
f 432 431 154
f 154 431 220
f 431 430 220
f 220 430 221
f 430 414 221
f 221 414 222
f 414 413 222
f 222 413 269
f 413 412 269
f 269 412 270
f 412 460 270
f 270 460 271
f 460 459 271
f 271 459 303
f 459 410 303
f 303 410 304
f 410 409 304
f 304 409 305
f 409 447 305
f 305 447 334
f 447 369 334
f 334 369 335
f 369 371 335
f 335 371 336
f 371 482 336
f 336 482 272
f 482 480 272
f 272 480 273
f 480 572 273
f 273 572 306
f 572 571 306
f 306 571 307
f 571 570 307
f 307 570 155
f 570 569 155
f 155 569 156
f 569 497 156
f 156 497 173
f 497 496 173
f 173 496 174
f 496 495 174
f 174 495 157
f 495 494 157
f 157 494 158
f 494 493 158
f 158 493 159
f 493 492 159
f 159 492 160
f 492 441 160
f 160 441 175
f 441 440 175
f 175 440 176
f 440 478 176
f 176 478 133
f 478 477 133
f 133 477 134
f 477 474 134
f 134 474 135
f 474 475 135
f 135 475 136
f 475 476 136
f 136 476 137
f 476 603 137
f 137 603 138
f 603 604 138
f 138 604 74
f 604 437 74
f 74 437 73
f 437 438 73
f 73 438 72
f 438 439 72
f 72 439 75
f 439 469 75
f 75 469 76
f 469 468 76
f 76 468 77
f 468 455 77
f 77 455 112
f 455 454 112
f 112 454 113
f 454 522 113
f 113 522 114
f 522 521 114
f 114 521 115
f 521 502 115
f 115 502 116
f 502 501 116
f 116 501 117
f 501 520 117
f 117 520 35
f 520 519 35
f 35 519 36
f 519 518 36
f 36 518 69
f 518 517 69
f 69 517 70
f 517 516 70
f 70 516 71
f 516 515 71
f 71 515 106
f 515 500 106
f 106 500 107
f 500 499 107
f 107 499 56
f 499 498 56
f 56 498 55
f 498 453 55
f 55 453 54
f 453 452 54
f 54 452 57
f 452 451 57
f 57 451 58
f 451 422 58
f 58 422 45
f 422 421 45
f 45 421 44
f 421 420 44
f 44 420 43
f 420 419 43
f 43 419 110
f 419 418 110
f 110 418 111
f 418 417 111
f 111 417 127
f 417 416 127
f 127 416 128
f 416 543 128
f 128 543 129
f 543 542 129
f 64 377 186
f 377 346 186
f 39 415 1
f 415 2 1
f 64 66 377
f 66 345 377
f 61 405 81
f 405 404 81
f 81 404 82
f 404 403 82
f 82 403 84
f 403 408 84
f 84 408 86
f 408 400 86
f 86 400 88
f 400 401 88
f 88 401 93
f 401 402 93
f 93 402 91
f 402 396 91
f 91 396 89
f 396 397 89
f 89 397 147
f 397 398 147
f 147 398 145
f 398 399 145
f 145 399 143
f 399 427 143
f 143 427 229
f 427 428 229
f 229 428 227
f 428 429 227
f 227 429 225
f 429 426 225
f 225 426 184
f 426 425 184
f 184 425 185
f 425 424 185
f 185 424 187
f 424 423 187
f 187 423 188
f 423 366 188
f 188 366 189
f 366 365 189
f 189 365 190
f 365 392 190
f 190 392 191
f 392 391 191
f 191 391 232
f 391 390 232
f 232 390 233
f 390 389 233
f 233 389 234
f 389 388 234
f 234 388 122
f 388 382 122
f 122 382 123
f 382 381 123
f 123 381 150
f 381 380 150
f 150 380 151
f 380 379 151
f 151 379 98
f 379 378 98
f 98 378 97
f 378 376 97
f 97 376 96
f 376 375 96
f 96 375 169
f 375 446 169
f 169 446 280
f 446 445 280
f 280 445 68
f 445 442 68
f 68 442 67
f 442 443 67
f 67 443 65
f 443 444 65
f 65 444 104
f 444 479 104
f 104 479 105
f 479 481 105
f 105 481 48
f 481 483 48
f 48 483 172
f 483 484 172
f 172 484 109
f 484 370 109
f 109 370 108
f 370 368 108
f 108 368 139
f 368 367 139
f 139 367 140
f 367 374 140
f 140 374 141
f 374 373 141
f 141 373 142
f 373 372 142
f 142 372 177
f 372 387 177
f 177 387 178
f 387 386 178
f 178 386 181
f 386 383 181
f 181 383 180
f 383 384 180
f 180 384 179
f 384 385 179
f 179 385 183
f 385 395 183
f 183 395 182
f 395 394 182
f 182 394 118
f 394 393 118
f 118 393 119
f 393 411 119
f 119 411 120
f 411 434 120
f 120 434 121
f 434 450 121
f 121 450 78
f 450 514 78
f 78 514 79
f 514 513 79
f 79 513 80
f 513 487 80
f 80 487 37
f 487 486 37
f 37 486 38
f 486 485 38
f 38 485 40
f 485 467 40
f 40 467 41
f 467 466 41
f 41 466 42
f 466 465 42
f 42 465 49
f 465 464 49
f 49 464 50
f 464 463 50
f 50 463 52
f 463 462 52
f 52 462 53
f 462 461 53
f 53 461 59
f 461 407 59
f 59 407 60
f 407 406 60
f 60 406 61
f 406 405 61
f 171 590 211
f 590 554 211
f 211 554 212
f 554 596 212
f 212 596 213
f 596 457 213
f 213 457 246
f 457 456 246
f 246 456 247
f 456 488 247
f 247 488 248
f 488 528 248
f 248 528 281
f 528 527 281
f 281 527 282
f 527 526 282
f 282 526 283
f 526 549 283
f 283 549 311
f 549 548 311
f 311 548 312
f 548 523 312
f 312 523 284
f 523 524 284
f 284 524 285
f 524 525 285
f 285 525 286
f 525 574 286
f 286 574 324
f 574 573 324
f 324 573 325
f 573 547 325
f 325 547 326
f 547 546 326
f 326 546 337
f 546 545 337
f 337 545 338
f 545 544 338
f 338 544 339
f 544 587 339
f 339 587 343
f 587 586 343
f 343 586 344
f 586 568 344
f 344 568 340
f 568 567 340
f 340 567 341
f 567 566 341
f 341 566 342
f 566 538 342
f 342 538 313
f 538 539 313
f 313 539 314
f 539 540 314
f 314 540 315
f 540 565 315
f 315 565 327
f 565 564 327
f 327 564 328
f 564 512 328
f 328 512 214
f 512 511 214
f 214 511 215
f 511 510 215
f 215 510 216
f 510 473 216
f 216 473 62
f 473 472 62
f 62 472 63
f 472 471 63
f 63 471 259
f 471 470 259
f 259 470 260
f 470 563 260
f 260 563 261
f 563 562 261
f 261 562 262
f 562 561 262
f 262 561 263
f 561 537 263
f 263 537 264
f 537 536 264
f 264 536 265
f 536 627 265
f 265 627 294
f 627 626 294
f 294 626 295
f 626 625 295
f 295 625 296
f 625 624 296
f 296 624 297
f 624 623 297
f 297 623 298
f 623 620 298
f 298 620 299
f 620 621 299
f 299 621 319
f 621 622 319
f 319 622 320
f 622 654 320
f 320 654 258
f 654 653 258
f 258 653 256
f 653 651 256
f 256 651 124
f 651 650 124
f 124 650 125
f 650 649 125
f 125 649 200
f 649 645 200
f 200 645 201
f 645 644 201
f 201 644 202
f 644 643 202
f 202 643 203
f 643 642 203
f 203 642 204
f 642 641 204
f 204 641 205
f 641 640 205
f 205 640 206
f 640 631 206
f 206 631 207
f 631 633 207
f 207 633 235
f 633 634 235
f 235 634 236
f 634 560 236
f 236 560 102
f 560 559 102
f 102 559 103
f 559 606 103
f 103 606 167
f 606 605 167
f 167 605 168
f 605 585 168
f 168 585 245
f 585 584 245
f 245 584 244
f 584 583 244
f 244 583 170
f 583 491 170
f 170 491 171
f 491 590 171
f 208 614 209
f 614 602 209
f 209 602 210
f 602 601 210
f 210 601 237
f 601 558 237
f 237 558 238
f 558 557 238
f 238 557 239
f 557 556 239
f 239 556 240
f 556 509 240
f 240 509 241
f 509 508 241
f 241 508 242
f 508 613 242
f 242 613 274
f 613 612 274
f 274 612 275
f 612 611 275
f 275 611 276
f 611 610 276
f 276 610 277
f 610 609 277
f 277 609 278
f 609 600 278
f 278 600 279
f 600 599 279
f 279 599 243
f 599 598 243
f 243 598 166
f 598 616 166
f 166 616 101
f 616 615 101
f 101 615 316
f 615 458 316
f 316 458 287
f 458 597 287
f 287 597 288
f 597 578 288
f 288 578 289
f 578 577 289
f 289 577 290
f 577 595 290
f 290 595 291
f 595 594 291
f 291 594 292
f 594 593 292
f 292 593 293
f 593 608 293
f 293 608 317
f 608 607 317
f 317 607 318
f 607 555 318
f 318 555 219
f 555 553 219
f 219 553 218
f 553 552 218
f 218 552 217
f 552 592 217
f 217 592 249
f 592 591 249
f 249 591 250
f 591 589 250
f 250 589 126
f 589 588 126
f 126 588 257
f 588 533 257
f 257 533 329
f 533 532 329
f 329 532 330
f 532 531 330
f 330 531 331
f 531 507 331
f 331 507 251
f 507 506 251
f 251 506 252
f 506 505 252
f 252 505 253
f 505 504 253
f 253 504 266
f 504 503 266
f 266 503 267
f 503 530 267
f 267 530 268
f 530 529 268
f 268 529 321
f 529 490 321
f 321 490 322
f 490 489 322
f 322 489 323
f 489 576 323
f 323 576 332
f 576 575 332
f 332 575 333
f 575 551 333
f 333 551 254
f 551 550 254
f 254 550 255
f 550 632 255
f 255 632 300
f 632 652 300
f 300 652 301
f 652 639 301
f 301 639 302
f 639 638 302
f 302 638 308
f 638 648 308
f 308 648 309
f 648 647 309
f 309 647 310
f 647 646 310
f 310 646 192
f 646 637 192
f 192 637 161
f 637 636 161
f 161 636 162
f 636 635 162
f 162 635 193
f 635 630 193
f 193 630 194
f 630 629 194
f 194 629 195
f 629 628 195
f 195 628 196
f 628 619 196
f 196 619 197
f 619 618 197
f 197 618 99
f 618 617 99
f 99 617 100
f 617 582 100
f 100 582 198
f 582 581 198
f 198 581 199
f 581 580 199
f 199 580 165
f 580 535 165
f 165 535 164
f 535 534 164
f 164 534 163
f 534 579 163
f 163 579 208
f 579 614 208

