# https://github.com/mikedh/trimesh
v -0.29387975 0.05907107 0.00490000
v -0.29387975 0.06207107 0.00490000
v -0.29345644 0.05907107 0.00520725
v -0.29345644 0.06207107 0.00520725
v -0.29300892 0.05907107 0.00547803
v -0.29300892 0.06207107 0.00547803
v -0.29254034 0.05907107 0.00571044
v -0.29254034 0.06207107 0.00571044
v -0.29205397 0.05907107 0.00590286
v -0.29205397 0.06207107 0.00590286
v -0.29155320 0.05907107 0.00605393
v -0.29155320 0.06207107 0.00605393
v -0.29104155 0.05907107 0.00616260
v -0.29104155 0.06207107 0.00616260
v -0.29052261 0.05907107 0.00622811
v -0.29052261 0.06207107 0.00622811
v -0.28999999 0.05907107 0.00625000
v -0.28999999 0.06207107 0.00625000
v -0.28947741 0.05907107 0.00622811
v -0.28947741 0.06207107 0.00622811
v -0.28895846 0.05907107 0.00616260
v -0.28895846 0.06207107 0.00616260
v -0.28844681 0.05907107 0.00605393
v -0.28844681 0.06207107 0.00605393
v -0.28794605 0.05907107 0.00590286
v -0.28794605 0.06207107 0.00590286
v -0.28745967 0.05907107 0.00571044
v -0.28745967 0.06207107 0.00571044
v -0.28699106 0.05907107 0.00547803
v -0.28699106 0.06207107 0.00547803
v -0.28654355 0.05907107 0.00520725
v -0.28654355 0.06207107 0.00520725
v -0.28612024 0.05907107 0.00490000
v -0.28612024 0.06207107 0.00490000
v -0.29352775 0.06207107 0.02129030
v -0.29374999 0.06207107 0.02130000
v -0.29490000 0.06207107 0.02500000
v -0.27102774 0.06207107 0.01369030
v -0.27125001 0.06207107 0.01370000
v -0.29166117 0.06207107 0.01728738
v -0.29614621 0.06207107 0.01962215
v -0.29972962 0.06207107 0.02129409
v -0.29606110 0.06207107 0.01982768
v -0.29959846 0.06207107 0.02171010
v -0.29595837 0.06207107 0.02002500
v -0.29943153 0.06207107 0.02211309
v -0.29583883 0.06207107 0.02021262
v -0.29990000 0.06207107 0.02000000
v -0.29626125 0.06207107 0.01919280
v -0.29629031 0.06207107 0.01897225
v -0.29629999 0.06207107 0.01875000
v -0.29629031 0.06207107 0.01852775
v -0.29626125 0.06207107 0.01830720
v -0.27252501 0.06207107 0.01335836
v -0.27271262 0.06207107 0.01323884
v -0.29397225 0.06207107 0.01620970
v -0.27288911 0.06207107 0.01310341
v -0.29990000 0.06207107 0.00490000
v -0.27376127 0.06207107 0.01070720
v -0.27371311 0.06207107 0.01049001
v -0.27364621 0.06207107 0.01027785
v -0.27356109 0.06207107 0.01007232
v -0.29923013 0.06207107 0.02250000
v -0.29899576 0.06207107 0.02286788
v -0.29570341 0.06207107 0.02038911
v -0.29873022 0.06207107 0.02321394
v -0.29555312 0.06207107 0.02055312
v -0.29843554 0.06207107 0.02353553
v -0.29538912 0.06207107 0.02070341
v -0.29621312 0.06207107 0.01940999
v -0.29988098 0.06207107 0.02043578
v -0.29982403 0.06207107 0.02086824
v -0.27305311 0.06207107 0.01295312
v -0.27320340 0.06207107 0.01278911
v -0.27333882 0.06207107 0.01261262
v -0.27364621 0.06207107 0.01202215
v -0.29419279 0.06207107 0.01623874
v -0.27356109 0.06207107 0.01222768
v -0.27345836 0.06207107 0.01242500
v -0.29352775 0.06207107 0.01620970
v -0.29330719 0.06207107 0.01623874
v -0.29211089 0.06207107 0.01679659
v -0.29194689 0.06207107 0.01694688
v -0.29179659 0.06207107 0.01711089
v -0.27190998 0.06207107 0.01361311
v -0.27169281 0.06207107 0.01366126
v -0.27147225 0.06207107 0.01369030
v -0.27371311 0.06207107 0.01180999
v -0.27376127 0.06207107 0.01159280
v -0.29440999 0.06207107 0.01628689
v -0.29309002 0.06207107 0.01628689
v -0.29287785 0.06207107 0.01635378
v -0.29267234 0.06207107 0.01643891
v -0.29247499 0.06207107 0.01654164
v -0.29228738 0.06207107 0.01666116
v -0.27345836 0.06207107 0.00987500
v -0.27333882 0.06207107 0.00968738
v -0.27320340 0.06207107 0.00951089
v -0.29154164 0.06207107 0.01747500
v -0.29143891 0.06207107 0.01767232
v -0.27080721 0.06207107 0.01366126
v -0.29135379 0.06207107 0.01787785
v -0.29143891 0.06207107 0.01982768
v -0.29154164 0.06207107 0.02002500
v -0.08010000 0.06207107 0.02500000
v -0.29166117 0.06207107 0.02021262
v -0.29179659 0.06207107 0.02038911
v -0.29194689 0.06207107 0.02055312
v -0.29211089 0.06207107 0.02070341
v -0.29228738 0.06207107 0.02083884
v -0.29397225 0.06207107 0.02129030
v -0.29419279 0.06207107 0.02126126
v -0.29533577 0.06207107 0.02498097
v -0.29440999 0.06207107 0.02121311
v -0.29576823 0.06207107 0.02492404
v -0.29462215 0.06207107 0.02114622
v -0.29811394 0.06207107 0.02383022
v -0.29776788 0.06207107 0.02409576
v -0.29521263 0.06207107 0.02083884
v -0.29740000 0.06207107 0.02433013
v -0.29502499 0.06207107 0.02095836
v -0.29701310 0.06207107 0.02453154
v -0.29482767 0.06207107 0.02106109
v -0.29661009 0.06207107 0.02469846
v -0.29619411 0.06207107 0.02482963
v -0.27212214 0.06207107 0.01354622
v -0.27232769 0.06207107 0.01346109
v -0.29621312 0.06207107 0.01809001
v -0.29614621 0.06207107 0.01787785
v -0.29606110 0.06207107 0.01767232
v -0.29595837 0.06207107 0.01747500
v -0.29583883 0.06207107 0.01728738
v -0.29570341 0.06207107 0.01711089
v -0.29555312 0.06207107 0.01694688
v -0.29374999 0.06207107 0.01620000
v -0.26893893 0.06207107 0.01007232
v -0.08010000 0.06207107 0.00490000
v -0.26904163 0.06207107 0.00987500
v -0.26916116 0.06207107 0.00968738
v -0.26878688 0.06207107 0.01180999
v -0.26885378 0.06207107 0.01202215
v -0.29247499 0.06207107 0.02095836
v -0.29267234 0.06207107 0.02106109
v -0.29287785 0.06207107 0.02114622
v -0.29309002 0.06207107 0.02121311
v -0.29330719 0.06207107 0.02126126
v -0.29538912 0.06207107 0.01679659
v -0.29521263 0.06207107 0.01666116
v -0.29502499 0.06207107 0.01654164
v -0.27305311 0.06207107 0.00934688
v -0.27288911 0.06207107 0.00919659
v -0.27271262 0.06207107 0.00906116
v -0.26978737 0.06207107 0.00906116
v -0.26961088 0.06207107 0.00919659
v -0.29120970 0.06207107 0.01852775
v -0.27059001 0.06207107 0.01361311
v -0.29123875 0.06207107 0.01830720
v -0.29128689 0.06207107 0.01809001
v -0.29123875 0.06207107 0.01919280
v -0.29120970 0.06207107 0.01897225
v -0.29120001 0.06207107 0.01875000
v -0.29128689 0.06207107 0.01940999
v -0.29135379 0.06207107 0.01962215
v -0.26944688 0.06207107 0.00934688
v -0.26929659 0.06207107 0.00951089
v -0.26870000 0.06207107 0.01115000
v -0.26870969 0.06207107 0.01092775
v -0.26873875 0.06207107 0.01070720
v -0.26870969 0.06207107 0.01137225
v -0.26873875 0.06207107 0.01159280
v -0.29482767 0.06207107 0.01643891
v -0.29462215 0.06207107 0.01635378
v -0.11055312 0.06207107 0.01295312
v -0.11070342 0.06207107 0.01278911
v -0.11083884 0.06207107 0.01261262
v -0.11095837 0.06207107 0.01242500
v -0.11106108 0.06207107 0.01222768
v -0.11114622 0.06207107 0.01202215
v -0.11121311 0.06207107 0.01180999
v -0.08833884 0.06207107 0.02021262
v -0.08845837 0.06207107 0.02002500
v -0.10875000 0.06207107 0.01370000
v -0.08370000 0.06207107 0.01875000
v -0.08370970 0.06207107 0.01897225
v -0.08373874 0.06207107 0.01919280
v -0.27379030 0.06207107 0.01137225
v -0.27379999 0.06207107 0.01115000
v -0.27379030 0.06207107 0.01092775
v -0.27252501 0.06207107 0.00894164
v -0.27232769 0.06207107 0.00883892
v -0.27212214 0.06207107 0.00875378
v -0.27059001 0.06207107 0.00868689
v -0.27037784 0.06207107 0.00875378
v -0.10919280 0.06207107 0.01366126
v -0.10940999 0.06207107 0.01361311
v -0.26893893 0.06207107 0.01222768
v -0.26904163 0.06207107 0.01242500
v -0.26916116 0.06207107 0.01261262
v -0.26929659 0.06207107 0.01278911
v -0.26944688 0.06207107 0.01295312
v -0.26961088 0.06207107 0.01310341
v -0.27190998 0.06207107 0.00868689
v -0.27169281 0.06207107 0.00863874
v -0.27147225 0.06207107 0.00860970
v -0.27125001 0.06207107 0.00860000
v -0.27102774 0.06207107 0.00860970
v -0.27080721 0.06207107 0.00863874
v -0.27017233 0.06207107 0.00883892
v -0.26997501 0.06207107 0.00894164
v -0.10962215 0.06207107 0.01354622
v -0.10982767 0.06207107 0.01346109
v -0.11002500 0.06207107 0.01335836
v -0.08856109 0.06207107 0.01982768
v -0.08864622 0.06207107 0.01962215
v -0.08871311 0.06207107 0.01940999
v -0.08879030 0.06207107 0.01852775
v -0.10643891 0.06207107 0.01007232
v -0.10635378 0.06207107 0.01027785
v -0.10628689 0.06207107 0.01049001
v -0.10623874 0.06207107 0.01070720
v -0.10620970 0.06207107 0.01092775
v -0.10620000 0.06207107 0.01115000
v -0.10620970 0.06207107 0.01137225
v -0.10623874 0.06207107 0.01159280
v -0.11126126 0.06207107 0.01070720
v -0.11121311 0.06207107 0.01049001
v -0.08393891 0.06207107 0.01767232
v -0.08385378 0.06207107 0.01787785
v -0.08378689 0.06207107 0.01940999
v -0.08385378 0.06207107 0.01962215
v -0.08393891 0.06207107 0.01982768
v -0.08404163 0.06207107 0.02002500
v -0.08416116 0.06207107 0.02021262
v -0.08429658 0.06207107 0.02038911
v -0.11021262 0.06207107 0.01323884
v -0.11038911 0.06207107 0.01310341
v -0.08602776 0.06207107 0.02129030
v -0.08625000 0.06207107 0.02130000
v -0.08647225 0.06207107 0.02129030
v -0.08669280 0.06207107 0.02126126
v -0.08771262 0.06207107 0.02083884
v -0.08788911 0.06207107 0.02070341
v -0.10679659 0.06207107 0.00951089
v -0.10666116 0.06207107 0.00968738
v -0.10654163 0.06207107 0.00987500
v -0.10679659 0.06207107 0.01278911
v -0.10694688 0.06207107 0.01295312
v -0.08879030 0.06207107 0.01897225
v -0.08833884 0.06207107 0.01728738
v -0.08820342 0.06207107 0.01711089
v -0.10767233 0.06207107 0.00883892
v -0.08378689 0.06207107 0.01809001
v -0.08373874 0.06207107 0.01830720
v -0.08370970 0.06207107 0.01852775
v -0.26978737 0.06207107 0.01323884
v -0.26997501 0.06207107 0.01335836
v -0.27017233 0.06207107 0.01346109
v -0.27037784 0.06207107 0.01354622
v -0.08690999 0.06207107 0.02121311
v -0.08712215 0.06207107 0.02114622
v -0.08732767 0.06207107 0.02106109
v -0.08752500 0.06207107 0.02095836
v -0.08805312 0.06207107 0.02055312
v -0.08820342 0.06207107 0.02038911
v -0.10728738 0.06207107 0.00906116
v -0.10747500 0.06207107 0.00894164
v -0.10711090 0.06207107 0.00919659
v -0.10694688 0.06207107 0.00934688
v -0.10666116 0.06207107 0.01261262
v -0.11129030 0.06207107 0.01092775
v -0.11114622 0.06207107 0.01027785
v -0.11106108 0.06207107 0.01007232
v -0.11095837 0.06207107 0.00987500
v -0.08876126 0.06207107 0.01830720
v -0.08871311 0.06207107 0.01809001
v -0.08864622 0.06207107 0.01787785
v -0.08444688 0.06207107 0.02055312
v -0.08461089 0.06207107 0.02070341
v -0.08478738 0.06207107 0.02083884
v -0.10897224 0.06207107 0.01369030
v -0.11126126 0.06207107 0.01159280
v -0.11129030 0.06207107 0.01137225
v -0.26878688 0.06207107 0.01049001
v -0.26885378 0.06207107 0.01027785
v -0.08856109 0.06207107 0.01767232
v -0.08845837 0.06207107 0.01747500
v -0.08497500 0.06207107 0.02095836
v -0.08517233 0.06207107 0.02106109
v -0.08537785 0.06207107 0.02114622
v -0.10628689 0.06207107 0.01180999
v -0.10635378 0.06207107 0.01202215
v -0.08880000 0.06207107 0.01875000
v -0.10643891 0.06207107 0.01222768
v -0.10654163 0.06207107 0.01242500
v -0.10711090 0.06207107 0.01310341
v -0.10728738 0.06207107 0.01323884
v -0.10747500 0.06207107 0.01335836
v -0.10809001 0.06207107 0.01361311
v -0.10830720 0.06207107 0.01366126
v -0.11130000 0.06207107 0.01115000
v -0.08559001 0.06207107 0.02121311
v -0.08580720 0.06207107 0.02126126
v -0.10767233 0.06207107 0.01346109
v -0.10787785 0.06207107 0.01354622
v -0.08876126 0.06207107 0.01919280
v -0.10852775 0.06207107 0.01369030
v -0.11083884 0.06207107 0.00968738
v -0.11070342 0.06207107 0.00951089
v -0.11055312 0.06207107 0.00934688
v -0.08478738 0.06207107 0.01666116
v -0.08497500 0.06207107 0.01654164
v -0.08517233 0.06207107 0.01643891
v -0.08461089 0.06207107 0.01679659
v -0.08444688 0.06207107 0.01694688
v -0.08429658 0.06207107 0.01711089
v -0.08416116 0.06207107 0.01728738
v -0.08404163 0.06207107 0.01747500
v -0.11038911 0.06207107 0.00919659
v -0.11021262 0.06207107 0.00906116
v -0.11002500 0.06207107 0.00894164
v -0.08771262 0.06207107 0.01666116
v -0.10787785 0.06207107 0.00875378
v -0.08788911 0.06207107 0.01679659
v -0.08805312 0.06207107 0.01694688
v -0.10982767 0.06207107 0.00883892
v -0.10962215 0.06207107 0.00875378
v -0.10940999 0.06207107 0.00868689
v -0.10852775 0.06207107 0.00860970
v -0.10830720 0.06207107 0.00863874
v -0.08752500 0.06207107 0.01654164
v -0.08732767 0.06207107 0.01643891
v -0.08712215 0.06207107 0.01635378
v -0.08690999 0.06207107 0.01628689
v -0.08669280 0.06207107 0.01623874
v -0.08647225 0.06207107 0.01620970
v -0.10919280 0.06207107 0.00863874
v -0.10897224 0.06207107 0.00860970
v -0.10875000 0.06207107 0.00860000
v -0.08625000 0.06207107 0.01620000
v -0.08602776 0.06207107 0.01620970
v -0.08580720 0.06207107 0.01623874
v -0.10809001 0.06207107 0.00868689
v -0.08559001 0.06207107 0.01628689
v -0.08537785 0.06207107 0.01635378
v -0.08010000 0.05907107 0.00490000
v -0.29490000 0.05907107 0.02500000
v -0.29533577 0.05907107 0.02498097
v -0.29576823 0.05907107 0.02492404
v -0.29619411 0.05907107 0.02482963
v -0.29661009 0.05907107 0.02469846
v -0.29701310 0.05907107 0.02453154
v -0.29740000 0.05907107 0.02433013
v -0.29776788 0.05907107 0.02409576
v -0.29811394 0.05907107 0.02383022
v -0.29843554 0.05907107 0.02353553
v -0.29873022 0.05907107 0.02321394
v -0.29899576 0.05907107 0.02286788
v -0.29923013 0.05907107 0.02250000
v -0.29943153 0.05907107 0.02211309
v -0.29959846 0.05907107 0.02171010
v -0.29972962 0.05907107 0.02129409
v -0.29982403 0.05907107 0.02086824
v -0.29988098 0.05907107 0.02043578
v -0.29990000 0.05907107 0.02000000
v -0.29521263 0.05907107 0.01666116
v -0.29538912 0.05907107 0.01679659
v -0.29990000 0.05907107 0.00490000
v -0.29555312 0.05907107 0.01694688
v -0.29570341 0.05907107 0.01711089
v -0.29583883 0.05907107 0.01728738
v -0.29595837 0.05907107 0.01747500
v -0.29606110 0.05907107 0.01767232
v -0.29614621 0.05907107 0.01787785
v -0.29621312 0.05907107 0.01809001
v -0.29154164 0.05907107 0.01747500
v -0.29166117 0.05907107 0.01728738
v -0.27232769 0.05907107 0.00883892
v -0.29626125 0.05907107 0.01830720
v -0.29629031 0.05907107 0.01852775
v -0.29629999 0.05907107 0.01875000
v -0.29570341 0.05907107 0.02038911
v -0.29583883 0.05907107 0.02021262
v -0.29595837 0.05907107 0.02002500
v -0.29606110 0.05907107 0.01982768
v -0.29143891 0.05907107 0.01982768
v -0.08010000 0.05907107 0.02500000
v -0.29154164 0.05907107 0.02002500
v -0.29166117 0.05907107 0.02021262
v -0.29629031 0.05907107 0.01897225
v -0.29626125 0.05907107 0.01919280
v -0.29621312 0.05907107 0.01940999
v -0.29614621 0.05907107 0.01962215
v -0.29228738 0.05907107 0.02083884
v -0.29211089 0.05907107 0.02070341
v -0.27102774 0.05907107 0.00860970
v -0.27125001 0.05907107 0.00860000
v -0.27147225 0.05907107 0.00860970
v -0.27169281 0.05907107 0.00863874
v -0.29462215 0.05907107 0.01635378
v -0.29482767 0.05907107 0.01643891
v -0.29502499 0.05907107 0.01654164
v -0.29521263 0.05907107 0.02083884
v -0.29538912 0.05907107 0.02070341
v -0.29555312 0.05907107 0.02055312
v -0.29194689 0.05907107 0.02055312
v -0.29179659 0.05907107 0.02038911
v -0.29128689 0.05907107 0.01940999
v -0.29123875 0.05907107 0.01919280
v -0.27356109 0.05907107 0.01007232
v -0.29120970 0.05907107 0.01897225
v -0.29120001 0.05907107 0.01875000
v -0.29120970 0.05907107 0.01852775
v -0.29123875 0.05907107 0.01830720
v -0.27364621 0.05907107 0.01027785
v -0.29135379 0.05907107 0.01962215
v -0.29374999 0.05907107 0.01620000
v -0.29397225 0.05907107 0.01620970
v -0.29419279 0.05907107 0.01623874
v -0.29440999 0.05907107 0.01628689
v -0.27271262 0.05907107 0.00906116
v -0.27288911 0.05907107 0.00919659
v -0.29143891 0.05907107 0.01767232
v -0.27305311 0.05907107 0.00934688
v -0.27320340 0.05907107 0.00951089
v -0.26878688 0.05907107 0.01049001
v -0.26885378 0.05907107 0.01027785
v -0.26893893 0.05907107 0.01007232
v -0.26904163 0.05907107 0.00987500
v -0.26916116 0.05907107 0.00968738
v -0.26929659 0.05907107 0.00951089
v -0.26944688 0.05907107 0.00934688
v -0.26961088 0.05907107 0.00919659
v -0.29440999 0.05907107 0.02121311
v -0.29419279 0.05907107 0.02126126
v -0.29397225 0.05907107 0.02129030
v -0.29374999 0.05907107 0.02130000
v -0.29352775 0.05907107 0.02129030
v -0.29330719 0.05907107 0.02126126
v -0.29309002 0.05907107 0.02121311
v -0.27252501 0.05907107 0.00894164
v -0.29128689 0.05907107 0.01809001
v -0.29135379 0.05907107 0.01787785
v -0.27345836 0.05907107 0.00987500
v -0.27333882 0.05907107 0.00968738
v -0.27371311 0.05907107 0.01049001
v -0.27376127 0.05907107 0.01070720
v -0.27379030 0.05907107 0.01092775
v -0.27379999 0.05907107 0.01115000
v -0.27379030 0.05907107 0.01137225
v -0.27376127 0.05907107 0.01159280
v -0.27371311 0.05907107 0.01180999
v -0.27364621 0.05907107 0.01202215
v -0.27356109 0.05907107 0.01222768
v -0.27345836 0.05907107 0.01242500
v -0.27333882 0.05907107 0.01261262
v -0.27320340 0.05907107 0.01278911
v -0.26870969 0.05907107 0.01137225
v -0.26870000 0.05907107 0.01115000
v -0.26978737 0.05907107 0.00906116
v -0.26997501 0.05907107 0.00894164
v -0.27017233 0.05907107 0.00883892
v -0.27037784 0.05907107 0.00875378
v -0.27059001 0.05907107 0.00868689
v -0.27080721 0.05907107 0.00863874
v -0.29247499 0.05907107 0.01654164
v -0.29228738 0.05907107 0.01666116
v -0.29309002 0.05907107 0.01628689
v -0.29287785 0.05907107 0.01635378
v -0.29267234 0.05907107 0.01643891
v -0.29352775 0.05907107 0.01620970
v -0.29330719 0.05907107 0.01623874
v -0.29462215 0.05907107 0.02114622
v -0.29482767 0.05907107 0.02106109
v -0.29502499 0.05907107 0.02095836
v -0.29287785 0.05907107 0.02114622
v -0.29267234 0.05907107 0.02106109
v -0.29247499 0.05907107 0.02095836
v -0.26978737 0.05907107 0.01323884
v -0.26961088 0.05907107 0.01310341
v -0.26893893 0.05907107 0.01222768
v -0.26904163 0.05907107 0.01242500
v -0.26916116 0.05907107 0.01261262
v -0.26870969 0.05907107 0.01092775
v -0.26873875 0.05907107 0.01070720
v -0.27190998 0.05907107 0.00868689
v -0.27212214 0.05907107 0.00875378
v -0.26944688 0.05907107 0.01295312
v -0.26929659 0.05907107 0.01278911
v -0.10897224 0.05907107 0.01369030
v -0.08833884 0.05907107 0.01728738
v -0.08845837 0.05907107 0.01747500
v -0.29179659 0.05907107 0.01711089
v -0.29194689 0.05907107 0.01694688
v -0.29211089 0.05907107 0.01679659
v -0.27305311 0.05907107 0.01295312
v -0.27288911 0.05907107 0.01310341
v -0.27271262 0.05907107 0.01323884
v -0.11114622 0.05907107 0.01027785
v -0.11121311 0.05907107 0.01049001
v -0.11126126 0.05907107 0.01070720
v -0.26885378 0.05907107 0.01202215
v -0.26878688 0.05907107 0.01180999
v -0.11095837 0.05907107 0.00987500
v -0.26873875 0.05907107 0.01159280
v -0.11083884 0.05907107 0.00968738
v -0.27252501 0.05907107 0.01335836
v -0.27232769 0.05907107 0.01346109
v -0.27212214 0.05907107 0.01354622
v -0.27059001 0.05907107 0.01361311
v -0.27037784 0.05907107 0.01354622
v -0.10982767 0.05907107 0.00883892
v -0.11002500 0.05907107 0.00894164
v -0.11021262 0.05907107 0.00906116
v -0.11038911 0.05907107 0.00919659
v -0.11055312 0.05907107 0.00934688
v -0.11070342 0.05907107 0.00951089
v -0.11129030 0.05907107 0.01092775
v -0.11130000 0.05907107 0.01115000
v -0.11129030 0.05907107 0.01137225
v -0.11126126 0.05907107 0.01159280
v -0.11121311 0.05907107 0.01180999
v -0.11114622 0.05907107 0.01202215
v -0.08879030 0.05907107 0.01897225
v -0.08880000 0.05907107 0.01875000
v -0.08879030 0.05907107 0.01852775
v -0.08370970 0.05907107 0.01897225
v -0.08373874 0.05907107 0.01919280
v -0.08378689 0.05907107 0.01940999
v -0.27190998 0.05907107 0.01361311
v -0.27169281 0.05907107 0.01366126
v -0.27147225 0.05907107 0.01369030
v -0.27017233 0.05907107 0.01346109
v -0.26997501 0.05907107 0.01335836
v -0.10919280 0.05907107 0.00863874
v -0.10940999 0.05907107 0.00868689
v -0.10962215 0.05907107 0.00875378
v -0.11106108 0.05907107 0.01007232
v -0.08647225 0.05907107 0.01620970
v -0.08669280 0.05907107 0.01623874
v -0.08690999 0.05907107 0.01628689
v -0.08712215 0.05907107 0.01635378
v -0.08732767 0.05907107 0.01643891
v -0.08752500 0.05907107 0.01654164
v -0.08771262 0.05907107 0.01666116
v -0.08788911 0.05907107 0.01679659
v -0.10919280 0.05907107 0.01366126
v -0.08856109 0.05907107 0.01767232
v -0.08864622 0.05907107 0.01787785
v -0.08876126 0.05907107 0.01919280
v -0.08871311 0.05907107 0.01940999
v -0.08864622 0.05907107 0.01962215
v -0.08416116 0.05907107 0.02021262
v -0.08404163 0.05907107 0.02002500
v -0.08805312 0.05907107 0.01694688
v -0.08820342 0.05907107 0.01711089
v -0.08871311 0.05907107 0.01809001
v -0.08876126 0.05907107 0.01830720
v -0.10940999 0.05907107 0.01361311
v -0.10643891 0.05907107 0.01222768
v -0.10635378 0.05907107 0.01202215
v -0.08625000 0.05907107 0.01620000
v -0.10628689 0.05907107 0.01180999
v -0.08602776 0.05907107 0.01620970
v -0.27125001 0.05907107 0.01370000
v -0.27102774 0.05907107 0.01369030
v -0.27080721 0.05907107 0.01366126
v -0.10897224 0.05907107 0.00860970
v -0.11106108 0.05907107 0.01222768
v -0.11095837 0.05907107 0.01242500
v -0.11083884 0.05907107 0.01261262
v -0.11070342 0.05907107 0.01278911
v -0.11055312 0.05907107 0.01295312
v -0.11038911 0.05907107 0.01310341
v -0.08856109 0.05907107 0.01982768
v -0.08845837 0.05907107 0.02002500
v -0.08833884 0.05907107 0.02021262
v -0.08393891 0.05907107 0.01982768
v -0.08385378 0.05907107 0.01962215
v -0.08580720 0.05907107 0.01623874
v -0.10623874 0.05907107 0.01159280
v -0.08559001 0.05907107 0.01628689
v -0.10623874 0.05907107 0.01070720
v -0.10628689 0.05907107 0.01049001
v -0.10635378 0.05907107 0.01027785
v -0.10643891 0.05907107 0.01007232
v -0.08820342 0.05907107 0.02038911
v -0.08805312 0.05907107 0.02055312
v -0.08788911 0.05907107 0.02070341
v -0.10679659 0.05907107 0.01278911
v -0.10666116 0.05907107 0.01261262
v -0.10654163 0.05907107 0.01242500
v -0.08370000 0.05907107 0.01875000
v -0.08370970 0.05907107 0.01852775
v -0.08373874 0.05907107 0.01830720
v -0.08378689 0.05907107 0.01809001
v -0.08385378 0.05907107 0.01787785
v -0.08393891 0.05907107 0.01767232
v -0.08404163 0.05907107 0.01747500
v -0.10654163 0.05907107 0.00987500
v -0.10666116 0.05907107 0.00968738
v -0.10679659 0.05907107 0.00951089
v -0.11021262 0.05907107 0.01323884
v -0.11002500 0.05907107 0.01335836
v -0.10982767 0.05907107 0.01346109
v -0.10962215 0.05907107 0.01354622
v -0.08461089 0.05907107 0.02070341
v -0.08444688 0.05907107 0.02055312
v -0.08429658 0.05907107 0.02038911
v -0.10728738 0.05907107 0.01323884
v -0.10711090 0.05907107 0.01310341
v -0.10694688 0.05907107 0.01295312
v -0.08416116 0.05907107 0.01728738
v -0.08429658 0.05907107 0.01711089
v -0.08444688 0.05907107 0.01694688
v -0.08461089 0.05907107 0.01679659
v -0.08478738 0.05907107 0.01666116
v -0.08497500 0.05907107 0.01654164
v -0.10830720 0.05907107 0.00863874
v -0.10809001 0.05907107 0.00868689
v -0.10787785 0.05907107 0.00875378
v -0.10852775 0.05907107 0.00860970
v -0.10875000 0.05907107 0.00860000
v -0.10852775 0.05907107 0.01369030
v -0.10830720 0.05907107 0.01366126
v -0.10809001 0.05907107 0.01361311
v -0.10787785 0.05907107 0.01354622
v -0.10767233 0.05907107 0.01346109
v -0.10747500 0.05907107 0.01335836
v -0.08517233 0.05907107 0.01643891
v -0.08537785 0.05907107 0.01635378
v -0.08771262 0.05907107 0.02083884
v -0.08752500 0.05907107 0.02095836
v -0.08732767 0.05907107 0.02106109
v -0.08712215 0.05907107 0.02114622
v -0.08690999 0.05907107 0.02121311
v -0.08669280 0.05907107 0.02126126
v -0.08647225 0.05907107 0.02129030
v -0.10875000 0.05907107 0.01370000
v -0.10620970 0.05907107 0.01137225
v -0.10620000 0.05907107 0.01115000
v -0.10620970 0.05907107 0.01092775
v -0.10694688 0.05907107 0.00934688
v -0.10711090 0.05907107 0.00919659
v -0.10728738 0.05907107 0.00906116
v -0.10747500 0.05907107 0.00894164
v -0.10767233 0.05907107 0.00883892
v -0.08625000 0.05907107 0.02130000
v -0.08602776 0.05907107 0.02129030
v -0.08580720 0.05907107 0.02126126
v -0.08517233 0.05907107 0.02106109
v -0.08497500 0.05907107 0.02095836
v -0.08478738 0.05907107 0.02083884
v -0.08559001 0.05907107 0.02121311
v -0.08537785 0.05907107 0.02114622
f 1 2 3
f 2 4 3
f 3 4 5
f 4 6 5
f 5 6 7
f 6 8 7
f 7 8 9
f 8 10 9
f 9 10 11
f 10 12 11
f 11 12 13
f 12 14 13
f 13 14 15
f 14 16 15
f 15 16 17
f 16 18 17
f 17 18 19
f 18 20 19
f 19 20 21
f 20 22 21
f 21 22 23
f 22 24 23
f 23 24 25
f 24 26 25
f 25 26 27
f 26 28 27
f 27 28 29
f 28 30 29
f 29 30 31
f 30 32 31
f 31 32 33
f 32 34 33
f 35 36 37
f 38 39 40
f 41 42 43
f 42 44 43
f 43 44 45
f 44 46 45
f 45 46 47
f 48 49 50
f 50 51 48
f 51 52 48
f 48 52 53
f 54 55 56
f 55 57 56
f 58 59 60
f 61 62 34
f 46 63 47
f 63 64 47
f 47 64 65
f 64 66 65
f 65 66 67
f 66 68 67
f 67 68 69
f 49 48 70
f 48 71 70
f 70 71 41
f 71 72 41
f 41 72 42
f 57 73 56
f 73 74 56
f 56 74 75
f 76 77 78
f 77 56 78
f 78 56 79
f 56 75 79
f 80 81 39
f 82 83 39
f 83 84 39
f 39 84 40
f 85 56 86
f 56 87 86
f 76 88 77
f 88 89 77
f 77 89 90
f 26 24 60
f 81 91 39
f 91 92 39
f 39 92 93
f 93 94 39
f 94 95 39
f 39 95 82
f 62 96 34
f 96 97 34
f 34 97 98
f 40 99 38
f 99 100 38
f 38 100 101
f 100 102 101
f 103 104 105
f 104 106 105
f 105 106 37
f 106 107 37
f 107 108 37
f 108 109 37
f 37 109 110
f 36 111 37
f 111 112 37
f 37 112 113
f 112 114 113
f 113 114 115
f 114 116 115
f 68 117 69
f 117 118 69
f 69 118 119
f 118 120 119
f 119 120 121
f 120 122 121
f 121 122 123
f 122 124 123
f 123 124 116
f 124 125 116
f 116 125 115
f 85 126 56
f 126 127 56
f 56 127 54
f 53 128 48
f 128 129 48
f 48 129 58
f 129 130 58
f 58 130 131
f 131 132 58
f 132 133 58
f 58 133 134
f 87 56 39
f 56 135 39
f 39 135 80
f 136 137 138
f 137 139 138
f 105 140 141
f 110 142 37
f 142 143 37
f 37 143 144
f 144 145 37
f 145 146 37
f 37 146 35
f 134 147 58
f 147 148 58
f 58 148 149
f 34 32 61
f 32 30 61
f 61 30 60
f 30 28 60
f 60 28 26
f 98 150 34
f 150 151 34
f 34 151 152
f 137 153 154
f 155 156 157
f 156 101 157
f 157 101 158
f 101 102 158
f 159 105 160
f 105 161 160
f 159 162 105
f 162 163 105
f 105 163 103
f 24 22 60
f 22 20 60
f 60 20 18
f 10 8 58
f 154 164 137
f 164 165 137
f 137 165 139
f 166 105 167
f 105 168 167
f 166 169 105
f 169 170 105
f 105 170 140
f 149 171 58
f 171 172 58
f 58 172 90
f 8 6 58
f 6 4 58
f 58 4 2
f 173 174 168
f 174 175 168
f 168 175 176
f 176 177 168
f 177 178 168
f 168 178 179
f 180 181 182
f 183 184 105
f 184 185 105
f 89 186 90
f 186 187 90
f 90 187 58
f 187 188 58
f 58 188 59
f 18 16 60
f 16 14 60
f 60 14 58
f 14 12 58
f 58 12 10
f 152 189 34
f 189 190 34
f 34 190 191
f 137 192 193
f 194 195 168
f 141 196 105
f 196 197 105
f 105 197 198
f 198 199 105
f 199 200 105
f 105 200 201
f 191 202 34
f 202 203 34
f 34 203 204
f 204 205 34
f 205 206 34
f 34 206 137
f 206 207 137
f 137 207 192
f 193 208 137
f 208 209 137
f 137 209 153
f 195 210 168
f 210 211 168
f 168 211 212
f 181 213 182
f 213 214 182
f 182 214 215
f 216 217 218
f 218 219 216
f 219 220 216
f 216 220 221
f 221 222 216
f 222 223 216
f 216 223 224
f 225 226 136
f 137 227 228
f 185 229 105
f 229 230 105
f 105 230 231
f 231 232 105
f 232 233 105
f 105 233 234
f 212 235 168
f 235 236 168
f 168 236 173
f 237 238 105
f 238 239 105
f 105 239 240
f 241 242 182
f 243 244 216
f 244 245 216
f 216 245 217
f 246 247 248
f 249 250 251
f 228 252 137
f 252 253 137
f 137 253 105
f 253 254 105
f 105 254 183
f 201 255 105
f 255 256 105
f 105 256 257
f 257 258 105
f 258 156 105
f 105 156 161
f 156 155 161
f 240 259 105
f 259 260 105
f 105 260 261
f 241 182 262
f 242 263 182
f 263 264 182
f 182 264 180
f 265 216 266
f 216 251 266
f 265 267 216
f 267 268 216
f 216 268 243
f 246 248 269
f 225 136 270
f 226 271 136
f 271 272 136
f 136 272 273
f 216 274 251
f 274 275 251
f 251 275 276
f 234 277 105
f 277 278 105
f 105 278 279
f 194 168 280
f 168 105 280
f 280 105 182
f 105 261 182
f 182 261 262
f 179 281 168
f 281 282 168
f 168 282 283
f 282 284 283
f 276 285 251
f 285 286 251
f 251 286 249
f 279 287 105
f 287 288 105
f 105 288 289
f 224 290 216
f 290 291 216
f 216 291 292
f 291 293 292
f 292 293 248
f 293 294 248
f 248 294 269
f 247 295 248
f 295 296 248
f 248 296 297
f 248 298 299
f 284 282 136
f 282 300 136
f 136 300 270
f 289 301 105
f 301 302 105
f 105 302 237
f 297 303 248
f 303 304 248
f 248 304 298
f 215 305 182
f 305 248 182
f 182 248 306
f 248 299 306
f 273 307 136
f 307 308 136
f 136 308 309
f 310 137 311
f 137 312 311
f 310 313 137
f 313 314 137
f 137 314 315
f 315 316 137
f 316 317 137
f 137 317 227
f 309 318 136
f 318 319 136
f 136 319 320
f 321 322 323
f 322 251 323
f 323 251 324
f 251 250 324
f 320 325 136
f 325 326 136
f 136 326 327
f 328 329 137
f 321 330 322
f 330 331 322
f 322 331 332
f 333 334 137
f 334 335 137
f 327 336 136
f 336 337 136
f 136 337 137
f 337 338 137
f 137 338 328
f 335 339 137
f 339 340 137
f 137 340 341
f 329 342 137
f 342 322 137
f 137 322 333
f 322 332 333
f 341 343 137
f 343 344 137
f 137 344 312
f 137 345 34
f 345 33 34
f 346 37 113
f 346 113 347
f 113 115 347
f 347 115 348
f 115 125 348
f 348 125 349
f 125 124 349
f 349 124 350
f 124 122 350
f 350 122 351
f 122 120 351
f 351 120 352
f 120 118 352
f 352 118 353
f 118 117 353
f 353 117 354
f 117 68 354
f 354 68 355
f 68 66 355
f 355 66 356
f 66 64 356
f 356 64 357
f 64 63 357
f 357 63 358
f 63 46 358
f 358 46 359
f 46 44 359
f 359 44 360
f 44 42 360
f 360 42 361
f 42 72 361
f 361 72 362
f 72 71 362
f 362 71 363
f 71 48 363
f 363 48 364
f 365 366 367
f 366 368 367
f 368 369 367
f 367 369 370
f 370 371 367
f 371 372 367
f 367 372 364
f 372 373 364
f 364 373 374
f 375 376 377
f 374 378 364
f 378 379 364
f 364 379 380
f 381 357 382
f 357 358 382
f 382 358 383
f 358 359 383
f 383 359 384
f 385 386 387
f 386 388 387
f 380 389 364
f 389 390 364
f 364 390 363
f 390 391 363
f 363 391 362
f 391 392 362
f 362 392 361
f 392 384 361
f 361 384 360
f 384 359 360
f 393 394 386
f 395 396 33
f 396 397 33
f 33 397 398
f 399 400 367
f 400 401 367
f 367 401 365
f 402 353 403
f 353 354 403
f 403 354 404
f 354 355 404
f 404 355 381
f 355 356 381
f 381 356 357
f 394 405 386
f 405 406 386
f 386 406 388
f 407 408 409
f 408 410 409
f 410 411 409
f 411 412 409
f 409 412 413
f 414 385 409
f 385 415 409
f 409 415 407
f 416 417 1
f 417 418 1
f 1 418 367
f 418 419 367
f 367 419 399
f 420 421 422
f 421 423 422
f 422 423 424
f 425 426 345
f 426 427 345
f 427 428 345
f 345 428 429
f 429 430 345
f 430 431 345
f 345 431 432
f 433 434 346
f 434 435 346
f 346 435 436
f 436 437 346
f 437 438 346
f 346 438 439
f 375 377 422
f 377 440 422
f 422 440 420
f 413 441 409
f 441 442 409
f 409 442 443
f 442 422 443
f 443 422 444
f 422 424 444
f 414 445 385
f 445 446 385
f 385 446 447
f 447 448 385
f 448 449 385
f 385 449 450
f 450 451 385
f 451 452 385
f 385 452 453
f 453 454 385
f 454 455 385
f 385 455 456
f 457 458 345
f 432 459 345
f 459 460 345
f 345 460 461
f 461 462 345
f 462 463 345
f 345 463 33
f 463 464 33
f 33 464 395
f 29 31 465
f 31 33 465
f 465 33 466
f 467 15 468
f 15 17 468
f 17 19 468
f 19 21 468
f 468 21 469
f 470 9 471
f 9 11 471
f 471 11 467
f 11 13 467
f 467 13 15
f 1 3 416
f 3 5 416
f 416 5 470
f 5 7 470
f 470 7 9
f 346 347 433
f 347 348 433
f 433 348 472
f 348 349 472
f 472 349 473
f 349 350 473
f 473 350 474
f 350 351 474
f 474 351 402
f 351 352 402
f 402 352 353
f 439 475 346
f 475 476 346
f 346 476 386
f 476 477 386
f 386 477 393
f 478 479 386
f 480 386 481
f 386 482 481
f 458 483 345
f 483 484 345
f 345 484 425
f 398 485 33
f 485 486 33
f 33 486 377
f 479 487 386
f 487 488 386
f 386 488 482
f 489 490 491
f 376 492 377
f 492 493 377
f 377 493 33
f 493 494 33
f 33 494 466
f 21 23 469
f 23 25 469
f 469 25 465
f 25 27 465
f 465 27 29
f 456 495 385
f 495 496 385
f 385 496 497
f 498 499 480
f 499 500 480
f 501 502 503
f 502 504 503
f 503 504 505
f 497 506 385
f 506 507 385
f 385 507 508
f 386 509 510
f 511 512 504
f 512 513 504
f 504 513 514
f 514 515 504
f 515 516 504
f 504 516 505
f 500 517 480
f 517 518 480
f 480 518 519
f 519 520 480
f 520 521 480
f 480 521 522
f 523 480 524
f 480 525 524
f 526 386 527
f 386 528 527
f 508 529 385
f 529 530 385
f 385 530 531
f 510 532 386
f 532 533 386
f 386 533 478
f 534 535 504
f 535 536 504
f 504 536 511
f 501 503 480
f 503 537 480
f 480 537 498
f 538 539 489
f 539 540 489
f 540 541 489
f 489 541 542
f 542 543 489
f 543 544 489
f 489 544 545
f 489 491 546
f 491 547 546
f 546 547 548
f 523 549 480
f 549 550 480
f 480 550 551
f 552 553 386
f 545 554 489
f 554 555 489
f 489 555 490
f 548 556 546
f 556 557 546
f 546 557 558
f 559 560 561
f 560 562 561
f 561 562 563
f 531 564 385
f 564 565 385
f 385 565 386
f 565 566 386
f 386 566 509
f 457 345 504
f 345 567 504
f 504 567 534
f 522 568 480
f 568 569 480
f 480 569 570
f 570 571 480
f 571 572 480
f 480 572 573
f 551 574 480
f 574 575 480
f 480 575 576
f 553 577 386
f 577 578 386
f 386 578 528
f 563 562 579
f 562 580 579
f 579 580 581
f 582 583 345
f 583 584 345
f 345 584 585
f 576 586 480
f 586 587 480
f 480 587 588
f 589 590 561
f 590 591 561
f 561 591 559
f 526 592 386
f 592 593 386
f 386 593 345
f 593 594 345
f 345 594 595
f 595 596 345
f 596 597 345
f 345 597 598
f 585 599 345
f 599 600 345
f 345 600 601
f 573 602 480
f 602 603 480
f 480 603 604
f 604 605 480
f 605 558 480
f 480 558 525
f 558 557 525
f 606 607 386
f 607 608 386
f 386 608 552
f 609 610 561
f 610 611 561
f 561 611 589
f 598 612 345
f 612 613 345
f 345 613 614
f 614 615 345
f 615 616 345
f 345 616 617
f 618 345 619
f 345 620 619
f 618 621 345
f 621 622 345
f 345 622 567
f 623 624 561
f 624 625 561
f 561 625 626
f 626 627 561
f 627 628 561
f 561 628 609
f 617 629 345
f 629 630 345
f 345 630 581
f 588 631 480
f 631 632 480
f 480 632 386
f 632 633 386
f 386 633 634
f 634 635 386
f 635 636 386
f 386 636 637
f 538 489 561
f 489 638 561
f 561 638 623
f 580 639 581
f 639 640 581
f 581 640 345
f 640 641 345
f 345 641 582
f 601 642 345
f 642 643 345
f 345 643 644
f 644 645 345
f 645 646 345
f 345 646 620
f 637 647 386
f 647 648 386
f 386 648 649
f 650 651 386
f 651 652 386
f 386 652 606
f 649 653 386
f 653 654 386
f 386 654 650
f 58 367 48
f 367 364 48
f 448 187 449
f 187 186 449
f 449 186 450
f 186 89 450
f 450 89 451
f 89 88 451
f 451 88 452
f 88 76 452
f 452 76 453
f 76 78 453
f 453 78 454
f 78 79 454
f 454 79 455
f 79 75 455
f 455 75 456
f 75 74 456
f 456 74 495
f 74 73 495
f 495 73 496
f 73 57 496
f 496 57 497
f 57 55 497
f 497 55 506
f 55 54 506
f 506 54 507
f 54 127 507
f 507 127 508
f 127 126 508
f 508 126 529
f 126 85 529
f 529 85 530
f 85 86 530
f 530 86 531
f 86 87 531
f 531 87 564
f 87 39 564
f 564 39 565
f 39 38 565
f 565 38 566
f 38 101 566
f 566 101 509
f 101 156 509
f 509 156 510
f 156 258 510
f 510 258 532
f 258 257 532
f 532 257 533
f 257 256 533
f 533 256 478
f 256 255 478
f 478 255 479
f 255 201 479
f 479 201 487
f 201 200 487
f 487 200 488
f 200 199 488
f 488 199 482
f 199 198 482
f 482 198 481
f 198 197 481
f 481 197 480
f 197 196 480
f 480 196 501
f 196 141 501
f 501 141 502
f 141 140 502
f 502 140 504
f 140 170 504
f 504 170 457
f 170 169 457
f 457 169 458
f 169 166 458
f 458 166 483
f 166 167 483
f 483 167 484
f 167 168 484
f 484 168 425
f 168 283 425
f 425 283 426
f 283 284 426
f 426 284 427
f 284 136 427
f 427 136 428
f 136 138 428
f 428 138 429
f 138 139 429
f 429 139 430
f 139 165 430
f 430 165 431
f 165 164 431
f 431 164 432
f 164 154 432
f 432 154 459
f 154 153 459
f 459 153 460
f 153 209 460
f 460 209 461
f 209 208 461
f 461 208 462
f 208 193 462
f 462 193 463
f 193 192 463
f 463 192 464
f 192 207 464
f 464 207 395
f 207 206 395
f 395 206 396
f 206 205 396
f 396 205 397
f 205 204 397
f 397 204 398
f 204 203 398
f 398 203 485
f 203 202 485
f 485 202 486
f 202 191 486
f 486 191 377
f 191 190 377
f 377 190 440
f 190 189 440
f 440 189 420
f 189 152 420
f 420 152 421
f 152 151 421
f 421 151 423
f 151 150 423
f 423 150 424
f 150 98 424
f 424 98 444
f 98 97 444
f 444 97 443
f 97 96 443
f 443 96 409
f 96 62 409
f 409 62 414
f 62 61 414
f 414 61 445
f 61 60 445
f 445 60 446
f 60 59 446
f 446 59 447
f 59 188 447
f 447 188 448
f 188 187 448
f 386 105 346
f 105 37 346
f 367 58 1
f 58 2 1
f 137 105 345
f 105 386 345
f 380 51 389
f 51 50 389
f 389 50 390
f 50 49 390
f 390 49 391
f 49 70 391
f 391 70 392
f 70 41 392
f 392 41 384
f 41 43 384
f 384 43 383
f 43 45 383
f 383 45 382
f 45 47 382
f 382 47 381
f 47 65 381
f 381 65 404
f 65 67 404
f 404 67 403
f 67 69 403
f 403 69 402
f 69 119 402
f 402 119 474
f 119 121 474
f 474 121 473
f 121 123 473
f 473 123 472
f 123 116 472
f 472 116 433
f 116 114 433
f 433 114 434
f 114 112 434
f 434 112 435
f 112 111 435
f 435 111 436
f 111 36 436
f 436 36 437
f 36 35 437
f 437 35 438
f 35 146 438
f 438 146 439
f 146 145 439
f 439 145 475
f 145 144 475
f 475 144 476
f 144 143 476
f 476 143 477
f 143 142 477
f 477 142 393
f 142 110 393
f 393 110 394
f 110 109 394
f 394 109 405
f 109 108 405
f 405 108 406
f 108 107 406
f 406 107 388
f 107 106 388
f 388 106 387
f 106 104 387
f 387 104 385
f 104 103 385
f 385 103 415
f 103 163 415
f 415 163 407
f 163 162 407
f 407 162 408
f 162 159 408
f 408 159 410
f 159 160 410
f 410 160 411
f 160 161 411
f 411 161 412
f 161 155 412
f 412 155 413
f 155 157 413
f 413 157 441
f 157 158 441
f 441 158 442
f 158 102 442
f 442 102 422
f 102 100 422
f 422 100 375
f 100 99 375
f 375 99 376
f 99 40 376
f 376 40 492
f 40 84 492
f 492 84 493
f 84 83 493
f 493 83 494
f 83 82 494
f 494 82 466
f 82 95 466
f 466 95 465
f 95 94 465
f 465 94 469
f 94 93 469
f 469 93 468
f 93 92 468
f 468 92 467
f 92 91 467
f 467 91 471
f 91 81 471
f 471 81 470
f 81 80 470
f 470 80 416
f 80 135 416
f 416 135 417
f 135 56 417
f 417 56 418
f 56 77 418
f 418 77 419
f 77 90 419
f 419 90 399
f 90 172 399
f 399 172 400
f 172 171 400
f 400 171 401
f 171 149 401
f 401 149 365
f 149 148 365
f 365 148 366
f 148 147 366
f 366 147 368
f 147 134 368
f 368 134 369
f 134 133 369
f 369 133 370
f 133 132 370
f 370 132 371
f 132 131 371
f 371 131 372
f 131 130 372
f 372 130 373
f 130 129 373
f 373 129 374
f 129 128 374
f 374 128 378
f 128 53 378
f 378 53 379
f 53 52 379
f 379 52 380
f 52 51 380
f 524 292 523
f 292 248 523
f 523 248 549
f 248 305 549
f 549 305 550
f 305 215 550
f 550 215 551
f 215 214 551
f 551 214 574
f 214 213 574
f 574 213 575
f 213 181 575
f 575 181 576
f 181 180 576
f 576 180 586
f 180 264 586
f 586 264 587
f 264 263 587
f 587 263 588
f 263 242 588
f 588 242 631
f 242 241 631
f 631 241 632
f 241 262 632
f 632 262 633
f 262 261 633
f 633 261 634
f 261 260 634
f 634 260 635
f 260 259 635
f 635 259 636
f 259 240 636
f 636 240 637
f 240 239 637
f 637 239 647
f 239 238 647
f 647 238 648
f 238 237 648
f 648 237 649
f 237 302 649
f 649 302 653
f 302 301 653
f 653 301 654
f 301 289 654
f 654 289 650
f 289 288 650
f 650 288 651
f 288 287 651
f 651 287 652
f 287 279 652
f 652 279 606
f 279 278 606
f 606 278 607
f 278 277 607
f 607 277 608
f 277 234 608
f 608 234 552
f 234 233 552
f 552 233 553
f 233 232 553
f 553 232 577
f 232 231 577
f 577 231 578
f 231 230 578
f 578 230 528
f 230 229 528
f 528 229 527
f 229 185 527
f 527 185 526
f 185 184 526
f 526 184 592
f 184 183 592
f 592 183 593
f 183 254 593
f 593 254 594
f 254 253 594
f 594 253 595
f 253 252 595
f 595 252 596
f 252 228 596
f 596 228 597
f 228 227 597
f 597 227 598
f 227 317 598
f 598 317 612
f 317 316 612
f 612 316 613
f 316 315 613
f 613 315 614
f 315 314 614
f 614 314 615
f 314 313 615
f 615 313 616
f 313 310 616
f 616 310 617
f 310 311 617
f 617 311 629
f 311 312 629
f 629 312 630
f 312 344 630
f 630 344 581
f 344 343 581
f 581 343 579
f 343 341 579
f 579 341 563
f 341 340 563
f 563 340 561
f 340 339 561
f 561 339 538
f 339 335 538
f 538 335 539
f 335 334 539
f 539 334 540
f 334 333 540
f 540 333 541
f 333 332 541
f 541 332 542
f 332 331 542
f 542 331 543
f 331 330 543
f 543 330 544
f 330 321 544
f 544 321 545
f 321 323 545
f 545 323 554
f 323 324 554
f 554 324 555
f 324 250 555
f 555 250 490
f 250 249 490
f 490 249 491
f 249 286 491
f 491 286 547
f 286 285 547
f 547 285 548
f 285 276 548
f 548 276 556
f 276 275 556
f 556 275 557
f 275 274 557
f 557 274 525
f 274 216 525
f 525 216 524
f 216 292 524
f 518 300 519
f 300 282 519
f 519 282 520
f 282 281 520
f 520 281 521
f 281 179 521
f 521 179 522
f 179 178 522
f 522 178 568
f 178 177 568
f 568 177 569
f 177 176 569
f 569 176 570
f 176 175 570
f 570 175 571
f 175 174 571
f 571 174 572
f 174 173 572
f 572 173 573
f 173 236 573
f 573 236 602
f 236 235 602
f 602 235 603
f 235 212 603
f 603 212 604
f 212 211 604
f 604 211 605
f 211 210 605
f 605 210 558
f 210 195 558
f 558 195 546
f 195 194 546
f 546 194 489
f 194 280 489
f 489 280 638
f 280 182 638
f 638 182 623
f 182 306 623
f 623 306 624
f 306 299 624
f 624 299 625
f 299 298 625
f 625 298 626
f 298 304 626
f 626 304 627
f 304 303 627
f 627 303 628
f 303 297 628
f 628 297 609
f 297 296 609
f 609 296 610
f 296 295 610
f 610 295 611
f 295 247 611
f 611 247 589
f 247 246 589
f 589 246 590
f 246 269 590
f 590 269 591
f 269 294 591
f 591 294 559
f 294 293 559
f 559 293 560
f 293 291 560
f 560 291 562
f 291 290 562
f 562 290 580
f 290 224 580
f 580 224 639
f 224 223 639
f 639 223 640
f 223 222 640
f 640 222 641
f 222 221 641
f 641 221 582
f 221 220 582
f 582 220 583
f 220 219 583
f 583 219 584
f 219 218 584
f 584 218 585
f 218 217 585
f 585 217 599
f 217 245 599
f 599 245 600
f 245 244 600
f 600 244 601
f 244 243 601
f 601 243 642
f 243 268 642
f 642 268 643
f 268 267 643
f 643 267 644
f 267 265 644
f 644 265 645
f 265 266 645
f 645 266 646
f 266 251 646
f 646 251 620
f 251 322 620
f 620 322 619
f 322 342 619
f 619 342 618
f 342 329 618
f 618 329 621
f 329 328 621
f 621 328 622
f 328 338 622
f 622 338 567
f 338 337 567
f 567 337 534
f 337 336 534
f 534 336 535
f 336 327 535
f 535 327 536
f 327 326 536
f 536 326 511
f 326 325 511
f 511 325 512
f 325 320 512
f 512 320 513
f 320 319 513
f 513 319 514
f 319 318 514
f 514 318 515
f 318 309 515
f 515 309 516
f 309 308 516
f 516 308 505
f 308 307 505
f 505 307 503
f 307 273 503
f 503 273 537
f 273 272 537
f 537 272 498
f 272 271 498
f 498 271 499
f 271 226 499
f 499 226 500
f 226 225 500
f 500 225 517
f 225 270 517
f 517 270 518
f 270 300 518

