# https://github.com/mikedh/trimesh
v -0.28612024 0.05907107 -0.00490000
v -0.28612024 0.06207107 -0.00490000
v -0.28654355 0.05907107 -0.00520725
v -0.28654355 0.06207107 -0.00520725
v -0.28699106 0.05907107 -0.00547803
v -0.28699106 0.06207107 -0.00547803
v -0.28745967 0.05907107 -0.00571044
v -0.28745967 0.06207107 -0.00571044
v -0.28794605 0.05907107 -0.00590286
v -0.28794605 0.06207107 -0.00590286
v -0.28844681 0.05907107 -0.00605393
v -0.28844681 0.06207107 -0.00605393
v -0.28895846 0.05907107 -0.00616260
v -0.28895846 0.06207107 -0.00616260
v -0.28947741 0.05907107 -0.00622811
v -0.28947741 0.06207107 -0.00622811
v -0.28999999 0.05907107 -0.00625000
v -0.28999999 0.06207107 -0.00625000
v -0.29052261 0.05907107 -0.00622811
v -0.29052261 0.06207107 -0.00622811
v -0.29104155 0.05907107 -0.00616260
v -0.29104155 0.06207107 -0.00616260
v -0.29155320 0.05907107 -0.00605393
v -0.29155320 0.06207107 -0.00605393
v -0.29205397 0.05907107 -0.00590286
v -0.29205397 0.06207107 -0.00590286
v -0.29254034 0.05907107 -0.00571044
v -0.29254034 0.06207107 -0.00571044
v -0.29300892 0.05907107 -0.00547803
v -0.29300892 0.06207107 -0.00547803
v -0.29345644 0.05907107 -0.00520725
v -0.29345644 0.06207107 -0.00520725
v -0.29387975 0.05907107 -0.00490000
v -0.29387975 0.06207107 -0.00490000
v -0.27102774 0.06207107 -0.00860970
v -0.27125001 0.06207107 -0.00860000
v -0.29521263 0.06207107 -0.01666116
v -0.29538912 0.06207107 -0.01679659
v -0.29990000 0.06207107 -0.00490000
v -0.26870969 0.06207107 -0.01137225
v -0.26870000 0.06207107 -0.01115000
v -0.08010000 0.06207107 -0.00490000
v -0.26878688 0.06207107 -0.01049001
v -0.26885378 0.06207107 -0.01027785
v -0.29555312 0.06207107 -0.01694688
v -0.29570341 0.06207107 -0.01711089
v -0.29583883 0.06207107 -0.01728738
v -0.29595837 0.06207107 -0.01747500
v -0.29606110 0.06207107 -0.01767232
v -0.29990000 0.06207107 -0.02000000
v -0.29614621 0.06207107 -0.01787785
v -0.29621312 0.06207107 -0.01809001
v -0.29626125 0.06207107 -0.01830720
v -0.29629031 0.06207107 -0.01852775
v -0.29629999 0.06207107 -0.01875000
v -0.27364621 0.06207107 -0.01202215
v -0.27356109 0.06207107 -0.01222768
v -0.29128689 0.06207107 -0.01809001
v -0.26893893 0.06207107 -0.01007232
v -0.26904163 0.06207107 -0.00987500
v -0.26916116 0.06207107 -0.00968738
v -0.29629031 0.06207107 -0.01897225
v -0.29626125 0.06207107 -0.01919280
v -0.29988098 0.06207107 -0.02043578
v -0.29621312 0.06207107 -0.01940999
v -0.29982403 0.06207107 -0.02086824
v -0.29614621 0.06207107 -0.01962215
v -0.29972962 0.06207107 -0.02129409
v -0.29606110 0.06207107 -0.01982768
v -0.29120001 0.06207107 -0.01875000
v -0.29120970 0.06207107 -0.01897225
v -0.29123875 0.06207107 -0.01919280
v -0.27333882 0.06207107 -0.00968738
v -0.27345836 0.06207107 -0.00987500
v -0.27356109 0.06207107 -0.01007232
v -0.27364621 0.06207107 -0.01027785
v -0.26870969 0.06207107 -0.01092775
v -0.26873875 0.06207107 -0.01070720
v -0.26929659 0.06207107 -0.00951089
v -0.26944688 0.06207107 -0.00934688
v -0.26961088 0.06207107 -0.00919659
v -0.29570341 0.06207107 -0.02038911
v -0.29899576 0.06207107 -0.02286788
v -0.29583883 0.06207107 -0.02021262
v -0.29923013 0.06207107 -0.02250000
v -0.29595837 0.06207107 -0.02002500
v -0.29943153 0.06207107 -0.02211309
v -0.29959846 0.06207107 -0.02171010
v -0.29143891 0.06207107 -0.01982768
v -0.08010000 0.06207107 -0.02500000
v -0.29154164 0.06207107 -0.02002500
v -0.29166117 0.06207107 -0.02021262
v -0.08373874 0.06207107 -0.01919280
v -0.08370970 0.06207107 -0.01897225
v -0.29120970 0.06207107 -0.01852775
v -0.29123875 0.06207107 -0.01830720
v -0.27288911 0.06207107 -0.00919659
v -0.27271262 0.06207107 -0.00906116
v -0.27252501 0.06207107 -0.00894164
v -0.27305311 0.06207107 -0.00934688
v -0.27320340 0.06207107 -0.00951089
v -0.27376127 0.06207107 -0.01070720
v -0.29154164 0.06207107 -0.01747500
v -0.29166117 0.06207107 -0.01728738
v -0.29179659 0.06207107 -0.01711089
v -0.26885378 0.06207107 -0.01202215
v -0.26878688 0.06207107 -0.01180999
v -0.26873875 0.06207107 -0.01159280
v -0.29462215 0.06207107 -0.01635378
v -0.29482767 0.06207107 -0.01643891
v -0.29502499 0.06207107 -0.01654164
v -0.29228738 0.06207107 -0.02083884
v -0.29211089 0.06207107 -0.02070341
v -0.27147225 0.06207107 -0.00860970
v -0.27169281 0.06207107 -0.00863874
v -0.27190998 0.06207107 -0.00868689
v -0.27371311 0.06207107 -0.01049001
v -0.29143891 0.06207107 -0.01767232
v -0.27379030 0.06207107 -0.01092775
v -0.27379999 0.06207107 -0.01115000
v -0.27379030 0.06207107 -0.01137225
v -0.27376127 0.06207107 -0.01159280
v -0.27371311 0.06207107 -0.01180999
v -0.26916116 0.06207107 -0.01261262
v -0.26904163 0.06207107 -0.01242500
v -0.26893893 0.06207107 -0.01222768
v -0.29228738 0.06207107 -0.01666116
v -0.29211089 0.06207107 -0.01679659
v -0.29194689 0.06207107 -0.01694688
v -0.26978737 0.06207107 -0.00906116
v -0.26997501 0.06207107 -0.00894164
v -0.27017233 0.06207107 -0.00883892
v -0.27037784 0.06207107 -0.00875378
v -0.27059001 0.06207107 -0.00868689
v -0.27080721 0.06207107 -0.00863874
v -0.29374999 0.06207107 -0.01620000
v -0.29397225 0.06207107 -0.01620970
v -0.29419279 0.06207107 -0.01623874
v -0.29440999 0.06207107 -0.01628689
v -0.29521263 0.06207107 -0.02083884
v -0.29776788 0.06207107 -0.02409576
v -0.29538912 0.06207107 -0.02070341
v -0.29811394 0.06207107 -0.02383022
v -0.29555312 0.06207107 -0.02055312
v -0.29843554 0.06207107 -0.02353553
v -0.29873022 0.06207107 -0.02321394
v -0.29194689 0.06207107 -0.02055312
v -0.29179659 0.06207107 -0.02038911
v -0.11055312 0.06207107 -0.00934688
v -0.11070342 0.06207107 -0.00951089
v -0.10897224 0.06207107 -0.01369030
v -0.08833884 0.06207107 -0.01728738
v -0.08845837 0.06207107 -0.01747500
v -0.10623874 0.06207107 -0.01070720
v -0.10628689 0.06207107 -0.01049001
v -0.10635378 0.06207107 -0.01027785
v -0.10643891 0.06207107 -0.01007232
v -0.27212214 0.06207107 -0.00875378
v -0.27232769 0.06207107 -0.00883892
v -0.27345836 0.06207107 -0.01242500
v -0.27333882 0.06207107 -0.01261262
v -0.27320340 0.06207107 -0.01278911
v -0.26978737 0.06207107 -0.01323884
v -0.26961088 0.06207107 -0.01310341
v -0.11114622 0.06207107 -0.01027785
v -0.11121311 0.06207107 -0.01049001
v -0.11126126 0.06207107 -0.01070720
v -0.08370000 0.06207107 -0.01875000
v -0.08370970 0.06207107 -0.01852775
v -0.08373874 0.06207107 -0.01830720
v -0.08378689 0.06207107 -0.01809001
v -0.10654163 0.06207107 -0.00987500
v -0.10666116 0.06207107 -0.00968738
v -0.10679659 0.06207107 -0.00951089
v -0.29135379 0.06207107 -0.01787785
v -0.26944688 0.06207107 -0.01295312
v -0.26929659 0.06207107 -0.01278911
v -0.29247499 0.06207107 -0.01654164
v -0.29267234 0.06207107 -0.01643891
v -0.29287785 0.06207107 -0.01635378
v -0.29309002 0.06207107 -0.01628689
v -0.29330719 0.06207107 -0.01623874
v -0.29352775 0.06207107 -0.01620970
v -0.29440999 0.06207107 -0.02121311
v -0.29419279 0.06207107 -0.02126126
v -0.29490000 0.06207107 -0.02500000
v -0.29397225 0.06207107 -0.02129030
v -0.29374999 0.06207107 -0.02130000
v -0.08879030 0.06207107 -0.01852775
v -0.08880000 0.06207107 -0.01875000
v -0.08879030 0.06207107 -0.01897225
v -0.08876126 0.06207107 -0.01919280
v -0.08393891 0.06207107 -0.01982768
v -0.08385378 0.06207107 -0.01962215
v -0.08378689 0.06207107 -0.01940999
v -0.27305311 0.06207107 -0.01295312
v -0.27288911 0.06207107 -0.01310341
v -0.27271262 0.06207107 -0.01323884
v -0.29533577 0.06207107 -0.02498097
v -0.29576823 0.06207107 -0.02492404
v -0.29462215 0.06207107 -0.02114622
v -0.29619411 0.06207107 -0.02482963
v -0.29482767 0.06207107 -0.02106109
v -0.29661009 0.06207107 -0.02469846
v -0.29502499 0.06207107 -0.02095836
v -0.29701310 0.06207107 -0.02453154
v -0.29740000 0.06207107 -0.02433013
v -0.29352775 0.06207107 -0.02129030
v -0.29330719 0.06207107 -0.02126126
v -0.29309002 0.06207107 -0.02121311
v -0.29287785 0.06207107 -0.02114622
v -0.29267234 0.06207107 -0.02106109
v -0.29247499 0.06207107 -0.02095836
v -0.10852775 0.06207107 -0.00860970
v -0.10875000 0.06207107 -0.00860000
v -0.10897224 0.06207107 -0.00860970
v -0.10919280 0.06207107 -0.00863874
v -0.11038911 0.06207107 -0.00919659
v -0.11083884 0.06207107 -0.00968738
v -0.11095837 0.06207107 -0.00987500
v -0.29128689 0.06207107 -0.01940999
v -0.29135379 0.06207107 -0.01962215
v -0.11129030 0.06207107 -0.01092775
v -0.11130000 0.06207107 -0.01115000
v -0.11129030 0.06207107 -0.01137225
v -0.08647225 0.06207107 -0.01620970
v -0.08669280 0.06207107 -0.01623874
v -0.11126126 0.06207107 -0.01159280
v -0.11121311 0.06207107 -0.01180999
v -0.11114622 0.06207107 -0.01202215
v -0.08871311 0.06207107 -0.01940999
v -0.08864622 0.06207107 -0.01962215
v -0.08856109 0.06207107 -0.01982768
v -0.08625000 0.06207107 -0.01620000
v -0.10787785 0.06207107 -0.01354622
v -0.10767233 0.06207107 -0.01346109
v -0.10747500 0.06207107 -0.01335836
v -0.10728738 0.06207107 -0.01323884
v -0.10711090 0.06207107 -0.01310341
v -0.10694688 0.06207107 -0.01295312
v -0.10679659 0.06207107 -0.01278911
v -0.08602776 0.06207107 -0.01620970
v -0.10666116 0.06207107 -0.01261262
v -0.10654163 0.06207107 -0.01242500
v -0.08580720 0.06207107 -0.01623874
v -0.10643891 0.06207107 -0.01222768
v -0.10635378 0.06207107 -0.01202215
v -0.08385378 0.06207107 -0.01787785
v -0.08393891 0.06207107 -0.01767232
v -0.08404163 0.06207107 -0.01747500
v -0.10694688 0.06207107 -0.00934688
v -0.10711090 0.06207107 -0.00919659
v -0.10728738 0.06207107 -0.00906116
v -0.10940999 0.06207107 -0.00868689
v -0.10962215 0.06207107 -0.00875378
v -0.10982767 0.06207107 -0.00883892
v -0.11106108 0.06207107 -0.01007232
v -0.08690999 0.06207107 -0.01628689
v -0.08712215 0.06207107 -0.01635378
v -0.08732767 0.06207107 -0.01643891
v -0.10919280 0.06207107 -0.01366126
v -0.08856109 0.06207107 -0.01767232
v -0.08864622 0.06207107 -0.01787785
v -0.08416116 0.06207107 -0.01728738
v -0.08429658 0.06207107 -0.01711089
v -0.08444688 0.06207107 -0.01694688
v -0.08461089 0.06207107 -0.01679659
v -0.08478738 0.06207107 -0.01666116
v -0.08497500 0.06207107 -0.01654164
v -0.10628689 0.06207107 -0.01180999
v -0.10623874 0.06207107 -0.01159280
v -0.08559001 0.06207107 -0.01628689
v -0.10747500 0.06207107 -0.00894164
v -0.10767233 0.06207107 -0.00883892
v -0.10787785 0.06207107 -0.00875378
v -0.10809001 0.06207107 -0.00868689
v -0.10830720 0.06207107 -0.00863874
v -0.27252501 0.06207107 -0.01335836
v -0.27232769 0.06207107 -0.01346109
v -0.27212214 0.06207107 -0.01354622
v -0.27059001 0.06207107 -0.01361311
v -0.27037784 0.06207107 -0.01354622
v -0.11002500 0.06207107 -0.00894164
v -0.11021262 0.06207107 -0.00906116
v -0.08752500 0.06207107 -0.01654164
v -0.08771262 0.06207107 -0.01666116
v -0.08788911 0.06207107 -0.01679659
v -0.11106108 0.06207107 -0.01222768
v -0.11095837 0.06207107 -0.01242500
v -0.11083884 0.06207107 -0.01261262
v -0.08871311 0.06207107 -0.01809001
v -0.08876126 0.06207107 -0.01830720
v -0.10940999 0.06207107 -0.01361311
v -0.08845837 0.06207107 -0.02002500
v -0.08833884 0.06207107 -0.02021262
v -0.08820342 0.06207107 -0.02038911
v -0.08537785 0.06207107 -0.02114622
v -0.08517233 0.06207107 -0.02106109
v -0.08497500 0.06207107 -0.02095836
v -0.08478738 0.06207107 -0.02083884
v -0.10852775 0.06207107 -0.01369030
v -0.10830720 0.06207107 -0.01366126
v -0.10809001 0.06207107 -0.01361311
v -0.27190998 0.06207107 -0.01361311
v -0.27169281 0.06207107 -0.01366126
v -0.27147225 0.06207107 -0.01369030
v -0.27017233 0.06207107 -0.01346109
v -0.26997501 0.06207107 -0.01335836
v -0.08805312 0.06207107 -0.01694688
v -0.08820342 0.06207107 -0.01711089
v -0.11070342 0.06207107 -0.01278911
v -0.11055312 0.06207107 -0.01295312
v -0.11038911 0.06207107 -0.01310341
v -0.11021262 0.06207107 -0.01323884
v -0.11002500 0.06207107 -0.01335836
v -0.10982767 0.06207107 -0.01346109
v -0.08805312 0.06207107 -0.02055312
v -0.08788911 0.06207107 -0.02070341
v -0.08771262 0.06207107 -0.02083884
v -0.08712215 0.06207107 -0.02114622
v -0.08690999 0.06207107 -0.02121311
v -0.08669280 0.06207107 -0.02126126
v -0.08647225 0.06207107 -0.02129030
v -0.08625000 0.06207107 -0.02130000
v -0.08602776 0.06207107 -0.02129030
v -0.08461089 0.06207107 -0.02070341
v -0.08444688 0.06207107 -0.02055312
v -0.08429658 0.06207107 -0.02038911
v -0.10875000 0.06207107 -0.01370000
v -0.08752500 0.06207107 -0.02095836
v -0.08732767 0.06207107 -0.02106109
v -0.08580720 0.06207107 -0.02126126
v -0.08559001 0.06207107 -0.02121311
v -0.08416116 0.06207107 -0.02021262
v -0.08404163 0.06207107 -0.02002500
v -0.08517233 0.06207107 -0.01643891
v -0.08537785 0.06207107 -0.01635378
v -0.27125001 0.06207107 -0.01370000
v -0.27102774 0.06207107 -0.01369030
v -0.27080721 0.06207107 -0.01366126
v -0.10962215 0.06207107 -0.01354622
v -0.10620970 0.06207107 -0.01137225
v -0.10620000 0.06207107 -0.01115000
v -0.10620970 0.06207107 -0.01092775
v -0.29990000 0.05907107 -0.00490000
v -0.29490000 0.05907107 -0.02500000
v -0.29533577 0.05907107 -0.02498097
v -0.29576823 0.05907107 -0.02492404
v -0.29619411 0.05907107 -0.02482963
v -0.29661009 0.05907107 -0.02469846
v -0.29701310 0.05907107 -0.02453154
v -0.29740000 0.05907107 -0.02433013
v -0.29776788 0.05907107 -0.02409576
v -0.29811394 0.05907107 -0.02383022
v -0.29843554 0.05907107 -0.02353553
v -0.29873022 0.05907107 -0.02321394
v -0.29899576 0.05907107 -0.02286788
v -0.29923013 0.05907107 -0.02250000
v -0.29943153 0.05907107 -0.02211309
v -0.29959846 0.05907107 -0.02171010
v -0.29972962 0.05907107 -0.02129409
v -0.29982403 0.05907107 -0.02086824
v -0.29988098 0.05907107 -0.02043578
v -0.29990000 0.05907107 -0.02000000
v -0.26885378 0.05907107 -0.01027785
v -0.26878688 0.05907107 -0.01049001
v -0.08010000 0.05907107 -0.00490000
v -0.29211089 0.05907107 -0.01679659
v -0.29194689 0.05907107 -0.01694688
v -0.27125001 0.05907107 -0.01370000
v -0.29179659 0.05907107 -0.01711089
v -0.29166117 0.05907107 -0.01728738
v -0.29154164 0.05907107 -0.01747500
v -0.29143891 0.05907107 -0.01767232
v -0.27102774 0.05907107 -0.01369030
v -0.26885378 0.05907107 -0.01202215
v -0.08010000 0.05907107 -0.02500000
v -0.26878688 0.05907107 -0.01180999
v -0.26873875 0.05907107 -0.01159280
v -0.29267234 0.05907107 -0.01643891
v -0.29287785 0.05907107 -0.01635378
v -0.29309002 0.05907107 -0.01628689
v -0.29247499 0.05907107 -0.01654164
v -0.29228738 0.05907107 -0.01666116
v -0.29626125 0.05907107 -0.01919280
v -0.29629031 0.05907107 -0.01897225
v -0.29629999 0.05907107 -0.01875000
v -0.29629031 0.05907107 -0.01852775
v -0.29626125 0.05907107 -0.01830720
v -0.27376127 0.05907107 -0.01070720
v -0.27371311 0.05907107 -0.01049001
v -0.27364621 0.05907107 -0.01027785
v -0.27356109 0.05907107 -0.01007232
v -0.29123875 0.05907107 -0.01919280
v -0.29120970 0.05907107 -0.01897225
v -0.29120001 0.05907107 -0.01875000
v -0.29128689 0.05907107 -0.01940999
v -0.29135379 0.05907107 -0.01962215
v -0.29143891 0.05907107 -0.01982768
v -0.29374999 0.05907107 -0.01620000
v -0.29352775 0.05907107 -0.01620970
v -0.29330719 0.05907107 -0.01623874
v -0.29614621 0.05907107 -0.01962215
v -0.29606110 0.05907107 -0.01982768
v -0.29595837 0.05907107 -0.02002500
v -0.29583883 0.05907107 -0.02021262
v -0.29621312 0.05907107 -0.01940999
v -0.11129030 0.05907107 -0.01137225
v -0.11126126 0.05907107 -0.01159280
v -0.11121311 0.05907107 -0.01180999
v -0.29154164 0.05907107 -0.02002500
v -0.29166117 0.05907107 -0.02021262
v -0.29179659 0.05907107 -0.02038911
v -0.29194689 0.05907107 -0.02055312
v -0.29211089 0.05907107 -0.02070341
v -0.29228738 0.05907107 -0.02083884
v -0.29247499 0.05907107 -0.02095836
v -0.29570341 0.05907107 -0.02038911
v -0.29555312 0.05907107 -0.02055312
v -0.29538912 0.05907107 -0.02070341
v -0.27169281 0.05907107 -0.01366126
v -0.27190998 0.05907107 -0.01361311
v -0.29397225 0.05907107 -0.01620970
v -0.27252501 0.05907107 -0.01335836
v -0.27271262 0.05907107 -0.01323884
v -0.27288911 0.05907107 -0.01310341
v -0.27345836 0.05907107 -0.00987500
v -0.27333882 0.05907107 -0.00968738
v -0.27320340 0.05907107 -0.00951089
v -0.26929659 0.05907107 -0.00951089
v -0.26916116 0.05907107 -0.00968738
v -0.08370000 0.05907107 -0.01875000
v -0.08370970 0.05907107 -0.01897225
v -0.08373874 0.05907107 -0.01919280
v -0.08378689 0.05907107 -0.01940999
v -0.29120970 0.05907107 -0.01852775
v -0.27059001 0.05907107 -0.01361311
v -0.29123875 0.05907107 -0.01830720
v -0.27080721 0.05907107 -0.01366126
v -0.29128689 0.05907107 -0.01809001
v -0.29135379 0.05907107 -0.01787785
v -0.29267234 0.05907107 -0.02106109
v -0.29287785 0.05907107 -0.02114622
v -0.29309002 0.05907107 -0.02121311
v -0.29330719 0.05907107 -0.02126126
v -0.29352775 0.05907107 -0.02129030
v -0.29374999 0.05907107 -0.02130000
v -0.27305311 0.05907107 -0.01295312
v -0.27320340 0.05907107 -0.01278911
v -0.27333882 0.05907107 -0.01261262
v -0.27364621 0.05907107 -0.01202215
v -0.29419279 0.05907107 -0.01623874
v -0.27356109 0.05907107 -0.01222768
v -0.27345836 0.05907107 -0.01242500
v -0.27371311 0.05907107 -0.01180999
v -0.27376127 0.05907107 -0.01159280
v -0.29440999 0.05907107 -0.01628689
v -0.26904163 0.05907107 -0.00987500
v -0.26893893 0.05907107 -0.01007232
v -0.10694688 0.05907107 -0.00934688
v -0.10679659 0.05907107 -0.00951089
v -0.08879030 0.05907107 -0.01897225
v -0.08880000 0.05907107 -0.01875000
v -0.08879030 0.05907107 -0.01852775
v -0.10747500 0.05907107 -0.00894164
v -0.10767233 0.05907107 -0.00883892
v -0.11055312 0.05907107 -0.01295312
v -0.11070342 0.05907107 -0.01278911
v -0.11083884 0.05907107 -0.01261262
v -0.11095837 0.05907107 -0.01242500
v -0.11106108 0.05907107 -0.01222768
v -0.11114622 0.05907107 -0.01202215
v -0.26893893 0.05907107 -0.01222768
v -0.26904163 0.05907107 -0.01242500
v -0.26916116 0.05907107 -0.01261262
v -0.26929659 0.05907107 -0.01278911
v -0.26944688 0.05907107 -0.01295312
v -0.26961088 0.05907107 -0.01310341
v -0.29397225 0.05907107 -0.02129030
v -0.29419279 0.05907107 -0.02126126
v -0.29440999 0.05907107 -0.02121311
v -0.29462215 0.05907107 -0.02114622
v -0.29521263 0.05907107 -0.02083884
v -0.29502499 0.05907107 -0.02095836
v -0.29482767 0.05907107 -0.02106109
v -0.27147225 0.05907107 -0.01369030
v -0.29621312 0.05907107 -0.01809001
v -0.29614621 0.05907107 -0.01787785
v -0.29606110 0.05907107 -0.01767232
v -0.29595837 0.05907107 -0.01747500
v -0.29583883 0.05907107 -0.01728738
v -0.29570341 0.05907107 -0.01711089
v -0.29555312 0.05907107 -0.01694688
v -0.27305311 0.05907107 -0.00934688
v -0.27288911 0.05907107 -0.00919659
v -0.27271262 0.05907107 -0.00906116
v -0.26978737 0.05907107 -0.00906116
v -0.26961088 0.05907107 -0.00919659
v -0.26944688 0.05907107 -0.00934688
v -0.10711090 0.05907107 -0.00919659
v -0.10643891 0.05907107 -0.01007232
v -0.10635378 0.05907107 -0.01027785
v -0.10628689 0.05907107 -0.01049001
v -0.10623874 0.05907107 -0.01070720
v -0.10620970 0.05907107 -0.01092775
v -0.10679659 0.05907107 -0.01278911
v -0.10666116 0.05907107 -0.01261262
v -0.10654163 0.05907107 -0.01242500
v -0.08393891 0.05907107 -0.01767232
v -0.08385378 0.05907107 -0.01787785
v -0.08385378 0.05907107 -0.01962215
v -0.08393891 0.05907107 -0.01982768
v -0.08404163 0.05907107 -0.02002500
v -0.27212214 0.05907107 -0.01354622
v -0.27232769 0.05907107 -0.01346109
v -0.29538912 0.05907107 -0.01679659
v -0.29521263 0.05907107 -0.01666116
v -0.29502499 0.05907107 -0.01654164
v -0.10666116 0.05907107 -0.00968738
v -0.10654163 0.05907107 -0.00987500
v -0.08833884 0.05907107 -0.01728738
v -0.08820342 0.05907107 -0.01711089
v -0.08378689 0.05907107 -0.01809001
v -0.08373874 0.05907107 -0.01830720
v -0.08370970 0.05907107 -0.01852775
v -0.08497500 0.05907107 -0.02095836
v -0.08517233 0.05907107 -0.02106109
v -0.08537785 0.05907107 -0.02114622
v -0.08559001 0.05907107 -0.02121311
v -0.08580720 0.05907107 -0.02126126
v -0.08602776 0.05907107 -0.02129030
v -0.08625000 0.05907107 -0.02130000
v -0.10940999 0.05907107 -0.01361311
v -0.10962215 0.05907107 -0.01354622
v -0.10982767 0.05907107 -0.01346109
v -0.11002500 0.05907107 -0.01335836
v -0.10728738 0.05907107 -0.00906116
v -0.10620000 0.05907107 -0.01115000
v -0.10620970 0.05907107 -0.01137225
v -0.10623874 0.05907107 -0.01159280
v -0.10694688 0.05907107 -0.01295312
v -0.10711090 0.05907107 -0.01310341
v -0.10728738 0.05907107 -0.01323884
v -0.10747500 0.05907107 -0.01335836
v -0.10767233 0.05907107 -0.01346109
v -0.10787785 0.05907107 -0.01354622
v -0.11126126 0.05907107 -0.01070720
v -0.11121311 0.05907107 -0.01049001
v -0.11114622 0.05907107 -0.01027785
v -0.11106108 0.05907107 -0.01007232
v -0.08876126 0.05907107 -0.01830720
v -0.08871311 0.05907107 -0.01809001
v -0.08864622 0.05907107 -0.01787785
v -0.11021262 0.05907107 -0.01323884
v -0.11038911 0.05907107 -0.01310341
v -0.26978737 0.05907107 -0.01323884
v -0.26997501 0.05907107 -0.01335836
v -0.27017233 0.05907107 -0.01346109
v -0.27037784 0.05907107 -0.01354622
v -0.29482767 0.05907107 -0.01643891
v -0.29462215 0.05907107 -0.01635378
v -0.27252501 0.05907107 -0.00894164
v -0.27232769 0.05907107 -0.00883892
v -0.27212214 0.05907107 -0.00875378
v -0.27059001 0.05907107 -0.00868689
v -0.27037784 0.05907107 -0.00875378
v -0.08833884 0.05907107 -0.02021262
v -0.08845837 0.05907107 -0.02002500
v -0.08856109 0.05907107 -0.01982768
v -0.10809001 0.05907107 -0.01361311
v -0.10830720 0.05907107 -0.01366126
v -0.10852775 0.05907107 -0.01369030
v -0.08856109 0.05907107 -0.01767232
v -0.08845837 0.05907107 -0.01747500
v -0.08444688 0.05907107 -0.02055312
v -0.08461089 0.05907107 -0.02070341
v -0.08478738 0.05907107 -0.02083884
v -0.10875000 0.05907107 -0.01370000
v -0.10897224 0.05907107 -0.01369030
v -0.10919280 0.05907107 -0.01366126
v -0.27379030 0.05907107 -0.01137225
v -0.27379999 0.05907107 -0.01115000
v -0.27379030 0.05907107 -0.01092775
v -0.27190998 0.05907107 -0.00868689
v -0.27169281 0.05907107 -0.00863874
v -0.27147225 0.05907107 -0.00860970
v -0.27125001 0.05907107 -0.00860000
v -0.27102774 0.05907107 -0.00860970
v -0.27080721 0.05907107 -0.00863874
v -0.27017233 0.05907107 -0.00883892
v -0.26997501 0.05907107 -0.00894164
v -0.08771262 0.05907107 -0.02083884
v -0.08788911 0.05907107 -0.02070341
v -0.10628689 0.05907107 -0.01180999
v -0.10635378 0.05907107 -0.01202215
v -0.08876126 0.05907107 -0.01919280
v -0.10643891 0.05907107 -0.01222768
v -0.08871311 0.05907107 -0.01940999
v -0.08864622 0.05907107 -0.01962215
v -0.26873875 0.05907107 -0.01070720
v -0.11130000 0.05907107 -0.01115000
v -0.11129030 0.05907107 -0.01092775
v -0.26870969 0.05907107 -0.01092775
v -0.26870000 0.05907107 -0.01115000
v -0.26870969 0.05907107 -0.01137225
v -0.08478738 0.05907107 -0.01666116
v -0.08497500 0.05907107 -0.01654164
v -0.08517233 0.05907107 -0.01643891
v -0.08416116 0.05907107 -0.02021262
v -0.08429658 0.05907107 -0.02038911
v -0.08647225 0.05907107 -0.02129030
v -0.08669280 0.05907107 -0.02126126
v -0.08690999 0.05907107 -0.02121311
v -0.08805312 0.05907107 -0.02055312
v -0.08820342 0.05907107 -0.02038911
v -0.08461089 0.05907107 -0.01679659
v -0.08444688 0.05907107 -0.01694688
v -0.08429658 0.05907107 -0.01711089
v -0.08416116 0.05907107 -0.01728738
v -0.08404163 0.05907107 -0.01747500
v -0.08712215 0.05907107 -0.02114622
v -0.08732767 0.05907107 -0.02106109
v -0.08752500 0.05907107 -0.02095836
v -0.11095837 0.05907107 -0.00987500
v -0.11083884 0.05907107 -0.00968738
v -0.11070342 0.05907107 -0.00951089
v -0.08669280 0.05907107 -0.01623874
v -0.08647225 0.05907107 -0.01620970
v -0.08625000 0.05907107 -0.01620000
v -0.08602776 0.05907107 -0.01620970
v -0.08580720 0.05907107 -0.01623874
v -0.11055312 0.05907107 -0.00934688
v -0.11038911 0.05907107 -0.00919659
v -0.11021262 0.05907107 -0.00906116
v -0.10897224 0.05907107 -0.00860970
v -0.10875000 0.05907107 -0.00860000
v -0.10852775 0.05907107 -0.00860970
v -0.08559001 0.05907107 -0.01628689
v -0.08537785 0.05907107 -0.01635378
v -0.11002500 0.05907107 -0.00894164
v -0.10982767 0.05907107 -0.00883892
v -0.10962215 0.05907107 -0.00875378
v -0.10830720 0.05907107 -0.00863874
v -0.10809001 0.05907107 -0.00868689
v -0.10787785 0.05907107 -0.00875378
v -0.10940999 0.05907107 -0.00868689
v -0.10919280 0.05907107 -0.00863874
v -0.08805312 0.05907107 -0.01694688
v -0.08788911 0.05907107 -0.01679659
v -0.08771262 0.05907107 -0.01666116
v -0.08752500 0.05907107 -0.01654164
v -0.08732767 0.05907107 -0.01643891
v -0.08712215 0.05907107 -0.01635378
v -0.08690999 0.05907107 -0.01628689
f 1 2 3
f 2 4 3
f 3 4 5
f 4 6 5
f 5 6 7
f 6 8 7
f 7 8 9
f 8 10 9
f 9 10 11
f 10 12 11
f 11 12 13
f 12 14 13
f 13 14 15
f 14 16 15
f 15 16 17
f 16 18 17
f 17 18 19
f 18 20 19
f 19 20 21
f 20 22 21
f 21 22 23
f 22 24 23
f 23 24 25
f 24 26 25
f 25 26 27
f 26 28 27
f 27 28 29
f 28 30 29
f 29 30 31
f 30 32 31
f 31 32 33
f 32 34 33
f 35 36 2
f 37 38 39
f 40 41 42
f 42 43 44
f 38 45 39
f 45 46 39
f 39 46 47
f 47 48 39
f 48 49 39
f 39 49 50
f 49 51 50
f 50 51 52
f 52 53 50
f 53 54 50
f 50 54 55
f 56 57 58
f 44 59 42
f 59 60 42
f 42 60 61
f 55 62 50
f 62 63 50
f 50 63 64
f 63 65 64
f 64 65 66
f 65 67 66
f 66 67 68
f 67 69 68
f 70 42 71
f 42 72 71
f 73 74 2
f 74 75 2
f 2 75 4
f 75 76 4
f 41 77 42
f 77 78 42
f 42 78 43
f 61 79 42
f 79 80 42
f 42 80 81
f 82 83 84
f 83 85 84
f 84 85 86
f 85 87 86
f 86 87 69
f 87 88 69
f 69 88 68
f 89 90 91
f 90 92 91
f 93 94 90
f 70 95 42
f 95 96 42
f 42 96 58
f 97 2 98
f 2 99 98
f 97 100 2
f 100 101 2
f 2 101 73
f 102 18 16
f 103 104 102
f 104 105 102
f 106 107 42
f 107 108 42
f 42 108 40
f 109 110 39
f 110 111 39
f 39 111 37
f 112 113 90
f 36 114 2
f 114 115 2
f 2 115 116
f 102 16 117
f 16 14 117
f 117 14 12
f 24 22 102
f 22 20 102
f 102 20 18
f 103 102 118
f 102 119 118
f 118 119 120
f 120 121 118
f 121 122 118
f 118 122 123
f 124 125 42
f 125 126 42
f 42 126 106
f 127 24 128
f 24 102 128
f 128 102 129
f 102 105 129
f 81 130 42
f 130 131 42
f 42 131 132
f 132 133 42
f 133 134 42
f 42 134 2
f 134 135 2
f 2 135 35
f 136 137 34
f 137 138 34
f 34 138 39
f 138 139 39
f 39 139 109
f 140 141 142
f 141 143 142
f 142 143 144
f 143 145 144
f 144 145 82
f 145 146 82
f 82 146 83
f 113 147 90
f 147 148 90
f 90 148 92
f 149 150 72
f 151 152 153
f 154 155 42
f 155 156 42
f 42 156 157
f 116 158 2
f 158 159 2
f 2 159 99
f 12 10 117
f 10 8 117
f 117 8 76
f 8 6 76
f 76 6 4
f 57 160 58
f 160 161 58
f 58 161 162
f 163 164 42
f 165 166 89
f 166 167 89
f 94 168 90
f 168 169 90
f 90 169 42
f 169 170 42
f 42 170 171
f 157 172 42
f 172 173 42
f 42 173 174
f 56 58 123
f 58 175 123
f 123 175 118
f 164 176 42
f 176 177 42
f 42 177 124
f 127 178 24
f 178 179 24
f 24 179 180
f 180 181 24
f 181 182 24
f 24 182 26
f 182 183 26
f 184 185 186
f 185 187 186
f 186 187 188
f 189 190 89
f 190 191 89
f 89 191 192
f 193 194 90
f 194 195 90
f 90 195 93
f 162 196 58
f 196 197 58
f 58 197 198
f 34 32 136
f 32 30 136
f 136 30 183
f 30 28 183
f 183 28 26
f 186 199 184
f 199 200 184
f 184 200 201
f 200 202 201
f 201 202 203
f 202 204 203
f 203 204 205
f 204 206 205
f 205 206 140
f 206 207 140
f 140 207 141
f 188 208 186
f 208 209 186
f 186 209 210
f 210 211 186
f 211 212 186
f 186 212 90
f 212 213 90
f 90 213 112
f 214 215 42
f 215 216 42
f 42 216 72
f 216 217 72
f 149 72 218
f 150 219 72
f 219 220 72
f 72 220 221
f 220 222 221
f 167 223 89
f 223 224 89
f 89 224 225
f 226 227 151
f 225 228 89
f 228 229 89
f 89 229 230
f 192 231 89
f 231 232 89
f 89 232 233
f 234 235 236
f 236 237 234
f 237 238 234
f 234 238 239
f 239 240 234
f 240 241 234
f 234 241 242
f 241 243 242
f 243 244 242
f 242 244 245
f 244 246 245
f 245 246 247
f 171 248 42
f 248 249 42
f 42 249 250
f 174 251 42
f 251 252 42
f 42 252 253
f 217 254 72
f 254 255 72
f 72 255 256
f 222 220 89
f 220 257 89
f 89 257 165
f 227 258 151
f 258 259 151
f 151 259 260
f 151 153 261
f 153 262 261
f 261 262 263
f 250 264 42
f 264 265 42
f 42 265 266
f 266 267 42
f 267 268 42
f 42 268 269
f 247 270 245
f 270 271 245
f 245 271 272
f 253 273 42
f 273 274 42
f 42 274 275
f 275 276 42
f 276 277 42
f 42 277 214
f 198 278 58
f 278 279 58
f 58 279 280
f 42 281 282
f 256 283 72
f 283 284 72
f 72 284 218
f 260 285 151
f 285 286 151
f 151 286 287
f 230 288 89
f 288 289 89
f 89 289 290
f 263 291 261
f 291 292 261
f 261 292 293
f 233 294 89
f 294 295 89
f 89 295 296
f 297 298 90
f 298 299 90
f 90 299 300
f 301 302 234
f 302 303 234
f 234 303 235
f 280 304 58
f 304 305 58
f 58 305 306
f 282 307 42
f 307 308 42
f 42 308 163
f 287 309 151
f 309 310 151
f 151 310 152
f 290 311 89
f 311 312 89
f 89 312 313
f 313 314 89
f 314 315 89
f 89 315 316
f 296 317 89
f 317 318 89
f 89 318 319
f 89 320 90
f 320 321 90
f 90 321 322
f 322 323 90
f 323 324 90
f 90 324 325
f 300 326 90
f 326 327 90
f 90 327 328
f 226 151 234
f 151 329 234
f 234 329 301
f 319 330 89
f 330 331 89
f 89 331 320
f 325 332 90
f 332 333 90
f 90 333 297
f 328 334 90
f 334 335 90
f 90 335 193
f 269 336 42
f 336 337 42
f 42 337 272
f 306 338 58
f 338 339 58
f 58 339 42
f 339 340 42
f 42 340 281
f 316 341 89
f 341 293 89
f 89 293 189
f 293 292 189
f 271 342 272
f 342 343 272
f 272 343 42
f 343 344 42
f 42 344 154
f 39 345 34
f 345 33 34
f 186 346 347
f 186 347 199
f 347 348 199
f 199 348 200
f 348 349 200
f 200 349 202
f 349 350 202
f 202 350 204
f 350 351 204
f 204 351 206
f 351 352 206
f 206 352 207
f 352 353 207
f 207 353 141
f 353 354 141
f 141 354 143
f 354 355 143
f 143 355 145
f 355 356 145
f 145 356 146
f 356 357 146
f 146 357 83
f 357 358 83
f 83 358 85
f 358 359 85
f 85 359 87
f 359 360 87
f 87 360 88
f 360 361 88
f 88 361 68
f 361 362 68
f 68 362 66
f 362 363 66
f 66 363 64
f 363 364 64
f 64 364 50
f 365 366 367
f 368 369 370
f 369 371 370
f 370 371 372
f 372 373 370
f 373 374 370
f 370 374 375
f 376 377 378
f 377 379 378
f 380 370 381
f 370 382 381
f 380 383 370
f 383 384 370
f 370 384 368
f 364 385 386
f 386 387 364
f 387 388 364
f 364 388 389
f 345 390 391
f 392 393 1
f 394 377 395
f 377 396 395
f 394 397 377
f 397 398 377
f 377 398 399
f 400 401 370
f 401 402 370
f 370 402 382
f 403 361 404
f 361 360 404
f 404 360 405
f 360 359 405
f 405 359 406
f 385 364 407
f 364 363 407
f 407 363 403
f 363 362 403
f 403 362 361
f 408 379 409
f 379 410 409
f 399 411 377
f 411 412 377
f 377 412 346
f 412 413 346
f 346 413 414
f 414 415 346
f 415 416 346
f 346 416 417
f 359 358 406
f 358 357 406
f 406 357 418
f 357 356 418
f 418 356 419
f 356 355 419
f 419 355 420
f 421 422 423
f 424 425 423
f 425 426 423
f 393 427 1
f 427 428 1
f 1 428 429
f 430 431 367
f 432 433 377
f 433 434 377
f 377 434 435
f 436 437 438
f 437 439 438
f 438 439 440
f 439 375 440
f 440 375 441
f 375 374 441
f 417 442 346
f 442 443 346
f 346 443 444
f 444 445 346
f 445 446 346
f 346 446 447
f 426 448 423
f 448 449 423
f 423 449 450
f 451 452 453
f 452 423 453
f 453 423 454
f 423 450 454
f 451 455 452
f 455 456 452
f 452 456 457
f 431 458 367
f 458 459 367
f 367 459 365
f 460 461 462
f 463 464 465
f 464 466 465
f 467 468 379
f 468 469 379
f 379 469 470
f 470 471 379
f 471 472 379
f 379 472 410
f 376 473 377
f 473 474 377
f 377 474 475
f 475 476 377
f 476 477 377
f 377 477 478
f 447 479 346
f 479 480 346
f 346 480 347
f 480 481 347
f 347 481 348
f 481 482 348
f 355 354 420
f 354 353 420
f 420 353 483
f 353 352 483
f 483 352 484
f 352 351 484
f 484 351 485
f 351 350 485
f 485 350 482
f 350 349 482
f 482 349 348
f 400 370 423
f 370 486 423
f 423 486 421
f 389 487 364
f 487 488 364
f 364 488 345
f 488 489 345
f 345 489 490
f 490 491 345
f 491 492 345
f 345 492 493
f 391 9 11
f 11 13 391
f 13 15 391
f 391 15 17
f 429 494 1
f 494 495 1
f 1 495 496
f 497 498 367
f 498 499 367
f 367 499 430
f 460 462 500
f 462 501 502
f 502 503 462
f 503 504 462
f 462 504 505
f 506 377 507
f 377 508 507
f 367 509 510
f 435 511 377
f 511 512 377
f 377 512 513
f 422 514 423
f 514 515 423
f 423 515 424
f 493 516 345
f 516 517 345
f 345 517 518
f 1 3 392
f 3 5 392
f 392 5 391
f 5 7 391
f 391 7 9
f 25 27 345
f 461 519 462
f 519 520 462
f 462 520 501
f 521 522 466
f 510 523 367
f 523 524 367
f 367 524 377
f 524 525 377
f 377 525 432
f 526 527 377
f 527 528 377
f 377 528 529
f 529 530 377
f 530 531 377
f 377 531 532
f 533 534 379
f 534 535 379
f 379 535 536
f 27 29 345
f 29 31 345
f 345 31 33
f 463 465 462
f 465 537 462
f 462 537 500
f 505 538 462
f 538 539 462
f 462 539 540
f 506 541 377
f 541 542 377
f 377 542 543
f 543 544 377
f 544 545 377
f 377 545 546
f 547 548 366
f 548 549 366
f 366 549 550
f 464 551 466
f 551 552 466
f 466 552 553
f 536 554 379
f 554 555 379
f 379 555 467
f 478 556 377
f 556 557 377
f 377 557 558
f 558 559 377
f 559 437 377
f 377 437 396
f 437 436 396
f 518 560 345
f 560 561 345
f 345 561 457
f 17 19 391
f 19 21 391
f 391 21 345
f 21 23 345
f 345 23 25
f 496 562 1
f 562 563 1
f 1 563 564
f 367 565 566
f 567 568 508
f 568 569 508
f 546 570 377
f 570 571 377
f 377 571 572
f 553 573 466
f 573 574 466
f 466 574 521
f 575 576 377
f 576 577 377
f 377 577 526
f 572 578 377
f 578 579 377
f 377 579 379
f 579 580 379
f 379 580 533
f 456 581 457
f 581 582 457
f 457 582 345
f 582 583 345
f 345 583 390
f 564 584 1
f 584 585 1
f 1 585 586
f 586 587 1
f 587 588 1
f 1 588 367
f 588 589 367
f 367 589 565
f 566 590 367
f 590 591 367
f 367 591 497
f 592 593 508
f 540 594 462
f 594 595 462
f 462 595 596
f 595 597 596
f 596 597 598
f 597 508 598
f 598 508 599
f 508 569 599
f 600 601 366
f 601 602 366
f 366 602 547
f 600 603 601
f 603 604 601
f 601 604 408
f 604 605 408
f 408 605 379
f 606 367 607
f 367 608 607
f 513 609 377
f 609 610 377
f 377 610 575
f 532 611 377
f 611 612 377
f 377 612 613
f 593 614 508
f 614 615 508
f 508 615 567
f 606 616 367
f 616 617 367
f 367 617 618
f 618 619 367
f 619 620 367
f 367 620 509
f 613 621 377
f 621 622 377
f 377 622 508
f 622 623 508
f 508 623 592
f 550 624 366
f 624 625 366
f 366 625 626
f 367 627 628
f 628 629 367
f 629 630 367
f 367 630 631
f 626 632 366
f 632 633 366
f 366 633 634
f 366 635 367
f 635 636 367
f 367 636 637
f 631 638 367
f 638 639 367
f 367 639 608
f 634 640 366
f 640 641 366
f 366 641 642
f 637 643 367
f 643 644 367
f 367 644 645
f 642 646 366
f 646 647 366
f 366 647 635
f 522 648 466
f 648 649 466
f 466 649 645
f 649 650 645
f 645 650 651
f 651 652 645
f 652 653 645
f 645 653 367
f 653 654 367
f 367 654 627
f 345 39 364
f 39 50 364
f 120 582 121
f 582 581 121
f 121 581 122
f 581 456 122
f 122 456 123
f 456 455 123
f 123 455 56
f 455 451 56
f 56 451 57
f 451 453 57
f 57 453 160
f 453 454 160
f 160 454 161
f 454 450 161
f 161 450 162
f 450 449 162
f 162 449 196
f 449 448 196
f 196 448 197
f 448 426 197
f 197 426 198
f 426 425 198
f 198 425 278
f 425 424 278
f 278 424 279
f 424 515 279
f 279 515 280
f 515 514 280
f 280 514 304
f 514 422 304
f 304 422 305
f 422 421 305
f 305 421 306
f 421 486 306
f 306 486 338
f 486 370 338
f 338 370 339
f 370 375 339
f 339 375 340
f 375 439 340
f 340 439 281
f 439 437 281
f 281 437 282
f 437 559 282
f 282 559 307
f 559 558 307
f 307 558 308
f 558 557 308
f 308 557 163
f 557 556 163
f 163 556 164
f 556 478 164
f 164 478 176
f 478 477 176
f 176 477 177
f 477 476 177
f 177 476 124
f 476 475 124
f 124 475 125
f 475 474 125
f 125 474 126
f 474 473 126
f 126 473 106
f 473 376 106
f 106 376 107
f 376 378 107
f 107 378 108
f 378 379 108
f 108 379 40
f 379 605 40
f 40 605 41
f 605 604 41
f 41 604 77
f 604 603 77
f 77 603 78
f 603 600 78
f 78 600 43
f 600 366 43
f 43 366 44
f 366 365 44
f 44 365 59
f 365 459 59
f 59 459 60
f 459 458 60
f 60 458 61
f 458 431 61
f 61 431 79
f 431 430 79
f 79 430 80
f 430 499 80
f 80 499 81
f 499 498 81
f 81 498 130
f 498 497 130
f 130 497 131
f 497 591 131
f 131 591 132
f 591 590 132
f 132 590 133
f 590 566 133
f 133 566 134
f 566 565 134
f 134 565 135
f 565 589 135
f 135 589 35
f 589 588 35
f 35 588 36
f 588 587 36
f 36 587 114
f 587 586 114
f 114 586 115
f 586 585 115
f 115 585 116
f 585 584 116
f 116 584 158
f 584 564 158
f 158 564 159
f 564 563 159
f 159 563 99
f 563 562 99
f 99 562 98
f 562 496 98
f 98 496 97
f 496 495 97
f 97 495 100
f 495 494 100
f 100 494 101
f 494 429 101
f 101 429 73
f 429 428 73
f 73 428 74
f 428 427 74
f 74 427 75
f 427 393 75
f 75 393 76
f 393 392 76
f 76 392 117
f 392 391 117
f 117 391 102
f 391 390 102
f 102 390 119
f 390 583 119
f 119 583 120
f 583 582 120
f 90 377 186
f 377 346 186
f 367 42 1
f 42 2 1
f 90 42 377
f 42 367 377
f 55 387 62
f 387 386 62
f 62 386 63
f 386 385 63
f 63 385 65
f 385 407 65
f 65 407 67
f 407 403 67
f 67 403 69
f 403 404 69
f 69 404 86
f 404 405 86
f 86 405 84
f 405 406 84
f 84 406 82
f 406 418 82
f 82 418 144
f 418 419 144
f 144 419 142
f 419 420 142
f 142 420 140
f 420 483 140
f 140 483 205
f 483 484 205
f 205 484 203
f 484 485 203
f 203 485 201
f 485 482 201
f 201 482 184
f 482 481 184
f 184 481 185
f 481 480 185
f 185 480 187
f 480 479 187
f 187 479 188
f 479 447 188
f 188 447 208
f 447 446 208
f 208 446 209
f 446 445 209
f 209 445 210
f 445 444 210
f 210 444 211
f 444 443 211
f 211 443 212
f 443 442 212
f 212 442 213
f 442 417 213
f 213 417 112
f 417 416 112
f 112 416 113
f 416 415 113
f 113 415 147
f 415 414 147
f 147 414 148
f 414 413 148
f 148 413 92
f 413 412 92
f 92 412 91
f 412 411 91
f 91 411 89
f 411 399 89
f 89 399 222
f 399 398 222
f 222 398 221
f 398 397 221
f 221 397 72
f 397 394 72
f 72 394 71
f 394 395 71
f 71 395 70
f 395 396 70
f 70 396 95
f 396 436 95
f 95 436 96
f 436 438 96
f 96 438 58
f 438 440 58
f 58 440 175
f 440 441 175
f 175 441 118
f 441 374 118
f 118 374 103
f 374 373 103
f 103 373 104
f 373 372 104
f 104 372 105
f 372 371 105
f 105 371 129
f 371 369 129
f 129 369 128
f 369 368 128
f 128 368 127
f 368 384 127
f 127 384 178
f 384 383 178
f 178 383 179
f 383 380 179
f 179 380 180
f 380 381 180
f 180 381 181
f 381 382 181
f 181 382 182
f 382 402 182
f 182 402 183
f 402 401 183
f 183 401 136
f 401 400 136
f 136 400 137
f 400 423 137
f 137 423 138
f 423 452 138
f 138 452 139
f 452 457 139
f 139 457 109
f 457 561 109
f 109 561 110
f 561 560 110
f 110 560 111
f 560 518 111
f 111 518 37
f 518 517 37
f 37 517 38
f 517 516 38
f 38 516 45
f 516 493 45
f 45 493 46
f 493 492 46
f 46 492 47
f 492 491 47
f 47 491 48
f 491 490 48
f 48 490 49
f 490 489 49
f 49 489 51
f 489 488 51
f 51 488 52
f 488 487 52
f 52 487 53
f 487 389 53
f 53 389 54
f 389 388 54
f 54 388 55
f 388 387 55
f 190 463 191
f 463 462 191
f 191 462 192
f 462 596 192
f 192 596 231
f 596 598 231
f 231 598 232
f 598 599 232
f 232 599 233
f 599 569 233
f 233 569 294
f 569 568 294
f 294 568 295
f 568 567 295
f 295 567 296
f 567 615 296
f 296 615 317
f 615 614 317
f 317 614 318
f 614 593 318
f 318 593 319
f 593 592 319
f 319 592 330
f 592 623 330
f 330 623 331
f 623 622 331
f 331 622 320
f 622 621 320
f 320 621 321
f 621 613 321
f 321 613 322
f 613 612 322
f 322 612 323
f 612 611 323
f 323 611 324
f 611 532 324
f 324 532 325
f 532 531 325
f 325 531 332
f 531 530 332
f 332 530 333
f 530 529 333
f 333 529 297
f 529 528 297
f 297 528 298
f 528 527 298
f 298 527 299
f 527 526 299
f 299 526 300
f 526 577 300
f 300 577 326
f 577 576 326
f 326 576 327
f 576 575 327
f 327 575 328
f 575 610 328
f 328 610 334
f 610 609 334
f 334 609 335
f 609 513 335
f 335 513 193
f 513 512 193
f 193 512 194
f 512 511 194
f 194 511 195
f 511 435 195
f 195 435 93
f 435 434 93
f 93 434 94
f 434 433 94
f 94 433 168
f 433 432 168
f 168 432 169
f 432 525 169
f 169 525 170
f 525 524 170
f 170 524 171
f 524 523 171
f 171 523 248
f 523 510 248
f 248 510 249
f 510 509 249
f 249 509 250
f 509 620 250
f 250 620 264
f 620 619 264
f 264 619 265
f 619 618 265
f 265 618 266
f 618 617 266
f 266 617 267
f 617 616 267
f 267 616 268
f 616 606 268
f 268 606 269
f 606 607 269
f 269 607 336
f 607 608 336
f 336 608 337
f 608 639 337
f 337 639 272
f 639 638 272
f 272 638 245
f 638 631 245
f 245 631 242
f 631 630 242
f 242 630 234
f 630 629 234
f 234 629 226
f 629 628 226
f 226 628 227
f 628 627 227
f 227 627 258
f 627 654 258
f 258 654 259
f 654 653 259
f 259 653 260
f 653 652 260
f 260 652 285
f 652 651 285
f 285 651 286
f 651 650 286
f 286 650 287
f 650 649 287
f 287 649 309
f 649 648 309
f 309 648 310
f 648 522 310
f 310 522 152
f 522 521 152
f 152 521 153
f 521 574 153
f 153 574 262
f 574 573 262
f 262 573 263
f 573 553 263
f 263 553 291
f 553 552 291
f 291 552 292
f 552 551 292
f 292 551 189
f 551 464 189
f 189 464 190
f 464 463 190
f 224 601 225
f 601 408 225
f 225 408 228
f 408 409 228
f 228 409 229
f 409 410 229
f 229 410 230
f 410 472 230
f 230 472 288
f 472 471 288
f 288 471 289
f 471 470 289
f 289 470 290
f 470 469 290
f 290 469 311
f 469 468 311
f 311 468 312
f 468 467 312
f 312 467 313
f 467 555 313
f 313 555 314
f 555 554 314
f 314 554 315
f 554 536 315
f 315 536 316
f 536 535 316
f 316 535 341
f 535 534 341
f 341 534 293
f 534 533 293
f 293 533 261
f 533 580 261
f 261 580 151
f 580 579 151
f 151 579 329
f 579 578 329
f 329 578 301
f 578 572 301
f 301 572 302
f 572 571 302
f 302 571 303
f 571 570 303
f 303 570 235
f 570 546 235
f 235 546 236
f 546 545 236
f 236 545 237
f 545 544 237
f 237 544 238
f 544 543 238
f 238 543 239
f 543 542 239
f 239 542 240
f 542 541 240
f 240 541 241
f 541 506 241
f 241 506 243
f 506 507 243
f 243 507 244
f 507 508 244
f 244 508 246
f 508 597 246
f 246 597 247
f 597 595 247
f 247 595 270
f 595 594 270
f 270 594 271
f 594 540 271
f 271 540 342
f 540 539 342
f 342 539 343
f 539 538 343
f 343 538 344
f 538 505 344
f 344 505 154
f 505 504 154
f 154 504 155
f 504 503 155
f 155 503 156
f 503 502 156
f 156 502 157
f 502 501 157
f 157 501 172
f 501 520 172
f 172 520 173
f 520 519 173
f 173 519 174
f 519 461 174
f 174 461 251
f 461 460 251
f 251 460 252
f 460 500 252
f 252 500 253
f 500 537 253
f 253 537 273
f 537 465 273
f 273 465 274
f 465 466 274
f 274 466 275
f 466 645 275
f 275 645 276
f 645 644 276
f 276 644 277
f 644 643 277
f 277 643 214
f 643 637 214
f 214 637 215
f 637 636 215
f 215 636 216
f 636 635 216
f 216 635 217
f 635 647 217
f 217 647 254
f 647 646 254
f 254 646 255
f 646 642 255
f 255 642 256
f 642 641 256
f 256 641 283
f 641 640 283
f 283 640 284
f 640 634 284
f 284 634 218
f 634 633 218
f 218 633 149
f 633 632 149
f 149 632 150
f 632 626 150
f 150 626 219
f 626 625 219
f 219 625 220
f 625 624 220
f 220 624 257
f 624 550 257
f 257 550 165
f 550 549 165
f 165 549 166
f 549 548 166
f 166 548 167
f 548 547 167
f 167 547 223
f 547 602 223
f 223 602 224
f 602 601 224

