# https://github.com/mikedh/trimesh
v -0.06010000 0.02707107 -0.00895000
v -0.30000001 0.02707107 -0.00895000
v -0.30000001 0.02707487 -0.00903716
v -0.06010000 0.02707487 -0.00903716
v -0.30000001 0.02708626 -0.00912365
v -0.06010000 0.02708626 -0.00912365
v -0.30000001 0.02710514 -0.00920882
v -0.06010000 0.02710514 -0.00920882
v -0.30000001 0.02713137 -0.00929202
v -0.06010000 0.02713137 -0.00929202
v -0.30000001 0.02716476 -0.00937262
v -0.06010000 0.02716476 -0.00937262
v -0.30000001 0.02720504 -0.00945000
v -0.06010000 0.02720504 -0.00945000
v -0.30000001 0.02725192 -0.00952358
v -0.06010000 0.02725192 -0.00952358
v -0.30000001 0.02730502 -0.00959279
v -0.06010000 0.02730502 -0.00959279
v -0.30000001 0.02736396 -0.00965711
v -0.06010000 0.02736396 -0.00965711
v -0.30000001 0.02742828 -0.00971604
v -0.06010000 0.02742828 -0.00971604
v -0.30000001 0.02749749 -0.00976915
v -0.06010000 0.02749749 -0.00976915
v -0.30000001 0.02757107 -0.00981603
v -0.06010000 0.02757107 -0.00981603
v -0.30000001 0.02764845 -0.00985631
v -0.06010000 0.02764845 -0.00985631
v -0.30000001 0.02772905 -0.00988969
v -0.06010000 0.02772905 -0.00988969
v -0.30000001 0.02781225 -0.00991593
v -0.06010000 0.02781225 -0.00991593
v -0.30000001 0.02789742 -0.00993481
v -0.06010000 0.02789742 -0.00993481
v -0.30000001 0.02798391 -0.00994619
v -0.06010000 0.02798391 -0.00994619
v -0.30000001 0.02807107 -0.00995000
v -0.06010000 0.02807107 -0.00995000
v -0.06010000 0.02707107 -0.00436500
v -0.30000001 0.02707107 -0.00436500
v -0.06010000 0.04527107 0.00550000
v -0.06010000 0.04527107 0.00341855
v -0.06010000 0.04587462 0.00316855
v -0.06010000 0.03390251 -0.00880355
v -0.06010000 0.03365251 -0.00820000
v -0.06010000 0.03157107 -0.00820000
v -0.06010000 0.03398475 -0.00843263
v -0.06010000 0.03397294 -0.00840414
v -0.06010000 0.03395870 -0.00837678
v -0.06010000 0.03394213 -0.00835076
v -0.06010000 0.03368333 -0.00820135
v -0.06010000 0.04707107 -0.00895000
v -0.06010000 0.04707107 -0.00436500
v -0.06010000 0.04527107 -0.00550000
v -0.06010000 0.04587462 -0.00316855
v -0.06010000 0.04527107 -0.00341855
v -0.06010000 0.04527241 -0.00338774
v -0.06010000 0.04014812 -0.00864506
v -0.06010000 0.04015739 -0.00867448
v -0.06010000 0.04048962 -0.00820000
v -0.06010000 0.03395870 -0.00873033
v -0.06010000 0.03397294 -0.00870297
v -0.06010000 0.04530419 -0.00326914
v -0.06010000 0.04529239 -0.00329763
v -0.06010000 0.04045881 0.00820135
v -0.06010000 0.04048962 0.00820000
v -0.06010000 0.04020001 0.00835076
v -0.06010000 0.03392335 -0.00878081
v -0.06010000 0.03394213 -0.00875634
v -0.06010000 0.03398475 -0.00867448
v -0.06010000 0.03399402 -0.00864506
v -0.06010000 0.03400069 -0.00861495
v -0.06010000 0.03400472 -0.00858437
v -0.06010000 0.03400607 -0.00855355
v -0.06010000 0.03400472 -0.00852274
v -0.06010000 0.03400069 -0.00849216
v -0.06010000 0.03399402 -0.00846205
v -0.06010000 0.04535379 -0.00319129
v -0.06010000 0.04533501 -0.00321576
v -0.06010000 0.04580140 -0.00311237
v -0.06010000 0.03157107 0.00820000
v -0.06010000 0.03365251 0.00820000
v -0.06010000 0.03390251 0.00880355
v -0.06010000 0.04020001 -0.00835076
v -0.06010000 0.04018344 -0.00837678
v -0.06010000 0.04014812 -0.00846205
v -0.06010000 0.04014144 -0.00849216
v -0.06010000 0.04013741 -0.00852274
v -0.06010000 0.04013607 -0.00855355
v -0.06010000 0.04013741 -0.00858437
v -0.06010000 0.04014144 -0.00861495
v -0.06010000 0.04016919 -0.00870297
v -0.06010000 0.04018344 -0.00873033
v -0.06010000 0.04020001 -0.00875634
v -0.06010000 0.04582741 -0.00312894
v -0.06010000 0.04531844 -0.00324178
v -0.06010000 0.04528312 -0.00332705
v -0.06010000 0.04527644 -0.00335716
v -0.06010000 0.04016919 -0.00840414
v -0.06010000 0.04015739 -0.00843263
v -0.06010000 0.04021879 -0.00878081
v -0.06010000 0.04023962 -0.00880355
v -0.06010000 0.04257107 -0.00820000
v -0.06010000 0.04138607 -0.00995000
v -0.06010000 0.04607107 -0.00995000
v -0.06010000 0.03387978 -0.00828272
v -0.06010000 0.03385530 -0.00826394
v -0.06010000 0.03390251 -0.00830355
v -0.06010000 0.03382929 -0.00824737
v -0.06010000 0.03392335 -0.00832629
v -0.06010000 0.03380193 -0.00823313
v -0.06010000 0.03377344 -0.00822132
v -0.06010000 0.03374402 -0.00821205
v -0.06010000 0.03371391 -0.00820537
v -0.06010000 0.04607107 0.01000000
v -0.06010000 0.04143607 0.01000000
v -0.06010000 0.04257107 0.00820000
v -0.06010000 0.04023962 0.00880355
v -0.06010000 0.04021879 0.00878081
v -0.06010000 0.04020001 0.00875634
v -0.06010000 0.04018344 0.00873033
v -0.06010000 0.04016919 0.00870297
v -0.06010000 0.02887107 0.00341855
v -0.06010000 0.02887107 0.00550000
v -0.06010000 0.02826751 0.00316855
v -0.06010000 0.02707107 0.00436500
v -0.06010000 0.04527241 0.00338774
v -0.06010000 0.04527644 0.00335716
v -0.06010000 0.04528312 0.00332705
v -0.06010000 0.04585188 -0.00314772
v -0.06010000 0.02826751 -0.00316855
v -0.06010000 0.02887107 -0.00341855
v -0.06010000 0.02886972 -0.00338774
v -0.06010000 0.04529239 0.00329763
v -0.06010000 0.04530419 0.00326914
v -0.06010000 0.04531844 0.00324178
v -0.06010000 0.04021879 -0.00832629
v -0.06010000 0.04045881 -0.00820135
v -0.06010000 0.04042823 -0.00820537
v -0.06010000 0.04542183 -0.00312894
v -0.06010000 0.04539736 -0.00314772
v -0.06010000 0.04537462 -0.00316855
v -0.06010000 0.04014144 0.00861495
v -0.06010000 0.04013741 0.00858437
v -0.06010000 0.04013607 0.00855355
v -0.06010000 0.04013741 0.00852274
v -0.06010000 0.04014144 0.00849216
v -0.06010000 0.04014812 0.00846205
v -0.06010000 0.04015739 0.00843263
v -0.06010000 0.02885902 0.00332705
v -0.06010000 0.02886570 0.00335716
v -0.06010000 0.02886972 0.00338774
v -0.06010000 0.02887107 -0.00550000
v -0.06010000 0.03394213 0.00835076
v -0.06010000 0.03395870 0.00837678
v -0.06010000 0.04533501 0.00321576
v -0.06010000 0.04535379 0.00319129
v -0.06010000 0.04537462 0.00316855
v -0.06010000 0.04039811 -0.00821205
v -0.06010000 0.04036870 -0.00822132
v -0.06010000 0.04015739 0.00867448
v -0.06010000 0.04014812 0.00864506
v -0.06010000 0.04016919 0.00840414
v -0.06010000 0.04018344 0.00837678
v -0.06010000 0.04707107 0.00900000
v -0.06010000 0.04706726 0.00908716
v -0.06010000 0.04705587 0.00917365
v -0.06010000 0.04703699 0.00925882
v -0.06010000 0.04701076 0.00934202
v -0.06010000 0.04697737 0.00942262
v -0.06010000 0.04693709 0.00950000
v -0.06010000 0.03397294 0.00840414
v -0.06010000 0.03398475 0.00843263
v -0.06010000 0.03399402 0.00846205
v -0.06010000 0.03400069 0.00849216
v -0.06010000 0.03400472 0.00852274
v -0.06010000 0.03400607 0.00855355
v -0.06010000 0.03400472 0.00858437
v -0.06010000 0.03400069 0.00861495
v -0.06010000 0.03399402 0.00864506
v -0.06010000 0.04034020 -0.00823313
v -0.06010000 0.04031285 -0.00824737
v -0.06010000 0.04028683 -0.00826394
v -0.06010000 0.04577404 -0.00309813
v -0.06010000 0.04574554 -0.00308632
v -0.06010000 0.04544785 -0.00311237
v -0.06010000 0.04547520 -0.00309813
v -0.06010000 0.02872030 0.00312894
v -0.06010000 0.02874477 0.00314772
v -0.06010000 0.02829025 0.00314772
v -0.06010000 0.03270607 0.01000000
v -0.06010000 0.02807107 0.01000000
v -0.06010000 0.03157107 0.00677279
v -0.06010000 0.04707107 0.00436500
v -0.06010000 0.04384386 0.00550000
v -0.06010000 0.03398475 0.00867448
v -0.06010000 0.03397294 0.00870297
v -0.06010000 0.03395870 0.00873033
v -0.06010000 0.03394213 0.00875634
v -0.06010000 0.03392335 0.00878081
v -0.06010000 0.04026236 -0.00828272
v -0.06010000 0.04023962 -0.00830355
v -0.06010000 0.04565544 -0.00306635
v -0.06010000 0.04562462 -0.00306500
v -0.06010000 0.04559381 -0.00306635
v -0.06010000 0.04026236 0.00828272
v -0.06010000 0.04028683 0.00826394
v -0.06010000 0.04023962 0.00830355
v -0.06010000 0.04031285 0.00824737
v -0.06010000 0.04021879 0.00832629
v -0.06010000 0.04034020 0.00823313
v -0.06010000 0.04036870 0.00822132
v -0.06010000 0.04039811 0.00821205
v -0.06010000 0.04042823 0.00820537
v -0.06010000 0.02798391 0.00999619
v -0.06010000 0.02789742 0.00998481
v -0.06010000 0.02764845 0.00990631
v -0.06010000 0.02757107 0.00986603
v -0.06010000 0.02749749 0.00981915
v -0.06010000 0.02708626 0.00917365
v -0.06010000 0.02707487 0.00908716
v -0.06010000 0.02707107 0.00900000
v -0.06010000 0.04689022 0.00957358
v -0.06010000 0.04683711 0.00964279
v -0.06010000 0.04677818 0.00970711
v -0.06010000 0.02886570 -0.00335716
v -0.06010000 0.02885902 -0.00332705
v -0.06010000 0.02884975 -0.00329763
v -0.06010000 0.02883794 -0.00326914
v -0.06010000 0.02882370 -0.00324178
v -0.06010000 0.02880713 -0.00321576
v -0.06010000 0.03392335 0.00832629
v -0.06010000 0.03368333 0.00820135
v -0.06010000 0.03371391 0.00820537
v -0.06010000 0.04544785 0.00311237
v -0.06010000 0.04547520 0.00309813
v -0.06010000 0.04568601 0.00307037
v -0.06010000 0.04550370 0.00308632
v -0.06010000 0.04565544 0.00306635
v -0.06010000 0.04562462 0.00306500
v -0.06010000 0.04542183 0.00312894
v -0.06010000 0.04571613 0.00307705
v -0.06010000 0.04574554 0.00308632
v -0.06010000 0.04577404 0.00309813
v -0.06010000 0.04580140 0.00311237
v -0.06010000 0.04582741 0.00312894
v -0.06010000 0.04539736 0.00314772
v -0.06010000 0.04585188 0.00314772
v -0.06010000 0.04571613 -0.00307705
v -0.06010000 0.04568601 -0.00307037
v -0.06010000 0.04553311 -0.00307705
v -0.06010000 0.04556323 -0.00307037
v -0.06010000 0.04550370 -0.00308632
v -0.06010000 0.02880713 0.00321576
v -0.06010000 0.02882370 0.00324178
v -0.06010000 0.02883794 0.00326914
v -0.06010000 0.02884975 0.00329763
v -0.06010000 0.02781225 0.00996593
v -0.06010000 0.02772905 0.00993969
v -0.06010000 0.02742828 0.00976604
v -0.06010000 0.02736396 0.00970711
v -0.06010000 0.02730502 0.00964279
v -0.06010000 0.02716476 0.00942262
v -0.06010000 0.02713137 0.00934202
v -0.06010000 0.02710514 0.00925882
v -0.06010000 0.02878835 -0.00319129
v -0.06010000 0.02876751 -0.00316855
v -0.06010000 0.02874477 -0.00314772
v -0.06010000 0.02872030 -0.00312894
v -0.06010000 0.02869429 -0.00311237
v -0.06010000 0.02866693 -0.00309813
v -0.06010000 0.03374402 0.00821205
v -0.06010000 0.03377344 0.00822132
v -0.06010000 0.04553311 0.00307705
v -0.06010000 0.04556323 0.00307037
v -0.06010000 0.04559381 0.00306635
v -0.06010000 0.02876751 0.00316855
v -0.06010000 0.02878835 0.00319129
v -0.06010000 0.03029828 -0.00550000
v -0.06010000 0.03157107 -0.00677279
v -0.06010000 0.03275607 -0.00995000
v -0.06010000 0.03317107 -0.00262721
v -0.06010000 0.03444386 -0.00390000
v -0.06010000 0.03969828 -0.00390000
v -0.06010000 0.04671386 0.00976604
v -0.06010000 0.04664464 0.00981915
v -0.06010000 0.04657107 0.00986603
v -0.06010000 0.04649369 0.00990631
v -0.06010000 0.04641309 0.00993969
v -0.06010000 0.04632989 0.00996593
v -0.06010000 0.04624471 0.00998481
v -0.06010000 0.04615822 0.00999619
v -0.06010000 0.02839659 -0.00308632
v -0.06010000 0.02836810 -0.00309813
v -0.06010000 0.02860902 -0.00307705
v -0.06010000 0.02834074 -0.00311237
v -0.06010000 0.02831472 -0.00312894
v -0.06010000 0.02863844 -0.00308632
v -0.06010000 0.02829025 -0.00314772
v -0.06010000 0.03380193 0.00823313
v -0.06010000 0.03382929 0.00824737
v -0.06010000 0.03385530 0.00826394
v -0.06010000 0.02831472 0.00312894
v -0.06010000 0.02866693 0.00309813
v -0.06010000 0.02869429 0.00311237
v -0.06010000 0.02834074 0.00311237
v -0.06010000 0.02836810 0.00309813
v -0.06010000 0.02839659 0.00308632
v -0.06010000 0.04693709 -0.00945000
v -0.06010000 0.04697737 -0.00937262
v -0.06010000 0.03387978 0.00828272
v -0.06010000 0.03390251 0.00830355
v -0.06010000 0.02842601 0.00307705
v -0.06010000 0.02845612 0.00307037
v -0.06010000 0.02848670 0.00306635
v -0.06010000 0.04657107 -0.00981603
v -0.06010000 0.04664464 -0.00976915
v -0.06010000 0.04671386 -0.00971604
v -0.06010000 0.04677818 -0.00965711
v -0.06010000 0.04683711 -0.00959279
v -0.06010000 0.04689022 -0.00952358
v -0.06010000 0.04701076 -0.00929202
v -0.06010000 0.04703699 -0.00920882
v -0.06010000 0.04705587 -0.00912365
v -0.06010000 0.02725192 0.00957358
v -0.06010000 0.02720504 0.00950000
v -0.06010000 0.02857891 -0.00307037
v -0.06010000 0.02854833 -0.00306635
v -0.06010000 0.02851751 -0.00306500
v -0.06010000 0.02848670 -0.00306635
v -0.06010000 0.02845612 -0.00307037
v -0.06010000 0.02842601 -0.00307705
v -0.06010000 0.02851751 0.00306500
v -0.06010000 0.02854833 0.00306635
v -0.06010000 0.02863844 0.00308632
v -0.06010000 0.02857891 0.00307037
v -0.06010000 0.02860902 0.00307705
v -0.06010000 0.04384386 -0.00550000
v -0.06010000 0.04706726 -0.00903716
v -0.06010000 0.03029828 0.00550000
v -0.06010000 0.03444386 0.00390000
v -0.06010000 0.03317107 0.00262721
v -0.06010000 0.04615822 -0.00994619
v -0.06010000 0.04624471 -0.00993481
v -0.06010000 0.04632989 -0.00991593
v -0.06010000 0.04641309 -0.00988969
v -0.06010000 0.04649369 -0.00985631
v -0.06010000 0.04097107 -0.00262721
v -0.06010000 0.04257107 -0.00677279
v -0.06010000 0.03942030 -0.00085505
v -0.06010000 0.03933684 -0.00105655
v -0.06010000 0.03923613 -0.00125000
v -0.06010000 0.03911895 -0.00143394
v -0.06010000 0.03502319 -0.00143394
v -0.06010000 0.03490600 -0.00125000
v -0.06010000 0.03472184 0.00085505
v -0.06010000 0.03480530 0.00105655
v -0.06010000 0.03490600 0.00125000
v -0.06010000 0.03502319 0.00143394
v -0.06010000 0.03515596 0.00160697
v -0.06010000 0.03530330 0.00176777
v -0.06010000 0.03942030 0.00085505
v -0.06010000 0.03948588 0.00064705
v -0.06010000 0.03465625 -0.00064705
v -0.06010000 0.03460905 -0.00043412
v -0.06010000 0.03458058 -0.00021789
v -0.06010000 0.03457107 -0.00000000
v -0.06010000 0.03546410 0.00191511
v -0.06010000 0.03563713 0.00204788
v -0.06010000 0.03582107 0.00216506
v -0.06010000 0.03911895 0.00143394
v -0.06010000 0.03923613 0.00125000
v -0.06010000 0.03969828 0.00390000
v -0.06010000 0.03933684 0.00105655
v -0.06010000 0.04257107 0.00677279
v -0.06010000 0.04097107 0.00262721
v -0.06010000 0.03957107 -0.00000000
v -0.06010000 0.03956155 -0.00021789
v -0.06010000 0.03850501 -0.00204788
v -0.06010000 0.03832107 -0.00216506
v -0.06010000 0.03480530 -0.00105655
v -0.06010000 0.03472184 -0.00085505
v -0.06010000 0.03458058 0.00021789
v -0.06010000 0.03460905 0.00043412
v -0.06010000 0.03465625 0.00064705
v -0.06010000 0.03953309 0.00043412
v -0.06010000 0.03956155 0.00021789
v -0.06010000 0.03953309 -0.00043412
v -0.06010000 0.03948588 -0.00064705
v -0.06010000 0.03898618 -0.00160697
v -0.06010000 0.03883883 -0.00176777
v -0.06010000 0.03867804 -0.00191511
v -0.06010000 0.03812761 -0.00226577
v -0.06010000 0.03792612 -0.00234923
v -0.06010000 0.03771812 -0.00241481
v -0.06010000 0.03728896 0.00249049
v -0.06010000 0.03750519 0.00246202
v -0.06010000 0.03750519 -0.00246202
v -0.06010000 0.03728896 -0.00249049
v -0.06010000 0.03707107 -0.00250000
v -0.06010000 0.03546410 -0.00191511
v -0.06010000 0.03530330 -0.00176777
v -0.06010000 0.03515596 -0.00160697
v -0.06010000 0.03621602 -0.00234923
v -0.06010000 0.03601452 -0.00226577
v -0.06010000 0.03685318 -0.00249049
v -0.06010000 0.03663695 -0.00246202
v -0.06010000 0.03642402 -0.00241481
v -0.06010000 0.03582107 -0.00216506
v -0.06010000 0.03563713 -0.00204788
v -0.06010000 0.03601452 0.00226577
v -0.06010000 0.03621602 0.00234923
v -0.06010000 0.03642402 0.00241481
v -0.06010000 0.03663695 0.00246202
v -0.06010000 0.03685318 0.00249049
v -0.06010000 0.03707107 0.00250000
v -0.06010000 0.03812761 0.00226577
v -0.06010000 0.03832107 0.00216506
v -0.06010000 0.03850501 0.00204788
v -0.06010000 0.03867804 0.00191511
v -0.06010000 0.03883883 0.00176777
v -0.06010000 0.03898618 0.00160697
v -0.06010000 0.03771812 0.00241481
v -0.06010000 0.03792612 0.00234923
v -0.30000001 0.04607107 -0.00995000
v -0.30000001 0.04615822 -0.00994619
v -0.30000001 0.04624471 -0.00993481
v -0.30000001 0.04632989 -0.00991593
v -0.30000001 0.04641309 -0.00988969
v -0.30000001 0.04649369 -0.00985631
v -0.30000001 0.04657107 -0.00981603
v -0.30000001 0.04664464 -0.00976915
v -0.30000001 0.04671386 -0.00971604
v -0.30000001 0.04677818 -0.00965711
v -0.30000001 0.04683711 -0.00959279
v -0.30000001 0.04689022 -0.00952358
v -0.30000001 0.04693709 -0.00945000
v -0.30000001 0.04697737 -0.00937262
v -0.30000001 0.04701076 -0.00929202
v -0.30000001 0.04703699 -0.00920882
v -0.30000001 0.04705587 -0.00912365
v -0.30000001 0.04706726 -0.00903716
v -0.30000001 0.04707107 -0.00895000
v -0.30000001 0.04138607 -0.00995000
v -0.30000001 0.02807107 0.01000000
v -0.30000001 0.02798391 0.00999619
v -0.30000001 0.02789742 0.00998481
v -0.30000001 0.02781225 0.00996593
v -0.30000001 0.02772905 0.00993969
v -0.30000001 0.02764845 0.00990631
v -0.30000001 0.02757107 0.00986603
v -0.30000001 0.02749749 0.00981915
v -0.30000001 0.02742828 0.00976604
v -0.30000001 0.02736396 0.00970711
v -0.30000001 0.02730502 0.00964279
v -0.30000001 0.02725192 0.00957358
v -0.30000001 0.02720504 0.00950000
v -0.30000001 0.02716476 0.00942262
v -0.30000001 0.02713137 0.00934202
v -0.30000001 0.02710514 0.00925882
v -0.30000001 0.02708626 0.00917365
v -0.30000001 0.02707487 0.00908716
v -0.30000001 0.02707107 0.00900000
v -0.30000001 0.03270607 0.01000000
v -0.30000001 0.04607107 0.01000000
v -0.30000001 0.04615822 0.00999619
v -0.30000001 0.04624471 0.00998481
v -0.30000001 0.04632989 0.00996593
v -0.30000001 0.04641309 0.00993969
v -0.30000001 0.04649369 0.00990631
v -0.30000001 0.04657107 0.00986603
v -0.30000001 0.04664464 0.00981915
v -0.30000001 0.04671386 0.00976604
v -0.30000001 0.04677818 0.00970711
v -0.30000001 0.04683711 0.00964279
v -0.30000001 0.04689022 0.00957358
v -0.30000001 0.04693709 0.00950000
v -0.30000001 0.04697737 0.00942262
v -0.30000001 0.04701076 0.00934202
v -0.30000001 0.04703699 0.00925882
v -0.30000001 0.04705587 0.00917365
v -0.30000001 0.04706726 0.00908716
v -0.30000001 0.04707107 0.00900000
v -0.30000001 0.04143607 0.01000000
v -0.30000001 0.03317107 0.00262721
v -0.30000001 0.03317107 -0.00262721
v -0.30000001 0.03029828 -0.00550000
v -0.30000001 0.02887107 -0.00550000
v -0.30000001 0.02887107 -0.00341855
v -0.30000001 0.02826751 -0.00316855
v -0.30000001 0.02829025 -0.00314772
v -0.30000001 0.02831472 -0.00312894
v -0.30000001 0.02834074 -0.00311237
v -0.30000001 0.02836810 -0.00309813
v -0.30000001 0.02839659 -0.00308632
v -0.30000001 0.02842601 -0.00307705
v -0.30000001 0.02845612 -0.00307037
v -0.30000001 0.02848670 -0.00306635
v -0.30000001 0.02851751 -0.00306500
v -0.30000001 0.02854833 -0.00306635
v -0.30000001 0.02857891 -0.00307037
v -0.30000001 0.02860902 -0.00307705
v -0.30000001 0.02863844 -0.00308632
v -0.30000001 0.02866693 -0.00309813
v -0.30000001 0.02869429 -0.00311237
v -0.30000001 0.02872030 -0.00312894
v -0.30000001 0.02874477 -0.00314772
v -0.30000001 0.02876751 -0.00316855
v -0.30000001 0.02878835 -0.00319129
v -0.30000001 0.02880713 -0.00321576
v -0.30000001 0.02882370 -0.00324178
v -0.30000001 0.02883794 -0.00326914
v -0.30000001 0.02884975 -0.00329763
v -0.30000001 0.02885902 -0.00332705
v -0.30000001 0.02886570 -0.00335716
v -0.30000001 0.02886972 -0.00338774
v -0.30000001 0.02707107 0.00436500
v -0.30000001 0.02826751 0.00316855
v -0.30000001 0.02887107 0.00341855
v -0.30000001 0.02886972 0.00338774
v -0.30000001 0.02886570 0.00335716
v -0.30000001 0.02885902 0.00332705
v -0.30000001 0.02884975 0.00329763
v -0.30000001 0.02883794 0.00326914
v -0.30000001 0.02882370 0.00324178
v -0.30000001 0.02880713 0.00321576
v -0.30000001 0.02878835 0.00319129
v -0.30000001 0.02876751 0.00316855
v -0.30000001 0.02874477 0.00314772
v -0.30000001 0.02872030 0.00312894
v -0.30000001 0.02869429 0.00311237
v -0.30000001 0.02866693 0.00309813
v -0.30000001 0.02863844 0.00308632
v -0.30000001 0.02860902 0.00307705
v -0.30000001 0.02857891 0.00307037
v -0.30000001 0.02854833 0.00306635
v -0.30000001 0.02851751 0.00306500
v -0.30000001 0.02848670 0.00306635
v -0.30000001 0.02845612 0.00307037
v -0.30000001 0.02842601 0.00307705
v -0.30000001 0.02839659 0.00308632
v -0.30000001 0.02836810 0.00309813
v -0.30000001 0.02834074 0.00311237
v -0.30000001 0.02831472 0.00312894
v -0.30000001 0.02829025 0.00314772
v -0.30000001 0.02887107 0.00550000
v -0.30000001 0.03029828 0.00550000
v -0.30000001 0.04097107 -0.00262721
v -0.30000001 0.04097107 0.00262721
v -0.30000001 0.04384386 0.00550000
v -0.30000001 0.04527107 0.00550000
v -0.30000001 0.03969828 -0.00390000
v -0.30000001 0.04257107 -0.00677279
v -0.30000001 0.04257107 -0.00820000
v -0.30000001 0.04048962 -0.00820000
v -0.30000001 0.04023962 -0.00880355
v -0.30000001 0.04021879 -0.00878081
v -0.30000001 0.04020001 -0.00875634
v -0.30000001 0.04018344 -0.00873033
v -0.30000001 0.04016919 -0.00870297
v -0.30000001 0.04015739 -0.00867448
v -0.30000001 0.04014812 -0.00864506
v -0.30000001 0.04014144 -0.00861495
v -0.30000001 0.04013741 -0.00858437
v -0.30000001 0.04013607 -0.00855355
v -0.30000001 0.04013741 -0.00852274
v -0.30000001 0.04014144 -0.00849216
v -0.30000001 0.04014812 -0.00846205
v -0.30000001 0.04015739 -0.00843263
v -0.30000001 0.04016919 -0.00840414
v -0.30000001 0.04018344 -0.00837678
v -0.30000001 0.04020001 -0.00835076
v -0.30000001 0.04021879 -0.00832629
v -0.30000001 0.04023962 -0.00830355
v -0.30000001 0.04026236 -0.00828272
v -0.30000001 0.04028683 -0.00826394
v -0.30000001 0.04031285 -0.00824737
v -0.30000001 0.04034020 -0.00823313
v -0.30000001 0.04036870 -0.00822132
v -0.30000001 0.04039811 -0.00821205
v -0.30000001 0.04042823 -0.00820537
v -0.30000001 0.04045881 -0.00820135
v -0.30000001 0.03275607 -0.00995000
v -0.30000001 0.03390251 -0.00880355
v -0.30000001 0.03365251 -0.00820000
v -0.30000001 0.03368333 -0.00820135
v -0.30000001 0.03371391 -0.00820537
v -0.30000001 0.03374402 -0.00821205
v -0.30000001 0.03377344 -0.00822132
v -0.30000001 0.03380193 -0.00823313
v -0.30000001 0.03382929 -0.00824737
v -0.30000001 0.03385530 -0.00826394
v -0.30000001 0.03387978 -0.00828272
v -0.30000001 0.03390251 -0.00830355
v -0.30000001 0.03392335 -0.00832629
v -0.30000001 0.03394213 -0.00835076
v -0.30000001 0.03395870 -0.00837678
v -0.30000001 0.03397294 -0.00840414
v -0.30000001 0.03398475 -0.00843263
v -0.30000001 0.03399402 -0.00846205
v -0.30000001 0.03400069 -0.00849216
v -0.30000001 0.03400472 -0.00852274
v -0.30000001 0.03400607 -0.00855355
v -0.30000001 0.03400472 -0.00858437
v -0.30000001 0.03400069 -0.00861495
v -0.30000001 0.03399402 -0.00864506
v -0.30000001 0.03398475 -0.00867448
v -0.30000001 0.03397294 -0.00870297
v -0.30000001 0.03395870 -0.00873033
v -0.30000001 0.03394213 -0.00875634
v -0.30000001 0.03392335 -0.00878081
v -0.30000001 0.03157107 -0.00820000
v -0.30000001 0.03157107 -0.00677279
v -0.30000001 0.03444386 -0.00390000
v -0.30000001 0.04707107 0.00436500
v -0.30000001 0.04587462 0.00316855
v -0.30000001 0.04527644 0.00335716
v -0.30000001 0.04527241 0.00338774
v -0.30000001 0.04527107 0.00341855
v -0.30000001 0.04018344 0.00873033
v -0.30000001 0.04020001 0.00875634
v -0.30000001 0.04048962 0.00820000
v -0.30000001 0.03394213 0.00875634
v -0.30000001 0.03395870 0.00873033
v -0.30000001 0.03365251 0.00820000
v -0.30000001 0.03157107 0.00820000
v -0.30000001 0.04021879 0.00878081
v -0.30000001 0.04023962 0.00880355
v -0.30000001 0.04257107 0.00820000
v -0.30000001 0.03390251 0.00880355
v -0.30000001 0.03392335 0.00878081
v -0.30000001 0.03397294 0.00870297
v -0.30000001 0.03398475 0.00867448
v -0.30000001 0.03399402 0.00864506
v -0.30000001 0.03400069 0.00861495
v -0.30000001 0.03400472 0.00858437
v -0.30000001 0.03400607 0.00855355
v -0.30000001 0.03400472 0.00852274
v -0.30000001 0.03400069 0.00849216
v -0.30000001 0.03399402 0.00846205
v -0.30000001 0.03398475 0.00843263
v -0.30000001 0.03397294 0.00840414
v -0.30000001 0.03395870 0.00837678
v -0.30000001 0.04537462 0.00316855
v -0.30000001 0.04535379 0.00319129
v -0.30000001 0.04527107 -0.00550000
v -0.30000001 0.04527107 -0.00341855
v -0.30000001 0.04587462 -0.00316855
v -0.30000001 0.04527241 -0.00338774
v -0.30000001 0.04527644 -0.00335716
v -0.30000001 0.04014812 0.00846205
v -0.30000001 0.04014144 0.00849216
v -0.30000001 0.04013741 0.00852274
v -0.30000001 0.04013607 0.00855355
v -0.30000001 0.03394213 0.00835076
v -0.30000001 0.03392335 0.00832629
v -0.30000001 0.03368333 0.00820135
v -0.30000001 0.04530419 0.00326914
v -0.30000001 0.04529239 0.00329763
v -0.30000001 0.04528312 0.00332705
v -0.30000001 0.04528312 -0.00332705
v -0.30000001 0.04529239 -0.00329763
v -0.30000001 0.04530419 -0.00326914
v -0.30000001 0.04018344 0.00837678
v -0.30000001 0.04020001 0.00835076
v -0.30000001 0.04045881 0.00820135
v -0.30000001 0.04016919 0.00840414
v -0.30000001 0.04015739 0.00843263
v -0.30000001 0.04013741 0.00858437
v -0.30000001 0.04014144 0.00861495
v -0.30000001 0.04014812 0.00864506
v -0.30000001 0.03385530 0.00826394
v -0.30000001 0.03382929 0.00824737
v -0.30000001 0.03371391 0.00820537
v -0.30000001 0.04539736 0.00314772
v -0.30000001 0.04533501 0.00321576
v -0.30000001 0.04531844 0.00324178
v -0.30000001 0.04015739 0.00867448
v -0.30000001 0.04016919 0.00870297
v -0.30000001 0.04582741 -0.00312894
v -0.30000001 0.04533501 -0.00321576
v -0.30000001 0.04580140 -0.00311237
v -0.30000001 0.04535379 -0.00319129
v -0.30000001 0.04537462 -0.00316855
v -0.30000001 0.04531844 -0.00324178
v -0.30000001 0.04585188 -0.00314772
v -0.30000001 0.04042823 0.00820537
v -0.30000001 0.04039811 0.00821205
v -0.30000001 0.04036870 0.00822132
v -0.30000001 0.04026236 0.00828272
v -0.30000001 0.04023962 0.00830355
v -0.30000001 0.04028683 0.00826394
v -0.30000001 0.04031285 0.00824737
v -0.30000001 0.04034020 0.00823313
v -0.30000001 0.04021879 0.00832629
v -0.30000001 0.03387978 0.00828272
v -0.30000001 0.03380193 0.00823313
v -0.30000001 0.03377344 0.00822132
v -0.30000001 0.03374402 0.00821205
v -0.30000001 0.04565544 0.00306635
v -0.30000001 0.04562462 0.00306500
v -0.30000001 0.04550370 0.00308632
v -0.30000001 0.04539736 -0.00314772
v -0.30000001 0.04542183 -0.00312894
v -0.30000001 0.04577404 -0.00309813
v -0.30000001 0.03390251 0.00830355
v -0.30000001 0.04542183 0.00312894
v -0.30000001 0.04585188 0.00314772
v -0.30000001 0.04582741 0.00312894
v -0.30000001 0.04580140 0.00311237
v -0.30000001 0.04577404 0.00309813
v -0.30000001 0.04574554 0.00308632
v -0.30000001 0.04571613 0.00307705
v -0.30000001 0.04568601 0.00307037
v -0.30000001 0.04544785 0.00311237
v -0.30000001 0.04547520 0.00309813
v -0.30000001 0.04559381 0.00306635
v -0.30000001 0.04556323 0.00307037
v -0.30000001 0.04553311 0.00307705
v -0.30000001 0.04559381 -0.00306635
v -0.30000001 0.04562462 -0.00306500
v -0.30000001 0.04565544 -0.00306635
v -0.30000001 0.03728896 0.00249049
v -0.30000001 0.03707107 0.00250000
v -0.30000001 0.03969828 0.00390000
v -0.30000001 0.04384386 -0.00550000
v -0.30000001 0.04547520 -0.00309813
v -0.30000001 0.04550370 -0.00308632
v -0.30000001 0.04574554 -0.00308632
v -0.30000001 0.04553311 -0.00307705
v -0.30000001 0.04571613 -0.00307705
v -0.30000001 0.04556323 -0.00307037
v -0.30000001 0.03898618 -0.00160697
v -0.30000001 0.03911895 -0.00143394
v -0.30000001 0.03157107 0.00677279
v -0.30000001 0.03444386 0.00390000
v -0.30000001 0.04544785 -0.00311237
v -0.30000001 0.04568601 -0.00307037
v -0.30000001 0.04257107 0.00677279
v -0.30000001 0.04707107 -0.00436500
v -0.30000001 0.03923613 -0.00125000
v -0.30000001 0.03933684 -0.00105655
v -0.30000001 0.03942030 -0.00085505
v -0.30000001 0.03948588 -0.00064705
v -0.30000001 0.03957107 -0.00000000
v -0.30000001 0.03956155 0.00021789
v -0.30000001 0.03953309 -0.00043412
v -0.30000001 0.03956155 -0.00021789
v -0.30000001 0.03953309 0.00043412
v -0.30000001 0.03948588 0.00064705
v -0.30000001 0.03942030 0.00085505
v -0.30000001 0.03530330 0.00176777
v -0.30000001 0.03515596 0.00160697
v -0.30000001 0.03502319 0.00143394
v -0.30000001 0.03490600 0.00125000
v -0.30000001 0.03480530 0.00105655
v -0.30000001 0.03472184 0.00085505
v -0.30000001 0.03465625 0.00064705
v -0.30000001 0.03933684 0.00105655
v -0.30000001 0.03923613 0.00125000
v -0.30000001 0.03911895 0.00143394
v -0.30000001 0.03582107 0.00216506
v -0.30000001 0.03601452 0.00226577
v -0.30000001 0.03621602 0.00234923
v -0.30000001 0.03563713 0.00204788
v -0.30000001 0.03546410 0.00191511
v -0.30000001 0.03460905 0.00043412
v -0.30000001 0.03458058 0.00021789
v -0.30000001 0.03457107 -0.00000000
v -0.30000001 0.03458058 -0.00021789
v -0.30000001 0.03460905 -0.00043412
v -0.30000001 0.03465625 -0.00064705
v -0.30000001 0.03472184 -0.00085505
v -0.30000001 0.03480530 -0.00105655
v -0.30000001 0.03490600 -0.00125000
v -0.30000001 0.03502319 -0.00143394
v -0.30000001 0.03515596 -0.00160697
v -0.30000001 0.03850501 0.00204788
v -0.30000001 0.03832107 0.00216506
v -0.30000001 0.03812761 0.00226577
v -0.30000001 0.03792612 0.00234923
v -0.30000001 0.03685318 0.00249049
v -0.30000001 0.03663695 0.00246202
v -0.30000001 0.03642402 0.00241481
v -0.30000001 0.03898618 0.00160697
v -0.30000001 0.03883883 0.00176777
v -0.30000001 0.03867804 0.00191511
v -0.30000001 0.03771812 0.00241481
v -0.30000001 0.03750519 0.00246202
v -0.30000001 0.03530330 -0.00176777
v -0.30000001 0.03546410 -0.00191511
v -0.30000001 0.03563713 -0.00204788
v -0.30000001 0.03832107 -0.00216506
v -0.30000001 0.03812761 -0.00226577
v -0.30000001 0.03792612 -0.00234923
v -0.30000001 0.03850501 -0.00204788
v -0.30000001 0.03867804 -0.00191511
v -0.30000001 0.03883883 -0.00176777
v -0.30000001 0.03582107 -0.00216506
v -0.30000001 0.03601452 -0.00226577
v -0.30000001 0.03621602 -0.00234923
v -0.30000001 0.03707107 -0.00250000
v -0.30000001 0.03728896 -0.00249049
v -0.30000001 0.03642402 -0.00241481
v -0.30000001 0.03663695 -0.00246202
v -0.30000001 0.03685318 -0.00249049
v -0.30000001 0.03750519 -0.00246202
v -0.30000001 0.03771812 -0.00241481
f 1 2 3
f 1 3 4
f 3 5 4
f 4 5 6
f 5 7 6
f 6 7 8
f 7 9 8
f 8 9 10
f 9 11 10
f 10 11 12
f 11 13 12
f 12 13 14
f 13 15 14
f 14 15 16
f 15 17 16
f 16 17 18
f 17 19 18
f 18 19 20
f 19 21 20
f 20 21 22
f 21 23 22
f 22 23 24
f 23 25 24
f 24 25 26
f 25 27 26
f 26 27 28
f 27 29 28
f 28 29 30
f 29 31 30
f 30 31 32
f 31 33 32
f 32 33 34
f 33 35 34
f 34 35 36
f 35 37 36
f 36 37 38
f 39 40 1
f 40 2 1
f 41 42 43
f 44 45 46
f 47 48 45
f 48 49 45
f 49 50 45
f 45 50 51
f 52 53 54
f 53 55 54
f 54 55 56
f 55 57 56
f 58 59 60
f 45 61 62
f 63 64 55
f 65 66 67
f 44 68 45
f 68 69 45
f 45 69 61
f 62 70 45
f 70 71 45
f 45 71 72
f 72 73 45
f 73 74 45
f 45 74 75
f 75 76 45
f 76 77 45
f 45 77 47
f 78 79 80
f 81 82 83
f 84 85 60
f 86 87 60
f 87 88 60
f 60 88 89
f 89 90 60
f 90 91 60
f 60 91 58
f 59 92 60
f 92 93 60
f 60 93 94
f 80 79 95
f 63 55 96
f 64 97 55
f 97 98 55
f 55 98 57
f 85 99 60
f 99 100 60
f 60 100 86
f 94 101 60
f 101 102 60
f 60 102 103
f 102 104 103
f 103 104 105
f 106 107 108
f 107 109 108
f 108 109 110
f 110 109 50
f 109 111 50
f 50 111 112
f 112 113 50
f 113 114 50
f 50 114 51
f 115 116 117
f 116 118 117
f 117 118 66
f 118 119 66
f 119 120 66
f 120 121 66
f 66 121 122
f 123 124 125
f 124 126 125
f 42 127 43
f 127 128 43
f 43 128 129
f 96 55 79
f 55 130 79
f 79 130 95
f 131 132 133
f 129 134 43
f 134 135 43
f 43 135 136
f 84 60 137
f 60 138 137
f 137 138 139
f 140 141 80
f 141 142 80
f 80 142 78
f 143 144 66
f 144 145 66
f 66 145 146
f 146 147 66
f 147 148 66
f 66 148 149
f 150 151 125
f 151 152 125
f 125 152 123
f 132 131 153
f 131 39 153
f 153 39 1
f 154 155 82
f 136 156 43
f 156 157 43
f 43 157 158
f 139 159 160
f 122 161 66
f 161 162 66
f 66 162 143
f 149 163 66
f 163 164 66
f 66 164 67
f 165 166 117
f 166 167 117
f 117 167 168
f 168 169 117
f 169 170 117
f 117 170 171
f 155 172 82
f 172 173 82
f 82 173 174
f 174 175 82
f 175 176 82
f 82 176 177
f 177 178 82
f 178 179 82
f 82 179 180
f 160 181 139
f 181 182 139
f 139 182 183
f 80 184 140
f 184 185 140
f 140 185 186
f 185 187 186
f 188 189 190
f 30 32 153
f 83 191 81
f 191 192 81
f 81 192 193
f 43 194 41
f 194 165 41
f 41 165 195
f 180 196 82
f 196 197 82
f 82 197 198
f 198 199 82
f 199 200 82
f 82 200 83
f 183 201 139
f 201 202 139
f 139 202 137
f 203 204 205
f 206 207 208
f 207 209 208
f 208 209 210
f 210 209 67
f 209 211 67
f 67 211 212
f 212 213 67
f 213 214 67
f 67 214 65
f 192 215 124
f 215 216 124
f 217 218 124
f 218 219 124
f 220 221 124
f 221 222 124
f 124 222 126
f 171 223 117
f 223 224 117
f 117 224 225
f 133 226 131
f 226 227 131
f 131 227 228
f 228 229 131
f 229 230 131
f 131 230 231
f 154 82 232
f 82 233 232
f 232 233 234
f 235 236 237
f 236 238 237
f 237 238 239
f 238 240 239
f 235 237 241
f 237 242 241
f 241 242 243
f 243 244 241
f 244 245 241
f 241 245 246
f 158 247 43
f 247 241 43
f 43 241 248
f 241 246 248
f 249 250 251
f 250 203 251
f 251 203 252
f 203 205 252
f 249 251 185
f 251 253 185
f 185 253 187
f 254 255 190
f 255 256 190
f 190 256 125
f 256 257 125
f 125 257 150
f 32 34 153
f 34 36 153
f 153 36 38
f 216 258 124
f 258 259 124
f 124 259 217
f 219 260 124
f 260 261 124
f 124 261 262
f 263 264 124
f 264 265 124
f 124 265 220
f 231 266 131
f 266 267 131
f 131 267 268
f 268 269 131
f 269 270 131
f 131 270 271
f 234 272 273
f 274 275 238
f 275 276 238
f 238 276 240
f 189 277 190
f 277 278 190
f 190 278 254
f 22 24 153
f 279 153 280
f 153 38 280
f 280 38 46
f 38 281 46
f 46 281 44
f 279 280 282
f 280 283 282
f 282 283 284
f 225 285 117
f 285 286 117
f 117 286 287
f 287 288 117
f 288 289 117
f 117 289 290
f 290 291 117
f 291 292 117
f 117 292 115
f 293 294 295
f 294 296 295
f 295 296 297
f 271 298 131
f 298 295 131
f 131 295 299
f 295 297 299
f 273 300 234
f 300 301 234
f 234 301 302
f 303 304 190
f 304 305 190
f 190 305 188
f 303 306 304
f 306 307 304
f 304 307 308
f 153 8 10
f 24 26 153
f 26 28 153
f 153 28 30
f 103 309 310
f 302 311 234
f 311 312 234
f 234 312 232
f 308 313 304
f 313 314 304
f 304 314 315
f 1 4 153
f 4 6 153
f 153 6 8
f 316 317 103
f 317 318 103
f 103 318 319
f 319 320 103
f 320 321 103
f 103 321 309
f 310 322 103
f 322 323 103
f 103 323 324
f 262 325 124
f 325 326 124
f 124 326 263
f 295 327 293
f 327 328 293
f 293 328 329
f 329 330 293
f 330 331 293
f 293 331 332
f 315 333 304
f 333 334 304
f 304 334 335
f 334 336 335
f 335 336 337
f 10 12 153
f 12 14 153
f 153 14 16
f 16 18 153
f 18 20 153
f 153 20 22
f 54 338 52
f 338 103 52
f 52 103 339
f 103 324 339
f 192 124 193
f 124 340 193
f 193 340 341
f 340 342 341
f 341 342 282
f 105 343 103
f 343 344 103
f 103 344 345
f 345 346 103
f 346 347 103
f 103 347 316
f 348 284 338
f 284 349 338
f 338 349 103
f 350 351 348
f 351 352 348
f 348 352 353
f 354 355 282
f 356 357 341
f 357 358 341
f 358 359 341
f 359 360 341
f 341 360 361
f 362 363 348
f 364 365 282
f 365 366 282
f 282 366 367
f 361 368 341
f 368 369 341
f 341 369 370
f 371 372 373
f 372 374 373
f 165 117 195
f 117 375 195
f 195 375 376
f 375 373 376
f 376 373 348
f 373 374 348
f 348 374 362
f 348 377 378
f 379 380 284
f 355 381 282
f 381 382 282
f 282 382 364
f 367 383 282
f 383 384 282
f 282 384 341
f 384 385 341
f 341 385 356
f 363 386 348
f 386 387 348
f 348 387 377
f 378 388 348
f 388 389 348
f 348 389 350
f 353 390 348
f 390 391 348
f 348 391 284
f 391 392 284
f 284 392 379
f 380 393 284
f 393 394 284
f 284 394 395
f 396 397 373
f 395 398 284
f 398 399 284
f 284 399 400
f 401 402 282
f 402 403 282
f 282 403 354
f 282 404 405
f 400 406 284
f 406 407 284
f 284 407 282
f 407 408 282
f 282 408 404
f 405 409 282
f 409 410 282
f 282 410 401
f 370 411 341
f 411 412 341
f 341 412 413
f 413 414 341
f 414 415 341
f 341 415 373
f 415 416 373
f 373 416 396
f 417 418 373
f 418 419 373
f 373 419 420
f 420 421 373
f 421 422 373
f 373 422 371
f 397 423 373
f 423 424 373
f 373 424 417
f 105 425 426
f 105 426 343
f 426 427 343
f 343 427 344
f 427 428 344
f 344 428 345
f 428 429 345
f 345 429 346
f 429 430 346
f 346 430 347
f 430 431 347
f 347 431 316
f 431 432 316
f 316 432 317
f 432 433 317
f 317 433 318
f 433 434 318
f 318 434 319
f 434 435 319
f 319 435 320
f 435 436 320
f 320 436 321
f 436 437 321
f 321 437 309
f 437 438 309
f 309 438 310
f 438 439 310
f 310 439 322
f 439 440 322
f 322 440 323
f 440 441 323
f 323 441 324
f 441 442 324
f 324 442 339
f 442 443 339
f 339 443 52
f 104 444 105
f 444 425 105
f 192 445 446
f 192 446 215
f 446 447 215
f 215 447 216
f 447 448 216
f 216 448 258
f 448 449 258
f 258 449 259
f 449 450 259
f 259 450 217
f 450 451 217
f 217 451 218
f 451 452 218
f 218 452 219
f 452 453 219
f 219 453 260
f 453 454 260
f 260 454 261
f 454 455 261
f 261 455 262
f 455 456 262
f 262 456 325
f 456 457 325
f 325 457 326
f 457 458 326
f 326 458 263
f 458 459 263
f 263 459 264
f 459 460 264
f 264 460 265
f 460 461 265
f 265 461 220
f 461 462 220
f 220 462 221
f 462 463 221
f 221 463 222
f 191 464 192
f 464 445 192
f 465 115 292
f 465 292 466
f 292 291 466
f 466 291 467
f 291 290 467
f 467 290 468
f 290 289 468
f 468 289 469
f 289 288 469
f 469 288 470
f 288 287 470
f 470 287 471
f 287 286 471
f 471 286 472
f 286 285 472
f 472 285 473
f 285 225 473
f 473 225 474
f 225 224 474
f 474 224 475
f 224 223 475
f 475 223 476
f 223 171 476
f 476 171 477
f 171 170 477
f 477 170 478
f 170 169 478
f 478 169 479
f 169 168 479
f 479 168 480
f 168 167 480
f 480 167 481
f 167 166 481
f 481 166 482
f 166 165 482
f 482 165 483
f 484 116 465
f 116 115 465
f 485 486 342
f 486 282 342
f 486 487 282
f 487 279 282
f 487 488 279
f 488 153 279
f 488 489 153
f 489 132 153
f 490 131 299
f 490 299 491
f 299 297 491
f 491 297 492
f 297 296 492
f 492 296 493
f 296 294 493
f 493 294 494
f 294 293 494
f 494 293 495
f 293 332 495
f 495 332 496
f 332 331 496
f 496 331 497
f 331 330 497
f 497 330 498
f 330 329 498
f 498 329 499
f 329 328 499
f 499 328 500
f 328 327 500
f 500 327 501
f 327 295 501
f 501 295 502
f 295 298 502
f 502 298 503
f 298 271 503
f 503 271 504
f 271 270 504
f 504 270 505
f 270 269 505
f 505 269 506
f 269 268 506
f 506 268 507
f 268 267 507
f 507 267 508
f 267 266 508
f 508 266 509
f 266 231 509
f 509 231 510
f 231 230 510
f 510 230 511
f 230 229 511
f 511 229 512
f 229 228 512
f 512 228 513
f 228 227 513
f 513 227 514
f 227 226 514
f 514 226 515
f 226 133 515
f 515 133 516
f 133 132 516
f 516 132 489
f 490 40 131
f 40 39 131
f 517 518 126
f 518 125 126
f 519 123 152
f 519 152 520
f 152 151 520
f 520 151 521
f 151 150 521
f 521 150 522
f 150 257 522
f 522 257 523
f 257 256 523
f 523 256 524
f 256 255 524
f 524 255 525
f 255 254 525
f 525 254 526
f 254 278 526
f 526 278 527
f 278 277 527
f 527 277 528
f 277 189 528
f 528 189 529
f 189 188 529
f 529 188 530
f 188 305 530
f 530 305 531
f 305 304 531
f 531 304 532
f 304 335 532
f 532 335 533
f 335 337 533
f 533 337 534
f 337 336 534
f 534 336 535
f 336 334 535
f 535 334 536
f 334 333 536
f 536 333 537
f 333 315 537
f 537 315 538
f 315 314 538
f 538 314 539
f 314 313 539
f 539 313 540
f 313 308 540
f 540 308 541
f 308 307 541
f 541 307 542
f 307 306 542
f 542 306 543
f 306 303 543
f 543 303 544
f 303 190 544
f 544 190 545
f 190 125 545
f 545 125 518
f 519 546 123
f 546 124 123
f 546 547 124
f 547 340 124
f 547 485 340
f 485 342 340
f 548 549 348
f 549 376 348
f 549 550 376
f 550 195 376
f 550 551 195
f 551 41 195
f 552 553 284
f 553 349 284
f 553 554 349
f 554 103 349
f 554 555 103
f 555 60 103
f 556 102 101
f 556 101 557
f 101 94 557
f 557 94 558
f 94 93 558
f 558 93 559
f 93 92 559
f 559 92 560
f 92 59 560
f 560 59 561
f 59 58 561
f 561 58 562
f 58 91 562
f 562 91 563
f 91 90 563
f 563 90 564
f 90 89 564
f 564 89 565
f 89 88 565
f 565 88 566
f 88 87 566
f 566 87 567
f 87 86 567
f 567 86 568
f 86 100 568
f 568 100 569
f 100 99 569
f 569 99 570
f 99 85 570
f 570 85 571
f 85 84 571
f 571 84 572
f 84 137 572
f 572 137 573
f 137 202 573
f 573 202 574
f 202 201 574
f 574 201 575
f 201 183 575
f 575 183 576
f 183 182 576
f 576 182 577
f 182 181 577
f 577 181 578
f 181 160 578
f 578 160 579
f 160 159 579
f 579 159 580
f 159 139 580
f 580 139 581
f 139 138 581
f 581 138 582
f 138 60 582
f 582 60 555
f 556 444 102
f 444 104 102
f 583 584 281
f 584 44 281
f 585 45 51
f 585 51 586
f 51 114 586
f 586 114 587
f 114 113 587
f 587 113 588
f 113 112 588
f 588 112 589
f 112 111 589
f 589 111 590
f 111 109 590
f 590 109 591
f 109 107 591
f 591 107 592
f 107 106 592
f 592 106 593
f 106 108 593
f 593 108 594
f 108 110 594
f 594 110 595
f 110 50 595
f 595 50 596
f 50 49 596
f 596 49 597
f 49 48 597
f 597 48 598
f 48 47 598
f 598 47 599
f 47 77 599
f 599 77 600
f 77 76 600
f 600 76 601
f 76 75 601
f 601 75 602
f 75 74 602
f 602 74 603
f 74 73 603
f 603 73 604
f 73 72 604
f 604 72 605
f 72 71 605
f 605 71 606
f 71 70 606
f 606 70 607
f 70 62 607
f 607 62 608
f 62 61 608
f 608 61 609
f 61 69 609
f 609 69 610
f 69 68 610
f 610 68 611
f 68 44 611
f 611 44 584
f 585 612 45
f 612 46 45
f 612 613 46
f 613 280 46
f 613 614 280
f 614 283 280
f 546 519 518
f 516 489 490
f 489 488 490
f 490 488 40
f 519 520 518
f 520 521 518
f 518 521 522
f 510 511 490
f 511 512 490
f 490 512 513
f 513 514 490
f 514 515 490
f 490 515 516
f 483 615 551
f 615 616 551
f 617 618 616
f 618 619 616
f 616 619 551
f 620 621 622
f 522 523 518
f 523 524 518
f 518 524 545
f 491 492 502
f 504 505 490
f 505 506 490
f 490 506 507
f 507 508 490
f 508 509 490
f 490 509 510
f 623 624 625
f 446 445 626
f 621 627 622
f 627 628 622
f 622 628 629
f 492 493 502
f 493 494 502
f 502 494 495
f 491 502 490
f 502 503 490
f 490 503 504
f 445 464 626
f 464 630 626
f 626 630 625
f 630 631 625
f 625 631 623
f 624 632 625
f 632 633 625
f 625 633 634
f 634 635 625
f 635 636 625
f 625 636 637
f 637 638 625
f 638 639 625
f 625 639 640
f 640 641 625
f 641 642 625
f 625 642 643
f 644 645 616
f 646 647 648
f 647 649 648
f 648 649 650
f 651 652 622
f 652 653 622
f 622 653 654
f 524 525 545
f 525 526 545
f 545 526 527
f 495 496 502
f 496 497 502
f 502 497 498
f 498 499 502
f 499 500 502
f 502 500 501
f 643 655 625
f 655 656 625
f 625 656 657
f 658 659 616
f 659 660 616
f 616 660 617
f 558 559 555
f 605 606 585
f 650 661 648
f 661 662 648
f 648 662 663
f 664 622 665
f 622 666 665
f 664 667 622
f 667 668 622
f 622 668 651
f 654 669 622
f 669 670 622
f 622 670 671
f 527 528 545
f 528 529 545
f 545 529 530
f 542 543 532
f 672 673 674
f 644 616 675
f 645 676 616
f 676 677 616
f 616 677 658
f 559 560 555
f 560 561 555
f 555 561 562
f 562 563 555
f 563 564 555
f 555 564 565
f 565 566 555
f 566 567 555
f 555 567 568
f 628 484 629
f 484 465 629
f 629 465 466
f 486 552 614
f 671 678 622
f 678 679 622
f 622 679 620
f 530 531 545
f 531 532 545
f 545 532 544
f 532 543 544
f 425 444 554
f 444 556 554
f 554 556 555
f 556 557 555
f 555 557 558
f 568 569 555
f 569 570 555
f 555 570 571
f 475 476 629
f 476 477 629
f 629 477 478
f 478 479 629
f 479 480 629
f 629 480 481
f 461 460 547
f 585 598 599
f 585 609 610
f 680 681 682
f 681 683 682
f 682 683 684
f 663 685 648
f 685 681 648
f 648 681 686
f 681 680 686
f 666 687 665
f 687 688 665
f 665 688 689
f 690 691 692
f 691 693 692
f 689 694 665
f 694 693 665
f 665 693 695
f 693 691 695
f 534 535 541
f 535 536 541
f 541 536 537
f 537 538 541
f 538 539 541
f 541 539 540
f 672 674 696
f 673 697 674
f 697 698 674
f 674 698 699
f 700 701 702
f 571 572 555
f 572 573 555
f 555 573 582
f 486 614 487
f 614 613 487
f 487 613 488
f 613 612 37
f 613 37 488
f 37 35 488
f 488 35 33
f 33 31 488
f 31 29 488
f 488 29 27
f 450 449 547
f 586 596 585
f 596 597 585
f 585 597 598
f 599 600 585
f 600 601 585
f 585 601 602
f 602 603 585
f 603 604 585
f 585 604 605
f 606 607 585
f 607 608 585
f 585 608 609
f 610 611 585
f 611 584 585
f 585 584 612
f 584 583 612
f 612 583 37
f 684 703 682
f 703 704 682
f 682 704 705
f 542 532 541
f 532 533 541
f 541 533 534
f 657 656 674
f 656 706 674
f 674 706 696
f 675 616 707
f 616 708 707
f 707 708 709
f 709 710 707
f 710 711 707
f 707 711 712
f 712 713 707
f 713 714 707
f 707 714 715
f 700 702 714
f 702 716 714
f 714 716 715
f 576 577 581
f 466 467 629
f 467 468 629
f 629 468 469
f 469 470 629
f 470 471 629
f 629 471 472
f 472 473 629
f 473 474 629
f 629 474 475
f 551 550 483
f 550 629 483
f 483 629 482
f 629 481 482
f 438 437 554
f 454 453 547
f 701 717 702
f 717 718 702
f 702 718 719
f 27 25 488
f 25 23 488
f 488 23 21
f 9 7 488
f 7 5 488
f 518 517 546
f 517 463 546
f 546 463 547
f 463 462 547
f 547 462 461
f 453 452 547
f 452 451 547
f 547 451 450
f 449 448 547
f 448 447 547
f 547 447 446
f 586 587 596
f 587 588 596
f 596 588 589
f 593 594 592
f 594 591 592
f 589 590 596
f 590 591 596
f 596 591 595
f 591 594 595
f 720 721 722
f 576 581 575
f 577 578 581
f 578 579 581
f 581 579 580
f 5 3 488
f 3 2 488
f 488 2 40
f 723 724 725
f 552 548 553
f 548 726 553
f 442 441 554
f 460 459 547
f 459 458 547
f 547 458 457
f 727 728 729
f 728 730 729
f 729 730 731
f 720 722 732
f 582 573 581
f 573 574 581
f 581 574 575
f 733 734 548
f 446 626 547
f 626 735 547
f 547 735 485
f 735 736 485
f 485 736 725
f 442 554 443
f 441 440 554
f 440 439 554
f 554 439 438
f 437 436 554
f 436 435 554
f 554 435 434
f 457 456 547
f 456 455 547
f 547 455 454
f 705 704 729
f 704 737 729
f 729 737 727
f 732 722 730
f 722 738 730
f 730 738 731
f 21 19 488
f 19 17 488
f 488 17 15
f 15 13 488
f 13 11 488
f 488 11 9
f 549 725 550
f 725 739 550
f 550 739 629
f 648 740 646
f 740 443 646
f 646 443 726
f 443 554 726
f 726 554 553
f 434 433 554
f 433 432 554
f 554 432 431
f 734 741 548
f 741 742 548
f 548 742 549
f 742 743 549
f 549 743 744
f 549 745 746
f 431 430 554
f 430 429 554
f 554 429 428
f 428 427 554
f 427 426 554
f 554 426 425
f 744 747 549
f 747 748 549
f 549 748 745
f 746 749 549
f 749 750 549
f 549 750 751
f 752 753 485
f 753 754 485
f 485 754 755
f 755 756 485
f 756 757 485
f 485 757 758
f 751 759 549
f 759 760 549
f 549 760 761
f 762 485 763
f 485 764 763
f 762 765 485
f 765 766 485
f 485 766 752
f 758 767 485
f 767 768 485
f 485 768 486
f 768 769 486
f 769 770 486
f 486 770 771
f 771 772 486
f 772 773 486
f 486 773 774
f 774 775 486
f 775 776 486
f 486 776 777
f 778 779 725
f 779 780 725
f 725 780 781
f 724 782 725
f 782 783 725
f 725 783 485
f 783 784 485
f 485 784 764
f 761 785 549
f 785 786 549
f 549 786 725
f 786 787 725
f 725 787 778
f 781 788 725
f 788 789 725
f 725 789 723
f 777 790 486
f 790 791 486
f 486 791 792
f 793 552 794
f 552 795 794
f 793 796 552
f 796 797 552
f 552 797 548
f 797 798 548
f 548 798 733
f 792 799 486
f 799 800 486
f 486 800 801
f 802 803 552
f 801 804 486
f 804 805 486
f 486 805 552
f 805 806 552
f 552 806 802
f 803 807 552
f 807 808 552
f 552 808 795
f 194 615 165
f 615 483 165
f 583 281 37
f 281 38 37
f 740 53 443
f 53 52 443
f 517 126 463
f 126 222 463
f 769 367 770
f 367 366 770
f 770 366 771
f 366 365 771
f 771 365 772
f 365 364 772
f 772 364 773
f 364 382 773
f 773 382 774
f 382 381 774
f 774 381 775
f 381 355 775
f 775 355 776
f 355 354 776
f 776 354 777
f 354 403 777
f 777 403 790
f 403 402 790
f 790 402 791
f 402 401 791
f 791 401 792
f 401 410 792
f 792 410 799
f 410 409 799
f 799 409 800
f 409 405 800
f 800 405 801
f 405 404 801
f 801 404 804
f 404 408 804
f 804 408 805
f 408 407 805
f 805 407 806
f 407 406 806
f 806 406 802
f 406 400 802
f 802 400 803
f 400 399 803
f 803 399 807
f 399 398 807
f 807 398 808
f 398 395 808
f 808 395 795
f 395 394 795
f 795 394 794
f 394 393 794
f 794 393 793
f 393 380 793
f 793 380 796
f 380 379 796
f 796 379 797
f 379 392 797
f 797 392 798
f 392 391 798
f 798 391 733
f 391 390 733
f 733 390 734
f 390 353 734
f 734 353 741
f 353 352 741
f 741 352 742
f 352 351 742
f 742 351 743
f 351 350 743
f 743 350 744
f 350 389 744
f 744 389 747
f 389 388 747
f 747 388 748
f 388 378 748
f 748 378 745
f 378 377 745
f 745 377 746
f 377 387 746
f 746 387 749
f 387 386 749
f 749 386 750
f 386 363 750
f 750 363 751
f 363 362 751
f 751 362 759
f 362 374 759
f 759 374 760
f 374 372 760
f 760 372 761
f 372 371 761
f 761 371 785
f 371 422 785
f 785 422 786
f 422 421 786
f 786 421 787
f 421 420 787
f 787 420 778
f 420 419 778
f 778 419 779
f 419 418 779
f 779 418 780
f 418 417 780
f 780 417 781
f 417 424 781
f 781 424 788
f 424 423 788
f 788 423 789
f 423 397 789
f 789 397 723
f 397 396 723
f 723 396 724
f 396 416 724
f 724 416 782
f 416 415 782
f 782 415 783
f 415 414 783
f 783 414 784
f 414 413 784
f 784 413 764
f 413 412 764
f 764 412 763
f 412 411 763
f 763 411 762
f 411 370 762
f 762 370 765
f 370 369 765
f 765 369 766
f 369 368 766
f 766 368 752
f 368 361 752
f 752 361 753
f 361 360 753
f 753 360 754
f 360 359 754
f 754 359 755
f 359 358 755
f 755 358 756
f 358 357 756
f 756 357 757
f 357 356 757
f 757 356 758
f 356 385 758
f 758 385 767
f 385 384 767
f 767 384 768
f 384 383 768
f 768 383 769
f 383 367 769
f 614 552 283
f 552 284 283
f 629 739 117
f 739 375 117
f 622 629 66
f 629 117 66
f 622 66 65
f 622 65 666
f 65 214 666
f 666 214 687
f 214 213 687
f 687 213 688
f 213 212 688
f 688 212 689
f 212 211 689
f 689 211 694
f 211 209 694
f 694 209 693
f 209 207 693
f 693 207 692
f 207 206 692
f 692 206 690
f 206 208 690
f 690 208 691
f 208 210 691
f 691 210 695
f 210 67 695
f 695 67 665
f 67 164 665
f 665 164 664
f 164 163 664
f 664 163 667
f 163 149 667
f 667 149 668
f 149 148 668
f 668 148 651
f 148 147 651
f 651 147 652
f 147 146 652
f 652 146 653
f 146 145 653
f 653 145 654
f 145 144 654
f 654 144 669
f 144 143 669
f 669 143 670
f 143 162 670
f 670 162 671
f 162 161 671
f 671 161 678
f 161 122 678
f 678 122 679
f 122 121 679
f 679 121 620
f 121 120 620
f 620 120 621
f 120 119 621
f 621 119 627
f 119 118 627
f 627 118 628
f 484 628 116
f 628 118 116
f 630 464 83
f 464 191 83
f 630 83 200
f 630 200 631
f 200 199 631
f 631 199 623
f 199 198 623
f 623 198 624
f 198 197 624
f 624 197 632
f 197 196 632
f 632 196 633
f 196 180 633
f 633 180 634
f 180 179 634
f 634 179 635
f 179 178 635
f 635 178 636
f 178 177 636
f 636 177 637
f 177 176 637
f 637 176 638
f 176 175 638
f 638 175 639
f 175 174 639
f 639 174 640
f 174 173 640
f 640 173 641
f 173 172 641
f 641 172 642
f 172 155 642
f 642 155 643
f 155 154 643
f 643 154 655
f 154 232 655
f 655 232 656
f 232 312 656
f 656 312 706
f 312 311 706
f 706 311 696
f 311 302 696
f 696 302 672
f 302 301 672
f 672 301 673
f 301 300 673
f 673 300 697
f 300 273 697
f 697 273 698
f 273 272 698
f 698 272 699
f 272 234 699
f 699 234 674
f 234 233 674
f 674 233 657
f 233 82 657
f 657 82 625
f 626 625 81
f 625 82 81
f 735 626 193
f 626 81 193
f 736 735 341
f 735 193 341
f 725 736 373
f 736 341 373
f 739 725 375
f 725 373 375
f 726 548 338
f 548 348 338
f 646 726 54
f 726 338 54
f 647 646 56
f 646 54 56
f 647 56 57
f 647 57 649
f 57 98 649
f 649 98 650
f 98 97 650
f 650 97 661
f 97 64 661
f 661 64 662
f 64 63 662
f 662 63 663
f 63 96 663
f 663 96 685
f 96 79 685
f 685 79 681
f 79 78 681
f 681 78 683
f 78 142 683
f 683 142 684
f 142 141 684
f 684 141 703
f 141 140 703
f 703 140 704
f 140 186 704
f 704 186 737
f 186 187 737
f 737 187 727
f 187 253 727
f 727 253 728
f 253 251 728
f 728 251 730
f 251 252 730
f 730 252 732
f 252 205 732
f 732 205 720
f 205 204 720
f 720 204 721
f 204 203 721
f 721 203 722
f 203 250 722
f 722 250 738
f 250 249 738
f 738 249 731
f 249 185 731
f 731 185 729
f 185 184 729
f 729 184 705
f 184 80 705
f 705 80 682
f 80 95 682
f 682 95 680
f 95 130 680
f 680 130 686
f 130 55 686
f 686 55 648
f 740 648 53
f 648 55 53
f 616 615 43
f 615 194 43
f 616 43 248
f 616 248 708
f 248 246 708
f 708 246 709
f 246 245 709
f 709 245 710
f 245 244 710
f 710 244 711
f 244 243 711
f 711 243 712
f 243 242 712
f 712 242 713
f 242 237 713
f 713 237 714
f 237 239 714
f 714 239 700
f 239 240 700
f 700 240 701
f 240 276 701
f 701 276 717
f 276 275 717
f 717 275 718
f 275 274 718
f 718 274 719
f 274 238 719
f 719 238 702
f 238 236 702
f 702 236 716
f 236 235 716
f 716 235 715
f 235 241 715
f 715 241 707
f 241 247 707
f 707 247 675
f 247 158 675
f 675 158 644
f 158 157 644
f 644 157 645
f 157 156 645
f 645 156 676
f 156 136 676
f 676 136 677
f 136 135 677
f 677 135 658
f 135 134 658
f 658 134 659
f 134 129 659
f 659 129 660
f 129 128 660
f 660 128 617
f 128 127 617
f 617 127 618
f 127 42 618
f 618 42 619
f 551 619 41
f 619 42 41

