# https://github.com/mikedh/trimesh
v -0.28612024 0.01207107 -0.00490000
v -0.28612024 0.01507107 -0.00490000
v -0.28654355 0.01207107 -0.00520725
v -0.28654355 0.01507107 -0.00520725
v -0.28699106 0.01207107 -0.00547803
v -0.28699106 0.01507107 -0.00547803
v -0.28745967 0.01207107 -0.00571044
v -0.28745967 0.01507107 -0.00571044
v -0.28794605 0.01207107 -0.00590286
v -0.28794605 0.01507107 -0.00590286
v -0.28844681 0.01207107 -0.00605393
v -0.28844681 0.01507107 -0.00605393
v -0.28895846 0.01207107 -0.00616260
v -0.28895846 0.01507107 -0.00616260
v -0.28947741 0.01207107 -0.00622811
v -0.28947741 0.01507107 -0.00622811
v -0.28999999 0.01207107 -0.00625000
v -0.28999999 0.01507107 -0.00625000
v -0.29052261 0.01207107 -0.00622811
v -0.29052261 0.01507107 -0.00622811
v -0.29104155 0.01207107 -0.00616260
v -0.29104155 0.01507107 -0.00616260
v -0.29155320 0.01207107 -0.00605393
v -0.29155320 0.01507107 -0.00605393
v -0.29205397 0.01207107 -0.00590286
v -0.29205397 0.01507107 -0.00590286
v -0.29254034 0.01207107 -0.00571044
v -0.29254034 0.01507107 -0.00571044
v -0.29300892 0.01207107 -0.00547803
v -0.29300892 0.01507107 -0.00547803
v -0.29345644 0.01207107 -0.00520725
v -0.29345644 0.01507107 -0.00520725
v -0.29387975 0.01207107 -0.00490000
v -0.29387975 0.01507107 -0.00490000
v -0.29352775 0.01207107 -0.02129030
v -0.29374999 0.01207107 -0.02130000
v -0.29490000 0.01207107 -0.02500000
v -0.29166117 0.01207107 -0.01728738
v -0.29154164 0.01207107 -0.01747500
v -0.27125001 0.01207107 -0.01370000
v -0.29143891 0.01207107 -0.01767232
v -0.27102774 0.01207107 -0.01369030
v -0.29211089 0.01207107 -0.01679659
v -0.29194689 0.01207107 -0.01694688
v -0.29179659 0.01207107 -0.01711089
v -0.29143891 0.01207107 -0.01982768
v -0.29154164 0.01207107 -0.02002500
v -0.08010000 0.01207107 -0.02500000
v -0.29166117 0.01207107 -0.02021262
v -0.29179659 0.01207107 -0.02038911
v -0.29194689 0.01207107 -0.02055312
v -0.29211089 0.01207107 -0.02070341
v -0.29228738 0.01207107 -0.02083884
v -0.29267234 0.01207107 -0.01643891
v -0.29287785 0.01207107 -0.01635378
v -0.29309002 0.01207107 -0.01628689
v -0.29247499 0.01207107 -0.01654164
v -0.29228738 0.01207107 -0.01666116
v -0.29247499 0.01207107 -0.02095836
v -0.29267234 0.01207107 -0.02106109
v -0.29287785 0.01207107 -0.02114622
v -0.29309002 0.01207107 -0.02121311
v -0.29330719 0.01207107 -0.02126126
v -0.29374999 0.01207107 -0.01620000
v -0.29352775 0.01207107 -0.01620970
v -0.29330719 0.01207107 -0.01623874
v -0.29583883 0.01207107 -0.02021262
v -0.29899576 0.01207107 -0.02286788
v -0.29570341 0.01207107 -0.02038911
v -0.29873022 0.01207107 -0.02321394
v -0.29555312 0.01207107 -0.02055312
v -0.29843554 0.01207107 -0.02353553
v -0.29538912 0.01207107 -0.02070341
v -0.29614621 0.01207107 -0.01962215
v -0.29972962 0.01207107 -0.02129409
v -0.29606110 0.01207107 -0.01982768
v -0.29959846 0.01207107 -0.02171010
v -0.29595837 0.01207107 -0.02002500
v -0.29943153 0.01207107 -0.02211309
v -0.29923013 0.01207107 -0.02250000
v -0.29990000 0.01207107 -0.02000000
v -0.29626125 0.01207107 -0.01919280
v -0.29629031 0.01207107 -0.01897225
v -0.29629999 0.01207107 -0.01875000
v -0.29629031 0.01207107 -0.01852775
v -0.29626125 0.01207107 -0.01830720
v -0.29621312 0.01207107 -0.01940999
v -0.29988098 0.01207107 -0.02043578
v -0.29982403 0.01207107 -0.02086824
v -0.27169281 0.01207107 -0.01366126
v -0.27190998 0.01207107 -0.01361311
v -0.29397225 0.01207107 -0.01620970
v -0.27252501 0.01207107 -0.01335836
v -0.27271262 0.01207107 -0.01323884
v -0.27288911 0.01207107 -0.01310341
v -0.29990000 0.01207107 -0.00490000
v -0.27376127 0.01207107 -0.01070720
v -0.27371311 0.01207107 -0.01049001
v -0.27364621 0.01207107 -0.01027785
v -0.27356109 0.01207107 -0.01007232
v -0.27345836 0.01207107 -0.00987500
v -0.27333882 0.01207107 -0.00968738
v -0.27320340 0.01207107 -0.00951089
v -0.29397225 0.01207107 -0.02129030
v -0.29419279 0.01207107 -0.02126126
v -0.29533577 0.01207107 -0.02498097
v -0.29440999 0.01207107 -0.02121311
v -0.29576823 0.01207107 -0.02492404
v -0.29462215 0.01207107 -0.02114622
v -0.29811394 0.01207107 -0.02383022
v -0.29776788 0.01207107 -0.02409576
v -0.29521263 0.01207107 -0.02083884
v -0.29740000 0.01207107 -0.02433013
v -0.29502499 0.01207107 -0.02095836
v -0.29701310 0.01207107 -0.02453154
v -0.29482767 0.01207107 -0.02106109
v -0.29661009 0.01207107 -0.02469846
v -0.29619411 0.01207107 -0.02482963
v -0.27305311 0.01207107 -0.01295312
v -0.27320340 0.01207107 -0.01278911
v -0.27333882 0.01207107 -0.01261262
v -0.27364621 0.01207107 -0.01202215
v -0.29419279 0.01207107 -0.01623874
v -0.27356109 0.01207107 -0.01222768
v -0.27345836 0.01207107 -0.01242500
v -0.26893893 0.01207107 -0.01007232
v -0.08010000 0.01207107 -0.00490000
v -0.26904163 0.01207107 -0.00987500
v -0.26916116 0.01207107 -0.00968738
v -0.26878688 0.01207107 -0.01180999
v -0.26885378 0.01207107 -0.01202215
v -0.29123875 0.01207107 -0.01919280
v -0.29120970 0.01207107 -0.01897225
v -0.29120001 0.01207107 -0.01875000
v -0.29128689 0.01207107 -0.01940999
v -0.29135379 0.01207107 -0.01962215
v -0.27147225 0.01207107 -0.01369030
v -0.27371311 0.01207107 -0.01180999
v -0.27376127 0.01207107 -0.01159280
v -0.29440999 0.01207107 -0.01628689
v -0.27305311 0.01207107 -0.00934688
v -0.27288911 0.01207107 -0.00919659
v -0.27271262 0.01207107 -0.00906116
v -0.26978737 0.01207107 -0.00906116
v -0.26961088 0.01207107 -0.00919659
v -0.08864622 0.01207107 -0.01962215
v -0.08871311 0.01207107 -0.01940999
v -0.10875000 0.01207107 -0.01370000
v -0.27212214 0.01207107 -0.01354622
v -0.27232769 0.01207107 -0.01346109
v -0.29621312 0.01207107 -0.01809001
v -0.29614621 0.01207107 -0.01787785
v -0.29606110 0.01207107 -0.01767232
v -0.29595837 0.01207107 -0.01747500
v -0.29583883 0.01207107 -0.01728738
v -0.29570341 0.01207107 -0.01711089
v -0.29555312 0.01207107 -0.01694688
v -0.26944688 0.01207107 -0.00934688
v -0.26929659 0.01207107 -0.00951089
v -0.08370000 0.01207107 -0.01875000
v -0.08370970 0.01207107 -0.01897225
v -0.08373874 0.01207107 -0.01919280
v -0.08378689 0.01207107 -0.01940999
v -0.26870000 0.01207107 -0.01115000
v -0.26870969 0.01207107 -0.01092775
v -0.26873875 0.01207107 -0.01070720
v -0.26870969 0.01207107 -0.01137225
v -0.26873875 0.01207107 -0.01159280
v -0.29120970 0.01207107 -0.01852775
v -0.27059001 0.01207107 -0.01361311
v -0.29123875 0.01207107 -0.01830720
v -0.27080721 0.01207107 -0.01366126
v -0.29128689 0.01207107 -0.01809001
v -0.29135379 0.01207107 -0.01787785
v -0.29538912 0.01207107 -0.01679659
v -0.29521263 0.01207107 -0.01666116
v -0.29502499 0.01207107 -0.01654164
v -0.08856109 0.01207107 -0.01982768
v -0.10694688 0.01207107 -0.00934688
v -0.10679659 0.01207107 -0.00951089
v -0.08879030 0.01207107 -0.01852775
v -0.26893893 0.01207107 -0.01222768
v -0.26904163 0.01207107 -0.01242500
v -0.26916116 0.01207107 -0.01261262
v -0.26929659 0.01207107 -0.01278911
v -0.26944688 0.01207107 -0.01295312
v -0.26961088 0.01207107 -0.01310341
v -0.27252501 0.01207107 -0.00894164
v -0.27232769 0.01207107 -0.00883892
v -0.27212214 0.01207107 -0.00875378
v -0.27059001 0.01207107 -0.00868689
v -0.27037784 0.01207107 -0.00875378
v -0.10643891 0.01207107 -0.01007232
v -0.10635378 0.01207107 -0.01027785
v -0.10628689 0.01207107 -0.01049001
v -0.10623874 0.01207107 -0.01070720
v -0.10620970 0.01207107 -0.01092775
v -0.11083884 0.01207107 -0.01261262
v -0.11095837 0.01207107 -0.01242500
v -0.08385378 0.01207107 -0.01962215
v -0.08393891 0.01207107 -0.01982768
v -0.08404163 0.01207107 -0.02002500
v -0.29482767 0.01207107 -0.01643891
v -0.29462215 0.01207107 -0.01635378
v -0.27190998 0.01207107 -0.00868689
v -0.27169281 0.01207107 -0.00863874
v -0.27147225 0.01207107 -0.00860970
v -0.27125001 0.01207107 -0.00860000
v -0.27102774 0.01207107 -0.00860970
v -0.27080721 0.01207107 -0.00863874
v -0.27017233 0.01207107 -0.00883892
v -0.26997501 0.01207107 -0.00894164
v -0.08771262 0.01207107 -0.02083884
v -0.08752500 0.01207107 -0.02095836
v -0.08732767 0.01207107 -0.02106109
v -0.08820342 0.01207107 -0.02038911
v -0.08833884 0.01207107 -0.02021262
v -0.08845837 0.01207107 -0.02002500
v -0.10666116 0.01207107 -0.00968738
v -0.10654163 0.01207107 -0.00987500
v -0.10620000 0.01207107 -0.01115000
v -0.10620970 0.01207107 -0.01137225
v -0.10623874 0.01207107 -0.01159280
v -0.11126126 0.01207107 -0.01070720
v -0.11121311 0.01207107 -0.01049001
v -0.08393891 0.01207107 -0.01767232
v -0.08385378 0.01207107 -0.01787785
v -0.08478738 0.01207107 -0.02083884
v -0.08461089 0.01207107 -0.02070341
v -0.08444688 0.01207107 -0.02055312
v -0.27379030 0.01207107 -0.01137225
v -0.27379999 0.01207107 -0.01115000
v -0.27379030 0.01207107 -0.01092775
v -0.08602776 0.01207107 -0.02129030
v -0.08625000 0.01207107 -0.02130000
v -0.08647225 0.01207107 -0.02129030
v -0.08669280 0.01207107 -0.02126126
v -0.08788911 0.01207107 -0.02070341
v -0.08805312 0.01207107 -0.02055312
v -0.10767233 0.01207107 -0.00883892
v -0.10747500 0.01207107 -0.00894164
v -0.10666116 0.01207107 -0.01261262
v -0.10679659 0.01207107 -0.01278911
v -0.08879030 0.01207107 -0.01897225
v -0.10694688 0.01207107 -0.01295312
v -0.11106108 0.01207107 -0.01222768
v -0.11114622 0.01207107 -0.01202215
v -0.11121311 0.01207107 -0.01180999
v -0.08833884 0.01207107 -0.01728738
v -0.08820342 0.01207107 -0.01711089
v -0.08378689 0.01207107 -0.01809001
v -0.08373874 0.01207107 -0.01830720
v -0.08370970 0.01207107 -0.01852775
v -0.08416116 0.01207107 -0.02021262
v -0.08429658 0.01207107 -0.02038911
v -0.08497500 0.01207107 -0.02095836
v -0.08517233 0.01207107 -0.02106109
v -0.08537785 0.01207107 -0.02114622
v -0.26978737 0.01207107 -0.01323884
v -0.26997501 0.01207107 -0.01335836
v -0.27017233 0.01207107 -0.01346109
v -0.27037784 0.01207107 -0.01354622
v -0.08690999 0.01207107 -0.02121311
v -0.08712215 0.01207107 -0.02114622
v -0.10728738 0.01207107 -0.00906116
v -0.10711090 0.01207107 -0.00919659
v -0.10809001 0.01207107 -0.01361311
v -0.10830720 0.01207107 -0.01366126
v -0.11129030 0.01207107 -0.01092775
v -0.11114622 0.01207107 -0.01027785
v -0.11106108 0.01207107 -0.01007232
v -0.11095837 0.01207107 -0.00987500
v -0.08876126 0.01207107 -0.01830720
v -0.08871311 0.01207107 -0.01809001
v -0.08864622 0.01207107 -0.01787785
v -0.08559001 0.01207107 -0.02121311
v -0.08580720 0.01207107 -0.02126126
v -0.10628689 0.01207107 -0.01180999
v -0.10635378 0.01207107 -0.01202215
v -0.08880000 0.01207107 -0.01875000
v -0.10643891 0.01207107 -0.01222768
v -0.10654163 0.01207107 -0.01242500
v -0.10747500 0.01207107 -0.01335836
v -0.10767233 0.01207107 -0.01346109
v -0.10787785 0.01207107 -0.01354622
v -0.08876126 0.01207107 -0.01919280
v -0.10852775 0.01207107 -0.01369030
v -0.10940999 0.01207107 -0.01361311
v -0.10962215 0.01207107 -0.01354622
v -0.10982767 0.01207107 -0.01346109
v -0.11126126 0.01207107 -0.01159280
v -0.11129030 0.01207107 -0.01137225
v -0.26878688 0.01207107 -0.01049001
v -0.26885378 0.01207107 -0.01027785
v -0.08856109 0.01207107 -0.01767232
v -0.08845837 0.01207107 -0.01747500
v -0.10711090 0.01207107 -0.01310341
v -0.10728738 0.01207107 -0.01323884
v -0.11002500 0.01207107 -0.01335836
v -0.11021262 0.01207107 -0.01323884
v -0.11038911 0.01207107 -0.01310341
v -0.11055312 0.01207107 -0.01295312
v -0.11070342 0.01207107 -0.01278911
v -0.11130000 0.01207107 -0.01115000
v -0.10897224 0.01207107 -0.01369030
v -0.10919280 0.01207107 -0.01366126
v -0.11083884 0.01207107 -0.00968738
v -0.11070342 0.01207107 -0.00951089
v -0.11055312 0.01207107 -0.00934688
v -0.08478738 0.01207107 -0.01666116
v -0.08497500 0.01207107 -0.01654164
v -0.08517233 0.01207107 -0.01643891
v -0.08461089 0.01207107 -0.01679659
v -0.08444688 0.01207107 -0.01694688
v -0.08429658 0.01207107 -0.01711089
v -0.08416116 0.01207107 -0.01728738
v -0.08404163 0.01207107 -0.01747500
v -0.11038911 0.01207107 -0.00919659
v -0.11021262 0.01207107 -0.00906116
v -0.11002500 0.01207107 -0.00894164
v -0.08771262 0.01207107 -0.01666116
v -0.10787785 0.01207107 -0.00875378
v -0.08788911 0.01207107 -0.01679659
v -0.08805312 0.01207107 -0.01694688
v -0.10982767 0.01207107 -0.00883892
v -0.10962215 0.01207107 -0.00875378
v -0.10940999 0.01207107 -0.00868689
v -0.10852775 0.01207107 -0.00860970
v -0.10830720 0.01207107 -0.00863874
v -0.08752500 0.01207107 -0.01654164
v -0.08732767 0.01207107 -0.01643891
v -0.08712215 0.01207107 -0.01635378
v -0.08690999 0.01207107 -0.01628689
v -0.08669280 0.01207107 -0.01623874
v -0.08647225 0.01207107 -0.01620970
v -0.10919280 0.01207107 -0.00863874
v -0.10897224 0.01207107 -0.00860970
v -0.10875000 0.01207107 -0.00860000
v -0.08625000 0.01207107 -0.01620000
v -0.08602776 0.01207107 -0.01620970
v -0.08580720 0.01207107 -0.01623874
v -0.10809001 0.01207107 -0.00868689
v -0.08559001 0.01207107 -0.01628689
v -0.08537785 0.01207107 -0.01635378
v -0.29990000 0.01507107 -0.00490000
v -0.29490000 0.01507107 -0.02500000
v -0.29533577 0.01507107 -0.02498097
v -0.29576823 0.01507107 -0.02492404
v -0.29619411 0.01507107 -0.02482963
v -0.29661009 0.01507107 -0.02469846
v -0.29701310 0.01507107 -0.02453154
v -0.29740000 0.01507107 -0.02433013
v -0.29776788 0.01507107 -0.02409576
v -0.29811394 0.01507107 -0.02383022
v -0.29843554 0.01507107 -0.02353553
v -0.29873022 0.01507107 -0.02321394
v -0.29899576 0.01507107 -0.02286788
v -0.29923013 0.01507107 -0.02250000
v -0.29943153 0.01507107 -0.02211309
v -0.29959846 0.01507107 -0.02171010
v -0.29972962 0.01507107 -0.02129409
v -0.29982403 0.01507107 -0.02086824
v -0.29988098 0.01507107 -0.02043578
v -0.29990000 0.01507107 -0.02000000
v -0.27102774 0.01507107 -0.00860970
v -0.27125001 0.01507107 -0.00860000
v -0.29521263 0.01507107 -0.01666116
v -0.29538912 0.01507107 -0.01679659
v -0.29555312 0.01507107 -0.01694688
v -0.29570341 0.01507107 -0.01711089
v -0.29583883 0.01507107 -0.01728738
v -0.27356109 0.01507107 -0.01007232
v -0.27345836 0.01507107 -0.00987500
v -0.27333882 0.01507107 -0.00968738
v -0.27364621 0.01507107 -0.01202215
v -0.27356109 0.01507107 -0.01222768
v -0.29128689 0.01507107 -0.01809001
v -0.29595837 0.01507107 -0.01747500
v -0.29606110 0.01507107 -0.01767232
v -0.29614621 0.01507107 -0.01787785
v -0.29621312 0.01507107 -0.01809001
v -0.27288911 0.01507107 -0.00919659
v -0.27271262 0.01507107 -0.00906116
v -0.27252501 0.01507107 -0.00894164
v -0.27305311 0.01507107 -0.00934688
v -0.27320340 0.01507107 -0.00951089
v -0.29626125 0.01507107 -0.01830720
v -0.29629031 0.01507107 -0.01852775
v -0.29629999 0.01507107 -0.01875000
v -0.08373874 0.01507107 -0.01919280
v -0.08370970 0.01507107 -0.01897225
v -0.08010000 0.01507107 -0.02500000
v -0.29120001 0.01507107 -0.01875000
v -0.08010000 0.01507107 -0.00490000
v -0.29120970 0.01507107 -0.01897225
v -0.29123875 0.01507107 -0.01919280
v -0.27147225 0.01507107 -0.00860970
v -0.27169281 0.01507107 -0.00863874
v -0.27190998 0.01507107 -0.00868689
v -0.26916116 0.01507107 -0.00968738
v -0.26904163 0.01507107 -0.00987500
v -0.26893893 0.01507107 -0.01007232
v -0.26929659 0.01507107 -0.00951089
v -0.26944688 0.01507107 -0.00934688
v -0.26961088 0.01507107 -0.00919659
v -0.29462215 0.01507107 -0.01635378
v -0.29482767 0.01507107 -0.01643891
v -0.29502499 0.01507107 -0.01654164
v -0.29629031 0.01507107 -0.01897225
v -0.29626125 0.01507107 -0.01919280
v -0.29621312 0.01507107 -0.01940999
v -0.29614621 0.01507107 -0.01962215
v -0.29606110 0.01507107 -0.01982768
v -0.29570341 0.01507107 -0.02038911
v -0.29583883 0.01507107 -0.02021262
v -0.29595837 0.01507107 -0.02002500
v -0.29143891 0.01507107 -0.01982768
v -0.29154164 0.01507107 -0.02002500
v -0.29166117 0.01507107 -0.02021262
v -0.11083884 0.01507107 -0.00968738
v -0.11095837 0.01507107 -0.00987500
v -0.10897224 0.01507107 -0.01369030
v -0.08833884 0.01507107 -0.01728738
v -0.08845837 0.01507107 -0.01747500
v -0.29120970 0.01507107 -0.01852775
v -0.29123875 0.01507107 -0.01830720
v -0.27212214 0.01507107 -0.00875378
v -0.27232769 0.01507107 -0.00883892
v -0.29154164 0.01507107 -0.01747500
v -0.29143891 0.01507107 -0.01767232
v -0.27364621 0.01507107 -0.01027785
v -0.27371311 0.01507107 -0.01049001
v -0.26978737 0.01507107 -0.00906116
v -0.26997501 0.01507107 -0.00894164
v -0.27017233 0.01507107 -0.00883892
v -0.27037784 0.01507107 -0.00875378
v -0.27059001 0.01507107 -0.00868689
v -0.27080721 0.01507107 -0.00863874
v -0.29374999 0.01507107 -0.01620000
v -0.29397225 0.01507107 -0.01620970
v -0.29419279 0.01507107 -0.01623874
v -0.29440999 0.01507107 -0.01628689
v -0.29228738 0.01507107 -0.02083884
v -0.29211089 0.01507107 -0.02070341
v -0.08602776 0.01507107 -0.01620970
v -0.08625000 0.01507107 -0.01620000
v -0.10628689 0.01507107 -0.01180999
v -0.27376127 0.01507107 -0.01070720
v -0.27379030 0.01507107 -0.01092775
v -0.27379999 0.01507107 -0.01115000
v -0.27379030 0.01507107 -0.01137225
v -0.27376127 0.01507107 -0.01159280
v -0.27371311 0.01507107 -0.01180999
v -0.26870969 0.01507107 -0.01137225
v -0.26870000 0.01507107 -0.01115000
v -0.26870969 0.01507107 -0.01092775
v -0.26873875 0.01507107 -0.01070720
v -0.26878688 0.01507107 -0.01049001
v -0.26885378 0.01507107 -0.01027785
v -0.29166117 0.01507107 -0.01728738
v -0.29179659 0.01507107 -0.01711089
v -0.29194689 0.01507107 -0.01694688
v -0.29211089 0.01507107 -0.01679659
v -0.29287785 0.01507107 -0.01635378
v -0.29521263 0.01507107 -0.02083884
v -0.29538912 0.01507107 -0.02070341
v -0.29555312 0.01507107 -0.02055312
v -0.29194689 0.01507107 -0.02055312
v -0.29179659 0.01507107 -0.02038911
v -0.27345836 0.01507107 -0.01242500
v -0.27333882 0.01507107 -0.01261262
v -0.27320340 0.01507107 -0.01278911
v -0.26978737 0.01507107 -0.01323884
v -0.26961088 0.01507107 -0.01310341
v -0.26916116 0.01507107 -0.01261262
v -0.26904163 0.01507107 -0.01242500
v -0.26893893 0.01507107 -0.01222768
v -0.26885378 0.01507107 -0.01202215
v -0.29352775 0.01507107 -0.01620970
v -0.29330719 0.01507107 -0.01623874
v -0.29309002 0.01507107 -0.01628689
v -0.10962215 0.01507107 -0.00875378
v -0.10982767 0.01507107 -0.00883892
v -0.11129030 0.01507107 -0.01092775
v -0.11126126 0.01507107 -0.01070720
v -0.11121311 0.01507107 -0.01049001
v -0.10919280 0.01507107 -0.01366126
v -0.08856109 0.01507107 -0.01767232
v -0.08864622 0.01507107 -0.01787785
v -0.29135379 0.01507107 -0.01962215
v -0.08879030 0.01507107 -0.01852775
v -0.08880000 0.01507107 -0.01875000
v -0.29135379 0.01507107 -0.01787785
v -0.26944688 0.01507107 -0.01295312
v -0.26929659 0.01507107 -0.01278911
v -0.26878688 0.01507107 -0.01180999
v -0.26873875 0.01507107 -0.01159280
v -0.29228738 0.01507107 -0.01666116
v -0.29247499 0.01507107 -0.01654164
v -0.29267234 0.01507107 -0.01643891
v -0.29440999 0.01507107 -0.02121311
v -0.29419279 0.01507107 -0.02126126
v -0.29397225 0.01507107 -0.02129030
v -0.29374999 0.01507107 -0.02130000
v -0.29352775 0.01507107 -0.02129030
v -0.29330719 0.01507107 -0.02126126
v -0.29309002 0.01507107 -0.02121311
v -0.10940999 0.01507107 -0.00868689
v -0.11002500 0.01507107 -0.00894164
v -0.11021262 0.01507107 -0.00906116
v -0.11038911 0.01507107 -0.00919659
v -0.11055312 0.01507107 -0.00934688
v -0.11070342 0.01507107 -0.00951089
v -0.11106108 0.01507107 -0.01007232
v -0.11114622 0.01507107 -0.01027785
v -0.08647225 0.01507107 -0.01620970
v -0.08669280 0.01507107 -0.01623874
v -0.08690999 0.01507107 -0.01628689
v -0.08712215 0.01507107 -0.01635378
v -0.08732767 0.01507107 -0.01643891
v -0.08752500 0.01507107 -0.01654164
v -0.08771262 0.01507107 -0.01666116
v -0.08788911 0.01507107 -0.01679659
v -0.11130000 0.01507107 -0.01115000
v -0.11129030 0.01507107 -0.01137225
v -0.11126126 0.01507107 -0.01159280
v -0.08879030 0.01507107 -0.01897225
v -0.08876126 0.01507107 -0.01919280
v -0.08871311 0.01507107 -0.01940999
v -0.08393891 0.01507107 -0.01982768
v -0.08385378 0.01507107 -0.01962215
v -0.08378689 0.01507107 -0.01940999
v -0.10654163 0.01507107 -0.01242500
v -0.10666116 0.01507107 -0.01261262
v -0.10679659 0.01507107 -0.01278911
v -0.27305311 0.01507107 -0.01295312
v -0.27288911 0.01507107 -0.01310341
v -0.27271262 0.01507107 -0.01323884
v -0.29462215 0.01507107 -0.02114622
v -0.29482767 0.01507107 -0.02106109
v -0.29502499 0.01507107 -0.02095836
v -0.29287785 0.01507107 -0.02114622
v -0.29267234 0.01507107 -0.02106109
v -0.29247499 0.01507107 -0.02095836
v -0.08805312 0.01507107 -0.01694688
v -0.08820342 0.01507107 -0.01711089
v -0.11121311 0.01507107 -0.01180999
v -0.11114622 0.01507107 -0.01202215
v -0.11106108 0.01507107 -0.01222768
v -0.11095837 0.01507107 -0.01242500
v -0.11083884 0.01507107 -0.01261262
v -0.11070342 0.01507107 -0.01278911
v -0.10940999 0.01507107 -0.01361311
v -0.08876126 0.01507107 -0.01830720
v -0.08871311 0.01507107 -0.01809001
v -0.08864622 0.01507107 -0.01962215
v -0.08856109 0.01507107 -0.01982768
v -0.08845837 0.01507107 -0.02002500
v -0.10643891 0.01507107 -0.01222768
v -0.10635378 0.01507107 -0.01202215
v -0.10623874 0.01507107 -0.01070720
v -0.10628689 0.01507107 -0.01049001
v -0.10635378 0.01507107 -0.01027785
v -0.10767233 0.01507107 -0.00883892
v -0.10787785 0.01507107 -0.00875378
v -0.08580720 0.01507107 -0.01623874
v -0.10623874 0.01507107 -0.01159280
v -0.08559001 0.01507107 -0.01628689
v -0.08370000 0.01507107 -0.01875000
v -0.08370970 0.01507107 -0.01852775
v -0.08373874 0.01507107 -0.01830720
v -0.08378689 0.01507107 -0.01809001
v -0.08385378 0.01507107 -0.01787785
v -0.08393891 0.01507107 -0.01767232
v -0.08404163 0.01507107 -0.01747500
v -0.10643891 0.01507107 -0.01007232
v -0.10654163 0.01507107 -0.00987500
v -0.10666116 0.01507107 -0.00968738
v -0.27252501 0.01507107 -0.01335836
v -0.27232769 0.01507107 -0.01346109
v -0.27212214 0.01507107 -0.01354622
v -0.27059001 0.01507107 -0.01361311
v -0.27037784 0.01507107 -0.01354622
v -0.11055312 0.01507107 -0.01295312
v -0.11038911 0.01507107 -0.01310341
v -0.11021262 0.01507107 -0.01323884
v -0.11002500 0.01507107 -0.01335836
v -0.10982767 0.01507107 -0.01346109
v -0.10962215 0.01507107 -0.01354622
v -0.29128689 0.01507107 -0.01940999
v -0.08833884 0.01507107 -0.02021262
v -0.08820342 0.01507107 -0.02038911
v -0.08805312 0.01507107 -0.02055312
v -0.08752500 0.01507107 -0.02095836
v -0.08732767 0.01507107 -0.02106109
v -0.08712215 0.01507107 -0.02114622
v -0.10852775 0.01507107 -0.01369030
v -0.10830720 0.01507107 -0.01366126
v -0.10809001 0.01507107 -0.01361311
v -0.10787785 0.01507107 -0.01354622
v -0.10767233 0.01507107 -0.01346109
v -0.10747500 0.01507107 -0.01335836
v -0.10728738 0.01507107 -0.01323884
v -0.08416116 0.01507107 -0.01728738
v -0.08429658 0.01507107 -0.01711089
v -0.08444688 0.01507107 -0.01694688
v -0.08461089 0.01507107 -0.01679659
v -0.08478738 0.01507107 -0.01666116
v -0.08497500 0.01507107 -0.01654164
v -0.10809001 0.01507107 -0.00868689
v -0.10830720 0.01507107 -0.00863874
v -0.10852775 0.01507107 -0.00860970
v -0.27190998 0.01507107 -0.01361311
v -0.27169281 0.01507107 -0.01366126
v -0.27147225 0.01507107 -0.01369030
v -0.27017233 0.01507107 -0.01346109
v -0.26997501 0.01507107 -0.01335836
v -0.10875000 0.01507107 -0.00860000
v -0.10897224 0.01507107 -0.00860970
v -0.10919280 0.01507107 -0.00863874
v -0.08788911 0.01507107 -0.02070341
v -0.08771262 0.01507107 -0.02083884
v -0.08461089 0.01507107 -0.02070341
v -0.08444688 0.01507107 -0.02055312
v -0.08429658 0.01507107 -0.02038911
v -0.10875000 0.01507107 -0.01370000
v -0.10711090 0.01507107 -0.01310341
v -0.10694688 0.01507107 -0.01295312
v -0.08517233 0.01507107 -0.01643891
v -0.08537785 0.01507107 -0.01635378
v -0.10679659 0.01507107 -0.00951089
v -0.10694688 0.01507107 -0.00934688
v -0.10711090 0.01507107 -0.00919659
v -0.08690999 0.01507107 -0.02121311
v -0.08669280 0.01507107 -0.02126126
v -0.08647225 0.01507107 -0.02129030
v -0.08416116 0.01507107 -0.02021262
v -0.08404163 0.01507107 -0.02002500
v -0.10620970 0.01507107 -0.01137225
v -0.10620000 0.01507107 -0.01115000
v -0.10620970 0.01507107 -0.01092775
v -0.10728738 0.01507107 -0.00906116
v -0.10747500 0.01507107 -0.00894164
v -0.27125001 0.01507107 -0.01370000
v -0.27102774 0.01507107 -0.01369030
v -0.27080721 0.01507107 -0.01366126
v -0.08625000 0.01507107 -0.02130000
v -0.08602776 0.01507107 -0.02129030
v -0.08580720 0.01507107 -0.02126126
v -0.08517233 0.01507107 -0.02106109
v -0.08497500 0.01507107 -0.02095836
v -0.08478738 0.01507107 -0.02083884
v -0.08559001 0.01507107 -0.02121311
v -0.08537785 0.01507107 -0.02114622
f 1 2 3
f 2 4 3
f 3 4 5
f 4 6 5
f 5 6 7
f 6 8 7
f 7 8 9
f 8 10 9
f 9 10 11
f 10 12 11
f 11 12 13
f 12 14 13
f 13 14 15
f 14 16 15
f 15 16 17
f 16 18 17
f 17 18 19
f 18 20 19
f 19 20 21
f 20 22 21
f 21 22 23
f 22 24 23
f 23 24 25
f 24 26 25
f 25 26 27
f 26 28 27
f 27 28 29
f 28 30 29
f 29 30 31
f 30 32 31
f 31 32 33
f 32 34 33
f 35 36 37
f 38 39 40
f 39 41 40
f 40 41 42
f 43 44 40
f 44 45 40
f 40 45 38
f 46 47 48
f 47 49 48
f 48 49 37
f 49 50 37
f 50 51 37
f 51 52 37
f 37 52 53
f 54 40 55
f 40 56 55
f 54 57 40
f 57 58 40
f 40 58 43
f 53 59 37
f 59 60 37
f 37 60 61
f 61 62 37
f 62 63 37
f 37 63 35
f 64 65 40
f 65 66 40
f 40 66 56
f 67 68 69
f 68 70 69
f 69 70 71
f 70 72 71
f 71 72 73
f 74 75 76
f 75 77 76
f 76 77 78
f 77 79 78
f 78 79 67
f 79 80 67
f 67 80 68
f 81 82 83
f 83 84 81
f 84 85 81
f 81 85 86
f 82 81 87
f 81 88 87
f 87 88 74
f 88 89 74
f 74 89 75
f 90 91 92
f 93 94 92
f 94 95 92
f 96 97 98
f 99 100 1
f 100 101 1
f 101 102 1
f 1 102 103
f 36 104 37
f 104 105 37
f 37 105 106
f 105 107 106
f 106 107 108
f 107 109 108
f 72 110 73
f 110 111 73
f 73 111 112
f 111 113 112
f 112 113 114
f 113 115 114
f 114 115 116
f 115 117 116
f 116 117 109
f 117 118 109
f 109 118 108
f 95 119 92
f 119 120 92
f 92 120 121
f 122 123 124
f 123 92 124
f 124 92 125
f 92 121 125
f 126 127 128
f 127 129 128
f 48 130 131
f 132 48 133
f 48 134 133
f 132 135 48
f 135 136 48
f 48 136 46
f 64 40 92
f 40 137 92
f 92 137 90
f 122 138 123
f 138 139 123
f 123 139 140
f 103 141 1
f 141 142 1
f 1 142 143
f 127 144 145
f 146 147 148
f 91 149 92
f 149 150 92
f 92 150 93
f 86 151 81
f 151 152 81
f 81 152 96
f 152 153 96
f 96 153 154
f 154 155 96
f 155 156 96
f 96 156 157
f 145 158 127
f 158 159 127
f 127 159 129
f 160 161 48
f 161 162 48
f 48 162 163
f 164 48 165
f 48 166 165
f 164 167 48
f 167 168 48
f 48 168 130
f 169 170 171
f 170 172 171
f 171 172 173
f 172 42 173
f 173 42 174
f 42 41 174
f 157 175 96
f 175 176 96
f 96 176 177
f 98 9 11
f 146 148 178
f 179 180 181
f 131 182 48
f 182 183 48
f 48 183 184
f 184 185 48
f 185 186 48
f 48 186 187
f 1 3 99
f 3 5 99
f 99 5 98
f 5 7 98
f 98 7 9
f 25 27 96
f 143 188 1
f 188 189 1
f 1 189 190
f 127 191 192
f 181 193 194
f 194 195 181
f 195 196 181
f 181 196 197
f 198 199 166
f 163 200 48
f 200 201 48
f 48 201 202
f 177 203 96
f 203 204 96
f 96 204 140
f 11 13 98
f 13 15 98
f 98 15 17
f 27 29 96
f 29 31 96
f 96 31 33
f 190 205 1
f 205 206 1
f 1 206 207
f 207 208 1
f 208 209 1
f 1 209 127
f 209 210 127
f 127 210 191
f 192 211 127
f 211 212 127
f 127 212 144
f 213 148 214
f 148 215 214
f 216 217 148
f 217 218 148
f 148 218 178
f 180 219 181
f 219 220 181
f 181 220 193
f 197 221 181
f 221 222 181
f 181 222 223
f 224 225 126
f 127 226 227
f 228 48 229
f 48 230 229
f 139 231 140
f 231 232 140
f 140 232 96
f 232 233 96
f 96 233 97
f 17 19 98
f 19 21 98
f 98 21 96
f 21 23 96
f 96 23 25
f 234 235 48
f 235 236 48
f 48 236 237
f 213 238 148
f 238 239 148
f 148 239 216
f 181 240 241
f 242 243 244
f 243 245 244
f 199 246 166
f 246 247 166
f 166 247 248
f 249 250 240
f 227 251 127
f 251 252 127
f 127 252 48
f 252 253 48
f 48 253 160
f 202 254 48
f 254 255 48
f 48 255 230
f 228 256 48
f 256 257 48
f 48 257 258
f 187 259 48
f 259 260 48
f 48 260 261
f 261 262 48
f 262 170 48
f 48 170 134
f 170 169 134
f 237 263 48
f 263 264 48
f 48 264 215
f 241 265 181
f 265 266 181
f 181 266 179
f 244 267 268
f 224 126 269
f 225 270 126
f 270 271 126
f 126 271 272
f 181 273 240
f 273 274 240
f 240 274 275
f 258 276 48
f 276 277 48
f 48 277 234
f 223 278 181
f 278 279 181
f 181 279 280
f 279 281 280
f 280 281 244
f 281 282 244
f 244 282 242
f 283 284 244
f 284 285 244
f 244 285 267
f 147 286 148
f 286 244 148
f 148 244 287
f 244 268 287
f 288 289 166
f 289 290 166
f 248 291 166
f 291 292 166
f 166 292 293
f 292 294 293
f 275 295 240
f 295 296 240
f 240 296 249
f 245 297 244
f 297 298 244
f 244 298 283
f 290 299 166
f 299 300 166
f 166 300 301
f 301 302 166
f 302 303 166
f 166 303 198
f 294 292 126
f 292 304 126
f 126 304 269
f 215 148 48
f 148 305 48
f 48 305 166
f 305 306 166
f 166 306 288
f 272 307 126
f 307 308 126
f 126 308 309
f 310 127 311
f 127 312 311
f 310 313 127
f 313 314 127
f 127 314 315
f 315 316 127
f 316 317 127
f 127 317 226
f 309 318 126
f 318 319 126
f 126 319 320
f 321 322 323
f 322 240 323
f 323 240 324
f 240 250 324
f 320 325 126
f 325 326 126
f 126 326 327
f 328 329 127
f 321 330 322
f 330 331 322
f 322 331 332
f 333 334 127
f 334 335 127
f 327 336 126
f 336 337 126
f 126 337 127
f 337 338 127
f 127 338 328
f 335 339 127
f 339 340 127
f 127 340 341
f 329 342 127
f 342 322 127
f 127 322 333
f 322 332 333
f 341 343 127
f 343 344 127
f 127 344 312
f 345 96 34
f 96 33 34
f 346 37 106
f 346 106 347
f 106 108 347
f 347 108 348
f 108 118 348
f 348 118 349
f 118 117 349
f 349 117 350
f 117 115 350
f 350 115 351
f 115 113 351
f 351 113 352
f 113 111 352
f 352 111 353
f 111 110 353
f 353 110 354
f 110 72 354
f 354 72 355
f 72 70 355
f 355 70 356
f 70 68 356
f 356 68 357
f 68 80 357
f 357 80 358
f 80 79 358
f 358 79 359
f 79 77 359
f 359 77 360
f 77 75 360
f 360 75 361
f 75 89 361
f 361 89 362
f 89 88 362
f 362 88 363
f 88 81 363
f 363 81 364
f 365 366 2
f 367 368 345
f 368 369 345
f 369 370 345
f 345 370 371
f 372 2 373
f 2 374 373
f 375 376 377
f 371 378 345
f 378 379 345
f 345 379 364
f 379 380 364
f 364 380 381
f 382 2 383
f 2 384 383
f 382 385 2
f 385 386 2
f 2 386 374
f 381 387 364
f 387 388 364
f 364 388 389
f 390 391 392
f 393 394 395
f 394 396 395
f 366 397 2
f 397 398 2
f 2 398 399
f 400 394 401
f 394 402 401
f 400 403 394
f 403 404 394
f 394 404 405
f 406 407 345
f 407 408 345
f 345 408 367
f 389 409 364
f 409 410 364
f 364 410 363
f 410 411 363
f 363 411 362
f 411 412 362
f 362 412 361
f 412 413 361
f 414 357 415
f 357 358 415
f 415 358 416
f 358 359 416
f 416 359 413
f 359 360 413
f 413 360 361
f 417 392 418
f 392 419 418
f 420 421 396
f 422 423 424
f 393 425 394
f 425 426 394
f 394 426 377
f 399 427 2
f 427 428 2
f 2 428 384
f 429 372 430
f 372 431 430
f 430 431 432
f 405 433 394
f 433 434 394
f 394 434 435
f 435 436 394
f 436 437 394
f 394 437 2
f 437 438 2
f 2 438 365
f 439 440 34
f 440 441 34
f 34 441 345
f 441 442 345
f 345 442 406
f 443 444 392
f 445 446 447
f 432 448 430
f 448 449 430
f 430 449 450
f 450 451 430
f 451 452 430
f 430 452 453
f 454 455 394
f 455 456 394
f 394 456 457
f 457 458 394
f 458 459 394
f 394 459 402
f 429 460 372
f 460 461 372
f 372 461 2
f 461 462 2
f 2 462 463
f 16 14 464
f 465 353 466
f 353 354 466
f 466 354 467
f 354 355 467
f 467 355 414
f 355 356 414
f 414 356 357
f 444 468 392
f 468 469 392
f 392 469 419
f 376 470 377
f 470 471 377
f 377 471 472
f 473 474 394
f 475 476 394
f 476 477 394
f 394 477 478
f 479 26 480
f 26 24 480
f 480 24 481
f 482 483 396
f 484 396 485
f 396 486 485
f 422 424 487
f 424 488 487
f 487 488 489
f 490 491 417
f 491 492 417
f 375 377 453
f 377 493 453
f 453 493 430
f 474 494 394
f 494 495 394
f 394 495 475
f 478 496 394
f 496 497 394
f 394 497 454
f 463 498 2
f 498 499 2
f 2 499 4
f 499 6 4
f 464 14 500
f 34 32 439
f 32 30 439
f 439 30 479
f 30 28 479
f 479 28 26
f 501 502 346
f 502 503 346
f 346 503 504
f 504 505 346
f 505 506 346
f 346 506 507
f 482 396 508
f 483 509 396
f 509 510 396
f 396 510 511
f 511 512 396
f 512 513 396
f 396 513 420
f 421 514 396
f 514 515 396
f 396 515 486
f 516 517 422
f 517 518 422
f 518 519 422
f 422 519 520
f 520 521 422
f 521 522 422
f 422 522 523
f 484 524 396
f 524 525 396
f 396 525 526
f 492 527 417
f 527 528 417
f 417 528 529
f 530 531 392
f 531 532 392
f 392 532 390
f 533 446 534
f 446 535 534
f 472 536 377
f 536 537 377
f 377 537 538
f 24 22 481
f 22 20 481
f 481 20 464
f 20 18 464
f 464 18 16
f 346 347 501
f 347 348 501
f 501 348 539
f 348 349 539
f 539 349 540
f 349 350 540
f 540 350 541
f 350 351 541
f 541 351 465
f 351 352 465
f 465 352 353
f 507 542 346
f 542 543 346
f 346 543 392
f 543 544 392
f 392 544 443
f 523 545 422
f 545 546 422
f 422 546 423
f 526 547 396
f 547 548 396
f 396 548 549
f 549 550 396
f 550 551 396
f 396 551 552
f 491 553 554
f 553 487 554
f 554 487 555
f 487 489 555
f 529 556 417
f 556 557 417
f 417 557 558
f 533 559 446
f 559 560 446
f 446 560 447
f 561 562 394
f 562 563 394
f 564 565 394
f 14 12 500
f 12 10 500
f 500 10 499
f 10 8 499
f 499 8 6
f 445 447 566
f 447 567 566
f 566 567 568
f 391 569 392
f 569 570 392
f 392 570 394
f 570 571 394
f 394 571 572
f 572 573 394
f 573 574 394
f 394 574 575
f 563 576 394
f 576 577 394
f 394 577 578
f 538 579 377
f 579 580 377
f 377 580 581
f 394 582 583
f 552 584 396
f 584 585 396
f 396 585 586
f 586 587 396
f 587 588 396
f 396 588 589
f 490 590 491
f 590 396 491
f 491 396 553
f 396 589 553
f 558 591 417
f 591 592 417
f 417 592 593
f 417 594 392
f 594 595 392
f 392 595 596
f 597 598 446
f 598 599 446
f 446 599 600
f 600 601 446
f 601 602 446
f 446 602 603
f 575 604 394
f 604 605 394
f 394 605 606
f 606 607 394
f 607 608 394
f 394 608 609
f 565 610 394
f 610 611 394
f 394 611 612
f 581 613 377
f 613 614 377
f 377 614 615
f 583 616 394
f 616 617 394
f 394 617 473
f 612 618 394
f 618 619 394
f 394 619 396
f 619 620 396
f 396 620 508
f 593 621 417
f 621 622 417
f 417 622 594
f 623 624 392
f 624 625 392
f 516 422 446
f 422 626 446
f 446 626 597
f 603 627 446
f 627 628 446
f 446 628 535
f 609 629 394
f 629 630 394
f 394 630 568
f 578 631 394
f 631 632 394
f 394 632 633
f 596 634 392
f 634 635 392
f 392 635 636
f 625 637 392
f 637 638 392
f 392 638 530
f 567 639 568
f 639 640 568
f 568 640 394
f 640 641 394
f 394 641 561
f 633 642 394
f 642 643 394
f 394 643 564
f 615 644 377
f 644 645 377
f 377 645 394
f 645 646 394
f 394 646 582
f 636 647 392
f 647 648 392
f 392 648 649
f 650 651 392
f 651 652 392
f 392 652 623
f 649 653 392
f 653 654 392
f 392 654 650
f 96 345 81
f 345 364 81
f 450 232 451
f 232 231 451
f 451 231 452
f 231 139 452
f 452 139 453
f 139 138 453
f 453 138 375
f 138 122 375
f 375 122 376
f 122 124 376
f 376 124 470
f 124 125 470
f 470 125 471
f 125 121 471
f 471 121 472
f 121 120 472
f 472 120 536
f 120 119 536
f 536 119 537
f 119 95 537
f 537 95 538
f 95 94 538
f 538 94 579
f 94 93 579
f 579 93 580
f 93 150 580
f 580 150 581
f 150 149 581
f 581 149 613
f 149 91 613
f 613 91 614
f 91 90 614
f 614 90 615
f 90 137 615
f 615 137 644
f 137 40 644
f 644 40 645
f 40 42 645
f 645 42 646
f 42 172 646
f 646 172 582
f 172 170 582
f 582 170 583
f 170 262 583
f 583 262 616
f 262 261 616
f 616 261 617
f 261 260 617
f 617 260 473
f 260 259 473
f 473 259 474
f 259 187 474
f 474 187 494
f 187 186 494
f 494 186 495
f 186 185 495
f 495 185 475
f 185 184 475
f 475 184 476
f 184 183 476
f 476 183 477
f 183 182 477
f 477 182 478
f 182 131 478
f 478 131 496
f 131 130 496
f 496 130 497
f 130 168 497
f 497 168 454
f 168 167 454
f 454 167 455
f 167 164 455
f 455 164 456
f 164 165 456
f 456 165 457
f 165 166 457
f 457 166 458
f 166 293 458
f 458 293 459
f 293 294 459
f 459 294 402
f 294 126 402
f 402 126 401
f 126 128 401
f 401 128 400
f 128 129 400
f 400 129 403
f 129 159 403
f 403 159 404
f 159 158 404
f 404 158 405
f 158 145 405
f 405 145 433
f 145 144 433
f 433 144 434
f 144 212 434
f 434 212 435
f 212 211 435
f 435 211 436
f 211 192 436
f 436 192 437
f 192 191 437
f 437 191 438
f 191 210 438
f 438 210 365
f 210 209 365
f 365 209 366
f 209 208 366
f 366 208 397
f 208 207 397
f 397 207 398
f 207 206 398
f 398 206 399
f 206 205 399
f 399 205 427
f 205 190 427
f 427 190 428
f 190 189 428
f 428 189 384
f 189 188 384
f 384 188 383
f 188 143 383
f 383 143 382
f 143 142 382
f 382 142 385
f 142 141 385
f 385 141 386
f 141 103 386
f 386 103 374
f 103 102 374
f 374 102 373
f 102 101 373
f 373 101 372
f 101 100 372
f 372 100 431
f 100 99 431
f 431 99 432
f 99 98 432
f 432 98 448
f 98 97 448
f 448 97 449
f 97 233 449
f 449 233 450
f 233 232 450
f 392 48 346
f 48 37 346
f 127 394 1
f 394 2 1
f 127 48 394
f 48 392 394
f 389 84 409
f 84 83 409
f 409 83 410
f 83 82 410
f 410 82 411
f 82 87 411
f 411 87 412
f 87 74 412
f 412 74 413
f 74 76 413
f 413 76 416
f 76 78 416
f 416 78 415
f 78 67 415
f 415 67 414
f 67 69 414
f 414 69 467
f 69 71 467
f 467 71 466
f 71 73 466
f 466 73 465
f 73 112 465
f 465 112 541
f 112 114 541
f 541 114 540
f 114 116 540
f 540 116 539
f 116 109 539
f 539 109 501
f 109 107 501
f 501 107 502
f 107 105 502
f 502 105 503
f 105 104 503
f 503 104 504
f 104 36 504
f 504 36 505
f 36 35 505
f 505 35 506
f 35 63 506
f 506 63 507
f 63 62 507
f 507 62 542
f 62 61 542
f 542 61 543
f 61 60 543
f 543 60 544
f 60 59 544
f 544 59 443
f 59 53 443
f 443 53 444
f 53 52 444
f 444 52 468
f 52 51 468
f 468 51 469
f 51 50 469
f 469 50 419
f 50 49 419
f 419 49 418
f 49 47 418
f 418 47 417
f 47 46 417
f 417 46 490
f 46 136 490
f 490 136 590
f 136 135 590
f 590 135 396
f 135 132 396
f 396 132 395
f 132 133 395
f 395 133 393
f 133 134 393
f 393 134 425
f 134 169 425
f 425 169 426
f 169 171 426
f 426 171 377
f 171 173 377
f 377 173 493
f 173 174 493
f 493 174 430
f 174 41 430
f 430 41 429
f 41 39 429
f 429 39 460
f 39 38 460
f 460 38 461
f 38 45 461
f 461 45 462
f 45 44 462
f 462 44 463
f 44 43 463
f 463 43 498
f 43 58 498
f 498 58 499
f 58 57 499
f 499 57 500
f 57 54 500
f 500 54 464
f 54 55 464
f 464 55 481
f 55 56 481
f 481 56 480
f 56 66 480
f 480 66 479
f 66 65 479
f 479 65 439
f 65 64 439
f 439 64 440
f 64 92 440
f 440 92 441
f 92 123 441
f 441 123 442
f 123 140 442
f 442 140 406
f 140 204 406
f 406 204 407
f 204 203 407
f 407 203 408
f 203 177 408
f 408 177 367
f 177 176 367
f 367 176 368
f 176 175 368
f 368 175 369
f 175 157 369
f 369 157 370
f 157 156 370
f 370 156 371
f 156 155 371
f 371 155 378
f 155 154 378
f 378 154 379
f 154 153 379
f 379 153 380
f 153 152 380
f 380 152 381
f 152 151 381
f 381 151 387
f 151 86 387
f 387 86 388
f 86 85 388
f 388 85 389
f 85 84 389
f 492 280 527
f 280 244 527
f 527 244 528
f 244 286 528
f 528 286 529
f 286 147 529
f 529 147 556
f 147 146 556
f 556 146 557
f 146 178 557
f 557 178 558
f 178 218 558
f 558 218 591
f 218 217 591
f 591 217 592
f 217 216 592
f 592 216 593
f 216 239 593
f 593 239 621
f 239 238 621
f 621 238 622
f 238 213 622
f 622 213 594
f 213 214 594
f 594 214 595
f 214 215 595
f 595 215 596
f 215 264 596
f 596 264 634
f 264 263 634
f 634 263 635
f 263 237 635
f 635 237 636
f 237 236 636
f 636 236 647
f 236 235 647
f 647 235 648
f 235 234 648
f 648 234 649
f 234 277 649
f 649 277 653
f 277 276 653
f 653 276 654
f 276 258 654
f 654 258 650
f 258 257 650
f 650 257 651
f 257 256 651
f 651 256 652
f 256 228 652
f 652 228 623
f 228 229 623
f 623 229 624
f 229 230 624
f 624 230 625
f 230 255 625
f 625 255 637
f 255 254 637
f 637 254 638
f 254 202 638
f 638 202 530
f 202 201 530
f 530 201 531
f 201 200 531
f 531 200 532
f 200 163 532
f 532 163 390
f 163 162 390
f 390 162 391
f 162 161 391
f 391 161 569
f 161 160 569
f 569 160 570
f 160 253 570
f 570 253 571
f 253 252 571
f 571 252 572
f 252 251 572
f 572 251 573
f 251 227 573
f 573 227 574
f 227 226 574
f 574 226 575
f 226 317 575
f 575 317 604
f 317 316 604
f 604 316 605
f 316 315 605
f 605 315 606
f 315 314 606
f 606 314 607
f 314 313 607
f 607 313 608
f 313 310 608
f 608 310 609
f 310 311 609
f 609 311 629
f 311 312 629
f 629 312 630
f 312 344 630
f 630 344 568
f 344 343 568
f 568 343 566
f 343 341 566
f 566 341 445
f 341 340 445
f 445 340 446
f 340 339 446
f 446 339 516
f 339 335 516
f 516 335 517
f 335 334 517
f 517 334 518
f 334 333 518
f 518 333 519
f 333 332 519
f 519 332 520
f 332 331 520
f 520 331 521
f 331 330 521
f 521 330 522
f 330 321 522
f 522 321 523
f 321 323 523
f 523 323 545
f 323 324 545
f 545 324 546
f 324 250 546
f 546 250 423
f 250 249 423
f 423 249 424
f 249 296 424
f 424 296 488
f 296 295 488
f 488 295 489
f 295 275 489
f 489 275 555
f 275 274 555
f 555 274 554
f 274 273 554
f 554 273 491
f 273 181 491
f 491 181 492
f 181 280 492
f 524 304 525
f 304 292 525
f 525 292 526
f 292 291 526
f 526 291 547
f 291 248 547
f 547 248 548
f 248 247 548
f 548 247 549
f 247 246 549
f 549 246 550
f 246 199 550
f 550 199 551
f 199 198 551
f 551 198 552
f 198 303 552
f 552 303 584
f 303 302 584
f 584 302 585
f 302 301 585
f 585 301 586
f 301 300 586
f 586 300 587
f 300 299 587
f 587 299 588
f 299 290 588
f 588 290 589
f 290 289 589
f 589 289 553
f 289 288 553
f 553 288 487
f 288 306 487
f 487 306 422
f 306 305 422
f 422 305 626
f 305 148 626
f 626 148 597
f 148 287 597
f 597 287 598
f 287 268 598
f 598 268 599
f 268 267 599
f 599 267 600
f 267 285 600
f 600 285 601
f 285 284 601
f 601 284 602
f 284 283 602
f 602 283 603
f 283 298 603
f 603 298 627
f 298 297 627
f 627 297 628
f 297 245 628
f 628 245 535
f 245 243 535
f 535 243 534
f 243 242 534
f 534 242 533
f 242 282 533
f 533 282 559
f 282 281 559
f 559 281 560
f 281 279 560
f 560 279 447
f 279 278 447
f 447 278 567
f 278 223 567
f 567 223 639
f 223 222 639
f 639 222 640
f 222 221 640
f 640 221 641
f 221 197 641
f 641 197 561
f 197 196 561
f 561 196 562
f 196 195 562
f 562 195 563
f 195 194 563
f 563 194 576
f 194 193 576
f 576 193 577
f 193 220 577
f 577 220 578
f 220 219 578
f 578 219 631
f 219 180 631
f 631 180 632
f 180 179 632
f 632 179 633
f 179 266 633
f 633 266 642
f 266 265 642
f 642 265 643
f 265 241 643
f 643 241 564
f 241 240 564
f 564 240 565
f 240 322 565
f 565 322 610
f 322 342 610
f 610 342 611
f 342 329 611
f 611 329 612
f 329 328 612
f 612 328 618
f 328 338 618
f 618 338 619
f 338 337 619
f 619 337 620
f 337 336 620
f 620 336 508
f 336 327 508
f 508 327 482
f 327 326 482
f 482 326 483
f 326 325 483
f 483 325 509
f 325 320 509
f 509 320 510
f 320 319 510
f 510 319 511
f 319 318 511
f 511 318 512
f 318 309 512
f 512 309 513
f 309 308 513
f 513 308 420
f 308 307 420
f 420 307 421
f 307 272 421
f 421 272 514
f 272 271 514
f 514 271 515
f 271 270 515
f 515 270 486
f 270 225 486
f 486 225 485
f 225 224 485
f 485 224 484
f 224 269 484
f 484 269 524
f 269 304 524

