# https://github.com/mikedh/trimesh
v 0.31461465 -0.04047553 -0.18228127
v 0.23999999 -0.04048485 -0.18206769
v 0.31461465 -0.04048485 -0.18206769
v 0.23999999 -0.04051276 -0.18185574
v 0.31461465 -0.04051276 -0.18185574
v 0.23999999 -0.04055903 -0.18164703
v 0.31461465 -0.04055903 -0.18164703
v 0.23999999 -0.04062331 -0.18144314
v 0.31461465 -0.04062331 -0.18144314
v 0.23999999 -0.04070512 -0.18124564
v 0.31461465 -0.04070512 -0.18124564
v 0.23999999 -0.04080383 -0.18105602
v 0.31461465 -0.04080383 -0.18105602
v 0.23999999 -0.04091870 -0.18087572
v 0.31461465 -0.04091870 -0.18087572
v 0.23999999 -0.04104884 -0.18070611
v 0.31461465 -0.04104884 -0.18070611
v 0.23999999 -0.04119326 -0.18054850
v 0.31461465 -0.04119326 -0.18054850
v 0.23999999 -0.04135088 -0.18040407
v 0.31461465 -0.04135088 -0.18040407
v 0.23999999 -0.04152048 -0.18027394
v 0.31461465 -0.04152048 -0.18027394
v 0.23999999 -0.04170078 -0.18015908
v 0.31461465 -0.04170078 -0.18015908
v 0.23999999 -0.04189040 -0.18006036
v 0.31461465 -0.04189040 -0.18006036
v 0.23999999 -0.04208791 -0.17997855
v 0.31461465 -0.04208791 -0.17997855
v 0.23999999 -0.04229179 -0.17991427
v 0.31461465 -0.04229179 -0.17991427
v 0.23999999 -0.04250050 -0.17986800
v 0.31461465 -0.04250050 -0.17986800
v 0.23999999 -0.04271245 -0.17984009
v 0.31461465 -0.04271245 -0.17984009
v 0.23999999 -0.04292603 -0.17983076
v 0.31461465 -0.04292603 -0.17983076
v 0.23999999 -0.04313960 -0.17984009
v 0.31461465 -0.04313960 -0.17984009
v 0.23999999 -0.04335155 -0.17986800
v 0.31461465 -0.04335155 -0.17986800
v 0.23999999 -0.04356026 -0.17991427
v 0.31461465 -0.04356026 -0.17991427
v 0.23999999 -0.04376415 -0.17997855
v 0.31461465 -0.04376415 -0.17997855
v 0.23999999 -0.04396166 -0.18006036
v 0.31461465 -0.04396166 -0.18006036
v 0.23999999 -0.04415128 -0.18015908
v 0.31461465 -0.04415128 -0.18015908
v 0.23999999 -0.04433158 -0.18027394
v 0.31461465 -0.04433158 -0.18027394
v 0.23999999 -0.04450118 -0.18040407
v 0.31461465 -0.04450118 -0.18040407
v 0.23999999 -0.04465879 -0.18054850
v 0.31461465 -0.04465879 -0.18054850
v 0.23999999 -0.04480322 -0.18070611
v 0.31461465 -0.04480322 -0.18070611
v 0.23999999 -0.04493336 -0.18087572
v 0.31461465 -0.04493336 -0.18087572
v 0.23999999 -0.04504822 -0.18105602
v 0.31461465 -0.04504822 -0.18105602
v 0.23999999 -0.04514693 -0.18124564
v 0.31461465 -0.04514693 -0.18124564
v 0.23999999 -0.04522875 -0.18144314
v 0.31461465 -0.04522875 -0.18144314
v 0.23999999 -0.04529303 -0.18164703
v 0.31461465 -0.04529303 -0.18164703
v 0.23999999 -0.04533930 -0.18185574
v 0.31461465 -0.04533930 -0.18185574
v 0.23999999 -0.04536720 -0.18206769
v 0.31461465 -0.04536720 -0.18206769
v 0.23999999 -0.04537653 -0.18228127
v 0.31461465 -0.04537653 -0.18228127
v 0.23999999 -0.04536720 -0.18249483
v 0.31461465 -0.04536720 -0.18249483
v 0.23999999 -0.04533930 -0.18270679
v 0.31461465 -0.04533930 -0.18270679
v 0.23999999 -0.04529303 -0.18291551
v 0.31461465 -0.04529303 -0.18291551
v 0.23999999 -0.04522875 -0.18311939
v 0.31461465 -0.04522875 -0.18311939
v 0.23999999 -0.04514693 -0.18331689
v 0.31461465 -0.04514693 -0.18331689
v 0.23999999 -0.04504822 -0.18350652
v 0.31461465 -0.04504822 -0.18350652
v 0.23999999 -0.04493336 -0.18368681
v 0.31461465 -0.04493336 -0.18368681
v 0.23999999 -0.04480322 -0.18385641
v 0.31461465 -0.04480322 -0.18385641
v 0.23999999 -0.04465879 -0.18401404
v 0.31461465 -0.04465879 -0.18401404
v 0.23999999 -0.04450118 -0.18415846
v 0.31461465 -0.04450118 -0.18415846
v 0.23999999 -0.04433158 -0.18428859
v 0.31461465 -0.04433158 -0.18428859
v 0.23999999 -0.04415128 -0.18440346
v 0.31461465 -0.04415128 -0.18440346
v 0.23999999 -0.04396166 -0.18450217
v 0.31461465 -0.04396166 -0.18450217
v 0.23999999 -0.04376415 -0.18458398
v 0.31461465 -0.04376415 -0.18458398
v 0.23999999 -0.04356026 -0.18464826
v 0.31461465 -0.04356026 -0.18464826
v 0.23999999 -0.04335155 -0.18469454
v 0.31461465 -0.04335155 -0.18469454
v 0.23999999 -0.04313960 -0.18472244
v 0.31461465 -0.04313960 -0.18472244
v 0.23999999 -0.04292603 -0.18473177
v 0.31461465 -0.04292603 -0.18473177
v 0.23999999 -0.04271245 -0.18472244
v 0.31461465 -0.04271245 -0.18472244
v 0.23999999 -0.04250050 -0.18469454
v 0.31461465 -0.04250050 -0.18469454
v 0.23999999 -0.04229179 -0.18464826
v 0.31461465 -0.04229179 -0.18464826
v 0.23999999 -0.04208791 -0.18458398
v 0.31461465 -0.04208791 -0.18458398
v 0.23999999 -0.04189040 -0.18450217
v 0.31461465 -0.04189040 -0.18450217
v 0.23999999 -0.04170078 -0.18440346
v 0.31461465 -0.04170078 -0.18440346
v 0.23999999 -0.04152048 -0.18428859
v 0.31461465 -0.04152048 -0.18428859
v 0.23999999 -0.04135088 -0.18415846
v 0.31461465 -0.04135088 -0.18415846
v 0.23999999 -0.04119326 -0.18401404
v 0.31461465 -0.04119326 -0.18401404
v 0.23999999 -0.04104884 -0.18385641
v 0.31461465 -0.04104884 -0.18385641
v 0.23999999 -0.04091870 -0.18368681
v 0.31461465 -0.04091870 -0.18368681
v 0.23999999 -0.04080383 -0.18350652
v 0.31461465 -0.04080383 -0.18350652
v 0.23999999 -0.04070512 -0.18331689
v 0.31461465 -0.04070512 -0.18331689
v 0.23999999 -0.04062331 -0.18311939
v 0.31461465 -0.04062331 -0.18311939
v 0.23999999 -0.04055903 -0.18291551
v 0.31461465 -0.04055903 -0.18291551
v 0.23999999 -0.04051276 -0.18270679
v 0.31461465 -0.04051276 -0.18270679
v 0.23999999 -0.04048485 -0.18249483
v 0.31461465 -0.04048485 -0.18249483
v 0.23999999 -0.04047553 -0.18228127
v 0.31461465 -0.04292603 -0.18228127
v 0.23999999 -0.04292603 -0.18228127
f 1 2 3
f 2 4 3
f 3 4 5
f 4 6 5
f 5 6 7
f 6 8 7
f 7 8 9
f 8 10 9
f 9 10 11
f 10 12 11
f 11 12 13
f 12 14 13
f 13 14 15
f 14 16 15
f 15 16 17
f 16 18 17
f 17 18 19
f 18 20 19
f 19 20 21
f 20 22 21
f 21 22 23
f 22 24 23
f 23 24 25
f 24 26 25
f 25 26 27
f 26 28 27
f 27 28 29
f 28 30 29
f 29 30 31
f 30 32 31
f 31 32 33
f 32 34 33
f 33 34 35
f 34 36 35
f 35 36 37
f 36 38 37
f 37 38 39
f 38 40 39
f 39 40 41
f 40 42 41
f 41 42 43
f 42 44 43
f 43 44 45
f 44 46 45
f 45 46 47
f 46 48 47
f 47 48 49
f 48 50 49
f 49 50 51
f 50 52 51
f 51 52 53
f 52 54 53
f 53 54 55
f 54 56 55
f 55 56 57
f 56 58 57
f 57 58 59
f 58 60 59
f 59 60 61
f 60 62 61
f 61 62 63
f 62 64 63
f 63 64 65
f 64 66 65
f 65 66 67
f 66 68 67
f 67 68 69
f 68 70 69
f 69 70 71
f 70 72 71
f 71 72 73
f 72 74 73
f 73 74 75
f 74 76 75
f 75 76 77
f 76 78 77
f 77 78 79
f 78 80 79
f 79 80 81
f 80 82 81
f 81 82 83
f 82 84 83
f 83 84 85
f 84 86 85
f 85 86 87
f 86 88 87
f 87 88 89
f 88 90 89
f 89 90 91
f 90 92 91
f 91 92 93
f 92 94 93
f 93 94 95
f 94 96 95
f 95 96 97
f 96 98 97
f 97 98 99
f 98 100 99
f 99 100 101
f 100 102 101
f 101 102 103
f 102 104 103
f 103 104 105
f 104 106 105
f 105 106 107
f 106 108 107
f 107 108 109
f 108 110 109
f 109 110 111
f 110 112 111
f 111 112 113
f 112 114 113
f 113 114 115
f 114 116 115
f 115 116 117
f 116 118 117
f 117 118 119
f 118 120 119
f 119 120 121
f 120 122 121
f 121 122 123
f 122 124 123
f 123 124 125
f 124 126 125
f 125 126 127
f 126 128 127
f 127 128 129
f 128 130 129
f 129 130 131
f 130 132 131
f 131 132 133
f 132 134 133
f 133 134 135
f 134 136 135
f 135 136 137
f 136 138 137
f 137 138 139
f 138 140 139
f 139 140 141
f 140 142 141
f 141 142 143
f 142 144 143
f 143 144 1
f 144 2 1
f 141 143 145
f 143 1 145
f 145 1 3
f 135 137 145
f 137 139 145
f 145 139 141
f 129 131 145
f 131 133 145
f 145 133 135
f 123 125 145
f 125 127 145
f 145 127 129
f 117 119 145
f 119 121 145
f 145 121 123
f 111 113 145
f 113 115 145
f 145 115 117
f 105 107 145
f 107 109 145
f 145 109 111
f 99 101 145
f 101 103 145
f 145 103 105
f 93 95 145
f 95 97 145
f 145 97 99
f 87 89 145
f 89 91 145
f 145 91 93
f 81 83 145
f 83 85 145
f 145 85 87
f 75 77 145
f 77 79 145
f 145 79 81
f 69 71 145
f 71 73 145
f 145 73 75
f 63 65 145
f 65 67 145
f 145 67 69
f 57 59 145
f 59 61 145
f 145 61 63
f 51 53 145
f 53 55 145
f 145 55 57
f 45 47 145
f 47 49 145
f 145 49 51
f 39 41 145
f 41 43 145
f 145 43 45
f 33 35 145
f 35 37 145
f 145 37 39
f 27 29 145
f 29 31 145
f 145 31 33
f 21 23 145
f 23 25 145
f 145 25 27
f 15 17 145
f 17 19 145
f 145 19 21
f 9 11 145
f 11 13 145
f 145 13 15
f 3 5 145
f 5 7 145
f 145 7 9
f 4 2 146
f 2 144 146
f 146 144 142
f 10 8 146
f 8 6 146
f 146 6 4
f 16 14 146
f 14 12 146
f 146 12 10
f 22 20 146
f 20 18 146
f 146 18 16
f 28 26 146
f 26 24 146
f 146 24 22
f 34 32 146
f 32 30 146
f 146 30 28
f 40 38 146
f 38 36 146
f 146 36 34
f 46 44 146
f 44 42 146
f 146 42 40
f 52 50 146
f 50 48 146
f 146 48 46
f 58 56 146
f 56 54 146
f 146 54 52
f 64 62 146
f 62 60 146
f 146 60 58
f 70 68 146
f 68 66 146
f 146 66 64
f 76 74 146
f 74 72 146
f 146 72 70
f 82 80 146
f 80 78 146
f 146 78 76
f 88 86 146
f 86 84 146
f 146 84 82
f 94 92 146
f 92 90 146
f 146 90 88
f 100 98 146
f 98 96 146
f 146 96 94
f 106 104 146
f 104 102 146
f 146 102 100
f 112 110 146
f 110 108 146
f 146 108 106
f 118 116 146
f 116 114 146
f 146 114 112
f 124 122 146
f 122 120 146
f 146 120 118
f 130 128 146
f 128 126 146
f 146 126 124
f 136 134 146
f 134 132 146
f 146 132 130
f 142 140 146
f 140 138 146
f 146 138 136

