# https://github.com/mikedh/trimesh
v 0.28145000 -0.00000000 -0.05930000
v 0.28145000 -0.00000000 -0.11430000
v 0.28146160 0.00026583 -0.05930000
v 0.28146160 0.00026583 -0.11430000
v 0.28149635 0.00052963 -0.05930000
v 0.28149635 0.00052963 -0.11430000
v 0.28155392 0.00078940 -0.05930000
v 0.28155392 0.00078940 -0.11430000
v 0.28163394 0.00104316 -0.05930000
v 0.28163394 0.00104316 -0.11430000
v 0.28173578 0.00128899 -0.05930000
v 0.28173578 0.00128899 -0.11430000
v 0.28185862 0.00152500 -0.05930000
v 0.28185862 0.00152500 -0.11430000
v 0.28200158 0.00174941 -0.05930000
v 0.28200158 0.00174941 -0.11430000
v 0.28216356 0.00196050 -0.05930000
v 0.28216356 0.00196050 -0.11430000
v 0.28234333 0.00215668 -0.05930000
v 0.28234333 0.00215668 -0.11430000
v 0.28253949 0.00233644 -0.05930000
v 0.28253949 0.00233644 -0.11430000
v 0.28275061 0.00249841 -0.05930000
v 0.28275061 0.00249841 -0.11430000
v 0.28297499 0.00264138 -0.05930000
v 0.28297499 0.00264138 -0.11430000
v 0.28321102 0.00276424 -0.05930000
v 0.28321102 0.00276424 -0.11430000
v 0.28345683 0.00286606 -0.05930000
v 0.28345683 0.00286606 -0.11430000
v 0.28371060 0.00294607 -0.05930000
v 0.28371060 0.00294607 -0.11430000
v 0.28397039 0.00300366 -0.05930000
v 0.28397039 0.00300366 -0.11430000
v 0.28423417 0.00303839 -0.05930000
v 0.28423417 0.00303839 -0.11430000
v 0.28450000 0.00305000 -0.05930000
v 0.28450000 0.00305000 -0.11430000
v 0.28476584 0.00303839 -0.05930000
v 0.28476584 0.00303839 -0.11430000
v 0.28502962 0.00300366 -0.05930000
v 0.28502962 0.00300366 -0.11430000
v 0.28528941 0.00294607 -0.05930000
v 0.28528941 0.00294607 -0.11430000
v 0.28554317 0.00286606 -0.05930000
v 0.28554317 0.00286606 -0.11430000
v 0.28578898 0.00276424 -0.05930000
v 0.28578898 0.00276424 -0.11430000
v 0.28602499 0.00264138 -0.05930000
v 0.28602499 0.00264138 -0.11430000
v 0.28624940 0.00249841 -0.05930000
v 0.28624940 0.00249841 -0.11430000
v 0.28646052 0.00233644 -0.05930000
v 0.28646052 0.00233644 -0.11430000
v 0.28665668 0.00215668 -0.05930000
v 0.28665668 0.00215668 -0.11430000
v 0.28683645 0.00196050 -0.05930000
v 0.28683645 0.00196050 -0.11430000
v 0.28699842 0.00174941 -0.05930000
v 0.28699842 0.00174941 -0.11430000
v 0.28714138 0.00152500 -0.05930000
v 0.28714138 0.00152500 -0.11430000
v 0.28726423 0.00128899 -0.05930000
v 0.28726423 0.00128899 -0.11430000
v 0.28736606 0.00104316 -0.05930000
v 0.28736606 0.00104316 -0.11430000
v 0.28744608 0.00078940 -0.05930000
v 0.28744608 0.00078940 -0.11430000
v 0.28750366 0.00052963 -0.05930000
v 0.28750366 0.00052963 -0.11430000
v 0.28753841 0.00026583 -0.05930000
v 0.28753841 0.00026583 -0.11430000
v 0.28755000 -0.00000000 -0.05930000
v 0.28755000 -0.00000000 -0.11430000
v 0.28753841 -0.00026583 -0.05930000
v 0.28753841 -0.00026583 -0.11430000
v 0.28750366 -0.00052963 -0.05930000
v 0.28750366 -0.00052963 -0.11430000
v 0.28744608 -0.00078940 -0.05930000
v 0.28744608 -0.00078940 -0.11430000
v 0.28736606 -0.00104316 -0.05930000
v 0.28736606 -0.00104316 -0.11430000
v 0.28726423 -0.00128899 -0.05930000
v 0.28726423 -0.00128899 -0.11430000
v 0.28714138 -0.00152500 -0.05930000
v 0.28714138 -0.00152500 -0.11430000
v 0.28699842 -0.00174941 -0.05930000
v 0.28699842 -0.00174941 -0.11430000
v 0.28683645 -0.00196050 -0.05930000
v 0.28683645 -0.00196050 -0.11430000
v 0.28665668 -0.00215668 -0.05930000
v 0.28665668 -0.00215668 -0.11430000
v 0.28646052 -0.00233644 -0.05930000
v 0.28646052 -0.00233644 -0.11430000
v 0.28624940 -0.00249841 -0.05930000
v 0.28624940 -0.00249841 -0.11430000
v 0.28602499 -0.00264138 -0.05930000
v 0.28602499 -0.00264138 -0.11430000
v 0.28578898 -0.00276424 -0.05930000
v 0.28578898 -0.00276424 -0.11430000
v 0.28554317 -0.00286606 -0.05930000
v 0.28554317 -0.00286606 -0.11430000
v 0.28528941 -0.00294607 -0.05930000
v 0.28528941 -0.00294607 -0.11430000
v 0.28502962 -0.00300366 -0.05930000
v 0.28502962 -0.00300366 -0.11430000
v 0.28476584 -0.00303839 -0.05930000
v 0.28476584 -0.00303839 -0.11430000
v 0.28450000 -0.00305000 -0.05930000
v 0.28450000 -0.00305000 -0.11430000
v 0.28423417 -0.00303839 -0.05930000
v 0.28423417 -0.00303839 -0.11430000
v 0.28397039 -0.00300366 -0.05930000
v 0.28397039 -0.00300366 -0.11430000
v 0.28371060 -0.00294607 -0.05930000
v 0.28371060 -0.00294607 -0.11430000
v 0.28345683 -0.00286606 -0.05930000
v 0.28345683 -0.00286606 -0.11430000
v 0.28321102 -0.00276424 -0.05930000
v 0.28321102 -0.00276424 -0.11430000
v 0.28297499 -0.00264138 -0.05930000
v 0.28297499 -0.00264138 -0.11430000
v 0.28275061 -0.00249841 -0.05930000
v 0.28275061 -0.00249841 -0.11430000
v 0.28253949 -0.00233644 -0.05930000
v 0.28253949 -0.00233644 -0.11430000
v 0.28234333 -0.00215668 -0.05930000
v 0.28234333 -0.00215668 -0.11430000
v 0.28216356 -0.00196050 -0.05930000
v 0.28216356 -0.00196050 -0.11430000
v 0.28200158 -0.00174941 -0.05930000
v 0.28200158 -0.00174941 -0.11430000
v 0.28185862 -0.00152500 -0.05930000
v 0.28185862 -0.00152500 -0.11430000
v 0.28173578 -0.00128899 -0.05930000
v 0.28173578 -0.00128899 -0.11430000
v 0.28163394 -0.00104316 -0.05930000
v 0.28163394 -0.00104316 -0.11430000
v 0.28155392 -0.00078940 -0.05930000
v 0.28155392 -0.00078940 -0.11430000
v 0.28149635 -0.00052963 -0.05930000
v 0.28149635 -0.00052963 -0.11430000
v 0.28146160 -0.00026583 -0.05930000
v 0.28146160 -0.00026583 -0.11430000
v 0.29377490 0.02121351 -0.11180793
v 0.29383254 0.02130570 -0.11173251
v 0.29383260 0.02130580 -0.11430000
v 0.29400626 0.02153085 -0.11154217
v 0.29404977 0.02157809 -0.11150117
v 0.29404998 0.02157831 -0.11430000
v 0.29476812 0.02206137 -0.11106696
v 0.29482433 0.02208245 -0.11104856
v 0.29476827 0.02206142 -0.11430000
v 0.29493332 0.02211801 -0.11430000
v 0.29462537 0.02199880 -0.11112304
v 0.29472223 0.02204269 -0.11108353
v 0.29473624 0.02204853 -0.11107833
v 0.29451466 0.02194072 -0.11117591
v 0.29460880 0.02199067 -0.11430000
v 0.29445586 0.02190614 -0.11120746
v 0.29445612 0.02190630 -0.11430000
v 0.29442373 0.02188607 -0.11122576
v 0.29452160 0.02194461 -0.11117236
v 0.29460868 0.02199060 -0.11113048
v 0.29462132 0.02199683 -0.11112482
v 0.29431134 0.02180893 -0.11430000
v 0.29431105 0.02180871 -0.11129605
v 0.29432839 0.02182136 -0.11128460
v 0.29435775 0.02184215 -0.11126573
v 0.29440433 0.02187355 -0.11123717
v 0.29411796 0.02164640 -0.11144123
v 0.29414767 0.02167417 -0.11141665
v 0.29417562 0.02169933 -0.11430000
v 0.29417536 0.02169909 -0.11139451
v 0.29423535 0.02174998 -0.11134900
v 0.29406309 0.02159197 -0.11148905
v 0.29393533 0.02144680 -0.11430000
v 0.29393521 0.02144662 -0.11161439
v 0.29398328 0.02150462 -0.11156479
v 0.29385254 0.02133526 -0.11170802
v 0.29390118 0.02140273 -0.11165155
v 0.29390839 0.02141222 -0.11164354
v 0.29383874 0.02131501 -0.11172482
v 0.29366586 0.02099969 -0.11430000
v 0.29366586 0.02099969 -0.11197703
v 0.29374254 0.02115639 -0.11430000
v 0.29366878 0.02100638 -0.11197187
v 0.29371718 0.02110828 -0.11189219
v 0.29374254 0.02115636 -0.11185393
v 0.29375342 0.02117610 -0.11183811
v 0.29493332 0.02211801 -0.11101429
v 0.29510263 0.02215999 -0.11095893
v 0.29510263 0.02215999 -0.11430000
v 0.29527497 0.02218706 -0.11090009
v 0.29527497 0.02218706 -0.11430000
v 0.29544902 0.02219901 -0.11083820
v 0.29544902 0.02219901 -0.11430000
v 0.29562345 0.02219575 -0.11077373
v 0.29562345 0.02219575 -0.11430000
v 0.29579693 0.02217730 -0.11070718
v 0.29579693 0.02217730 -0.11430000
v 0.29596815 0.02214380 -0.11063905
v 0.29596815 0.02214380 -0.11430000
v 0.29613578 0.02209551 -0.11056986
v 0.29613578 0.02209551 -0.11430000
v 0.29629856 0.02203279 -0.11050015
v 0.29629856 0.02203279 -0.11430000
v 0.29645526 0.02195612 -0.11043043
v 0.29645526 0.02195612 -0.11430000
v 0.30325034 0.01653556 -0.10830000
v 0.30325034 0.01653556 -0.11430000
v 0.30204979 0.01780465 -0.11430000
v 0.30088720 0.01888015 -0.10832595
v 0.30094627 0.01882872 -0.10831156
v 0.30076352 0.01898679 -0.11430000
v 0.30082905 0.01893045 -0.10834598
v 0.30077222 0.01897934 -0.10837153
v 0.29939786 0.02007621 -0.11430000
v 0.29939786 0.02007621 -0.10905088
v 0.29795942 0.02106760 -0.11430000
v 0.29795942 0.02106760 -0.10973684
v 0.30100593 0.01877644 -0.10830289
v 0.30106580 0.01872361 -0.10830000
v 0.30204979 0.01780465 -0.10830000
v 0.29597154 0.01638304 -0.10971601
v 0.29735574 0.01532089 -0.10903860
v 0.29864210 0.01414216 -0.10837841
v 0.29865518 0.01412907 -0.10837153
v 0.29449999 0.01732051 -0.11040548
v 0.29307279 0.01806952 -0.11104856
v 0.29300267 0.01810262 -0.11108345
v 0.29295206 0.01812630 -0.11111376
v 0.29293537 0.01813407 -0.11112479
v 0.29287139 0.01816369 -0.11117230
v 0.29281121 0.01819131 -0.11122561
v 0.29275531 0.01821675 -0.11128436
v 0.29270408 0.01823988 -0.11134811
v 0.29265788 0.01826058 -0.11141641
v 0.29261714 0.01827873 -0.11148874
v 0.29258209 0.01829425 -0.11156462
v 0.29255307 0.01830705 -0.11164347
v 0.29253024 0.01831707 -0.11172473
v 0.29251382 0.01832426 -0.11180781
v 0.29250392 0.01832859 -0.11189211
v 0.29250062 0.01833004 -0.11197703
v 0.30307344 0.01371294 -0.11430000
v 0.30307335 0.01371287 -0.10917696
v 0.30303466 0.01367960 -0.10921287
v 0.30293772 0.01360334 -0.10930000
v 0.30293772 0.01360334 -0.11430000
v 0.30294359 0.01360769 -0.10929484
v 0.30302730 0.01367347 -0.10921962
v 0.30312654 0.01376152 -0.10912648
v 0.30319911 0.01383395 -0.11430000
v 0.30316868 0.01380267 -0.10908553
v 0.30331373 0.01396545 -0.11430000
v 0.30331367 0.01396535 -0.10893729
v 0.30330071 0.01394928 -0.10895104
v 0.30329409 0.01394119 -0.10895804
v 0.30321306 0.01384876 -0.10904142
v 0.30319896 0.01383382 -0.10905553
v 0.30336860 0.01403750 -0.10887771
v 0.30341649 0.01410645 -0.11430000
v 0.30341020 0.01409705 -0.10883109
v 0.30350655 0.01425585 -0.11430000
v 0.30350655 0.01425583 -0.10871728
v 0.30350515 0.01425329 -0.10871898
v 0.30349901 0.01424212 -0.10872653
v 0.30343702 0.01413799 -0.10880032
v 0.30341643 0.01410636 -0.10882401
v 0.30355388 0.01434837 -0.10865753
v 0.30358326 0.01441254 -0.11430000
v 0.30357686 0.01439801 -0.10862739
v 0.30364603 0.01457532 -0.11430000
v 0.30364591 0.01457499 -0.10853045
v 0.30364338 0.01456753 -0.10853421
v 0.30363011 0.01452985 -0.10855364
v 0.30360210 0.01445716 -0.10859318
v 0.30358320 0.01441242 -0.10861889
v 0.30367532 0.01467024 -0.10848496
v 0.30369437 0.01474295 -0.11430000
v 0.30367783 0.01467921 -0.10848092
v 0.30372605 0.01490215 -0.10839383
v 0.30370957 0.01481104 -0.10842628
v 0.30372790 0.01491415 -0.11430000
v 0.30370528 0.01479073 -0.10843411
v 0.30369425 0.01474256 -0.10845354
v 0.30374208 0.01503144 -0.10835546
v 0.30374032 0.01501298 -0.10836037
v 0.30374640 0.01508762 -0.11430000
v 0.30373058 0.01493238 -0.10838404
v 0.30372787 0.01491400 -0.10838993
v 0.30374971 0.01526205 -0.11430000
v 0.30374992 0.01525160 -0.10831223
v 0.30375025 0.01522946 -0.10831524
v 0.30374908 0.01514266 -0.10832999
v 0.30374825 0.01512217 -0.10833413
v 0.30374637 0.01508743 -0.10834174
v 0.30373779 0.01543610 -0.10830000
v 0.30374584 0.01534663 -0.10830297
v 0.30373779 0.01543610 -0.11430000
v 0.30374661 0.01533440 -0.10830382
v 0.30374971 0.01526202 -0.10831092
v 0.30373776 0.01543635 -0.10830000
v 0.30371076 0.01560845 -0.11430000
v 0.30371076 0.01560845 -0.10830000
v 0.30366883 0.01577779 -0.11430000
v 0.30366883 0.01577779 -0.10830000
v 0.30361229 0.01594283 -0.11430000
v 0.30361229 0.01594283 -0.10830000
v 0.30354157 0.01610231 -0.11430000
v 0.30354157 0.01610231 -0.10830000
v 0.30345723 0.01625503 -0.11430000
v 0.30345723 0.01625503 -0.10830000
v 0.30335993 0.01639981 -0.11430000
v 0.30335993 0.01639981 -0.10830000
v 0.30059376 0.01187397 -0.10930000
v 0.30059150 0.01187703 -0.10921285
v 0.30058473 0.01188619 -0.10912635
v 0.30057967 0.01189303 -0.10908361
v 0.30057350 0.01190137 -0.10904118
v 0.30056626 0.01191115 -0.10899941
v 0.30055788 0.01192245 -0.10895798
v 0.30054840 0.01193517 -0.10891721
v 0.30053794 0.01194923 -0.10887738
v 0.30052641 0.01196471 -0.10883823
v 0.30051386 0.01198151 -0.10880000
v 0.30050030 0.01199960 -0.10876275
v 0.30048573 0.01201901 -0.10872643
v 0.30047023 0.01203958 -0.10869131
v 0.30045375 0.01206142 -0.10865721
v 0.30043635 0.01208441 -0.10862434
v 0.30041814 0.01210839 -0.10859289
v 0.30037910 0.01215952 -0.10853396
v 0.30039904 0.01213347 -0.10856272
v 0.30035841 0.01218648 -0.10850669
v 0.30033693 0.01221441 -0.10848085
v 0.30029187 0.01227260 -0.10843398
v 0.30031475 0.01224309 -0.10845663
v 0.30024424 0.01233364 -0.10839369
v 0.30026832 0.01230286 -0.10841295
v 0.30021960 0.01236506 -0.10837612
v 0.30019441 0.01239701 -0.10836031
v 0.30016878 0.01242937 -0.10834631
v 0.30014265 0.01246223 -0.10833407
v 0.30008942 0.01252879 -0.10831519
v 0.30011621 0.01249537 -0.10832371
v 0.30006233 0.01256242 -0.10830855
v 0.30003503 0.01259615 -0.10830381
v 0.30000758 0.01262993 -0.10830095
v 0.29997993 0.01266381 -0.10830000
v 0.29982090 0.01285575 -0.10830000
v 0.29893541 0.01384266 -0.10830000
v 0.29887831 0.01390194 -0.10830289
v 0.29882142 0.01396054 -0.10831156
v 0.29876506 0.01401815 -0.10832595
v 0.29870954 0.01407442 -0.10834598
v 0.30059376 0.01187397 -0.11430000
v 0.29250062 0.01833004 -0.11430000
v 0.30950001 -0.00000000 -0.11430000
v 0.30450001 -0.00000000 -0.11430000
v 0.30950001 -0.00000000 -0.11190000
v 0.30450001 -0.00000000 -0.11190000
v 0.30941987 -0.00200000 -0.11430000
v 0.30941987 -0.00200000 -0.11190000
v 0.30933300 -0.00271400 -0.11190000
v 0.30933300 -0.00271400 -0.11430000
v 0.30918798 -0.00341850 -0.11190000
v 0.30918798 -0.00341850 -0.11430000
v 0.30898574 -0.00410876 -0.11190000
v 0.30898574 -0.00410876 -0.11430000
v 0.30872768 -0.00478014 -0.11190000
v 0.30872768 -0.00478014 -0.11430000
v 0.30841553 -0.00542814 -0.11190000
v 0.30841553 -0.00542814 -0.11430000
v 0.30805138 -0.00604841 -0.11190000
v 0.30805138 -0.00604841 -0.11430000
v 0.30763766 -0.00663678 -0.11190000
v 0.30763766 -0.00663678 -0.11430000
v 0.30717716 -0.00718931 -0.11190000
v 0.30717716 -0.00718931 -0.11430000
v 0.30667296 -0.00770227 -0.11190000
v 0.30667296 -0.00770227 -0.11430000
v 0.30612844 -0.00817224 -0.11190000
v 0.30612844 -0.00817224 -0.11430000
v 0.30554730 -0.00859605 -0.11190000
v 0.30554730 -0.00859605 -0.11430000
v 0.30493340 -0.00897085 -0.11190000
v 0.30493340 -0.00897085 -0.11430000
v 0.30429089 -0.00929414 -0.11190000
v 0.30429089 -0.00929414 -0.11430000
v 0.30413944 -0.00935540 -0.11190000
v 0.30413944 -0.00935540 -0.11430000
v 0.30398351 -0.00940408 -0.11190000
v 0.30398351 -0.00940408 -0.11430000
v 0.30382410 -0.00943988 -0.11190000
v 0.30382410 -0.00943988 -0.11430000
v 0.30366230 -0.00946255 -0.11190000
v 0.30366230 -0.00946255 -0.11430000
v 0.30349922 -0.00947194 -0.11190000
v 0.30349922 -0.00947194 -0.11430000
v 0.30333591 -0.00946799 -0.11190000
v 0.30333591 -0.00946799 -0.11430000
v 0.30317345 -0.00945072 -0.11190000
v 0.30317345 -0.00945072 -0.11430000
v 0.30301294 -0.00942025 -0.11190000
v 0.30301294 -0.00942025 -0.11430000
v 0.30285546 -0.00937678 -0.11190000
v 0.30285546 -0.00937678 -0.11430000
v 0.30270207 -0.00932061 -0.11190000
v 0.30270207 -0.00932061 -0.11430000
v 0.30255377 -0.00925210 -0.11190000
v 0.30255377 -0.00925210 -0.11430000
v 0.30229884 -0.00912147 -0.11430000
v 0.30229884 -0.00912147 -0.11190000
v 0.30442390 -0.00174311 -0.11190000
v 0.30419615 -0.00347296 -0.11190000
v 0.30381852 -0.00517638 -0.11190000
v 0.30329385 -0.00684040 -0.11190000
v 0.30262616 -0.00845237 -0.11190000
v 0.30429089 -0.00929414 -0.10911512
v 0.30429089 -0.00929414 -0.10830000
v 0.30413944 -0.00935540 -0.10830000
v 0.30413944 -0.00935540 -0.10908809
v 0.30398351 -0.00940408 -0.10830000
v 0.30398351 -0.00940408 -0.10906305
v 0.30382410 -0.00943988 -0.10830000
v 0.30382410 -0.00943988 -0.10904018
v 0.30366230 -0.00946255 -0.10830000
v 0.30366230 -0.00946255 -0.10901963
v 0.30349922 -0.00947194 -0.10830000
v 0.30349922 -0.00947194 -0.10900152
v 0.30333591 -0.00946799 -0.10830000
v 0.30333591 -0.00946799 -0.10898601
v 0.30317345 -0.00945072 -0.10830000
v 0.30317345 -0.00945072 -0.10897316
v 0.30301294 -0.00942025 -0.10830000
v 0.30301294 -0.00942025 -0.10896308
v 0.30285546 -0.00937678 -0.10830000
v 0.30285546 -0.00937678 -0.10895583
v 0.30270207 -0.00932061 -0.10830000
v 0.30270207 -0.00932061 -0.10895146
v 0.30255377 -0.00925210 -0.10830000
v 0.30255377 -0.00925210 -0.10895000
v 0.30950001 -0.00000000 -0.06170000
v 0.30941987 0.00200000 -0.06170000
v 0.30950001 -0.00000000 -0.05930000
v 0.30941987 0.00200000 -0.05930000
v 0.30933300 0.00271400 -0.06170000
v 0.30933300 0.00271400 -0.05930000
v 0.30918798 0.00341850 -0.06170000
v 0.30918798 0.00341850 -0.05930000
v 0.30898574 0.00410876 -0.06170000
v 0.30898574 0.00410876 -0.05930000
v 0.30872768 0.00478014 -0.06170000
v 0.30872768 0.00478014 -0.05930000
v 0.30841553 0.00542814 -0.06170000
v 0.30841553 0.00542814 -0.05930000
v 0.30805138 0.00604841 -0.06170000
v 0.30805138 0.00604841 -0.05930000
v 0.30763766 0.00663678 -0.06170000
v 0.30763766 0.00663678 -0.05930000
v 0.30717716 0.00718931 -0.06170000
v 0.30717716 0.00718931 -0.05930000
v 0.30667296 0.00770227 -0.06170000
v 0.30667296 0.00770227 -0.05930000
v 0.30612844 0.00817224 -0.06170000
v 0.30612844 0.00817224 -0.05930000
v 0.30554730 0.00859605 -0.06170000
v 0.30554730 0.00859605 -0.05930000
v 0.30493340 0.00897085 -0.06170000
v 0.30493340 0.00897085 -0.05930000
v 0.30429089 0.00929414 -0.06170000
v 0.30429089 0.00929414 -0.05930000
v 0.30413944 0.00935540 -0.06170000
v 0.30413944 0.00935540 -0.05930000
v 0.30398351 0.00940408 -0.06170000
v 0.30398351 0.00940408 -0.05930000
v 0.30382410 0.00943988 -0.06170000
v 0.30382410 0.00943988 -0.05930000
v 0.30366230 0.00946255 -0.06170000
v 0.30366230 0.00946255 -0.05930000
v 0.30349922 0.00947194 -0.06170000
v 0.30349922 0.00947194 -0.05930000
v 0.30333591 0.00946799 -0.06170000
v 0.30333591 0.00946799 -0.05930000
v 0.30317345 0.00945072 -0.06170000
v 0.30317345 0.00945072 -0.05930000
v 0.30301294 0.00942025 -0.06170000
v 0.30301294 0.00942025 -0.05930000
v 0.30285546 0.00937678 -0.06170000
v 0.30285546 0.00937678 -0.05930000
v 0.30270207 0.00932061 -0.06170000
v 0.30270207 0.00932061 -0.05930000
v 0.30255377 0.00925210 -0.06170000
v 0.30255377 0.00925210 -0.05930000
v 0.30229884 0.00912147 -0.05930000
v 0.30229884 0.00912147 -0.06170000
v 0.30450001 -0.00000000 -0.06170000
v 0.30442390 0.00174311 -0.06170000
v 0.30381852 0.00517638 -0.06170000
v 0.30329385 0.00684040 -0.06170000
v 0.30262616 0.00845237 -0.06170000
v 0.30419615 0.00347296 -0.06170000
v 0.30429089 0.00929414 -0.06448488
v 0.30429089 0.00929414 -0.06530000
v 0.30413944 0.00935540 -0.06530000
v 0.30413944 0.00935540 -0.06451191
v 0.30398351 0.00940408 -0.06530000
v 0.30398351 0.00940408 -0.06453694
v 0.30382410 0.00943988 -0.06530000
v 0.30382410 0.00943988 -0.06455982
v 0.30366230 0.00946255 -0.06530000
v 0.30366230 0.00946255 -0.06458037
v 0.30349922 0.00947194 -0.06530000
v 0.30349922 0.00947194 -0.06459847
v 0.30333591 0.00946799 -0.06530000
v 0.30333591 0.00946799 -0.06461400
v 0.30317345 0.00945072 -0.06530000
v 0.30317345 0.00945072 -0.06462684
v 0.30301294 0.00942025 -0.06530000
v 0.30301294 0.00942025 -0.06463692
v 0.30285546 0.00937678 -0.06530000
v 0.30285546 0.00937678 -0.06464417
v 0.30270207 0.00932061 -0.06530000
v 0.30270207 0.00932061 -0.06464854
v 0.30255377 0.00925210 -0.06530000
v 0.30255377 0.00925210 -0.06465000
v 0.30941987 0.00200000 -0.06290000
v 0.30941987 0.00200000 -0.06530000
v 0.30933300 0.00271400 -0.06530000
v 0.30908233 0.00380502 -0.06295145
v 0.30918798 0.00341850 -0.06530000
v 0.30898574 0.00410876 -0.06530000
v 0.30897313 0.00414582 -0.06301550
v 0.30872768 0.00478014 -0.06530000
v 0.30872768 0.00478014 -0.06316347
v 0.30841553 0.00542814 -0.06530000
v 0.30841553 0.00542814 -0.06332076
v 0.30805138 0.00604841 -0.06530000
v 0.30805138 0.00604841 -0.06347784
v 0.30763766 0.00663678 -0.06530000
v 0.30763766 0.00663678 -0.06363367
v 0.30717716 0.00718931 -0.06530000
v 0.30717716 0.00718931 -0.06378717
v 0.30667296 0.00770227 -0.06530000
v 0.30667296 0.00770227 -0.06393733
v 0.30612844 0.00817224 -0.06530000
v 0.30612844 0.00817224 -0.06408314
v 0.30554730 0.00859605 -0.06530000
v 0.30554730 0.00859605 -0.06422362
v 0.30493340 0.00897085 -0.06530000
v 0.30493340 0.00897085 -0.06435784
v 0.30917913 0.00345374 -0.06291287
v 0.30926237 0.00309343 -0.06290000
v 0.30933300 0.00271400 -0.06290000
v 0.30419615 0.00347296 -0.06336109
v 0.30441782 0.00181133 -0.06301550
v 0.30381852 0.00517638 -0.06373038
v 0.30262616 0.00845237 -0.06448708
v 0.30329385 0.00684040 -0.06410667
v 0.30229884 0.00912147 -0.06465000
v 0.30448952 0.00064746 -0.06290000
v 0.30447283 0.00104189 -0.06291287
v 0.30444878 0.00143045 -0.06295145
v 0.30442387 0.00174343 -0.06300210
v 0.30450001 -0.00000000 -0.06290000
v 0.30950001 -0.00000000 -0.06290000
v 0.30442390 0.00174311 -0.11430000
v 0.30450001 -0.00000000 -0.05930000
v 0.30442390 -0.00174311 -0.05930000
v 0.29295236 -0.01812616 -0.11430000
v 0.29295206 -0.01812630 -0.06248624
v 0.29134041 -0.01879385 -0.11430000
v 0.29293537 -0.01813407 -0.06247520
v 0.29287139 -0.01816369 -0.06242770
v 0.29253024 -0.01831707 -0.06187527
v 0.29251382 -0.01832426 -0.06179219
v 0.29134041 -0.01879385 -0.05930000
v 0.29255307 -0.01830705 -0.06195653
v 0.29281121 -0.01819131 -0.06237438
v 0.29275531 -0.01821675 -0.06231564
v 0.29270408 -0.01823988 -0.06225189
v 0.29265788 -0.01826058 -0.06218360
v 0.29261714 -0.01827873 -0.06211125
v 0.29258209 -0.01829425 -0.06203538
v 0.29250392 -0.01832859 -0.06170788
v 0.29250062 -0.01833004 -0.06162297
v 0.29250062 -0.01833004 -0.05930000
v 0.29449999 -0.01732051 -0.06319451
v 0.29307279 -0.01806952 -0.06255145
v 0.29300267 -0.01810262 -0.06251656
v 0.29864213 -0.01414214 -0.11430000
v 0.29735574 -0.01532089 -0.06456140
v 0.29735574 -0.01532089 -0.11430000
v 0.29597154 -0.01638304 -0.06388398
v 0.29597154 -0.01638304 -0.11430000
v 0.29449999 -0.01732051 -0.11430000
v 0.29887831 -0.01390194 -0.06529710
v 0.29882142 -0.01396054 -0.06528844
v 0.29876506 -0.01401815 -0.06527405
v 0.29870954 -0.01407442 -0.06525403
v 0.29865518 -0.01412907 -0.06522848
v 0.29864210 -0.01414216 -0.06522159
v 0.30059376 -0.01187397 -0.05930000
v 0.30059376 -0.01187397 -0.06430000
v 0.30088305 -0.01147153 -0.05930000
v 0.30059150 -0.01187703 -0.06438716
v 0.30088305 -0.01147153 -0.11430000
v 0.30058473 -0.01188619 -0.06447365
v 0.29982090 -0.01285575 -0.11430000
v 0.30057967 -0.01189303 -0.06451640
v 0.30057350 -0.01190137 -0.06455882
v 0.30056626 -0.01191115 -0.06460059
v 0.30055788 -0.01192245 -0.06464202
v 0.30054840 -0.01193517 -0.06468278
v 0.30053794 -0.01194923 -0.06472262
v 0.30052641 -0.01196471 -0.06476177
v 0.30051386 -0.01198151 -0.06480000
v 0.30050030 -0.01199960 -0.06483725
v 0.30048573 -0.01201901 -0.06487358
v 0.30047023 -0.01203958 -0.06490868
v 0.30045375 -0.01206142 -0.06494278
v 0.30043635 -0.01208441 -0.06497566
v 0.30041814 -0.01210839 -0.06500711
v 0.30039904 -0.01213347 -0.06503729
v 0.30037910 -0.01215952 -0.06506605
v 0.30035841 -0.01218648 -0.06509331
v 0.30033693 -0.01221441 -0.06511915
v 0.30031475 -0.01224309 -0.06514337
v 0.30029187 -0.01227260 -0.06516603
v 0.30026832 -0.01230286 -0.06518705
v 0.30024424 -0.01233364 -0.06520630
v 0.30021960 -0.01236506 -0.06522388
v 0.30019441 -0.01239701 -0.06523969
v 0.30016878 -0.01242937 -0.06525369
v 0.30014265 -0.01246223 -0.06526592
v 0.30011621 -0.01249537 -0.06527629
v 0.30008942 -0.01252879 -0.06528481
v 0.30006233 -0.01256242 -0.06529145
v 0.30003503 -0.01259615 -0.06529620
v 0.30000758 -0.01262993 -0.06529905
v 0.29997993 -0.01266381 -0.06530000
v 0.29982090 -0.01285575 -0.06530000
v 0.29893541 -0.01384266 -0.06530000
v 0.30229884 0.00912147 -0.06530000
v 0.30182052 0.01000000 -0.11430000
v 0.30182052 0.01000000 -0.05930000
v 0.30262616 0.00845237 -0.11430000
v 0.30229884 -0.00912147 -0.10895000
v 0.30229884 -0.00912147 -0.10830000
v 0.30182052 -0.01000000 -0.05930000
v 0.30182052 -0.01000000 -0.11430000
v 0.30262616 -0.00845237 -0.05930000
v 0.30381852 -0.00517638 -0.10986962
v 0.30329385 -0.00684040 -0.10949334
v 0.30262616 -0.00845237 -0.10911291
v 0.30444878 -0.00143045 -0.11064856
v 0.30442387 -0.00174343 -0.11059789
v 0.30441782 -0.00181133 -0.11058450
v 0.30419615 -0.00347296 -0.11023891
v 0.30450001 -0.00000000 -0.06530000
v 0.30262616 -0.00845237 -0.10830000
v 0.30329385 -0.00684040 -0.10830000
v 0.30329385 -0.00684040 -0.05930000
v 0.30381852 -0.00517638 -0.10830000
v 0.30381852 -0.00517638 -0.05930000
v 0.30419615 -0.00347296 -0.10830000
v 0.30419615 -0.00347296 -0.05930000
v 0.30442390 -0.00174311 -0.10830000
v 0.30450001 -0.00000000 -0.11070000
v 0.30448952 -0.00064746 -0.11070000
v 0.30447283 -0.00104189 -0.11068712
v 0.30450001 -0.00000000 -0.10830000
v 0.30442390 0.00174311 -0.06530000
v 0.30262616 0.00845237 -0.06530000
v 0.30329385 0.00684040 -0.06530000
v 0.30329385 0.00684040 -0.11430000
v 0.30381852 0.00517638 -0.06530000
v 0.30381852 0.00517638 -0.11430000
v 0.30419615 0.00347296 -0.06530000
v 0.30419615 0.00347296 -0.11430000
v 0.29295236 0.01812616 -0.05930000
v 0.29134041 0.01879385 -0.05930000
v 0.29134041 0.01879385 -0.11430000
v 0.29864213 0.01414214 -0.05930000
v 0.29735574 0.01532089 -0.05930000
v 0.29597154 0.01638304 -0.05930000
v 0.29449999 0.01732051 -0.05930000
v 0.30088305 0.01147153 -0.11430000
v 0.30088305 0.01147153 -0.05930000
v 0.29982090 0.01285575 -0.05930000
v 0.28967637 0.01931852 -0.11430000
v 0.28967637 0.01931852 -0.05930000
v 0.28797296 0.01969616 -0.11430000
v 0.28797296 0.01969616 -0.05930000
v 0.28624311 0.01992389 -0.11430000
v 0.28624311 0.01992389 -0.05930000
v 0.28450000 0.02000000 -0.11430000
v 0.28450000 0.02000000 -0.05930000
v 0.28275689 0.01992389 -0.11430000
v 0.28275689 0.01992389 -0.05930000
v 0.28102705 0.01969616 -0.11430000
v 0.28102705 0.01969616 -0.05930000
v 0.27932361 0.01931852 -0.11430000
v 0.27932361 0.01931852 -0.05930000
v 0.27765960 0.01879385 -0.11430000
v 0.27765960 0.01879385 -0.05930000
v 0.27604765 0.01812616 -0.11430000
v 0.27604765 0.01812616 -0.05930000
v 0.27450001 0.01732051 -0.11430000
v 0.27450001 0.01732051 -0.05930000
v 0.27302846 0.01638304 -0.11430000
v 0.27302846 0.01638304 -0.05930000
v 0.27164426 0.01532089 -0.11430000
v 0.27164426 0.01532089 -0.05930000
v 0.27035788 0.01414214 -0.11430000
v 0.27035788 0.01414214 -0.05930000
v 0.26917911 0.01285575 -0.11430000
v 0.26917911 0.01285575 -0.05930000
v 0.26811695 0.01147153 -0.11430000
v 0.26811695 0.01147153 -0.05930000
v 0.26717949 0.01000000 -0.11430000
v 0.26717949 0.01000000 -0.05930000
v 0.26637384 0.00845237 -0.11430000
v 0.26637384 0.00845237 -0.05930000
v 0.26570615 0.00684040 -0.11430000
v 0.26570615 0.00684040 -0.05930000
v 0.26518148 0.00517638 -0.11430000
v 0.26518148 0.00517638 -0.05930000
v 0.26480386 0.00347296 -0.11430000
v 0.26480386 0.00347296 -0.05930000
v 0.26457611 0.00174311 -0.11430000
v 0.26457611 0.00174311 -0.05930000
v 0.26449999 -0.00000000 -0.11430000
v 0.26449999 -0.00000000 -0.05930000
v 0.26457611 -0.00174311 -0.11430000
v 0.26457611 -0.00174311 -0.05930000
v 0.26480386 -0.00347296 -0.11430000
v 0.26480386 -0.00347296 -0.05930000
v 0.26518148 -0.00517638 -0.11430000
v 0.26518148 -0.00517638 -0.05930000
v 0.26570615 -0.00684040 -0.11430000
v 0.26570615 -0.00684040 -0.05930000
v 0.26637384 -0.00845237 -0.11430000
v 0.26637384 -0.00845237 -0.05930000
v 0.26717949 -0.01000000 -0.11430000
v 0.26717949 -0.01000000 -0.05930000
v 0.26811695 -0.01147153 -0.11430000
v 0.26811695 -0.01147153 -0.05930000
v 0.26917911 -0.01285575 -0.11430000
v 0.26917911 -0.01285575 -0.05930000
v 0.27035788 -0.01414214 -0.11430000
v 0.27035788 -0.01414214 -0.05930000
v 0.27164426 -0.01532089 -0.11430000
v 0.27164426 -0.01532089 -0.05930000
v 0.27302846 -0.01638304 -0.11430000
v 0.27302846 -0.01638304 -0.05930000
v 0.27450001 -0.01732051 -0.11430000
v 0.27450001 -0.01732051 -0.05930000
v 0.27604765 -0.01812616 -0.11430000
v 0.27604765 -0.01812616 -0.05930000
v 0.27765960 -0.01879385 -0.11430000
v 0.27765960 -0.01879385 -0.05930000
v 0.27932361 -0.01931852 -0.11430000
v 0.27932361 -0.01931852 -0.05930000
v 0.28102705 -0.01969616 -0.11430000
v 0.28102705 -0.01969616 -0.05930000
v 0.28275689 -0.01992389 -0.11430000
v 0.28275689 -0.01992389 -0.05930000
v 0.28450000 -0.02000000 -0.11430000
v 0.28450000 -0.02000000 -0.05930000
v 0.28624311 -0.01992389 -0.11430000
v 0.28624311 -0.01992389 -0.05930000
v 0.28797296 -0.01969616 -0.11430000
v 0.28797296 -0.01969616 -0.05930000
v 0.28967637 -0.01931852 -0.11430000
v 0.28967637 -0.01931852 -0.05930000
v 0.29939786 -0.02007621 -0.05930000
v 0.30076352 -0.01898679 -0.05930000
v 0.30293772 -0.01360334 -0.05930000
v 0.29795942 -0.02106760 -0.05930000
v 0.30204979 -0.01780465 -0.05930000
v 0.30325034 -0.01653556 -0.05930000
v 0.30307344 -0.01371294 -0.05930000
v 0.30319911 -0.01383395 -0.05930000
v 0.30372790 -0.01491415 -0.05930000
v 0.29366586 -0.02099969 -0.05930000
v 0.29374254 -0.02115639 -0.05930000
v 0.29383260 -0.02130580 -0.05930000
v 0.29393533 -0.02144680 -0.05930000
v 0.29404998 -0.02157831 -0.05930000
v 0.29417562 -0.02169933 -0.05930000
v 0.30374640 -0.01508762 -0.05930000
v 0.30335993 -0.01639981 -0.05930000
v 0.30345723 -0.01625503 -0.05930000
v 0.30354157 -0.01610231 -0.05930000
v 0.29431134 -0.02180893 -0.05930000
v 0.29445612 -0.02190630 -0.05930000
v 0.29460880 -0.02199067 -0.05930000
v 0.29562345 -0.02219575 -0.05930000
v 0.29579693 -0.02217730 -0.05930000
v 0.29596815 -0.02214380 -0.05930000
v 0.29613578 -0.02209551 -0.05930000
v 0.29476827 -0.02206142 -0.05930000
v 0.29493332 -0.02211801 -0.05930000
v 0.29510263 -0.02215999 -0.05930000
v 0.29629856 -0.02203279 -0.05930000
v 0.29645526 -0.02195612 -0.05930000
v 0.30361229 -0.01594283 -0.05930000
v 0.30366883 -0.01577779 -0.05930000
v 0.30371076 -0.01560845 -0.05930000
v 0.30373779 -0.01543610 -0.05930000
v 0.30374971 -0.01526205 -0.05930000
v 0.30369437 -0.01474295 -0.05930000
v 0.30364603 -0.01457532 -0.05930000
v 0.30358326 -0.01441254 -0.05930000
v 0.30350655 -0.01425585 -0.05930000
v 0.29527497 -0.02218706 -0.05930000
v 0.29544902 -0.02219901 -0.05930000
v 0.30341649 -0.01410645 -0.05930000
v 0.30331373 -0.01396545 -0.05930000
v 0.30950001 -0.00000000 -0.06530000
v 0.29366586 -0.02099969 -0.06162297
v 0.30293772 -0.01360334 -0.06430000
v 0.30106580 -0.01872361 -0.06530000
v 0.30100593 -0.01877644 -0.06529710
v 0.30094627 -0.01882872 -0.06528844
v 0.30088720 -0.01888015 -0.06527405
v 0.30082905 -0.01893045 -0.06525403
v 0.30077222 -0.01897934 -0.06522848
v 0.30373776 -0.01543635 -0.06530000
v 0.30371076 -0.01560845 -0.06530000
v 0.30325034 -0.01653556 -0.06530000
v 0.30204979 -0.01780465 -0.06530000
v 0.30366883 -0.01577779 -0.06530000
v 0.30361229 -0.01594283 -0.06530000
v 0.30354157 -0.01610231 -0.06530000
v 0.30345723 -0.01625503 -0.06530000
v 0.30335993 -0.01639981 -0.06530000
v 0.30294359 -0.01360769 -0.06430516
v 0.30302730 -0.01367347 -0.06438038
v 0.30303466 -0.01367960 -0.06438714
v 0.30307335 -0.01371287 -0.06442305
v 0.30312654 -0.01376152 -0.06447352
v 0.30316868 -0.01380267 -0.06451447
v 0.30319896 -0.01383382 -0.06454448
v 0.30321306 -0.01384876 -0.06455858
v 0.30329409 -0.01394119 -0.06464196
v 0.30330071 -0.01394928 -0.06464896
v 0.30331367 -0.01396535 -0.06466271
v 0.30336860 -0.01403750 -0.06472229
v 0.30341020 -0.01409705 -0.06476890
v 0.30341643 -0.01410636 -0.06477600
v 0.30343702 -0.01413799 -0.06479967
v 0.30349901 -0.01424212 -0.06487347
v 0.30350655 -0.01425583 -0.06488272
v 0.30355388 -0.01434837 -0.06494246
v 0.30350515 -0.01425329 -0.06488101
v 0.30358320 -0.01441242 -0.06498111
v 0.30360210 -0.01445716 -0.06500681
v 0.30357686 -0.01439801 -0.06497260
v 0.30364338 -0.01456753 -0.06506579
v 0.30363011 -0.01452985 -0.06504636
v 0.30367532 -0.01467024 -0.06511503
v 0.30367783 -0.01467921 -0.06511908
v 0.30364591 -0.01457499 -0.06506955
v 0.30370528 -0.01479073 -0.06516589
v 0.30369425 -0.01474256 -0.06514646
v 0.30372605 -0.01490215 -0.06520617
v 0.30370957 -0.01481104 -0.06517372
v 0.30373058 -0.01493238 -0.06521597
v 0.30374032 -0.01501298 -0.06523963
v 0.30372787 -0.01491400 -0.06521007
v 0.30374637 -0.01508743 -0.06525826
v 0.30374825 -0.01512217 -0.06526586
v 0.30374208 -0.01503144 -0.06524455
v 0.30375025 -0.01522946 -0.06528477
v 0.30374908 -0.01514266 -0.06527001
v 0.30374971 -0.01526202 -0.06528908
v 0.30374661 -0.01533440 -0.06529618
v 0.30374992 -0.01525160 -0.06528778
v 0.30373779 -0.01543610 -0.06530000
v 0.30374584 -0.01534663 -0.06529703
v 0.29482433 -0.02208245 -0.06255145
v 0.29476812 -0.02206137 -0.06253304
v 0.29473624 -0.02204853 -0.06252167
v 0.29472223 -0.02204269 -0.06251647
v 0.29462537 -0.02199880 -0.06247696
v 0.29452160 -0.02194461 -0.06242765
v 0.29460868 -0.02199060 -0.06246953
v 0.29462132 -0.02199683 -0.06247517
v 0.29442373 -0.02188607 -0.06237424
v 0.29445586 -0.02190614 -0.06239254
v 0.29451466 -0.02194072 -0.06242409
v 0.29440433 -0.02187355 -0.06236283
v 0.29435775 -0.02184215 -0.06233427
v 0.29432839 -0.02182136 -0.06231540
v 0.29431105 -0.02180871 -0.06230395
v 0.29423535 -0.02174998 -0.06225100
v 0.29417536 -0.02169909 -0.06220549
v 0.29406309 -0.02159197 -0.06211095
v 0.29411796 -0.02164640 -0.06215877
v 0.29414767 -0.02167417 -0.06218335
v 0.29404977 -0.02157809 -0.06209883
v 0.29400626 -0.02153085 -0.06205783
v 0.29390839 -0.02141222 -0.06195647
v 0.29393521 -0.02144662 -0.06198561
v 0.29398328 -0.02150462 -0.06203521
v 0.29390118 -0.02140273 -0.06194846
v 0.29385254 -0.02133526 -0.06189198
v 0.29377490 -0.02121351 -0.06179206
v 0.29383254 -0.02130570 -0.06186749
v 0.29383874 -0.02131501 -0.06187518
v 0.29375342 -0.02117610 -0.06176189
v 0.29374254 -0.02115636 -0.06174607
v 0.29366878 -0.02100638 -0.06162813
v 0.29371718 -0.02110828 -0.06170782
v 0.29939786 -0.02007621 -0.06454912
v 0.29795942 -0.02106760 -0.06386316
v 0.29645526 -0.02195612 -0.06316957
v 0.29629856 -0.02203279 -0.06309985
v 0.29613578 -0.02209551 -0.06303013
v 0.29596815 -0.02214380 -0.06296095
v 0.29579693 -0.02217730 -0.06289282
v 0.29562345 -0.02219575 -0.06282628
v 0.29544902 -0.02219901 -0.06276181
v 0.29527497 -0.02218706 -0.06269991
v 0.29493332 -0.02211801 -0.06258570
v 0.29510263 -0.02215999 -0.06264106
v 0.30950001 -0.00000000 -0.10830000
v 0.30950001 -0.00000000 -0.11070000
v 0.30898574 -0.00410876 -0.10830000
v 0.30918798 -0.00341850 -0.10830000
v 0.30941987 -0.00200000 -0.10830000
v 0.30933300 -0.00271400 -0.10830000
v 0.30763766 -0.00663678 -0.10830000
v 0.30805138 -0.00604841 -0.10830000
v 0.30841553 -0.00542814 -0.10830000
v 0.30872768 -0.00478014 -0.10830000
v 0.30554730 -0.00859605 -0.10830000
v 0.30612844 -0.00817224 -0.10830000
v 0.30667296 -0.00770227 -0.10830000
v 0.30717716 -0.00718931 -0.10830000
v 0.30493340 -0.00897085 -0.10830000
v 0.30941987 -0.00200000 -0.11070000
v 0.30933300 -0.00271400 -0.11070000
v 0.30926237 -0.00309343 -0.11070000
v 0.30917913 -0.00345374 -0.11068712
v 0.30908233 -0.00380502 -0.11064856
v 0.30897313 -0.00414582 -0.11058450
v 0.30872768 -0.00478014 -0.11043653
v 0.30841553 -0.00542814 -0.11027924
v 0.30805138 -0.00604841 -0.11012215
v 0.30763766 -0.00663678 -0.10996634
v 0.30493340 -0.00897085 -0.10924216
v 0.30554730 -0.00859605 -0.10937637
v 0.30717716 -0.00718931 -0.10981283
v 0.30667296 -0.00770227 -0.10966267
v 0.30612844 -0.00817224 -0.10951686
f 1 2 3
f 2 4 3
f 3 4 5
f 4 6 5
f 5 6 7
f 6 8 7
f 7 8 9
f 8 10 9
f 9 10 11
f 10 12 11
f 11 12 13
f 12 14 13
f 13 14 15
f 14 16 15
f 15 16 17
f 16 18 17
f 17 18 19
f 18 20 19
f 19 20 21
f 20 22 21
f 21 22 23
f 22 24 23
f 23 24 25
f 24 26 25
f 25 26 27
f 26 28 27
f 27 28 29
f 28 30 29
f 29 30 31
f 30 32 31
f 31 32 33
f 32 34 33
f 33 34 35
f 34 36 35
f 35 36 37
f 36 38 37
f 37 38 39
f 38 40 39
f 39 40 41
f 40 42 41
f 41 42 43
f 42 44 43
f 43 44 45
f 44 46 45
f 45 46 47
f 46 48 47
f 47 48 49
f 48 50 49
f 49 50 51
f 50 52 51
f 51 52 53
f 52 54 53
f 53 54 55
f 54 56 55
f 55 56 57
f 56 58 57
f 57 58 59
f 58 60 59
f 59 60 61
f 60 62 61
f 61 62 63
f 62 64 63
f 63 64 65
f 64 66 65
f 65 66 67
f 66 68 67
f 67 68 69
f 68 70 69
f 69 70 71
f 70 72 71
f 71 72 73
f 72 74 73
f 73 74 75
f 74 76 75
f 75 76 77
f 76 78 77
f 77 78 79
f 78 80 79
f 79 80 81
f 80 82 81
f 81 82 83
f 82 84 83
f 83 84 85
f 84 86 85
f 85 86 87
f 86 88 87
f 87 88 89
f 88 90 89
f 89 90 91
f 90 92 91
f 91 92 93
f 92 94 93
f 93 94 95
f 94 96 95
f 95 96 97
f 96 98 97
f 97 98 99
f 98 100 99
f 99 100 101
f 100 102 101
f 101 102 103
f 102 104 103
f 103 104 105
f 104 106 105
f 105 106 107
f 106 108 107
f 107 108 109
f 108 110 109
f 109 110 111
f 110 112 111
f 111 112 113
f 112 114 113
f 113 114 115
f 114 116 115
f 115 116 117
f 116 118 117
f 117 118 119
f 118 120 119
f 119 120 121
f 120 122 121
f 121 122 123
f 122 124 123
f 123 124 125
f 124 126 125
f 125 126 127
f 126 128 127
f 127 128 129
f 128 130 129
f 129 130 131
f 130 132 131
f 131 132 133
f 132 134 133
f 133 134 135
f 134 136 135
f 135 136 137
f 136 138 137
f 137 138 139
f 138 140 139
f 139 140 141
f 140 142 141
f 141 142 143
f 142 144 143
f 143 144 1
f 144 2 1
f 145 146 147
f 148 149 150
f 151 152 153
f 152 154 153
f 155 156 153
f 156 157 153
f 153 157 151
f 158 159 160
f 159 161 160
f 160 161 162
f 158 163 159
f 163 164 159
f 159 164 153
f 164 165 153
f 153 165 155
f 166 167 161
f 167 168 161
f 168 169 161
f 169 170 161
f 161 170 162
f 171 172 173
f 172 174 173
f 173 174 166
f 174 175 166
f 166 175 167
f 150 149 173
f 149 176 173
f 173 176 171
f 177 178 150
f 178 179 150
f 150 179 148
f 180 181 177
f 181 182 177
f 177 182 178
f 147 146 177
f 146 183 177
f 177 183 180
f 184 185 186
f 185 187 186
f 187 188 186
f 188 189 186
f 186 189 147
f 189 190 147
f 147 190 145
f 152 191 154
f 191 192 154
f 154 192 193
f 192 194 193
f 193 194 195
f 194 196 195
f 195 196 197
f 196 198 197
f 197 198 199
f 198 200 199
f 199 200 201
f 200 202 201
f 201 202 203
f 202 204 203
f 203 204 205
f 204 206 205
f 205 206 207
f 206 208 207
f 207 208 209
f 210 211 212
f 213 214 215
f 213 215 216
f 216 215 217
f 215 218 217
f 217 218 219
f 218 220 219
f 219 220 221
f 220 209 221
f 221 209 208
f 214 222 215
f 222 223 215
f 215 223 212
f 223 224 212
f 212 224 210
f 225 226 217
f 226 227 217
f 217 227 228
f 217 219 225
f 219 221 225
f 225 221 229
f 221 208 229
f 229 208 206
f 206 204 229
f 204 202 229
f 229 202 200
f 200 198 229
f 198 196 229
f 229 196 194
f 152 230 191
f 230 229 191
f 191 229 192
f 229 194 192
f 152 151 230
f 151 157 230
f 230 157 231
f 157 156 231
f 231 156 232
f 156 155 232
f 232 155 233
f 163 234 164
f 234 233 164
f 164 233 165
f 233 155 165
f 162 235 160
f 235 234 160
f 160 234 158
f 234 163 158
f 162 170 235
f 170 169 235
f 235 169 236
f 169 168 236
f 168 167 236
f 236 167 237
f 167 175 237
f 175 174 237
f 237 174 238
f 176 239 171
f 239 238 171
f 171 238 172
f 238 174 172
f 176 149 239
f 149 148 239
f 239 148 240
f 182 241 178
f 241 240 178
f 178 240 179
f 240 148 179
f 182 181 241
f 181 180 241
f 241 180 242
f 145 243 146
f 243 242 146
f 146 242 183
f 242 180 183
f 145 190 243
f 190 189 243
f 243 189 244
f 185 245 187
f 245 244 187
f 187 244 188
f 244 189 188
f 246 247 248
f 249 250 251
f 250 246 251
f 251 246 252
f 246 248 252
f 247 246 253
f 246 254 253
f 253 254 255
f 256 257 258
f 258 259 256
f 259 260 256
f 256 260 254
f 260 261 254
f 254 261 255
f 257 256 262
f 256 263 262
f 262 263 264
f 265 266 267
f 267 268 265
f 268 269 265
f 265 269 263
f 269 270 263
f 263 270 264
f 266 265 271
f 265 272 271
f 271 272 273
f 274 275 276
f 276 277 274
f 277 278 274
f 274 278 272
f 278 279 272
f 272 279 273
f 275 274 280
f 274 281 280
f 280 281 282
f 283 284 285
f 284 286 285
f 285 286 281
f 286 287 281
f 281 287 282
f 288 289 290
f 289 291 290
f 290 291 285
f 291 292 285
f 285 292 283
f 293 294 295
f 295 296 293
f 296 297 293
f 293 297 290
f 297 298 290
f 290 298 288
f 299 300 301
f 300 302 301
f 301 302 293
f 302 303 293
f 293 303 294
f 299 301 304
f 301 305 304
f 304 305 306
f 305 307 306
f 306 307 308
f 307 309 308
f 308 309 310
f 309 311 310
f 310 311 312
f 311 313 312
f 312 313 314
f 313 315 314
f 314 315 316
f 315 211 316
f 316 211 210
f 317 249 318
f 249 251 318
f 251 252 318
f 252 248 318
f 318 248 319
f 248 247 319
f 247 253 319
f 319 253 320
f 253 255 320
f 320 255 321
f 255 261 321
f 261 260 321
f 321 260 322
f 260 259 322
f 322 259 323
f 259 324 323
f 259 258 324
f 258 257 324
f 324 257 325
f 257 262 325
f 325 262 326
f 262 264 326
f 326 264 327
f 264 270 327
f 270 269 327
f 327 269 328
f 269 268 328
f 328 268 329
f 266 271 330
f 271 331 330
f 329 268 330
f 268 267 330
f 330 267 266
f 279 278 332
f 278 333 332
f 331 271 332
f 271 273 332
f 332 273 279
f 276 334 335
f 333 278 335
f 278 277 335
f 335 277 276
f 280 282 336
f 282 337 336
f 334 276 336
f 276 275 336
f 336 275 280
f 286 338 339
f 337 282 339
f 282 287 339
f 339 287 286
f 283 340 341
f 338 286 341
f 286 284 341
f 341 284 283
f 291 289 342
f 289 343 342
f 340 283 342
f 283 292 342
f 342 292 291
f 298 297 344
f 297 345 344
f 343 289 344
f 289 288 344
f 344 288 298
f 295 346 347
f 345 297 347
f 297 296 347
f 347 296 295
f 303 302 348
f 302 349 348
f 346 295 348
f 295 294 348
f 348 294 303
f 299 304 350
f 304 351 350
f 349 302 350
f 302 300 350
f 350 300 299
f 351 304 352
f 304 306 352
f 352 210 353
f 210 224 353
f 353 224 223
f 306 308 352
f 308 310 352
f 352 310 312
f 312 314 352
f 314 316 352
f 352 316 210
f 353 223 222
f 353 222 354
f 222 214 354
f 354 214 355
f 214 213 355
f 355 213 356
f 213 216 356
f 356 216 357
f 216 217 357
f 357 217 228
f 317 358 249
f 358 250 249
f 359 245 184
f 245 185 184
f 360 361 362
f 361 363 362
f 364 360 365
f 360 362 365
f 364 365 366
f 364 366 367
f 366 368 367
f 367 368 369
f 368 370 369
f 369 370 371
f 370 372 371
f 371 372 373
f 372 374 373
f 373 374 375
f 374 376 375
f 375 376 377
f 376 378 377
f 377 378 379
f 378 380 379
f 379 380 381
f 380 382 381
f 381 382 383
f 382 384 383
f 383 384 385
f 384 386 385
f 385 386 387
f 386 388 387
f 387 388 389
f 388 390 389
f 389 390 391
f 391 390 392
f 391 392 393
f 392 394 393
f 393 394 395
f 394 396 395
f 395 396 397
f 396 398 397
f 397 398 399
f 398 400 399
f 399 400 401
f 400 402 401
f 401 402 403
f 402 404 403
f 403 404 405
f 404 406 405
f 405 406 407
f 406 408 407
f 407 408 409
f 408 410 409
f 409 410 411
f 410 412 411
f 411 412 413
f 414 413 415
f 413 412 415
f 368 416 370
f 416 417 370
f 370 417 372
f 362 363 365
f 363 416 365
f 365 416 366
f 416 368 366
f 380 418 382
f 418 419 382
f 382 419 384
f 419 386 384
f 380 378 418
f 378 376 418
f 418 376 417
f 376 374 417
f 417 374 372
f 394 392 420
f 392 390 420
f 420 390 419
f 390 388 419
f 419 388 386
f 415 412 420
f 412 410 420
f 420 410 408
f 420 402 400
f 408 406 420
f 406 404 420
f 420 404 402
f 400 398 420
f 398 396 420
f 420 396 394
f 421 422 423
f 421 423 424
f 423 425 424
f 424 425 426
f 425 427 426
f 426 427 428
f 427 429 428
f 428 429 430
f 429 431 430
f 430 431 432
f 431 433 432
f 432 433 434
f 433 435 434
f 434 435 436
f 435 437 436
f 436 437 438
f 437 439 438
f 438 439 440
f 439 441 440
f 440 441 442
f 441 443 442
f 442 443 444
f 445 446 447
f 446 448 447
f 448 446 449
f 448 449 450
f 449 451 450
f 450 451 452
f 451 453 452
f 452 453 454
f 453 455 454
f 454 455 456
f 455 457 456
f 456 457 458
f 457 459 458
f 458 459 460
f 459 461 460
f 460 461 462
f 461 463 462
f 462 463 464
f 463 465 464
f 464 465 466
f 465 467 466
f 466 467 468
f 467 469 468
f 468 469 470
f 469 471 470
f 470 471 472
f 471 473 472
f 472 473 474
f 474 473 475
f 474 475 476
f 475 477 476
f 476 477 478
f 477 479 478
f 478 479 480
f 479 481 480
f 480 481 482
f 481 483 482
f 482 483 484
f 483 485 484
f 484 485 486
f 485 487 486
f 486 487 488
f 487 489 488
f 488 489 490
f 489 491 490
f 490 491 492
f 491 493 492
f 492 493 494
f 493 495 494
f 494 495 496
f 497 496 498
f 496 495 498
f 445 499 446
f 499 500 446
f 446 500 449
f 463 501 465
f 501 502 465
f 465 502 467
f 502 469 467
f 503 498 495
f 463 461 501
f 461 459 501
f 501 459 504
f 459 457 504
f 457 455 504
f 455 453 504
f 504 453 500
f 453 451 500
f 500 451 449
f 495 493 503
f 493 491 503
f 503 491 489
f 489 487 503
f 487 485 503
f 503 485 483
f 483 481 503
f 481 479 503
f 503 479 477
f 477 475 503
f 475 473 503
f 503 473 502
f 473 471 502
f 502 471 469
f 505 506 507
f 505 507 508
f 507 509 508
f 508 509 510
f 509 511 510
f 510 511 512
f 511 513 512
f 512 513 514
f 513 515 514
f 514 515 516
f 515 517 516
f 516 517 518
f 517 519 518
f 518 519 520
f 519 521 520
f 520 521 522
f 521 523 522
f 522 523 524
f 523 525 524
f 524 525 526
f 525 527 526
f 526 527 528
f 529 530 531
f 532 533 534
f 532 534 535
f 534 536 535
f 535 536 537
f 536 538 537
f 537 538 539
f 538 540 539
f 539 540 541
f 540 542 541
f 541 542 543
f 542 544 543
f 543 544 545
f 544 546 545
f 545 546 547
f 546 548 547
f 547 548 549
f 548 550 549
f 549 550 551
f 550 552 551
f 551 552 553
f 552 506 553
f 553 506 505
f 532 554 533
f 554 555 533
f 533 555 531
f 555 556 531
f 531 556 529
f 557 558 535
f 535 537 557
f 537 539 557
f 557 539 559
f 539 541 559
f 559 541 543
f 505 560 553
f 560 561 553
f 553 561 551
f 543 545 559
f 545 547 559
f 559 547 561
f 547 549 561
f 561 549 551
f 505 508 560
f 508 510 560
f 560 510 512
f 512 514 560
f 514 516 560
f 560 516 518
f 518 520 560
f 520 522 560
f 560 522 524
f 524 526 560
f 526 528 560
f 560 528 562
f 563 555 554
f 563 554 564
f 554 532 564
f 564 532 565
f 535 558 532
f 558 566 532
f 532 566 565
f 556 555 563
f 556 563 529
f 563 567 529
f 529 567 568
f 363 361 569
f 499 570 571
f 572 573 574
f 573 575 574
f 574 575 576
f 577 578 579
f 577 579 580
f 576 581 574
f 581 582 574
f 574 582 583
f 583 584 574
f 584 585 574
f 574 585 586
f 578 587 579
f 587 588 579
f 579 588 589
f 590 591 572
f 591 592 572
f 572 592 573
f 593 594 595
f 594 596 595
f 595 596 597
f 596 590 597
f 597 590 598
f 590 572 598
f 599 600 593
f 600 601 593
f 593 601 602
f 602 603 593
f 603 604 593
f 593 604 594
f 605 606 607
f 606 608 607
f 609 610 611
f 610 612 611
f 612 613 611
f 613 614 611
f 611 614 615
f 615 616 611
f 616 617 611
f 611 617 618
f 618 619 611
f 619 620 611
f 611 620 621
f 621 622 611
f 622 623 611
f 611 623 624
f 624 625 611
f 625 626 611
f 611 626 627
f 627 628 611
f 628 629 611
f 611 629 630
f 630 631 611
f 631 632 611
f 611 632 633
f 633 634 611
f 634 635 611
f 611 635 636
f 636 637 611
f 637 638 611
f 611 638 639
f 639 640 611
f 640 641 611
f 611 641 642
f 642 643 611
f 643 644 611
f 611 644 593
f 644 645 593
f 593 645 599
f 500 564 565
f 565 566 500
f 566 558 500
f 500 558 504
f 562 646 647
f 648 497 498
f 558 557 504
f 557 559 504
f 504 559 501
f 559 561 501
f 501 561 502
f 561 560 502
f 502 560 503
f 560 498 503
f 647 646 649
f 650 651 652
f 653 414 415
f 652 651 654
f 417 655 418
f 655 656 418
f 418 656 419
f 656 657 419
f 419 657 420
f 657 415 420
f 658 659 416
f 659 660 416
f 416 660 417
f 660 661 417
f 417 661 655
f 564 500 563
f 500 499 563
f 563 499 567
f 499 571 567
f 567 571 662
f 651 663 654
f 663 664 654
f 654 664 665
f 664 666 665
f 665 666 667
f 666 668 667
f 667 668 669
f 668 670 669
f 669 670 571
f 569 671 363
f 671 672 363
f 363 672 416
f 672 673 416
f 416 673 658
f 571 670 662
f 670 674 662
f 662 674 675
f 646 676 649
f 676 677 649
f 649 677 678
f 677 679 678
f 678 679 680
f 679 681 680
f 680 681 682
f 681 675 682
f 682 675 569
f 675 674 569
f 569 674 671
f 683 232 684
f 232 233 684
f 684 233 234
f 240 241 685
f 241 242 685
f 685 242 243
f 234 235 684
f 235 236 684
f 684 236 237
f 237 238 684
f 238 239 684
f 684 239 240
f 243 244 685
f 244 245 685
f 685 245 359
f 229 230 683
f 230 231 683
f 683 231 232
f 686 226 687
f 226 225 687
f 687 225 688
f 225 229 688
f 688 229 689
f 229 683 689
f 354 355 686
f 355 356 686
f 686 356 357
f 357 228 686
f 228 227 686
f 686 227 226
f 358 317 690
f 317 318 690
f 691 319 692
f 319 320 692
f 320 321 692
f 321 322 692
f 692 322 323
f 323 324 692
f 324 325 692
f 692 325 326
f 326 327 692
f 327 328 692
f 692 328 329
f 329 330 692
f 330 331 692
f 692 331 332
f 332 333 692
f 333 335 692
f 692 335 334
f 334 336 692
f 336 337 692
f 692 337 339
f 339 338 692
f 338 341 692
f 692 341 340
f 340 342 692
f 342 343 692
f 692 343 344
f 344 345 692
f 345 347 692
f 692 347 346
f 346 348 692
f 348 349 692
f 692 349 350
f 350 351 692
f 351 352 692
f 692 352 686
f 352 353 686
f 686 353 354
f 657 650 415
f 650 652 415
f 415 652 653
f 652 607 653
f 653 607 609
f 607 608 609
f 609 608 610
f 240 685 684
f 685 693 684
f 684 693 694
f 693 695 694
f 694 695 696
f 695 697 696
f 696 697 698
f 697 699 698
f 698 699 700
f 699 701 700
f 700 701 702
f 701 703 702
f 702 703 704
f 703 705 704
f 704 705 706
f 705 707 706
f 706 707 708
f 707 709 708
f 708 709 710
f 709 711 710
f 710 711 712
f 711 713 712
f 712 713 714
f 713 715 714
f 714 715 716
f 715 717 716
f 716 717 718
f 717 719 718
f 718 719 720
f 719 721 720
f 720 721 722
f 721 723 722
f 722 723 724
f 723 725 724
f 724 725 726
f 725 727 726
f 726 727 728
f 727 729 728
f 728 729 730
f 729 731 730
f 730 731 732
f 731 733 732
f 732 733 734
f 733 735 734
f 734 735 736
f 735 737 736
f 736 737 738
f 737 739 738
f 738 739 740
f 739 741 740
f 740 741 742
f 741 743 742
f 742 743 744
f 743 745 744
f 744 745 746
f 745 747 746
f 746 747 748
f 747 749 748
f 748 749 750
f 749 751 750
f 750 751 752
f 751 753 752
f 752 753 754
f 753 755 754
f 754 755 756
f 755 757 756
f 756 757 758
f 757 759 758
f 758 759 760
f 759 761 760
f 760 761 762
f 761 763 762
f 762 763 764
f 763 765 764
f 764 765 766
f 765 767 766
f 766 767 768
f 767 769 768
f 768 769 770
f 769 771 770
f 770 771 772
f 771 773 772
f 772 773 774
f 773 775 774
f 774 775 776
f 775 777 776
f 776 777 778
f 777 574 778
f 778 574 579
f 574 586 579
f 579 586 580
f 560 562 498
f 562 647 498
f 498 647 648
f 647 690 648
f 648 690 691
f 690 318 691
f 691 318 319
f 706 708 29
f 758 579 589
f 779 780 781
f 779 781 782
f 780 783 781
f 783 784 781
f 781 784 785
f 73 448 71
f 448 69 71
f 786 785 787
f 448 490 492
f 497 53 55
f 91 93 605
f 579 758 778
f 758 760 778
f 778 760 762
f 762 764 778
f 764 766 778
f 778 766 776
f 766 768 776
f 768 770 776
f 770 772 776
f 776 772 774
f 788 789 781
f 789 790 781
f 790 791 781
f 791 792 781
f 781 792 793
f 492 494 448
f 494 496 448
f 448 496 497
f 47 49 497
f 49 51 497
f 497 51 53
f 55 57 497
f 57 59 497
f 497 59 61
f 61 63 497
f 63 65 497
f 497 65 448
f 65 67 448
f 448 67 69
f 787 785 794
f 474 476 448
f 476 478 448
f 478 480 448
f 480 482 448
f 448 482 484
f 484 486 448
f 486 488 448
f 448 488 490
f 29 497 648
f 784 795 785
f 795 796 785
f 785 796 797
f 793 798 781
f 798 799 781
f 781 799 800
f 801 802 781
f 802 803 781
f 781 803 804
f 448 450 474
f 450 452 474
f 474 452 454
f 454 456 474
f 456 458 474
f 474 458 460
f 29 31 497
f 31 33 497
f 497 33 35
f 35 37 497
f 37 39 497
f 497 39 41
f 41 43 497
f 43 45 497
f 497 45 47
f 107 109 758
f 29 708 27
f 708 710 27
f 27 710 25
f 710 712 25
f 25 712 23
f 712 714 23
f 23 714 21
f 714 716 21
f 21 716 19
f 716 718 19
f 19 718 17
f 718 720 17
f 17 720 15
f 720 722 15
f 15 722 13
f 722 724 13
f 13 724 11
f 724 726 11
f 11 726 9
f 726 728 9
f 9 728 7
f 728 730 7
f 7 730 5
f 730 732 5
f 5 732 3
f 732 734 3
f 3 734 1
f 734 736 1
f 1 736 143
f 736 738 143
f 143 738 141
f 738 740 141
f 141 740 139
f 740 742 139
f 139 742 137
f 742 744 137
f 137 744 135
f 744 746 135
f 135 746 133
f 746 748 133
f 133 748 131
f 748 750 131
f 131 750 129
f 750 752 129
f 129 752 127
f 752 754 127
f 127 754 125
f 754 756 125
f 125 756 123
f 756 758 123
f 123 758 121
f 800 805 781
f 805 806 781
f 781 806 807
f 804 808 781
f 808 809 781
f 781 809 782
f 460 462 474
f 462 464 474
f 474 464 466
f 447 448 570
f 448 73 570
f 570 73 571
f 73 75 571
f 571 75 669
f 75 77 669
f 669 77 667
f 77 79 667
f 667 79 665
f 79 81 665
f 665 81 654
f 81 83 654
f 654 83 652
f 83 85 652
f 652 85 607
f 85 87 607
f 607 87 605
f 87 89 605
f 605 89 91
f 93 95 605
f 95 97 605
f 605 97 99
f 797 810 785
f 810 811 785
f 785 811 812
f 812 813 785
f 813 814 785
f 785 814 794
f 815 816 787
f 816 817 787
f 787 817 818
f 807 819 781
f 819 820 781
f 781 820 801
f 466 468 474
f 468 470 474
f 474 470 472
f 109 111 758
f 111 113 758
f 758 113 115
f 648 691 29
f 691 692 29
f 29 692 686
f 818 821 787
f 821 822 787
f 787 822 786
f 99 101 605
f 101 103 605
f 605 103 105
f 115 117 758
f 117 119 758
f 758 119 121
f 686 687 29
f 687 688 29
f 29 688 689
f 788 781 589
f 781 605 589
f 589 605 758
f 605 105 758
f 758 105 107
f 689 683 29
f 683 684 29
f 29 684 694
f 694 696 29
f 696 698 29
f 29 698 700
f 700 702 29
f 702 704 29
f 29 704 706
f 823 568 662
f 568 567 662
f 823 662 530
f 662 675 530
f 530 675 531
f 544 679 546
f 679 677 546
f 546 677 548
f 677 550 548
f 544 542 679
f 542 540 679
f 679 540 681
f 540 538 681
f 538 536 681
f 536 534 681
f 681 534 675
f 534 533 675
f 675 533 531
f 676 506 677
f 506 552 677
f 677 552 550
f 517 515 676
f 515 513 676
f 676 513 511
f 511 509 676
f 509 507 676
f 676 507 506
f 646 527 676
f 527 525 676
f 676 525 523
f 523 521 676
f 521 519 676
f 676 519 517
f 823 530 568
f 530 529 568
f 646 562 527
f 562 528 527
f 447 570 445
f 570 499 445
f 589 588 788
f 588 824 788
f 606 605 825
f 605 781 825
f 645 826 827
f 645 827 599
f 827 828 599
f 599 828 600
f 828 829 600
f 600 829 601
f 829 830 601
f 601 830 602
f 830 831 602
f 602 831 603
f 643 832 644
f 832 833 644
f 644 834 645
f 834 835 645
f 645 835 826
f 833 836 644
f 836 837 644
f 644 837 838
f 838 839 644
f 839 840 644
f 644 840 834
f 606 825 608
f 825 841 608
f 841 842 608
f 842 843 608
f 608 843 610
f 843 844 610
f 844 845 610
f 610 845 612
f 845 846 612
f 612 846 613
f 846 847 613
f 847 848 613
f 613 848 614
f 848 849 614
f 614 849 615
f 849 616 615
f 849 850 616
f 850 851 616
f 616 851 617
f 851 852 617
f 617 852 618
f 852 853 618
f 618 853 619
f 853 854 619
f 854 855 619
f 619 855 620
f 855 856 620
f 620 856 621
f 857 858 622
f 858 623 622
f 621 856 622
f 856 859 622
f 622 859 857
f 860 861 624
f 861 625 624
f 623 858 624
f 858 862 624
f 624 862 860
f 863 627 626
f 625 861 626
f 861 864 626
f 626 864 863
f 865 866 628
f 866 629 628
f 627 863 628
f 863 867 628
f 628 867 865
f 868 631 630
f 629 866 630
f 866 869 630
f 630 869 868
f 870 633 632
f 631 868 632
f 868 871 632
f 632 871 870
f 872 873 634
f 873 635 634
f 633 870 634
f 870 874 634
f 634 874 872
f 875 876 636
f 876 637 636
f 635 873 636
f 873 877 636
f 636 877 875
f 878 639 638
f 637 876 638
f 876 879 638
f 638 879 878
f 880 881 640
f 881 641 640
f 639 878 640
f 878 882 640
f 640 882 880
f 883 832 642
f 832 643 642
f 641 881 642
f 881 884 642
f 642 884 883
f 785 844 843
f 825 781 841
f 781 785 841
f 841 785 842
f 785 843 842
f 844 785 845
f 785 786 845
f 845 786 846
f 822 851 850
f 850 849 822
f 849 848 822
f 822 848 786
f 848 847 786
f 786 847 846
f 851 822 852
f 822 821 852
f 852 821 853
f 818 857 859
f 859 856 818
f 856 855 818
f 818 855 821
f 855 854 821
f 821 854 853
f 857 818 858
f 818 817 858
f 858 817 862
f 816 867 863
f 863 864 816
f 864 861 816
f 816 861 817
f 861 860 817
f 817 860 862
f 867 816 865
f 816 815 865
f 865 815 866
f 870 871 787
f 871 868 787
f 787 868 815
f 868 869 815
f 815 869 866
f 877 873 794
f 873 872 794
f 794 872 787
f 872 874 787
f 787 874 870
f 814 882 878
f 878 879 814
f 879 876 814
f 814 876 794
f 876 875 794
f 794 875 877
f 883 884 813
f 884 881 813
f 813 881 814
f 881 880 814
f 814 880 882
f 883 813 832
f 813 812 832
f 832 812 833
f 812 811 833
f 833 811 836
f 811 810 836
f 836 810 837
f 810 797 837
f 837 797 838
f 797 796 838
f 838 796 839
f 796 795 839
f 839 795 840
f 795 784 840
f 840 784 834
f 885 886 591
f 886 887 591
f 591 887 592
f 887 888 592
f 592 888 573
f 888 889 573
f 573 889 575
f 890 576 891
f 576 575 891
f 891 575 892
f 575 889 892
f 893 581 894
f 581 576 894
f 894 576 895
f 576 890 895
f 893 896 581
f 896 897 581
f 581 897 582
f 897 898 582
f 898 899 582
f 582 899 583
f 899 900 583
f 900 901 583
f 583 901 584
f 902 585 903
f 585 584 903
f 903 584 904
f 584 901 904
f 902 905 585
f 905 906 585
f 585 906 586
f 907 580 908
f 580 586 908
f 908 586 909
f 586 906 909
f 907 910 580
f 910 911 580
f 580 911 577
f 912 578 913
f 578 577 913
f 913 577 914
f 577 911 914
f 912 915 578
f 915 916 578
f 578 916 587
f 824 588 917
f 588 587 917
f 917 587 918
f 587 916 918
f 596 594 831
f 594 604 831
f 831 604 603
f 831 919 596
f 919 920 596
f 596 920 590
f 920 921 590
f 590 921 922
f 922 923 590
f 923 924 590
f 590 924 925
f 925 926 590
f 926 927 590
f 590 927 928
f 885 591 929
f 591 590 929
f 929 590 930
f 590 928 930
f 829 828 780
f 829 780 830
f 828 827 780
f 827 826 780
f 780 826 783
f 830 780 831
f 780 779 831
f 831 779 919
f 779 782 919
f 919 782 920
f 782 809 920
f 920 809 921
f 826 835 783
f 835 834 783
f 783 834 784
f 912 913 790
f 906 905 792
f 886 885 805
f 885 806 805
f 889 888 805
f 888 887 805
f 805 887 886
f 895 800 894
f 800 799 894
f 894 799 893
f 895 890 800
f 890 891 800
f 800 891 805
f 891 892 805
f 805 892 889
f 798 899 799
f 899 898 799
f 898 897 799
f 897 896 799
f 799 896 893
f 903 904 793
f 904 901 793
f 793 901 798
f 901 900 798
f 798 900 899
f 792 905 793
f 905 902 793
f 793 902 903
f 791 908 792
f 908 909 792
f 792 909 906
f 911 910 791
f 910 907 791
f 791 907 908
f 790 913 791
f 913 914 791
f 791 914 911
f 788 824 789
f 824 917 789
f 917 918 789
f 918 916 789
f 789 916 790
f 916 915 790
f 790 915 912
f 885 929 806
f 929 930 806
f 806 930 807
f 930 928 807
f 807 928 819
f 928 927 819
f 819 927 820
f 927 926 820
f 820 926 801
f 926 925 801
f 801 925 802
f 925 924 802
f 802 924 803
f 924 923 803
f 803 923 804
f 923 922 804
f 804 922 808
f 922 921 808
f 808 921 809
f 413 414 361
f 361 414 569
f 414 358 690
f 359 713 685
f 713 711 685
f 250 184 186
f 220 218 250
f 218 215 250
f 215 212 250
f 212 211 250
f 250 211 246
f 711 709 685
f 709 707 685
f 685 707 705
f 705 703 685
f 703 701 685
f 685 701 699
f 690 647 414
f 647 649 414
f 414 649 678
f 697 695 699
f 695 693 699
f 699 693 685
f 186 147 250
f 147 177 250
f 250 177 150
f 161 159 250
f 678 680 414
f 680 682 414
f 414 682 569
f 397 364 395
f 364 393 395
f 66 358 68
f 358 70 68
f 205 207 250
f 207 209 250
f 250 209 220
f 78 414 80
f 414 82 80
f 263 256 211
f 256 254 211
f 211 254 246
f 193 195 250
f 195 197 250
f 250 197 199
f 199 201 250
f 201 203 250
f 250 203 205
f 393 364 391
f 364 367 391
f 391 367 369
f 391 381 383
f 397 399 364
f 399 401 364
f 364 401 403
f 66 64 358
f 64 62 358
f 358 62 60
f 60 58 358
f 58 56 358
f 358 56 54
f 30 28 713
f 307 305 211
f 150 173 250
f 173 166 250
f 250 166 161
f 369 371 391
f 371 373 391
f 391 373 375
f 375 377 391
f 377 379 391
f 391 379 381
f 403 405 364
f 405 407 364
f 364 407 409
f 361 360 413
f 360 364 413
f 413 364 411
f 364 409 411
f 78 76 414
f 76 74 414
f 414 74 358
f 74 72 358
f 358 72 70
f 54 52 358
f 52 50 358
f 358 50 48
f 313 311 309
f 305 301 211
f 301 293 211
f 211 293 290
f 290 285 211
f 285 281 211
f 211 281 274
f 274 272 211
f 272 265 211
f 211 265 263
f 159 153 250
f 153 154 250
f 250 154 193
f 383 385 391
f 385 387 391
f 391 387 389
f 40 38 713
f 38 36 713
f 307 211 309
f 211 315 309
f 309 315 313
f 48 46 358
f 46 44 358
f 358 44 42
f 184 250 359
f 250 358 359
f 359 358 713
f 358 42 713
f 713 42 40
f 36 34 713
f 34 32 713
f 713 32 30
f 28 26 713
f 26 24 713
f 713 24 715
f 24 22 715
f 715 22 717
f 22 20 717
f 717 20 719
f 20 18 719
f 719 18 721
f 18 16 721
f 721 16 723
f 16 14 723
f 723 14 725
f 14 12 725
f 725 12 727
f 12 10 727
f 727 10 729
f 10 8 729
f 729 8 731
f 8 6 731
f 731 6 733
f 6 4 733
f 733 4 735
f 4 2 735
f 735 2 737
f 2 144 737
f 737 144 739
f 144 142 739
f 739 142 741
f 142 140 741
f 741 140 743
f 140 138 743
f 743 138 745
f 138 136 745
f 745 136 747
f 136 134 747
f 747 134 749
f 134 132 749
f 749 132 751
f 132 130 751
f 751 130 753
f 130 128 753
f 753 128 755
f 128 126 755
f 755 126 757
f 126 124 757
f 757 124 759
f 124 122 759
f 759 122 761
f 122 120 761
f 761 120 763
f 120 118 763
f 763 118 765
f 118 116 765
f 765 116 767
f 116 114 767
f 767 114 769
f 114 112 769
f 769 112 771
f 112 110 771
f 771 110 773
f 110 108 773
f 773 108 775
f 108 106 775
f 775 106 777
f 106 104 777
f 777 104 574
f 104 102 574
f 574 102 572
f 102 100 572
f 572 100 598
f 100 98 598
f 598 98 597
f 98 96 597
f 597 96 595
f 96 94 595
f 595 94 593
f 94 92 593
f 593 92 611
f 92 90 611
f 611 90 609
f 90 88 609
f 609 88 653
f 88 86 653
f 653 86 414
f 86 84 414
f 414 84 82
f 931 932 674
f 932 671 674
f 668 933 670
f 933 934 670
f 931 674 935
f 674 670 935
f 935 670 936
f 670 934 936
f 937 938 666
f 938 939 666
f 666 939 668
f 939 940 668
f 668 940 933
f 941 942 664
f 942 943 664
f 664 943 666
f 943 944 666
f 666 944 937
f 663 651 443
f 425 423 663
f 423 422 663
f 663 422 664
f 422 945 664
f 664 945 941
f 431 429 663
f 429 427 663
f 663 427 425
f 443 441 663
f 441 439 663
f 663 439 437
f 437 435 663
f 435 433 663
f 663 433 431
f 946 932 935
f 932 931 935
f 651 650 443
f 650 444 443
f 947 948 672
f 947 672 946
f 672 671 946
f 946 671 932
f 672 948 949
f 672 949 673
f 949 950 673
f 673 950 658
f 951 660 950
f 660 659 950
f 950 659 658
f 661 660 951
f 951 952 661
f 952 953 661
f 661 953 655
f 953 954 655
f 655 954 955
f 421 657 956
f 657 656 956
f 956 656 957
f 955 958 655
f 958 959 655
f 655 959 656
f 959 960 656
f 656 960 957
f 421 424 657
f 424 426 657
f 657 426 428
f 428 430 657
f 430 432 657
f 657 432 434
f 434 436 657
f 436 438 657
f 657 438 440
f 440 442 657
f 442 444 657
f 657 444 650
f 946 935 936
f 950 934 933
f 950 933 951
f 933 940 951
f 951 940 952
f 940 939 952
f 952 939 953
f 939 938 953
f 953 938 954
f 938 937 954
f 954 937 955
f 937 944 955
f 955 944 958
f 944 943 958
f 958 943 959
f 943 942 959
f 959 942 960
f 942 941 960
f 960 941 957
f 941 945 957
f 957 945 956
f 945 422 956
f 956 422 421
f 950 949 934
f 949 948 934
f 934 948 936
f 948 947 936
f 936 947 946

