# https://github.com/mikedh/trimesh
v -0.01750000 -0.00000000 -0.00200000
v -0.01743341 0.00152523 -0.00100000
v -0.01743341 0.00152523 -0.00200000
v -0.01723414 0.00303884 -0.00100000
v -0.01723414 0.00303884 -0.00200000
v -0.01690370 0.00452933 -0.00100000
v -0.01690370 0.00452933 -0.00200000
v -0.01644462 0.00598535 -0.00100000
v -0.01644462 0.00598535 -0.00200000
v -0.01586039 0.00739582 -0.00100000
v -0.01586039 0.00739582 -0.00200000
v -0.01515544 0.00875000 -0.00100000
v -0.01515544 0.00875000 -0.00200000
v -0.01433516 0.01003759 -0.00100000
v -0.01433516 0.01003759 -0.00200000
v -0.01340578 0.01124878 -0.00100000
v -0.01340578 0.01124878 -0.00200000
v -0.01237437 0.01237437 -0.00100000
v -0.01237437 0.01237437 -0.00200000
v -0.01124878 0.01340578 -0.00100000
v -0.01124878 0.01340578 -0.00200000
v -0.01003759 0.01433516 -0.00100000
v -0.01003759 0.01433516 -0.00200000
v -0.00875000 0.01515544 -0.00100000
v -0.00875000 0.01515544 -0.00200000
v -0.00739582 0.01586039 -0.00100000
v -0.00739582 0.01586039 -0.00200000
v -0.00598535 0.01644462 -0.00100000
v -0.00598535 0.01644462 -0.00200000
v -0.00452933 0.01690370 -0.00100000
v -0.00452933 0.01690370 -0.00200000
v -0.00303884 0.01723414 -0.00100000
v -0.00303884 0.01723414 -0.00200000
v -0.00152523 0.01743341 -0.00100000
v -0.00152523 0.01743341 -0.00200000
v -0.00000000 0.01750000 -0.00100000
v -0.00000000 0.01750000 -0.00200000
v 0.00152523 0.01743341 -0.00100000
v 0.00152523 0.01743341 -0.00200000
v 0.00303884 0.01723414 -0.00100000
v 0.00303884 0.01723414 -0.00200000
v 0.00452933 0.01690370 -0.00100000
v 0.00452933 0.01690370 -0.00200000
v 0.00598535 0.01644462 -0.00100000
v 0.00598535 0.01644462 -0.00200000
v 0.00739582 0.01586039 -0.00100000
v 0.00739582 0.01586039 -0.00200000
v 0.00875000 0.01515544 -0.00100000
v 0.00875000 0.01515544 -0.00200000
v 0.01003759 0.01433516 -0.00100000
v 0.01003759 0.01433516 -0.00200000
v 0.01124878 0.01340578 -0.00100000
v 0.01124878 0.01340578 -0.00200000
v 0.01237437 0.01237437 -0.00100000
v 0.01237437 0.01237437 -0.00200000
v 0.01340578 0.01124878 -0.00100000
v 0.01340578 0.01124878 -0.00200000
v 0.01433516 0.01003759 -0.00100000
v 0.01433516 0.01003759 -0.00200000
v 0.01515544 0.00875000 -0.00100000
v 0.01515544 0.00875000 -0.00200000
v 0.01586039 0.00739582 -0.00100000
v 0.01586039 0.00739582 -0.00200000
v 0.01644462 0.00598535 -0.00100000
v 0.01644462 0.00598535 -0.00200000
v 0.01690370 0.00452933 -0.00100000
v 0.01690370 0.00452933 -0.00200000
v 0.01723414 0.00303884 -0.00100000
v 0.01723414 0.00303884 -0.00200000
v 0.01743341 0.00152523 -0.00100000
v 0.01743341 0.00152523 -0.00200000
v 0.01750000 0.00000000 -0.00100000
v 0.01750000 0.00000000 -0.00200000
v 0.01743341 -0.00152523 -0.00100000
v 0.01743341 -0.00152523 -0.00200000
v 0.01723414 -0.00303884 -0.00100000
v 0.01723414 -0.00303884 -0.00200000
v 0.01690370 -0.00452933 -0.00100000
v 0.01690370 -0.00452933 -0.00200000
v 0.01644462 -0.00598535 -0.00100000
v 0.01644462 -0.00598535 -0.00200000
v 0.01586039 -0.00739582 -0.00100000
v 0.01586039 -0.00739582 -0.00200000
v 0.01515544 -0.00875000 -0.00100000
v 0.01515544 -0.00875000 -0.00200000
v 0.01433516 -0.01003759 -0.00100000
v 0.01433516 -0.01003759 -0.00200000
v 0.01340578 -0.01124878 -0.00100000
v 0.01340578 -0.01124878 -0.00200000
v 0.01237437 -0.01237437 -0.00100000
v 0.01237437 -0.01237437 -0.00200000
v 0.01124878 -0.01340578 -0.00100000
v 0.01124878 -0.01340578 -0.00200000
v 0.01003759 -0.01433516 -0.00100000
v 0.01003759 -0.01433516 -0.00200000
v 0.00875000 -0.01515544 -0.00100000
v 0.00875000 -0.01515544 -0.00200000
v 0.00739582 -0.01586039 -0.00100000
v 0.00739582 -0.01586039 -0.00200000
v 0.00598535 -0.01644462 -0.00100000
v 0.00598535 -0.01644462 -0.00200000
v 0.00452933 -0.01690370 -0.00100000
v 0.00452933 -0.01690370 -0.00200000
v 0.00303884 -0.01723414 -0.00100000
v 0.00303884 -0.01723414 -0.00200000
v 0.00152523 -0.01743341 -0.00100000
v 0.00152523 -0.01743341 -0.00200000
v 0.00000000 -0.01750000 -0.00100000
v 0.00000000 -0.01750000 -0.00200000
v -0.00152523 -0.01743341 -0.00100000
v -0.00152523 -0.01743341 -0.00200000
v -0.00303884 -0.01723414 -0.00100000
v -0.00303884 -0.01723414 -0.00200000
v -0.00452933 -0.01690370 -0.00100000
v -0.00452933 -0.01690370 -0.00200000
v -0.00598535 -0.01644462 -0.00100000
v -0.00598535 -0.01644462 -0.00200000
v -0.00739582 -0.01586039 -0.00100000
v -0.00739582 -0.01586039 -0.00200000
v -0.00875000 -0.01515544 -0.00100000
v -0.00875000 -0.01515544 -0.00200000
v -0.01003759 -0.01433516 -0.00100000
v -0.01003759 -0.01433516 -0.00200000
v -0.01124878 -0.01340578 -0.00100000
v -0.01124878 -0.01340578 -0.00200000
v -0.01237437 -0.01237437 -0.00100000
v -0.01237437 -0.01237437 -0.00200000
v -0.01340578 -0.01124878 -0.00100000
v -0.01340578 -0.01124878 -0.00200000
v -0.01433516 -0.01003759 -0.00100000
v -0.01433516 -0.01003759 -0.00200000
v -0.01515544 -0.00875000 -0.00100000
v -0.01515544 -0.00875000 -0.00200000
v -0.01586039 -0.00739582 -0.00100000
v -0.01586039 -0.00739582 -0.00200000
v -0.01644462 -0.00598535 -0.00100000
v -0.01644462 -0.00598535 -0.00200000
v -0.01690370 -0.00452933 -0.00100000
v -0.01690370 -0.00452933 -0.00200000
v -0.01723414 -0.00303884 -0.00100000
v -0.01723414 -0.00303884 -0.00200000
v -0.01743341 -0.00152523 -0.00100000
v -0.01743341 -0.00152523 -0.00200000
v -0.01750000 -0.00000000 -0.00100000
v -0.00500000 -0.00866025 -0.00100000
v -0.00422618 -0.00906308 -0.00100000
v -0.00342020 -0.00939693 -0.00100000
v -0.00258819 -0.00965926 -0.00100000
v -0.00173648 -0.00984808 -0.00100000
v -0.00087156 -0.00996195 -0.00100000
v 0.00000000 -0.01000000 -0.00100000
v 0.00087156 -0.00996195 -0.00100000
v 0.00173648 -0.00984808 -0.00100000
v 0.00258819 -0.00965926 -0.00100000
v 0.00342020 -0.00939693 -0.00100000
v 0.00422618 -0.00906308 -0.00100000
v 0.00500000 -0.00866025 -0.00100000
v 0.00573576 -0.00819152 -0.00100000
v 0.00642788 -0.00766044 -0.00100000
v 0.00707107 -0.00707107 -0.00100000
v 0.00766044 -0.00642788 -0.00100000
v 0.00819152 -0.00573576 -0.00100000
v 0.00866025 -0.00500000 -0.00100000
v 0.00906308 -0.00422618 -0.00100000
v 0.00939693 -0.00342020 -0.00100000
v 0.00965926 -0.00258819 -0.00100000
v 0.00984808 -0.00173648 -0.00100000
v 0.00996195 -0.00087156 -0.00100000
v 0.01000000 0.00000000 -0.00100000
v 0.00996195 0.00087156 -0.00100000
v 0.00984808 0.00173648 -0.00100000
v 0.00965926 0.00258819 -0.00100000
v 0.00939693 0.00342020 -0.00100000
v 0.00906308 0.00422618 -0.00100000
v 0.00866025 0.00500000 -0.00100000
v 0.00819152 0.00573576 -0.00100000
v 0.00766044 0.00642788 -0.00100000
v 0.00707107 0.00707107 -0.00100000
v 0.00642788 0.00766044 -0.00100000
v 0.00573576 0.00819152 -0.00100000
v 0.00500000 0.00866025 -0.00100000
v 0.00422618 0.00906308 -0.00100000
v 0.00342020 0.00939693 -0.00100000
v 0.00258819 0.00965926 -0.00100000
v 0.00173648 0.00984808 -0.00100000
v 0.00087156 0.00996195 -0.00100000
v -0.00000000 0.01000000 -0.00100000
v -0.00087156 0.00996195 -0.00100000
v -0.00173648 0.00984808 -0.00100000
v -0.00258819 0.00965926 -0.00100000
v -0.00342020 0.00939693 -0.00100000
v -0.00422618 0.00906308 -0.00100000
v -0.00500000 0.00866025 -0.00100000
v -0.00573576 0.00819152 -0.00100000
v -0.00642788 0.00766044 -0.00100000
v -0.00707107 0.00707107 -0.00100000
v -0.00766044 0.00642788 -0.00100000
v -0.00819152 0.00573576 -0.00100000
v -0.00866025 0.00500000 -0.00100000
v -0.00906308 0.00422618 -0.00100000
v -0.00939693 0.00342020 -0.00100000
v -0.00965926 0.00258819 -0.00100000
v -0.00984808 0.00173648 -0.00100000
v -0.00996195 0.00087156 -0.00100000
v -0.01000000 -0.00000000 -0.00100000
v -0.00996195 -0.00087156 -0.00100000
v -0.00984808 -0.00173648 -0.00100000
v -0.00965926 -0.00258819 -0.00100000
v -0.00939693 -0.00342020 -0.00100000
v -0.00906308 -0.00422618 -0.00100000
v -0.00866025 -0.00500000 -0.00100000
v -0.00819152 -0.00573576 -0.00100000
v -0.00766044 -0.00642788 -0.00100000
v -0.00707107 -0.00707107 -0.00100000
v -0.00642788 -0.00766044 -0.00100000
v -0.00573576 -0.00819152 -0.00100000
v 0.00342020 -0.00939693 -0.00200000
v 0.00258819 -0.00965926 -0.00200000
v 0.00173648 -0.00984808 -0.00200000
v 0.00087156 -0.00996195 -0.00200000
v 0.00000000 -0.01000000 -0.00200000
v -0.00087156 -0.00996195 -0.00200000
v -0.00173648 -0.00984808 -0.00200000
v -0.00258819 -0.00965926 -0.00200000
v -0.00342020 -0.00939693 -0.00200000
v -0.00422618 -0.00906308 -0.00200000
v -0.00500000 -0.00866025 -0.00200000
v -0.00573576 -0.00819152 -0.00200000
v -0.00642788 -0.00766044 -0.00200000
v -0.00707107 -0.00707107 -0.00200000
v -0.00766044 -0.00642788 -0.00200000
v -0.00819152 -0.00573576 -0.00200000
v -0.00866025 -0.00500000 -0.00200000
v -0.00906308 -0.00422618 -0.00200000
v -0.00939693 -0.00342020 -0.00200000
v -0.00965926 -0.00258819 -0.00200000
v -0.00984808 -0.00173648 -0.00200000
v -0.00996195 -0.00087156 -0.00200000
v -0.01000000 -0.00000000 -0.00200000
v -0.00996195 0.00087156 -0.00200000
v -0.00984808 0.00173648 -0.00200000
v -0.00965926 0.00258819 -0.00200000
v -0.00939693 0.00342020 -0.00200000
v -0.00906308 0.00422618 -0.00200000
v -0.00866025 0.00500000 -0.00200000
v -0.00819152 0.00573576 -0.00200000
v -0.00766044 0.00642788 -0.00200000
v -0.00707107 0.00707107 -0.00200000
v -0.00642788 0.00766044 -0.00200000
v -0.00573576 0.00819152 -0.00200000
v -0.00500000 0.00866025 -0.00200000
v -0.00422618 0.00906308 -0.00200000
v -0.00342020 0.00939693 -0.00200000
v -0.00258819 0.00965926 -0.00200000
v -0.00173648 0.00984808 -0.00200000
v -0.00087156 0.00996195 -0.00200000
v -0.00000000 0.01000000 -0.00200000
v 0.00087156 0.00996195 -0.00200000
v 0.00173648 0.00984808 -0.00200000
v 0.00258819 0.00965926 -0.00200000
v 0.00342020 0.00939693 -0.00200000
v 0.00422618 0.00906308 -0.00200000
v 0.00500000 0.00866025 -0.00200000
v 0.00573576 0.00819152 -0.00200000
v 0.00642788 0.00766044 -0.00200000
v 0.00707107 0.00707107 -0.00200000
v 0.00766044 0.00642788 -0.00200000
v 0.00819152 0.00573576 -0.00200000
v 0.00866025 0.00500000 -0.00200000
v 0.00906308 0.00422618 -0.00200000
v 0.00939693 0.00342020 -0.00200000
v 0.00965926 0.00258819 -0.00200000
v 0.00984808 0.00173648 -0.00200000
v 0.00996195 0.00087156 -0.00200000
v 0.01000000 0.00000000 -0.00200000
v 0.00996195 -0.00087156 -0.00200000
v 0.00984808 -0.00173648 -0.00200000
v 0.00965926 -0.00258819 -0.00200000
v 0.00939693 -0.00342020 -0.00200000
v 0.00906308 -0.00422618 -0.00200000
v 0.00866025 -0.00500000 -0.00200000
v 0.00819152 -0.00573576 -0.00200000
v 0.00766044 -0.00642788 -0.00200000
v 0.00707107 -0.00707107 -0.00200000
v 0.00642788 -0.00766044 -0.00200000
v 0.00573576 -0.00819152 -0.00200000
v 0.00500000 -0.00866025 -0.00200000
v 0.00422618 -0.00906308 -0.00200000
f 1 2 3
f 2 4 3
f 3 4 5
f 4 6 5
f 5 6 7
f 6 8 7
f 7 8 9
f 8 10 9
f 9 10 11
f 10 12 11
f 11 12 13
f 12 14 13
f 13 14 15
f 14 16 15
f 15 16 17
f 16 18 17
f 17 18 19
f 18 20 19
f 19 20 21
f 20 22 21
f 21 22 23
f 22 24 23
f 23 24 25
f 24 26 25
f 25 26 27
f 26 28 27
f 27 28 29
f 28 30 29
f 29 30 31
f 30 32 31
f 31 32 33
f 32 34 33
f 33 34 35
f 34 36 35
f 35 36 37
f 36 38 37
f 37 38 39
f 38 40 39
f 39 40 41
f 40 42 41
f 41 42 43
f 42 44 43
f 43 44 45
f 44 46 45
f 45 46 47
f 46 48 47
f 47 48 49
f 48 50 49
f 49 50 51
f 50 52 51
f 51 52 53
f 52 54 53
f 53 54 55
f 54 56 55
f 55 56 57
f 56 58 57
f 57 58 59
f 58 60 59
f 59 60 61
f 60 62 61
f 61 62 63
f 62 64 63
f 63 64 65
f 64 66 65
f 65 66 67
f 66 68 67
f 67 68 69
f 68 70 69
f 69 70 71
f 70 72 71
f 71 72 73
f 72 74 73
f 73 74 75
f 74 76 75
f 75 76 77
f 76 78 77
f 77 78 79
f 78 80 79
f 79 80 81
f 80 82 81
f 81 82 83
f 82 84 83
f 83 84 85
f 84 86 85
f 85 86 87
f 86 88 87
f 87 88 89
f 88 90 89
f 89 90 91
f 90 92 91
f 91 92 93
f 92 94 93
f 93 94 95
f 94 96 95
f 95 96 97
f 96 98 97
f 97 98 99
f 98 100 99
f 99 100 101
f 100 102 101
f 101 102 103
f 102 104 103
f 103 104 105
f 104 106 105
f 105 106 107
f 106 108 107
f 107 108 109
f 108 110 109
f 109 110 111
f 110 112 111
f 111 112 113
f 112 114 113
f 113 114 115
f 114 116 115
f 115 116 117
f 116 118 117
f 117 118 119
f 118 120 119
f 119 120 121
f 120 122 121
f 121 122 123
f 122 124 123
f 123 124 125
f 124 126 125
f 125 126 127
f 126 128 127
f 127 128 129
f 128 130 129
f 129 130 131
f 130 132 131
f 131 132 133
f 132 134 133
f 133 134 135
f 134 136 135
f 135 136 137
f 136 138 137
f 137 138 139
f 138 140 139
f 139 140 141
f 140 142 141
f 141 142 143
f 142 144 143
f 143 144 1
f 144 2 1
f 145 120 146
f 120 118 146
f 146 118 147
f 118 116 147
f 147 116 148
f 116 114 148
f 148 114 149
f 114 112 149
f 149 112 150
f 112 110 150
f 150 110 151
f 110 108 151
f 151 108 152
f 108 106 152
f 152 106 153
f 106 104 153
f 153 104 154
f 104 102 154
f 154 102 155
f 102 100 155
f 155 100 156
f 100 98 156
f 156 98 157
f 98 96 157
f 157 96 158
f 96 94 158
f 158 94 159
f 94 92 159
f 159 92 160
f 92 90 160
f 160 90 161
f 90 88 161
f 161 88 162
f 88 86 162
f 162 86 163
f 86 84 163
f 163 84 164
f 84 82 164
f 164 82 165
f 82 80 165
f 165 80 166
f 80 78 166
f 166 78 167
f 78 76 167
f 167 76 168
f 76 74 168
f 168 74 169
f 74 72 169
f 169 72 170
f 72 70 170
f 170 70 171
f 70 68 171
f 171 68 172
f 68 66 172
f 172 66 173
f 66 64 173
f 173 64 174
f 64 62 174
f 174 62 175
f 62 60 175
f 175 60 176
f 60 58 176
f 176 58 177
f 58 56 177
f 177 56 178
f 56 54 178
f 178 54 179
f 54 52 179
f 179 52 180
f 52 50 180
f 180 50 181
f 50 48 181
f 181 48 182
f 48 46 182
f 182 46 183
f 46 44 183
f 183 44 184
f 44 42 184
f 184 42 185
f 42 40 185
f 185 40 186
f 40 38 186
f 186 38 187
f 38 36 187
f 187 36 188
f 36 34 188
f 188 34 189
f 34 32 189
f 189 32 190
f 32 30 190
f 190 30 191
f 30 28 191
f 191 28 192
f 28 26 192
f 192 26 193
f 26 24 193
f 193 24 194
f 24 22 194
f 194 22 195
f 22 20 195
f 195 20 196
f 20 18 196
f 196 18 197
f 18 16 197
f 197 16 198
f 16 14 198
f 198 14 199
f 14 12 199
f 199 12 200
f 12 10 200
f 200 10 201
f 10 8 201
f 201 8 202
f 8 6 202
f 202 6 203
f 6 4 203
f 203 4 204
f 4 2 204
f 204 2 205
f 2 144 205
f 205 144 206
f 144 142 206
f 206 142 207
f 142 140 207
f 207 140 208
f 140 138 208
f 208 138 209
f 138 136 209
f 209 136 210
f 136 134 210
f 210 134 211
f 134 132 211
f 211 132 212
f 132 130 212
f 212 130 213
f 130 128 213
f 213 128 214
f 128 126 214
f 214 126 215
f 126 124 215
f 215 124 216
f 124 122 216
f 216 122 145
f 122 120 145
f 217 101 218
f 101 103 218
f 218 103 219
f 103 105 219
f 219 105 220
f 105 107 220
f 220 107 221
f 107 109 221
f 221 109 222
f 109 111 222
f 222 111 223
f 111 113 223
f 223 113 224
f 113 115 224
f 224 115 225
f 115 117 225
f 225 117 226
f 117 119 226
f 226 119 227
f 119 121 227
f 227 121 228
f 121 123 228
f 228 123 229
f 123 125 229
f 229 125 230
f 125 127 230
f 230 127 231
f 127 129 231
f 231 129 232
f 129 131 232
f 232 131 233
f 131 133 233
f 233 133 234
f 133 135 234
f 234 135 235
f 135 137 235
f 235 137 236
f 137 139 236
f 236 139 237
f 139 141 237
f 237 141 238
f 141 143 238
f 238 143 239
f 143 1 239
f 239 1 240
f 1 3 240
f 240 3 241
f 3 5 241
f 241 5 242
f 5 7 242
f 242 7 243
f 7 9 243
f 243 9 244
f 9 11 244
f 244 11 245
f 11 13 245
f 245 13 246
f 13 15 246
f 246 15 247
f 15 17 247
f 247 17 248
f 17 19 248
f 248 19 249
f 19 21 249
f 249 21 250
f 21 23 250
f 250 23 251
f 23 25 251
f 251 25 252
f 25 27 252
f 252 27 253
f 27 29 253
f 253 29 254
f 29 31 254
f 254 31 255
f 31 33 255
f 255 33 256
f 33 35 256
f 256 35 257
f 35 37 257
f 257 37 258
f 37 39 258
f 258 39 259
f 39 41 259
f 259 41 260
f 41 43 260
f 260 43 261
f 43 45 261
f 261 45 262
f 45 47 262
f 262 47 263
f 47 49 263
f 263 49 264
f 49 51 264
f 264 51 265
f 51 53 265
f 265 53 266
f 53 55 266
f 266 55 267
f 55 57 267
f 267 57 268
f 57 59 268
f 268 59 269
f 59 61 269
f 269 61 270
f 61 63 270
f 270 63 271
f 63 65 271
f 271 65 272
f 65 67 272
f 272 67 273
f 67 69 273
f 273 69 274
f 69 71 274
f 274 71 275
f 71 73 275
f 275 73 276
f 73 75 276
f 276 75 277
f 75 77 277
f 277 77 278
f 77 79 278
f 278 79 279
f 79 81 279
f 279 81 280
f 81 83 280
f 280 83 281
f 83 85 281
f 281 85 282
f 85 87 282
f 282 87 283
f 87 89 283
f 283 89 284
f 89 91 284
f 284 91 285
f 91 93 285
f 285 93 286
f 93 95 286
f 286 95 287
f 95 97 287
f 287 97 288
f 97 99 288
f 288 99 217
f 99 101 217
f 205 239 204
f 239 240 204
f 204 240 203
f 240 241 203
f 203 241 202
f 241 242 202
f 202 242 201
f 242 243 201
f 201 243 200
f 243 244 200
f 200 244 199
f 244 245 199
f 199 245 198
f 245 246 198
f 198 246 197
f 246 247 197
f 197 247 196
f 247 248 196
f 196 248 195
f 248 249 195
f 195 249 194
f 249 250 194
f 194 250 193
f 250 251 193
f 193 251 192
f 251 252 192
f 192 252 191
f 252 253 191
f 191 253 190
f 253 254 190
f 190 254 189
f 254 255 189
f 189 255 188
f 255 256 188
f 188 256 187
f 256 257 187
f 187 257 186
f 257 258 186
f 186 258 185
f 258 259 185
f 185 259 184
f 259 260 184
f 184 260 183
f 260 261 183
f 183 261 182
f 261 262 182
f 182 262 181
f 262 263 181
f 181 263 180
f 263 264 180
f 180 264 179
f 264 265 179
f 179 265 178
f 265 266 178
f 178 266 177
f 266 267 177
f 177 267 176
f 267 268 176
f 176 268 175
f 268 269 175
f 175 269 174
f 269 270 174
f 174 270 173
f 270 271 173
f 173 271 172
f 271 272 172
f 172 272 171
f 272 273 171
f 171 273 170
f 273 274 170
f 170 274 169
f 274 275 169
f 169 275 168
f 275 276 168
f 168 276 167
f 276 277 167
f 167 277 166
f 277 278 166
f 166 278 165
f 278 279 165
f 165 279 164
f 279 280 164
f 164 280 163
f 280 281 163
f 163 281 162
f 281 282 162
f 162 282 161
f 282 283 161
f 161 283 160
f 283 284 160
f 160 284 159
f 284 285 159
f 159 285 158
f 285 286 158
f 158 286 157
f 286 287 157
f 157 287 156
f 287 288 156
f 156 288 155
f 288 217 155
f 155 217 154
f 217 218 154
f 154 218 153
f 218 219 153
f 153 219 152
f 219 220 152
f 152 220 151
f 220 221 151
f 151 221 150
f 221 222 150
f 150 222 149
f 222 223 149
f 149 223 148
f 223 224 148
f 148 224 147
f 224 225 147
f 147 225 146
f 225 226 146
f 146 226 145
f 226 227 145
f 145 227 216
f 227 228 216
f 216 228 215
f 228 229 215
f 215 229 214
f 229 230 214
f 214 230 213
f 230 231 213
f 213 231 212
f 231 232 212
f 212 232 211
f 232 233 211
f 211 233 210
f 233 234 210
f 210 234 209
f 234 235 209
f 209 235 208
f 235 236 208
f 208 236 207
f 236 237 207
f 207 237 206
f 237 238 206
f 206 238 205
f 238 239 205

