# https://github.com/mikedh/trimesh
v -0.01750000 -0.00000000 0.00100000
v -0.01743341 0.00152523 0.00200000
v -0.01743341 0.00152523 0.00100000
v -0.01723414 0.00303884 0.00200000
v -0.01723414 0.00303884 0.00100000
v -0.01690370 0.00452933 0.00200000
v -0.01690370 0.00452933 0.00100000
v -0.01644462 0.00598535 0.00200000
v -0.01644462 0.00598535 0.00100000
v -0.01586039 0.00739582 0.00200000
v -0.01586039 0.00739582 0.00100000
v -0.01515544 0.00875000 0.00200000
v -0.01515544 0.00875000 0.00100000
v -0.01433516 0.01003759 0.00200000
v -0.01433516 0.01003759 0.00100000
v -0.01340578 0.01124878 0.00200000
v -0.01340578 0.01124878 0.00100000
v -0.01237437 0.01237437 0.00200000
v -0.01237437 0.01237437 0.00100000
v -0.01124878 0.01340578 0.00200000
v -0.01124878 0.01340578 0.00100000
v -0.01003759 0.01433516 0.00200000
v -0.01003759 0.01433516 0.00100000
v -0.00875000 0.01515544 0.00200000
v -0.00875000 0.01515544 0.00100000
v -0.00739582 0.01586039 0.00200000
v -0.00739582 0.01586039 0.00100000
v -0.00598535 0.01644462 0.00200000
v -0.00598535 0.01644462 0.00100000
v -0.00452933 0.01690370 0.00200000
v -0.00452933 0.01690370 0.00100000
v -0.00303884 0.01723414 0.00200000
v -0.00303884 0.01723414 0.00100000
v -0.00152523 0.01743341 0.00200000
v -0.00152523 0.01743341 0.00100000
v -0.00000000 0.01750000 0.00200000
v -0.00000000 0.01750000 0.00100000
v 0.00152523 0.01743341 0.00200000
v 0.00152523 0.01743341 0.00100000
v 0.00303884 0.01723414 0.00200000
v 0.00303884 0.01723414 0.00100000
v 0.00452933 0.01690370 0.00200000
v 0.00452933 0.01690370 0.00100000
v 0.00598535 0.01644462 0.00200000
v 0.00598535 0.01644462 0.00100000
v 0.00739582 0.01586039 0.00200000
v 0.00739582 0.01586039 0.00100000
v 0.00875000 0.01515544 0.00200000
v 0.00875000 0.01515544 0.00100000
v 0.01003759 0.01433516 0.00200000
v 0.01003759 0.01433516 0.00100000
v 0.01124878 0.01340578 0.00200000
v 0.01124878 0.01340578 0.00100000
v 0.01237437 0.01237437 0.00200000
v 0.01237437 0.01237437 0.00100000
v 0.01340578 0.01124878 0.00200000
v 0.01340578 0.01124878 0.00100000
v 0.01433516 0.01003759 0.00200000
v 0.01433516 0.01003759 0.00100000
v 0.01515544 0.00875000 0.00200000
v 0.01515544 0.00875000 0.00100000
v 0.01586039 0.00739582 0.00200000
v 0.01586039 0.00739582 0.00100000
v 0.01644462 0.00598535 0.00200000
v 0.01644462 0.00598535 0.00100000
v 0.01690370 0.00452933 0.00200000
v 0.01690370 0.00452933 0.00100000
v 0.01723414 0.00303884 0.00200000
v 0.01723414 0.00303884 0.00100000
v 0.01743341 0.00152523 0.00200000
v 0.01743341 0.00152523 0.00100000
v 0.01750000 0.00000000 0.00200000
v 0.01750000 0.00000000 0.00100000
v 0.01743341 -0.00152523 0.00200000
v 0.01743341 -0.00152523 0.00100000
v 0.01723414 -0.00303884 0.00200000
v 0.01723414 -0.00303884 0.00100000
v 0.01690370 -0.00452933 0.00200000
v 0.01690370 -0.00452933 0.00100000
v 0.01644462 -0.00598535 0.00200000
v 0.01644462 -0.00598535 0.00100000
v 0.01586039 -0.00739582 0.00200000
v 0.01586039 -0.00739582 0.00100000
v 0.01515544 -0.00875000 0.00200000
v 0.01515544 -0.00875000 0.00100000
v 0.01433516 -0.01003759 0.00200000
v 0.01433516 -0.01003759 0.00100000
v 0.01340578 -0.01124878 0.00200000
v 0.01340578 -0.01124878 0.00100000
v 0.01237437 -0.01237437 0.00200000
v 0.01237437 -0.01237437 0.00100000
v 0.01124878 -0.01340578 0.00200000
v 0.01124878 -0.01340578 0.00100000
v 0.01003759 -0.01433516 0.00200000
v 0.01003759 -0.01433516 0.00100000
v 0.00875000 -0.01515544 0.00200000
v 0.00875000 -0.01515544 0.00100000
v 0.00739582 -0.01586039 0.00200000
v 0.00739582 -0.01586039 0.00100000
v 0.00598535 -0.01644462 0.00200000
v 0.00598535 -0.01644462 0.00100000
v 0.00452933 -0.01690370 0.00200000
v 0.00452933 -0.01690370 0.00100000
v 0.00303884 -0.01723414 0.00200000
v 0.00303884 -0.01723414 0.00100000
v 0.00152523 -0.01743341 0.00200000
v 0.00152523 -0.01743341 0.00100000
v 0.00000000 -0.01750000 0.00200000
v 0.00000000 -0.01750000 0.00100000
v -0.00152523 -0.01743341 0.00200000
v -0.00152523 -0.01743341 0.00100000
v -0.00303884 -0.01723414 0.00200000
v -0.00303884 -0.01723414 0.00100000
v -0.00452933 -0.01690370 0.00200000
v -0.00452933 -0.01690370 0.00100000
v -0.00598535 -0.01644462 0.00200000
v -0.00598535 -0.01644462 0.00100000
v -0.00739582 -0.01586039 0.00200000
v -0.00739582 -0.01586039 0.00100000
v -0.00875000 -0.01515544 0.00200000
v -0.00875000 -0.01515544 0.00100000
v -0.01003759 -0.01433516 0.00200000
v -0.01003759 -0.01433516 0.00100000
v -0.01124878 -0.01340578 0.00200000
v -0.01124878 -0.01340578 0.00100000
v -0.01237437 -0.01237437 0.00200000
v -0.01237437 -0.01237437 0.00100000
v -0.01340578 -0.01124878 0.00200000
v -0.01340578 -0.01124878 0.00100000
v -0.01433516 -0.01003759 0.00200000
v -0.01433516 -0.01003759 0.00100000
v -0.01515544 -0.00875000 0.00200000
v -0.01515544 -0.00875000 0.00100000
v -0.01586039 -0.00739582 0.00200000
v -0.01586039 -0.00739582 0.00100000
v -0.01644462 -0.00598535 0.00200000
v -0.01644462 -0.00598535 0.00100000
v -0.01690370 -0.00452933 0.00200000
v -0.01690370 -0.00452933 0.00100000
v -0.01723414 -0.00303884 0.00200000
v -0.01723414 -0.00303884 0.00100000
v -0.01743341 -0.00152523 0.00200000
v -0.01743341 -0.00152523 0.00100000
v -0.01750000 -0.00000000 0.00200000
v 0.00819152 0.00573576 0.00100000
v 0.00866025 0.00500000 0.00100000
v 0.00906308 0.00422618 0.00100000
v 0.00939693 0.00342020 0.00100000
v 0.00965926 0.00258819 0.00100000
v 0.00984808 0.00173648 0.00100000
v 0.00996195 0.00087156 0.00100000
v 0.01000000 0.00000000 0.00100000
v 0.00996195 -0.00087156 0.00100000
v 0.00984808 -0.00173648 0.00100000
v 0.00965926 -0.00258819 0.00100000
v 0.00939693 -0.00342020 0.00100000
v 0.00906308 -0.00422618 0.00100000
v 0.00866025 -0.00500000 0.00100000
v 0.00819152 -0.00573576 0.00100000
v 0.00766044 -0.00642788 0.00100000
v 0.00707107 -0.00707107 0.00100000
v 0.00642788 -0.00766044 0.00100000
v 0.00573576 -0.00819152 0.00100000
v 0.00500000 -0.00866025 0.00100000
v 0.00422618 -0.00906308 0.00100000
v 0.00342020 -0.00939693 0.00100000
v 0.00258819 -0.00965926 0.00100000
v 0.00173648 -0.00984808 0.00100000
v 0.00087156 -0.00996195 0.00100000
v 0.00000000 -0.01000000 0.00100000
v -0.00087156 -0.00996195 0.00100000
v -0.00173648 -0.00984808 0.00100000
v -0.00258819 -0.00965926 0.00100000
v -0.00342020 -0.00939693 0.00100000
v -0.00422618 -0.00906308 0.00100000
v -0.00500000 -0.00866025 0.00100000
v -0.00573576 -0.00819152 0.00100000
v -0.00642788 -0.00766044 0.00100000
v -0.00707107 -0.00707107 0.00100000
v -0.00766044 -0.00642788 0.00100000
v -0.00819152 -0.00573576 0.00100000
v -0.00866025 -0.00500000 0.00100000
v -0.00906308 -0.00422618 0.00100000
v -0.00939693 -0.00342020 0.00100000
v -0.00965926 -0.00258819 0.00100000
v -0.00984808 -0.00173648 0.00100000
v -0.00996195 -0.00087156 0.00100000
v -0.01000000 -0.00000000 0.00100000
v -0.00996195 0.00087156 0.00100000
v -0.00984808 0.00173648 0.00100000
v -0.00965926 0.00258819 0.00100000
v -0.00939693 0.00342020 0.00100000
v -0.00906308 0.00422618 0.00100000
v -0.00866025 0.00500000 0.00100000
v -0.00819152 0.00573576 0.00100000
v -0.00766044 0.00642788 0.00100000
v -0.00707107 0.00707107 0.00100000
v -0.00642788 0.00766044 0.00100000
v -0.00573576 0.00819152 0.00100000
v -0.00500000 0.00866025 0.00100000
v -0.00422618 0.00906308 0.00100000
v -0.00342020 0.00939693 0.00100000
v -0.00258819 0.00965926 0.00100000
v -0.00173648 0.00984808 0.00100000
v -0.00087156 0.00996195 0.00100000
v -0.00000000 0.01000000 0.00100000
v 0.00087156 0.00996195 0.00100000
v 0.00173648 0.00984808 0.00100000
v 0.00258819 0.00965926 0.00100000
v 0.00342020 0.00939693 0.00100000
v 0.00422618 0.00906308 0.00100000
v 0.00500000 0.00866025 0.00100000
v 0.00573576 0.00819152 0.00100000
v 0.00642788 0.00766044 0.00100000
v 0.00707107 0.00707107 0.00100000
v 0.00766044 0.00642788 0.00100000
v -0.00939693 -0.00342020 0.00200000
v -0.00906308 -0.00422618 0.00200000
v -0.00866025 -0.00500000 0.00200000
v -0.00819152 -0.00573576 0.00200000
v -0.00766044 -0.00642788 0.00200000
v -0.00707107 -0.00707107 0.00200000
v -0.00642788 -0.00766044 0.00200000
v -0.00573576 -0.00819152 0.00200000
v -0.00500000 -0.00866025 0.00200000
v -0.00422618 -0.00906308 0.00200000
v -0.00342020 -0.00939693 0.00200000
v -0.00258819 -0.00965926 0.00200000
v -0.00173648 -0.00984808 0.00200000
v -0.00087156 -0.00996195 0.00200000
v 0.00000000 -0.01000000 0.00200000
v 0.00087156 -0.00996195 0.00200000
v 0.00173648 -0.00984808 0.00200000
v 0.00258819 -0.00965926 0.00200000
v 0.00342020 -0.00939693 0.00200000
v 0.00422618 -0.00906308 0.00200000
v 0.00500000 -0.00866025 0.00200000
v 0.00573576 -0.00819152 0.00200000
v 0.00642788 -0.00766044 0.00200000
v 0.00707107 -0.00707107 0.00200000
v 0.00766044 -0.00642788 0.00200000
v 0.00819152 -0.00573576 0.00200000
v 0.00866025 -0.00500000 0.00200000
v 0.00906308 -0.00422618 0.00200000
v 0.00939693 -0.00342020 0.00200000
v 0.00965926 -0.00258819 0.00200000
v 0.00984808 -0.00173648 0.00200000
v 0.00996195 -0.00087156 0.00200000
v 0.01000000 0.00000000 0.00200000
v 0.00996195 0.00087156 0.00200000
v 0.00984808 0.00173648 0.00200000
v 0.00965926 0.00258819 0.00200000
v 0.00939693 0.00342020 0.00200000
v 0.00906308 0.00422618 0.00200000
v 0.00866025 0.00500000 0.00200000
v 0.00819152 0.00573576 0.00200000
v 0.00766044 0.00642788 0.00200000
v 0.00707107 0.00707107 0.00200000
v 0.00642788 0.00766044 0.00200000
v 0.00573576 0.00819152 0.00200000
v 0.00500000 0.00866025 0.00200000
v 0.00422618 0.00906308 0.00200000
v 0.00342020 0.00939693 0.00200000
v 0.00258819 0.00965926 0.00200000
v 0.00173648 0.00984808 0.00200000
v 0.00087156 0.00996195 0.00200000
v -0.00000000 0.01000000 0.00200000
v -0.00087156 0.00996195 0.00200000
v -0.00173648 0.00984808 0.00200000
v -0.00258819 0.00965926 0.00200000
v -0.00342020 0.00939693 0.00200000
v -0.00422618 0.00906308 0.00200000
v -0.00500000 0.00866025 0.00200000
v -0.00573576 0.00819152 0.00200000
v -0.00642788 0.00766044 0.00200000
v -0.00707107 0.00707107 0.00200000
v -0.00766044 0.00642788 0.00200000
v -0.00819152 0.00573576 0.00200000
v -0.00866025 0.00500000 0.00200000
v -0.00906308 0.00422618 0.00200000
v -0.00939693 0.00342020 0.00200000
v -0.00965926 0.00258819 0.00200000
v -0.00984808 0.00173648 0.00200000
v -0.00996195 0.00087156 0.00200000
v -0.01000000 -0.00000000 0.00200000
v -0.00996195 -0.00087156 0.00200000
v -0.00984808 -0.00173648 0.00200000
v -0.00965926 -0.00258819 0.00200000
f 1 2 3
f 2 4 3
f 3 4 5
f 4 6 5
f 5 6 7
f 6 8 7
f 7 8 9
f 8 10 9
f 9 10 11
f 10 12 11
f 11 12 13
f 12 14 13
f 13 14 15
f 14 16 15
f 15 16 17
f 16 18 17
f 17 18 19
f 18 20 19
f 19 20 21
f 20 22 21
f 21 22 23
f 22 24 23
f 23 24 25
f 24 26 25
f 25 26 27
f 26 28 27
f 27 28 29
f 28 30 29
f 29 30 31
f 30 32 31
f 31 32 33
f 32 34 33
f 33 34 35
f 34 36 35
f 35 36 37
f 36 38 37
f 37 38 39
f 38 40 39
f 39 40 41
f 40 42 41
f 41 42 43
f 42 44 43
f 43 44 45
f 44 46 45
f 45 46 47
f 46 48 47
f 47 48 49
f 48 50 49
f 49 50 51
f 50 52 51
f 51 52 53
f 52 54 53
f 53 54 55
f 54 56 55
f 55 56 57
f 56 58 57
f 57 58 59
f 58 60 59
f 59 60 61
f 60 62 61
f 61 62 63
f 62 64 63
f 63 64 65
f 64 66 65
f 65 66 67
f 66 68 67
f 67 68 69
f 68 70 69
f 69 70 71
f 70 72 71
f 71 72 73
f 72 74 73
f 73 74 75
f 74 76 75
f 75 76 77
f 76 78 77
f 77 78 79
f 78 80 79
f 79 80 81
f 80 82 81
f 81 82 83
f 82 84 83
f 83 84 85
f 84 86 85
f 85 86 87
f 86 88 87
f 87 88 89
f 88 90 89
f 89 90 91
f 90 92 91
f 91 92 93
f 92 94 93
f 93 94 95
f 94 96 95
f 95 96 97
f 96 98 97
f 97 98 99
f 98 100 99
f 99 100 101
f 100 102 101
f 101 102 103
f 102 104 103
f 103 104 105
f 104 106 105
f 105 106 107
f 106 108 107
f 107 108 109
f 108 110 109
f 109 110 111
f 110 112 111
f 111 112 113
f 112 114 113
f 113 114 115
f 114 116 115
f 115 116 117
f 116 118 117
f 117 118 119
f 118 120 119
f 119 120 121
f 120 122 121
f 121 122 123
f 122 124 123
f 123 124 125
f 124 126 125
f 125 126 127
f 126 128 127
f 127 128 129
f 128 130 129
f 129 130 131
f 130 132 131
f 131 132 133
f 132 134 133
f 133 134 135
f 134 136 135
f 135 136 137
f 136 138 137
f 137 138 139
f 138 140 139
f 139 140 141
f 140 142 141
f 141 142 143
f 142 144 143
f 143 144 1
f 144 2 1
f 145 59 146
f 59 61 146
f 146 61 147
f 61 63 147
f 147 63 148
f 63 65 148
f 148 65 149
f 65 67 149
f 149 67 150
f 67 69 150
f 150 69 151
f 69 71 151
f 151 71 152
f 71 73 152
f 152 73 153
f 73 75 153
f 153 75 154
f 75 77 154
f 154 77 155
f 77 79 155
f 155 79 156
f 79 81 156
f 156 81 157
f 81 83 157
f 157 83 158
f 83 85 158
f 158 85 159
f 85 87 159
f 159 87 160
f 87 89 160
f 160 89 161
f 89 91 161
f 161 91 162
f 91 93 162
f 162 93 163
f 93 95 163
f 163 95 164
f 95 97 164
f 164 97 165
f 97 99 165
f 165 99 166
f 99 101 166
f 166 101 167
f 101 103 167
f 167 103 168
f 103 105 168
f 168 105 169
f 105 107 169
f 169 107 170
f 107 109 170
f 170 109 171
f 109 111 171
f 171 111 172
f 111 113 172
f 172 113 173
f 113 115 173
f 173 115 174
f 115 117 174
f 174 117 175
f 117 119 175
f 175 119 176
f 119 121 176
f 176 121 177
f 121 123 177
f 177 123 178
f 123 125 178
f 178 125 179
f 125 127 179
f 179 127 180
f 127 129 180
f 180 129 181
f 129 131 181
f 181 131 182
f 131 133 182
f 182 133 183
f 133 135 183
f 183 135 184
f 135 137 184
f 184 137 185
f 137 139 185
f 185 139 186
f 139 141 186
f 186 141 187
f 141 143 187
f 187 143 188
f 143 1 188
f 188 1 189
f 1 3 189
f 189 3 190
f 3 5 190
f 190 5 191
f 5 7 191
f 191 7 192
f 7 9 192
f 192 9 193
f 9 11 193
f 193 11 194
f 11 13 194
f 194 13 195
f 13 15 195
f 195 15 196
f 15 17 196
f 196 17 197
f 17 19 197
f 197 19 198
f 19 21 198
f 198 21 199
f 21 23 199
f 199 23 200
f 23 25 200
f 200 25 201
f 25 27 201
f 201 27 202
f 27 29 202
f 202 29 203
f 29 31 203
f 203 31 204
f 31 33 204
f 204 33 205
f 33 35 205
f 205 35 206
f 35 37 206
f 206 37 207
f 37 39 207
f 207 39 208
f 39 41 208
f 208 41 209
f 41 43 209
f 209 43 210
f 43 45 210
f 210 45 211
f 45 47 211
f 211 47 212
f 47 49 212
f 212 49 213
f 49 51 213
f 213 51 214
f 51 53 214
f 214 53 215
f 53 55 215
f 215 55 216
f 55 57 216
f 216 57 145
f 57 59 145
f 217 136 218
f 136 134 218
f 218 134 219
f 134 132 219
f 219 132 220
f 132 130 220
f 220 130 221
f 130 128 221
f 221 128 222
f 128 126 222
f 222 126 223
f 126 124 223
f 223 124 224
f 124 122 224
f 224 122 225
f 122 120 225
f 225 120 226
f 120 118 226
f 226 118 227
f 118 116 227
f 227 116 228
f 116 114 228
f 228 114 229
f 114 112 229
f 229 112 230
f 112 110 230
f 230 110 231
f 110 108 231
f 231 108 232
f 108 106 232
f 232 106 233
f 106 104 233
f 233 104 234
f 104 102 234
f 234 102 235
f 102 100 235
f 235 100 236
f 100 98 236
f 236 98 237
f 98 96 237
f 237 96 238
f 96 94 238
f 238 94 239
f 94 92 239
f 239 92 240
f 92 90 240
f 240 90 241
f 90 88 241
f 241 88 242
f 88 86 242
f 242 86 243
f 86 84 243
f 243 84 244
f 84 82 244
f 244 82 245
f 82 80 245
f 245 80 246
f 80 78 246
f 246 78 247
f 78 76 247
f 247 76 248
f 76 74 248
f 248 74 249
f 74 72 249
f 249 72 250
f 72 70 250
f 250 70 251
f 70 68 251
f 251 68 252
f 68 66 252
f 252 66 253
f 66 64 253
f 253 64 254
f 64 62 254
f 254 62 255
f 62 60 255
f 255 60 256
f 60 58 256
f 256 58 257
f 58 56 257
f 257 56 258
f 56 54 258
f 258 54 259
f 54 52 259
f 259 52 260
f 52 50 260
f 260 50 261
f 50 48 261
f 261 48 262
f 48 46 262
f 262 46 263
f 46 44 263
f 263 44 264
f 44 42 264
f 264 42 265
f 42 40 265
f 265 40 266
f 40 38 266
f 266 38 267
f 38 36 267
f 267 36 268
f 36 34 268
f 268 34 269
f 34 32 269
f 269 32 270
f 32 30 270
f 270 30 271
f 30 28 271
f 271 28 272
f 28 26 272
f 272 26 273
f 26 24 273
f 273 24 274
f 24 22 274
f 274 22 275
f 22 20 275
f 275 20 276
f 20 18 276
f 276 18 277
f 18 16 277
f 277 16 278
f 16 14 278
f 278 14 279
f 14 12 279
f 279 12 280
f 12 10 280
f 280 10 281
f 10 8 281
f 281 8 282
f 8 6 282
f 282 6 283
f 6 4 283
f 283 4 284
f 4 2 284
f 284 2 285
f 2 144 285
f 285 144 286
f 144 142 286
f 286 142 287
f 142 140 287
f 287 140 288
f 140 138 288
f 288 138 217
f 138 136 217
f 285 188 284
f 188 189 284
f 284 189 283
f 189 190 283
f 283 190 282
f 190 191 282
f 282 191 281
f 191 192 281
f 281 192 280
f 192 193 280
f 280 193 279
f 193 194 279
f 279 194 278
f 194 195 278
f 278 195 277
f 195 196 277
f 277 196 276
f 196 197 276
f 276 197 275
f 197 198 275
f 275 198 274
f 198 199 274
f 274 199 273
f 199 200 273
f 273 200 272
f 200 201 272
f 272 201 271
f 201 202 271
f 271 202 270
f 202 203 270
f 270 203 269
f 203 204 269
f 269 204 268
f 204 205 268
f 268 205 267
f 205 206 267
f 267 206 266
f 206 207 266
f 266 207 265
f 207 208 265
f 265 208 264
f 208 209 264
f 264 209 263
f 209 210 263
f 263 210 262
f 210 211 262
f 262 211 261
f 211 212 261
f 261 212 260
f 212 213 260
f 260 213 259
f 213 214 259
f 259 214 258
f 214 215 258
f 258 215 257
f 215 216 257
f 257 216 256
f 216 145 256
f 256 145 255
f 145 146 255
f 255 146 254
f 146 147 254
f 254 147 253
f 147 148 253
f 253 148 252
f 148 149 252
f 252 149 251
f 149 150 251
f 251 150 250
f 150 151 250
f 250 151 249
f 151 152 249
f 249 152 248
f 152 153 248
f 248 153 247
f 153 154 247
f 247 154 246
f 154 155 246
f 246 155 245
f 155 156 245
f 245 156 244
f 156 157 244
f 244 157 243
f 157 158 243
f 243 158 242
f 158 159 242
f 242 159 241
f 159 160 241
f 241 160 240
f 160 161 240
f 240 161 239
f 161 162 239
f 239 162 238
f 162 163 238
f 238 163 237
f 163 164 237
f 237 164 236
f 164 165 236
f 236 165 235
f 165 166 235
f 235 166 234
f 166 167 234
f 234 167 233
f 167 168 233
f 233 168 232
f 168 169 232
f 232 169 231
f 169 170 231
f 231 170 230
f 170 171 230
f 230 171 229
f 171 172 229
f 229 172 228
f 172 173 228
f 228 173 227
f 173 174 227
f 227 174 226
f 174 175 226
f 226 175 225
f 175 176 225
f 225 176 224
f 176 177 224
f 224 177 223
f 177 178 223
f 223 178 222
f 178 179 222
f 222 179 221
f 179 180 221
f 221 180 220
f 180 181 220
f 220 181 219
f 181 182 219
f 219 182 218
f 182 183 218
f 218 183 217
f 183 184 217
f 217 184 288
f 184 185 288
f 288 185 287
f 185 186 287
f 287 186 286
f 186 187 286
f 286 187 285
f 187 188 285

