# https://github.com/mikedh/trimesh
v 0.00650000 0.00000000 -0.00200000
v 0.00498097 -0.00043578 -0.00000000
v 0.00647527 -0.00056651 -0.00200000
v 0.00492404 -0.00086824 -0.00000000
v 0.00640125 -0.00112871 -0.00200000
v 0.00482963 -0.00129410 -0.00000000
v 0.00627852 -0.00168232 -0.00200000
v 0.00469846 -0.00171010 -0.00000000
v 0.00610800 -0.00222313 -0.00200000
v 0.00453154 -0.00211309 -0.00000000
v 0.00589100 -0.00274702 -0.00200000
v 0.00433013 -0.00250000 -0.00000000
v 0.00562917 -0.00325000 -0.00200000
v 0.00409576 -0.00286788 -0.00000000
v 0.00532449 -0.00372825 -0.00200000
v 0.00383022 -0.00321394 -0.00000000
v 0.00497929 -0.00417812 -0.00200000
v 0.00353553 -0.00353553 -0.00000000
v 0.00459619 -0.00459619 -0.00200000
v 0.00321394 -0.00383022 -0.00000000
v 0.00417812 -0.00497929 -0.00200000
v 0.00286788 -0.00409576 -0.00000000
v 0.00372825 -0.00532449 -0.00200000
v 0.00250000 -0.00433013 -0.00000000
v 0.00325000 -0.00562917 -0.00200000
v 0.00211309 -0.00453154 -0.00000000
v 0.00274702 -0.00589100 -0.00200000
v 0.00171010 -0.00469846 -0.00000000
v 0.00222313 -0.00610800 -0.00200000
v 0.00129410 -0.00482963 -0.00000000
v 0.00168232 -0.00627852 -0.00200000
v 0.00086824 -0.00492404 -0.00000000
v 0.00112871 -0.00640125 -0.00200000
v 0.00043578 -0.00498097 -0.00000000
v 0.00056651 -0.00647527 -0.00200000
v 0.00000000 -0.00500000 -0.00000000
v 0.00000000 -0.00650000 -0.00200000
v -0.00043578 -0.00498097 -0.00000000
v -0.00056651 -0.00647527 -0.00200000
v -0.00086824 -0.00492404 -0.00000000
v -0.00112871 -0.00640125 -0.00200000
v -0.00129410 -0.00482963 -0.00000000
v -0.00168232 -0.00627852 -0.00200000
v -0.00171010 -0.00469846 -0.00000000
v -0.00222313 -0.00610800 -0.00200000
v -0.00211309 -0.00453154 -0.00000000
v -0.00274702 -0.00589100 -0.00200000
v -0.00250000 -0.00433013 -0.00000000
v -0.00325000 -0.00562917 -0.00200000
v -0.00286788 -0.00409576 -0.00000000
v -0.00372825 -0.00532449 -0.00200000
v -0.00321394 -0.00383022 -0.00000000
v -0.00417812 -0.00497929 -0.00200000
v -0.00353553 -0.00353553 -0.00000000
v -0.00459619 -0.00459619 -0.00200000
v -0.00383022 -0.00321394 -0.00000000
v -0.00497929 -0.00417812 -0.00200000
v -0.00409576 -0.00286788 -0.00000000
v -0.00532449 -0.00372825 -0.00200000
v -0.00433013 -0.00250000 -0.00000000
v -0.00562917 -0.00325000 -0.00200000
v -0.00453154 -0.00211309 -0.00000000
v -0.00589100 -0.00274702 -0.00200000
v -0.00469846 -0.00171010 -0.00000000
v -0.00610800 -0.00222313 -0.00200000
v -0.00482963 -0.00129410 -0.00000000
v -0.00627852 -0.00168232 -0.00200000
v -0.00492404 -0.00086824 -0.00000000
v -0.00640125 -0.00112871 -0.00200000
v -0.00498097 -0.00043578 -0.00000000
v -0.00647527 -0.00056651 -0.00200000
v -0.00500000 -0.00000000 -0.00000000
v -0.00650000 -0.00000000 -0.00200000
v -0.00498097 0.00043578 -0.00000000
v -0.00647527 0.00056651 -0.00200000
v -0.00492404 0.00086824 -0.00000000
v -0.00640125 0.00112871 -0.00200000
v -0.00482963 0.00129410 -0.00000000
v -0.00627852 0.00168232 -0.00200000
v -0.00469846 0.00171010 -0.00000000
v -0.00610800 0.00222313 -0.00200000
v -0.00453154 0.00211309 -0.00000000
v -0.00589100 0.00274702 -0.00200000
v -0.00433013 0.00250000 -0.00000000
v -0.00562917 0.00325000 -0.00200000
v -0.00409576 0.00286788 -0.00000000
v -0.00532449 0.00372825 -0.00200000
v -0.00383022 0.00321394 -0.00000000
v -0.00497929 0.00417812 -0.00200000
v -0.00353553 0.00353553 -0.00000000
v -0.00459619 0.00459619 -0.00200000
v -0.00321394 0.00383022 -0.00000000
v -0.00417812 0.00497929 -0.00200000
v -0.00286788 0.00409576 -0.00000000
v -0.00372825 0.00532449 -0.00200000
v -0.00250000 0.00433013 -0.00000000
v -0.00325000 0.00562917 -0.00200000
v -0.00211309 0.00453154 -0.00000000
v -0.00274702 0.00589100 -0.00200000
v -0.00171010 0.00469846 -0.00000000
v -0.00222313 0.00610800 -0.00200000
v -0.00129410 0.00482963 -0.00000000
v -0.00168232 0.00627852 -0.00200000
v -0.00086824 0.00492404 -0.00000000
v -0.00112871 0.00640125 -0.00200000
v -0.00043578 0.00498097 -0.00000000
v -0.00056651 0.00647527 -0.00200000
v -0.00000000 0.00500000 -0.00000000
v -0.00000000 0.00650000 -0.00200000
v 0.00043578 0.00498097 -0.00000000
v 0.00056651 0.00647527 -0.00200000
v 0.00086824 0.00492404 -0.00000000
v 0.00112871 0.00640125 -0.00200000
v 0.00129410 0.00482963 -0.00000000
v 0.00168232 0.00627852 -0.00200000
v 0.00171010 0.00469846 -0.00000000
v 0.00222313 0.00610800 -0.00200000
v 0.00211309 0.00453154 -0.00000000
v 0.00274702 0.00589100 -0.00200000
v 0.00250000 0.00433013 -0.00000000
v 0.00325000 0.00562917 -0.00200000
v 0.00286788 0.00409576 -0.00000000
v 0.00372825 0.00532449 -0.00200000
v 0.00321394 0.00383022 -0.00000000
v 0.00417812 0.00497929 -0.00200000
v 0.00353553 0.00353553 -0.00000000
v 0.00459619 0.00459619 -0.00200000
v 0.00383022 0.00321394 -0.00000000
v 0.00497929 0.00417812 -0.00200000
v 0.00409576 0.00286788 -0.00000000
v 0.00532449 0.00372825 -0.00200000
v 0.00433013 0.00250000 -0.00000000
v 0.00562917 0.00325000 -0.00200000
v 0.00453154 0.00211309 -0.00000000
v 0.00589100 0.00274702 -0.00200000
v 0.00469846 0.00171010 -0.00000000
v 0.00610800 0.00222313 -0.00200000
v 0.00482963 0.00129410 -0.00000000
v 0.00627852 0.00168232 -0.00200000
v 0.00492404 0.00086824 -0.00000000
v 0.00640125 0.00112871 -0.00200000
v 0.00498097 0.00043578 -0.00000000
v 0.00647527 0.00056651 -0.00200000
v 0.00500000 0.00000000 -0.00000000
v 0.00181262 0.00084524 0.00300000
v 0.00589100 0.00274702 0.00300000
v 0.00173205 0.00100000 0.00300000
v 0.00562917 0.00325000 0.00300000
v 0.00163830 0.00114715 0.00300000
v 0.00532449 0.00372825 0.00300000
v 0.00153209 0.00128558 0.00300000
v 0.00497929 0.00417812 0.00300000
v 0.00141421 0.00141421 0.00300000
v 0.00459619 0.00459619 0.00300000
v 0.00128558 0.00153209 0.00300000
v 0.00417812 0.00497929 0.00300000
v 0.00114715 0.00163830 0.00300000
v 0.00372825 0.00532449 0.00300000
v 0.00100000 0.00173205 0.00300000
v 0.00325000 0.00562917 0.00300000
v 0.00084524 0.00181262 0.00300000
v 0.00274702 0.00589100 0.00300000
v 0.00068404 0.00187939 0.00300000
v 0.00222313 0.00610800 0.00300000
v 0.00051764 0.00193185 0.00300000
v 0.00168232 0.00627852 0.00300000
v 0.00034730 0.00196962 0.00300000
v 0.00112871 0.00640125 0.00300000
v 0.00017431 0.00199239 0.00300000
v 0.00056651 0.00647527 0.00300000
v 0.00000000 0.00200000 0.00300000
v 0.00000000 0.00650000 0.00300000
v -0.00017431 0.00199239 0.00300000
v -0.00056651 0.00647527 0.00300000
v -0.00034730 0.00196962 0.00300000
v -0.00112871 0.00640125 0.00300000
v -0.00051764 0.00193185 0.00300000
v -0.00168232 0.00627852 0.00300000
v -0.00068404 0.00187939 0.00300000
v -0.00222313 0.00610800 0.00300000
v -0.00084524 0.00181262 0.00300000
v -0.00274702 0.00589100 0.00300000
v -0.00100000 0.00173205 0.00300000
v -0.00325000 0.00562917 0.00300000
v -0.00114715 0.00163830 0.00300000
v -0.00372825 0.00532449 0.00300000
v -0.00128558 0.00153209 0.00300000
v -0.00417812 0.00497929 0.00300000
v -0.00141421 0.00141421 0.00300000
v -0.00459619 0.00459619 0.00300000
v -0.00153209 0.00128558 0.00300000
v -0.00497929 0.00417812 0.00300000
v -0.00163830 0.00114715 0.00300000
v -0.00532449 0.00372825 0.00300000
v -0.00173205 0.00100000 0.00300000
v -0.00562917 0.00325000 0.00300000
v -0.00181262 0.00084524 0.00300000
v -0.00589100 0.00274702 0.00300000
v -0.00187939 0.00068404 0.00300000
v -0.00610800 0.00222313 0.00300000
v -0.00193185 0.00051764 0.00300000
v -0.00627852 0.00168232 0.00300000
v -0.00196962 0.00034730 0.00300000
v -0.00640125 0.00112871 0.00300000
v -0.00199239 0.00017431 0.00300000
v -0.00647527 0.00056651 0.00300000
v -0.00200000 0.00000000 0.00300000
v -0.00650000 0.00000000 0.00300000
v -0.00199239 -0.00017431 0.00300000
v -0.00647527 -0.00056651 0.00300000
v -0.00196962 -0.00034730 0.00300000
v -0.00640125 -0.00112871 0.00300000
v -0.00193185 -0.00051764 0.00300000
v -0.00627852 -0.00168232 0.00300000
v -0.00187939 -0.00068404 0.00300000
v -0.00610800 -0.00222313 0.00300000
v -0.00181262 -0.00084524 0.00300000
v -0.00589100 -0.00274702 0.00300000
v -0.00173205 -0.00100000 0.00300000
v -0.00562917 -0.00325000 0.00300000
v -0.00163830 -0.00114715 0.00300000
v -0.00532449 -0.00372825 0.00300000
v -0.00153209 -0.00128558 0.00300000
v -0.00497929 -0.00417812 0.00300000
v -0.00141421 -0.00141421 0.00300000
v -0.00459619 -0.00459619 0.00300000
v -0.00128558 -0.00153209 0.00300000
v -0.00417812 -0.00497929 0.00300000
v -0.00114715 -0.00163830 0.00300000
v -0.00372825 -0.00532449 0.00300000
v -0.00100000 -0.00173205 0.00300000
v -0.00325000 -0.00562917 0.00300000
v -0.00084524 -0.00181262 0.00300000
v -0.00274702 -0.00589100 0.00300000
v -0.00068404 -0.00187939 0.00300000
v -0.00222313 -0.00610800 0.00300000
v -0.00051764 -0.00193185 0.00300000
v -0.00168232 -0.00627852 0.00300000
v -0.00034730 -0.00196962 0.00300000
v -0.00112871 -0.00640125 0.00300000
v -0.00017431 -0.00199239 0.00300000
v -0.00056651 -0.00647527 0.00300000
v -0.00000000 -0.00200000 0.00300000
v -0.00000000 -0.00650000 0.00300000
v 0.00017431 -0.00199239 0.00300000
v 0.00056651 -0.00647527 0.00300000
v 0.00034730 -0.00196962 0.00300000
v 0.00112871 -0.00640125 0.00300000
v 0.00051764 -0.00193185 0.00300000
v 0.00168232 -0.00627852 0.00300000
v 0.00068404 -0.00187939 0.00300000
v 0.00222313 -0.00610800 0.00300000
v 0.00084524 -0.00181262 0.00300000
v 0.00274702 -0.00589100 0.00300000
v 0.00100000 -0.00173205 0.00300000
v 0.00325000 -0.00562917 0.00300000
v 0.00114715 -0.00163830 0.00300000
v 0.00372825 -0.00532449 0.00300000
v 0.00128558 -0.00153209 0.00300000
v 0.00417812 -0.00497929 0.00300000
v 0.00141421 -0.00141421 0.00300000
v 0.00459619 -0.00459619 0.00300000
v 0.00153209 -0.00128558 0.00300000
v 0.00497929 -0.00417812 0.00300000
v 0.00163830 -0.00114715 0.00300000
v 0.00532449 -0.00372825 0.00300000
v 0.00173205 -0.00100000 0.00300000
v 0.00562917 -0.00325000 0.00300000
v 0.00181262 -0.00084524 0.00300000
v 0.00589100 -0.00274702 0.00300000
v 0.00187939 -0.00068404 0.00300000
v 0.00610800 -0.00222313 0.00300000
v 0.00193185 -0.00051764 0.00300000
v 0.00627852 -0.00168232 0.00300000
v 0.00196962 -0.00034730 0.00300000
v 0.00640125 -0.00112871 0.00300000
v 0.00199239 -0.00017431 0.00300000
v 0.00647527 -0.00056651 0.00300000
v 0.00200000 -0.00000000 0.00300000
v 0.00650000 0.00000000 0.00300000
v 0.00199239 0.00017431 0.00300000
v 0.00647527 0.00056651 0.00300000
v 0.00196962 0.00034730 0.00300000
v 0.00640125 0.00112871 0.00300000
v 0.00193185 0.00051764 0.00300000
v 0.00627852 0.00168232 0.00300000
v 0.00187939 0.00068404 0.00300000
v 0.00610800 0.00222313 0.00300000
v 0.00200000 0.00000000 -0.00300000
v 0.00199239 0.00017431 -0.00300000
v 0.00196962 0.00034730 -0.00300000
v 0.00193185 0.00051764 -0.00300000
v 0.00187939 0.00068404 -0.00300000
v 0.00181262 0.00084524 -0.00300000
v 0.00173205 0.00100000 -0.00300000
v 0.00163830 0.00114715 -0.00300000
v 0.00153209 0.00128558 -0.00300000
v 0.00141421 0.00141421 -0.00300000
v 0.00128558 0.00153209 -0.00300000
v 0.00114715 0.00163830 -0.00300000
v 0.00100000 0.00173205 -0.00300000
v 0.00084524 0.00181262 -0.00300000
v 0.00068404 0.00187939 -0.00300000
v 0.00051764 0.00193185 -0.00300000
v 0.00034730 0.00196962 -0.00300000
v 0.00017431 0.00199239 -0.00300000
v 0.00000000 0.00200000 -0.00300000
v -0.00017431 0.00199239 -0.00300000
v -0.00034730 0.00196962 -0.00300000
v -0.00051764 0.00193185 -0.00300000
v -0.00068404 0.00187939 -0.00300000
v -0.00084524 0.00181262 -0.00300000
v -0.00100000 0.00173205 -0.00300000
v -0.00114715 0.00163830 -0.00300000
v -0.00128558 0.00153209 -0.00300000
v -0.00141421 0.00141421 -0.00300000
v -0.00153209 0.00128558 -0.00300000
v -0.00163830 0.00114715 -0.00300000
v -0.00173205 0.00100000 -0.00300000
v -0.00181262 0.00084524 -0.00300000
v -0.00187939 0.00068404 -0.00300000
v -0.00193185 0.00051764 -0.00300000
v -0.00196962 0.00034730 -0.00300000
v -0.00199239 0.00017431 -0.00300000
v -0.00200000 0.00000000 -0.00300000
v -0.00199239 -0.00017431 -0.00300000
v -0.00196962 -0.00034730 -0.00300000
v -0.00193185 -0.00051764 -0.00300000
v -0.00187939 -0.00068404 -0.00300000
v -0.00181262 -0.00084524 -0.00300000
v -0.00173205 -0.00100000 -0.00300000
v -0.00163830 -0.00114715 -0.00300000
v -0.00153209 -0.00128558 -0.00300000
v -0.00141421 -0.00141421 -0.00300000
v -0.00128558 -0.00153209 -0.00300000
v -0.00114715 -0.00163830 -0.00300000
v -0.00100000 -0.00173205 -0.00300000
v -0.00084524 -0.00181262 -0.00300000
v -0.00068404 -0.00187939 -0.00300000
v -0.00051764 -0.00193185 -0.00300000
v -0.00034730 -0.00196962 -0.00300000
v -0.00017431 -0.00199239 -0.00300000
v -0.00000000 -0.00200000 -0.00300000
v 0.00017431 -0.00199239 -0.00300000
v 0.00034730 -0.00196962 -0.00300000
v 0.00051764 -0.00193185 -0.00300000
v 0.00068404 -0.00187939 -0.00300000
v 0.00084524 -0.00181262 -0.00300000
v 0.00100000 -0.00173205 -0.00300000
v 0.00114715 -0.00163830 -0.00300000
v 0.00128558 -0.00153209 -0.00300000
v 0.00141421 -0.00141421 -0.00300000
v 0.00153209 -0.00128558 -0.00300000
v 0.00163830 -0.00114715 -0.00300000
v 0.00173205 -0.00100000 -0.00300000
v 0.00181262 -0.00084524 -0.00300000
v 0.00187939 -0.00068404 -0.00300000
v 0.00193185 -0.00051764 -0.00300000
v 0.00196962 -0.00034730 -0.00300000
v 0.00199239 -0.00017431 -0.00300000
v 0.00647527 0.00056651 0.00200000
v 0.00640125 0.00112871 0.00200000
v 0.00627852 0.00168232 0.00200000
v 0.00610800 0.00222313 0.00200000
v 0.00589100 0.00274702 0.00200000
v 0.00562917 0.00325000 0.00200000
v 0.00532449 0.00372825 0.00200000
v 0.00497929 0.00417812 0.00200000
v 0.00459619 0.00459619 0.00200000
v 0.00417812 0.00497929 0.00200000
v 0.00372825 0.00532449 0.00200000
v 0.00325000 0.00562917 0.00200000
v 0.00274702 0.00589100 0.00200000
v 0.00222313 0.00610800 0.00200000
v 0.00168232 0.00627852 0.00200000
v 0.00112871 0.00640125 0.00200000
v 0.00056651 0.00647527 0.00200000
v 0.00000000 0.00650000 0.00200000
v -0.00056651 0.00647527 0.00200000
v -0.00112871 0.00640125 0.00200000
v -0.00168232 0.00627852 0.00200000
v -0.00222313 0.00610800 0.00200000
v -0.00274702 0.00589100 0.00200000
v -0.00325000 0.00562917 0.00200000
v -0.00372825 0.00532449 0.00200000
v -0.00417812 0.00497929 0.00200000
v -0.00459619 0.00459619 0.00200000
v -0.00497929 0.00417812 0.00200000
v -0.00532449 0.00372825 0.00200000
v -0.00562917 0.00325000 0.00200000
v -0.00589100 0.00274702 0.00200000
v -0.00610800 0.00222313 0.00200000
v -0.00627852 0.00168232 0.00200000
v -0.00640125 0.00112871 0.00200000
v -0.00647527 0.00056651 0.00200000
v -0.00650000 0.00000000 0.00200000
v -0.00647527 -0.00056651 0.00200000
v -0.00640125 -0.00112871 0.00200000
v -0.00627852 -0.00168232 0.00200000
v -0.00610800 -0.00222313 0.00200000
v -0.00589100 -0.00274702 0.00200000
v -0.00562917 -0.00325000 0.00200000
v -0.00532449 -0.00372825 0.00200000
v -0.00497929 -0.00417812 0.00200000
v -0.00459619 -0.00459619 0.00200000
v -0.00417812 -0.00497929 0.00200000
v -0.00372825 -0.00532449 0.00200000
v -0.00325000 -0.00562917 0.00200000
v -0.00274702 -0.00589100 0.00200000
v -0.00222313 -0.00610800 0.00200000
v -0.00168232 -0.00627852 0.00200000
v -0.00112871 -0.00640125 0.00200000
v -0.00056651 -0.00647527 0.00200000
v -0.00000000 -0.00650000 0.00200000
v 0.00056651 -0.00647527 0.00200000
v 0.00112871 -0.00640125 0.00200000
v 0.00168232 -0.00627852 0.00200000
v 0.00222313 -0.00610800 0.00200000
v 0.00274702 -0.00589100 0.00200000
v 0.00325000 -0.00562917 0.00200000
v 0.00372825 -0.00532449 0.00200000
v 0.00417812 -0.00497929 0.00200000
v 0.00459619 -0.00459619 0.00200000
v 0.00497929 -0.00417812 0.00200000
v 0.00532449 -0.00372825 0.00200000
v 0.00562917 -0.00325000 0.00200000
v 0.00589100 -0.00274702 0.00200000
v 0.00610800 -0.00222313 0.00200000
v 0.00627852 -0.00168232 0.00200000
v 0.00640125 -0.00112871 0.00200000
v 0.00647527 -0.00056651 0.00200000
v 0.00650000 0.00000000 0.00200000
v 0.00222313 0.00610800 -0.00300000
v 0.00274702 0.00589100 -0.00300000
v 0.00325000 0.00562917 -0.00300000
v 0.00372825 0.00532449 -0.00300000
v 0.00417812 0.00497929 -0.00300000
v 0.00459619 0.00459619 -0.00300000
v 0.00497929 0.00417812 -0.00300000
v 0.00532449 0.00372825 -0.00300000
v 0.00562917 0.00325000 -0.00300000
v 0.00589100 0.00274702 -0.00300000
v 0.00610800 0.00222313 -0.00300000
v 0.00627852 0.00168232 -0.00300000
v 0.00640125 0.00112871 -0.00300000
v 0.00647527 0.00056651 -0.00300000
v 0.00650000 -0.00000000 -0.00300000
v 0.00647527 -0.00056651 -0.00300000
v 0.00640125 -0.00112871 -0.00300000
v 0.00627852 -0.00168232 -0.00300000
v 0.00610800 -0.00222313 -0.00300000
v 0.00589100 -0.00274702 -0.00300000
v 0.00562917 -0.00325000 -0.00300000
v 0.00532449 -0.00372825 -0.00300000
v 0.00497929 -0.00417812 -0.00300000
v 0.00459619 -0.00459619 -0.00300000
v 0.00417812 -0.00497929 -0.00300000
v 0.00372825 -0.00532449 -0.00300000
v 0.00325000 -0.00562917 -0.00300000
v 0.00274702 -0.00589100 -0.00300000
v 0.00222313 -0.00610800 -0.00300000
v 0.00168232 -0.00627852 -0.00300000
v 0.00112871 -0.00640125 -0.00300000
v 0.00056651 -0.00647527 -0.00300000
v -0.00000000 -0.00650000 -0.00300000
v -0.00056651 -0.00647527 -0.00300000
v -0.00112871 -0.00640125 -0.00300000
v -0.00168232 -0.00627852 -0.00300000
v -0.00222313 -0.00610800 -0.00300000
v -0.00274702 -0.00589100 -0.00300000
v -0.00325000 -0.00562917 -0.00300000
v -0.00372825 -0.00532449 -0.00300000
v -0.00417812 -0.00497929 -0.00300000
v -0.00459619 -0.00459619 -0.00300000
v -0.00497929 -0.00417812 -0.00300000
v -0.00532449 -0.00372825 -0.00300000
v -0.00562917 -0.00325000 -0.00300000
v -0.00589100 -0.00274702 -0.00300000
v -0.00610800 -0.00222313 -0.00300000
v -0.00627852 -0.00168232 -0.00300000
v -0.00640125 -0.00112871 -0.00300000
v -0.00647527 -0.00056651 -0.00300000
v -0.00650000 0.00000000 -0.00300000
v -0.00647527 0.00056651 -0.00300000
v -0.00640125 0.00112871 -0.00300000
v -0.00627852 0.00168232 -0.00300000
v -0.00610800 0.00222313 -0.00300000
v -0.00589100 0.00274702 -0.00300000
v -0.00562917 0.00325000 -0.00300000
v -0.00532449 0.00372825 -0.00300000
v -0.00497929 0.00417812 -0.00300000
v -0.00459619 0.00459619 -0.00300000
v -0.00417812 0.00497929 -0.00300000
v -0.00372825 0.00532449 -0.00300000
v -0.00325000 0.00562917 -0.00300000
v -0.00274702 0.00589100 -0.00300000
v -0.00222313 0.00610800 -0.00300000
v -0.00168232 0.00627852 -0.00300000
v -0.00112871 0.00640125 -0.00300000
v -0.00056651 0.00647527 -0.00300000
v 0.00000000 0.00650000 -0.00300000
v 0.00056651 0.00647527 -0.00300000
v 0.00112871 0.00640125 -0.00300000
v 0.00168232 0.00627852 -0.00300000
f 1 2 3
f 2 4 3
f 3 4 5
f 4 6 5
f 5 6 7
f 6 8 7
f 7 8 9
f 8 10 9
f 9 10 11
f 10 12 11
f 11 12 13
f 12 14 13
f 13 14 15
f 14 16 15
f 15 16 17
f 16 18 17
f 17 18 19
f 18 20 19
f 19 20 21
f 20 22 21
f 21 22 23
f 22 24 23
f 23 24 25
f 24 26 25
f 25 26 27
f 26 28 27
f 27 28 29
f 28 30 29
f 29 30 31
f 30 32 31
f 31 32 33
f 32 34 33
f 33 34 35
f 34 36 35
f 35 36 37
f 36 38 37
f 37 38 39
f 38 40 39
f 39 40 41
f 40 42 41
f 41 42 43
f 42 44 43
f 43 44 45
f 44 46 45
f 45 46 47
f 46 48 47
f 47 48 49
f 48 50 49
f 49 50 51
f 50 52 51
f 51 52 53
f 52 54 53
f 53 54 55
f 54 56 55
f 55 56 57
f 56 58 57
f 57 58 59
f 58 60 59
f 59 60 61
f 60 62 61
f 61 62 63
f 62 64 63
f 63 64 65
f 64 66 65
f 65 66 67
f 66 68 67
f 67 68 69
f 68 70 69
f 69 70 71
f 70 72 71
f 71 72 73
f 72 74 73
f 73 74 75
f 74 76 75
f 75 76 77
f 76 78 77
f 77 78 79
f 78 80 79
f 79 80 81
f 80 82 81
f 81 82 83
f 82 84 83
f 83 84 85
f 84 86 85
f 85 86 87
f 86 88 87
f 87 88 89
f 88 90 89
f 89 90 91
f 90 92 91
f 91 92 93
f 92 94 93
f 93 94 95
f 94 96 95
f 95 96 97
f 96 98 97
f 97 98 99
f 98 100 99
f 99 100 101
f 100 102 101
f 101 102 103
f 102 104 103
f 103 104 105
f 104 106 105
f 105 106 107
f 106 108 107
f 107 108 109
f 108 110 109
f 109 110 111
f 110 112 111
f 111 112 113
f 112 114 113
f 113 114 115
f 114 116 115
f 115 116 117
f 116 118 117
f 117 118 119
f 118 120 119
f 119 120 121
f 120 122 121
f 121 122 123
f 122 124 123
f 123 124 125
f 124 126 125
f 125 126 127
f 126 128 127
f 127 128 129
f 128 130 129
f 129 130 131
f 130 132 131
f 131 132 133
f 132 134 133
f 133 134 135
f 134 136 135
f 135 136 137
f 136 138 137
f 137 138 139
f 138 140 139
f 139 140 141
f 140 142 141
f 141 142 143
f 142 144 143
f 143 144 1
f 144 2 1
f 145 146 147
f 146 148 147
f 147 148 149
f 148 150 149
f 149 150 151
f 150 152 151
f 151 152 153
f 152 154 153
f 153 154 155
f 154 156 155
f 155 156 157
f 156 158 157
f 157 158 159
f 158 160 159
f 159 160 161
f 160 162 161
f 161 162 163
f 162 164 163
f 163 164 165
f 164 166 165
f 165 166 167
f 166 168 167
f 167 168 169
f 168 170 169
f 169 170 171
f 170 172 171
f 171 172 173
f 172 174 173
f 173 174 175
f 174 176 175
f 175 176 177
f 176 178 177
f 177 178 179
f 178 180 179
f 179 180 181
f 180 182 181
f 181 182 183
f 182 184 183
f 183 184 185
f 184 186 185
f 185 186 187
f 186 188 187
f 187 188 189
f 188 190 189
f 189 190 191
f 190 192 191
f 191 192 193
f 192 194 193
f 193 194 195
f 194 196 195
f 195 196 197
f 196 198 197
f 197 198 199
f 198 200 199
f 199 200 201
f 200 202 201
f 201 202 203
f 202 204 203
f 203 204 205
f 204 206 205
f 205 206 207
f 206 208 207
f 207 208 209
f 208 210 209
f 209 210 211
f 210 212 211
f 211 212 213
f 212 214 213
f 213 214 215
f 214 216 215
f 215 216 217
f 216 218 217
f 217 218 219
f 218 220 219
f 219 220 221
f 220 222 221
f 221 222 223
f 222 224 223
f 223 224 225
f 224 226 225
f 225 226 227
f 226 228 227
f 227 228 229
f 228 230 229
f 229 230 231
f 230 232 231
f 231 232 233
f 232 234 233
f 233 234 235
f 234 236 235
f 235 236 237
f 236 238 237
f 237 238 239
f 238 240 239
f 239 240 241
f 240 242 241
f 241 242 243
f 242 244 243
f 243 244 245
f 244 246 245
f 245 246 247
f 246 248 247
f 247 248 249
f 248 250 249
f 249 250 251
f 250 252 251
f 251 252 253
f 252 254 253
f 253 254 255
f 254 256 255
f 255 256 257
f 256 258 257
f 257 258 259
f 258 260 259
f 259 260 261
f 260 262 261
f 261 262 263
f 262 264 263
f 263 264 265
f 264 266 265
f 265 266 267
f 266 268 267
f 267 268 269
f 268 270 269
f 269 270 271
f 270 272 271
f 271 272 273
f 272 274 273
f 273 274 275
f 274 276 275
f 275 276 277
f 276 278 277
f 277 278 279
f 278 280 279
f 279 280 281
f 280 282 281
f 281 282 283
f 282 284 283
f 283 284 285
f 284 286 285
f 285 286 287
f 286 288 287
f 287 288 145
f 288 146 145
f 289 279 290
f 279 281 290
f 290 281 291
f 281 283 291
f 291 283 292
f 283 285 292
f 292 285 293
f 285 287 293
f 293 287 294
f 287 145 294
f 294 145 295
f 145 147 295
f 295 147 296
f 147 149 296
f 296 149 297
f 149 151 297
f 297 151 298
f 151 153 298
f 298 153 299
f 153 155 299
f 299 155 300
f 155 157 300
f 300 157 301
f 157 159 301
f 301 159 302
f 159 161 302
f 302 161 303
f 161 163 303
f 303 163 304
f 163 165 304
f 304 165 305
f 165 167 305
f 305 167 306
f 167 169 306
f 306 169 307
f 169 171 307
f 307 171 308
f 171 173 308
f 308 173 309
f 173 175 309
f 309 175 310
f 175 177 310
f 310 177 311
f 177 179 311
f 311 179 312
f 179 181 312
f 312 181 313
f 181 183 313
f 313 183 314
f 183 185 314
f 314 185 315
f 185 187 315
f 315 187 316
f 187 189 316
f 316 189 317
f 189 191 317
f 317 191 318
f 191 193 318
f 318 193 319
f 193 195 319
f 319 195 320
f 195 197 320
f 320 197 321
f 197 199 321
f 321 199 322
f 199 201 322
f 322 201 323
f 201 203 323
f 323 203 324
f 203 205 324
f 324 205 325
f 205 207 325
f 325 207 326
f 207 209 326
f 326 209 327
f 209 211 327
f 327 211 328
f 211 213 328
f 328 213 329
f 213 215 329
f 329 215 330
f 215 217 330
f 330 217 331
f 217 219 331
f 331 219 332
f 219 221 332
f 332 221 333
f 221 223 333
f 333 223 334
f 223 225 334
f 334 225 335
f 225 227 335
f 335 227 336
f 227 229 336
f 336 229 337
f 229 231 337
f 337 231 338
f 231 233 338
f 338 233 339
f 233 235 339
f 339 235 340
f 235 237 340
f 340 237 341
f 237 239 341
f 341 239 342
f 239 241 342
f 342 241 343
f 241 243 343
f 343 243 344
f 243 245 344
f 344 245 345
f 245 247 345
f 345 247 346
f 247 249 346
f 346 249 347
f 249 251 347
f 347 251 348
f 251 253 348
f 348 253 349
f 253 255 349
f 349 255 350
f 255 257 350
f 350 257 351
f 257 259 351
f 351 259 352
f 259 261 352
f 352 261 353
f 261 263 353
f 353 263 354
f 263 265 354
f 354 265 355
f 265 267 355
f 355 267 356
f 267 269 356
f 356 269 357
f 269 271 357
f 357 271 358
f 271 273 358
f 358 273 359
f 273 275 359
f 359 275 360
f 275 277 360
f 360 277 289
f 277 279 289
f 280 361 282
f 361 362 282
f 282 362 284
f 362 363 284
f 284 363 286
f 363 364 286
f 286 364 288
f 364 365 288
f 288 365 146
f 365 366 146
f 146 366 148
f 366 367 148
f 148 367 150
f 367 368 150
f 150 368 152
f 368 369 152
f 152 369 154
f 369 370 154
f 154 370 156
f 370 371 156
f 156 371 158
f 371 372 158
f 158 372 160
f 372 373 160
f 160 373 162
f 373 374 162
f 162 374 164
f 374 375 164
f 164 375 166
f 375 376 166
f 166 376 168
f 376 377 168
f 168 377 170
f 377 378 170
f 170 378 172
f 378 379 172
f 172 379 174
f 379 380 174
f 174 380 176
f 380 381 176
f 176 381 178
f 381 382 178
f 178 382 180
f 382 383 180
f 180 383 182
f 383 384 182
f 182 384 184
f 384 385 184
f 184 385 186
f 385 386 186
f 186 386 188
f 386 387 188
f 188 387 190
f 387 388 190
f 190 388 192
f 388 389 192
f 192 389 194
f 389 390 194
f 194 390 196
f 390 391 196
f 196 391 198
f 391 392 198
f 198 392 200
f 392 393 200
f 200 393 202
f 393 394 202
f 202 394 204
f 394 395 204
f 204 395 206
f 395 396 206
f 206 396 208
f 396 397 208
f 208 397 210
f 397 398 210
f 210 398 212
f 398 399 212
f 212 399 214
f 399 400 214
f 214 400 216
f 400 401 216
f 216 401 218
f 401 402 218
f 218 402 220
f 402 403 220
f 220 403 222
f 403 404 222
f 222 404 224
f 404 405 224
f 224 405 226
f 405 406 226
f 226 406 228
f 406 407 228
f 228 407 230
f 407 408 230
f 230 408 232
f 408 409 232
f 232 409 234
f 409 410 234
f 234 410 236
f 410 411 236
f 236 411 238
f 411 412 238
f 238 412 240
f 412 413 240
f 240 413 242
f 413 414 242
f 242 414 244
f 414 415 244
f 244 415 246
f 415 416 246
f 246 416 248
f 416 417 248
f 248 417 250
f 417 418 250
f 250 418 252
f 418 419 252
f 252 419 254
f 419 420 254
f 254 420 256
f 420 421 256
f 256 421 258
f 421 422 258
f 258 422 260
f 422 423 260
f 260 423 262
f 423 424 262
f 262 424 264
f 424 425 264
f 264 425 266
f 425 426 266
f 266 426 268
f 426 427 268
f 268 427 270
f 427 428 270
f 270 428 272
f 428 429 272
f 272 429 274
f 429 430 274
f 274 430 276
f 430 431 276
f 276 431 278
f 431 432 278
f 278 432 280
f 432 361 280
f 432 142 361
f 142 140 361
f 361 140 362
f 140 138 362
f 362 138 363
f 138 136 363
f 363 136 364
f 136 134 364
f 364 134 365
f 134 132 365
f 365 132 366
f 132 130 366
f 366 130 367
f 130 128 367
f 367 128 368
f 128 126 368
f 368 126 369
f 126 124 369
f 369 124 370
f 124 122 370
f 370 122 371
f 122 120 371
f 371 120 372
f 120 118 372
f 372 118 373
f 118 116 373
f 373 116 374
f 116 114 374
f 374 114 375
f 114 112 375
f 375 112 376
f 112 110 376
f 376 110 377
f 110 108 377
f 377 108 378
f 108 106 378
f 378 106 379
f 106 104 379
f 379 104 380
f 104 102 380
f 380 102 381
f 102 100 381
f 381 100 382
f 100 98 382
f 382 98 383
f 98 96 383
f 383 96 384
f 96 94 384
f 384 94 385
f 94 92 385
f 385 92 386
f 92 90 386
f 386 90 387
f 90 88 387
f 387 88 388
f 88 86 388
f 388 86 389
f 86 84 389
f 389 84 390
f 84 82 390
f 390 82 391
f 82 80 391
f 391 80 392
f 80 78 392
f 392 78 393
f 78 76 393
f 393 76 394
f 76 74 394
f 394 74 395
f 74 72 395
f 395 72 396
f 72 70 396
f 396 70 397
f 70 68 397
f 397 68 398
f 68 66 398
f 398 66 399
f 66 64 399
f 399 64 400
f 64 62 400
f 400 62 401
f 62 60 401
f 401 60 402
f 60 58 402
f 402 58 403
f 58 56 403
f 403 56 404
f 56 54 404
f 404 54 405
f 54 52 405
f 405 52 406
f 52 50 406
f 406 50 407
f 50 48 407
f 407 48 408
f 48 46 408
f 408 46 409
f 46 44 409
f 409 44 410
f 44 42 410
f 410 42 411
f 42 40 411
f 411 40 412
f 40 38 412
f 412 38 413
f 38 36 413
f 413 36 414
f 36 34 414
f 414 34 415
f 34 32 415
f 415 32 416
f 32 30 416
f 416 30 417
f 30 28 417
f 417 28 418
f 28 26 418
f 418 26 419
f 26 24 419
f 419 24 420
f 24 22 420
f 420 22 421
f 22 20 421
f 421 20 422
f 20 18 422
f 422 18 423
f 18 16 423
f 423 16 424
f 16 14 424
f 424 14 425
f 14 12 425
f 425 12 426
f 12 10 426
f 426 10 427
f 10 8 427
f 427 8 428
f 8 6 428
f 428 6 429
f 6 4 429
f 429 4 430
f 4 2 430
f 430 2 431
f 2 144 431
f 431 144 432
f 144 142 432
f 303 433 302
f 433 434 302
f 302 434 301
f 434 435 301
f 301 435 300
f 435 436 300
f 300 436 299
f 436 437 299
f 299 437 298
f 437 438 298
f 298 438 297
f 438 439 297
f 297 439 296
f 439 440 296
f 296 440 295
f 440 441 295
f 295 441 294
f 441 442 294
f 294 442 293
f 442 443 293
f 293 443 292
f 443 444 292
f 292 444 291
f 444 445 291
f 291 445 290
f 445 446 290
f 290 446 289
f 446 447 289
f 289 447 360
f 447 448 360
f 360 448 359
f 448 449 359
f 359 449 358
f 449 450 358
f 358 450 357
f 450 451 357
f 357 451 356
f 451 452 356
f 356 452 355
f 452 453 355
f 355 453 354
f 453 454 354
f 354 454 353
f 454 455 353
f 353 455 352
f 455 456 352
f 352 456 351
f 456 457 351
f 351 457 350
f 457 458 350
f 350 458 349
f 458 459 349
f 349 459 348
f 459 460 348
f 348 460 347
f 460 461 347
f 347 461 346
f 461 462 346
f 346 462 345
f 462 463 345
f 345 463 344
f 463 464 344
f 344 464 343
f 464 465 343
f 343 465 342
f 465 466 342
f 342 466 341
f 466 467 341
f 341 467 340
f 467 468 340
f 340 468 339
f 468 469 339
f 339 469 338
f 469 470 338
f 338 470 337
f 470 471 337
f 337 471 336
f 471 472 336
f 336 472 335
f 472 473 335
f 335 473 334
f 473 474 334
f 334 474 333
f 474 475 333
f 333 475 332
f 475 476 332
f 332 476 331
f 476 477 331
f 331 477 330
f 477 478 330
f 330 478 329
f 478 479 329
f 329 479 328
f 479 480 328
f 328 480 327
f 480 481 327
f 327 481 326
f 481 482 326
f 326 482 325
f 482 483 325
f 325 483 324
f 483 484 324
f 324 484 323
f 484 485 323
f 323 485 322
f 485 486 322
f 322 486 321
f 486 487 321
f 321 487 320
f 487 488 320
f 320 488 319
f 488 489 319
f 319 489 318
f 489 490 318
f 318 490 317
f 490 491 317
f 317 491 316
f 491 492 316
f 316 492 315
f 492 493 315
f 315 493 314
f 493 494 314
f 314 494 313
f 494 495 313
f 313 495 312
f 495 496 312
f 312 496 311
f 496 497 311
f 311 497 310
f 497 498 310
f 310 498 309
f 498 499 309
f 309 499 308
f 499 500 308
f 308 500 307
f 500 501 307
f 307 501 306
f 501 502 306
f 306 502 305
f 502 503 305
f 305 503 304
f 503 504 304
f 304 504 303
f 504 433 303
f 1 446 143
f 446 445 143
f 143 445 141
f 445 444 141
f 141 444 139
f 444 443 139
f 139 443 137
f 443 442 137
f 137 442 135
f 442 441 135
f 135 441 133
f 441 440 133
f 133 440 131
f 440 439 131
f 131 439 129
f 439 438 129
f 129 438 127
f 438 437 127
f 127 437 125
f 437 436 125
f 125 436 123
f 436 435 123
f 123 435 121
f 435 434 121
f 121 434 119
f 434 433 119
f 119 433 117
f 433 504 117
f 117 504 115
f 504 503 115
f 115 503 113
f 503 502 113
f 113 502 111
f 502 501 111
f 111 501 109
f 501 500 109
f 109 500 107
f 500 499 107
f 107 499 105
f 499 498 105
f 105 498 103
f 498 497 103
f 103 497 101
f 497 496 101
f 101 496 99
f 496 495 99
f 99 495 97
f 495 494 97
f 97 494 95
f 494 493 95
f 95 493 93
f 493 492 93
f 93 492 91
f 492 491 91
f 91 491 89
f 491 490 89
f 89 490 87
f 490 489 87
f 87 489 85
f 489 488 85
f 85 488 83
f 488 487 83
f 83 487 81
f 487 486 81
f 81 486 79
f 486 485 79
f 79 485 77
f 485 484 77
f 77 484 75
f 484 483 75
f 75 483 73
f 483 482 73
f 73 482 71
f 482 481 71
f 71 481 69
f 481 480 69
f 69 480 67
f 480 479 67
f 67 479 65
f 479 478 65
f 65 478 63
f 478 477 63
f 63 477 61
f 477 476 61
f 61 476 59
f 476 475 59
f 59 475 57
f 475 474 57
f 57 474 55
f 474 473 55
f 55 473 53
f 473 472 53
f 53 472 51
f 472 471 51
f 51 471 49
f 471 470 49
f 49 470 47
f 470 469 47
f 47 469 45
f 469 468 45
f 45 468 43
f 468 467 43
f 43 467 41
f 467 466 41
f 41 466 39
f 466 465 39
f 39 465 37
f 465 464 37
f 37 464 35
f 464 463 35
f 35 463 33
f 463 462 33
f 33 462 31
f 462 461 31
f 31 461 29
f 461 460 29
f 29 460 27
f 460 459 27
f 27 459 25
f 459 458 25
f 25 458 23
f 458 457 23
f 23 457 21
f 457 456 21
f 21 456 19
f 456 455 19
f 19 455 17
f 455 454 17
f 17 454 15
f 454 453 15
f 15 453 13
f 453 452 13
f 13 452 11
f 452 451 11
f 11 451 9
f 451 450 9
f 9 450 7
f 450 449 7
f 7 449 5
f 449 448 5
f 5 448 3
f 448 447 3
f 3 447 1
f 447 446 1

