# https://github.com/mikedh/trimesh
v 0.12500000 0.02238535 -0.00800000
v 0.12500000 0.02538535 -0.00800000
v 0.12695101 0.02230017 -0.00800000
v 0.12721248 0.02528875 -0.00800000
v 0.12888718 0.02204527 -0.00800000
v 0.12940812 0.02499969 -0.00800000
v 0.13079375 0.02162259 -0.00800000
v 0.13157021 0.02452037 -0.00800000
v 0.13265625 0.02103535 -0.00800000
v 0.13368230 0.02385443 -0.00800000
v 0.13446046 0.02028802 -0.00800000
v 0.13572831 0.02300694 -0.00800000
v 0.13619268 0.01938628 -0.00800000
v 0.13769267 0.02198436 -0.00800000
v 0.13783970 0.01833701 -0.00800000
v 0.13956045 0.02079446 -0.00800000
v 0.13938902 0.01714817 -0.00800000
v 0.14131738 0.01944631 -0.00800000
v 0.14082883 0.01582883 -0.00800000
v 0.14295015 0.01795015 -0.00800000
v 0.14214817 0.01438903 -0.00800000
v 0.14444631 0.01631739 -0.00800000
v 0.14333701 0.01283971 -0.00800000
v 0.14579447 0.01456044 -0.00800000
v 0.14438628 0.01119267 -0.00800000
v 0.14698435 0.01269267 -0.00800000
v 0.14528802 0.00946046 -0.00800000
v 0.14800695 0.01072831 -0.00800000
v 0.14603534 0.00765624 -0.00800000
v 0.14885442 0.00868230 -0.00800000
v 0.14662258 0.00579375 -0.00800000
v 0.14952037 0.00657021 -0.00800000
v 0.14704527 0.00388718 -0.00800000
v 0.14999969 0.00440812 -0.00800000
v 0.14730017 0.00195101 -0.00800000
v 0.15028875 0.00221248 -0.00800000
v 0.14738534 -0.00000000 -0.00800000
v 0.15038535 -0.00000000 -0.00800000
v 0.14730017 -0.00195101 -0.00800000
v 0.15028875 -0.00221248 -0.00800000
v 0.14704527 -0.00388718 -0.00800000
v 0.14999969 -0.00440812 -0.00800000
v 0.14662258 -0.00579375 -0.00800000
v 0.14952037 -0.00657021 -0.00800000
v 0.14603534 -0.00765624 -0.00800000
v 0.14885442 -0.00868230 -0.00800000
v 0.14528802 -0.00946046 -0.00800000
v 0.14800695 -0.01072831 -0.00800000
v 0.14438628 -0.01119267 -0.00800000
v 0.14698435 -0.01269267 -0.00800000
v 0.14333701 -0.01283971 -0.00800000
v 0.14579447 -0.01456044 -0.00800000
v 0.14214817 -0.01438903 -0.00800000
v 0.14444631 -0.01631739 -0.00800000
v 0.14082883 -0.01582883 -0.00800000
v 0.14295015 -0.01795015 -0.00800000
v 0.13938902 -0.01714817 -0.00800000
v 0.14131738 -0.01944631 -0.00800000
v 0.13783970 -0.01833701 -0.00800000
v 0.13956045 -0.02079446 -0.00800000
v 0.13619268 -0.01938628 -0.00800000
v 0.13769267 -0.02198436 -0.00800000
v 0.13446046 -0.02028802 -0.00800000
v 0.13572831 -0.02300694 -0.00800000
v 0.13265625 -0.02103535 -0.00800000
v 0.13368230 -0.02385443 -0.00800000
v 0.13079375 -0.02162259 -0.00800000
v 0.13157021 -0.02452037 -0.00800000
v 0.12888718 -0.02204527 -0.00800000
v 0.12940812 -0.02499969 -0.00800000
v 0.12695101 -0.02230017 -0.00800000
v 0.12721248 -0.02528875 -0.00800000
v 0.12500000 -0.02238535 -0.00800000
v 0.12500000 -0.02538535 -0.00800000
v 0.00000000 -0.02238535 -0.00800000
v -0.00000000 -0.02538535 -0.00800000
v -0.00195101 -0.02230017 -0.00800000
v -0.00221248 -0.02528875 -0.00800000
v -0.00388718 -0.02204527 -0.00800000
v -0.00440812 -0.02499969 -0.00800000
v -0.00579375 -0.02162259 -0.00800000
v -0.00657021 -0.02452037 -0.00800000
v -0.00765624 -0.02103535 -0.00800000
v -0.00868230 -0.02385443 -0.00800000
v -0.00946046 -0.02028802 -0.00800000
v -0.01072831 -0.02300694 -0.00800000
v -0.01119267 -0.01938628 -0.00800000
v -0.01269267 -0.02198436 -0.00800000
v -0.01283971 -0.01833701 -0.00800000
v -0.01456044 -0.02079446 -0.00800000
v -0.01438903 -0.01714817 -0.00800000
v -0.01631739 -0.01944631 -0.00800000
v -0.01582883 -0.01582883 -0.00800000
v -0.01795015 -0.01795015 -0.00800000
v -0.01714817 -0.01438903 -0.00800000
v -0.01944631 -0.01631739 -0.00800000
v -0.01833701 -0.01283971 -0.00800000
v -0.02079446 -0.01456044 -0.00800000
v -0.01938628 -0.01119267 -0.00800000
v -0.02198436 -0.01269267 -0.00800000
v -0.02028802 -0.00946046 -0.00800000
v -0.02300694 -0.01072831 -0.00800000
v -0.02103535 -0.00765624 -0.00800000
v -0.02385443 -0.00868230 -0.00800000
v -0.02162259 -0.00579375 -0.00800000
v -0.02452037 -0.00657021 -0.00800000
v -0.02204527 -0.00388718 -0.00800000
v -0.02499969 -0.00440812 -0.00800000
v -0.02230017 -0.00195101 -0.00800000
v -0.02528875 -0.00221248 -0.00800000
v -0.02238535 0.00000000 -0.00800000
v -0.02538535 0.00000000 -0.00800000
v -0.02230017 0.00195101 -0.00800000
v -0.02528875 0.00221248 -0.00800000
v -0.02204527 0.00388718 -0.00800000
v -0.02499969 0.00440812 -0.00800000
v -0.02162259 0.00579375 -0.00800000
v -0.02452037 0.00657021 -0.00800000
v -0.02103535 0.00765624 -0.00800000
v -0.02385443 0.00868230 -0.00800000
v -0.02028802 0.00946046 -0.00800000
v -0.02300694 0.01072831 -0.00800000
v -0.01938628 0.01119267 -0.00800000
v -0.02198436 0.01269267 -0.00800000
v -0.01833701 0.01283971 -0.00800000
v -0.02079446 0.01456044 -0.00800000
v -0.01714817 0.01438903 -0.00800000
v -0.01944631 0.01631739 -0.00800000
v -0.01582883 0.01582883 -0.00800000
v -0.01795015 0.01795015 -0.00800000
v -0.01438903 0.01714817 -0.00800000
v -0.01631739 0.01944631 -0.00800000
v -0.01283971 0.01833701 -0.00800000
v -0.01456044 0.02079446 -0.00800000
v -0.01119267 0.01938628 -0.00800000
v -0.01269267 0.02198436 -0.00800000
v -0.00946046 0.02028802 -0.00800000
v -0.01072831 0.02300694 -0.00800000
v -0.00765624 0.02103535 -0.00800000
v -0.00868230 0.02385443 -0.00800000
v -0.00579375 0.02162259 -0.00800000
v -0.00657021 0.02452037 -0.00800000
v -0.00388718 0.02204527 -0.00800000
v -0.00440812 0.02499969 -0.00800000
v -0.00195101 0.02230017 -0.00800000
v -0.00221248 0.02528875 -0.00800000
v 0.00000000 0.02238535 -0.00800000
v 0.00000000 0.02538535 -0.00800000
v 0.12500000 -0.02238535 0.00800000
v 0.12695101 -0.02230017 0.00800000
v 0.12888718 -0.02204527 0.00800000
v 0.13079375 -0.02162259 0.00800000
v 0.13265625 -0.02103535 0.00800000
v 0.13446046 -0.02028802 0.00800000
v 0.13619268 -0.01938628 0.00800000
v 0.13783970 -0.01833701 0.00800000
v 0.13938902 -0.01714817 0.00800000
v 0.14082883 -0.01582883 0.00800000
v 0.14214817 -0.01438903 0.00800000
v 0.14333701 -0.01283971 0.00800000
v 0.14438628 -0.01119267 0.00800000
v 0.14528802 -0.00946046 0.00800000
v 0.14603534 -0.00765624 0.00800000
v 0.14662258 -0.00579375 0.00800000
v 0.14704527 -0.00388718 0.00800000
v 0.14730017 -0.00195101 0.00800000
v 0.14738534 -0.00000000 0.00800000
v 0.14730017 0.00195101 0.00800000
v 0.14704527 0.00388718 0.00800000
v 0.14662258 0.00579375 0.00800000
v 0.14603534 0.00765624 0.00800000
v 0.14528802 0.00946046 0.00800000
v 0.14438628 0.01119267 0.00800000
v 0.14333701 0.01283971 0.00800000
v 0.14214817 0.01438903 0.00800000
v 0.14082883 0.01582883 0.00800000
v 0.13938902 0.01714817 0.00800000
v 0.13783970 0.01833701 0.00800000
v 0.13619268 0.01938628 0.00800000
v 0.13446046 0.02028802 0.00800000
v 0.13265625 0.02103535 0.00800000
v 0.13079375 0.02162259 0.00800000
v 0.12888718 0.02204527 0.00800000
v 0.12695101 0.02230017 0.00800000
v 0.12500000 0.02238535 0.00800000
v 0.00000000 0.02238535 0.00800000
v -0.00195101 0.02230017 0.00800000
v -0.00388718 0.02204527 0.00800000
v -0.00579375 0.02162259 0.00800000
v -0.00765624 0.02103535 0.00800000
v -0.00946046 0.02028802 0.00800000
v -0.01119267 0.01938628 0.00800000
v -0.01283971 0.01833701 0.00800000
v -0.01438903 0.01714817 0.00800000
v -0.01582883 0.01582883 0.00800000
v -0.01714817 0.01438903 0.00800000
v -0.01833701 0.01283971 0.00800000
v -0.01938628 0.01119267 0.00800000
v -0.02028802 0.00946046 0.00800000
v -0.02103535 0.00765624 0.00800000
v -0.02162259 0.00579375 0.00800000
v -0.02204527 0.00388718 0.00800000
v -0.02230017 0.00195101 0.00800000
v -0.02238535 0.00000000 0.00800000
v -0.02230017 -0.00195101 0.00800000
v -0.02204527 -0.00388718 0.00800000
v -0.02162259 -0.00579375 0.00800000
v -0.02103535 -0.00765624 0.00800000
v -0.02028802 -0.00946046 0.00800000
v -0.01938628 -0.01119267 0.00800000
v -0.01833701 -0.01283971 0.00800000
v -0.01714817 -0.01438903 0.00800000
v -0.01582883 -0.01582883 0.00800000
v -0.01438903 -0.01714817 0.00800000
v -0.01283971 -0.01833701 0.00800000
v -0.01119267 -0.01938628 0.00800000
v -0.00946046 -0.02028802 0.00800000
v -0.00765624 -0.02103535 0.00800000
v -0.00579375 -0.02162259 0.00800000
v -0.00388718 -0.02204527 0.00800000
v -0.00195101 -0.02230017 0.00800000
v 0.00000000 -0.02238535 0.00800000
v -0.00000000 -0.02538535 0.00800000
v 0.12500000 -0.02538535 0.00800000
v 0.12500000 0.02538535 0.00800000
v 0.00000000 0.02538535 0.00800000
v -0.00221248 0.02528875 0.00800000
v -0.00440812 0.02499969 0.00800000
v -0.00657021 0.02452037 0.00800000
v -0.00868230 0.02385443 0.00800000
v -0.01072831 0.02300694 0.00800000
v -0.01269267 0.02198436 0.00800000
v -0.01456044 0.02079446 0.00800000
v -0.01631739 0.01944631 0.00800000
v -0.01795015 0.01795015 0.00800000
v -0.01944631 0.01631739 0.00800000
v -0.02079446 0.01456044 0.00800000
v -0.02198436 0.01269267 0.00800000
v -0.02300694 0.01072831 0.00800000
v -0.02385443 0.00868230 0.00800000
v -0.02452037 0.00657021 0.00800000
v -0.02499969 0.00440812 0.00800000
v -0.02528875 0.00221248 0.00800000
v -0.02538535 0.00000000 0.00800000
v -0.02528875 -0.00221248 0.00800000
v -0.02499969 -0.00440812 0.00800000
v -0.02452037 -0.00657021 0.00800000
v -0.02385443 -0.00868230 0.00800000
v -0.02300694 -0.01072831 0.00800000
v -0.02198436 -0.01269267 0.00800000
v -0.02079446 -0.01456044 0.00800000
v -0.01944631 -0.01631739 0.00800000
v -0.01795015 -0.01795015 0.00800000
v -0.01631739 -0.01944631 0.00800000
v -0.01456044 -0.02079446 0.00800000
v -0.01269267 -0.02198436 0.00800000
v -0.01072831 -0.02300694 0.00800000
v -0.00868230 -0.02385443 0.00800000
v -0.00657021 -0.02452037 0.00800000
v -0.00440812 -0.02499969 0.00800000
v -0.00221248 -0.02528875 0.00800000
v 0.12721248 -0.02528875 0.00800000
v 0.12940812 -0.02499969 0.00800000
v 0.13157021 -0.02452037 0.00800000
v 0.13368230 -0.02385443 0.00800000
v 0.13572831 -0.02300694 0.00800000
v 0.13769267 -0.02198436 0.00800000
v 0.13956045 -0.02079446 0.00800000
v 0.14131738 -0.01944631 0.00800000
v 0.14295015 -0.01795015 0.00800000
v 0.14444631 -0.01631739 0.00800000
v 0.14579447 -0.01456044 0.00800000
v 0.14698435 -0.01269267 0.00800000
v 0.14800695 -0.01072831 0.00800000
v 0.14885442 -0.00868230 0.00800000
v 0.14952037 -0.00657021 0.00800000
v 0.14999969 -0.00440812 0.00800000
v 0.15028875 -0.00221248 0.00800000
v 0.15038535 -0.00000000 0.00800000
v 0.15028875 0.00221248 0.00800000
v 0.14999969 0.00440812 0.00800000
v 0.14952037 0.00657021 0.00800000
v 0.14885442 0.00868230 0.00800000
v 0.14800695 0.01072831 0.00800000
v 0.14698435 0.01269267 0.00800000
v 0.14579447 0.01456044 0.00800000
v 0.14444631 0.01631739 0.00800000
v 0.14295015 0.01795015 0.00800000
v 0.14131738 0.01944631 0.00800000
v 0.13956045 0.02079446 0.00800000
v 0.13769267 0.02198436 0.00800000
v 0.13572831 0.02300694 0.00800000
v 0.13368230 0.02385443 0.00800000
v 0.13157021 0.02452037 0.00800000
v 0.12940812 0.02499969 0.00800000
v 0.12721248 0.02528875 0.00800000
f 1 2 3
f 2 4 3
f 3 4 5
f 4 6 5
f 5 6 7
f 6 8 7
f 7 8 9
f 8 10 9
f 9 10 11
f 10 12 11
f 11 12 13
f 12 14 13
f 13 14 15
f 14 16 15
f 15 16 17
f 16 18 17
f 17 18 19
f 18 20 19
f 19 20 21
f 20 22 21
f 21 22 23
f 22 24 23
f 23 24 25
f 24 26 25
f 25 26 27
f 26 28 27
f 27 28 29
f 28 30 29
f 29 30 31
f 30 32 31
f 31 32 33
f 32 34 33
f 33 34 35
f 34 36 35
f 35 36 37
f 36 38 37
f 37 38 39
f 38 40 39
f 39 40 41
f 40 42 41
f 41 42 43
f 42 44 43
f 43 44 45
f 44 46 45
f 45 46 47
f 46 48 47
f 47 48 49
f 48 50 49
f 49 50 51
f 50 52 51
f 51 52 53
f 52 54 53
f 53 54 55
f 54 56 55
f 55 56 57
f 56 58 57
f 57 58 59
f 58 60 59
f 59 60 61
f 60 62 61
f 61 62 63
f 62 64 63
f 63 64 65
f 64 66 65
f 65 66 67
f 66 68 67
f 67 68 69
f 68 70 69
f 69 70 71
f 70 72 71
f 71 72 73
f 72 74 73
f 73 74 75
f 74 76 75
f 75 76 77
f 76 78 77
f 77 78 79
f 78 80 79
f 79 80 81
f 80 82 81
f 81 82 83
f 82 84 83
f 83 84 85
f 84 86 85
f 85 86 87
f 86 88 87
f 87 88 89
f 88 90 89
f 89 90 91
f 90 92 91
f 91 92 93
f 92 94 93
f 93 94 95
f 94 96 95
f 95 96 97
f 96 98 97
f 97 98 99
f 98 100 99
f 99 100 101
f 100 102 101
f 101 102 103
f 102 104 103
f 103 104 105
f 104 106 105
f 105 106 107
f 106 108 107
f 107 108 109
f 108 110 109
f 109 110 111
f 110 112 111
f 111 112 113
f 112 114 113
f 113 114 115
f 114 116 115
f 115 116 117
f 116 118 117
f 117 118 119
f 118 120 119
f 119 120 121
f 120 122 121
f 121 122 123
f 122 124 123
f 123 124 125
f 124 126 125
f 125 126 127
f 126 128 127
f 127 128 129
f 128 130 129
f 129 130 131
f 130 132 131
f 131 132 133
f 132 134 133
f 133 134 135
f 134 136 135
f 135 136 137
f 136 138 137
f 137 138 139
f 138 140 139
f 139 140 141
f 140 142 141
f 141 142 143
f 142 144 143
f 143 144 145
f 144 146 145
f 145 146 147
f 146 148 147
f 147 148 1
f 148 2 1
f 73 149 71
f 149 150 71
f 71 150 69
f 150 151 69
f 69 151 67
f 151 152 67
f 67 152 65
f 152 153 65
f 65 153 63
f 153 154 63
f 63 154 61
f 154 155 61
f 61 155 59
f 155 156 59
f 59 156 57
f 156 157 57
f 57 157 55
f 157 158 55
f 55 158 53
f 158 159 53
f 53 159 51
f 159 160 51
f 51 160 49
f 160 161 49
f 49 161 47
f 161 162 47
f 47 162 45
f 162 163 45
f 45 163 43
f 163 164 43
f 43 164 41
f 164 165 41
f 41 165 39
f 165 166 39
f 39 166 37
f 166 167 37
f 37 167 35
f 167 168 35
f 35 168 33
f 168 169 33
f 33 169 31
f 169 170 31
f 31 170 29
f 170 171 29
f 29 171 27
f 171 172 27
f 27 172 25
f 172 173 25
f 25 173 23
f 173 174 23
f 23 174 21
f 174 175 21
f 21 175 19
f 175 176 19
f 19 176 17
f 176 177 17
f 17 177 15
f 177 178 15
f 15 178 13
f 178 179 13
f 13 179 11
f 179 180 11
f 11 180 9
f 180 181 9
f 9 181 7
f 181 182 7
f 7 182 5
f 182 183 5
f 5 183 3
f 183 184 3
f 3 184 1
f 184 185 1
f 186 147 185
f 147 1 185
f 147 186 145
f 186 187 145
f 145 187 143
f 187 188 143
f 143 188 141
f 188 189 141
f 141 189 139
f 189 190 139
f 139 190 137
f 190 191 137
f 137 191 135
f 191 192 135
f 135 192 133
f 192 193 133
f 133 193 131
f 193 194 131
f 131 194 129
f 194 195 129
f 129 195 127
f 195 196 127
f 127 196 125
f 196 197 125
f 125 197 123
f 197 198 123
f 123 198 121
f 198 199 121
f 121 199 119
f 199 200 119
f 119 200 117
f 200 201 117
f 117 201 115
f 201 202 115
f 115 202 113
f 202 203 113
f 113 203 111
f 203 204 111
f 111 204 109
f 204 205 109
f 109 205 107
f 205 206 107
f 107 206 105
f 206 207 105
f 105 207 103
f 207 208 103
f 103 208 101
f 208 209 101
f 101 209 99
f 209 210 99
f 99 210 97
f 210 211 97
f 97 211 95
f 211 212 95
f 95 212 93
f 212 213 93
f 93 213 91
f 213 214 91
f 91 214 89
f 214 215 89
f 89 215 87
f 215 216 87
f 87 216 85
f 216 217 85
f 85 217 83
f 217 218 83
f 83 218 81
f 218 219 81
f 81 219 79
f 219 220 79
f 79 220 77
f 220 221 77
f 77 221 75
f 221 222 75
f 223 76 224
f 76 74 224
f 185 225 186
f 225 226 186
f 186 226 187
f 226 227 187
f 187 227 188
f 227 228 188
f 188 228 189
f 228 229 189
f 189 229 190
f 229 230 190
f 190 230 191
f 230 231 191
f 191 231 192
f 231 232 192
f 192 232 193
f 232 233 193
f 193 233 194
f 233 234 194
f 194 234 195
f 234 235 195
f 195 235 196
f 235 236 196
f 196 236 197
f 236 237 197
f 197 237 198
f 237 238 198
f 198 238 199
f 238 239 199
f 199 239 200
f 239 240 200
f 200 240 201
f 240 241 201
f 201 241 202
f 241 242 202
f 202 242 203
f 242 243 203
f 203 243 204
f 243 244 204
f 204 244 205
f 244 245 205
f 205 245 206
f 245 246 206
f 206 246 207
f 246 247 207
f 207 247 208
f 247 248 208
f 208 248 209
f 248 249 209
f 209 249 210
f 249 250 210
f 210 250 211
f 250 251 211
f 211 251 212
f 251 252 212
f 212 252 213
f 252 253 213
f 213 253 214
f 253 254 214
f 214 254 215
f 254 255 215
f 215 255 216
f 255 256 216
f 216 256 217
f 256 257 217
f 217 257 218
f 257 258 218
f 218 258 219
f 258 259 219
f 219 259 220
f 259 260 220
f 220 260 221
f 260 261 221
f 221 261 222
f 261 223 222
f 222 223 149
f 223 224 149
f 149 224 150
f 224 262 150
f 150 262 151
f 262 263 151
f 151 263 152
f 263 264 152
f 152 264 153
f 264 265 153
f 153 265 154
f 265 266 154
f 154 266 155
f 266 267 155
f 155 267 156
f 267 268 156
f 156 268 157
f 268 269 157
f 157 269 158
f 269 270 158
f 158 270 159
f 270 271 159
f 159 271 160
f 271 272 160
f 160 272 161
f 272 273 161
f 161 273 162
f 273 274 162
f 162 274 163
f 274 275 163
f 163 275 164
f 275 276 164
f 164 276 165
f 276 277 165
f 165 277 166
f 277 278 166
f 166 278 167
f 278 279 167
f 167 279 168
f 279 280 168
f 168 280 169
f 280 281 169
f 169 281 170
f 281 282 170
f 170 282 171
f 282 283 171
f 171 283 172
f 283 284 172
f 172 284 173
f 284 285 173
f 173 285 174
f 285 286 174
f 174 286 175
f 286 287 175
f 175 287 176
f 287 288 176
f 176 288 177
f 288 289 177
f 177 289 178
f 289 290 178
f 178 290 179
f 290 291 179
f 179 291 180
f 291 292 180
f 180 292 181
f 292 293 181
f 181 293 182
f 293 294 182
f 182 294 183
f 294 295 183
f 183 295 184
f 295 296 184
f 184 296 185
f 296 225 185
f 2 225 296
f 2 296 4
f 296 295 4
f 4 295 6
f 295 294 6
f 6 294 8
f 294 293 8
f 8 293 10
f 293 292 10
f 10 292 12
f 292 291 12
f 12 291 14
f 291 290 14
f 14 290 16
f 290 289 16
f 16 289 18
f 289 288 18
f 18 288 20
f 288 287 20
f 20 287 22
f 287 286 22
f 22 286 24
f 286 285 24
f 24 285 26
f 285 284 26
f 26 284 28
f 284 283 28
f 28 283 30
f 283 282 30
f 30 282 32
f 282 281 32
f 32 281 34
f 281 280 34
f 34 280 36
f 280 279 36
f 36 279 38
f 279 278 38
f 38 278 40
f 278 277 40
f 40 277 42
f 277 276 42
f 42 276 44
f 276 275 44
f 44 275 46
f 275 274 46
f 46 274 48
f 274 273 48
f 48 273 50
f 273 272 50
f 50 272 52
f 272 271 52
f 52 271 54
f 271 270 54
f 54 270 56
f 270 269 56
f 56 269 58
f 269 268 58
f 58 268 60
f 268 267 60
f 60 267 62
f 267 266 62
f 62 266 64
f 266 265 64
f 64 265 66
f 265 264 66
f 66 264 68
f 264 263 68
f 68 263 70
f 263 262 70
f 70 262 72
f 262 224 72
f 72 224 74
f 225 2 226
f 2 148 226
f 76 223 261
f 76 261 78
f 261 260 78
f 78 260 80
f 260 259 80
f 80 259 82
f 259 258 82
f 82 258 84
f 258 257 84
f 84 257 86
f 257 256 86
f 86 256 88
f 256 255 88
f 88 255 90
f 255 254 90
f 90 254 92
f 254 253 92
f 92 253 94
f 253 252 94
f 94 252 96
f 252 251 96
f 96 251 98
f 251 250 98
f 98 250 100
f 250 249 100
f 100 249 102
f 249 248 102
f 102 248 104
f 248 247 104
f 104 247 106
f 247 246 106
f 106 246 108
f 246 245 108
f 108 245 110
f 245 244 110
f 110 244 112
f 244 243 112
f 112 243 114
f 243 242 114
f 114 242 116
f 242 241 116
f 116 241 118
f 241 240 118
f 118 240 120
f 240 239 120
f 120 239 122
f 239 238 122
f 122 238 124
f 238 237 124
f 124 237 126
f 237 236 126
f 126 236 128
f 236 235 128
f 128 235 130
f 235 234 130
f 130 234 132
f 234 233 132
f 132 233 134
f 233 232 134
f 134 232 136
f 232 231 136
f 136 231 138
f 231 230 138
f 138 230 140
f 230 229 140
f 140 229 142
f 229 228 142
f 142 228 144
f 228 227 144
f 144 227 146
f 227 226 146
f 146 226 148
f 149 73 222
f 73 75 222

