# https://github.com/mikedh/trimesh
v -0.00153209 0.00475949 0.00171442
v -0.00153209 0.01693082 0.00171442
v -0.00163830 0.01692087 0.00185285
v 0.00153209 0.00475949 0.00428558
v 0.00153209 0.01693082 0.00428558
v 0.00163830 0.01692087 0.00414715
v -0.00200000 0.00458258 0.00300000
v -0.00200000 0.01688194 0.00300000
v -0.00199808 0.00458341 0.00308752
v -0.00199809 0.01688217 0.00308737
v -0.00199239 0.00458589 0.00317431
v -0.00199239 0.01688284 0.00317431
v -0.00198288 0.00459001 0.00326116
v -0.00198289 0.01688396 0.00326102
v -0.00196962 0.00459572 0.00334730
v -0.00196962 0.01688552 0.00334730
v -0.00195260 0.00460297 0.00343282
v -0.00195259 0.01688749 0.00343288
v -0.00193185 0.00461172 0.00351764
v -0.00193185 0.01688988 0.00351764
v -0.00190746 0.00462186 0.00360132
v -0.00190738 0.01689266 0.00360158
v -0.00187939 0.00463335 0.00368404
v -0.00187939 0.01689580 0.00368404
v -0.00184766 0.00464609 0.00376560
v -0.00184776 0.01689928 0.00376538
v -0.00181262 0.00465987 0.00384524
v -0.00181262 0.01690309 0.00384524
v -0.00177399 0.00467472 0.00392356
v -0.00177409 0.01690718 0.00392336
v -0.00173203 0.00469042 0.00400003
v -0.00173205 0.01691153 0.00400000
v -0.00171010 0.00469846 0.00403709
v -0.00163830 0.01692087 0.00414715
v -0.00163830 0.00472398 0.00414715
v -0.00153209 0.01693082 0.00428558
v -0.00153209 0.00475949 0.00428558
v -0.00141421 0.00479583 0.00441421
v -0.00148301 0.01693519 0.00434189
v -0.00141421 0.01694107 0.00441421
v -0.00129439 0.00482955 0.00452465
v -0.00128558 0.00483190 0.00453209
v -0.00128558 0.01695132 0.00453209
v -0.00114715 0.01696125 0.00463830
v -0.00114715 0.00486663 0.00463830
v -0.00100000 0.01697056 0.00473205
v -0.00100000 0.00489898 0.00473205
v -0.00086824 0.00492404 0.00480171
v -0.00092354 0.01697490 0.00477400
v -0.00084524 0.00492804 0.00481262
v -0.00084524 0.01697898 0.00481262
v -0.00076551 0.00494105 0.00484770
v -0.00076557 0.01698275 0.00484768
v -0.00068404 0.00495299 0.00487939
v -0.00068404 0.01698623 0.00487939
v -0.00060172 0.00496366 0.00490734
v -0.00060119 0.01698937 0.00490750
v -0.00051764 0.00497313 0.00493185
v -0.00051764 0.01699212 0.00493185
v -0.00043578 0.00498097 0.00495195
v -0.00043279 0.01699449 0.00495261
v -0.00034730 0.00498792 0.00496962
v -0.00034730 0.01699645 0.00496962
v -0.00026108 0.00499318 0.00498289
v -0.00026113 0.01699799 0.00498288
v -0.00017431 0.00499696 0.00499239
v -0.00017431 0.01699911 0.00499239
v -0.00008744 0.00499924 0.00499809
v -0.00008748 0.01699978 0.00499809
v 0.00000000 0.00500000 0.00500000
v 0.00128558 0.01695132 0.00453209
v 0.00114715 0.00486663 0.00463830
v 0.00114715 0.01696125 0.00463830
v 0.00100000 0.00489898 0.00473205
v 0.00100000 0.01697056 0.00473205
v 0.00086824 0.00492404 0.00480171
v 0.00092336 0.01697491 0.00477410
v 0.00084526 0.00492804 0.00481261
v 0.00084524 0.01697898 0.00481262
v 0.00076560 0.00494104 0.00484766
v 0.00076537 0.01698276 0.00484776
v 0.00068404 0.00495299 0.00487939
v 0.00068404 0.01698623 0.00487939
v 0.00060131 0.00496371 0.00490747
v 0.00060158 0.01698935 0.00490738
v 0.00051764 0.00497313 0.00493185
v 0.00051764 0.01699212 0.00493185
v 0.00043578 0.00498097 0.00495195
v 0.00043288 0.01699449 0.00495259
v 0.00034730 0.00498792 0.00496962
v 0.00034730 0.01699645 0.00496962
v 0.00026115 0.00499318 0.00498288
v 0.00026102 0.01699800 0.00498289
v 0.00017431 0.00499696 0.00499239
v 0.00017431 0.01699911 0.00499239
v 0.00008751 0.00499923 0.00499808
v 0.00008737 0.01699978 0.00499809
v 0.00000000 0.01700000 0.00500000
v 0.00148301 0.01693519 0.00434189
v 0.00141421 0.00479583 0.00441421
v 0.00141421 0.01694107 0.00441421
v 0.00129439 0.00482955 0.00452465
v 0.00128558 0.00483190 0.00453209
v 0.00200000 0.01688194 0.00299999
v 0.00199809 0.00458341 0.00308737
v 0.00199809 0.01688217 0.00308748
v 0.00199239 0.00458589 0.00317431
v 0.00199239 0.01688284 0.00317431
v 0.00198288 0.00459001 0.00326109
v 0.00198288 0.01688396 0.00326113
v 0.00196962 0.00459572 0.00334730
v 0.00196962 0.01688552 0.00334730
v 0.00195262 0.00460296 0.00343276
v 0.00195261 0.01688749 0.00343279
v 0.00193185 0.00461172 0.00351764
v 0.00193185 0.01688988 0.00351764
v 0.00190733 0.00462191 0.00360173
v 0.00190750 0.01689264 0.00360119
v 0.00187939 0.00463335 0.00368404
v 0.00187939 0.01689580 0.00368404
v 0.00184770 0.00464607 0.00376551
v 0.00184767 0.01689929 0.00376557
v 0.00181262 0.00465987 0.00384524
v 0.00181262 0.01690309 0.00384524
v 0.00177403 0.00467470 0.00392347
v 0.00177400 0.01690719 0.00392354
v 0.00173205 0.00469042 0.00400000
v 0.00173205 0.01691153 0.00400000
v 0.00171117 0.00469807 0.00403532
v 0.00163830 0.00472398 0.00414715
v 0.00141421 0.00479583 0.00158579
v 0.00153209 0.00475949 0.00171442
v 0.00153209 0.01693082 0.00171442
v 0.00163830 0.00472398 0.00185285
v 0.00163830 0.01692087 0.00185285
v 0.00171010 0.00469846 0.00196291
v 0.00173205 0.01691153 0.00200000
v 0.00173203 0.00469042 0.00199997
v 0.00177409 0.01690718 0.00207664
v 0.00177399 0.00467472 0.00207644
v 0.00181262 0.01690309 0.00215476
v 0.00181262 0.00465987 0.00215476
v 0.00184776 0.01689928 0.00223462
v 0.00184766 0.00464609 0.00223440
v 0.00187939 0.01689580 0.00231596
v 0.00187939 0.00463335 0.00231596
v 0.00190738 0.01689266 0.00239842
v 0.00190746 0.00462186 0.00239868
v 0.00193185 0.01688988 0.00248236
v 0.00193185 0.00461172 0.00248236
v 0.00195259 0.01688749 0.00256712
v 0.00195260 0.00460297 0.00256718
v 0.00196962 0.01688552 0.00265270
v 0.00196962 0.00459572 0.00265270
v 0.00198289 0.01688396 0.00273898
v 0.00198288 0.00459001 0.00273884
v 0.00199239 0.01688284 0.00282569
v 0.00199239 0.00458589 0.00282569
v 0.00199809 0.01688217 0.00291262
v 0.00199808 0.00458341 0.00291241
v 0.00200000 0.00458258 0.00299985
v 0.00148301 0.01693519 0.00165811
v 0.00141421 0.01694107 0.00158579
v 0.00129439 0.00482955 0.00147535
v 0.00128558 0.00483190 0.00146791
v 0.00128558 0.01695132 0.00146791
v 0.00114715 0.01696125 0.00136170
v 0.00114715 0.00486663 0.00136170
v 0.00100000 0.01697056 0.00126795
v 0.00100000 0.00489898 0.00126795
v 0.00086824 0.00492404 0.00119829
v 0.00092354 0.01697490 0.00122600
v 0.00084524 0.00492804 0.00118738
v 0.00084524 0.01697898 0.00118738
v 0.00076551 0.00494105 0.00115230
v 0.00076557 0.01698275 0.00115232
v 0.00068404 0.00495299 0.00112061
v 0.00068404 0.01698623 0.00112061
v 0.00060172 0.00496366 0.00109266
v 0.00060119 0.01698937 0.00109250
v 0.00051764 0.00497313 0.00106815
v 0.00051764 0.01699212 0.00106815
v 0.00043578 0.00498097 0.00104805
v 0.00043279 0.01699449 0.00104739
v 0.00034730 0.00498792 0.00103038
v 0.00034730 0.01699645 0.00103038
v 0.00026108 0.00499318 0.00101711
v 0.00026113 0.01699799 0.00101712
v 0.00017431 0.00499696 0.00100761
v 0.00017431 0.01699911 0.00100761
v 0.00008744 0.00499924 0.00100191
v 0.00008748 0.01699978 0.00100191
v 0.00000000 0.00500000 0.00100000
v -0.00128558 0.01695132 0.00146791
v -0.00114715 0.00486663 0.00136170
v -0.00114715 0.01696125 0.00136170
v -0.00100000 0.00489898 0.00126795
v -0.00100000 0.01697056 0.00126795
v -0.00086824 0.00492404 0.00119829
v -0.00092336 0.01697491 0.00122591
v -0.00084526 0.00492804 0.00118739
v -0.00084524 0.01697898 0.00118738
v -0.00076560 0.00494104 0.00115234
v -0.00076538 0.01698276 0.00115224
v -0.00068404 0.00495299 0.00112061
v -0.00068404 0.01698623 0.00112061
v -0.00060131 0.00496371 0.00109253
v -0.00060158 0.01698935 0.00109262
v -0.00051764 0.00497313 0.00106815
v -0.00051764 0.01699212 0.00106815
v -0.00043578 0.00498097 0.00104805
v -0.00043288 0.01699449 0.00104741
v -0.00034730 0.00498792 0.00103038
v -0.00034730 0.01699645 0.00103038
v -0.00026115 0.00499318 0.00101712
v -0.00026102 0.01699800 0.00101711
v -0.00017431 0.00499696 0.00100761
v -0.00017431 0.01699911 0.00100761
v -0.00008751 0.00499923 0.00100192
v -0.00008737 0.01699978 0.00100191
v 0.00000000 0.01700000 0.00100000
v -0.00148301 0.01693519 0.00165811
v -0.00141421 0.00479583 0.00158579
v -0.00141421 0.01694107 0.00158579
v -0.00129439 0.00482955 0.00147535
v -0.00128558 0.00483190 0.00146791
v -0.00200000 0.00458258 0.00299928
v -0.00199807 0.00458342 0.00291220
v -0.00199809 0.01688217 0.00291252
v -0.00199239 0.00458589 0.00282569
v -0.00199239 0.01688284 0.00282569
v -0.00198288 0.00459001 0.00273891
v -0.00198288 0.01688396 0.00273887
v -0.00196962 0.00459572 0.00265270
v -0.00196962 0.01688552 0.00265270
v -0.00195262 0.00460296 0.00256724
v -0.00195261 0.01688749 0.00256721
v -0.00193185 0.00461172 0.00248236
v -0.00193185 0.01688988 0.00248236
v -0.00190733 0.00462191 0.00239827
v -0.00190750 0.01689264 0.00239881
v -0.00187939 0.00463335 0.00231596
v -0.00187939 0.01689580 0.00231596
v -0.00184770 0.00464607 0.00223449
v -0.00184768 0.01689929 0.00223443
v -0.00181262 0.00465987 0.00215476
v -0.00181262 0.01690309 0.00215476
v -0.00177403 0.00467470 0.00207653
v -0.00177400 0.01690719 0.00207646
v -0.00173205 0.00469042 0.00200000
v -0.00173205 0.01691153 0.00200000
v -0.00171117 0.00469807 0.00196468
v -0.00163830 0.00472398 0.00185285
v 0.00475949 0.00153209 0.00171442
v 0.01693082 0.00153209 0.00171442
v 0.01692087 0.00163830 0.00185285
v 0.00475949 -0.00153209 0.00428558
v 0.01693082 -0.00153209 0.00428558
v 0.01692087 -0.00163830 0.00414715
v 0.00479583 0.00141421 0.00441421
v 0.00475949 0.00153209 0.00428558
v 0.01693082 0.00153209 0.00428558
v 0.00472398 0.00163830 0.00414715
v 0.01692087 0.00163830 0.00414715
v 0.00469846 0.00171010 0.00403709
v 0.01691153 0.00173205 0.00400000
v 0.00469042 0.00173203 0.00400003
v 0.01690719 0.00177391 0.00392371
v 0.00467472 0.00177399 0.00392356
v 0.01690309 0.00181262 0.00384524
v 0.00465987 0.00181262 0.00384524
v 0.01689927 0.00184784 0.00376517
v 0.00464609 0.00184766 0.00376560
v 0.01689580 0.00187939 0.00368404
v 0.00463335 0.00187939 0.00368404
v 0.01689265 0.00190745 0.00360137
v 0.00462186 0.00190746 0.00360132
v 0.01688988 0.00193185 0.00351764
v 0.00461172 0.00193185 0.00351764
v 0.01688750 0.00195256 0.00343300
v 0.00460297 0.00195260 0.00343282
v 0.01688552 0.00196962 0.00334730
v 0.00459572 0.00196962 0.00334730
v 0.01688397 0.00198286 0.00326127
v 0.00459001 0.00198288 0.00326116
v 0.01688284 0.00199239 0.00317431
v 0.00458589 0.00199239 0.00317431
v 0.01688217 0.00199810 0.00308726
v 0.00458342 0.00199807 0.00308788
v 0.01688194 0.00200000 0.00300000
v 0.01693519 0.00148301 0.00434189
v 0.01694107 0.00141421 0.00441421
v 0.00482955 0.00129439 0.00452465
v 0.00483190 0.00128558 0.00453209
v 0.01695132 0.00128558 0.00453209
v 0.01696125 0.00114715 0.00463830
v 0.00486663 0.00114715 0.00463830
v 0.01697056 0.00100000 0.00473205
v 0.00489898 0.00100000 0.00473205
v 0.00492404 0.00086824 0.00480171
v 0.01697489 0.00092371 0.00477391
v 0.00492804 0.00084524 0.00481262
v 0.01697898 0.00084524 0.00481262
v 0.00494105 0.00076550 0.00484770
v 0.01698277 0.00076517 0.00484784
v 0.00495299 0.00068404 0.00487939
v 0.01698623 0.00068404 0.00487939
v 0.00496366 0.00060172 0.00490734
v 0.01698936 0.00060137 0.00490745
v 0.00497313 0.00051764 0.00493185
v 0.01699212 0.00051764 0.00493185
v 0.00498097 0.00043578 0.00495195
v 0.01699449 0.00043300 0.00495257
v 0.00498792 0.00034730 0.00496962
v 0.01699645 0.00034730 0.00496962
v 0.00499318 0.00026100 0.00498290
v 0.01699799 0.00026123 0.00498287
v 0.00499696 0.00017431 0.00499239
v 0.01699911 0.00017431 0.00499239
v 0.00499924 0.00008735 0.00499809
v 0.01699978 0.00008705 0.00499810
v 0.00500000 0.00000000 0.00500000
v 0.01695132 -0.00128558 0.00453209
v 0.00486663 -0.00114715 0.00463830
v 0.01696125 -0.00114715 0.00463830
v 0.00489898 -0.00100000 0.00473205
v 0.01697056 -0.00100000 0.00473205
v 0.00492404 -0.00086824 0.00480171
v 0.01697491 -0.00092336 0.00477410
v 0.00492804 -0.00084526 0.00481261
v 0.01697898 -0.00084524 0.00481262
v 0.00494106 -0.00076543 0.00484773
v 0.01698276 -0.00076537 0.00484776
v 0.00495299 -0.00068404 0.00487939
v 0.01698623 -0.00068404 0.00487939
v 0.00496371 -0.00060134 0.00490746
v 0.01698935 -0.00060158 0.00490738
v 0.00497313 -0.00051764 0.00493185
v 0.01699212 -0.00051764 0.00493185
v 0.00498097 -0.00043578 0.00495195
v 0.01699449 -0.00043281 0.00495261
v 0.00498792 -0.00034730 0.00496962
v 0.01699645 -0.00034730 0.00496962
v 0.00499317 -0.00026132 0.00498285
v 0.01699800 -0.00026091 0.00498291
v 0.00499696 -0.00017431 0.00499239
v 0.01699911 -0.00017431 0.00499239
v 0.00499924 -0.00008697 0.00499811
v 0.01699978 -0.00008726 0.00499810
v 0.01700000 -0.00000000 0.00500000
v 0.01693519 -0.00148301 0.00434189
v 0.00479583 -0.00141421 0.00441421
v 0.01694107 -0.00141421 0.00441421
v 0.00482955 -0.00129439 0.00452465
v 0.00483190 -0.00128558 0.00453209
v 0.01688194 -0.00200000 0.00300000
v 0.00458258 -0.00200000 0.00300000
v 0.01688194 -0.00200000 0.00300044
v 0.00458341 -0.00199810 0.00308720
v 0.01688217 -0.00199808 0.00308770
v 0.00458589 -0.00199239 0.00317431
v 0.01688284 -0.00199239 0.00317431
v 0.00459000 -0.00198290 0.00326101
v 0.01688396 -0.00198288 0.00326113
v 0.00459572 -0.00196962 0.00334730
v 0.01688552 -0.00196962 0.00334730
v 0.00460301 -0.00195252 0.00343322
v 0.01688749 -0.00195261 0.00343279
v 0.00461172 -0.00193185 0.00351764
v 0.01688988 -0.00193185 0.00351764
v 0.00462189 -0.00190738 0.00360159
v 0.01689264 -0.00190750 0.00360119
v 0.00463335 -0.00187939 0.00368404
v 0.01689580 -0.00187939 0.00368404
v 0.00464605 -0.00184776 0.00376537
v 0.01689929 -0.00184767 0.00376557
v 0.00465987 -0.00181262 0.00384524
v 0.01690309 -0.00181262 0.00384524
v 0.00467467 -0.00177410 0.00392334
v 0.01690719 -0.00177400 0.00392354
v 0.00469042 -0.00173205 0.00400000
v 0.01691153 -0.00173205 0.00400000
v 0.00469807 -0.00171117 0.00403532
v 0.00472398 -0.00163830 0.00414715
v 0.00479583 -0.00141421 0.00158579
v 0.00475949 -0.00153209 0.00171442
v 0.01693082 -0.00153209 0.00171442
v 0.00472398 -0.00163830 0.00185285
v 0.01692087 -0.00163830 0.00185285
v 0.00469846 -0.00171010 0.00196291
v 0.01691153 -0.00173205 0.00200000
v 0.00469042 -0.00173203 0.00199997
v 0.01690719 -0.00177391 0.00207629
v 0.00467472 -0.00177399 0.00207644
v 0.01690309 -0.00181262 0.00215476
v 0.00465987 -0.00181262 0.00215476
v 0.01689927 -0.00184784 0.00223483
v 0.00464609 -0.00184766 0.00223440
v 0.01689580 -0.00187939 0.00231596
v 0.00463335 -0.00187939 0.00231596
v 0.01689265 -0.00190745 0.00239863
v 0.00462186 -0.00190746 0.00239868
v 0.01688988 -0.00193185 0.00248236
v 0.00461172 -0.00193185 0.00248236
v 0.01688750 -0.00195257 0.00256700
v 0.00460297 -0.00195260 0.00256718
v 0.01688552 -0.00196962 0.00265270
v 0.00459572 -0.00196962 0.00265270
v 0.01688397 -0.00198286 0.00273872
v 0.00459001 -0.00198288 0.00273884
v 0.01688284 -0.00199239 0.00282569
v 0.00458589 -0.00199239 0.00282569
v 0.01688217 -0.00199810 0.00291296
v 0.00458341 -0.00199808 0.00291232
v 0.00458258 -0.00200000 0.00299968
v 0.01693519 -0.00148301 0.00165811
v 0.01694107 -0.00141421 0.00158579
v 0.00482955 -0.00129439 0.00147535
v 0.00483190 -0.00128558 0.00146791
v 0.01695132 -0.00128558 0.00146791
v 0.01696125 -0.00114715 0.00136170
v 0.00486663 -0.00114715 0.00136170
v 0.01697056 -0.00100000 0.00126795
v 0.00489898 -0.00100000 0.00126795
v 0.00492404 -0.00086824 0.00119829
v 0.01697489 -0.00092371 0.00122609
v 0.00492804 -0.00084524 0.00118738
v 0.01697898 -0.00084524 0.00118738
v 0.00494105 -0.00076551 0.00115230
v 0.01698277 -0.00076517 0.00115216
v 0.00495299 -0.00068404 0.00112061
v 0.01698623 -0.00068404 0.00112061
v 0.00496366 -0.00060172 0.00109266
v 0.01698936 -0.00060137 0.00109255
v 0.00497313 -0.00051764 0.00106815
v 0.01699212 -0.00051764 0.00106815
v 0.00498097 -0.00043578 0.00104805
v 0.01699448 -0.00043300 0.00104744
v 0.00498792 -0.00034730 0.00103038
v 0.01699645 -0.00034730 0.00103038
v 0.00499318 -0.00026100 0.00101710
v 0.01699799 -0.00026123 0.00101713
v 0.00499696 -0.00017431 0.00100761
v 0.01699911 -0.00017431 0.00100761
v 0.00499924 -0.00008735 0.00100191
v 0.01699978 -0.00008705 0.00100190
v 0.00500000 -0.00000000 0.00100000
v 0.01695132 0.00128558 0.00146791
v 0.00486663 0.00114715 0.00136170
v 0.01696125 0.00114715 0.00136170
v 0.00489898 0.00100000 0.00126795
v 0.01697056 0.00100000 0.00126795
v 0.00492404 0.00086824 0.00119829
v 0.01697491 0.00092335 0.00122590
v 0.00492804 0.00084526 0.00118739
v 0.01697898 0.00084524 0.00118738
v 0.00494106 0.00076543 0.00115227
v 0.01698276 0.00076537 0.00115224
v 0.00495299 0.00068404 0.00112061
v 0.01698623 0.00068404 0.00112061
v 0.00496371 0.00060134 0.00109254
v 0.01698935 0.00060158 0.00109262
v 0.00497313 0.00051764 0.00106815
v 0.01699212 0.00051764 0.00106815
v 0.00498097 0.00043578 0.00104805
v 0.01699449 0.00043282 0.00104740
v 0.00498792 0.00034730 0.00103038
v 0.01699645 0.00034730 0.00103038
v 0.00499317 0.00026132 0.00101714
v 0.01699800 0.00026091 0.00101709
v 0.00499696 0.00017431 0.00100761
v 0.01699911 0.00017431 0.00100761
v 0.00499924 0.00008697 0.00100189
v 0.01699978 0.00008726 0.00100190
v 0.01700000 -0.00000000 0.00100000
v 0.01693519 0.00148301 0.00165811
v 0.00479583 0.00141421 0.00158579
v 0.01694107 0.00141421 0.00158579
v 0.00482955 0.00129439 0.00147535
v 0.00483190 0.00128558 0.00146791
v 0.01688284 0.00199239 0.00282569
v 0.00459000 0.00198290 0.00273899
v 0.01688396 0.00198288 0.00273887
v 0.00459572 0.00196962 0.00265270
v 0.01688552 0.00196962 0.00265270
v 0.00460301 0.00195252 0.00256678
v 0.01688749 0.00195261 0.00256721
v 0.00461172 0.00193185 0.00248236
v 0.01688988 0.00193185 0.00248236
v 0.00462189 0.00190738 0.00239841
v 0.01689264 0.00190750 0.00239881
v 0.00463335 0.00187939 0.00231596
v 0.01689580 0.00187939 0.00231596
v 0.00464605 0.00184776 0.00223463
v 0.01689929 0.00184767 0.00223443
v 0.00465987 0.00181262 0.00215476
v 0.01690309 0.00181262 0.00215476
v 0.00467467 0.00177410 0.00207666
v 0.01690719 0.00177400 0.00207646
v 0.00469042 0.00173205 0.00200000
v 0.01691153 0.00173205 0.00200000
v 0.00469807 0.00171117 0.00196468
v 0.00472398 0.00163830 0.00185285
v 0.00458258 0.00200000 0.00300072
v 0.00458258 0.00200000 0.00300000
v 0.01688194 0.00200000 0.00299862
v 0.00458341 0.00199809 0.00291264
v 0.00458589 0.00199239 0.00282569
v -0.00000000 -0.02500000 0.02598163
v 0.00196778 -0.02249181 0.02510000
v 0.00217889 -0.02490487 0.02598163
v 0.00392058 -0.02223472 0.02510000
v 0.00434120 -0.02462019 0.02598163
v 0.00584355 -0.02180841 0.02510000
v 0.00647048 -0.02414815 0.02598163
v 0.00772204 -0.02121612 0.02510000
v 0.00855050 -0.02349232 0.02598163
v 0.00954176 -0.02046237 0.02510000
v 0.01056546 -0.02265769 0.02598163
v 0.01128886 -0.01955289 0.02510000
v 0.01250000 -0.02165063 0.02598163
v 0.01295005 -0.01849459 0.02510000
v 0.01433941 -0.02047880 0.02598163
v 0.01451268 -0.01729554 0.02510000
v 0.01606969 -0.01915111 0.02598163
v 0.01596486 -0.01596486 0.02510000
v 0.01767767 -0.01767767 0.02598163
v 0.01729554 -0.01451268 0.02510000
v 0.01915111 -0.01606969 0.02598163
v 0.01849459 -0.01295005 0.02510000
v 0.02047880 -0.01433941 0.02598163
v 0.01955289 -0.01128886 0.02510000
v 0.02165063 -0.01250000 0.02598163
v 0.02046237 -0.00954176 0.02510000
v 0.02265769 -0.01056546 0.02598163
v 0.02121612 -0.00772204 0.02510000
v 0.02349232 -0.00855050 0.02598163
v 0.02180841 -0.00584355 0.02510000
v 0.02414815 -0.00647048 0.02598163
v 0.02223472 -0.00392058 0.02510000
v 0.02462019 -0.00434120 0.02598163
v 0.02249181 -0.00196778 0.02510000
v 0.02490487 -0.00217889 0.02598163
v 0.02257773 -0.00000000 0.02510000
v 0.02500000 0.00000000 0.02598163
v 0.02249181 0.00196778 0.02510000
v 0.02490487 0.00217889 0.02598163
v 0.02223472 0.00392058 0.02510000
v 0.02462019 0.00434120 0.02598163
v 0.02180841 0.00584355 0.02510000
v 0.02414815 0.00647048 0.02598163
v 0.02121612 0.00772204 0.02510000
v 0.02349232 0.00855050 0.02598163
v 0.02046237 0.00954176 0.02510000
v 0.02265769 0.01056546 0.02598163
v 0.01955289 0.01128886 0.02510000
v 0.02165063 0.01250000 0.02598163
v 0.01849459 0.01295005 0.02510000
v 0.02047880 0.01433941 0.02598163
v 0.01729554 0.01451268 0.02510000
v 0.01915111 0.01606969 0.02598163
v 0.01596486 0.01596486 0.02510000
v 0.01767767 0.01767767 0.02598163
v 0.01451268 0.01729554 0.02510000
v 0.01606969 0.01915111 0.02598163
v 0.01295005 0.01849459 0.02510000
v 0.01433941 0.02047880 0.02598163
v 0.01128886 0.01955289 0.02510000
v 0.01250000 0.02165063 0.02598163
v 0.00954176 0.02046237 0.02510000
v 0.01056546 0.02265769 0.02598163
v 0.00772204 0.02121612 0.02510000
v 0.00855050 0.02349232 0.02598163
v 0.00584355 0.02180841 0.02510000
v 0.00647048 0.02414815 0.02598163
v 0.00392058 0.02223472 0.02510000
v 0.00434120 0.02462019 0.02598163
v 0.00196778 0.02249181 0.02510000
v 0.00217889 0.02490487 0.02598163
v 0.00000000 0.02257773 0.02510000
v 0.00000000 0.02500000 0.02598163
v -0.00196778 0.02249181 0.02510000
v -0.00217889 0.02490487 0.02598163
v -0.00392058 0.02223472 0.02510000
v -0.00434120 0.02462019 0.02598163
v -0.00584355 0.02180841 0.02510000
v -0.00647048 0.02414815 0.02598163
v -0.00772204 0.02121612 0.02510000
v -0.00855050 0.02349232 0.02598163
v -0.00954176 0.02046237 0.02510000
v -0.01056546 0.02265769 0.02598163
v -0.01128886 0.01955289 0.02510000
v -0.01250000 0.02165063 0.02598163
v -0.01295005 0.01849459 0.02510000
v -0.01433941 0.02047880 0.02598163
v -0.01451268 0.01729554 0.02510000
v -0.01606969 0.01915111 0.02598163
v -0.01596486 0.01596486 0.02510000
v -0.01767767 0.01767767 0.02598163
v -0.01729554 0.01451268 0.02510000
v -0.01915111 0.01606969 0.02598163
v -0.01849459 0.01295005 0.02510000
v -0.02047880 0.01433941 0.02598163
v -0.01955289 0.01128886 0.02510000
v -0.02165063 0.01250000 0.02598163
v -0.02046237 0.00954176 0.02510000
v -0.02265769 0.01056546 0.02598163
v -0.02121612 0.00772204 0.02510000
v -0.02349232 0.00855050 0.02598163
v -0.02180841 0.00584355 0.02510000
v -0.02414815 0.00647048 0.02598163
v -0.02223472 0.00392058 0.02510000
v -0.02462019 0.00434120 0.02598163
v -0.02249181 0.00196778 0.02510000
v -0.02490487 0.00217889 0.02598163
v -0.02257773 0.00000000 0.02510000
v -0.02500000 0.00000000 0.02598163
v -0.02249181 -0.00196778 0.02510000
v -0.02490487 -0.00217889 0.02598163
v -0.02223472 -0.00392058 0.02510000
v -0.02462019 -0.00434120 0.02598163
v -0.02180841 -0.00584355 0.02510000
v -0.02414815 -0.00647048 0.02598163
v -0.02121612 -0.00772204 0.02510000
v -0.02349232 -0.00855050 0.02598163
v -0.02046237 -0.00954176 0.02510000
v -0.02265769 -0.01056546 0.02598163
v -0.01955289 -0.01128886 0.02510000
v -0.02165063 -0.01250000 0.02598163
v -0.01849459 -0.01295005 0.02510000
v -0.02047880 -0.01433941 0.02598163
v -0.01729554 -0.01451268 0.02510000
v -0.01915111 -0.01606969 0.02598163
v -0.01596486 -0.01596486 0.02510000
v -0.01767767 -0.01767767 0.02598163
v -0.01451268 -0.01729554 0.02510000
v -0.01606969 -0.01915111 0.02598163
v -0.01295005 -0.01849459 0.02510000
v -0.01433941 -0.02047880 0.02598163
v -0.01128886 -0.01955289 0.02510000
v -0.01250000 -0.02165063 0.02598163
v -0.00954176 -0.02046237 0.02510000
v -0.01056546 -0.02265769 0.02598163
v -0.00772204 -0.02121612 0.02510000
v -0.00855050 -0.02349232 0.02598163
v -0.00584355 -0.02180841 0.02510000
v -0.00647048 -0.02414815 0.02598163
v -0.00392058 -0.02223472 0.02510000
v -0.00434120 -0.02462019 0.02598163
v -0.00196778 -0.02249181 0.02510000
v -0.00217889 -0.02490487 0.02598163
v -0.00000000 -0.02257773 0.02510000
v -0.00212226 -0.02425750 0.02776705
v -0.00422836 -0.02398023 0.02776705
v -0.00630229 -0.02352045 0.02776705
v -0.00832825 -0.02288167 0.02776705
v -0.01029082 -0.02206874 0.02776705
v -0.01217508 -0.02108786 0.02776705
v -0.01396668 -0.01994648 0.02776705
v -0.01565198 -0.01865331 0.02776705
v -0.01721817 -0.01721817 0.02776705
v -0.01865331 -0.01565198 0.02776705
v -0.01994648 -0.01396668 0.02776705
v -0.02108786 -0.01217508 0.02776705
v -0.02206874 -0.01029082 0.02776705
v -0.02288167 -0.00832825 0.02776705
v -0.02352045 -0.00630229 0.02776705
v -0.02398023 -0.00422836 0.02776705
v -0.02425750 -0.00212226 0.02776705
v -0.02435016 -0.00000000 0.02776705
v -0.02425750 0.00212226 0.02776705
v -0.02398023 0.00422836 0.02776705
v -0.02352045 0.00630229 0.02776705
v -0.02288167 0.00832825 0.02776705
v -0.02206874 0.01029082 0.02776705
v -0.02108786 0.01217508 0.02776705
v -0.01994648 0.01396668 0.02776705
v -0.01865331 0.01565198 0.02776705
v -0.01721817 0.01721817 0.02776705
v -0.01565198 0.01865331 0.02776705
v -0.01396668 0.01994648 0.02776705
v -0.01217508 0.02108786 0.02776705
v -0.01029082 0.02206874 0.02776705
v -0.00832825 0.02288167 0.02776705
v -0.00630229 0.02352045 0.02776705
v -0.00422836 0.02398023 0.02776705
v -0.00212226 0.02425750 0.02776705
v -0.00000000 0.02435016 0.02776705
v 0.00212226 0.02425750 0.02776705
v 0.00422836 0.02398023 0.02776705
v 0.00630229 0.02352045 0.02776705
v 0.00832825 0.02288167 0.02776705
v 0.01029082 0.02206874 0.02776705
v 0.01217508 0.02108786 0.02776705
v 0.01396668 0.01994648 0.02776705
v 0.01565198 0.01865331 0.02776705
v 0.01721817 0.01721817 0.02776705
v 0.01865331 0.01565198 0.02776705
v 0.01994648 0.01396668 0.02776705
v 0.02108786 0.01217508 0.02776705
v 0.02206874 0.01029082 0.02776705
v 0.02288167 0.00832825 0.02776705
v 0.02352045 0.00630229 0.02776705
v 0.02398023 0.00422836 0.02776705
v 0.02425750 0.00212226 0.02776705
v 0.02435016 0.00000000 0.02776705
v 0.02425750 -0.00212226 0.02776705
v 0.02398023 -0.00422836 0.02776705
v 0.02352045 -0.00630229 0.02776705
v 0.02288167 -0.00832825 0.02776705
v 0.02206874 -0.01029082 0.02776705
v 0.02108786 -0.01217508 0.02776705
v 0.01994648 -0.01396668 0.02776705
v 0.01865331 -0.01565198 0.02776705
v 0.01721817 -0.01721817 0.02776705
v 0.01565198 -0.01865331 0.02776705
v 0.01396668 -0.01994648 0.02776705
v 0.01217508 -0.02108786 0.02776705
v 0.01029082 -0.02206874 0.02776705
v 0.00832825 -0.02288167 0.02776705
v 0.00630229 -0.02352045 0.02776705
v 0.00422836 -0.02398023 0.02776705
v 0.00212226 -0.02425750 0.02776705
v 0.00000000 -0.02435016 0.02776705
v 0.00193858 -0.02215807 0.02700000
v 0.00386241 -0.02190479 0.02700000
v 0.00575684 -0.02148481 0.02700000
v 0.00760745 -0.02090131 0.02700000
v 0.00940017 -0.02015874 0.02700000
v 0.01112135 -0.01926275 0.02700000
v 0.01275789 -0.01822016 0.02700000
v 0.01429734 -0.01703890 0.02700000
v 0.01572797 -0.01572797 0.02700000
v 0.01703890 -0.01429734 0.02700000
v 0.01822016 -0.01275789 0.02700000
v 0.01926275 -0.01112135 0.02700000
v 0.02015874 -0.00940017 0.02700000
v 0.02090131 -0.00760745 0.02700000
v 0.02148481 -0.00575684 0.02700000
v 0.02190479 -0.00386241 0.02700000
v 0.02215807 -0.00193858 0.02700000
v 0.02224271 0.00000000 0.02700000
v 0.02215807 0.00193858 0.02700000
v 0.02190479 0.00386241 0.02700000
v 0.02148481 0.00575684 0.02700000
v 0.02090131 0.00760745 0.02700000
v 0.02015874 0.00940017 0.02700000
v 0.01926275 0.01112135 0.02700000
v 0.01822016 0.01275789 0.02700000
v 0.01703890 0.01429734 0.02700000
v 0.01572797 0.01572797 0.02700000
v 0.01429734 0.01703890 0.02700000
v 0.01275789 0.01822016 0.02700000
v 0.01112135 0.01926275 0.02700000
v 0.00940017 0.02015874 0.02700000
v 0.00760745 0.02090131 0.02700000
v 0.00575684 0.02148481 0.02700000
v 0.00386241 0.02190479 0.02700000
v 0.00193858 0.02215807 0.02700000
v 0.00000000 0.02224271 0.02700000
v -0.00193858 0.02215807 0.02700000
v -0.00386241 0.02190479 0.02700000
v -0.00575684 0.02148481 0.02700000
v -0.00760745 0.02090131 0.02700000
v -0.00940017 0.02015874 0.02700000
v -0.01112135 0.01926275 0.02700000
v -0.01275789 0.01822016 0.02700000
v -0.01429734 0.01703890 0.02700000
v -0.01572797 0.01572797 0.02700000
v -0.01703890 0.01429734 0.02700000
v -0.01822016 0.01275789 0.02700000
v -0.01926275 0.01112135 0.02700000
v -0.02015874 0.00940017 0.02700000
v -0.02090131 0.00760745 0.02700000
v -0.02148481 0.00575684 0.02700000
v -0.02190479 0.00386241 0.02700000
v -0.02215807 0.00193858 0.02700000
v -0.02224271 0.00000000 0.02700000
v -0.02215807 -0.00193858 0.02700000
v -0.02190479 -0.00386241 0.02700000
v -0.02148481 -0.00575684 0.02700000
v -0.02090131 -0.00760745 0.02700000
v -0.02015874 -0.00940017 0.02700000
v -0.01926275 -0.01112135 0.02700000
v -0.01822016 -0.01275789 0.02700000
v -0.01703890 -0.01429734 0.02700000
v -0.01572797 -0.01572797 0.02700000
v -0.01429734 -0.01703890 0.02700000
v -0.01275789 -0.01822016 0.02700000
v -0.01112135 -0.01926275 0.02700000
v -0.00940017 -0.02015874 0.02700000
v -0.00760745 -0.02090131 0.02700000
v -0.00575684 -0.02148481 0.02700000
v -0.00386241 -0.02190479 0.02700000
v -0.00193858 -0.02215807 0.02700000
v -0.00000000 -0.02224271 0.02700000
v -0.00286788 -0.00409576 0.02700000
v -0.00250000 -0.00433013 0.02700000
v -0.00211309 -0.00453154 0.02700000
v -0.00171010 -0.00469846 0.02700000
v -0.00129410 -0.00482963 0.02700000
v -0.00086824 -0.00492404 0.02700000
v -0.00043578 -0.00498097 0.02700000
v -0.00000000 -0.00500000 0.02700000
v 0.00043578 -0.00498097 0.02700000
v 0.00086824 -0.00492404 0.02700000
v 0.00129410 -0.00482963 0.02700000
v 0.00171010 -0.00469846 0.02700000
v 0.00211309 -0.00453154 0.02700000
v 0.00250000 -0.00433013 0.02700000
v 0.00286788 -0.00409576 0.02700000
v 0.00321394 -0.00383022 0.02700000
v 0.00353553 -0.00353553 0.02700000
v 0.00383022 -0.00321394 0.02700000
v 0.00409576 -0.00286788 0.02700000
v 0.00433013 -0.00250000 0.02700000
v 0.00453154 -0.00211309 0.02700000
v 0.00469846 -0.00171010 0.02700000
v 0.00482963 -0.00129410 0.02700000
v 0.00492404 -0.00086824 0.02700000
v 0.00498097 -0.00043578 0.02700000
v 0.00500000 0.00000000 0.02700000
v 0.00498097 0.00043578 0.02700000
v 0.00492404 0.00086824 0.02700000
v 0.00482963 0.00129410 0.02700000
v 0.00469846 0.00171010 0.02700000
v 0.00453154 0.00211309 0.02700000
v 0.00433013 0.00250000 0.02700000
v 0.00409576 0.00286788 0.02700000
v 0.00383022 0.00321394 0.02700000
v 0.00353553 0.00353553 0.02700000
v 0.00321394 0.00383022 0.02700000
v 0.00286788 0.00409576 0.02700000
v 0.00250000 0.00433013 0.02700000
v 0.00211309 0.00453154 0.02700000
v 0.00171010 0.00469846 0.02700000
v 0.00129410 0.00482963 0.02700000
v 0.00086824 0.00492404 0.02700000
v 0.00043578 0.00498097 0.02700000
v 0.00000000 0.00500000 0.02700000
v -0.00043578 0.00498097 0.02700000
v -0.00086824 0.00492404 0.02700000
v -0.00129410 0.00482963 0.02700000
v -0.00171010 0.00469846 0.02700000
v -0.00211309 0.00453154 0.02700000
v -0.00250000 0.00433013 0.02700000
v -0.00286788 0.00409576 0.02700000
v -0.00321394 0.00383022 0.02700000
v -0.00353553 0.00353553 0.02700000
v -0.00383022 0.00321394 0.02700000
v -0.00409576 0.00286788 0.02700000
v -0.00433013 0.00250000 0.02700000
v -0.00453154 0.00211309 0.02700000
v -0.00469846 0.00171010 0.02700000
v -0.00482963 0.00129410 0.02700000
v -0.00492404 0.00086824 0.02700000
v -0.00498097 0.00043578 0.02700000
v -0.00500000 0.00000000 0.02700000
v -0.00498097 -0.00043578 0.02700000
v -0.00492404 -0.00086824 0.02700000
v -0.00482963 -0.00129410 0.02700000
v -0.00469846 -0.00171010 0.02700000
v -0.00453154 -0.00211309 0.02700000
v -0.00433013 -0.00250000 0.02700000
v -0.00409576 -0.00286788 0.02700000
v -0.00383022 -0.00321394 0.02700000
v -0.00353553 -0.00353553 0.02700000
v -0.00321394 -0.00383022 0.02700000
v 0.00453154 0.00211309 0.00000000
v 0.00469846 0.00171010 0.00000000
v 0.00482963 0.00129410 0.00000000
v 0.00492404 0.00086824 0.00000000
v 0.00498097 0.00043578 0.00000000
v 0.00500000 0.00000000 0.00000000
v 0.00498097 -0.00043578 0.00000000
v 0.00492404 -0.00086824 0.00000000
v 0.00482963 -0.00129410 0.00000000
v 0.00469846 -0.00171010 0.00000000
v 0.00453154 -0.00211309 0.00000000
v -0.00211309 0.00453154 0.00000000
v -0.00171010 0.00469846 0.00000000
v -0.00129410 0.00482963 0.00000000
v -0.00086824 0.00492404 0.00000000
v -0.00043578 0.00498097 0.00000000
v 0.00000000 0.00500000 0.00000000
v 0.00043578 0.00498097 0.00000000
v 0.00086824 0.00492404 0.00000000
v 0.00129410 0.00482963 0.00000000
v 0.00171010 0.00469846 0.00000000
v 0.00211309 0.00453154 0.00000000
v 0.00433013 0.00250000 0.00000000
v 0.00409576 0.00286788 0.00000000
v 0.00383022 0.00321394 0.00000000
v 0.00353553 0.00353553 0.00000000
v 0.00321394 0.00383022 0.00000000
v 0.00286788 0.00409576 0.00000000
v 0.00250000 0.00433013 0.00000000
v -0.00250000 0.00433013 0.00000000
v -0.00286788 0.00409576 0.00000000
v -0.00321394 0.00383022 0.00000000
v -0.00353553 0.00353553 0.00000000
v -0.00383022 0.00321394 0.00000000
v -0.00409576 0.00286788 0.00000000
v -0.00433013 0.00250000 0.00000000
v -0.00453154 0.00211309 0.00000000
v -0.00469846 0.00171010 0.00000000
v -0.00482963 0.00129410 0.00000000
v -0.00492404 0.00086824 0.00000000
v -0.00498097 0.00043578 0.00000000
v -0.00500000 0.00000000 0.00000000
v -0.00498097 -0.00043578 0.00000000
v -0.00492404 -0.00086824 0.00000000
v -0.00482963 -0.00129410 0.00000000
v -0.00469846 -0.00171010 0.00000000
v -0.00453154 -0.00211309 0.00000000
v -0.00433013 -0.00250000 0.00000000
v -0.00409576 -0.00286788 0.00000000
v -0.00383022 -0.00321394 0.00000000
v -0.00353553 -0.00353553 0.00000000
v -0.00321394 -0.00383022 0.00000000
v -0.00286788 -0.00409576 0.00000000
v -0.00250000 -0.00433013 0.00000000
v -0.00211309 -0.00453154 0.00000000
v -0.00171010 -0.00469846 0.00000000
v -0.00129410 -0.00482963 0.00000000
v -0.00086824 -0.00492404 0.00000000
v -0.00043578 -0.00498097 0.00000000
v -0.00000000 -0.00500000 0.00000000
v 0.00043578 -0.00498097 0.00000000
v 0.00086824 -0.00492404 0.00000000
v 0.00129410 -0.00482963 0.00000000
v 0.00171010 -0.00469846 0.00000000
v 0.00211309 -0.00453154 0.00000000
v 0.00250000 -0.00433013 0.00000000
v 0.00286788 -0.00409576 0.00000000
v 0.00321394 -0.00383022 0.00000000
v 0.00353553 -0.00353553 0.00000000
v 0.00383022 -0.00321394 0.00000000
v 0.00409576 -0.00286788 0.00000000
v 0.00433013 -0.00250000 0.00000000
v 0.01597477 0.00581434 0.00000000
v 0.01642074 0.00439992 0.00000000
v 0.01674173 0.00295202 0.00000000
v 0.01693531 0.00148165 0.00000000
v 0.01700000 -0.00000000 0.00000000
v 0.01693531 -0.00148165 0.00000000
v 0.01674173 -0.00295202 0.00000000
v 0.01642074 -0.00439992 0.00000000
v 0.01597477 -0.00581434 0.00000000
v 0.01540723 -0.00718451 0.00000000
v 0.01472243 -0.00850000 0.00000000
v 0.01392558 -0.00975080 0.00000000
v 0.01302276 -0.01092739 0.00000000
v 0.01202082 -0.01202082 0.00000000
v 0.01092739 -0.01302276 0.00000000
v 0.00975080 -0.01392558 0.00000000
v 0.00850000 -0.01472243 0.00000000
v 0.00718451 -0.01540723 0.00000000
v 0.00581434 -0.01597477 0.00000000
v 0.00439992 -0.01642074 0.00000000
v 0.00295202 -0.01674173 0.00000000
v 0.00148165 -0.01693531 0.00000000
v -0.00000000 -0.01700000 0.00000000
v -0.00148165 -0.01693531 0.00000000
v -0.00295202 -0.01674173 0.00000000
v -0.00439992 -0.01642074 0.00000000
v -0.00581434 -0.01597477 0.00000000
v -0.00718451 -0.01540723 0.00000000
v -0.00850000 -0.01472243 0.00000000
v -0.00975080 -0.01392558 0.00000000
v -0.01092739 -0.01302276 0.00000000
v -0.01202082 -0.01202082 0.00000000
v -0.01302276 -0.01092739 0.00000000
v -0.01392558 -0.00975080 0.00000000
v -0.01472243 -0.00850000 0.00000000
v -0.01540723 -0.00718451 0.00000000
v -0.01597477 -0.00581434 0.00000000
v -0.01642074 -0.00439992 0.00000000
v -0.01674173 -0.00295202 0.00000000
v -0.01693531 -0.00148165 0.00000000
v -0.01700000 0.00000000 0.00000000
v -0.01693531 0.00148165 0.00000000
v -0.01674173 0.00295202 0.00000000
v -0.01642074 0.00439992 0.00000000
v -0.01597477 0.00581434 0.00000000
v -0.01540723 0.00718451 0.00000000
v -0.01472243 0.00850000 0.00000000
v -0.01392558 0.00975080 0.00000000
v -0.01302276 0.01092739 0.00000000
v -0.01202082 0.01202082 0.00000000
v -0.01092739 0.01302276 0.00000000
v -0.00975080 0.01392558 0.00000000
v -0.00850000 0.01472243 0.00000000
v -0.00718451 0.01540723 0.00000000
v -0.00581434 0.01597477 0.00000000
v -0.00439992 0.01642074 0.00000000
v -0.00295202 0.01674173 0.00000000
v -0.00148165 0.01693531 0.00000000
v 0.00000000 0.01700000 0.00000000
v 0.00148165 0.01693531 0.00000000
v 0.00295202 0.01674173 0.00000000
v 0.00439992 0.01642074 0.00000000
v 0.00581434 0.01597477 0.00000000
v 0.00718451 0.01540723 0.00000000
v 0.00850000 0.01472243 0.00000000
v 0.00975080 0.01392558 0.00000000
v 0.01092739 0.01302276 0.00000000
v 0.01202082 0.01202082 0.00000000
v 0.01302276 0.01092739 0.00000000
v 0.01392558 0.00975080 0.00000000
v 0.01472243 0.00850000 0.00000000
v 0.01540723 0.00718451 0.00000000
v 0.01674173 0.00295202 0.00600000
v 0.01693531 0.00148165 0.00600000
v 0.01700000 -0.00000000 0.00600000
v 0.01693531 -0.00148165 0.00600000
v 0.01674173 -0.00295202 0.00600000
v 0.00295202 0.01674173 0.00600000
v 0.00148165 0.01693531 0.00600000
v -0.00295202 0.01674173 0.00600000
v -0.00148165 0.01693531 0.00600000
v 0.00000000 0.01700000 0.00600000
v 0.01642074 0.00439992 0.00600000
v 0.01597477 0.00581434 0.00600000
v 0.01540723 0.00718451 0.00600000
v 0.01472243 0.00850000 0.00600000
v 0.01392558 0.00975080 0.00600000
v 0.01302276 0.01092739 0.00600000
v 0.01202082 0.01202082 0.00600000
v 0.01092739 0.01302276 0.00600000
v 0.00975080 0.01392558 0.00600000
v 0.00850000 0.01472243 0.00600000
v 0.00718451 0.01540723 0.00600000
v 0.00581434 0.01597477 0.00600000
v 0.00439992 0.01642074 0.00600000
v -0.00439992 0.01642074 0.00600000
v -0.00581434 0.01597477 0.00600000
v -0.00718451 0.01540723 0.00600000
v -0.00850000 0.01472243 0.00600000
v -0.00975080 0.01392558 0.00600000
v -0.01092739 0.01302276 0.00600000
v -0.01202082 0.01202082 0.00600000
v -0.01302276 0.01092739 0.00600000
v -0.01392558 0.00975080 0.00600000
v -0.01472243 0.00850000 0.00600000
v -0.01540723 0.00718451 0.00600000
v -0.01597477 0.00581434 0.00600000
v -0.01642074 0.00439992 0.00600000
v -0.01674173 0.00295202 0.00600000
v -0.01693531 0.00148165 0.00600000
v -0.01700000 0.00000000 0.00600000
v -0.01693531 -0.00148165 0.00600000
v -0.01674173 -0.00295202 0.00600000
v -0.01642074 -0.00439992 0.00600000
v -0.01597477 -0.00581434 0.00600000
v -0.01540723 -0.00718451 0.00600000
v -0.01472243 -0.00850000 0.00600000
v -0.01392558 -0.00975080 0.00600000
v -0.01302276 -0.01092739 0.00600000
v -0.01202082 -0.01202082 0.00600000
v -0.01092739 -0.01302276 0.00600000
v -0.00975080 -0.01392558 0.00600000
v -0.00850000 -0.01472243 0.00600000
v -0.00718451 -0.01540723 0.00600000
v -0.00581434 -0.01597477 0.00600000
v -0.00439992 -0.01642074 0.00600000
v -0.00295202 -0.01674173 0.00600000
v -0.00148165 -0.01693531 0.00600000
v -0.00000000 -0.01700000 0.00600000
v 0.00148165 -0.01693531 0.00600000
v 0.00295202 -0.01674173 0.00600000
v 0.00439992 -0.01642074 0.00600000
v 0.00581434 -0.01597477 0.00600000
v 0.00718451 -0.01540723 0.00600000
v 0.00850000 -0.01472243 0.00600000
v 0.00975080 -0.01392558 0.00600000
v 0.01092739 -0.01302276 0.00600000
v 0.01202082 -0.01202082 0.00600000
v 0.01302276 -0.01092739 0.00600000
v 0.01392558 -0.00975080 0.00600000
v 0.01472243 -0.00850000 0.00600000
v 0.01540723 -0.00718451 0.00600000
v 0.01597477 -0.00581434 0.00600000
v 0.01642074 -0.00439992 0.00600000
v 0.01112135 -0.01926275 0.00600000
v 0.00940017 -0.02015874 0.00600000
v 0.00760745 -0.02090131 0.00600000
v 0.00575684 -0.02148481 0.00600000
v 0.00386241 -0.02190479 0.00600000
v 0.00193858 -0.02215807 0.00600000
v 0.00000000 -0.02224271 0.00600000
v -0.00193858 -0.02215807 0.00600000
v -0.00386241 -0.02190479 0.00600000
v -0.00575684 -0.02148481 0.00600000
v -0.00760745 -0.02090131 0.00600000
v -0.00940017 -0.02015874 0.00600000
v -0.01112135 -0.01926275 0.00600000
v -0.01275789 -0.01822016 0.00600000
v -0.01429734 -0.01703890 0.00600000
v -0.01572797 -0.01572797 0.00600000
v -0.01703890 -0.01429734 0.00600000
v -0.01822016 -0.01275789 0.00600000
v -0.01926275 -0.01112135 0.00600000
v -0.02015874 -0.00940017 0.00600000
v -0.02090131 -0.00760745 0.00600000
v -0.02148481 -0.00575684 0.00600000
v -0.02190479 -0.00386241 0.00600000
v -0.02215807 -0.00193858 0.00600000
v -0.02224271 -0.00000000 0.00600000
v -0.02215807 0.00193858 0.00600000
v -0.02190479 0.00386241 0.00600000
v -0.02148481 0.00575684 0.00600000
v -0.02090131 0.00760745 0.00600000
v -0.02015874 0.00940017 0.00600000
v -0.01926275 0.01112135 0.00600000
v -0.01822016 0.01275789 0.00600000
v -0.01703890 0.01429734 0.00600000
v -0.01572797 0.01572797 0.00600000
v -0.01429734 0.01703890 0.00600000
v -0.01275789 0.01822016 0.00600000
v -0.01112135 0.01926275 0.00600000
v -0.00940017 0.02015874 0.00600000
v -0.00760745 0.02090131 0.00600000
v -0.00575684 0.02148481 0.00600000
v -0.00386241 0.02190479 0.00600000
v -0.00193858 0.02215807 0.00600000
v -0.00000000 0.02224271 0.00600000
v 0.00193858 0.02215807 0.00600000
v 0.00386241 0.02190479 0.00600000
v 0.00575684 0.02148481 0.00600000
v 0.00760745 0.02090131 0.00600000
v 0.00940017 0.02015874 0.00600000
v 0.01112135 0.01926275 0.00600000
v 0.01275789 0.01822016 0.00600000
v 0.01429734 0.01703890 0.00600000
v 0.01572797 0.01572797 0.00600000
v 0.01703890 0.01429734 0.00600000
v 0.01822016 0.01275789 0.00600000
v 0.01926275 0.01112135 0.00600000
v 0.02015874 0.00940017 0.00600000
v 0.02090131 0.00760745 0.00600000
v 0.02148481 0.00575684 0.00600000
v 0.02190479 0.00386241 0.00600000
v 0.02215807 0.00193858 0.00600000
v 0.02224271 0.00000000 0.00600000
v 0.02215807 -0.00193858 0.00600000
v 0.02190479 -0.00386241 0.00600000
v 0.02148481 -0.00575684 0.00600000
v 0.02090131 -0.00760745 0.00600000
v 0.02015874 -0.00940017 0.00600000
v 0.01926275 -0.01112135 0.00600000
v 0.01822016 -0.01275789 0.00600000
v 0.01703890 -0.01429734 0.00600000
v 0.01572797 -0.01572797 0.00600000
v 0.01429734 -0.01703890 0.00600000
v 0.01275789 -0.01822016 0.00600000
v -0.00000000 -0.02000000 0.02510000
v 0.00174311 -0.01992389 0.00790000
v 0.00174311 -0.01992389 0.02510000
v 0.00347296 -0.01969616 0.00790000
v 0.00347296 -0.01969616 0.02510000
v 0.00517638 -0.01931852 0.00790000
v 0.00517638 -0.01931852 0.02510000
v 0.00684040 -0.01879385 0.00790000
v 0.00684040 -0.01879385 0.02510000
v 0.00845237 -0.01812616 0.00790000
v 0.00845237 -0.01812616 0.02510000
v 0.01000000 -0.01732051 0.00790000
v 0.01000000 -0.01732051 0.02510000
v 0.01147153 -0.01638304 0.00790000
v 0.01147153 -0.01638304 0.02510000
v 0.01285575 -0.01532089 0.00790000
v 0.01285575 -0.01532089 0.02510000
v 0.01414214 -0.01414214 0.00790000
v 0.01414214 -0.01414214 0.02510000
v 0.01532089 -0.01285575 0.00790000
v 0.01532089 -0.01285575 0.02510000
v 0.01638304 -0.01147153 0.00790000
v 0.01638304 -0.01147153 0.02510000
v 0.01732051 -0.01000000 0.00790000
v 0.01732051 -0.01000000 0.02510000
v 0.01812616 -0.00845237 0.00790000
v 0.01812616 -0.00845237 0.02510000
v 0.01879385 -0.00684040 0.00790000
v 0.01879385 -0.00684040 0.02510000
v 0.01931852 -0.00517638 0.00790000
v 0.01931852 -0.00517638 0.02510000
v 0.01969616 -0.00347296 0.00790000
v 0.01969616 -0.00347296 0.02510000
v 0.01992389 -0.00174311 0.00790000
v 0.01992389 -0.00174311 0.02510000
v 0.02000000 -0.00000000 0.00790000
v 0.02000000 0.00000000 0.02510000
v 0.01992389 0.00174311 0.00790000
v 0.01992389 0.00174311 0.02510000
v 0.01969616 0.00347296 0.00790000
v 0.01969616 0.00347296 0.02510000
v 0.01931852 0.00517638 0.00790000
v 0.01931852 0.00517638 0.02510000
v 0.01879385 0.00684040 0.00790000
v 0.01879385 0.00684040 0.02510000
v 0.01812616 0.00845237 0.00790000
v 0.01812616 0.00845237 0.02510000
v 0.01732051 0.01000000 0.00790000
v 0.01732051 0.01000000 0.02510000
v 0.01638304 0.01147153 0.00790000
v 0.01638304 0.01147153 0.02510000
v 0.01532089 0.01285575 0.00790000
v 0.01532089 0.01285575 0.02510000
v 0.01414214 0.01414214 0.00790000
v 0.01414214 0.01414214 0.02510000
v 0.01285575 0.01532089 0.00790000
v 0.01285575 0.01532089 0.02510000
v 0.01147153 0.01638304 0.00790000
v 0.01147153 0.01638304 0.02510000
v 0.01000000 0.01732051 0.00790000
v 0.01000000 0.01732051 0.02510000
v 0.00845237 0.01812616 0.00790000
v 0.00845237 0.01812616 0.02510000
v 0.00684040 0.01879385 0.00790000
v 0.00684040 0.01879385 0.02510000
v 0.00517638 0.01931852 0.00790000
v 0.00517638 0.01931852 0.02510000
v 0.00347296 0.01969616 0.00790000
v 0.00347296 0.01969616 0.02510000
v 0.00174311 0.01992389 0.00790000
v 0.00174311 0.01992389 0.02510000
v 0.00000000 0.02000000 0.00790000
v 0.00000000 0.02000000 0.02510000
v -0.00174311 0.01992389 0.00790000
v -0.00174311 0.01992389 0.02510000
v -0.00347296 0.01969616 0.00790000
v -0.00347296 0.01969616 0.02510000
v -0.00517638 0.01931852 0.00790000
v -0.00517638 0.01931852 0.02510000
v -0.00684040 0.01879385 0.00790000
v -0.00684040 0.01879385 0.02510000
v -0.00845237 0.01812616 0.00790000
v -0.00845237 0.01812616 0.02510000
v -0.01000000 0.01732051 0.00790000
v -0.01000000 0.01732051 0.02510000
v -0.01147153 0.01638304 0.00790000
v -0.01147153 0.01638304 0.02510000
v -0.01285575 0.01532089 0.00790000
v -0.01285575 0.01532089 0.02510000
v -0.01414214 0.01414214 0.00790000
v -0.01414214 0.01414214 0.02510000
v -0.01532089 0.01285575 0.00790000
v -0.01532089 0.01285575 0.02510000
v -0.01638304 0.01147153 0.00790000
v -0.01638304 0.01147153 0.02510000
v -0.01732051 0.01000000 0.00790000
v -0.01732051 0.01000000 0.02510000
v -0.01812616 0.00845237 0.00790000
v -0.01812616 0.00845237 0.02510000
v -0.01879385 0.00684040 0.00790000
v -0.01879385 0.00684040 0.02510000
v -0.01931852 0.00517638 0.00790000
v -0.01931852 0.00517638 0.02510000
v -0.01969616 0.00347296 0.00790000
v -0.01969616 0.00347296 0.02510000
v -0.01992389 0.00174311 0.00790000
v -0.01992389 0.00174311 0.02510000
v -0.02000000 0.00000000 0.00790000
v -0.02000000 0.00000000 0.02510000
v -0.01992389 -0.00174311 0.00790000
v -0.01992389 -0.00174311 0.02510000
v -0.01969616 -0.00347296 0.00790000
v -0.01969616 -0.00347296 0.02510000
v -0.01931852 -0.00517638 0.00790000
v -0.01931852 -0.00517638 0.02510000
v -0.01879385 -0.00684040 0.00790000
v -0.01879385 -0.00684040 0.02510000
v -0.01812616 -0.00845237 0.00790000
v -0.01812616 -0.00845237 0.02510000
v -0.01732051 -0.01000000 0.00790000
v -0.01732051 -0.01000000 0.02510000
v -0.01638304 -0.01147153 0.00790000
v -0.01638304 -0.01147153 0.02510000
v -0.01532089 -0.01285575 0.00790000
v -0.01532089 -0.01285575 0.02510000
v -0.01414214 -0.01414214 0.00790000
v -0.01414214 -0.01414214 0.02510000
v -0.01285575 -0.01532089 0.00790000
v -0.01285575 -0.01532089 0.02510000
v -0.01147153 -0.01638304 0.00790000
v -0.01147153 -0.01638304 0.02510000
v -0.01000000 -0.01732051 0.00790000
v -0.01000000 -0.01732051 0.02510000
v -0.00845237 -0.01812616 0.00790000
v -0.00845237 -0.01812616 0.02510000
v -0.00684040 -0.01879385 0.00790000
v -0.00684040 -0.01879385 0.02510000
v -0.00517638 -0.01931852 0.00790000
v -0.00517638 -0.01931852 0.02510000
v -0.00347296 -0.01969616 0.00790000
v -0.00347296 -0.01969616 0.02510000
v -0.00174311 -0.01992389 0.00790000
v -0.00174311 -0.01992389 0.02510000
v -0.00000000 -0.02000000 0.00790000
v -0.01295005 -0.01849459 0.00790000
v -0.01128886 -0.01955289 0.00790000
v -0.00954176 -0.02046237 0.00790000
v -0.00772204 -0.02121612 0.00790000
v -0.00584355 -0.02180841 0.00790000
v -0.00392058 -0.02223472 0.00790000
v -0.00196778 -0.02249181 0.00790000
v 0.00000000 -0.02257773 0.00790000
v 0.00196778 -0.02249181 0.00790000
v 0.00392058 -0.02223472 0.00790000
v 0.00584355 -0.02180841 0.00790000
v 0.00772204 -0.02121612 0.00790000
v 0.00954176 -0.02046237 0.00790000
v 0.01128886 -0.01955289 0.00790000
v 0.01295005 -0.01849459 0.00790000
v 0.01451268 -0.01729554 0.00790000
v 0.01596486 -0.01596486 0.00790000
v 0.01729554 -0.01451268 0.00790000
v 0.01849459 -0.01295005 0.00790000
v 0.01955289 -0.01128886 0.00790000
v 0.02046237 -0.00954176 0.00790000
v 0.02121612 -0.00772204 0.00790000
v 0.02180841 -0.00584355 0.00790000
v 0.02223472 -0.00392058 0.00790000
v 0.02249181 -0.00196778 0.00790000
v 0.02257773 0.00000000 0.00790000
v 0.02249181 0.00196778 0.00790000
v 0.02223472 0.00392058 0.00790000
v 0.02180841 0.00584355 0.00790000
v 0.02121612 0.00772204 0.00790000
v 0.02046237 0.00954176 0.00790000
v 0.01955289 0.01128886 0.00790000
v 0.01849459 0.01295005 0.00790000
v 0.01729554 0.01451268 0.00790000
v 0.01596486 0.01596486 0.00790000
v 0.01451268 0.01729554 0.00790000
v 0.01295005 0.01849459 0.00790000
v 0.01128886 0.01955289 0.00790000
v 0.00954176 0.02046237 0.00790000
v 0.00772204 0.02121612 0.00790000
v 0.00584355 0.02180841 0.00790000
v 0.00392058 0.02223472 0.00790000
v 0.00196778 0.02249181 0.00790000
v -0.00000000 0.02257773 0.00790000
v -0.00196778 0.02249181 0.00790000
v -0.00392058 0.02223472 0.00790000
v -0.00584355 0.02180841 0.00790000
v -0.00772204 0.02121612 0.00790000
v -0.00954176 0.02046237 0.00790000
v -0.01128886 0.01955289 0.00790000
v -0.01295005 0.01849459 0.00790000
v -0.01451268 0.01729554 0.00790000
v -0.01596486 0.01596486 0.00790000
v -0.01729554 0.01451268 0.00790000
v -0.01849459 0.01295005 0.00790000
v -0.01955289 0.01128886 0.00790000
v -0.02046237 0.00954176 0.00790000
v -0.02121612 0.00772204 0.00790000
v -0.02180841 0.00584355 0.00790000
v -0.02223472 0.00392058 0.00790000
v -0.02249181 0.00196778 0.00790000
v -0.02257773 -0.00000000 0.00790000
v -0.02249181 -0.00196778 0.00790000
v -0.02223472 -0.00392058 0.00790000
v -0.02180841 -0.00584355 0.00790000
v -0.02121612 -0.00772204 0.00790000
v -0.02046237 -0.00954176 0.00790000
v -0.01955289 -0.01128886 0.00790000
v -0.01849459 -0.01295005 0.00790000
v -0.01729554 -0.01451268 0.00790000
v -0.01596486 -0.01596486 0.00790000
v -0.01451268 -0.01729554 0.00790000
v -0.00000000 -0.02500000 0.00701836
v -0.00217889 -0.02490487 0.00701836
v -0.00434120 -0.02462019 0.00701836
v -0.00647048 -0.02414815 0.00701836
v -0.00855050 -0.02349232 0.00701836
v -0.01056546 -0.02265769 0.00701836
v -0.01250000 -0.02165063 0.00701836
v -0.01433941 -0.02047880 0.00701836
v -0.01606969 -0.01915111 0.00701836
v -0.01767767 -0.01767767 0.00701836
v -0.01915111 -0.01606969 0.00701836
v -0.02047880 -0.01433941 0.00701836
v -0.02165063 -0.01250000 0.00701836
v -0.02265769 -0.01056546 0.00701836
v -0.02349232 -0.00855050 0.00701836
v -0.02414815 -0.00647048 0.00701836
v -0.02462019 -0.00434120 0.00701836
v -0.02490487 -0.00217889 0.00701836
v -0.02500000 0.00000000 0.00701836
v -0.02490487 0.00217889 0.00701836
v -0.02462019 0.00434120 0.00701836
v -0.02414815 0.00647048 0.00701836
v -0.02349232 0.00855050 0.00701836
v -0.02265769 0.01056546 0.00701836
v -0.02165063 0.01250000 0.00701836
v -0.02047880 0.01433941 0.00701836
v -0.01915111 0.01606969 0.00701836
v -0.01767767 0.01767767 0.00701836
v -0.01606969 0.01915111 0.00701836
v -0.01433941 0.02047880 0.00701836
v -0.01250000 0.02165063 0.00701836
v -0.01056546 0.02265769 0.00701836
v -0.00855050 0.02349232 0.00701836
v -0.00647048 0.02414815 0.00701836
v -0.00434120 0.02462019 0.00701836
v -0.00217889 0.02490487 0.00701836
v 0.00000000 0.02500000 0.00701836
v 0.00217889 0.02490487 0.00701836
v 0.00434120 0.02462019 0.00701836
v 0.00647048 0.02414815 0.00701836
v 0.00855050 0.02349232 0.00701836
v 0.01056546 0.02265769 0.00701836
v 0.01250000 0.02165063 0.00701836
v 0.01433941 0.02047880 0.00701836
v 0.01606969 0.01915111 0.00701836
v 0.01767767 0.01767767 0.00701836
v 0.01915111 0.01606969 0.00701836
v 0.02047880 0.01433941 0.00701836
v 0.02165063 0.01250000 0.00701836
v 0.02265769 0.01056546 0.00701836
v 0.02349232 0.00855050 0.00701836
v 0.02414815 0.00647048 0.00701836
v 0.02462019 0.00434120 0.00701836
v 0.02490487 0.00217889 0.00701836
v 0.02500000 -0.00000000 0.00701836
v 0.02490487 -0.00217889 0.00701836
v 0.02462019 -0.00434120 0.00701836
v 0.02414815 -0.00647048 0.00701836
v 0.02349232 -0.00855050 0.00701836
v 0.02265769 -0.01056546 0.00701836
v 0.02165063 -0.01250000 0.00701836
v 0.02047880 -0.01433941 0.00701836
v 0.01915111 -0.01606969 0.00701836
v 0.01767767 -0.01767767 0.00701836
v 0.01606969 -0.01915111 0.00701836
v 0.01433941 -0.02047880 0.00701836
v 0.01250000 -0.02165063 0.00701836
v 0.01056546 -0.02265769 0.00701836
v 0.00855050 -0.02349232 0.00701836
v 0.00647048 -0.02414815 0.00701836
v 0.00434120 -0.02462019 0.00701836
v 0.00217889 -0.02490487 0.00701836
v 0.00212226 -0.02425750 0.00523295
v 0.00422836 -0.02398023 0.00523295
v 0.00630229 -0.02352045 0.00523295
v 0.00832825 -0.02288167 0.00523295
v 0.01029082 -0.02206874 0.00523295
v 0.01217508 -0.02108786 0.00523295
v 0.01396668 -0.01994648 0.00523295
v 0.01565198 -0.01865331 0.00523295
v 0.01721817 -0.01721817 0.00523295
v 0.01865331 -0.01565198 0.00523295
v 0.01994648 -0.01396668 0.00523295
v 0.02108786 -0.01217508 0.00523295
v 0.02206874 -0.01029082 0.00523295
v 0.02288167 -0.00832825 0.00523295
v 0.02352045 -0.00630229 0.00523295
v 0.02398023 -0.00422836 0.00523295
v 0.02425750 -0.00212226 0.00523295
v 0.02435016 0.00000000 0.00523295
v 0.02425750 0.00212226 0.00523295
v 0.02398023 0.00422836 0.00523295
v 0.02352045 0.00630229 0.00523295
v 0.02288167 0.00832825 0.00523295
v 0.02206874 0.01029082 0.00523295
v 0.02108786 0.01217508 0.00523295
v 0.01994648 0.01396668 0.00523295
v 0.01865331 0.01565198 0.00523295
v 0.01721817 0.01721817 0.00523295
v 0.01565198 0.01865331 0.00523295
v 0.01396668 0.01994648 0.00523295
v 0.01217508 0.02108786 0.00523295
v 0.01029082 0.02206874 0.00523295
v 0.00832825 0.02288167 0.00523295
v 0.00630229 0.02352045 0.00523295
v 0.00422836 0.02398023 0.00523295
v 0.00212226 0.02425750 0.00523295
v -0.00000000 0.02435016 0.00523295
v -0.00212226 0.02425750 0.00523295
v -0.00422836 0.02398023 0.00523295
v -0.00630229 0.02352045 0.00523295
v -0.00832825 0.02288167 0.00523295
v -0.01029082 0.02206874 0.00523295
v -0.01217508 0.02108786 0.00523295
v -0.01396668 0.01994648 0.00523295
v -0.01565198 0.01865331 0.00523295
v -0.01721817 0.01721817 0.00523295
v -0.01865331 0.01565198 0.00523295
v -0.01994648 0.01396668 0.00523295
v -0.02108786 0.01217508 0.00523295
v -0.02206874 0.01029082 0.00523295
v -0.02288167 0.00832825 0.00523295
v -0.02352045 0.00630229 0.00523295
v -0.02398023 0.00422836 0.00523295
v -0.02425750 0.00212226 0.00523295
v -0.02435016 -0.00000000 0.00523295
v -0.02425750 -0.00212226 0.00523295
v -0.02398023 -0.00422836 0.00523295
v -0.02352045 -0.00630229 0.00523295
v -0.02288167 -0.00832825 0.00523295
v -0.02206874 -0.01029082 0.00523295
v -0.02108786 -0.01217508 0.00523295
v -0.01994648 -0.01396668 0.00523295
v -0.01865331 -0.01565198 0.00523295
v -0.01721817 -0.01721817 0.00523295
v -0.01565198 -0.01865331 0.00523295
v -0.01396668 -0.01994648 0.00523295
v -0.01217508 -0.02108786 0.00523295
v -0.01029082 -0.02206874 0.00523295
v -0.00832825 -0.02288167 0.00523295
v -0.00630229 -0.02352045 0.00523295
v -0.00422836 -0.02398023 0.00523295
v -0.00212226 -0.02425750 0.00523295
v 0.00000000 -0.02435016 0.00523295
f 1 2 3
f 4 5 6
f 7 8 9
f 8 10 9
f 9 10 11
f 10 12 11
f 11 12 13
f 12 14 13
f 13 14 15
f 14 16 15
f 15 16 17
f 16 18 17
f 17 18 19
f 18 20 19
f 19 20 21
f 20 22 21
f 21 22 23
f 22 24 23
f 23 24 25
f 24 26 25
f 25 26 27
f 26 28 27
f 27 28 29
f 28 30 29
f 29 30 31
f 30 32 31
f 31 32 33
f 32 34 33
f 33 34 35
f 34 36 35
f 35 36 37
f 36 38 37
f 36 39 38
f 39 40 38
f 38 40 41
f 40 42 41
f 40 43 42
f 43 44 42
f 42 44 45
f 44 46 45
f 45 46 47
f 47 46 48
f 46 49 48
f 48 49 50
f 49 51 50
f 50 51 52
f 51 53 52
f 52 53 54
f 53 55 54
f 54 55 56
f 55 57 56
f 56 57 58
f 57 59 58
f 58 59 60
f 59 61 60
f 60 61 62
f 61 63 62
f 62 63 64
f 63 65 64
f 64 65 66
f 65 67 66
f 66 67 68
f 67 69 68
f 68 69 70
f 71 72 73
f 72 74 73
f 73 74 75
f 74 76 75
f 75 76 77
f 76 78 77
f 77 78 79
f 78 80 79
f 79 80 81
f 80 82 81
f 81 82 83
f 82 84 83
f 83 84 85
f 84 86 85
f 85 86 87
f 86 88 87
f 87 88 89
f 88 90 89
f 89 90 91
f 90 92 91
f 91 92 93
f 92 94 93
f 93 94 95
f 94 96 95
f 95 96 97
f 96 70 97
f 97 70 98
f 70 69 98
f 5 4 99
f 4 100 99
f 99 100 101
f 100 102 101
f 101 102 71
f 102 103 71
f 71 103 72
f 104 105 106
f 105 107 106
f 106 107 108
f 107 109 108
f 108 109 110
f 109 111 110
f 110 111 112
f 111 113 112
f 112 113 114
f 113 115 114
f 114 115 116
f 115 117 116
f 116 117 118
f 117 119 118
f 118 119 120
f 119 121 120
f 120 121 122
f 121 123 122
f 122 123 124
f 123 125 124
f 124 125 126
f 125 127 126
f 126 127 128
f 127 129 128
f 128 129 6
f 129 130 6
f 6 130 4
f 131 132 133
f 132 134 133
f 133 134 135
f 134 136 135
f 135 136 137
f 136 138 137
f 137 138 139
f 138 140 139
f 139 140 141
f 140 142 141
f 141 142 143
f 142 144 143
f 143 144 145
f 144 146 145
f 145 146 147
f 146 148 147
f 147 148 149
f 148 150 149
f 149 150 151
f 150 152 151
f 151 152 153
f 152 154 153
f 153 154 155
f 154 156 155
f 155 156 157
f 156 158 157
f 157 158 159
f 158 160 159
f 159 160 104
f 160 161 104
f 104 161 105
f 133 162 131
f 162 163 131
f 131 163 164
f 163 165 164
f 163 166 165
f 166 167 165
f 165 167 168
f 167 169 168
f 168 169 170
f 170 169 171
f 169 172 171
f 171 172 173
f 172 174 173
f 173 174 175
f 174 176 175
f 175 176 177
f 176 178 177
f 177 178 179
f 178 180 179
f 179 180 181
f 180 182 181
f 181 182 183
f 182 184 183
f 183 184 185
f 184 186 185
f 185 186 187
f 186 188 187
f 187 188 189
f 188 190 189
f 189 190 191
f 190 192 191
f 191 192 193
f 194 195 196
f 195 197 196
f 196 197 198
f 197 199 198
f 198 199 200
f 199 201 200
f 200 201 202
f 201 203 202
f 202 203 204
f 203 205 204
f 204 205 206
f 205 207 206
f 206 207 208
f 207 209 208
f 208 209 210
f 209 211 210
f 210 211 212
f 211 213 212
f 212 213 214
f 213 215 214
f 214 215 216
f 215 217 216
f 216 217 218
f 217 219 218
f 218 219 220
f 219 193 220
f 220 193 221
f 193 192 221
f 2 1 222
f 1 223 222
f 222 223 224
f 223 225 224
f 224 225 194
f 225 226 194
f 194 226 195
f 7 227 8
f 227 228 8
f 8 228 229
f 228 230 229
f 229 230 231
f 230 232 231
f 231 232 233
f 232 234 233
f 233 234 235
f 234 236 235
f 235 236 237
f 236 238 237
f 237 238 239
f 238 240 239
f 239 240 241
f 240 242 241
f 241 242 243
f 242 244 243
f 243 244 245
f 244 246 245
f 245 246 247
f 246 248 247
f 247 248 249
f 248 250 249
f 249 250 251
f 250 252 251
f 251 252 3
f 252 253 3
f 3 253 1
f 254 255 256
f 257 258 259
f 260 261 262
f 261 263 262
f 262 263 264
f 263 265 264
f 264 265 266
f 265 267 266
f 266 267 268
f 267 269 268
f 268 269 270
f 269 271 270
f 270 271 272
f 271 273 272
f 272 273 274
f 273 275 274
f 274 275 276
f 275 277 276
f 276 277 278
f 277 279 278
f 278 279 280
f 279 281 280
f 280 281 282
f 281 283 282
f 282 283 284
f 283 285 284
f 284 285 286
f 285 287 286
f 286 287 288
f 287 289 288
f 288 289 290
f 262 291 260
f 291 292 260
f 260 292 293
f 292 294 293
f 292 295 294
f 295 296 294
f 294 296 297
f 296 298 297
f 297 298 299
f 299 298 300
f 298 301 300
f 300 301 302
f 301 303 302
f 302 303 304
f 303 305 304
f 304 305 306
f 305 307 306
f 306 307 308
f 307 309 308
f 308 309 310
f 309 311 310
f 310 311 312
f 311 313 312
f 312 313 314
f 313 315 314
f 314 315 316
f 315 317 316
f 316 317 318
f 317 319 318
f 318 319 320
f 319 321 320
f 320 321 322
f 323 324 325
f 324 326 325
f 325 326 327
f 326 328 327
f 327 328 329
f 328 330 329
f 329 330 331
f 330 332 331
f 331 332 333
f 332 334 333
f 333 334 335
f 334 336 335
f 335 336 337
f 336 338 337
f 337 338 339
f 338 340 339
f 339 340 341
f 340 342 341
f 341 342 343
f 342 344 343
f 343 344 345
f 344 346 345
f 345 346 347
f 346 348 347
f 347 348 349
f 348 322 349
f 349 322 350
f 322 321 350
f 258 257 351
f 257 352 351
f 351 352 353
f 352 354 353
f 353 354 323
f 354 355 323
f 323 355 324
f 356 357 358
f 357 359 358
f 358 359 360
f 359 361 360
f 360 361 362
f 361 363 362
f 362 363 364
f 363 365 364
f 364 365 366
f 365 367 366
f 366 367 368
f 367 369 368
f 368 369 370
f 369 371 370
f 370 371 372
f 371 373 372
f 372 373 374
f 373 375 374
f 374 375 376
f 375 377 376
f 376 377 378
f 377 379 378
f 378 379 380
f 379 381 380
f 380 381 382
f 381 383 382
f 382 383 259
f 383 384 259
f 259 384 257
f 385 386 387
f 386 388 387
f 387 388 389
f 388 390 389
f 389 390 391
f 390 392 391
f 391 392 393
f 392 394 393
f 393 394 395
f 394 396 395
f 395 396 397
f 396 398 397
f 397 398 399
f 398 400 399
f 399 400 401
f 400 402 401
f 401 402 403
f 402 404 403
f 403 404 405
f 404 406 405
f 405 406 407
f 406 408 407
f 407 408 409
f 408 410 409
f 409 410 411
f 410 412 411
f 411 412 413
f 412 414 413
f 413 414 356
f 414 415 356
f 356 415 357
f 387 416 385
f 416 417 385
f 385 417 418
f 417 419 418
f 417 420 419
f 420 421 419
f 419 421 422
f 421 423 422
f 422 423 424
f 424 423 425
f 423 426 425
f 425 426 427
f 426 428 427
f 427 428 429
f 428 430 429
f 429 430 431
f 430 432 431
f 431 432 433
f 432 434 433
f 433 434 435
f 434 436 435
f 435 436 437
f 436 438 437
f 437 438 439
f 438 440 439
f 439 440 441
f 440 442 441
f 441 442 443
f 442 444 443
f 443 444 445
f 444 446 445
f 445 446 447
f 448 449 450
f 449 451 450
f 450 451 452
f 451 453 452
f 452 453 454
f 453 455 454
f 454 455 456
f 455 457 456
f 456 457 458
f 457 459 458
f 458 459 460
f 459 461 460
f 460 461 462
f 461 463 462
f 462 463 464
f 463 465 464
f 464 465 466
f 465 467 466
f 466 467 468
f 467 469 468
f 468 469 470
f 469 471 470
f 470 471 472
f 471 473 472
f 472 473 474
f 473 447 474
f 474 447 475
f 447 446 475
f 255 254 476
f 254 477 476
f 476 477 478
f 477 479 478
f 478 479 448
f 479 480 448
f 448 480 449
f 481 482 483
f 482 484 483
f 483 484 485
f 484 486 485
f 485 486 487
f 486 488 487
f 487 488 489
f 488 490 489
f 489 490 491
f 490 492 491
f 491 492 493
f 492 494 493
f 493 494 495
f 494 496 495
f 495 496 497
f 496 498 497
f 497 498 499
f 498 500 499
f 499 500 501
f 500 502 501
f 501 502 256
f 502 503 256
f 256 503 254
f 289 504 290
f 504 505 290
f 290 505 506
f 505 507 506
f 506 507 481
f 507 508 481
f 481 508 482
f 509 510 511
f 510 512 511
f 511 512 513
f 512 514 513
f 513 514 515
f 514 516 515
f 515 516 517
f 516 518 517
f 517 518 519
f 518 520 519
f 519 520 521
f 520 522 521
f 521 522 523
f 522 524 523
f 523 524 525
f 524 526 525
f 525 526 527
f 526 528 527
f 527 528 529
f 528 530 529
f 529 530 531
f 530 532 531
f 531 532 533
f 532 534 533
f 533 534 535
f 534 536 535
f 535 536 537
f 536 538 537
f 537 538 539
f 538 540 539
f 539 540 541
f 540 542 541
f 541 542 543
f 542 544 543
f 543 544 545
f 544 546 545
f 545 546 547
f 546 548 547
f 547 548 549
f 548 550 549
f 549 550 551
f 550 552 551
f 551 552 553
f 552 554 553
f 553 554 555
f 554 556 555
f 555 556 557
f 556 558 557
f 557 558 559
f 558 560 559
f 559 560 561
f 560 562 561
f 561 562 563
f 562 564 563
f 563 564 565
f 564 566 565
f 565 566 567
f 566 568 567
f 567 568 569
f 568 570 569
f 569 570 571
f 570 572 571
f 571 572 573
f 572 574 573
f 573 574 575
f 574 576 575
f 575 576 577
f 576 578 577
f 577 578 579
f 578 580 579
f 579 580 581
f 580 582 581
f 581 582 583
f 582 584 583
f 583 584 585
f 584 586 585
f 585 586 587
f 586 588 587
f 587 588 589
f 588 590 589
f 589 590 591
f 590 592 591
f 591 592 593
f 592 594 593
f 593 594 595
f 594 596 595
f 595 596 597
f 596 598 597
f 597 598 599
f 598 600 599
f 599 600 601
f 600 602 601
f 601 602 603
f 602 604 603
f 603 604 605
f 604 606 605
f 605 606 607
f 606 608 607
f 607 608 609
f 608 610 609
f 609 610 611
f 610 612 611
f 611 612 613
f 612 614 613
f 613 614 615
f 614 616 615
f 615 616 617
f 616 618 617
f 617 618 619
f 618 620 619
f 619 620 621
f 620 622 621
f 621 622 623
f 622 624 623
f 623 624 625
f 624 626 625
f 625 626 627
f 626 628 627
f 627 628 629
f 628 630 629
f 629 630 631
f 630 632 631
f 631 632 633
f 632 634 633
f 633 634 635
f 634 636 635
f 635 636 637
f 636 638 637
f 637 638 639
f 638 640 639
f 639 640 641
f 640 642 641
f 641 642 643
f 642 644 643
f 643 644 645
f 644 646 645
f 645 646 647
f 646 648 647
f 647 648 649
f 648 650 649
f 649 650 651
f 650 652 651
f 651 652 509
f 652 510 509
f 509 653 651
f 653 654 651
f 651 654 649
f 654 655 649
f 649 655 647
f 655 656 647
f 647 656 645
f 656 657 645
f 645 657 643
f 657 658 643
f 643 658 641
f 658 659 641
f 641 659 639
f 659 660 639
f 639 660 637
f 660 661 637
f 637 661 635
f 661 662 635
f 635 662 633
f 662 663 633
f 633 663 631
f 663 664 631
f 631 664 629
f 664 665 629
f 629 665 627
f 665 666 627
f 627 666 625
f 666 667 625
f 625 667 623
f 667 668 623
f 623 668 621
f 668 669 621
f 621 669 619
f 669 670 619
f 619 670 617
f 670 671 617
f 617 671 615
f 671 672 615
f 615 672 613
f 672 673 613
f 613 673 611
f 673 674 611
f 611 674 609
f 674 675 609
f 609 675 607
f 675 676 607
f 607 676 605
f 676 677 605
f 605 677 603
f 677 678 603
f 603 678 601
f 678 679 601
f 601 679 599
f 679 680 599
f 599 680 597
f 680 681 597
f 597 681 595
f 681 682 595
f 595 682 593
f 682 683 593
f 593 683 591
f 683 684 591
f 591 684 589
f 684 685 589
f 589 685 587
f 685 686 587
f 587 686 585
f 686 687 585
f 585 687 583
f 687 688 583
f 583 688 581
f 688 689 581
f 581 689 579
f 689 690 579
f 579 690 577
f 690 691 577
f 577 691 575
f 691 692 575
f 575 692 573
f 692 693 573
f 573 693 571
f 693 694 571
f 571 694 569
f 694 695 569
f 569 695 567
f 695 696 567
f 567 696 565
f 696 697 565
f 565 697 563
f 697 698 563
f 563 698 561
f 698 699 561
f 561 699 559
f 699 700 559
f 559 700 557
f 700 701 557
f 557 701 555
f 701 702 555
f 555 702 553
f 702 703 553
f 553 703 551
f 703 704 551
f 551 704 549
f 704 705 549
f 549 705 547
f 705 706 547
f 547 706 545
f 706 707 545
f 545 707 543
f 707 708 543
f 543 708 541
f 708 709 541
f 541 709 539
f 709 710 539
f 539 710 537
f 710 711 537
f 537 711 535
f 711 712 535
f 535 712 533
f 712 713 533
f 533 713 531
f 713 714 531
f 531 714 529
f 714 715 529
f 529 715 527
f 715 716 527
f 527 716 525
f 716 717 525
f 525 717 523
f 717 718 523
f 523 718 521
f 718 719 521
f 521 719 519
f 719 720 519
f 519 720 517
f 720 721 517
f 517 721 515
f 721 722 515
f 515 722 513
f 722 723 513
f 513 723 511
f 723 724 511
f 511 724 509
f 724 653 509
f 725 723 726
f 723 722 726
f 726 722 727
f 722 721 727
f 727 721 728
f 721 720 728
f 728 720 729
f 720 719 729
f 729 719 730
f 719 718 730
f 730 718 731
f 718 717 731
f 731 717 732
f 717 716 732
f 732 716 733
f 716 715 733
f 733 715 734
f 715 714 734
f 734 714 735
f 714 713 735
f 735 713 736
f 713 712 736
f 736 712 737
f 712 711 737
f 737 711 738
f 711 710 738
f 738 710 739
f 710 709 739
f 739 709 740
f 709 708 740
f 740 708 741
f 708 707 741
f 741 707 742
f 707 706 742
f 742 706 743
f 706 705 743
f 743 705 744
f 705 704 744
f 744 704 745
f 704 703 745
f 745 703 746
f 703 702 746
f 746 702 747
f 702 701 747
f 747 701 748
f 701 700 748
f 748 700 749
f 700 699 749
f 749 699 750
f 699 698 750
f 750 698 751
f 698 697 751
f 751 697 752
f 697 696 752
f 752 696 753
f 696 695 753
f 753 695 754
f 695 694 754
f 754 694 755
f 694 693 755
f 755 693 756
f 693 692 756
f 756 692 757
f 692 691 757
f 757 691 758
f 691 690 758
f 758 690 759
f 690 689 759
f 759 689 760
f 689 688 760
f 760 688 761
f 688 687 761
f 761 687 762
f 687 686 762
f 762 686 763
f 686 685 763
f 763 685 764
f 685 684 764
f 764 684 765
f 684 683 765
f 765 683 766
f 683 682 766
f 766 682 767
f 682 681 767
f 767 681 768
f 681 680 768
f 768 680 769
f 680 679 769
f 769 679 770
f 679 678 770
f 770 678 771
f 678 677 771
f 771 677 772
f 677 676 772
f 772 676 773
f 676 675 773
f 773 675 774
f 675 674 774
f 774 674 775
f 674 673 775
f 775 673 776
f 673 672 776
f 776 672 777
f 672 671 777
f 777 671 778
f 671 670 778
f 778 670 779
f 670 669 779
f 779 669 780
f 669 668 780
f 780 668 781
f 668 667 781
f 781 667 782
f 667 666 782
f 782 666 783
f 666 665 783
f 783 665 784
f 665 664 784
f 784 664 785
f 664 663 785
f 785 663 786
f 663 662 786
f 786 662 787
f 662 661 787
f 787 661 788
f 661 660 788
f 788 660 789
f 660 659 789
f 789 659 790
f 659 658 790
f 790 658 791
f 658 657 791
f 791 657 792
f 657 656 792
f 792 656 793
f 656 655 793
f 793 655 794
f 655 654 794
f 794 654 795
f 654 653 795
f 795 653 796
f 653 724 796
f 796 724 725
f 724 723 725
f 797 789 798
f 789 790 798
f 798 790 799
f 790 791 799
f 799 791 800
f 791 792 800
f 800 792 801
f 792 793 801
f 801 793 802
f 793 794 802
f 802 794 803
f 794 795 803
f 803 795 804
f 795 796 804
f 804 796 805
f 796 725 805
f 805 725 806
f 725 726 806
f 806 726 807
f 726 727 807
f 807 727 808
f 727 728 808
f 808 728 809
f 728 729 809
f 809 729 810
f 729 730 810
f 810 730 811
f 730 731 811
f 811 731 812
f 731 732 812
f 812 732 813
f 732 733 813
f 813 733 814
f 733 734 814
f 814 734 815
f 734 735 815
f 815 735 816
f 735 736 816
f 816 736 817
f 736 737 817
f 817 737 818
f 737 738 818
f 818 738 819
f 738 739 819
f 819 739 820
f 739 740 820
f 820 740 821
f 740 741 821
f 821 741 822
f 741 742 822
f 822 742 823
f 742 743 823
f 823 743 824
f 743 744 824
f 824 744 825
f 744 745 825
f 825 745 826
f 745 746 826
f 826 746 827
f 746 747 827
f 827 747 828
f 747 748 828
f 828 748 829
f 748 749 829
f 829 749 830
f 749 750 830
f 830 750 831
f 750 751 831
f 831 751 832
f 751 752 832
f 832 752 833
f 752 753 833
f 833 753 834
f 753 754 834
f 834 754 835
f 754 755 835
f 835 755 836
f 755 756 836
f 836 756 837
f 756 757 837
f 837 757 838
f 757 758 838
f 838 758 839
f 758 759 839
f 839 759 840
f 759 760 840
f 840 760 841
f 760 761 841
f 841 761 842
f 761 762 842
f 842 762 843
f 762 763 843
f 843 763 844
f 763 764 844
f 844 764 845
f 764 765 845
f 845 765 846
f 765 766 846
f 846 766 847
f 766 767 847
f 847 767 848
f 767 768 848
f 848 768 849
f 768 769 849
f 849 769 850
f 769 770 850
f 850 770 851
f 770 771 851
f 851 771 852
f 771 772 852
f 852 772 853
f 772 773 853
f 853 773 854
f 773 774 854
f 854 774 855
f 774 775 855
f 855 775 856
f 775 776 856
f 856 776 857
f 776 777 857
f 857 777 858
f 777 778 858
f 858 778 859
f 778 779 859
f 859 779 860
f 779 780 860
f 860 780 861
f 780 781 861
f 861 781 862
f 781 782 862
f 862 782 863
f 782 783 863
f 863 783 864
f 783 784 864
f 864 784 865
f 784 785 865
f 865 785 866
f 785 786 866
f 866 786 867
f 786 787 867
f 867 787 868
f 787 788 868
f 868 788 797
f 788 789 797
f 68 70 840
f 320 322 822
f 484 482 869
f 484 869 486
f 492 490 869
f 490 488 869
f 869 488 486
f 498 496 869
f 496 494 869
f 869 494 492
f 482 508 869
f 508 507 869
f 869 507 505
f 504 289 827
f 289 287 827
f 827 287 826
f 287 285 826
f 285 283 826
f 826 283 281
f 281 279 826
f 279 277 826
f 826 277 275
f 275 273 826
f 273 271 826
f 826 271 269
f 254 503 870
f 503 502 870
f 870 502 869
f 502 500 869
f 869 500 498
f 449 480 871
f 480 479 871
f 871 479 870
f 479 477 870
f 870 477 254
f 461 459 872
f 459 457 872
f 457 455 872
f 455 453 872
f 872 453 871
f 453 451 871
f 871 451 449
f 469 467 873
f 467 465 873
f 873 465 872
f 465 463 872
f 872 463 461
f 874 447 473
f 874 473 873
f 473 471 873
f 873 471 469
f 439 441 875
f 441 443 875
f 875 443 874
f 443 445 874
f 874 445 447
f 429 431 876
f 429 876 427
f 431 433 876
f 433 435 876
f 876 435 875
f 435 437 875
f 875 437 439
f 419 422 877
f 422 424 877
f 877 424 876
f 424 425 876
f 876 425 427
f 388 386 878
f 386 385 878
f 878 385 877
f 385 418 877
f 877 418 419
f 361 359 817
f 367 365 817
f 365 363 817
f 817 363 361
f 373 371 817
f 371 369 817
f 817 369 367
f 379 377 817
f 377 375 817
f 817 375 373
f 357 415 879
f 408 406 878
f 415 414 879
f 414 412 879
f 879 412 878
f 412 410 878
f 878 410 408
f 406 404 878
f 404 402 878
f 878 402 400
f 400 398 878
f 398 396 878
f 878 396 394
f 394 392 878
f 392 390 878
f 878 390 388
f 257 384 818
f 384 383 818
f 818 383 817
f 383 381 817
f 817 381 379
f 324 355 819
f 355 354 819
f 819 354 818
f 354 352 818
f 818 352 257
f 821 340 820
f 340 338 820
f 338 336 820
f 336 334 820
f 820 334 332
f 332 330 820
f 330 328 820
f 820 328 819
f 328 326 819
f 819 326 324
f 822 322 821
f 322 348 821
f 821 348 346
f 346 344 821
f 344 342 821
f 821 342 340
f 823 312 822
f 312 314 822
f 314 316 822
f 316 318 822
f 822 318 320
f 302 304 824
f 304 306 824
f 306 308 824
f 824 308 823
f 308 310 823
f 823 310 312
f 294 297 825
f 297 299 825
f 825 299 824
f 299 300 824
f 824 300 302
f 269 267 826
f 267 265 826
f 826 265 263
f 263 261 826
f 261 260 826
f 826 260 825
f 260 293 825
f 825 293 294
f 234 232 880
f 234 880 236
f 242 240 880
f 240 238 880
f 880 238 236
f 248 246 880
f 246 244 880
f 880 244 242
f 232 230 880
f 230 228 880
f 880 228 227
f 7 9 845
f 9 11 845
f 845 11 844
f 11 13 844
f 13 15 844
f 844 15 17
f 17 19 844
f 19 21 844
f 844 21 23
f 23 25 844
f 25 27 844
f 844 27 29
f 1 253 881
f 253 252 881
f 881 252 880
f 252 250 880
f 880 250 248
f 195 226 882
f 226 225 882
f 882 225 881
f 225 223 881
f 881 223 1
f 207 205 883
f 205 203 883
f 203 201 883
f 201 199 883
f 883 199 882
f 199 197 882
f 882 197 195
f 215 213 884
f 213 211 884
f 884 211 883
f 211 209 883
f 883 209 207
f 885 193 219
f 885 219 884
f 219 217 884
f 884 217 215
f 185 187 886
f 187 189 886
f 886 189 885
f 189 191 885
f 885 191 193
f 175 177 887
f 175 887 173
f 177 179 887
f 179 181 887
f 887 181 886
f 181 183 886
f 886 183 185
f 165 168 888
f 168 170 888
f 888 170 887
f 170 171 887
f 887 171 173
f 134 132 889
f 132 131 889
f 889 131 888
f 131 164 888
f 888 164 165
f 107 105 835
f 113 111 835
f 111 109 835
f 835 109 107
f 119 117 835
f 117 115 835
f 835 115 113
f 125 123 835
f 123 121 835
f 835 121 119
f 890 161 160
f 160 158 890
f 158 156 890
f 890 156 154
f 154 152 890
f 152 150 890
f 890 150 148
f 148 146 890
f 146 144 890
f 890 144 142
f 142 140 890
f 140 138 890
f 890 138 889
f 138 136 889
f 889 136 134
f 4 130 836
f 130 129 836
f 836 129 835
f 129 127 835
f 835 127 125
f 72 103 837
f 103 102 837
f 837 102 836
f 102 100 836
f 836 100 4
f 839 88 838
f 88 86 838
f 86 84 838
f 84 82 838
f 838 82 80
f 80 78 838
f 78 76 838
f 838 76 837
f 76 74 837
f 837 74 72
f 94 92 839
f 92 90 839
f 839 90 88
f 840 70 839
f 70 96 839
f 839 96 94
f 841 60 840
f 60 62 840
f 62 64 840
f 64 66 840
f 840 66 68
f 50 52 842
f 52 54 842
f 54 56 842
f 842 56 841
f 56 58 841
f 841 58 60
f 42 45 843
f 45 47 843
f 843 47 842
f 47 48 842
f 842 48 50
f 29 31 844
f 31 33 844
f 844 33 35
f 35 37 844
f 37 38 844
f 844 38 843
f 38 41 843
f 843 41 42
f 505 504 869
f 504 827 869
f 869 827 891
f 827 828 891
f 891 828 892
f 828 829 892
f 892 829 893
f 829 830 893
f 893 830 894
f 830 831 894
f 894 831 895
f 831 832 895
f 895 832 896
f 832 833 896
f 896 833 897
f 833 834 897
f 897 834 890
f 834 835 890
f 890 835 161
f 835 105 161
f 227 7 880
f 7 845 880
f 880 845 898
f 845 846 898
f 898 846 899
f 846 847 899
f 899 847 900
f 847 848 900
f 900 848 901
f 848 849 901
f 901 849 902
f 849 850 902
f 902 850 903
f 850 851 903
f 903 851 904
f 851 852 904
f 904 852 905
f 852 853 905
f 905 853 906
f 853 854 906
f 906 854 907
f 854 855 907
f 907 855 908
f 855 856 908
f 908 856 909
f 856 857 909
f 909 857 910
f 857 858 910
f 910 858 911
f 858 859 911
f 911 859 912
f 859 860 912
f 912 860 913
f 860 861 913
f 913 861 914
f 861 862 914
f 914 862 915
f 862 863 915
f 915 863 916
f 863 864 916
f 916 864 917
f 864 865 917
f 917 865 918
f 865 866 918
f 918 866 919
f 866 867 919
f 919 867 920
f 867 868 920
f 920 868 921
f 868 797 921
f 921 797 922
f 797 798 922
f 922 798 923
f 798 799 923
f 923 799 924
f 799 800 924
f 924 800 925
f 800 801 925
f 925 801 926
f 801 802 926
f 926 802 927
f 802 803 927
f 927 803 928
f 803 804 928
f 928 804 929
f 804 805 929
f 929 805 930
f 805 806 930
f 930 806 931
f 806 807 931
f 931 807 932
f 807 808 932
f 932 808 933
f 808 809 933
f 933 809 934
f 809 810 934
f 934 810 935
f 810 811 935
f 935 811 936
f 811 812 936
f 936 812 937
f 812 813 937
f 937 813 938
f 813 814 938
f 938 814 939
f 814 815 939
f 939 815 940
f 815 816 940
f 940 816 879
f 816 817 879
f 879 817 357
f 817 359 357
f 870 941 871
f 941 942 871
f 871 942 872
f 942 943 872
f 872 943 873
f 943 944 873
f 873 944 874
f 944 945 874
f 874 945 875
f 945 946 875
f 875 946 876
f 946 947 876
f 876 947 877
f 947 948 877
f 877 948 878
f 948 949 878
f 878 949 879
f 949 950 879
f 879 950 940
f 950 951 940
f 940 951 939
f 951 952 939
f 939 952 938
f 952 953 938
f 938 953 937
f 953 954 937
f 937 954 936
f 954 955 936
f 936 955 935
f 955 956 935
f 935 956 934
f 956 957 934
f 934 957 933
f 957 958 933
f 933 958 932
f 958 959 932
f 932 959 931
f 959 960 931
f 931 960 930
f 960 961 930
f 930 961 929
f 961 962 929
f 929 962 928
f 962 963 928
f 928 963 927
f 963 964 927
f 927 964 926
f 964 965 926
f 926 965 925
f 965 966 925
f 925 966 924
f 966 967 924
f 924 967 923
f 967 968 923
f 923 968 922
f 968 969 922
f 922 969 921
f 969 970 921
f 921 970 920
f 970 971 920
f 920 971 919
f 971 972 919
f 919 972 918
f 972 973 918
f 918 973 917
f 973 974 917
f 917 974 916
f 974 975 916
f 916 975 915
f 975 976 915
f 915 976 914
f 976 977 914
f 914 977 913
f 977 978 913
f 913 978 912
f 978 979 912
f 912 979 911
f 979 980 911
f 911 980 910
f 980 981 910
f 910 981 909
f 981 982 909
f 909 982 908
f 982 983 908
f 908 983 907
f 983 984 907
f 907 984 906
f 984 985 906
f 906 985 905
f 985 986 905
f 905 986 904
f 986 987 904
f 904 987 903
f 987 988 903
f 903 988 902
f 988 989 902
f 902 989 901
f 989 990 901
f 901 990 900
f 990 991 900
f 900 991 899
f 991 992 899
f 899 992 898
f 992 993 898
f 898 993 880
f 993 994 880
f 880 994 881
f 994 995 881
f 881 995 882
f 995 996 882
f 882 996 883
f 996 997 883
f 883 997 884
f 997 998 884
f 884 998 885
f 998 999 885
f 885 999 886
f 999 1000 886
f 886 1000 887
f 1000 1001 887
f 887 1001 888
f 1001 1002 888
f 888 1002 889
f 1002 1003 889
f 889 1003 890
f 1003 1004 890
f 890 1004 897
f 1004 1005 897
f 897 1005 896
f 1005 1006 896
f 896 1006 895
f 1006 1007 895
f 895 1007 894
f 1007 1008 894
f 894 1008 893
f 1008 1009 893
f 893 1009 892
f 1009 1010 892
f 892 1010 891
f 1010 1011 891
f 891 1011 869
f 1011 1012 869
f 869 1012 870
f 1012 941 870
f 1013 264 266
f 266 268 1013
f 268 270 1013
f 1013 270 272
f 272 274 1013
f 274 276 1013
f 1013 276 278
f 278 280 1013
f 280 282 1013
f 1013 282 284
f 284 286 1013
f 286 288 1013
f 1013 288 290
f 290 506 943
f 506 481 943
f 943 481 483
f 483 485 943
f 485 487 943
f 943 487 489
f 489 491 943
f 491 493 943
f 943 493 495
f 495 497 943
f 497 499 943
f 943 499 501
f 476 944 255
f 944 943 255
f 255 943 256
f 943 501 256
f 296 295 1014
f 319 1015 321
f 1015 350 321
f 311 309 1014
f 319 317 1015
f 317 315 1015
f 1015 315 1014
f 315 313 1014
f 1014 313 311
f 309 307 1014
f 307 305 1014
f 1014 305 303
f 303 301 1014
f 301 298 1014
f 1014 298 296
f 295 292 1014
f 292 291 1014
f 1014 291 1013
f 291 262 1013
f 1013 262 264
f 353 323 1016
f 323 325 1016
f 325 327 1016
f 327 329 1016
f 1016 329 331
f 331 333 1016
f 333 335 1016
f 1016 335 337
f 337 339 1016
f 339 341 1016
f 1016 341 1015
f 341 343 1015
f 1015 343 345
f 345 347 1015
f 347 349 1015
f 1015 349 350
f 947 389 391
f 391 393 947
f 393 395 947
f 947 395 397
f 397 399 947
f 399 401 947
f 947 401 403
f 403 405 947
f 405 407 947
f 947 407 409
f 358 360 1017
f 360 362 1017
f 1017 362 364
f 409 411 947
f 411 413 947
f 947 413 356
f 364 366 1017
f 366 368 1017
f 1017 368 370
f 370 372 1017
f 372 374 1017
f 1017 374 376
f 376 378 1017
f 378 380 1017
f 1017 380 382
f 382 259 1017
f 259 258 1017
f 1017 258 1016
f 258 351 1016
f 1016 351 353
f 421 420 946
f 444 945 446
f 945 475 446
f 436 434 946
f 444 442 945
f 442 440 945
f 945 440 946
f 440 438 946
f 946 438 436
f 434 432 946
f 432 430 946
f 946 430 428
f 428 426 946
f 426 423 946
f 946 423 421
f 420 417 946
f 417 416 946
f 946 416 947
f 416 387 947
f 947 387 389
f 476 478 944
f 478 448 944
f 944 448 450
f 450 452 944
f 452 454 944
f 944 454 456
f 456 458 944
f 458 460 944
f 944 460 462
f 462 464 944
f 464 466 944
f 944 466 945
f 466 468 945
f 945 468 470
f 470 472 945
f 472 474 945
f 945 474 475
f 1001 135 137
f 137 139 1001
f 139 141 1001
f 1001 141 143
f 143 145 1001
f 145 147 1001
f 1001 147 149
f 149 151 1001
f 151 153 1001
f 1001 153 155
f 155 157 1001
f 157 159 1001
f 1001 159 104
f 110 1018 108
f 1018 106 108
f 110 112 1018
f 112 114 1018
f 1018 114 116
f 116 118 1018
f 118 120 1018
f 1018 120 122
f 122 124 1018
f 124 126 1018
f 1018 126 128
f 99 1019 5
f 1019 1018 5
f 5 1018 6
f 1018 128 6
f 167 166 1000
f 167 1000 169
f 221 192 999
f 192 190 999
f 190 188 999
f 188 186 999
f 999 186 1000
f 186 184 1000
f 1000 184 182
f 182 180 1000
f 180 178 1000
f 1000 178 176
f 176 174 1000
f 174 172 1000
f 1000 172 169
f 166 163 1000
f 163 162 1000
f 1000 162 1001
f 162 133 1001
f 1001 133 135
f 224 194 998
f 194 196 998
f 196 198 998
f 198 200 998
f 998 200 202
f 202 204 998
f 204 206 998
f 998 206 208
f 208 210 998
f 210 212 998
f 998 212 999
f 212 214 999
f 999 214 216
f 216 218 999
f 218 220 999
f 999 220 221
f 1020 34 32
f 32 30 1020
f 30 28 1020
f 1020 28 26
f 26 24 1020
f 24 22 1020
f 1020 22 20
f 20 18 1020
f 18 16 1020
f 1020 16 14
f 14 12 1020
f 12 10 1020
f 1020 10 8
f 8 229 997
f 229 231 997
f 997 231 233
f 233 235 997
f 235 237 997
f 997 237 239
f 239 241 997
f 241 243 997
f 997 243 245
f 245 247 997
f 247 249 997
f 997 249 251
f 251 3 997
f 3 2 997
f 997 2 998
f 2 222 998
f 998 222 224
f 44 43 1021
f 44 1021 46
f 98 69 1022
f 69 67 1022
f 67 65 1022
f 65 63 1022
f 1022 63 1021
f 63 61 1021
f 1021 61 59
f 59 57 1021
f 57 55 1021
f 1021 55 53
f 53 51 1021
f 51 49 1021
f 1021 49 46
f 43 40 1021
f 40 39 1021
f 1021 39 1020
f 39 36 1020
f 1020 36 34
f 99 101 1019
f 101 71 1019
f 1019 71 73
f 73 75 1019
f 75 77 1019
f 1019 77 79
f 79 81 1019
f 81 83 1019
f 1019 83 85
f 85 87 1019
f 87 89 1019
f 1019 89 1022
f 89 91 1022
f 1022 91 93
f 93 95 1022
f 95 97 1022
f 1022 97 98
f 290 943 1013
f 943 942 1013
f 1013 942 1023
f 942 941 1023
f 1023 941 1024
f 941 1012 1024
f 1024 1012 1025
f 1012 1011 1025
f 1025 1011 1026
f 1011 1010 1026
f 1026 1010 1027
f 1010 1009 1027
f 1027 1009 1028
f 1009 1008 1028
f 1028 1008 1029
f 1008 1007 1029
f 1029 1007 1030
f 1007 1006 1030
f 1030 1006 1031
f 1006 1005 1031
f 1031 1005 1032
f 1005 1004 1032
f 1032 1004 1033
f 1004 1003 1033
f 1033 1003 1034
f 1003 1002 1034
f 1034 1002 1035
f 1002 1001 1035
f 1035 1001 1018
f 1001 104 1018
f 1018 104 106
f 8 997 1020
f 997 996 1020
f 1020 996 1036
f 996 995 1036
f 1036 995 1037
f 995 994 1037
f 1037 994 1038
f 994 993 1038
f 1038 993 1039
f 993 992 1039
f 1039 992 1040
f 992 991 1040
f 1040 991 1041
f 991 990 1041
f 1041 990 1042
f 990 989 1042
f 1042 989 1043
f 989 988 1043
f 1043 988 1044
f 988 987 1044
f 1044 987 1045
f 987 986 1045
f 1045 986 1046
f 986 985 1046
f 1046 985 1047
f 985 984 1047
f 1047 984 1048
f 984 983 1048
f 1048 983 1049
f 983 982 1049
f 1049 982 1050
f 982 981 1050
f 1050 981 1051
f 981 980 1051
f 1051 980 1052
f 980 979 1052
f 1052 979 1053
f 979 978 1053
f 1053 978 1054
f 978 977 1054
f 1054 977 1055
f 977 976 1055
f 1055 976 1056
f 976 975 1056
f 1056 975 1057
f 975 974 1057
f 1057 974 1058
f 974 973 1058
f 1058 973 1059
f 973 972 1059
f 1059 972 1060
f 972 971 1060
f 1060 971 1061
f 971 970 1061
f 1061 970 1062
f 970 969 1062
f 1062 969 1063
f 969 968 1063
f 1063 968 1064
f 968 967 1064
f 1064 967 1065
f 967 966 1065
f 1065 966 1066
f 966 965 1066
f 1066 965 1067
f 965 964 1067
f 1067 964 1068
f 964 963 1068
f 1068 963 1069
f 963 962 1069
f 1069 962 1070
f 962 961 1070
f 1070 961 1071
f 961 960 1071
f 1071 960 1072
f 960 959 1072
f 1072 959 1073
f 959 958 1073
f 1073 958 1074
f 958 957 1074
f 1074 957 1075
f 957 956 1075
f 1075 956 1076
f 956 955 1076
f 1076 955 1077
f 955 954 1077
f 1077 954 1078
f 954 953 1078
f 1078 953 1079
f 953 952 1079
f 1079 952 1080
f 952 951 1080
f 1080 951 1081
f 951 950 1081
f 1081 950 1082
f 950 949 1082
f 1082 949 1083
f 949 948 1083
f 1083 948 1084
f 948 947 1084
f 1084 947 1017
f 947 356 1017
f 1017 356 358
f 1075 1085 1074
f 1085 1086 1074
f 1074 1086 1073
f 1086 1087 1073
f 1073 1087 1072
f 1087 1088 1072
f 1072 1088 1071
f 1088 1089 1071
f 1071 1089 1070
f 1089 1090 1070
f 1070 1090 1069
f 1090 1091 1069
f 1069 1091 1068
f 1091 1092 1068
f 1068 1092 1067
f 1092 1093 1067
f 1067 1093 1066
f 1093 1094 1066
f 1066 1094 1065
f 1094 1095 1065
f 1065 1095 1064
f 1095 1096 1064
f 1064 1096 1063
f 1096 1097 1063
f 1063 1097 1062
f 1097 1098 1062
f 1062 1098 1061
f 1098 1099 1061
f 1061 1099 1060
f 1099 1100 1060
f 1060 1100 1059
f 1100 1101 1059
f 1059 1101 1058
f 1101 1102 1058
f 1058 1102 1057
f 1102 1103 1057
f 1057 1103 1056
f 1103 1104 1056
f 1056 1104 1055
f 1104 1105 1055
f 1055 1105 1054
f 1105 1106 1054
f 1054 1106 1053
f 1106 1107 1053
f 1053 1107 1052
f 1107 1108 1052
f 1052 1108 1051
f 1108 1109 1051
f 1051 1109 1050
f 1109 1110 1050
f 1050 1110 1049
f 1110 1111 1049
f 1049 1111 1048
f 1111 1112 1048
f 1048 1112 1047
f 1112 1113 1047
f 1047 1113 1046
f 1113 1114 1046
f 1046 1114 1045
f 1114 1115 1045
f 1045 1115 1044
f 1115 1116 1044
f 1044 1116 1043
f 1116 1117 1043
f 1043 1117 1042
f 1117 1118 1042
f 1042 1118 1041
f 1118 1119 1041
f 1041 1119 1040
f 1119 1120 1040
f 1040 1120 1039
f 1120 1121 1039
f 1039 1121 1038
f 1121 1122 1038
f 1038 1122 1037
f 1122 1123 1037
f 1037 1123 1036
f 1123 1124 1036
f 1036 1124 1020
f 1124 1125 1020
f 1020 1125 1021
f 1125 1126 1021
f 1021 1126 1022
f 1126 1127 1022
f 1022 1127 1019
f 1127 1128 1019
f 1019 1128 1018
f 1128 1129 1018
f 1018 1129 1035
f 1129 1130 1035
f 1035 1130 1034
f 1130 1131 1034
f 1034 1131 1033
f 1131 1132 1033
f 1033 1132 1032
f 1132 1133 1032
f 1032 1133 1031
f 1133 1134 1031
f 1031 1134 1030
f 1134 1135 1030
f 1030 1135 1029
f 1135 1136 1029
f 1029 1136 1028
f 1136 1137 1028
f 1028 1137 1027
f 1137 1138 1027
f 1027 1138 1026
f 1138 1139 1026
f 1026 1139 1025
f 1139 1140 1025
f 1025 1140 1024
f 1140 1141 1024
f 1024 1141 1023
f 1141 1142 1023
f 1023 1142 1013
f 1142 1143 1013
f 1013 1143 1014
f 1143 1144 1014
f 1014 1144 1015
f 1144 1145 1015
f 1015 1145 1016
f 1145 1146 1016
f 1016 1146 1017
f 1146 1147 1017
f 1017 1147 1084
f 1147 1148 1084
f 1084 1148 1083
f 1148 1149 1083
f 1083 1149 1082
f 1149 1150 1082
f 1082 1150 1081
f 1150 1151 1081
f 1081 1151 1080
f 1151 1152 1080
f 1080 1152 1079
f 1152 1153 1079
f 1079 1153 1078
f 1153 1154 1078
f 1078 1154 1077
f 1154 1155 1077
f 1077 1155 1076
f 1155 1156 1076
f 1076 1156 1075
f 1156 1085 1075
f 1157 1158 1159
f 1158 1160 1159
f 1159 1160 1161
f 1160 1162 1161
f 1161 1162 1163
f 1162 1164 1163
f 1163 1164 1165
f 1164 1166 1165
f 1165 1166 1167
f 1166 1168 1167
f 1167 1168 1169
f 1168 1170 1169
f 1169 1170 1171
f 1170 1172 1171
f 1171 1172 1173
f 1172 1174 1173
f 1173 1174 1175
f 1174 1176 1175
f 1175 1176 1177
f 1176 1178 1177
f 1177 1178 1179
f 1178 1180 1179
f 1179 1180 1181
f 1180 1182 1181
f 1181 1182 1183
f 1182 1184 1183
f 1183 1184 1185
f 1184 1186 1185
f 1185 1186 1187
f 1186 1188 1187
f 1187 1188 1189
f 1188 1190 1189
f 1189 1190 1191
f 1190 1192 1191
f 1191 1192 1193
f 1192 1194 1193
f 1193 1194 1195
f 1194 1196 1195
f 1195 1196 1197
f 1196 1198 1197
f 1197 1198 1199
f 1198 1200 1199
f 1199 1200 1201
f 1200 1202 1201
f 1201 1202 1203
f 1202 1204 1203
f 1203 1204 1205
f 1204 1206 1205
f 1205 1206 1207
f 1206 1208 1207
f 1207 1208 1209
f 1208 1210 1209
f 1209 1210 1211
f 1210 1212 1211
f 1211 1212 1213
f 1212 1214 1213
f 1213 1214 1215
f 1214 1216 1215
f 1215 1216 1217
f 1216 1218 1217
f 1217 1218 1219
f 1218 1220 1219
f 1219 1220 1221
f 1220 1222 1221
f 1221 1222 1223
f 1222 1224 1223
f 1223 1224 1225
f 1224 1226 1225
f 1225 1226 1227
f 1226 1228 1227
f 1227 1228 1229
f 1228 1230 1229
f 1229 1230 1231
f 1230 1232 1231
f 1231 1232 1233
f 1232 1234 1233
f 1233 1234 1235
f 1234 1236 1235
f 1235 1236 1237
f 1236 1238 1237
f 1237 1238 1239
f 1238 1240 1239
f 1239 1240 1241
f 1240 1242 1241
f 1241 1242 1243
f 1242 1244 1243
f 1243 1244 1245
f 1244 1246 1245
f 1245 1246 1247
f 1246 1248 1247
f 1247 1248 1249
f 1248 1250 1249
f 1249 1250 1251
f 1250 1252 1251
f 1251 1252 1253
f 1252 1254 1253
f 1253 1254 1255
f 1254 1256 1255
f 1255 1256 1257
f 1256 1258 1257
f 1257 1258 1259
f 1258 1260 1259
f 1259 1260 1261
f 1260 1262 1261
f 1261 1262 1263
f 1262 1264 1263
f 1263 1264 1265
f 1264 1266 1265
f 1265 1266 1267
f 1266 1268 1267
f 1267 1268 1269
f 1268 1270 1269
f 1269 1270 1271
f 1270 1272 1271
f 1271 1272 1273
f 1272 1274 1273
f 1273 1274 1275
f 1274 1276 1275
f 1275 1276 1277
f 1276 1278 1277
f 1277 1278 1279
f 1278 1280 1279
f 1279 1280 1281
f 1280 1282 1281
f 1281 1282 1283
f 1282 1284 1283
f 1283 1284 1285
f 1284 1286 1285
f 1285 1286 1287
f 1286 1288 1287
f 1287 1288 1289
f 1288 1290 1289
f 1289 1290 1291
f 1290 1292 1291
f 1291 1292 1293
f 1292 1294 1293
f 1293 1294 1295
f 1294 1296 1295
f 1295 1296 1297
f 1296 1298 1297
f 1297 1298 1299
f 1298 1300 1299
f 1299 1300 1157
f 1300 1158 1157
f 1169 520 1167
f 520 518 1167
f 1167 518 1165
f 518 516 1165
f 1165 516 1163
f 516 514 1163
f 1163 514 1161
f 514 512 1161
f 1161 512 1159
f 512 510 1159
f 1159 510 1157
f 510 652 1157
f 1157 652 1299
f 652 650 1299
f 1299 650 1297
f 650 648 1297
f 1297 648 1295
f 648 646 1295
f 1295 646 1293
f 646 644 1293
f 1293 644 1291
f 644 642 1291
f 1291 642 1289
f 642 640 1289
f 1289 640 1287
f 640 638 1287
f 1287 638 1285
f 638 636 1285
f 1285 636 1283
f 636 634 1283
f 1283 634 1281
f 634 632 1281
f 1281 632 1279
f 632 630 1279
f 1279 630 1277
f 630 628 1277
f 1277 628 1275
f 628 626 1275
f 1275 626 1273
f 626 624 1273
f 1273 624 1271
f 624 622 1271
f 1271 622 1269
f 622 620 1269
f 1269 620 1267
f 620 618 1267
f 1267 618 1265
f 618 616 1265
f 1265 616 1263
f 616 614 1263
f 1263 614 1261
f 614 612 1261
f 1261 612 1259
f 612 610 1259
f 1259 610 1257
f 610 608 1257
f 1257 608 1255
f 608 606 1255
f 1255 606 1253
f 606 604 1253
f 1253 604 1251
f 604 602 1251
f 1251 602 1249
f 602 600 1249
f 1249 600 1247
f 600 598 1247
f 1247 598 1245
f 598 596 1245
f 1245 596 1243
f 596 594 1243
f 1243 594 1241
f 594 592 1241
f 1241 592 1239
f 592 590 1239
f 1239 590 1237
f 590 588 1237
f 1237 588 1235
f 588 586 1235
f 1235 586 1233
f 586 584 1233
f 1233 584 1231
f 584 582 1231
f 1231 582 1229
f 582 580 1229
f 1229 580 1227
f 580 578 1227
f 1227 578 1225
f 578 576 1225
f 1225 576 1223
f 576 574 1223
f 1223 574 1221
f 574 572 1221
f 1221 572 1219
f 572 570 1219
f 1219 570 1217
f 570 568 1217
f 1217 568 1215
f 568 566 1215
f 1215 566 1213
f 566 564 1213
f 1213 564 1211
f 564 562 1211
f 1211 562 1209
f 562 560 1209
f 1209 560 1207
f 560 558 1207
f 1207 558 1205
f 558 556 1205
f 1205 556 1203
f 556 554 1203
f 1203 554 1201
f 554 552 1201
f 1201 552 1199
f 552 550 1199
f 1199 550 1197
f 550 548 1197
f 1197 548 1195
f 548 546 1195
f 1195 546 1193
f 546 544 1193
f 1193 544 1191
f 544 542 1191
f 1191 542 1189
f 542 540 1189
f 1189 540 1187
f 540 538 1187
f 1187 538 1185
f 538 536 1185
f 1185 536 1183
f 536 534 1183
f 1183 534 1181
f 534 532 1181
f 1181 532 1179
f 532 530 1179
f 1179 530 1177
f 530 528 1177
f 1177 528 1175
f 528 526 1175
f 1175 526 1173
f 526 524 1173
f 1173 524 1171
f 524 522 1171
f 1171 522 1169
f 522 520 1169
f 1286 1301 1288
f 1301 1302 1288
f 1288 1302 1290
f 1302 1303 1290
f 1290 1303 1292
f 1303 1304 1292
f 1292 1304 1294
f 1304 1305 1294
f 1294 1305 1296
f 1305 1306 1296
f 1296 1306 1298
f 1306 1307 1298
f 1298 1307 1300
f 1307 1308 1300
f 1300 1308 1158
f 1308 1309 1158
f 1158 1309 1160
f 1309 1310 1160
f 1160 1310 1162
f 1310 1311 1162
f 1162 1311 1164
f 1311 1312 1164
f 1164 1312 1166
f 1312 1313 1166
f 1166 1313 1168
f 1313 1314 1168
f 1168 1314 1170
f 1314 1315 1170
f 1170 1315 1172
f 1315 1316 1172
f 1172 1316 1174
f 1316 1317 1174
f 1174 1317 1176
f 1317 1318 1176
f 1176 1318 1178
f 1318 1319 1178
f 1178 1319 1180
f 1319 1320 1180
f 1180 1320 1182
f 1320 1321 1182
f 1182 1321 1184
f 1321 1322 1184
f 1184 1322 1186
f 1322 1323 1186
f 1186 1323 1188
f 1323 1324 1188
f 1188 1324 1190
f 1324 1325 1190
f 1190 1325 1192
f 1325 1326 1192
f 1192 1326 1194
f 1326 1327 1194
f 1194 1327 1196
f 1327 1328 1196
f 1196 1328 1198
f 1328 1329 1198
f 1198 1329 1200
f 1329 1330 1200
f 1200 1330 1202
f 1330 1331 1202
f 1202 1331 1204
f 1331 1332 1204
f 1204 1332 1206
f 1332 1333 1206
f 1206 1333 1208
f 1333 1334 1208
f 1208 1334 1210
f 1334 1335 1210
f 1210 1335 1212
f 1335 1336 1212
f 1212 1336 1214
f 1336 1337 1214
f 1214 1337 1216
f 1337 1338 1216
f 1216 1338 1218
f 1338 1339 1218
f 1218 1339 1220
f 1339 1340 1220
f 1220 1340 1222
f 1340 1341 1222
f 1222 1341 1224
f 1341 1342 1224
f 1224 1342 1226
f 1342 1343 1226
f 1226 1343 1228
f 1343 1344 1228
f 1228 1344 1230
f 1344 1345 1230
f 1230 1345 1232
f 1345 1346 1232
f 1232 1346 1234
f 1346 1347 1234
f 1234 1347 1236
f 1347 1348 1236
f 1236 1348 1238
f 1348 1349 1238
f 1238 1349 1240
f 1349 1350 1240
f 1240 1350 1242
f 1350 1351 1242
f 1242 1351 1244
f 1351 1352 1244
f 1244 1352 1246
f 1352 1353 1246
f 1246 1353 1248
f 1353 1354 1248
f 1248 1354 1250
f 1354 1355 1250
f 1250 1355 1252
f 1355 1356 1252
f 1252 1356 1254
f 1356 1357 1254
f 1254 1357 1256
f 1357 1358 1256
f 1256 1358 1258
f 1358 1359 1258
f 1258 1359 1260
f 1359 1360 1260
f 1260 1360 1262
f 1360 1361 1262
f 1262 1361 1264
f 1361 1362 1264
f 1264 1362 1266
f 1362 1363 1266
f 1266 1363 1268
f 1363 1364 1268
f 1268 1364 1270
f 1364 1365 1270
f 1270 1365 1272
f 1365 1366 1272
f 1272 1366 1274
f 1366 1367 1274
f 1274 1367 1276
f 1367 1368 1276
f 1276 1368 1278
f 1368 1369 1278
f 1278 1369 1280
f 1369 1370 1280
f 1280 1370 1282
f 1370 1371 1282
f 1282 1371 1284
f 1371 1372 1284
f 1284 1372 1286
f 1372 1301 1286
f 1373 1307 1374
f 1307 1306 1374
f 1374 1306 1375
f 1306 1305 1375
f 1375 1305 1376
f 1305 1304 1376
f 1376 1304 1377
f 1304 1303 1377
f 1377 1303 1378
f 1303 1302 1378
f 1378 1302 1379
f 1302 1301 1379
f 1379 1301 1380
f 1301 1372 1380
f 1380 1372 1381
f 1372 1371 1381
f 1381 1371 1382
f 1371 1370 1382
f 1382 1370 1383
f 1370 1369 1383
f 1383 1369 1384
f 1369 1368 1384
f 1384 1368 1385
f 1368 1367 1385
f 1385 1367 1386
f 1367 1366 1386
f 1386 1366 1387
f 1366 1365 1387
f 1387 1365 1388
f 1365 1364 1388
f 1388 1364 1389
f 1364 1363 1389
f 1389 1363 1390
f 1363 1362 1390
f 1390 1362 1391
f 1362 1361 1391
f 1391 1361 1392
f 1361 1360 1392
f 1392 1360 1393
f 1360 1359 1393
f 1393 1359 1394
f 1359 1358 1394
f 1394 1358 1395
f 1358 1357 1395
f 1395 1357 1396
f 1357 1356 1396
f 1396 1356 1397
f 1356 1355 1397
f 1397 1355 1398
f 1355 1354 1398
f 1398 1354 1399
f 1354 1353 1399
f 1399 1353 1400
f 1353 1352 1400
f 1400 1352 1401
f 1352 1351 1401
f 1401 1351 1402
f 1351 1350 1402
f 1402 1350 1403
f 1350 1349 1403
f 1403 1349 1404
f 1349 1348 1404
f 1404 1348 1405
f 1348 1347 1405
f 1405 1347 1406
f 1347 1346 1406
f 1406 1346 1407
f 1346 1345 1407
f 1407 1345 1408
f 1345 1344 1408
f 1408 1344 1409
f 1344 1343 1409
f 1409 1343 1410
f 1343 1342 1410
f 1410 1342 1411
f 1342 1341 1411
f 1411 1341 1412
f 1341 1340 1412
f 1412 1340 1413
f 1340 1339 1413
f 1413 1339 1414
f 1339 1338 1414
f 1414 1338 1415
f 1338 1337 1415
f 1415 1337 1416
f 1337 1336 1416
f 1416 1336 1417
f 1336 1335 1417
f 1417 1335 1418
f 1335 1334 1418
f 1418 1334 1419
f 1334 1333 1419
f 1419 1333 1420
f 1333 1332 1420
f 1420 1332 1421
f 1332 1331 1421
f 1421 1331 1422
f 1331 1330 1422
f 1422 1330 1423
f 1330 1329 1423
f 1423 1329 1424
f 1329 1328 1424
f 1424 1328 1425
f 1328 1327 1425
f 1425 1327 1426
f 1327 1326 1426
f 1426 1326 1427
f 1326 1325 1427
f 1427 1325 1428
f 1325 1324 1428
f 1428 1324 1429
f 1324 1323 1429
f 1429 1323 1430
f 1323 1322 1430
f 1430 1322 1431
f 1322 1321 1431
f 1431 1321 1432
f 1321 1320 1432
f 1432 1320 1433
f 1320 1319 1433
f 1433 1319 1434
f 1319 1318 1434
f 1434 1318 1435
f 1318 1317 1435
f 1435 1317 1436
f 1317 1316 1436
f 1436 1316 1437
f 1316 1315 1437
f 1437 1315 1438
f 1315 1314 1438
f 1438 1314 1439
f 1314 1313 1439
f 1439 1313 1440
f 1313 1312 1440
f 1440 1312 1441
f 1312 1311 1441
f 1441 1311 1442
f 1311 1310 1442
f 1442 1310 1443
f 1310 1309 1443
f 1443 1309 1444
f 1309 1308 1444
f 1444 1308 1373
f 1308 1307 1373
f 1373 1445 1444
f 1445 1446 1444
f 1444 1446 1443
f 1446 1447 1443
f 1443 1447 1442
f 1447 1448 1442
f 1442 1448 1441
f 1448 1449 1441
f 1441 1449 1440
f 1449 1450 1440
f 1440 1450 1439
f 1450 1451 1439
f 1439 1451 1438
f 1451 1452 1438
f 1438 1452 1437
f 1452 1453 1437
f 1437 1453 1436
f 1453 1454 1436
f 1436 1454 1435
f 1454 1455 1435
f 1435 1455 1434
f 1455 1456 1434
f 1434 1456 1433
f 1456 1457 1433
f 1433 1457 1432
f 1457 1458 1432
f 1432 1458 1431
f 1458 1459 1431
f 1431 1459 1430
f 1459 1460 1430
f 1430 1460 1429
f 1460 1461 1429
f 1429 1461 1428
f 1461 1462 1428
f 1428 1462 1427
f 1462 1463 1427
f 1427 1463 1426
f 1463 1464 1426
f 1426 1464 1425
f 1464 1465 1425
f 1425 1465 1424
f 1465 1466 1424
f 1424 1466 1423
f 1466 1467 1423
f 1423 1467 1422
f 1467 1468 1422
f 1422 1468 1421
f 1468 1469 1421
f 1421 1469 1420
f 1469 1470 1420
f 1420 1470 1419
f 1470 1471 1419
f 1419 1471 1418
f 1471 1472 1418
f 1418 1472 1417
f 1472 1473 1417
f 1417 1473 1416
f 1473 1474 1416
f 1416 1474 1415
f 1474 1475 1415
f 1415 1475 1414
f 1475 1476 1414
f 1414 1476 1413
f 1476 1477 1413
f 1413 1477 1412
f 1477 1478 1412
f 1412 1478 1411
f 1478 1479 1411
f 1411 1479 1410
f 1479 1480 1410
f 1410 1480 1409
f 1480 1481 1409
f 1409 1481 1408
f 1481 1482 1408
f 1408 1482 1407
f 1482 1483 1407
f 1407 1483 1406
f 1483 1484 1406
f 1406 1484 1405
f 1484 1485 1405
f 1405 1485 1404
f 1485 1486 1404
f 1404 1486 1403
f 1486 1487 1403
f 1403 1487 1402
f 1487 1488 1402
f 1402 1488 1401
f 1488 1489 1401
f 1401 1489 1400
f 1489 1490 1400
f 1400 1490 1399
f 1490 1491 1399
f 1399 1491 1398
f 1491 1492 1398
f 1398 1492 1397
f 1492 1493 1397
f 1397 1493 1396
f 1493 1494 1396
f 1396 1494 1395
f 1494 1495 1395
f 1395 1495 1394
f 1495 1496 1394
f 1394 1496 1393
f 1496 1497 1393
f 1393 1497 1392
f 1497 1498 1392
f 1392 1498 1391
f 1498 1499 1391
f 1391 1499 1390
f 1499 1500 1390
f 1390 1500 1389
f 1500 1501 1389
f 1389 1501 1388
f 1501 1502 1388
f 1388 1502 1387
f 1502 1503 1387
f 1387 1503 1386
f 1503 1504 1386
f 1386 1504 1385
f 1504 1505 1385
f 1385 1505 1384
f 1505 1506 1384
f 1384 1506 1383
f 1506 1507 1383
f 1383 1507 1382
f 1507 1508 1382
f 1382 1508 1381
f 1508 1509 1381
f 1381 1509 1380
f 1509 1510 1380
f 1380 1510 1379
f 1510 1511 1379
f 1379 1511 1378
f 1511 1512 1378
f 1378 1512 1377
f 1512 1513 1377
f 1377 1513 1376
f 1513 1514 1376
f 1376 1514 1375
f 1514 1515 1375
f 1375 1515 1374
f 1515 1516 1374
f 1374 1516 1373
f 1516 1445 1373
f 1092 1515 1093
f 1515 1514 1093
f 1093 1514 1094
f 1514 1513 1094
f 1094 1513 1095
f 1513 1512 1095
f 1095 1512 1096
f 1512 1511 1096
f 1096 1511 1097
f 1511 1510 1097
f 1097 1510 1098
f 1510 1509 1098
f 1098 1509 1099
f 1509 1508 1099
f 1099 1508 1100
f 1508 1507 1100
f 1100 1507 1101
f 1507 1506 1101
f 1101 1506 1102
f 1506 1505 1102
f 1102 1505 1103
f 1505 1504 1103
f 1103 1504 1104
f 1504 1503 1104
f 1104 1503 1105
f 1503 1502 1105
f 1105 1502 1106
f 1502 1501 1106
f 1106 1501 1107
f 1501 1500 1107
f 1107 1500 1108
f 1500 1499 1108
f 1108 1499 1109
f 1499 1498 1109
f 1109 1498 1110
f 1498 1497 1110
f 1110 1497 1111
f 1497 1496 1111
f 1111 1496 1112
f 1496 1495 1112
f 1112 1495 1113
f 1495 1494 1113
f 1113 1494 1114
f 1494 1493 1114
f 1114 1493 1115
f 1493 1492 1115
f 1115 1492 1116
f 1492 1491 1116
f 1116 1491 1117
f 1491 1490 1117
f 1117 1490 1118
f 1490 1489 1118
f 1118 1489 1119
f 1489 1488 1119
f 1119 1488 1120
f 1488 1487 1120
f 1120 1487 1121
f 1487 1486 1121
f 1121 1486 1122
f 1486 1485 1122
f 1122 1485 1123
f 1485 1484 1123
f 1123 1484 1124
f 1484 1483 1124
f 1124 1483 1125
f 1483 1482 1125
f 1125 1482 1126
f 1482 1481 1126
f 1126 1481 1127
f 1481 1480 1127
f 1127 1480 1128
f 1480 1479 1128
f 1128 1479 1129
f 1479 1478 1129
f 1129 1478 1130
f 1478 1477 1130
f 1130 1477 1131
f 1477 1476 1131
f 1131 1476 1132
f 1476 1475 1132
f 1132 1475 1133
f 1475 1474 1133
f 1133 1474 1134
f 1474 1473 1134
f 1134 1473 1135
f 1473 1472 1135
f 1135 1472 1136
f 1472 1471 1136
f 1136 1471 1137
f 1471 1470 1137
f 1137 1470 1138
f 1470 1469 1138
f 1138 1469 1139
f 1469 1468 1139
f 1139 1468 1140
f 1468 1467 1140
f 1140 1467 1141
f 1467 1466 1141
f 1141 1466 1142
f 1466 1465 1142
f 1142 1465 1143
f 1465 1464 1143
f 1143 1464 1144
f 1464 1463 1144
f 1144 1463 1145
f 1463 1462 1145
f 1145 1462 1146
f 1462 1461 1146
f 1146 1461 1147
f 1461 1460 1147
f 1147 1460 1148
f 1460 1459 1148
f 1148 1459 1149
f 1459 1458 1149
f 1149 1458 1150
f 1458 1457 1150
f 1150 1457 1151
f 1457 1456 1151
f 1151 1456 1152
f 1456 1455 1152
f 1152 1455 1153
f 1455 1454 1153
f 1153 1454 1154
f 1454 1453 1154
f 1154 1453 1155
f 1453 1452 1155
f 1155 1452 1156
f 1452 1451 1156
f 1156 1451 1085
f 1451 1450 1085
f 1085 1450 1086
f 1450 1449 1086
f 1086 1449 1087
f 1449 1448 1087
f 1087 1448 1088
f 1448 1447 1088
f 1088 1447 1089
f 1447 1446 1089
f 1089 1446 1090
f 1446 1445 1090
f 1090 1445 1091
f 1445 1516 1091
f 1091 1516 1092
f 1516 1515 1092

