# https://github.com/mikedh/trimesh
v 0.39500001 0.04707107 0.04700000
v 0.39601523 0.04741969 0.04800000
v 0.39501902 0.04750685 0.04700000
v 0.39606076 0.04776566 0.04800000
v 0.39507595 0.04793931 0.04700000
v 0.39613628 0.04810634 0.04800000
v 0.39517036 0.04836516 0.04700000
v 0.39624122 0.04843915 0.04800000
v 0.39530152 0.04878117 0.04700000
v 0.39637476 0.04876154 0.04800000
v 0.39546847 0.04918416 0.04700000
v 0.39653590 0.04907107 0.04800000
v 0.39566988 0.04957107 0.04700000
v 0.39672339 0.04936538 0.04800000
v 0.39590424 0.04993895 0.04700000
v 0.39693582 0.04964222 0.04800000
v 0.39616978 0.05028500 0.04700000
v 0.39717156 0.04989950 0.04800000
v 0.39646447 0.05060660 0.04700000
v 0.39742884 0.05013525 0.04800000
v 0.39678606 0.05090129 0.04700000
v 0.39770570 0.05034767 0.04800000
v 0.39713213 0.05116683 0.04700000
v 0.39800000 0.05053517 0.04800000
v 0.39750001 0.05140119 0.04700000
v 0.39830953 0.05069630 0.04800000
v 0.39788690 0.05160261 0.04700000
v 0.39863193 0.05082984 0.04800000
v 0.39828989 0.05176953 0.04700000
v 0.39896473 0.05093477 0.04800000
v 0.39870590 0.05190070 0.04700000
v 0.39930540 0.05101030 0.04800000
v 0.39913175 0.05199511 0.04700000
v 0.39965138 0.05105584 0.04800000
v 0.39956421 0.05205204 0.04700000
v 0.40000001 0.05107107 0.04800000
v 0.40000001 0.05207107 0.04700000
v 0.40034863 0.05105584 0.04800000
v 0.40043578 0.05205204 0.04700000
v 0.40069458 0.05101030 0.04800000
v 0.40086824 0.05199511 0.04700000
v 0.40103528 0.05093477 0.04800000
v 0.40129408 0.05190070 0.04700000
v 0.40136808 0.05082984 0.04800000
v 0.40171009 0.05176953 0.04700000
v 0.40169048 0.05069630 0.04800000
v 0.40211308 0.05160261 0.04700000
v 0.40200001 0.05053517 0.04800000
v 0.40250000 0.05140119 0.04700000
v 0.40229431 0.05034767 0.04800000
v 0.40286788 0.05116683 0.04700000
v 0.40257114 0.05013525 0.04800000
v 0.40321395 0.05090129 0.04700000
v 0.40282843 0.04989950 0.04800000
v 0.40353554 0.05060660 0.04700000
v 0.40306416 0.04964222 0.04800000
v 0.40383023 0.05028500 0.04700000
v 0.40327659 0.04936538 0.04800000
v 0.40409577 0.04993895 0.04700000
v 0.40346411 0.04907107 0.04800000
v 0.40433013 0.04957107 0.04700000
v 0.40362522 0.04876154 0.04800000
v 0.40453154 0.04918416 0.04700000
v 0.40375876 0.04843915 0.04800000
v 0.40469846 0.04878117 0.04700000
v 0.40386370 0.04810634 0.04800000
v 0.40482962 0.04836516 0.04700000
v 0.40393922 0.04776566 0.04800000
v 0.40492404 0.04793931 0.04700000
v 0.40398479 0.04741969 0.04800000
v 0.40498096 0.04750685 0.04700000
v 0.40399998 0.04707107 0.04800000
v 0.40500000 0.04707107 0.04700000
v 0.40398479 0.04672245 0.04800000
v 0.40498096 0.04663529 0.04700000
v 0.40393922 0.04637647 0.04800000
v 0.40492404 0.04620283 0.04700000
v 0.40386370 0.04603579 0.04800000
v 0.40482962 0.04577697 0.04700000
v 0.40375876 0.04570299 0.04800000
v 0.40469846 0.04536097 0.04700000
v 0.40362522 0.04538060 0.04800000
v 0.40453154 0.04495798 0.04700000
v 0.40346411 0.04507107 0.04800000
v 0.40433013 0.04457107 0.04700000
v 0.40327659 0.04477676 0.04800000
v 0.40409577 0.04420318 0.04700000
v 0.40306416 0.04449992 0.04800000
v 0.40383023 0.04385713 0.04700000
v 0.40282843 0.04424264 0.04800000
v 0.40353554 0.04353553 0.04700000
v 0.40257114 0.04400689 0.04800000
v 0.40321395 0.04324085 0.04700000
v 0.40229431 0.04379446 0.04800000
v 0.40286788 0.04297531 0.04700000
v 0.40200001 0.04360697 0.04800000
v 0.40250000 0.04274094 0.04700000
v 0.40169048 0.04344584 0.04800000
v 0.40211308 0.04253953 0.04700000
v 0.40136808 0.04331230 0.04800000
v 0.40171009 0.04237260 0.04700000
v 0.40103528 0.04320737 0.04800000
v 0.40129408 0.04224144 0.04700000
v 0.40069458 0.04313184 0.04800000
v 0.40086824 0.04214703 0.04700000
v 0.40034863 0.04308629 0.04800000
v 0.40043578 0.04209010 0.04700000
v 0.40000001 0.04307107 0.04800000
v 0.40000001 0.04207107 0.04700000
v 0.39965138 0.04308629 0.04800000
v 0.39956421 0.04209010 0.04700000
v 0.39930540 0.04313184 0.04800000
v 0.39913175 0.04214703 0.04700000
v 0.39896473 0.04320737 0.04800000
v 0.39870590 0.04224144 0.04700000
v 0.39863193 0.04331230 0.04800000
v 0.39828989 0.04237260 0.04700000
v 0.39830953 0.04344584 0.04800000
v 0.39788690 0.04253953 0.04700000
v 0.39800000 0.04360697 0.04800000
v 0.39750001 0.04274094 0.04700000
v 0.39770570 0.04379446 0.04800000
v 0.39713213 0.04297531 0.04700000
v 0.39742884 0.04400689 0.04800000
v 0.39678606 0.04324085 0.04700000
v 0.39717156 0.04424264 0.04800000
v 0.39646447 0.04353553 0.04700000
v 0.39693582 0.04449992 0.04800000
v 0.39616978 0.04385713 0.04700000
v 0.39672339 0.04477676 0.04800000
v 0.39590424 0.04420318 0.04700000
v 0.39653590 0.04507107 0.04800000
v 0.39566988 0.04457107 0.04700000
v 0.39637476 0.04538060 0.04800000
v 0.39546847 0.04495798 0.04700000
v 0.39624122 0.04570299 0.04800000
v 0.39530152 0.04536097 0.04700000
v 0.39613628 0.04603579 0.04800000
v 0.39517036 0.04577697 0.04700000
v 0.39606076 0.04637647 0.04800000
v 0.39507595 0.04620283 0.04700000
v 0.39601523 0.04672245 0.04800000
v 0.39501902 0.04663529 0.04700000
v 0.39600000 0.04707107 0.04800000
v 0.40000001 0.04707107 0.04800000
v 0.39500001 0.04707107 -0.17399999
v 0.39501902 0.04750685 -0.17399999
v 0.39507595 0.04793931 -0.17399999
v 0.39517036 0.04836516 -0.17399999
v 0.39530152 0.04878117 -0.17399999
v 0.39546847 0.04918416 -0.17399999
v 0.39566988 0.04957107 -0.17399999
v 0.39590424 0.04993895 -0.17399999
v 0.39616978 0.05028500 -0.17399999
v 0.39646447 0.05060660 -0.17399999
v 0.39678606 0.05090129 -0.17399999
v 0.39713213 0.05116683 -0.17399999
v 0.39750001 0.05140119 -0.17399999
v 0.39788690 0.05160261 -0.17399999
v 0.39828989 0.05176953 -0.17399999
v 0.39870590 0.05190070 -0.17399999
v 0.39913175 0.05199511 -0.17399999
v 0.39956421 0.05205204 -0.17399999
v 0.40000001 0.05207107 -0.17399999
v 0.40043578 0.05205204 -0.17399999
v 0.40086824 0.05199511 -0.17399999
v 0.40129408 0.05190070 -0.17399999
v 0.40171009 0.05176953 -0.17399999
v 0.40211308 0.05160261 -0.17399999
v 0.40250000 0.05140119 -0.17399999
v 0.40286788 0.05116683 -0.17399999
v 0.40321395 0.05090129 -0.17399999
v 0.40353554 0.05060660 -0.17399999
v 0.40383023 0.05028500 -0.17399999
v 0.40409577 0.04993895 -0.17399999
v 0.40433013 0.04957107 -0.17399999
v 0.40453154 0.04918416 -0.17399999
v 0.40469846 0.04878117 -0.17399999
v 0.40482962 0.04836516 -0.17399999
v 0.40492404 0.04793931 -0.17399999
v 0.40498096 0.04750685 -0.17399999
v 0.40500000 0.04707107 -0.17399999
v 0.40498096 0.04663529 -0.17399999
v 0.40492404 0.04620283 -0.17399999
v 0.40482962 0.04577697 -0.17399999
v 0.40469846 0.04536097 -0.17399999
v 0.40453154 0.04495798 -0.17399999
v 0.40433013 0.04457107 -0.17399999
v 0.40409577 0.04420318 -0.17399999
v 0.40383023 0.04385713 -0.17399999
v 0.40353554 0.04353553 -0.17399999
v 0.40321395 0.04324085 -0.17399999
v 0.40286788 0.04297531 -0.17399999
v 0.40250000 0.04274094 -0.17399999
v 0.40211308 0.04253953 -0.17399999
v 0.40171009 0.04237260 -0.17399999
v 0.40129408 0.04224144 -0.17399999
v 0.40086824 0.04214703 -0.17399999
v 0.40043578 0.04209010 -0.17399999
v 0.40000001 0.04207107 -0.17399999
v 0.39956421 0.04209010 -0.17399999
v 0.39913175 0.04214703 -0.17399999
v 0.39870590 0.04224144 -0.17399999
v 0.39828989 0.04237260 -0.17399999
v 0.39788690 0.04253953 -0.17399999
v 0.39750001 0.04274094 -0.17399999
v 0.39713213 0.04297531 -0.17399999
v 0.39678606 0.04324085 -0.17399999
v 0.39646447 0.04353553 -0.17399999
v 0.39616978 0.04385713 -0.17399999
v 0.39590424 0.04420318 -0.17399999
v 0.39566988 0.04457107 -0.17399999
v 0.39546847 0.04495798 -0.17399999
v 0.39530152 0.04536097 -0.17399999
v 0.39517036 0.04577697 -0.17399999
v 0.39507595 0.04620283 -0.17399999
v 0.39501902 0.04663529 -0.17399999
v 0.39606076 0.04637647 -0.17500000
v 0.39601523 0.04672245 -0.17500000
v 0.40000001 0.04707107 -0.17500000
v 0.39600000 0.04707107 -0.17500000
v 0.39601523 0.04741969 -0.17500000
v 0.39637476 0.04538060 -0.17500000
v 0.39624122 0.04570299 -0.17500000
v 0.39613628 0.04603579 -0.17500000
v 0.39693582 0.04449992 -0.17500000
v 0.39672339 0.04477676 -0.17500000
v 0.39653590 0.04507107 -0.17500000
v 0.39770570 0.04379446 -0.17500000
v 0.39742884 0.04400689 -0.17500000
v 0.39717156 0.04424264 -0.17500000
v 0.39863193 0.04331230 -0.17500000
v 0.39830953 0.04344584 -0.17500000
v 0.39800000 0.04360697 -0.17500000
v 0.39965138 0.04308629 -0.17500000
v 0.39930540 0.04313184 -0.17500000
v 0.39896473 0.04320737 -0.17500000
v 0.40069458 0.04313184 -0.17500000
v 0.40034863 0.04308629 -0.17500000
v 0.40000001 0.04307107 -0.17500000
v 0.40169048 0.04344584 -0.17500000
v 0.40136808 0.04331230 -0.17500000
v 0.40103528 0.04320737 -0.17500000
v 0.40257114 0.04400689 -0.17500000
v 0.40229431 0.04379446 -0.17500000
v 0.40200001 0.04360697 -0.17500000
v 0.40327659 0.04477676 -0.17500000
v 0.40306416 0.04449992 -0.17500000
v 0.40282843 0.04424264 -0.17500000
v 0.40375876 0.04570299 -0.17500000
v 0.40362522 0.04538060 -0.17500000
v 0.40346411 0.04507107 -0.17500000
v 0.40398479 0.04672245 -0.17500000
v 0.40393922 0.04637647 -0.17500000
v 0.40386370 0.04603579 -0.17500000
v 0.40393922 0.04776566 -0.17500000
v 0.40398479 0.04741969 -0.17500000
v 0.40399998 0.04707107 -0.17500000
v 0.40362522 0.04876154 -0.17500000
v 0.40375876 0.04843915 -0.17500000
v 0.40386370 0.04810634 -0.17500000
v 0.40306416 0.04964222 -0.17500000
v 0.40327659 0.04936538 -0.17500000
v 0.40346411 0.04907107 -0.17500000
v 0.40229431 0.05034767 -0.17500000
v 0.40257114 0.05013525 -0.17500000
v 0.40282843 0.04989950 -0.17500000
v 0.40136808 0.05082984 -0.17500000
v 0.40169048 0.05069630 -0.17500000
v 0.40200001 0.05053517 -0.17500000
v 0.40034863 0.05105584 -0.17500000
v 0.40069458 0.05101030 -0.17500000
v 0.40103528 0.05093477 -0.17500000
v 0.39930540 0.05101030 -0.17500000
v 0.39965138 0.05105584 -0.17500000
v 0.40000001 0.05107107 -0.17500000
v 0.39830953 0.05069630 -0.17500000
v 0.39863193 0.05082984 -0.17500000
v 0.39896473 0.05093477 -0.17500000
v 0.39742884 0.05013525 -0.17500000
v 0.39770570 0.05034767 -0.17500000
v 0.39800000 0.05053517 -0.17500000
v 0.39672339 0.04936538 -0.17500000
v 0.39693582 0.04964222 -0.17500000
v 0.39717156 0.04989950 -0.17500000
v 0.39624122 0.04843915 -0.17500000
v 0.39637476 0.04876154 -0.17500000
v 0.39653590 0.04907107 -0.17500000
v 0.39606076 0.04776566 -0.17500000
v 0.39613628 0.04810634 -0.17500000
f 1 2 3
f 2 4 3
f 3 4 5
f 4 6 5
f 5 6 7
f 6 8 7
f 7 8 9
f 8 10 9
f 9 10 11
f 10 12 11
f 11 12 13
f 12 14 13
f 13 14 15
f 14 16 15
f 15 16 17
f 16 18 17
f 17 18 19
f 18 20 19
f 19 20 21
f 20 22 21
f 21 22 23
f 22 24 23
f 23 24 25
f 24 26 25
f 25 26 27
f 26 28 27
f 27 28 29
f 28 30 29
f 29 30 31
f 30 32 31
f 31 32 33
f 32 34 33
f 33 34 35
f 34 36 35
f 35 36 37
f 36 38 37
f 37 38 39
f 38 40 39
f 39 40 41
f 40 42 41
f 41 42 43
f 42 44 43
f 43 44 45
f 44 46 45
f 45 46 47
f 46 48 47
f 47 48 49
f 48 50 49
f 49 50 51
f 50 52 51
f 51 52 53
f 52 54 53
f 53 54 55
f 54 56 55
f 55 56 57
f 56 58 57
f 57 58 59
f 58 60 59
f 59 60 61
f 60 62 61
f 61 62 63
f 62 64 63
f 63 64 65
f 64 66 65
f 65 66 67
f 66 68 67
f 67 68 69
f 68 70 69
f 69 70 71
f 70 72 71
f 71 72 73
f 72 74 73
f 73 74 75
f 74 76 75
f 75 76 77
f 76 78 77
f 77 78 79
f 78 80 79
f 79 80 81
f 80 82 81
f 81 82 83
f 82 84 83
f 83 84 85
f 84 86 85
f 85 86 87
f 86 88 87
f 87 88 89
f 88 90 89
f 89 90 91
f 90 92 91
f 91 92 93
f 92 94 93
f 93 94 95
f 94 96 95
f 95 96 97
f 96 98 97
f 97 98 99
f 98 100 99
f 99 100 101
f 100 102 101
f 101 102 103
f 102 104 103
f 103 104 105
f 104 106 105
f 105 106 107
f 106 108 107
f 107 108 109
f 108 110 109
f 109 110 111
f 110 112 111
f 111 112 113
f 112 114 113
f 113 114 115
f 114 116 115
f 115 116 117
f 116 118 117
f 117 118 119
f 118 120 119
f 119 120 121
f 120 122 121
f 121 122 123
f 122 124 123
f 123 124 125
f 124 126 125
f 125 126 127
f 126 128 127
f 127 128 129
f 128 130 129
f 129 130 131
f 130 132 131
f 131 132 133
f 132 134 133
f 133 134 135
f 134 136 135
f 135 136 137
f 136 138 137
f 137 138 139
f 138 140 139
f 139 140 141
f 140 142 141
f 141 142 143
f 142 144 143
f 143 144 1
f 144 2 1
f 4 2 145
f 2 144 145
f 145 144 142
f 10 8 145
f 8 6 145
f 145 6 4
f 16 14 145
f 14 12 145
f 145 12 10
f 22 20 145
f 20 18 145
f 145 18 16
f 28 26 145
f 26 24 145
f 145 24 22
f 34 32 145
f 32 30 145
f 145 30 28
f 40 38 145
f 38 36 145
f 145 36 34
f 46 44 145
f 44 42 145
f 145 42 40
f 52 50 145
f 50 48 145
f 145 48 46
f 58 56 145
f 56 54 145
f 145 54 52
f 64 62 145
f 62 60 145
f 145 60 58
f 70 68 145
f 68 66 145
f 145 66 64
f 76 74 145
f 74 72 145
f 145 72 70
f 82 80 145
f 80 78 145
f 145 78 76
f 88 86 145
f 86 84 145
f 145 84 82
f 94 92 145
f 92 90 145
f 145 90 88
f 100 98 145
f 98 96 145
f 145 96 94
f 106 104 145
f 104 102 145
f 145 102 100
f 112 110 145
f 110 108 145
f 145 108 106
f 118 116 145
f 116 114 145
f 145 114 112
f 124 122 145
f 122 120 145
f 145 120 118
f 130 128 145
f 128 126 145
f 145 126 124
f 136 134 145
f 134 132 145
f 145 132 130
f 142 140 145
f 140 138 145
f 145 138 136
f 146 3 147
f 3 5 147
f 147 5 148
f 5 7 148
f 148 7 149
f 7 9 149
f 149 9 150
f 9 11 150
f 150 11 151
f 11 13 151
f 151 13 152
f 13 15 152
f 152 15 153
f 15 17 153
f 153 17 154
f 17 19 154
f 154 19 155
f 19 21 155
f 155 21 156
f 21 23 156
f 156 23 157
f 23 25 157
f 157 25 158
f 25 27 158
f 158 27 159
f 27 29 159
f 159 29 160
f 29 31 160
f 160 31 161
f 31 33 161
f 161 33 162
f 33 35 162
f 162 35 163
f 35 37 163
f 163 37 164
f 37 39 164
f 164 39 165
f 39 41 165
f 165 41 166
f 41 43 166
f 166 43 167
f 43 45 167
f 167 45 168
f 45 47 168
f 168 47 169
f 47 49 169
f 169 49 170
f 49 51 170
f 170 51 171
f 51 53 171
f 171 53 172
f 53 55 172
f 172 55 173
f 55 57 173
f 173 57 174
f 57 59 174
f 174 59 175
f 59 61 175
f 175 61 176
f 61 63 176
f 176 63 177
f 63 65 177
f 177 65 178
f 65 67 178
f 178 67 179
f 67 69 179
f 179 69 180
f 69 71 180
f 180 71 181
f 71 73 181
f 181 73 182
f 73 75 182
f 182 75 183
f 75 77 183
f 183 77 184
f 77 79 184
f 184 79 185
f 79 81 185
f 185 81 186
f 81 83 186
f 186 83 187
f 83 85 187
f 187 85 188
f 85 87 188
f 188 87 189
f 87 89 189
f 189 89 190
f 89 91 190
f 190 91 191
f 91 93 191
f 191 93 192
f 93 95 192
f 192 95 193
f 95 97 193
f 193 97 194
f 97 99 194
f 194 99 195
f 99 101 195
f 195 101 196
f 101 103 196
f 196 103 197
f 103 105 197
f 197 105 198
f 105 107 198
f 198 107 199
f 107 109 199
f 199 109 200
f 109 111 200
f 200 111 201
f 111 113 201
f 201 113 202
f 113 115 202
f 202 115 203
f 115 117 203
f 203 117 204
f 117 119 204
f 204 119 205
f 119 121 205
f 205 121 206
f 121 123 206
f 206 123 207
f 123 125 207
f 207 125 208
f 125 127 208
f 208 127 209
f 127 129 209
f 209 129 210
f 129 131 210
f 210 131 211
f 131 133 211
f 211 133 212
f 133 135 212
f 212 135 213
f 135 137 213
f 213 137 214
f 137 139 214
f 214 139 215
f 139 141 215
f 215 141 216
f 141 143 216
f 216 143 217
f 143 1 217
f 217 1 146
f 1 3 146
f 218 219 220
f 219 221 220
f 220 221 222
f 223 224 220
f 224 225 220
f 220 225 218
f 226 227 220
f 227 228 220
f 220 228 223
f 229 230 220
f 230 231 220
f 220 231 226
f 232 233 220
f 233 234 220
f 220 234 229
f 235 236 220
f 236 237 220
f 220 237 232
f 238 239 220
f 239 240 220
f 220 240 235
f 241 242 220
f 242 243 220
f 220 243 238
f 244 245 220
f 245 246 220
f 220 246 241
f 247 248 220
f 248 249 220
f 220 249 244
f 250 251 220
f 251 252 220
f 220 252 247
f 253 254 220
f 254 255 220
f 220 255 250
f 256 257 220
f 257 258 220
f 220 258 253
f 259 260 220
f 260 261 220
f 220 261 256
f 262 263 220
f 263 264 220
f 220 264 259
f 265 266 220
f 266 267 220
f 220 267 262
f 268 269 220
f 269 270 220
f 220 270 265
f 271 272 220
f 272 273 220
f 220 273 268
f 274 275 220
f 275 276 220
f 220 276 271
f 277 278 220
f 278 279 220
f 220 279 274
f 280 281 220
f 281 282 220
f 220 282 277
f 283 284 220
f 284 285 220
f 220 285 280
f 286 287 220
f 287 288 220
f 220 288 283
f 222 289 220
f 289 290 220
f 220 290 286
f 146 219 217
f 219 218 217
f 217 218 216
f 218 225 216
f 216 225 215
f 225 224 215
f 215 224 214
f 224 223 214
f 214 223 213
f 223 228 213
f 213 228 212
f 228 227 212
f 212 227 211
f 227 226 211
f 211 226 210
f 226 231 210
f 210 231 209
f 231 230 209
f 209 230 208
f 230 229 208
f 208 229 207
f 229 234 207
f 207 234 206
f 234 233 206
f 206 233 205
f 233 232 205
f 205 232 204
f 232 237 204
f 204 237 203
f 237 236 203
f 203 236 202
f 236 235 202
f 202 235 201
f 235 240 201
f 201 240 200
f 240 239 200
f 200 239 199
f 239 238 199
f 199 238 198
f 238 243 198
f 198 243 197
f 243 242 197
f 197 242 196
f 242 241 196
f 196 241 195
f 241 246 195
f 195 246 194
f 246 245 194
f 194 245 193
f 245 244 193
f 193 244 192
f 244 249 192
f 192 249 191
f 249 248 191
f 191 248 190
f 248 247 190
f 190 247 189
f 247 252 189
f 189 252 188
f 252 251 188
f 188 251 187
f 251 250 187
f 187 250 186
f 250 255 186
f 186 255 185
f 255 254 185
f 185 254 184
f 254 253 184
f 184 253 183
f 253 258 183
f 183 258 182
f 258 257 182
f 182 257 181
f 257 256 181
f 181 256 180
f 256 261 180
f 180 261 179
f 261 260 179
f 179 260 178
f 260 259 178
f 178 259 177
f 259 264 177
f 177 264 176
f 264 263 176
f 176 263 175
f 263 262 175
f 175 262 174
f 262 267 174
f 174 267 173
f 267 266 173
f 173 266 172
f 266 265 172
f 172 265 171
f 265 270 171
f 171 270 170
f 270 269 170
f 170 269 169
f 269 268 169
f 169 268 168
f 268 273 168
f 168 273 167
f 273 272 167
f 167 272 166
f 272 271 166
f 166 271 165
f 271 276 165
f 165 276 164
f 276 275 164
f 164 275 163
f 275 274 163
f 163 274 162
f 274 279 162
f 162 279 161
f 279 278 161
f 161 278 160
f 278 277 160
f 160 277 159
f 277 282 159
f 159 282 158
f 282 281 158
f 158 281 157
f 281 280 157
f 157 280 156
f 280 285 156
f 156 285 155
f 285 284 155
f 155 284 154
f 284 283 154
f 154 283 153
f 283 288 153
f 153 288 152
f 288 287 152
f 152 287 151
f 287 286 151
f 151 286 150
f 286 290 150
f 150 290 149
f 290 289 149
f 149 289 148
f 289 222 148
f 148 222 147
f 222 221 147
f 147 221 146
f 221 219 146

