# https://github.com/mikedh/trimesh
v 0.05755000 0.05607107 0.01000000
v 0.38735098 0.05607107 0.01000000
v 0.38735098 0.05615822 0.00999619
v 0.05755000 0.05615822 0.00999619
v 0.38735098 0.05624472 0.00998481
v 0.05755000 0.05624472 0.00998481
v 0.38735098 0.05632989 0.00996593
v 0.05755000 0.05632989 0.00996593
v 0.38735098 0.05641309 0.00993969
v 0.05755000 0.05641309 0.00993969
v 0.38735098 0.05649368 0.00990631
v 0.05755000 0.05649368 0.00990631
v 0.38735098 0.05657107 0.00986603
v 0.05755000 0.05657107 0.00986603
v 0.38735098 0.05664464 0.00981915
v 0.05755000 0.05664464 0.00981915
v 0.38735098 0.05671386 0.00976604
v 0.05755000 0.05671386 0.00976604
v 0.38735098 0.05677817 0.00970711
v 0.05755000 0.05677817 0.00970711
v 0.38735098 0.05683711 0.00964279
v 0.05755000 0.05683711 0.00964279
v 0.38735098 0.05689022 0.00957358
v 0.05755000 0.05689022 0.00957358
v 0.38735098 0.05693709 0.00950000
v 0.05755000 0.05693709 0.00950000
v 0.38735098 0.05697738 0.00942262
v 0.05755000 0.05697738 0.00942262
v 0.38735098 0.05701076 0.00934202
v 0.05755000 0.05701076 0.00934202
v 0.38735098 0.05703699 0.00925882
v 0.05755000 0.05703699 0.00925882
v 0.38735098 0.05705588 0.00917365
v 0.05755000 0.05705588 0.00917365
v 0.38735098 0.05706726 0.00908716
v 0.05755000 0.05706726 0.00908716
v 0.38735098 0.05707107 0.00900000
v 0.05755000 0.05707107 0.00900000
v 0.38735098 0.05707107 0.00436500
v 0.05755000 0.05707107 0.00436500
v 0.38735098 0.03807107 -0.00995000
v 0.38735098 0.04275607 -0.00995000
v 0.38735098 0.04157107 -0.00820000
v 0.38735098 0.04390251 -0.00880355
v 0.38735098 0.04365252 -0.00820000
v 0.38735098 0.05257107 -0.00820000
v 0.38735098 0.05048962 -0.00820000
v 0.38735098 0.05023962 -0.00880355
v 0.38735098 0.05707107 -0.00895000
v 0.38735098 0.05707107 -0.00436500
v 0.38735098 0.05527107 -0.00550000
v 0.38735098 0.05587462 -0.00316855
v 0.38735098 0.05527107 -0.00341855
v 0.38735098 0.05527241 -0.00338774
v 0.38735098 0.03886972 -0.00338774
v 0.38735098 0.03829025 -0.00314772
v 0.38735098 0.03887107 -0.00341855
v 0.38735098 0.03826752 -0.00316855
v 0.38735098 0.03887107 -0.00550000
v 0.38735098 0.04392335 -0.00878081
v 0.38735098 0.04394213 -0.00875634
v 0.38735098 0.04395870 -0.00873033
v 0.38735098 0.04397294 -0.00870297
v 0.38735098 0.04398474 -0.00867448
v 0.38735098 0.04399402 -0.00864506
v 0.38735098 0.04399402 -0.00846205
v 0.38735098 0.04398474 -0.00843263
v 0.38735098 0.04397294 -0.00840414
v 0.38735098 0.04395870 -0.00837678
v 0.38735098 0.04390251 -0.00830355
v 0.38735098 0.04387977 -0.00828272
v 0.38735098 0.04377344 -0.00822132
v 0.38735098 0.04394213 -0.00835076
v 0.38735098 0.04392335 -0.00832629
v 0.38735098 0.04368333 -0.00820135
v 0.38735098 0.04371391 -0.00820537
v 0.38735098 0.05045881 0.00820135
v 0.38735098 0.05048962 0.00820000
v 0.38735098 0.05020001 0.00835076
v 0.38735098 0.05527107 0.00550000
v 0.38735098 0.03886570 -0.00335716
v 0.38735098 0.03885902 -0.00332705
v 0.38735098 0.03884974 -0.00329763
v 0.38735098 0.03883794 -0.00326914
v 0.38735098 0.03882370 -0.00324178
v 0.38735098 0.03880713 -0.00321576
v 0.38735098 0.03878835 -0.00319129
v 0.38735098 0.03876751 -0.00316855
v 0.38735098 0.03874477 -0.00314772
v 0.38735098 0.05143607 0.01000000
v 0.38735098 0.05257107 0.00820000
v 0.38735098 0.05023962 0.00880355
v 0.38735098 0.05021878 0.00878081
v 0.38735098 0.05587462 0.00316855
v 0.38735098 0.03857891 -0.00307037
v 0.38735098 0.03854833 -0.00306635
v 0.38735098 0.04400070 -0.00861495
v 0.38735098 0.04400472 -0.00858437
v 0.38735098 0.04400607 -0.00855355
v 0.38735098 0.04380193 -0.00823313
v 0.38735098 0.04385531 -0.00826394
v 0.38735098 0.04382929 -0.00824737
v 0.38735098 0.04374402 -0.00821205
v 0.38735098 0.04399402 0.00846205
v 0.38735098 0.04400070 0.00849216
v 0.38735098 0.04365252 0.00820000
v 0.38735098 0.05527107 0.00341855
v 0.38735098 0.05527241 0.00338774
v 0.38735098 0.05585188 0.00314772
v 0.38735098 0.05527644 0.00335716
v 0.38735098 0.05020001 -0.00835076
v 0.38735098 0.05018343 -0.00837678
v 0.38735098 0.05014811 -0.00846205
v 0.38735098 0.05014144 -0.00849216
v 0.38735098 0.05013741 -0.00852274
v 0.38735098 0.05013607 -0.00855355
v 0.38735098 0.05013741 -0.00858437
v 0.38735098 0.05014144 -0.00861495
v 0.38735098 0.05014811 -0.00864506
v 0.38735098 0.05015739 -0.00867448
v 0.38735098 0.05016919 -0.00870297
v 0.38735098 0.05018343 -0.00873033
v 0.38735098 0.05020001 -0.00875634
v 0.38735098 0.05021878 -0.00878081
v 0.38735098 0.03872031 -0.00312894
v 0.38735098 0.03869429 -0.00311237
v 0.38735098 0.03866693 -0.00309813
v 0.38735098 0.04400472 -0.00852274
v 0.38735098 0.04400070 -0.00849216
v 0.38735098 0.05542183 -0.00312894
v 0.38735098 0.05539736 -0.00314772
v 0.38735098 0.05533501 -0.00321576
v 0.38735098 0.05531843 -0.00324178
v 0.38735098 0.05530419 -0.00326914
v 0.38735098 0.05529239 -0.00329763
v 0.38735098 0.05528311 -0.00332705
v 0.38735098 0.05527644 -0.00335716
v 0.38735098 0.03886972 0.00338774
v 0.38735098 0.03887107 0.00341855
v 0.38735098 0.03826752 0.00316855
v 0.38735098 0.03887107 0.00550000
v 0.38735098 0.03707107 0.00436500
v 0.38735098 0.05016919 -0.00840414
v 0.38735098 0.05015739 -0.00843263
v 0.38735098 0.03863844 -0.00308632
v 0.38735098 0.03860902 -0.00307705
v 0.38735098 0.05544784 -0.00311237
v 0.38735098 0.05537462 -0.00316855
v 0.38735098 0.05535378 -0.00319129
v 0.38735098 0.05020001 0.00875634
v 0.38735098 0.05018343 0.00873033
v 0.38735098 0.05016919 0.00870297
v 0.38735098 0.04394213 0.00835076
v 0.38735098 0.04395870 0.00837678
v 0.38735098 0.03845612 -0.00307037
v 0.38735098 0.03842601 -0.00307705
v 0.38735098 0.03839659 -0.00308632
v 0.38735098 0.03851752 -0.00306500
v 0.38735098 0.03848670 -0.00306635
v 0.38735098 0.03831473 -0.00312894
v 0.38735098 0.03834074 -0.00311237
v 0.38735098 0.04397294 0.00840414
v 0.38735098 0.04398474 0.00843263
v 0.38735098 0.04400472 0.00852274
v 0.38735098 0.04400607 0.00855355
v 0.38735098 0.04400472 0.00858437
v 0.38735098 0.04400070 0.00861495
v 0.38735098 0.04399402 0.00864506
v 0.38735098 0.04398474 0.00867448
v 0.38735098 0.05021878 -0.00832629
v 0.38735098 0.05045881 -0.00820135
v 0.38735098 0.05042823 -0.00820537
v 0.38735098 0.03836809 -0.00309813
v 0.38735098 0.05580140 -0.00311237
v 0.38735098 0.05582741 -0.00312894
v 0.38735098 0.05585188 -0.00314772
v 0.38735098 0.05577404 -0.00309813
v 0.38735098 0.05574554 -0.00308632
v 0.38735098 0.05571613 -0.00307705
v 0.38735098 0.05568602 -0.00307037
v 0.38735098 0.05565543 -0.00306635
v 0.38735098 0.05562462 -0.00306500
v 0.38735098 0.05559381 -0.00306635
v 0.38735098 0.05556323 -0.00307037
v 0.38735098 0.05553311 -0.00307705
v 0.38735098 0.05550370 -0.00308632
v 0.38735098 0.05547520 -0.00309813
v 0.38735098 0.05014144 0.00861495
v 0.38735098 0.05013741 0.00858437
v 0.38735098 0.05013607 0.00855355
v 0.38735098 0.05013741 0.00852274
v 0.38735098 0.05014144 0.00849216
v 0.38735098 0.05014811 0.00846205
v 0.38735098 0.05015739 0.00843263
v 0.38735098 0.03876751 0.00316855
v 0.38735098 0.03878835 0.00319129
v 0.38735098 0.03880713 0.00321576
v 0.38735098 0.05384386 0.00550000
v 0.38735098 0.05257107 0.00677279
v 0.38735098 0.05671386 -0.00971604
v 0.38735098 0.05677817 -0.00965711
v 0.38735098 0.05257107 -0.00677279
v 0.38735098 0.05701076 -0.00929202
v 0.38735098 0.05697738 -0.00937262
v 0.38735098 0.05693709 -0.00945000
v 0.38735098 0.04397294 0.00870297
v 0.38735098 0.04395870 0.00873033
v 0.38735098 0.04394213 0.00875634
v 0.38735098 0.05528311 0.00332705
v 0.38735098 0.05529239 0.00329763
v 0.38735098 0.05530419 0.00326914
v 0.38735098 0.05039812 -0.00821205
v 0.38735098 0.05036870 -0.00822132
v 0.38735098 0.05015739 0.00867448
v 0.38735098 0.05014811 0.00864506
v 0.38735098 0.05016919 0.00840414
v 0.38735098 0.05018343 0.00837678
v 0.38735098 0.03882370 0.00324178
v 0.38735098 0.03883794 0.00326914
v 0.38735098 0.03884974 0.00329763
v 0.38735098 0.03885902 0.00332705
v 0.38735098 0.03886570 0.00335716
v 0.38735098 0.03716476 0.00942262
v 0.38735098 0.03713138 0.00934202
v 0.38735098 0.04157107 0.00820000
v 0.38735098 0.03710514 0.00925882
v 0.38735098 0.03708626 0.00917365
v 0.38735098 0.05703699 -0.00920882
v 0.38735098 0.05705588 -0.00912365
v 0.38735098 0.05706726 -0.00903716
v 0.38735098 0.04392335 0.00832629
v 0.38735098 0.04368333 0.00820135
v 0.38735098 0.04371391 0.00820537
v 0.38735098 0.04392335 0.00878081
v 0.38735098 0.04390251 0.00880355
v 0.38735098 0.05531843 0.00324178
v 0.38735098 0.05533501 0.00321576
v 0.38735098 0.05582741 0.00312894
v 0.38735098 0.05580140 0.00311237
v 0.38735098 0.05034020 -0.00823313
v 0.38735098 0.05031284 -0.00824737
v 0.38735098 0.05028683 -0.00826394
v 0.38735098 0.04270607 0.01000000
v 0.38735098 0.03807107 0.01000000
v 0.38735098 0.03798391 0.00999619
v 0.38735098 0.05683711 -0.00959279
v 0.38735098 0.05689022 -0.00952358
v 0.38735098 0.04374402 0.00821205
v 0.38735098 0.04377344 0.00822132
v 0.38735098 0.05535378 0.00319129
v 0.38735098 0.05537462 0.00316855
v 0.38735098 0.05559381 0.00306635
v 0.38735098 0.05539736 0.00314772
v 0.38735098 0.05556323 0.00307037
v 0.38735098 0.05553311 0.00307705
v 0.38735098 0.05565543 0.00306635
v 0.38735098 0.05568602 0.00307037
v 0.38735098 0.05571613 0.00307705
v 0.38735098 0.05026236 -0.00828272
v 0.38735098 0.05023962 -0.00830355
v 0.38735098 0.05026236 0.00828272
v 0.38735098 0.05028683 0.00826394
v 0.38735098 0.05023962 0.00830355
v 0.38735098 0.05031284 0.00824737
v 0.38735098 0.05021878 0.00832629
v 0.38735098 0.05034020 0.00823313
v 0.38735098 0.05036870 0.00822132
v 0.38735098 0.05039812 0.00821205
v 0.38735098 0.05042823 0.00820537
v 0.38735098 0.03831473 0.00312894
v 0.38735098 0.03834074 0.00311237
v 0.38735098 0.03874477 0.00314772
v 0.38735098 0.03836809 0.00309813
v 0.38735098 0.03839659 0.00308632
v 0.38735098 0.03707487 -0.00903716
v 0.38735098 0.03708626 -0.00912365
v 0.38735098 0.03730502 0.00964279
v 0.38735098 0.03725192 0.00957358
v 0.38735098 0.03720504 0.00950000
v 0.38735098 0.03707487 0.00908716
v 0.38735098 0.03707107 0.00900000
v 0.38735098 0.04157107 0.00677279
v 0.38735098 0.05138607 -0.00995000
v 0.38735098 0.05607107 -0.00995000
v 0.38735098 0.05615822 -0.00994619
v 0.38735098 0.05624472 -0.00993481
v 0.38735098 0.05632989 -0.00991593
v 0.38735098 0.05641309 -0.00988969
v 0.38735098 0.05649368 -0.00985631
v 0.38735098 0.04380193 0.00823313
v 0.38735098 0.04382929 0.00824737
v 0.38735098 0.04385531 0.00826394
v 0.38735098 0.05542183 0.00312894
v 0.38735098 0.05544784 0.00311237
v 0.38735098 0.05550370 0.00308632
v 0.38735098 0.05547520 0.00309813
v 0.38735098 0.05562462 0.00306500
v 0.38735098 0.03842601 0.00307705
v 0.38735098 0.03845612 0.00307037
v 0.38735098 0.03848670 0.00306635
v 0.38735098 0.03851752 0.00306500
v 0.38735098 0.03854833 0.00306635
v 0.38735098 0.03857891 0.00307037
v 0.38735098 0.03866693 0.00309813
v 0.38735098 0.03872031 0.00312894
v 0.38735098 0.03869429 0.00311237
v 0.38735098 0.03707107 -0.00895000
v 0.38735098 0.03710514 -0.00920882
v 0.38735098 0.03713138 -0.00929202
v 0.38735098 0.03716476 -0.00937262
v 0.38735098 0.05657107 -0.00981603
v 0.38735098 0.05664464 -0.00976915
v 0.38735098 0.04387977 0.00828272
v 0.38735098 0.04390251 0.00830355
v 0.38735098 0.05574554 0.00308632
v 0.38735098 0.05577404 0.00309813
v 0.38735098 0.03829025 0.00314772
v 0.38735098 0.03860902 0.00307705
v 0.38735098 0.03863844 0.00308632
v 0.38735098 0.03707107 -0.00436500
v 0.38735098 0.04157107 -0.00677279
v 0.38735098 0.03789742 0.00998481
v 0.38735098 0.03781225 0.00996593
v 0.38735098 0.03772905 0.00993969
v 0.38735098 0.03749749 0.00981915
v 0.38735098 0.03742828 0.00976604
v 0.38735098 0.03736396 0.00970711
v 0.38735098 0.03764845 0.00990631
v 0.38735098 0.03757107 0.00986603
v 0.38735098 0.03720504 -0.00945000
v 0.38735098 0.03725192 -0.00952358
v 0.38735098 0.03730502 -0.00959279
v 0.38735098 0.03772905 -0.00988969
v 0.38735098 0.03781225 -0.00991593
v 0.38735098 0.04444386 -0.00390000
v 0.38735098 0.04317107 -0.00262721
v 0.38735098 0.04029828 -0.00550000
v 0.38735098 0.03736396 -0.00965711
v 0.38735098 0.03742828 -0.00971604
v 0.38735098 0.03749749 -0.00976915
v 0.38735098 0.03789742 -0.00993481
v 0.38735098 0.03798391 -0.00994619
v 0.38735098 0.05097107 -0.00262721
v 0.38735098 0.04969827 -0.00390000
v 0.38735098 0.05384386 -0.00550000
v 0.38735098 0.03757107 -0.00981603
v 0.38735098 0.03764845 -0.00985631
v 0.38735098 0.05097107 0.00262721
v 0.38735098 0.04969827 0.00390000
v 0.38735098 0.04317107 0.00262721
v 0.38735098 0.04444386 0.00390000
v 0.38735098 0.04029828 0.00550000
v 0.38735098 0.04942030 -0.00085505
v 0.38735098 0.04933684 -0.00105655
v 0.38735098 0.04923613 -0.00125000
v 0.38735098 0.04911895 -0.00143394
v 0.38735098 0.04898618 -0.00160697
v 0.38735098 0.04883884 -0.00176777
v 0.38735098 0.04502319 -0.00143394
v 0.38735098 0.04490601 -0.00125000
v 0.38735098 0.04460905 0.00043412
v 0.38735098 0.04465625 0.00064705
v 0.38735098 0.04472184 0.00085505
v 0.38735098 0.04465625 -0.00064705
v 0.38735098 0.04460905 -0.00043412
v 0.38735098 0.04458058 -0.00021789
v 0.38735098 0.04457107 -0.00000000
v 0.38735098 0.04458058 0.00021789
v 0.38735098 0.04480530 0.00105655
v 0.38735098 0.04490601 0.00125000
v 0.38735098 0.04502319 0.00143394
v 0.38735098 0.04867804 -0.00191511
v 0.38735098 0.04850501 -0.00204788
v 0.38735098 0.04832107 -0.00216506
v 0.38735098 0.04812761 -0.00226577
v 0.38735098 0.04792612 -0.00234923
v 0.38735098 0.04771812 -0.00241481
v 0.38735098 0.04480530 -0.00105655
v 0.38735098 0.04472184 -0.00085505
v 0.38735098 0.04515596 0.00160697
v 0.38735098 0.04530330 0.00176777
v 0.38735098 0.04546410 0.00191511
v 0.38735098 0.04911895 0.00143394
v 0.38735098 0.04923613 0.00125000
v 0.38735098 0.04948588 0.00064705
v 0.38735098 0.04953309 0.00043412
v 0.38735098 0.04956155 0.00021789
v 0.38735098 0.04957107 -0.00000000
v 0.38735098 0.04956155 -0.00021789
v 0.38735098 0.04953309 -0.00043412
v 0.38735098 0.04948588 -0.00064705
v 0.38735098 0.04750519 -0.00246202
v 0.38735098 0.04728896 -0.00249049
v 0.38735098 0.04707107 -0.00250000
v 0.38735098 0.04685318 -0.00249049
v 0.38735098 0.04663695 -0.00246202
v 0.38735098 0.04642402 -0.00241481
v 0.38735098 0.04621602 -0.00234923
v 0.38735098 0.04601452 -0.00226577
v 0.38735098 0.04582107 -0.00216506
v 0.38735098 0.04563713 -0.00204788
v 0.38735098 0.04546410 -0.00191511
v 0.38735098 0.04530330 -0.00176777
v 0.38735098 0.04515596 -0.00160697
v 0.38735098 0.04933684 0.00105655
v 0.38735098 0.04942030 0.00085505
v 0.38735098 0.04563713 0.00204788
v 0.38735098 0.04582107 0.00216506
v 0.38735098 0.04601452 0.00226577
v 0.38735098 0.04621602 0.00234923
v 0.38735098 0.04642402 0.00241481
v 0.38735098 0.04663695 0.00246202
v 0.38735098 0.04685318 0.00249049
v 0.38735098 0.04707107 0.00250000
v 0.38735098 0.04728896 0.00249049
v 0.38735098 0.04750519 0.00246202
v 0.38735098 0.04812761 0.00226577
v 0.38735098 0.04832107 0.00216506
v 0.38735098 0.04850501 0.00204788
v 0.38735098 0.04867804 0.00191511
v 0.38735098 0.04883884 0.00176777
v 0.38735098 0.04898618 0.00160697
v 0.38735098 0.04771812 0.00241481
v 0.38735098 0.04792612 0.00234923
v 0.05755000 0.05707107 -0.00895000
v 0.05755000 0.05706726 -0.00903716
v 0.05755000 0.05705588 -0.00912365
v 0.05755000 0.05703699 -0.00920882
v 0.05755000 0.05701076 -0.00929202
v 0.05755000 0.05697738 -0.00937262
v 0.05755000 0.05693709 -0.00945000
v 0.05755000 0.05689022 -0.00952358
v 0.05755000 0.05683711 -0.00959279
v 0.05755000 0.05677817 -0.00965711
v 0.05755000 0.05671386 -0.00971604
v 0.05755000 0.05664464 -0.00976915
v 0.05755000 0.05657107 -0.00981603
v 0.05755000 0.05649368 -0.00985631
v 0.05755000 0.05641309 -0.00988969
v 0.05755000 0.05632989 -0.00991593
v 0.05755000 0.05624472 -0.00993481
v 0.05755000 0.05615822 -0.00994619
v 0.05755000 0.05607107 -0.00995000
v 0.05755000 0.05138607 -0.00995000
v 0.05755000 0.03807107 0.01000000
v 0.05755000 0.03798391 0.00999619
v 0.05755000 0.03789742 0.00998481
v 0.05755000 0.03781225 0.00996593
v 0.05755000 0.03772905 0.00993969
v 0.05755000 0.03764845 0.00990631
v 0.05755000 0.03757107 0.00986603
v 0.05755000 0.03749749 0.00981915
v 0.05755000 0.03742828 0.00976604
v 0.05755000 0.03736396 0.00970711
v 0.05755000 0.03730502 0.00964279
v 0.05755000 0.03725192 0.00957358
v 0.05755000 0.03720504 0.00950000
v 0.05755000 0.03716476 0.00942262
v 0.05755000 0.03713138 0.00934202
v 0.05755000 0.03710514 0.00925882
v 0.05755000 0.03708626 0.00917365
v 0.05755000 0.03707487 0.00908716
v 0.05755000 0.03707107 0.00900000
v 0.05755000 0.04270607 0.01000000
v 0.05755000 0.03707107 -0.00895000
v 0.05755000 0.03707487 -0.00903716
v 0.05755000 0.03708626 -0.00912365
v 0.05755000 0.03710514 -0.00920882
v 0.05755000 0.03713138 -0.00929202
v 0.05755000 0.03716476 -0.00937262
v 0.05755000 0.03720504 -0.00945000
v 0.05755000 0.03725192 -0.00952358
v 0.05755000 0.03730502 -0.00959279
v 0.05755000 0.03736396 -0.00965711
v 0.05755000 0.03742828 -0.00971604
v 0.05755000 0.03749749 -0.00976915
v 0.05755000 0.03757107 -0.00981603
v 0.05755000 0.03764845 -0.00985631
v 0.05755000 0.03772905 -0.00988969
v 0.05755000 0.03781225 -0.00991593
v 0.05755000 0.03789742 -0.00993481
v 0.05755000 0.03798391 -0.00994619
v 0.05755000 0.03807107 -0.00995000
v 0.05755000 0.03707107 -0.00436500
v 0.05755000 0.04317107 -0.00262721
v 0.05755000 0.04317107 0.00262721
v 0.05755000 0.04029828 -0.00550000
v 0.05755000 0.03887107 -0.00550000
v 0.05755000 0.03887107 -0.00341855
v 0.05755000 0.03826752 -0.00316855
v 0.05755000 0.03829025 -0.00314772
v 0.05755000 0.03831473 -0.00312894
v 0.05755000 0.03834074 -0.00311237
v 0.05755000 0.03836809 -0.00309813
v 0.05755000 0.03839659 -0.00308632
v 0.05755000 0.03842601 -0.00307705
v 0.05755000 0.03845612 -0.00307037
v 0.05755000 0.03848670 -0.00306635
v 0.05755000 0.03851752 -0.00306500
v 0.05755000 0.03854833 -0.00306635
v 0.05755000 0.03857891 -0.00307037
v 0.05755000 0.03860902 -0.00307705
v 0.05755000 0.03863844 -0.00308632
v 0.05755000 0.03866693 -0.00309813
v 0.05755000 0.03869429 -0.00311237
v 0.05755000 0.03872031 -0.00312894
v 0.05755000 0.03874477 -0.00314772
v 0.05755000 0.03876751 -0.00316855
v 0.05755000 0.03878835 -0.00319129
v 0.05755000 0.03880713 -0.00321576
v 0.05755000 0.03882370 -0.00324178
v 0.05755000 0.03883794 -0.00326914
v 0.05755000 0.03884974 -0.00329763
v 0.05755000 0.03885902 -0.00332705
v 0.05755000 0.03886570 -0.00335716
v 0.05755000 0.03886972 -0.00338774
v 0.05755000 0.03826752 0.00316855
v 0.05755000 0.03707107 0.00436500
v 0.05755000 0.03887107 0.00341855
v 0.05755000 0.03886972 0.00338774
v 0.05755000 0.03886570 0.00335716
v 0.05755000 0.03885902 0.00332705
v 0.05755000 0.03884974 0.00329763
v 0.05755000 0.03883794 0.00326914
v 0.05755000 0.03882370 0.00324178
v 0.05755000 0.03880713 0.00321576
v 0.05755000 0.03878835 0.00319129
v 0.05755000 0.03876751 0.00316855
v 0.05755000 0.03874477 0.00314772
v 0.05755000 0.03872031 0.00312894
v 0.05755000 0.03869429 0.00311237
v 0.05755000 0.03866693 0.00309813
v 0.05755000 0.03863844 0.00308632
v 0.05755000 0.03860902 0.00307705
v 0.05755000 0.03857891 0.00307037
v 0.05755000 0.03854833 0.00306635
v 0.05755000 0.03851752 0.00306500
v 0.05755000 0.03848670 0.00306635
v 0.05755000 0.03845612 0.00307037
v 0.05755000 0.03842601 0.00307705
v 0.05755000 0.03839659 0.00308632
v 0.05755000 0.03836809 0.00309813
v 0.05755000 0.03834074 0.00311237
v 0.05755000 0.03831473 0.00312894
v 0.05755000 0.03829025 0.00314772
v 0.05755000 0.03887107 0.00550000
v 0.05755000 0.04029828 0.00550000
v 0.05755000 0.05097107 0.00262721
v 0.05755000 0.05097107 -0.00262721
v 0.05755000 0.05384386 0.00550000
v 0.05755000 0.05527107 0.00550000
v 0.05755000 0.04969827 -0.00390000
v 0.05755000 0.04444386 -0.00390000
v 0.05755000 0.05257107 -0.00677279
v 0.05755000 0.05257107 -0.00820000
v 0.05755000 0.05048962 -0.00820000
v 0.05755000 0.05023962 -0.00880355
v 0.05755000 0.05021878 -0.00878081
v 0.05755000 0.05020001 -0.00875634
v 0.05755000 0.05018343 -0.00873033
v 0.05755000 0.05016919 -0.00870297
v 0.05755000 0.05015739 -0.00867448
v 0.05755000 0.05014811 -0.00864506
v 0.05755000 0.05014144 -0.00861495
v 0.05755000 0.05013741 -0.00858437
v 0.05755000 0.05013607 -0.00855355
v 0.05755000 0.05013741 -0.00852274
v 0.05755000 0.05014144 -0.00849216
v 0.05755000 0.05014811 -0.00846205
v 0.05755000 0.05015739 -0.00843263
v 0.05755000 0.05016919 -0.00840414
v 0.05755000 0.05018343 -0.00837678
v 0.05755000 0.05020001 -0.00835076
v 0.05755000 0.05021878 -0.00832629
v 0.05755000 0.05023962 -0.00830355
v 0.05755000 0.05026236 -0.00828272
v 0.05755000 0.05028683 -0.00826394
v 0.05755000 0.05031284 -0.00824737
v 0.05755000 0.05034020 -0.00823313
v 0.05755000 0.05036870 -0.00822132
v 0.05755000 0.05039812 -0.00821205
v 0.05755000 0.05042823 -0.00820537
v 0.05755000 0.05045881 -0.00820135
v 0.05755000 0.04390251 -0.00880355
v 0.05755000 0.04275607 -0.00995000
v 0.05755000 0.04365252 -0.00820000
v 0.05755000 0.04368333 -0.00820135
v 0.05755000 0.04371391 -0.00820537
v 0.05755000 0.04374402 -0.00821205
v 0.05755000 0.04377344 -0.00822132
v 0.05755000 0.04380193 -0.00823313
v 0.05755000 0.04382929 -0.00824737
v 0.05755000 0.04385531 -0.00826394
v 0.05755000 0.04387977 -0.00828272
v 0.05755000 0.04390251 -0.00830355
v 0.05755000 0.04392335 -0.00832629
v 0.05755000 0.04394213 -0.00835076
v 0.05755000 0.04395870 -0.00837678
v 0.05755000 0.04397294 -0.00840414
v 0.05755000 0.04398474 -0.00843263
v 0.05755000 0.04399402 -0.00846205
v 0.05755000 0.04400070 -0.00849216
v 0.05755000 0.04400472 -0.00852274
v 0.05755000 0.04400607 -0.00855355
v 0.05755000 0.04400472 -0.00858437
v 0.05755000 0.04400070 -0.00861495
v 0.05755000 0.04399402 -0.00864506
v 0.05755000 0.04398474 -0.00867448
v 0.05755000 0.04397294 -0.00870297
v 0.05755000 0.04395870 -0.00873033
v 0.05755000 0.04394213 -0.00875634
v 0.05755000 0.04392335 -0.00878081
v 0.05755000 0.04157107 -0.00820000
v 0.05755000 0.04157107 -0.00677279
v 0.05755000 0.04394213 0.00875634
v 0.05755000 0.04395870 0.00873033
v 0.05755000 0.04365252 0.00820000
v 0.05755000 0.05587462 0.00316855
v 0.05755000 0.05527107 0.00341855
v 0.05755000 0.05018343 0.00873033
v 0.05755000 0.05020001 0.00875634
v 0.05755000 0.05048962 0.00820000
v 0.05755000 0.04397294 0.00870297
v 0.05755000 0.04398474 0.00867448
v 0.05755000 0.04399402 0.00864506
v 0.05755000 0.04400070 0.00861495
v 0.05755000 0.04400472 0.00858437
v 0.05755000 0.04400607 0.00855355
v 0.05755000 0.04400472 0.00852274
v 0.05755000 0.04400070 0.00849216
v 0.05755000 0.04399402 0.00846205
v 0.05755000 0.05528311 0.00332705
v 0.05755000 0.05527644 0.00335716
v 0.05755000 0.05527241 0.00338774
v 0.05755000 0.05707107 -0.00436500
v 0.05755000 0.05527107 -0.00550000
v 0.05755000 0.05021878 0.00878081
v 0.05755000 0.05023962 0.00880355
v 0.05755000 0.05257107 0.00820000
v 0.05755000 0.04157107 0.00820000
v 0.05755000 0.04390251 0.00880355
v 0.05755000 0.04392335 0.00878081
v 0.05755000 0.04398474 0.00843263
v 0.05755000 0.04397294 0.00840414
v 0.05755000 0.04395870 0.00837678
v 0.05755000 0.05587462 -0.00316855
v 0.05755000 0.04394213 0.00835076
v 0.05755000 0.04392335 0.00832629
v 0.05755000 0.04368333 0.00820135
v 0.05755000 0.05529239 -0.00329763
v 0.05755000 0.05530419 -0.00326914
v 0.05755000 0.05585188 -0.00314772
v 0.05755000 0.05014811 0.00846205
v 0.05755000 0.05014144 0.00849216
v 0.05755000 0.05013741 0.00852274
v 0.05755000 0.05013607 0.00855355
v 0.05755000 0.04385531 0.00826394
v 0.05755000 0.04382929 0.00824737
v 0.05755000 0.04371391 0.00820537
v 0.05755000 0.05585188 0.00314772
v 0.05755000 0.05533501 0.00321576
v 0.05755000 0.05531843 0.00324178
v 0.05755000 0.05257107 0.00677279
v 0.05755000 0.05018343 0.00837678
v 0.05755000 0.05020001 0.00835076
v 0.05755000 0.05045881 0.00820135
v 0.05755000 0.05016919 0.00840414
v 0.05755000 0.05015739 0.00843263
v 0.05755000 0.05013741 0.00858437
v 0.05755000 0.05014144 0.00861495
v 0.05755000 0.05014811 0.00864506
v 0.05755000 0.05530419 0.00326914
v 0.05755000 0.05529239 0.00329763
v 0.05755000 0.05528311 -0.00332705
v 0.05755000 0.05015739 0.00867448
v 0.05755000 0.05016919 0.00870297
v 0.05755000 0.04387977 0.00828272
v 0.05755000 0.04380193 0.00823313
v 0.05755000 0.04377344 0.00822132
v 0.05755000 0.04374402 0.00821205
v 0.05755000 0.05527107 -0.00341855
v 0.05755000 0.05527241 -0.00338774
v 0.05755000 0.05527644 -0.00335716
v 0.05755000 0.05531843 -0.00324178
v 0.05755000 0.05533501 -0.00321576
v 0.05755000 0.05535378 -0.00319129
v 0.05755000 0.05042823 0.00820537
v 0.05755000 0.05039812 0.00821205
v 0.05755000 0.05036870 0.00822132
v 0.05755000 0.05026236 0.00828272
v 0.05755000 0.05023962 0.00830355
v 0.05755000 0.05028683 0.00826394
v 0.05755000 0.05031284 0.00824737
v 0.05755000 0.05034020 0.00823313
v 0.05755000 0.05021878 0.00832629
v 0.05755000 0.04390251 0.00830355
v 0.05755000 0.05559381 0.00306635
v 0.05755000 0.05539736 0.00314772
v 0.05755000 0.05537462 0.00316855
v 0.05755000 0.05384386 -0.00550000
v 0.05755000 0.05143607 0.01000000
v 0.05755000 0.05537462 -0.00316855
v 0.05755000 0.05539736 -0.00314772
v 0.05755000 0.05542183 -0.00312894
v 0.05755000 0.05568602 0.00307037
v 0.05755000 0.05565543 0.00306635
v 0.05755000 0.05544784 -0.00311237
v 0.05755000 0.05547520 -0.00309813
v 0.05755000 0.05550370 -0.00308632
v 0.05755000 0.05582741 0.00312894
v 0.05755000 0.05580140 0.00311237
v 0.05755000 0.05577404 0.00309813
v 0.05755000 0.05535378 0.00319129
v 0.05755000 0.05562462 0.00306500
v 0.05755000 0.05547520 0.00309813
v 0.05755000 0.05544784 0.00311237
v 0.05755000 0.05550370 0.00308632
v 0.05755000 0.05553311 0.00307705
v 0.05755000 0.05556323 0.00307037
v 0.05755000 0.05542183 0.00312894
v 0.05755000 0.04157107 0.00677279
v 0.05755000 0.05553311 -0.00307705
v 0.05755000 0.05556323 -0.00307037
v 0.05755000 0.05559381 -0.00306635
v 0.05755000 0.05562462 -0.00306500
v 0.05755000 0.05565543 -0.00306635
v 0.05755000 0.05568602 -0.00307037
v 0.05755000 0.05582741 -0.00312894
v 0.05755000 0.05580140 -0.00311237
v 0.05755000 0.05577404 -0.00309813
v 0.05755000 0.05574554 0.00308632
v 0.05755000 0.05571613 0.00307705
v 0.05755000 0.05571613 -0.00307705
v 0.05755000 0.05574554 -0.00308632
v 0.05755000 0.04444386 0.00390000
v 0.05755000 0.04969827 0.00390000
v 0.05755000 0.04601452 0.00226577
v 0.05755000 0.04582107 0.00216506
v 0.05755000 0.04530330 0.00176777
v 0.05755000 0.04515596 0.00160697
v 0.05755000 0.04502319 0.00143394
v 0.05755000 0.04490601 0.00125000
v 0.05755000 0.04480530 0.00105655
v 0.05755000 0.04472184 0.00085505
v 0.05755000 0.04465625 0.00064705
v 0.05755000 0.04923613 -0.00125000
v 0.05755000 0.04933684 -0.00105655
v 0.05755000 0.04942030 -0.00085505
v 0.05755000 0.04948588 -0.00064705
v 0.05755000 0.04563713 0.00204788
v 0.05755000 0.04546410 0.00191511
v 0.05755000 0.04460905 0.00043412
v 0.05755000 0.04458058 0.00021789
v 0.05755000 0.04457107 -0.00000000
v 0.05755000 0.04458058 -0.00021789
v 0.05755000 0.04460905 -0.00043412
v 0.05755000 0.04953309 -0.00043412
v 0.05755000 0.04956155 -0.00021789
v 0.05755000 0.04957107 -0.00000000
v 0.05755000 0.04956155 0.00021789
v 0.05755000 0.04953309 0.00043412
v 0.05755000 0.04707107 0.00250000
v 0.05755000 0.04685318 0.00249049
v 0.05755000 0.04663695 0.00246202
v 0.05755000 0.04642402 0.00241481
v 0.05755000 0.04621602 0.00234923
v 0.05755000 0.04465625 -0.00064705
v 0.05755000 0.04472184 -0.00085505
v 0.05755000 0.04480530 -0.00105655
v 0.05755000 0.04490601 -0.00125000
v 0.05755000 0.04502319 -0.00143394
v 0.05755000 0.04515596 -0.00160697
v 0.05755000 0.04883884 -0.00176777
v 0.05755000 0.04898618 -0.00160697
v 0.05755000 0.04911895 -0.00143394
v 0.05755000 0.04948588 0.00064705
v 0.05755000 0.04942030 0.00085505
v 0.05755000 0.04933684 0.00105655
v 0.05755000 0.04923613 0.00125000
v 0.05755000 0.04911895 0.00143394
v 0.05755000 0.04898618 0.00160697
v 0.05755000 0.04883884 0.00176777
v 0.05755000 0.04867804 0.00191511
v 0.05755000 0.04850501 0.00204788
v 0.05755000 0.04832107 0.00216506
v 0.05755000 0.04812761 0.00226577
v 0.05755000 0.04792612 0.00234923
v 0.05755000 0.04530330 -0.00176777
v 0.05755000 0.04546410 -0.00191511
v 0.05755000 0.04563713 -0.00204788
v 0.05755000 0.04621602 -0.00234923
v 0.05755000 0.04642402 -0.00241481
v 0.05755000 0.04832107 -0.00216506
v 0.05755000 0.04812761 -0.00226577
v 0.05755000 0.04792612 -0.00234923
v 0.05755000 0.04850501 -0.00204788
v 0.05755000 0.04867804 -0.00191511
v 0.05755000 0.04771812 0.00241481
v 0.05755000 0.04750519 0.00246202
v 0.05755000 0.04728896 0.00249049
v 0.05755000 0.04582107 -0.00216506
v 0.05755000 0.04601452 -0.00226577
v 0.05755000 0.04663695 -0.00246202
v 0.05755000 0.04685318 -0.00249049
v 0.05755000 0.04707107 -0.00250000
v 0.05755000 0.04728896 -0.00249049
v 0.05755000 0.04750519 -0.00246202
v 0.05755000 0.04771812 -0.00241481
f 1 2 3
f 1 3 4
f 3 5 4
f 4 5 6
f 5 7 6
f 6 7 8
f 7 9 8
f 8 9 10
f 9 11 10
f 10 11 12
f 11 13 12
f 12 13 14
f 13 15 14
f 14 15 16
f 15 17 16
f 16 17 18
f 17 19 18
f 18 19 20
f 19 21 20
f 20 21 22
f 21 23 22
f 22 23 24
f 23 25 24
f 24 25 26
f 25 27 26
f 26 27 28
f 27 29 28
f 28 29 30
f 29 31 30
f 30 31 32
f 31 33 32
f 32 33 34
f 33 35 34
f 34 35 36
f 35 37 36
f 36 37 38
f 39 40 37
f 40 38 37
f 41 42 43
f 42 44 43
f 43 44 45
f 46 47 48
f 49 50 51
f 50 52 51
f 51 52 53
f 52 54 53
f 55 56 57
f 56 58 57
f 57 58 59
f 44 60 45
f 60 61 45
f 45 61 62
f 62 63 45
f 63 64 45
f 45 64 65
f 66 67 45
f 67 68 45
f 45 68 69
f 70 71 72
f 69 73 45
f 73 74 45
f 45 74 75
f 74 76 75
f 77 78 79
f 39 37 80
f 55 81 56
f 81 82 56
f 56 82 83
f 83 84 56
f 84 85 56
f 56 85 86
f 86 87 56
f 87 88 56
f 56 88 89
f 2 90 91
f 90 92 91
f 91 92 78
f 92 93 78
f 39 80 94
f 95 96 56
f 65 97 45
f 97 98 45
f 45 98 99
f 72 71 100
f 71 101 100
f 100 101 102
f 70 72 74
f 72 103 74
f 74 103 76
f 104 105 106
f 80 107 94
f 107 108 94
f 94 108 109
f 108 110 109
f 111 112 47
f 113 114 47
f 114 115 47
f 47 115 116
f 116 117 47
f 117 118 47
f 47 118 119
f 119 120 47
f 120 121 47
f 47 121 122
f 122 123 47
f 123 124 47
f 47 124 48
f 89 125 56
f 125 126 56
f 56 126 127
f 99 128 45
f 128 129 45
f 45 129 66
f 130 131 52
f 132 133 52
f 133 134 52
f 52 134 135
f 135 136 52
f 136 137 52
f 52 137 54
f 138 139 140
f 139 141 140
f 140 141 142
f 112 143 47
f 143 144 47
f 47 144 113
f 127 145 56
f 145 146 56
f 56 146 95
f 130 52 147
f 131 148 52
f 148 149 52
f 52 149 132
f 93 150 78
f 150 151 78
f 78 151 152
f 153 154 106
f 155 156 157
f 96 158 56
f 158 159 56
f 56 159 160
f 159 161 160
f 33 31 91
f 31 29 91
f 91 29 27
f 154 162 106
f 162 163 106
f 106 163 104
f 105 164 106
f 164 165 106
f 106 165 166
f 166 167 106
f 167 168 106
f 106 168 169
f 111 47 170
f 47 171 170
f 170 171 172
f 155 157 159
f 157 173 159
f 159 173 161
f 174 52 175
f 52 176 175
f 174 177 52
f 177 178 52
f 52 178 179
f 179 180 52
f 180 181 52
f 52 181 182
f 182 183 52
f 183 184 52
f 52 184 185
f 185 186 52
f 186 187 52
f 52 187 147
f 188 189 78
f 189 190 78
f 78 190 191
f 191 192 78
f 192 193 78
f 78 193 194
f 195 196 140
f 196 197 140
f 198 80 199
f 80 37 199
f 199 37 91
f 37 35 91
f 91 35 33
f 200 201 202
f 203 202 204
f 202 205 204
f 169 206 106
f 206 207 106
f 106 207 208
f 110 209 109
f 209 210 109
f 109 210 211
f 172 212 213
f 152 214 78
f 214 215 78
f 78 215 188
f 194 216 78
f 216 217 78
f 78 217 79
f 197 218 140
f 218 219 140
f 140 219 220
f 220 221 140
f 221 222 140
f 140 222 138
f 9 7 91
f 223 224 225
f 224 226 225
f 225 226 227
f 203 228 202
f 228 229 202
f 202 229 230
f 153 106 231
f 106 232 231
f 231 232 233
f 208 234 106
f 234 235 106
f 106 235 225
f 211 236 109
f 236 237 109
f 109 237 238
f 237 239 238
f 213 240 172
f 240 241 172
f 172 241 242
f 7 5 91
f 5 3 91
f 91 3 2
f 235 243 225
f 243 244 225
f 225 244 245
f 201 246 202
f 246 247 202
f 202 247 205
f 233 248 249
f 250 251 252
f 251 253 252
f 252 253 254
f 253 255 254
f 256 257 237
f 257 258 237
f 242 259 172
f 259 260 172
f 172 260 170
f 261 262 263
f 262 264 263
f 263 264 265
f 265 264 79
f 264 266 79
f 79 266 267
f 267 268 79
f 268 269 79
f 79 269 77
f 270 271 272
f 271 273 272
f 272 273 274
f 27 25 91
f 25 23 91
f 91 23 21
f 21 19 91
f 19 17 91
f 91 17 15
f 275 276 43
f 277 278 225
f 278 279 225
f 225 279 223
f 227 280 225
f 280 281 225
f 225 281 282
f 48 283 46
f 283 284 46
f 46 284 202
f 284 285 202
f 202 285 286
f 286 287 202
f 287 288 202
f 202 288 289
f 249 290 233
f 290 291 233
f 233 291 292
f 253 293 255
f 293 294 255
f 255 294 295
f 294 296 295
f 250 252 237
f 252 297 237
f 237 297 256
f 274 298 272
f 298 299 272
f 272 299 300
f 300 301 272
f 301 302 272
f 272 302 303
f 272 304 305
f 304 306 305
f 15 13 91
f 13 11 91
f 91 11 9
f 275 43 307
f 276 308 43
f 308 309 43
f 43 309 310
f 289 311 202
f 311 312 202
f 202 312 200
f 292 313 233
f 313 314 233
f 233 314 231
f 258 315 237
f 315 316 237
f 237 316 239
f 195 140 272
f 140 317 272
f 272 317 270
f 303 318 272
f 318 319 272
f 272 319 304
f 58 320 59
f 320 307 59
f 59 307 321
f 307 43 321
f 245 322 225
f 322 323 225
f 225 323 324
f 325 326 225
f 326 327 225
f 225 327 277
f 324 328 225
f 328 329 225
f 225 329 325
f 310 330 43
f 330 331 43
f 43 331 332
f 333 334 43
f 335 336 321
f 336 337 321
f 321 337 59
f 332 338 43
f 338 339 43
f 43 339 340
f 334 341 43
f 341 342 43
f 43 342 41
f 343 344 345
f 344 202 345
f 345 202 51
f 202 230 51
f 51 230 49
f 340 346 43
f 346 347 43
f 43 347 333
f 198 199 348
f 199 349 348
f 348 349 350
f 349 351 350
f 350 351 352
f 351 282 352
f 352 282 141
f 282 281 141
f 141 281 142
f 353 354 343
f 354 355 343
f 355 356 343
f 356 357 343
f 343 357 358
f 359 360 336
f 361 362 350
f 362 363 350
f 336 364 365
f 365 366 336
f 366 367 336
f 336 367 350
f 367 368 350
f 350 368 361
f 363 369 350
f 369 370 350
f 350 370 371
f 358 372 343
f 372 373 343
f 343 373 374
f 374 375 343
f 375 376 343
f 343 376 377
f 360 378 336
f 378 379 336
f 336 379 364
f 371 380 350
f 380 381 350
f 350 381 382
f 383 384 348
f 385 386 348
f 386 387 348
f 348 387 343
f 387 388 343
f 343 388 389
f 389 390 343
f 390 391 343
f 343 391 353
f 377 392 343
f 392 335 343
f 343 335 344
f 392 393 335
f 393 394 335
f 335 394 336
f 394 395 336
f 336 395 396
f 396 397 336
f 397 398 336
f 336 398 399
f 399 400 336
f 400 401 336
f 336 401 402
f 402 403 336
f 403 404 336
f 336 404 359
f 384 405 348
f 405 406 348
f 348 406 385
f 382 407 350
f 407 408 350
f 350 408 409
f 409 410 350
f 410 411 350
f 350 411 412
f 412 413 350
f 413 414 350
f 350 414 348
f 414 415 348
f 348 415 416
f 417 418 348
f 418 419 348
f 348 419 420
f 420 421 348
f 421 422 348
f 348 422 383
f 416 423 348
f 423 424 348
f 348 424 417
f 425 49 230
f 425 230 426
f 230 229 426
f 426 229 427
f 229 228 427
f 427 228 428
f 228 203 428
f 428 203 429
f 203 204 429
f 429 204 430
f 204 205 430
f 430 205 431
f 205 247 431
f 431 247 432
f 247 246 432
f 432 246 433
f 246 201 433
f 433 201 434
f 201 200 434
f 434 200 435
f 200 312 435
f 435 312 436
f 312 311 436
f 436 311 437
f 311 289 437
f 437 289 438
f 289 288 438
f 438 288 439
f 288 287 439
f 439 287 440
f 287 286 440
f 440 286 441
f 286 285 441
f 441 285 442
f 285 284 442
f 442 284 443
f 283 444 284
f 444 443 284
f 244 445 446
f 244 446 245
f 446 447 245
f 245 447 322
f 447 448 322
f 322 448 323
f 448 449 323
f 323 449 324
f 449 450 324
f 324 450 328
f 450 451 328
f 328 451 329
f 451 452 329
f 329 452 325
f 452 453 325
f 325 453 326
f 453 454 326
f 326 454 327
f 454 455 327
f 327 455 277
f 455 456 277
f 277 456 278
f 456 457 278
f 278 457 279
f 457 458 279
f 279 458 223
f 458 459 223
f 223 459 224
f 459 460 224
f 224 460 226
f 460 461 226
f 226 461 227
f 461 462 227
f 227 462 280
f 462 463 280
f 280 463 281
f 243 464 244
f 464 445 244
f 307 465 466
f 307 466 275
f 466 467 275
f 275 467 276
f 467 468 276
f 276 468 308
f 468 469 308
f 308 469 309
f 469 470 309
f 309 470 310
f 470 471 310
f 310 471 330
f 471 472 330
f 330 472 331
f 472 473 331
f 331 473 332
f 473 474 332
f 332 474 338
f 474 475 338
f 338 475 339
f 475 476 339
f 339 476 340
f 476 477 340
f 340 477 346
f 477 478 346
f 346 478 347
f 478 479 347
f 347 479 333
f 479 480 333
f 333 480 334
f 480 481 334
f 334 481 341
f 481 482 341
f 341 482 342
f 482 483 342
f 342 483 41
f 320 484 307
f 484 465 307
f 485 336 486
f 336 350 486
f 487 337 485
f 337 336 485
f 488 59 487
f 59 337 487
f 489 57 488
f 57 59 488
f 490 58 56
f 490 56 491
f 56 160 491
f 491 160 492
f 160 161 492
f 492 161 493
f 161 173 493
f 493 173 494
f 173 157 494
f 494 157 495
f 157 156 495
f 495 156 496
f 156 155 496
f 496 155 497
f 155 159 497
f 497 159 498
f 159 158 498
f 498 158 499
f 158 96 499
f 499 96 500
f 96 95 500
f 500 95 501
f 95 146 501
f 501 146 502
f 146 145 502
f 502 145 503
f 145 127 503
f 503 127 504
f 127 126 504
f 504 126 505
f 126 125 505
f 505 125 506
f 125 89 506
f 506 89 507
f 89 88 507
f 507 88 508
f 88 87 508
f 508 87 509
f 87 86 509
f 509 86 510
f 86 85 510
f 510 85 511
f 85 84 511
f 511 84 512
f 84 83 512
f 512 83 513
f 83 82 513
f 513 82 514
f 82 81 514
f 514 81 515
f 81 55 515
f 515 55 516
f 55 57 516
f 516 57 489
f 484 320 490
f 320 58 490
f 517 140 518
f 140 142 518
f 519 139 138
f 519 138 520
f 138 222 520
f 520 222 521
f 222 221 521
f 521 221 522
f 221 220 522
f 522 220 523
f 220 219 523
f 523 219 524
f 219 218 524
f 524 218 525
f 218 197 525
f 525 197 526
f 197 196 526
f 526 196 527
f 196 195 527
f 527 195 528
f 195 272 528
f 528 272 529
f 272 305 529
f 529 305 530
f 305 306 530
f 530 306 531
f 306 304 531
f 531 304 532
f 304 319 532
f 532 319 533
f 319 318 533
f 533 318 534
f 318 303 534
f 534 303 535
f 303 302 535
f 535 302 536
f 302 301 536
f 536 301 537
f 301 300 537
f 537 300 538
f 300 299 538
f 538 299 539
f 299 298 539
f 539 298 540
f 298 274 540
f 540 274 541
f 274 273 541
f 541 273 542
f 273 271 542
f 542 271 543
f 271 270 543
f 543 270 544
f 270 317 544
f 544 317 545
f 317 140 545
f 545 140 517
f 546 141 519
f 141 139 519
f 547 352 546
f 352 141 546
f 486 350 547
f 350 352 547
f 548 348 549
f 348 343 549
f 550 198 548
f 198 348 548
f 551 80 550
f 80 198 550
f 552 344 553
f 344 335 553
f 554 202 552
f 202 344 552
f 555 46 554
f 46 202 554
f 556 47 555
f 47 46 555
f 557 48 124
f 557 124 558
f 124 123 558
f 558 123 559
f 123 122 559
f 559 122 560
f 122 121 560
f 560 121 561
f 121 120 561
f 561 120 562
f 120 119 562
f 562 119 563
f 119 118 563
f 563 118 564
f 118 117 564
f 564 117 565
f 117 116 565
f 565 116 566
f 116 115 566
f 566 115 567
f 115 114 567
f 567 114 568
f 114 113 568
f 568 113 569
f 113 144 569
f 569 144 570
f 144 143 570
f 570 143 571
f 143 112 571
f 571 112 572
f 112 111 572
f 572 111 573
f 111 170 573
f 573 170 574
f 170 260 574
f 574 260 575
f 260 259 575
f 575 259 576
f 259 242 576
f 576 242 577
f 242 241 577
f 577 241 578
f 241 240 578
f 578 240 579
f 240 213 579
f 579 213 580
f 213 212 580
f 580 212 581
f 212 172 581
f 581 172 582
f 172 171 582
f 582 171 583
f 171 47 583
f 583 47 556
f 444 283 557
f 283 48 557
f 584 44 585
f 44 42 585
f 586 45 75
f 586 75 587
f 75 76 587
f 587 76 588
f 76 103 588
f 588 103 589
f 103 72 589
f 589 72 590
f 72 100 590
f 590 100 591
f 100 102 591
f 591 102 592
f 102 101 592
f 592 101 593
f 101 71 593
f 593 71 594
f 71 70 594
f 594 70 595
f 70 74 595
f 595 74 596
f 74 73 596
f 596 73 597
f 73 69 597
f 597 69 598
f 69 68 598
f 598 68 599
f 68 67 599
f 599 67 600
f 67 66 600
f 600 66 601
f 66 129 601
f 601 129 602
f 129 128 602
f 602 128 603
f 128 99 603
f 603 99 604
f 99 98 604
f 604 98 605
f 98 97 605
f 605 97 606
f 97 65 606
f 606 65 607
f 65 64 607
f 607 64 608
f 64 63 608
f 608 63 609
f 63 62 609
f 609 62 610
f 62 61 610
f 610 61 611
f 61 60 611
f 611 60 612
f 60 44 612
f 612 44 584
f 613 43 586
f 43 45 586
f 614 321 613
f 321 43 613
f 585 42 483
f 42 41 483
f 516 489 491
f 491 489 490
f 489 488 490
f 490 488 484
f 508 509 491
f 509 510 491
f 546 519 517
f 519 520 517
f 517 520 521
f 510 511 491
f 511 512 491
f 491 512 513
f 513 514 491
f 514 515 491
f 491 515 516
f 615 616 617
f 618 619 551
f 620 621 622
f 616 623 617
f 623 624 617
f 617 624 625
f 625 626 617
f 626 627 617
f 617 627 628
f 628 629 617
f 629 630 617
f 617 630 631
f 632 633 618
f 633 634 618
f 618 634 619
f 36 38 551
f 38 40 551
f 551 40 618
f 635 425 636
f 621 637 622
f 637 638 622
f 622 638 639
f 521 522 517
f 522 523 517
f 517 523 524
f 524 525 517
f 525 526 517
f 517 526 527
f 505 506 491
f 506 507 491
f 491 507 508
f 445 464 640
f 464 641 640
f 640 641 617
f 641 642 617
f 617 642 615
f 631 643 617
f 643 644 617
f 617 644 645
f 635 636 646
f 499 491 498
f 491 492 498
f 498 492 493
f 499 500 491
f 500 501 491
f 491 501 502
f 502 503 491
f 503 504 491
f 491 504 505
f 645 647 617
f 647 648 617
f 617 648 649
f 650 651 652
f 653 654 622
f 654 655 622
f 622 655 656
f 527 528 517
f 528 529 517
f 517 529 530
f 493 494 498
f 494 495 498
f 498 495 497
f 495 496 497
f 657 658 659
f 660 661 618
f 661 662 618
f 559 560 556
f 28 30 663
f 664 622 665
f 622 666 665
f 664 667 622
f 667 668 622
f 622 668 653
f 656 669 622
f 669 670 622
f 622 670 671
f 530 531 517
f 531 532 517
f 517 532 533
f 533 534 517
f 534 535 517
f 517 535 536
f 536 537 517
f 537 538 517
f 517 538 539
f 662 672 618
f 672 673 618
f 618 673 632
f 560 561 556
f 561 562 556
f 556 562 563
f 563 564 556
f 564 565 556
f 556 565 566
f 566 567 556
f 567 568 556
f 556 568 569
f 650 652 674
f 671 675 622
f 675 676 622
f 622 676 620
f 539 540 517
f 540 541 517
f 517 541 542
f 542 543 517
f 543 544 517
f 517 544 545
f 657 659 677
f 658 678 659
f 678 679 659
f 659 679 680
f 443 444 555
f 444 557 555
f 555 557 556
f 557 558 556
f 556 558 559
f 569 570 556
f 570 571 556
f 556 571 572
f 427 428 555
f 428 429 555
f 555 429 430
f 30 32 663
f 32 34 663
f 663 34 36
f 596 586 587
f 596 597 586
f 597 598 586
f 586 598 599
f 608 609 586
f 609 610 586
f 586 610 611
f 585 613 584
f 613 586 584
f 584 586 612
f 586 611 612
f 636 681 646
f 681 682 646
f 646 682 652
f 682 683 652
f 652 683 674
f 651 684 652
f 684 685 652
f 652 685 686
f 666 687 665
f 687 688 665
f 665 688 689
f 690 691 692
f 691 693 692
f 689 694 665
f 694 693 665
f 665 693 695
f 693 691 695
f 649 648 659
f 648 696 659
f 659 696 677
f 697 698 699
f 572 573 556
f 573 574 556
f 556 574 583
f 700 636 554
f 636 425 554
f 554 425 555
f 425 426 555
f 555 426 427
f 638 701 639
f 701 1 639
f 639 1 663
f 1 4 663
f 663 4 6
f 6 8 663
f 8 10 663
f 663 10 12
f 18 20 663
f 20 22 663
f 605 606 586
f 606 607 586
f 586 607 608
f 686 702 652
f 702 703 652
f 652 703 704
f 661 705 706
f 577 578 582
f 463 462 640
f 462 461 640
f 640 461 460
f 460 459 640
f 459 458 640
f 640 458 457
f 22 24 663
f 24 26 663
f 663 26 28
f 587 588 596
f 588 589 596
f 596 589 590
f 592 593 591
f 593 594 591
f 591 594 590
f 594 595 590
f 590 595 596
f 599 600 586
f 600 601 586
f 586 601 602
f 704 707 652
f 707 708 652
f 652 708 709
f 660 710 661
f 710 711 661
f 661 711 712
f 699 713 697
f 713 661 697
f 697 661 714
f 661 706 714
f 715 716 717
f 716 718 717
f 697 719 698
f 719 718 698
f 698 718 720
f 718 716 720
f 430 431 555
f 431 432 555
f 555 432 433
f 439 440 555
f 517 518 546
f 518 463 546
f 546 463 721
f 463 640 721
f 613 471 470
f 470 469 613
f 469 468 613
f 613 468 467
f 12 14 663
f 14 16 663
f 663 16 18
f 602 603 586
f 603 604 586
f 586 604 605
f 709 722 652
f 722 723 652
f 652 723 724
f 724 725 652
f 725 726 652
f 652 726 727
f 728 652 729
f 652 730 729
f 712 731 661
f 731 732 661
f 661 732 705
f 577 582 576
f 578 579 582
f 579 580 582
f 582 580 581
f 433 434 555
f 434 435 555
f 555 435 436
f 440 441 555
f 441 442 555
f 555 442 443
f 457 456 640
f 456 455 640
f 640 455 454
f 475 474 613
f 727 733 652
f 733 734 652
f 652 734 730
f 583 574 582
f 574 575 582
f 582 575 576
f 436 437 555
f 437 438 555
f 555 438 439
f 467 466 613
f 466 465 613
f 613 465 614
f 454 453 640
f 453 452 640
f 640 452 451
f 448 447 640
f 447 446 640
f 640 446 445
f 735 486 721
f 486 547 721
f 721 547 546
f 474 473 613
f 473 472 613
f 613 472 471
f 451 450 640
f 450 449 640
f 640 449 448
f 700 554 549
f 554 552 549
f 549 552 553
f 585 483 613
f 483 482 613
f 613 482 481
f 481 480 613
f 480 479 613
f 613 479 478
f 478 477 613
f 477 476 613
f 613 476 475
f 36 551 663
f 551 550 663
f 663 550 736
f 550 548 736
f 736 548 735
f 737 738 486
f 739 740 486
f 740 741 486
f 486 741 742
f 742 743 486
f 743 744 486
f 486 744 745
f 746 747 549
f 747 748 549
f 549 748 749
f 738 750 486
f 750 751 486
f 486 751 739
f 745 752 486
f 752 753 486
f 486 753 485
f 753 754 485
f 754 755 485
f 485 755 756
f 749 757 549
f 757 758 549
f 549 758 548
f 758 759 548
f 759 760 548
f 548 760 761
f 735 762 486
f 762 763 486
f 486 763 764
f 764 765 486
f 765 766 486
f 486 766 737
f 756 767 485
f 767 768 485
f 485 768 769
f 769 770 485
f 770 771 485
f 485 771 772
f 773 774 549
f 774 775 549
f 549 775 746
f 761 776 548
f 776 777 548
f 548 777 778
f 778 779 548
f 779 780 548
f 548 780 781
f 781 782 548
f 782 783 548
f 548 783 784
f 784 785 548
f 785 786 548
f 548 786 787
f 788 789 553
f 789 790 553
f 553 791 792
f 772 788 485
f 788 553 485
f 485 553 487
f 553 614 487
f 487 614 488
f 614 465 488
f 488 465 484
f 793 549 794
f 549 795 794
f 793 796 549
f 796 797 549
f 549 797 773
f 787 798 548
f 798 799 548
f 548 799 735
f 799 800 735
f 735 800 762
f 790 801 553
f 801 802 553
f 553 802 791
f 792 803 553
f 803 804 553
f 553 804 805
f 805 806 553
f 806 807 553
f 553 807 549
f 807 808 549
f 549 808 795
f 635 50 425
f 50 49 425
f 518 142 463
f 142 281 463
f 754 367 755
f 367 366 755
f 755 366 756
f 366 365 756
f 756 365 767
f 365 364 767
f 767 364 768
f 364 379 768
f 768 379 769
f 379 378 769
f 769 378 770
f 378 360 770
f 770 360 771
f 360 359 771
f 771 359 772
f 359 404 772
f 772 404 788
f 404 403 788
f 788 403 789
f 403 402 789
f 789 402 790
f 402 401 790
f 790 401 801
f 401 400 801
f 801 400 802
f 400 399 802
f 802 399 791
f 399 398 791
f 791 398 792
f 398 397 792
f 792 397 803
f 397 396 803
f 803 396 804
f 396 395 804
f 804 395 805
f 395 394 805
f 805 394 806
f 394 393 806
f 806 393 807
f 393 392 807
f 807 392 808
f 392 377 808
f 808 377 795
f 377 376 795
f 795 376 794
f 376 375 794
f 794 375 793
f 375 374 793
f 793 374 796
f 374 373 796
f 796 373 797
f 373 372 797
f 797 372 773
f 372 358 773
f 773 358 774
f 358 357 774
f 774 357 775
f 357 356 775
f 775 356 746
f 356 355 746
f 746 355 747
f 355 354 747
f 747 354 748
f 354 353 748
f 748 353 749
f 353 391 749
f 749 391 757
f 391 390 757
f 757 390 758
f 390 389 758
f 758 389 759
f 389 388 759
f 759 388 760
f 388 387 760
f 760 387 761
f 387 386 761
f 761 386 776
f 386 385 776
f 776 385 777
f 385 406 777
f 777 406 778
f 406 405 778
f 778 405 779
f 405 384 779
f 779 384 780
f 384 383 780
f 780 383 781
f 383 422 781
f 781 422 782
f 422 421 782
f 782 421 783
f 421 420 783
f 783 420 784
f 420 419 784
f 784 419 785
f 419 418 785
f 785 418 786
f 418 417 786
f 786 417 787
f 417 424 787
f 787 424 798
f 424 423 798
f 798 423 799
f 423 416 799
f 799 416 800
f 416 415 800
f 800 415 762
f 415 414 762
f 762 414 763
f 414 413 763
f 763 413 764
f 413 412 764
f 764 412 765
f 412 411 765
f 765 411 766
f 411 410 766
f 766 410 737
f 410 409 737
f 737 409 738
f 409 408 738
f 738 408 750
f 408 407 750
f 750 407 751
f 407 382 751
f 751 382 739
f 382 381 739
f 739 381 740
f 381 380 740
f 740 380 741
f 380 371 741
f 741 371 742
f 371 370 742
f 742 370 743
f 370 369 743
f 743 369 744
f 369 363 744
f 744 363 745
f 363 362 745
f 745 362 752
f 362 361 752
f 752 361 753
f 361 368 753
f 753 368 754
f 368 367 754
f 553 335 614
f 335 321 614
f 663 199 639
f 199 91 639
f 639 91 622
f 91 78 622
f 622 78 77
f 622 77 666
f 77 269 666
f 666 269 687
f 269 268 687
f 687 268 688
f 268 267 688
f 688 267 689
f 267 266 689
f 689 266 694
f 266 264 694
f 694 264 693
f 264 262 693
f 693 262 692
f 262 261 692
f 692 261 690
f 261 263 690
f 690 263 691
f 263 265 691
f 691 265 695
f 265 79 695
f 695 79 665
f 79 217 665
f 665 217 664
f 217 216 664
f 664 216 667
f 216 194 667
f 667 194 668
f 194 193 668
f 668 193 653
f 193 192 653
f 653 192 654
f 192 191 654
f 654 191 655
f 191 190 655
f 655 190 656
f 190 189 656
f 656 189 669
f 189 188 669
f 669 188 670
f 188 215 670
f 670 215 671
f 215 214 671
f 671 214 675
f 214 152 675
f 675 152 676
f 152 151 676
f 676 151 620
f 151 150 620
f 620 150 621
f 150 93 621
f 621 93 637
f 93 92 637
f 637 92 638
f 638 92 701
f 92 90 701
f 701 90 1
f 90 2 1
f 464 243 641
f 243 235 641
f 641 235 234
f 641 234 642
f 234 208 642
f 642 208 615
f 208 207 615
f 615 207 616
f 207 206 616
f 616 206 623
f 206 169 623
f 623 169 624
f 169 168 624
f 624 168 625
f 168 167 625
f 625 167 626
f 167 166 626
f 626 166 627
f 166 165 627
f 627 165 628
f 165 164 628
f 628 164 629
f 164 105 629
f 629 105 630
f 105 104 630
f 630 104 631
f 104 163 631
f 631 163 643
f 163 162 643
f 643 162 644
f 162 154 644
f 644 154 645
f 154 153 645
f 645 153 647
f 153 231 647
f 647 231 648
f 231 314 648
f 648 314 696
f 314 313 696
f 696 313 677
f 313 292 677
f 677 292 657
f 292 291 657
f 657 291 658
f 291 290 658
f 658 290 678
f 290 249 678
f 678 249 679
f 249 248 679
f 679 248 680
f 248 233 680
f 680 233 659
f 233 232 659
f 659 232 649
f 232 106 649
f 649 106 617
f 617 106 640
f 106 225 640
f 640 225 721
f 225 282 721
f 721 282 735
f 282 351 735
f 735 351 736
f 351 349 736
f 736 349 663
f 349 199 663
f 549 343 700
f 343 345 700
f 700 345 636
f 345 51 636
f 636 51 681
f 51 53 681
f 681 53 54
f 681 54 682
f 54 137 682
f 682 137 683
f 137 136 683
f 683 136 674
f 136 135 674
f 674 135 650
f 135 134 650
f 650 134 651
f 134 133 651
f 651 133 684
f 133 132 684
f 684 132 685
f 132 149 685
f 685 149 686
f 149 148 686
f 686 148 702
f 148 131 702
f 702 131 703
f 131 130 703
f 703 130 704
f 130 147 704
f 704 147 707
f 147 187 707
f 707 187 708
f 187 186 708
f 708 186 709
f 186 185 709
f 709 185 722
f 185 184 722
f 722 184 723
f 184 183 723
f 723 183 724
f 183 182 724
f 724 182 725
f 182 181 725
f 725 181 726
f 181 180 726
f 726 180 727
f 180 179 727
f 727 179 733
f 179 178 733
f 733 178 734
f 178 177 734
f 734 177 730
f 177 174 730
f 730 174 729
f 174 175 729
f 729 175 728
f 175 176 728
f 728 176 652
f 176 52 652
f 652 52 646
f 646 52 635
f 52 50 635
f 40 39 618
f 39 94 618
f 618 94 109
f 618 109 660
f 109 238 660
f 660 238 710
f 238 239 710
f 710 239 711
f 239 316 711
f 711 316 712
f 316 315 712
f 712 315 731
f 315 258 731
f 731 258 732
f 258 257 732
f 732 257 705
f 257 256 705
f 705 256 706
f 256 297 706
f 706 297 714
f 297 252 714
f 714 252 697
f 252 254 697
f 697 254 719
f 254 255 719
f 719 255 718
f 255 295 718
f 718 295 717
f 295 296 717
f 717 296 715
f 296 294 715
f 715 294 716
f 294 293 716
f 716 293 720
f 293 253 720
f 720 253 698
f 253 251 698
f 698 251 699
f 251 250 699
f 699 250 713
f 250 237 713
f 713 237 661
f 237 236 661
f 661 236 662
f 236 211 662
f 662 211 672
f 211 210 672
f 672 210 673
f 210 209 673
f 673 209 632
f 209 110 632
f 632 110 633
f 110 108 633
f 633 108 634
f 108 107 634
f 634 107 619
f 619 107 551
f 107 80 551

