# https://github.com/mikedh/trimesh
v 0.39225206 0.04906346 0.04317431
v 0.39541000 0.04905396 0.04326101
v 0.39224964 0.04905395 0.04326108
v 0.39540428 0.04904068 0.04334730
v 0.39224625 0.04904068 0.04334730
v 0.39539698 0.04902358 0.04343323
v 0.39224195 0.04902369 0.04343275
v 0.39538828 0.04900292 0.04351764
v 0.39223677 0.04900292 0.04351764
v 0.39537811 0.04897845 0.04360159
v 0.39223069 0.04897842 0.04360167
v 0.39536664 0.04895045 0.04368404
v 0.39222389 0.04895045 0.04368404
v 0.39535394 0.04891882 0.04376537
v 0.39221630 0.04891877 0.04376549
v 0.39534011 0.04888368 0.04384524
v 0.39220804 0.04888368 0.04384524
v 0.39532533 0.04884517 0.04392334
v 0.39219919 0.04884510 0.04392347
v 0.39530960 0.04880312 0.04400000
v 0.39218974 0.04880312 0.04400000
v 0.39530194 0.04878224 0.04403532
v 0.39216954 0.04870937 0.04414715
v 0.39527601 0.04870937 0.04414715
v 0.39524052 0.04860316 0.04428558
v 0.39214808 0.04860316 0.04428558
v 0.39520416 0.04848528 0.04441421
v 0.39212599 0.04848528 0.04441421
v 0.39517045 0.04836546 0.04452465
v 0.39212167 0.04846103 0.04443805
v 0.39516810 0.04835664 0.04453209
v 0.39210397 0.04835664 0.04453209
v 0.39513338 0.04821822 0.04463831
v 0.39208266 0.04821822 0.04463831
v 0.39510101 0.04807107 0.04473205
v 0.39206275 0.04807107 0.04473205
v 0.39507595 0.04793931 0.04480171
v 0.39205348 0.04799455 0.04477403
v 0.39507195 0.04791633 0.04481260
v 0.39204478 0.04791630 0.04481262
v 0.39505893 0.04783650 0.04484773
v 0.39203045 0.04776831 0.04487453
v 0.39504701 0.04775511 0.04487938
v 0.39202929 0.04775511 0.04487938
v 0.39503628 0.04767241 0.04490745
v 0.39202264 0.04767264 0.04490738
v 0.39502686 0.04758871 0.04493185
v 0.39201677 0.04758871 0.04493185
v 0.39501902 0.04750685 0.04495195
v 0.39201170 0.04750379 0.04495263
v 0.39501208 0.04741836 0.04496961
v 0.39200753 0.04741836 0.04496961
v 0.39500684 0.04733238 0.04498285
v 0.39200425 0.04733213 0.04498289
v 0.39500305 0.04724538 0.04499239
v 0.39200190 0.04724538 0.04499239
v 0.39500076 0.04715804 0.04499811
v 0.39200047 0.04715848 0.04499809
v 0.39500001 0.04707107 0.04500000
v 0.39199999 0.04707107 0.04500000
v 0.39200047 0.04698375 0.04499809
v 0.39500076 0.04698372 0.04499809
v 0.39200190 0.04689676 0.04499239
v 0.39500305 0.04689676 0.04499239
v 0.39200425 0.04680985 0.04498287
v 0.39500681 0.04681007 0.04498290
v 0.39200753 0.04672377 0.04496961
v 0.39501208 0.04672377 0.04496961
v 0.39201173 0.04663819 0.04495259
v 0.39501902 0.04663529 0.04495195
v 0.39201677 0.04655343 0.04493185
v 0.39502686 0.04655343 0.04493185
v 0.39202261 0.04646982 0.04490748
v 0.39503634 0.04646935 0.04490734
v 0.39202929 0.04638702 0.04487938
v 0.39504701 0.04638703 0.04487938
v 0.39203045 0.04637382 0.04487453
v 0.39505896 0.04630556 0.04484770
v 0.39204478 0.04622583 0.04481262
v 0.39507195 0.04622583 0.04481262
v 0.39205348 0.04614743 0.04477395
v 0.39507595 0.04620283 0.04480171
v 0.39206275 0.04607107 0.04473205
v 0.39510101 0.04607107 0.04473205
v 0.39513338 0.04592391 0.04463831
v 0.39208266 0.04592391 0.04463831
v 0.39516810 0.04578549 0.04453209
v 0.39210397 0.04578549 0.04453209
v 0.39212167 0.04568110 0.04443805
v 0.39517045 0.04577668 0.04452465
v 0.39212599 0.04565685 0.04441421
v 0.39520416 0.04565685 0.04441421
v 0.39524052 0.04553898 0.04428558
v 0.39214808 0.04553898 0.04428558
v 0.39527601 0.04543277 0.04414715
v 0.39216954 0.04543277 0.04414715
v 0.39530152 0.04536097 0.04403709
v 0.39218974 0.04533902 0.04400000
v 0.39530957 0.04533903 0.04400003
v 0.39219919 0.04529695 0.04392331
v 0.39532527 0.04529708 0.04392356
v 0.39220804 0.04525845 0.04384524
v 0.39534011 0.04525845 0.04384524
v 0.39221632 0.04522330 0.04376534
v 0.39535391 0.04522341 0.04376560
v 0.39222389 0.04519168 0.04368404
v 0.39536664 0.04519168 0.04368404
v 0.39223072 0.04516368 0.04360154
v 0.39537814 0.04516361 0.04360132
v 0.39223677 0.04513922 0.04351764
v 0.39538828 0.04513922 0.04351764
v 0.39224193 0.04511852 0.04343309
v 0.39539704 0.04511846 0.04343282
v 0.39224625 0.04510145 0.04334730
v 0.39540428 0.04510145 0.04334730
v 0.39224964 0.04508815 0.04326087
v 0.39541000 0.04508819 0.04326116
v 0.39225206 0.04507868 0.04317431
v 0.39541411 0.04507868 0.04317431
v 0.39225355 0.04507297 0.04308722
v 0.39541659 0.04507298 0.04308752
v 0.39225402 0.04507107 0.04300000
v 0.39541742 0.04507107 0.04300000
v 0.39225355 0.04507297 0.04291291
v 0.39541659 0.04507298 0.04291264
v 0.39225206 0.04507868 0.04282569
v 0.39541411 0.04507868 0.04282569
v 0.39541000 0.04508817 0.04273899
v 0.39224964 0.04508817 0.04273899
v 0.39540428 0.04510145 0.04265270
v 0.39224625 0.04510145 0.04265270
v 0.39539698 0.04511855 0.04256678
v 0.39224193 0.04511852 0.04256693
v 0.39538828 0.04513922 0.04248236
v 0.39223677 0.04513922 0.04248236
v 0.39537811 0.04516369 0.04239842
v 0.39223072 0.04516364 0.04239856
v 0.39536664 0.04519168 0.04231596
v 0.39222389 0.04519168 0.04231596
v 0.39535394 0.04522331 0.04223463
v 0.39221632 0.04522325 0.04223476
v 0.39534011 0.04525845 0.04215476
v 0.39220804 0.04525845 0.04215476
v 0.39532533 0.04529697 0.04207665
v 0.39219916 0.04529708 0.04207644
v 0.39530960 0.04533902 0.04200000
v 0.39218974 0.04533902 0.04200000
v 0.39530194 0.04535989 0.04196468
v 0.39216954 0.04543277 0.04185285
v 0.39527601 0.04543277 0.04185285
v 0.39524052 0.04553898 0.04171443
v 0.39214808 0.04553898 0.04171443
v 0.39520416 0.04565685 0.04158579
v 0.39212599 0.04565685 0.04158579
v 0.39517045 0.04577668 0.04147535
v 0.39212167 0.04568110 0.04156195
v 0.39516810 0.04578549 0.04146791
v 0.39210397 0.04578549 0.04146791
v 0.39513338 0.04592391 0.04136170
v 0.39208266 0.04592391 0.04136170
v 0.39510101 0.04607107 0.04126795
v 0.39206275 0.04607107 0.04126795
v 0.39507595 0.04620283 0.04119829
v 0.39205351 0.04614735 0.04122609
v 0.39507195 0.04622581 0.04118739
v 0.39204478 0.04622583 0.04118738
v 0.39505893 0.04630563 0.04115227
v 0.39203045 0.04637382 0.04112547
v 0.39504701 0.04638703 0.04112061
v 0.39202929 0.04638703 0.04112061
v 0.39503628 0.04646973 0.04109254
v 0.39202264 0.04646971 0.04109255
v 0.39502686 0.04655343 0.04106815
v 0.39201677 0.04655343 0.04106815
v 0.39501902 0.04663529 0.04104805
v 0.39201173 0.04663808 0.04104743
v 0.39501208 0.04672377 0.04103038
v 0.39200753 0.04672377 0.04103038
v 0.39500684 0.04680975 0.04101714
v 0.39200428 0.04680977 0.04101714
v 0.39500305 0.04689676 0.04100761
v 0.39200190 0.04689676 0.04100761
v 0.39500076 0.04698410 0.04100189
v 0.39200047 0.04698405 0.04100189
v 0.39500001 0.04707107 0.04100000
v 0.39199999 0.04707107 0.04100000
v 0.39200047 0.04715836 0.04100190
v 0.39500076 0.04715842 0.04100191
v 0.39200190 0.04724538 0.04100761
v 0.39500305 0.04724538 0.04100761
v 0.39200425 0.04733201 0.04101710
v 0.39500681 0.04733206 0.04101710
v 0.39200753 0.04741836 0.04103038
v 0.39501208 0.04741836 0.04103038
v 0.39201170 0.04750380 0.04104738
v 0.39501902 0.04750685 0.04104805
v 0.39201677 0.04758871 0.04106815
v 0.39502686 0.04758871 0.04106815
v 0.39202264 0.04767269 0.04109263
v 0.39503634 0.04767279 0.04109266
v 0.39202929 0.04775511 0.04112061
v 0.39504701 0.04775511 0.04112061
v 0.39203045 0.04776831 0.04112547
v 0.39505896 0.04783657 0.04115230
v 0.39204478 0.04791630 0.04118738
v 0.39507195 0.04791630 0.04118738
v 0.39205346 0.04799446 0.04122593
v 0.39507595 0.04793931 0.04119829
v 0.39206275 0.04807107 0.04126795
v 0.39510101 0.04807107 0.04126795
v 0.39513338 0.04821822 0.04136170
v 0.39208266 0.04821822 0.04136170
v 0.39516810 0.04835664 0.04146791
v 0.39210397 0.04835664 0.04146791
v 0.39212167 0.04846103 0.04156195
v 0.39517045 0.04836546 0.04147535
v 0.39212599 0.04848528 0.04158579
v 0.39520416 0.04848528 0.04158579
v 0.39524052 0.04860316 0.04171443
v 0.39214808 0.04860316 0.04171443
v 0.39527601 0.04870937 0.04185285
v 0.39216954 0.04870937 0.04185285
v 0.39530152 0.04878117 0.04196291
v 0.39218974 0.04880312 0.04200000
v 0.39530957 0.04880310 0.04199997
v 0.39219916 0.04884506 0.04207645
v 0.39532527 0.04884506 0.04207644
v 0.39220804 0.04888368 0.04215476
v 0.39534011 0.04888368 0.04215476
v 0.39221630 0.04891874 0.04223442
v 0.39535391 0.04891873 0.04223440
v 0.39222389 0.04895045 0.04231596
v 0.39536664 0.04895045 0.04231596
v 0.39223072 0.04897856 0.04239877
v 0.39537814 0.04897853 0.04239868
v 0.39223677 0.04900292 0.04248236
v 0.39538828 0.04900292 0.04248236
v 0.39224195 0.04902368 0.04256720
v 0.39539704 0.04902367 0.04256718
v 0.39224625 0.04904068 0.04265270
v 0.39540428 0.04904068 0.04265270
v 0.39224964 0.04905394 0.04273886
v 0.39541000 0.04905394 0.04273884
v 0.39225206 0.04906346 0.04282569
v 0.39541411 0.04906346 0.04282569
v 0.39225355 0.04906916 0.04291251
v 0.39541659 0.04906915 0.04291248
v 0.39225402 0.04907107 0.04300000
v 0.39541742 0.04907107 0.04300000
v 0.39225355 0.04906916 0.04308744
v 0.39541659 0.04906916 0.04308736
v 0.39541411 0.04906346 0.04317431
v 0.40787402 0.04848528 0.04441421
v 0.40787831 0.04846103 0.04443805
v 0.40482956 0.04836546 0.04452465
v 0.40483192 0.04835664 0.04453209
v 0.40789604 0.04835664 0.04453209
v 0.40791732 0.04821822 0.04463831
v 0.40486664 0.04821822 0.04463831
v 0.40793726 0.04807107 0.04473205
v 0.40489897 0.04807107 0.04473205
v 0.40492404 0.04793931 0.04480171
v 0.40794650 0.04799478 0.04477391
v 0.40492803 0.04791630 0.04481262
v 0.40795523 0.04791630 0.04481262
v 0.40494105 0.04783657 0.04484770
v 0.40796956 0.04776831 0.04487453
v 0.40495297 0.04775511 0.04487938
v 0.40797070 0.04775511 0.04487938
v 0.40496367 0.04767279 0.04490734
v 0.40797737 0.04767243 0.04490745
v 0.40497312 0.04758871 0.04493185
v 0.40798324 0.04758871 0.04493185
v 0.40498096 0.04750685 0.04495195
v 0.40798828 0.04750406 0.04495257
v 0.40498793 0.04741836 0.04496961
v 0.40799245 0.04741836 0.04496961
v 0.40499318 0.04733206 0.04498290
v 0.40799573 0.04733237 0.04498286
v 0.40499696 0.04724538 0.04499239
v 0.40799809 0.04724538 0.04499239
v 0.40499923 0.04715842 0.04499809
v 0.40799952 0.04715809 0.04499811
v 0.40500000 0.04707107 0.04500000
v 0.40799999 0.04707107 0.04500000
v 0.40799952 0.04698378 0.04499809
v 0.40499926 0.04698410 0.04499811
v 0.40799809 0.04689676 0.04499239
v 0.40499696 0.04689676 0.04499239
v 0.40799573 0.04681013 0.04498291
v 0.40499318 0.04680975 0.04498285
v 0.40799245 0.04672377 0.04496961
v 0.40498793 0.04672377 0.04496961
v 0.40798828 0.04663833 0.04495262
v 0.40498096 0.04663529 0.04495195
v 0.40798324 0.04655343 0.04493185
v 0.40497312 0.04655343 0.04493185
v 0.40797734 0.04646944 0.04490736
v 0.40496370 0.04646973 0.04490745
v 0.40797070 0.04638703 0.04487938
v 0.40495297 0.04638703 0.04487938
v 0.40796956 0.04637382 0.04487453
v 0.40494105 0.04630563 0.04484773
v 0.40795523 0.04622583 0.04481262
v 0.40492803 0.04622581 0.04481260
v 0.40794653 0.04614767 0.04477407
v 0.40492404 0.04620283 0.04480171
v 0.40793726 0.04607107 0.04473205
v 0.40489897 0.04607107 0.04473205
v 0.40791732 0.04592391 0.04463831
v 0.40486664 0.04592391 0.04463831
v 0.40789604 0.04578549 0.04453209
v 0.40483192 0.04578549 0.04453209
v 0.40787831 0.04568110 0.04443805
v 0.40482956 0.04577668 0.04452465
v 0.40787402 0.04565685 0.04441421
v 0.40479583 0.04565685 0.04441421
v 0.40785193 0.04553898 0.04428558
v 0.40475950 0.04553898 0.04428558
v 0.40783045 0.04543277 0.04414715
v 0.40472397 0.04543277 0.04414715
v 0.40469807 0.04535989 0.04403532
v 0.40781024 0.04533902 0.04400000
v 0.40469041 0.04533902 0.04400000
v 0.40780082 0.04529707 0.04392355
v 0.40467468 0.04529697 0.04392334
v 0.40779194 0.04525845 0.04384524
v 0.40465987 0.04525845 0.04384524
v 0.40778372 0.04522340 0.04376558
v 0.40464604 0.04522331 0.04376537
v 0.40777612 0.04519168 0.04368404
v 0.40463334 0.04519168 0.04368404
v 0.40776926 0.04516358 0.04360123
v 0.40462190 0.04516369 0.04360159
v 0.40776324 0.04513922 0.04351764
v 0.40461171 0.04513922 0.04351764
v 0.40775806 0.04511846 0.04343280
v 0.40460300 0.04511855 0.04343323
v 0.40775374 0.04510145 0.04334730
v 0.40459570 0.04510145 0.04334730
v 0.40775037 0.04508819 0.04326114
v 0.40459001 0.04508817 0.04326101
v 0.40774792 0.04507868 0.04317431
v 0.40458590 0.04507868 0.04317431
v 0.40458339 0.04507297 0.04308720
v 0.40774646 0.04507298 0.04308749
v 0.40458256 0.04507107 0.04300000
v 0.40774596 0.04507107 0.04300000
v 0.40458256 0.04507107 0.04299968
v 0.40774646 0.04507297 0.04291271
v 0.40458342 0.04507299 0.04291232
v 0.40458590 0.04507868 0.04282569
v 0.40774792 0.04507868 0.04282569
v 0.40459001 0.04508819 0.04273884
v 0.40775037 0.04508819 0.04273887
v 0.40459570 0.04510145 0.04265270
v 0.40775374 0.04510145 0.04265270
v 0.40460297 0.04511846 0.04256718
v 0.40775806 0.04511852 0.04256693
v 0.40461171 0.04513922 0.04248236
v 0.40776324 0.04513922 0.04248236
v 0.40462187 0.04516361 0.04239868
v 0.40776929 0.04516364 0.04239856
v 0.40463334 0.04519168 0.04231596
v 0.40777612 0.04519168 0.04231596
v 0.40464610 0.04522341 0.04223440
v 0.40778369 0.04522325 0.04223476
v 0.40465987 0.04525845 0.04215476
v 0.40779194 0.04525845 0.04215476
v 0.40467471 0.04529708 0.04207644
v 0.40780082 0.04529708 0.04207644
v 0.40469041 0.04533903 0.04199997
v 0.40781024 0.04533902 0.04200000
v 0.40469846 0.04536097 0.04196291
v 0.40783045 0.04543277 0.04185285
v 0.40472397 0.04543277 0.04185285
v 0.40785193 0.04553898 0.04171443
v 0.40475950 0.04553898 0.04171443
v 0.40787402 0.04565685 0.04158579
v 0.40479583 0.04565685 0.04158579
v 0.40482956 0.04577668 0.04147535
v 0.40787831 0.04568110 0.04156195
v 0.40483192 0.04578549 0.04146791
v 0.40789604 0.04578549 0.04146791
v 0.40791732 0.04592391 0.04136170
v 0.40486664 0.04592391 0.04136170
v 0.40793726 0.04607107 0.04126795
v 0.40489897 0.04607107 0.04126795
v 0.40492404 0.04620283 0.04119829
v 0.40794650 0.04614735 0.04122609
v 0.40492803 0.04622583 0.04118738
v 0.40795523 0.04622583 0.04118738
v 0.40494105 0.04630556 0.04115230
v 0.40796956 0.04637382 0.04112547
v 0.40495297 0.04638703 0.04112061
v 0.40797070 0.04638702 0.04112061
v 0.40496367 0.04646935 0.04109266
v 0.40797737 0.04646971 0.04109255
v 0.40497312 0.04655343 0.04106815
v 0.40798324 0.04655343 0.04106815
v 0.40498096 0.04663529 0.04104805
v 0.40798828 0.04663808 0.04104743
v 0.40498793 0.04672377 0.04103038
v 0.40799245 0.04672377 0.04103038
v 0.40499318 0.04681007 0.04101710
v 0.40799573 0.04680977 0.04101714
v 0.40499696 0.04689676 0.04100761
v 0.40799809 0.04689676 0.04100761
v 0.40499923 0.04698372 0.04100191
v 0.40799952 0.04698405 0.04100189
v 0.40500000 0.04707107 0.04100000
v 0.40783045 0.04870937 0.04185285
v 0.40475950 0.04860316 0.04171443
v 0.40785193 0.04860316 0.04171443
v 0.40479583 0.04848528 0.04158579
v 0.40787402 0.04848528 0.04158579
v 0.40482956 0.04836546 0.04147535
v 0.40787831 0.04846103 0.04156195
v 0.40483192 0.04835664 0.04146791
v 0.40789604 0.04835664 0.04146791
v 0.40486664 0.04821822 0.04136170
v 0.40791732 0.04821822 0.04136170
v 0.40489897 0.04807107 0.04126795
v 0.40793726 0.04807107 0.04126795
v 0.40492404 0.04793931 0.04119829
v 0.40794653 0.04799446 0.04122593
v 0.40492803 0.04791633 0.04118739
v 0.40795523 0.04791630 0.04118738
v 0.40494105 0.04783650 0.04115227
v 0.40796956 0.04776831 0.04112547
v 0.40495297 0.04775511 0.04112061
v 0.40797070 0.04775511 0.04112061
v 0.40496370 0.04767241 0.04109254
v 0.40797734 0.04767269 0.04109263
v 0.40497312 0.04758871 0.04106815
v 0.40798324 0.04758871 0.04106815
v 0.40498096 0.04750685 0.04104805
v 0.40798828 0.04750380 0.04104738
v 0.40498793 0.04741836 0.04103038
v 0.40799245 0.04741836 0.04103038
v 0.40499318 0.04733238 0.04101714
v 0.40799573 0.04733201 0.04101710
v 0.40499696 0.04724538 0.04100761
v 0.40799809 0.04724538 0.04100761
v 0.40499926 0.04715804 0.04100189
v 0.40799952 0.04715836 0.04100190
v 0.40799999 0.04707107 0.04100000
v 0.40774792 0.04906346 0.04282569
v 0.40459001 0.04905396 0.04273899
v 0.40775037 0.04905394 0.04273886
v 0.40459570 0.04904068 0.04265270
v 0.40775374 0.04904068 0.04265270
v 0.40460300 0.04902358 0.04256678
v 0.40775806 0.04902368 0.04256720
v 0.40461171 0.04900292 0.04248236
v 0.40776324 0.04900292 0.04248236
v 0.40462190 0.04897845 0.04239842
v 0.40776926 0.04897856 0.04239877
v 0.40463334 0.04895045 0.04231596
v 0.40777612 0.04895045 0.04231596
v 0.40464604 0.04891882 0.04223463
v 0.40778372 0.04891874 0.04223442
v 0.40465987 0.04888368 0.04215476
v 0.40779194 0.04888368 0.04215476
v 0.40467468 0.04884517 0.04207665
v 0.40780082 0.04884506 0.04207645
v 0.40469041 0.04880312 0.04200000
v 0.40781024 0.04880312 0.04200000
v 0.40469807 0.04878224 0.04196468
v 0.40472397 0.04870937 0.04185285
v 0.40479583 0.04848528 0.04441421
v 0.40475950 0.04860316 0.04428558
v 0.40785193 0.04860316 0.04428558
v 0.40472397 0.04870937 0.04414715
v 0.40783045 0.04870937 0.04414715
v 0.40469846 0.04878117 0.04403709
v 0.40781024 0.04880312 0.04400000
v 0.40469041 0.04880310 0.04400003
v 0.40780082 0.04884506 0.04392356
v 0.40467471 0.04884506 0.04392356
v 0.40779194 0.04888368 0.04384524
v 0.40465987 0.04888368 0.04384524
v 0.40778369 0.04891888 0.04376524
v 0.40464610 0.04891873 0.04376560
v 0.40777612 0.04895045 0.04368404
v 0.40463334 0.04895045 0.04368404
v 0.40776929 0.04897849 0.04360144
v 0.40462187 0.04897853 0.04360132
v 0.40776324 0.04900292 0.04351764
v 0.40461171 0.04900292 0.04351764
v 0.40775806 0.04902362 0.04343307
v 0.40460297 0.04902367 0.04343282
v 0.40775374 0.04904068 0.04334730
v 0.40459570 0.04904068 0.04334730
v 0.40775037 0.04905395 0.04326113
v 0.40459001 0.04905394 0.04326116
v 0.40774792 0.04906346 0.04317431
v 0.40458590 0.04906346 0.04317431
v 0.40774646 0.04906916 0.04308729
v 0.40458342 0.04906915 0.04308752
v 0.40774596 0.04907107 0.04300000
v 0.40458256 0.04907107 0.04300000
v 0.40774646 0.04906916 0.04291251
v 0.40458339 0.04906916 0.04291264
v 0.40458590 0.04906346 0.04282569
v 0.40599999 0.03907107 0.03800000
v 0.40599999 0.03907107 0.03500000
v 0.40600762 0.03924538 0.03800000
v 0.40600762 0.03924538 0.03500000
v 0.40603039 0.03941837 0.03800000
v 0.40603039 0.03941837 0.03500000
v 0.40606815 0.03958870 0.03800000
v 0.40606815 0.03958870 0.03500000
v 0.40612060 0.03975511 0.03800000
v 0.40612060 0.03975511 0.03500000
v 0.40618739 0.03991630 0.03800000
v 0.40618739 0.03991630 0.03500000
v 0.40626794 0.04007107 0.03800000
v 0.40626794 0.04007107 0.03500000
v 0.40636170 0.04021822 0.03800000
v 0.40636170 0.04021822 0.03500000
v 0.40646791 0.04035664 0.03800000
v 0.40646791 0.04035664 0.03500000
v 0.40658578 0.04048528 0.03800000
v 0.40658578 0.04048528 0.03500000
v 0.40671441 0.04060316 0.03800000
v 0.40671441 0.04060316 0.03500000
v 0.40685284 0.04070937 0.03800000
v 0.40685284 0.04070937 0.03500000
v 0.40700001 0.04080312 0.03800000
v 0.40700001 0.04080312 0.03500000
v 0.40715477 0.04088368 0.03800000
v 0.40715477 0.04088368 0.03500000
v 0.40731597 0.04095045 0.03800000
v 0.40731597 0.04095045 0.03500000
v 0.40748236 0.04100292 0.03800000
v 0.40748236 0.04100292 0.03500000
v 0.40765271 0.04104069 0.03800000
v 0.40765271 0.04104069 0.03500000
v 0.40782568 0.04106346 0.03800000
v 0.40782568 0.04106346 0.03500000
v 0.40799999 0.04107107 0.03800000
v 0.40799999 0.04107107 0.03500000
v 0.40817431 0.04106346 0.03800000
v 0.40817431 0.04106346 0.03500000
v 0.40834731 0.04104069 0.03800000
v 0.40834731 0.04104069 0.03500000
v 0.40851763 0.04100292 0.03800000
v 0.40851763 0.04100292 0.03500000
v 0.40868405 0.04095045 0.03800000
v 0.40868405 0.04095045 0.03500000
v 0.40884525 0.04088368 0.03800000
v 0.40884525 0.04088368 0.03500000
v 0.40900001 0.04080312 0.03800000
v 0.40900001 0.04080312 0.03500000
v 0.40914714 0.04070937 0.03800000
v 0.40914714 0.04070937 0.03500000
v 0.40928558 0.04060316 0.03800000
v 0.40928558 0.04060316 0.03500000
v 0.40941420 0.04048528 0.03800000
v 0.40941420 0.04048528 0.03500000
v 0.40953210 0.04035664 0.03800000
v 0.40953210 0.04035664 0.03500000
v 0.40963832 0.04021822 0.03800000
v 0.40963832 0.04021822 0.03500000
v 0.40973204 0.04007107 0.03800000
v 0.40973204 0.04007107 0.03500000
v 0.40981260 0.03991630 0.03800000
v 0.40981260 0.03991630 0.03500000
v 0.40987939 0.03975511 0.03800000
v 0.40987939 0.03975511 0.03500000
v 0.40993184 0.03958870 0.03800000
v 0.40993184 0.03958870 0.03500000
v 0.40996963 0.03941837 0.03800000
v 0.40996963 0.03941837 0.03500000
v 0.40999240 0.03924538 0.03800000
v 0.40999240 0.03924538 0.03500000
v 0.41000000 0.03907107 0.03800000
v 0.41000000 0.03907107 0.03500000
v 0.40999240 0.03889676 0.03800000
v 0.40999240 0.03889676 0.03500000
v 0.40996963 0.03872377 0.03800000
v 0.40996963 0.03872377 0.03500000
v 0.40993184 0.03855343 0.03800000
v 0.40993184 0.03855343 0.03500000
v 0.40987939 0.03838703 0.03800000
v 0.40987939 0.03838703 0.03500000
v 0.40981260 0.03822583 0.03800000
v 0.40981260 0.03822583 0.03500000
v 0.40973204 0.03807107 0.03800000
v 0.40973204 0.03807107 0.03500000
v 0.40963832 0.03792391 0.03800000
v 0.40963832 0.03792391 0.03500000
v 0.40953210 0.03778549 0.03800000
v 0.40953210 0.03778549 0.03500000
v 0.40941420 0.03765685 0.03800000
v 0.40941420 0.03765685 0.03500000
v 0.40928558 0.03753898 0.03800000
v 0.40928558 0.03753898 0.03500000
v 0.40914714 0.03743276 0.03800000
v 0.40914714 0.03743276 0.03500000
v 0.40900001 0.03733902 0.03800000
v 0.40900001 0.03733902 0.03500000
v 0.40884525 0.03725845 0.03800000
v 0.40884525 0.03725845 0.03500000
v 0.40868405 0.03719168 0.03800000
v 0.40868405 0.03719168 0.03500000
v 0.40851763 0.03713921 0.03800000
v 0.40851763 0.03713921 0.03500000
v 0.40834731 0.03710145 0.03800000
v 0.40834731 0.03710145 0.03500000
v 0.40817431 0.03707868 0.03800000
v 0.40817431 0.03707868 0.03500000
v 0.40799999 0.03707107 0.03800000
v 0.40799999 0.03707107 0.03500000
v 0.40782568 0.03707868 0.03800000
v 0.40782568 0.03707868 0.03500000
v 0.40765271 0.03710145 0.03800000
v 0.40765271 0.03710145 0.03500000
v 0.40748236 0.03713921 0.03800000
v 0.40748236 0.03713921 0.03500000
v 0.40731597 0.03719168 0.03800000
v 0.40731597 0.03719168 0.03500000
v 0.40715477 0.03725845 0.03800000
v 0.40715477 0.03725845 0.03500000
v 0.40700001 0.03733902 0.03800000
v 0.40700001 0.03733902 0.03500000
v 0.40685284 0.03743276 0.03800000
v 0.40685284 0.03743276 0.03500000
v 0.40671441 0.03753898 0.03800000
v 0.40671441 0.03753898 0.03500000
v 0.40658578 0.03765685 0.03800000
v 0.40658578 0.03765685 0.03500000
v 0.40646791 0.03778549 0.03800000
v 0.40646791 0.03778549 0.03500000
v 0.40636170 0.03792391 0.03800000
v 0.40636170 0.03792391 0.03500000
v 0.40626794 0.03807107 0.03800000
v 0.40626794 0.03807107 0.03500000
v 0.40618739 0.03822583 0.03800000
v 0.40618739 0.03822583 0.03500000
v 0.40612060 0.03838703 0.03800000
v 0.40612060 0.03838703 0.03500000
v 0.40606815 0.03855343 0.03800000
v 0.40606815 0.03855343 0.03500000
v 0.40603039 0.03872377 0.03800000
v 0.40603039 0.03872377 0.03500000
v 0.40600762 0.03889676 0.03800000
v 0.40600762 0.03889676 0.03500000
v 0.38999999 0.03907107 0.03800000
v 0.38999999 0.03907107 0.03500000
v 0.39000762 0.03924538 0.03800000
v 0.39000762 0.03924538 0.03500000
v 0.39003038 0.03941837 0.03800000
v 0.39003038 0.03941837 0.03500000
v 0.39006814 0.03958870 0.03800000
v 0.39006814 0.03958870 0.03500000
v 0.39012063 0.03975511 0.03800000
v 0.39012063 0.03975511 0.03500000
v 0.39018738 0.03991630 0.03800000
v 0.39018738 0.03991630 0.03500000
v 0.39026794 0.04007107 0.03800000
v 0.39026794 0.04007107 0.03500000
v 0.39036170 0.04021822 0.03800000
v 0.39036170 0.04021822 0.03500000
v 0.39046791 0.04035664 0.03800000
v 0.39046791 0.04035664 0.03500000
v 0.39058578 0.04048528 0.03800000
v 0.39058578 0.04048528 0.03500000
v 0.39071444 0.04060316 0.03800000
v 0.39071444 0.04060316 0.03500000
v 0.39085284 0.04070937 0.03800000
v 0.39085284 0.04070937 0.03500000
v 0.39100000 0.04080312 0.03800000
v 0.39100000 0.04080312 0.03500000
v 0.39115477 0.04088368 0.03800000
v 0.39115477 0.04088368 0.03500000
v 0.39131597 0.04095045 0.03800000
v 0.39131597 0.04095045 0.03500000
v 0.39148235 0.04100292 0.03800000
v 0.39148235 0.04100292 0.03500000
v 0.39165270 0.04104069 0.03800000
v 0.39165270 0.04104069 0.03500000
v 0.39182568 0.04106346 0.03800000
v 0.39182568 0.04106346 0.03500000
v 0.39199999 0.04107107 0.03800000
v 0.39199999 0.04107107 0.03500000
v 0.39217430 0.04106346 0.03800000
v 0.39217430 0.04106346 0.03500000
v 0.39234731 0.04104069 0.03800000
v 0.39234731 0.04104069 0.03500000
v 0.39251763 0.04100292 0.03800000
v 0.39251763 0.04100292 0.03500000
v 0.39268404 0.04095045 0.03800000
v 0.39268404 0.04095045 0.03500000
v 0.39284524 0.04088368 0.03800000
v 0.39284524 0.04088368 0.03500000
v 0.39300001 0.04080312 0.03800000
v 0.39300001 0.04080312 0.03500000
v 0.39314714 0.04070937 0.03800000
v 0.39314714 0.04070937 0.03500000
v 0.39328557 0.04060316 0.03800000
v 0.39328557 0.04060316 0.03500000
v 0.39341420 0.04048528 0.03800000
v 0.39341420 0.04048528 0.03500000
v 0.39353210 0.04035664 0.03800000
v 0.39353210 0.04035664 0.03500000
v 0.39363831 0.04021822 0.03800000
v 0.39363831 0.04021822 0.03500000
v 0.39373204 0.04007107 0.03800000
v 0.39373204 0.04007107 0.03500000
v 0.39381263 0.03991630 0.03800000
v 0.39381263 0.03991630 0.03500000
v 0.39387938 0.03975511 0.03800000
v 0.39387938 0.03975511 0.03500000
v 0.39393184 0.03958870 0.03800000
v 0.39393184 0.03958870 0.03500000
v 0.39396963 0.03941837 0.03800000
v 0.39396963 0.03941837 0.03500000
v 0.39399239 0.03924538 0.03800000
v 0.39399239 0.03924538 0.03500000
v 0.39399999 0.03907107 0.03800000
v 0.39399999 0.03907107 0.03500000
v 0.39399239 0.03889676 0.03800000
v 0.39399239 0.03889676 0.03500000
v 0.39396963 0.03872377 0.03800000
v 0.39396963 0.03872377 0.03500000
v 0.39393184 0.03855343 0.03800000
v 0.39393184 0.03855343 0.03500000
v 0.39387938 0.03838703 0.03800000
v 0.39387938 0.03838703 0.03500000
v 0.39381263 0.03822583 0.03800000
v 0.39381263 0.03822583 0.03500000
v 0.39373204 0.03807107 0.03800000
v 0.39373204 0.03807107 0.03500000
v 0.39363831 0.03792391 0.03800000
v 0.39363831 0.03792391 0.03500000
v 0.39353210 0.03778549 0.03800000
v 0.39353210 0.03778549 0.03500000
v 0.39341420 0.03765685 0.03800000
v 0.39341420 0.03765685 0.03500000
v 0.39328557 0.03753898 0.03800000
v 0.39328557 0.03753898 0.03500000
v 0.39314714 0.03743276 0.03800000
v 0.39314714 0.03743276 0.03500000
v 0.39300001 0.03733902 0.03800000
v 0.39300001 0.03733902 0.03500000
v 0.39284524 0.03725845 0.03800000
v 0.39284524 0.03725845 0.03500000
v 0.39268404 0.03719168 0.03800000
v 0.39268404 0.03719168 0.03500000
v 0.39251763 0.03713921 0.03800000
v 0.39251763 0.03713921 0.03500000
v 0.39234731 0.03710145 0.03800000
v 0.39234731 0.03710145 0.03500000
v 0.39217430 0.03707868 0.03800000
v 0.39217430 0.03707868 0.03500000
v 0.39199999 0.03707107 0.03800000
v 0.39199999 0.03707107 0.03500000
v 0.39182568 0.03707868 0.03800000
v 0.39182568 0.03707868 0.03500000
v 0.39165270 0.03710145 0.03800000
v 0.39165270 0.03710145 0.03500000
v 0.39148235 0.03713921 0.03800000
v 0.39148235 0.03713921 0.03500000
v 0.39131597 0.03719168 0.03800000
v 0.39131597 0.03719168 0.03500000
v 0.39115477 0.03725845 0.03800000
v 0.39115477 0.03725845 0.03500000
v 0.39100000 0.03733902 0.03800000
v 0.39100000 0.03733902 0.03500000
v 0.39085284 0.03743276 0.03800000
v 0.39085284 0.03743276 0.03500000
v 0.39071444 0.03753898 0.03800000
v 0.39071444 0.03753898 0.03500000
v 0.39058578 0.03765685 0.03800000
v 0.39058578 0.03765685 0.03500000
v 0.39046791 0.03778549 0.03800000
v 0.39046791 0.03778549 0.03500000
v 0.39036170 0.03792391 0.03800000
v 0.39036170 0.03792391 0.03500000
v 0.39026794 0.03807107 0.03800000
v 0.39026794 0.03807107 0.03500000
v 0.39018738 0.03822583 0.03800000
v 0.39018738 0.03822583 0.03500000
v 0.39012063 0.03838703 0.03800000
v 0.39012063 0.03838703 0.03500000
v 0.39006814 0.03855343 0.03800000
v 0.39006814 0.03855343 0.03500000
v 0.39003038 0.03872377 0.03800000
v 0.39003038 0.03872377 0.03500000
v 0.39000762 0.03889676 0.03800000
v 0.39000762 0.03889676 0.03500000
v 0.40599999 0.05507107 0.03800000
v 0.40599999 0.05507107 0.03500000
v 0.40600762 0.05524538 0.03800000
v 0.40600762 0.05524538 0.03500000
v 0.40603039 0.05541836 0.03800000
v 0.40603039 0.05541836 0.03500000
v 0.40606815 0.05558871 0.03800000
v 0.40606815 0.05558871 0.03500000
v 0.40612060 0.05575511 0.03800000
v 0.40612060 0.05575511 0.03500000
v 0.40618739 0.05591631 0.03800000
v 0.40618739 0.05591631 0.03500000
v 0.40626794 0.05607107 0.03800000
v 0.40626794 0.05607107 0.03500000
v 0.40636170 0.05621822 0.03800000
v 0.40636170 0.05621822 0.03500000
v 0.40646791 0.05635664 0.03800000
v 0.40646791 0.05635664 0.03500000
v 0.40658578 0.05648528 0.03800000
v 0.40658578 0.05648528 0.03500000
v 0.40671441 0.05660316 0.03800000
v 0.40671441 0.05660316 0.03500000
v 0.40685284 0.05670937 0.03800000
v 0.40685284 0.05670937 0.03500000
v 0.40700001 0.05680312 0.03800000
v 0.40700001 0.05680312 0.03500000
v 0.40715477 0.05688368 0.03800000
v 0.40715477 0.05688368 0.03500000
v 0.40731597 0.05695045 0.03800000
v 0.40731597 0.05695045 0.03500000
v 0.40748236 0.05700292 0.03800000
v 0.40748236 0.05700292 0.03500000
v 0.40765271 0.05704068 0.03800000
v 0.40765271 0.05704068 0.03500000
v 0.40782568 0.05706346 0.03800000
v 0.40782568 0.05706346 0.03500000
v 0.40799999 0.05707107 0.03800000
v 0.40799999 0.05707107 0.03500000
v 0.40817431 0.05706346 0.03800000
v 0.40817431 0.05706346 0.03500000
v 0.40834731 0.05704068 0.03800000
v 0.40834731 0.05704068 0.03500000
v 0.40851763 0.05700292 0.03800000
v 0.40851763 0.05700292 0.03500000
v 0.40868405 0.05695045 0.03800000
v 0.40868405 0.05695045 0.03500000
v 0.40884525 0.05688368 0.03800000
v 0.40884525 0.05688368 0.03500000
v 0.40900001 0.05680312 0.03800000
v 0.40900001 0.05680312 0.03500000
v 0.40914714 0.05670937 0.03800000
v 0.40914714 0.05670937 0.03500000
v 0.40928558 0.05660316 0.03800000
v 0.40928558 0.05660316 0.03500000
v 0.40941420 0.05648528 0.03800000
v 0.40941420 0.05648528 0.03500000
v 0.40953210 0.05635664 0.03800000
v 0.40953210 0.05635664 0.03500000
v 0.40963832 0.05621822 0.03800000
v 0.40963832 0.05621822 0.03500000
v 0.40973204 0.05607107 0.03800000
v 0.40973204 0.05607107 0.03500000
v 0.40981260 0.05591631 0.03800000
v 0.40981260 0.05591631 0.03500000
v 0.40987939 0.05575511 0.03800000
v 0.40987939 0.05575511 0.03500000
v 0.40993184 0.05558871 0.03800000
v 0.40993184 0.05558871 0.03500000
v 0.40996963 0.05541836 0.03800000
v 0.40996963 0.05541836 0.03500000
v 0.40999240 0.05524538 0.03800000
v 0.40999240 0.05524538 0.03500000
v 0.41000000 0.05507107 0.03800000
v 0.41000000 0.05507107 0.03500000
v 0.40999240 0.05489676 0.03800000
v 0.40999240 0.05489676 0.03500000
v 0.40996963 0.05472377 0.03800000
v 0.40996963 0.05472377 0.03500000
v 0.40993184 0.05455343 0.03800000
v 0.40993184 0.05455343 0.03500000
v 0.40987939 0.05438703 0.03800000
v 0.40987939 0.05438703 0.03500000
v 0.40981260 0.05422583 0.03800000
v 0.40981260 0.05422583 0.03500000
v 0.40973204 0.05407107 0.03800000
v 0.40973204 0.05407107 0.03500000
v 0.40963832 0.05392392 0.03800000
v 0.40963832 0.05392392 0.03500000
v 0.40953210 0.05378549 0.03800000
v 0.40953210 0.05378549 0.03500000
v 0.40941420 0.05365685 0.03800000
v 0.40941420 0.05365685 0.03500000
v 0.40928558 0.05353898 0.03800000
v 0.40928558 0.05353898 0.03500000
v 0.40914714 0.05343276 0.03800000
v 0.40914714 0.05343276 0.03500000
v 0.40900001 0.05333902 0.03800000
v 0.40900001 0.05333902 0.03500000
v 0.40884525 0.05325845 0.03800000
v 0.40884525 0.05325845 0.03500000
v 0.40868405 0.05319168 0.03800000
v 0.40868405 0.05319168 0.03500000
v 0.40851763 0.05313922 0.03800000
v 0.40851763 0.05313922 0.03500000
v 0.40834731 0.05310145 0.03800000
v 0.40834731 0.05310145 0.03500000
v 0.40817431 0.05307868 0.03800000
v 0.40817431 0.05307868 0.03500000
v 0.40799999 0.05307107 0.03800000
v 0.40799999 0.05307107 0.03500000
v 0.40782568 0.05307868 0.03800000
v 0.40782568 0.05307868 0.03500000
v 0.40765271 0.05310145 0.03800000
v 0.40765271 0.05310145 0.03500000
v 0.40748236 0.05313922 0.03800000
v 0.40748236 0.05313922 0.03500000
v 0.40731597 0.05319168 0.03800000
v 0.40731597 0.05319168 0.03500000
v 0.40715477 0.05325845 0.03800000
v 0.40715477 0.05325845 0.03500000
v 0.40700001 0.05333902 0.03800000
v 0.40700001 0.05333902 0.03500000
v 0.40685284 0.05343276 0.03800000
v 0.40685284 0.05343276 0.03500000
v 0.40671441 0.05353898 0.03800000
v 0.40671441 0.05353898 0.03500000
v 0.40658578 0.05365685 0.03800000
v 0.40658578 0.05365685 0.03500000
v 0.40646791 0.05378549 0.03800000
v 0.40646791 0.05378549 0.03500000
v 0.40636170 0.05392392 0.03800000
v 0.40636170 0.05392392 0.03500000
v 0.40626794 0.05407107 0.03800000
v 0.40626794 0.05407107 0.03500000
v 0.40618739 0.05422583 0.03800000
v 0.40618739 0.05422583 0.03500000
v 0.40612060 0.05438703 0.03800000
v 0.40612060 0.05438703 0.03500000
v 0.40606815 0.05455343 0.03800000
v 0.40606815 0.05455343 0.03500000
v 0.40603039 0.05472377 0.03800000
v 0.40603039 0.05472377 0.03500000
v 0.40600762 0.05489676 0.03800000
v 0.40600762 0.05489676 0.03500000
v 0.38999999 0.05507107 0.03800000
v 0.38999999 0.05507107 0.03500000
v 0.39000762 0.05524538 0.03800000
v 0.39000762 0.05524538 0.03500000
v 0.39003038 0.05541836 0.03800000
v 0.39003038 0.05541836 0.03500000
v 0.39006814 0.05558871 0.03800000
v 0.39006814 0.05558871 0.03500000
v 0.39012063 0.05575511 0.03800000
v 0.39012063 0.05575511 0.03500000
v 0.39018738 0.05591631 0.03800000
v 0.39018738 0.05591631 0.03500000
v 0.39026794 0.05607107 0.03800000
v 0.39026794 0.05607107 0.03500000
v 0.39036170 0.05621822 0.03800000
v 0.39036170 0.05621822 0.03500000
v 0.39046791 0.05635664 0.03800000
v 0.39046791 0.05635664 0.03500000
v 0.39058578 0.05648528 0.03800000
v 0.39058578 0.05648528 0.03500000
v 0.39071444 0.05660316 0.03800000
v 0.39071444 0.05660316 0.03500000
v 0.39085284 0.05670937 0.03800000
v 0.39085284 0.05670937 0.03500000
v 0.39100000 0.05680312 0.03800000
v 0.39100000 0.05680312 0.03500000
v 0.39115477 0.05688368 0.03800000
v 0.39115477 0.05688368 0.03500000
v 0.39131597 0.05695045 0.03800000
v 0.39131597 0.05695045 0.03500000
v 0.39148235 0.05700292 0.03800000
v 0.39148235 0.05700292 0.03500000
v 0.39165270 0.05704068 0.03800000
v 0.39165270 0.05704068 0.03500000
v 0.39182568 0.05706346 0.03800000
v 0.39182568 0.05706346 0.03500000
v 0.39199999 0.05707107 0.03800000
v 0.39199999 0.05707107 0.03500000
v 0.39217430 0.05706346 0.03800000
v 0.39217430 0.05706346 0.03500000
v 0.39234731 0.05704068 0.03800000
v 0.39234731 0.05704068 0.03500000
v 0.39251763 0.05700292 0.03800000
v 0.39251763 0.05700292 0.03500000
v 0.39268404 0.05695045 0.03800000
v 0.39268404 0.05695045 0.03500000
v 0.39284524 0.05688368 0.03800000
v 0.39284524 0.05688368 0.03500000
v 0.39300001 0.05680312 0.03800000
v 0.39300001 0.05680312 0.03500000
v 0.39314714 0.05670937 0.03800000
v 0.39314714 0.05670937 0.03500000
v 0.39328557 0.05660316 0.03800000
v 0.39328557 0.05660316 0.03500000
v 0.39341420 0.05648528 0.03800000
v 0.39341420 0.05648528 0.03500000
v 0.39353210 0.05635664 0.03800000
v 0.39353210 0.05635664 0.03500000
v 0.39363831 0.05621822 0.03800000
v 0.39363831 0.05621822 0.03500000
v 0.39373204 0.05607107 0.03800000
v 0.39373204 0.05607107 0.03500000
v 0.39381263 0.05591631 0.03800000
v 0.39381263 0.05591631 0.03500000
v 0.39387938 0.05575511 0.03800000
v 0.39387938 0.05575511 0.03500000
v 0.39393184 0.05558871 0.03800000
v 0.39393184 0.05558871 0.03500000
v 0.39396963 0.05541836 0.03800000
v 0.39396963 0.05541836 0.03500000
v 0.39399239 0.05524538 0.03800000
v 0.39399239 0.05524538 0.03500000
v 0.39399999 0.05507107 0.03800000
v 0.39399999 0.05507107 0.03500000
v 0.39399239 0.05489676 0.03800000
v 0.39399239 0.05489676 0.03500000
v 0.39396963 0.05472377 0.03800000
v 0.39396963 0.05472377 0.03500000
v 0.39393184 0.05455343 0.03800000
v 0.39393184 0.05455343 0.03500000
v 0.39387938 0.05438703 0.03800000
v 0.39387938 0.05438703 0.03500000
v 0.39381263 0.05422583 0.03800000
v 0.39381263 0.05422583 0.03500000
v 0.39373204 0.05407107 0.03800000
v 0.39373204 0.05407107 0.03500000
v 0.39363831 0.05392392 0.03800000
v 0.39363831 0.05392392 0.03500000
v 0.39353210 0.05378549 0.03800000
v 0.39353210 0.05378549 0.03500000
v 0.39341420 0.05365685 0.03800000
v 0.39341420 0.05365685 0.03500000
v 0.39328557 0.05353898 0.03800000
v 0.39328557 0.05353898 0.03500000
v 0.39314714 0.05343276 0.03800000
v 0.39314714 0.05343276 0.03500000
v 0.39300001 0.05333902 0.03800000
v 0.39300001 0.05333902 0.03500000
v 0.39284524 0.05325845 0.03800000
v 0.39284524 0.05325845 0.03500000
v 0.39268404 0.05319168 0.03800000
v 0.39268404 0.05319168 0.03500000
v 0.39251763 0.05313922 0.03800000
v 0.39251763 0.05313922 0.03500000
v 0.39234731 0.05310145 0.03800000
v 0.39234731 0.05310145 0.03500000
v 0.39217430 0.05307868 0.03800000
v 0.39217430 0.05307868 0.03500000
v 0.39199999 0.05307107 0.03800000
v 0.39199999 0.05307107 0.03500000
v 0.39182568 0.05307868 0.03800000
v 0.39182568 0.05307868 0.03500000
v 0.39165270 0.05310145 0.03800000
v 0.39165270 0.05310145 0.03500000
v 0.39148235 0.05313922 0.03800000
v 0.39148235 0.05313922 0.03500000
v 0.39131597 0.05319168 0.03800000
v 0.39131597 0.05319168 0.03500000
v 0.39115477 0.05325845 0.03800000
v 0.39115477 0.05325845 0.03500000
v 0.39100000 0.05333902 0.03800000
v 0.39100000 0.05333902 0.03500000
v 0.39085284 0.05343276 0.03800000
v 0.39085284 0.05343276 0.03500000
v 0.39071444 0.05353898 0.03800000
v 0.39071444 0.05353898 0.03500000
v 0.39058578 0.05365685 0.03800000
v 0.39058578 0.05365685 0.03500000
v 0.39046791 0.05378549 0.03800000
v 0.39046791 0.05378549 0.03500000
v 0.39036170 0.05392392 0.03800000
v 0.39036170 0.05392392 0.03500000
v 0.39026794 0.05407107 0.03800000
v 0.39026794 0.05407107 0.03500000
v 0.39018738 0.05422583 0.03800000
v 0.39018738 0.05422583 0.03500000
v 0.39012063 0.05438703 0.03800000
v 0.39012063 0.05438703 0.03500000
v 0.39006814 0.05455343 0.03800000
v 0.39006814 0.05455343 0.03500000
v 0.39003038 0.05472377 0.03800000
v 0.39003038 0.05472377 0.03500000
v 0.39000762 0.05489676 0.03800000
v 0.39000762 0.05489676 0.03500000
v 0.40772739 0.04914162 0.04800000
v 0.40772739 0.04914162 0.03800000
v 0.40787846 0.04846025 0.03800000
v 0.40787846 0.04846025 0.04800000
v 0.40799999 0.04707107 0.04800000
v 0.40796956 0.04776831 0.04800000
v 0.40796956 0.04637382 0.04800000
v 0.40787846 0.04568188 0.04800000
v 0.40772739 0.04500052 0.03800000
v 0.40772739 0.04500052 0.04800000
v 0.40787846 0.04568188 0.03800000
v 0.40799999 0.04707107 0.03800000
v 0.40796956 0.04637382 0.03800000
v 0.40796956 0.04776831 0.03800000
v 0.39227259 0.04914162 0.03800000
v 0.39227259 0.04914162 0.04800000
v 0.39212152 0.04846025 0.04800000
v 0.39212152 0.04846025 0.03800000
v 0.39199999 0.04707107 0.03800000
v 0.39203045 0.04776831 0.03800000
v 0.39203045 0.04637382 0.03800000
v 0.39212152 0.04568188 0.03800000
v 0.39227259 0.04500052 0.04800000
v 0.39227259 0.04500052 0.03800000
v 0.39212152 0.04568188 0.04800000
v 0.39199999 0.04707107 0.04800000
v 0.39203045 0.04637382 0.04800000
v 0.39203045 0.04776831 0.04800000
v 0.40751755 0.04980723 0.03800000
v 0.40751755 0.04980723 0.04800000
v 0.40725046 0.05045201 0.03800000
v 0.40725046 0.05045201 0.04800000
v 0.40692821 0.05107107 0.03800000
v 0.40692821 0.05107107 0.04800000
v 0.40655321 0.05165968 0.03800000
v 0.40655321 0.05165968 0.04800000
v 0.40612835 0.05221337 0.03800000
v 0.40612835 0.05221337 0.04800000
v 0.40565684 0.05272792 0.03800000
v 0.40565684 0.05272792 0.04800000
v 0.40514231 0.05319942 0.03800000
v 0.40514231 0.05319942 0.04800000
v 0.40458861 0.05362428 0.03800000
v 0.40458861 0.05362428 0.04800000
v 0.40399998 0.05399927 0.03800000
v 0.40399998 0.05399927 0.04800000
v 0.40338093 0.05432153 0.03800000
v 0.40338093 0.05432153 0.04800000
v 0.40273616 0.05458861 0.03800000
v 0.40273616 0.05458861 0.04800000
v 0.40207055 0.05479847 0.03800000
v 0.40207055 0.05479847 0.04800000
v 0.40138918 0.05494953 0.03800000
v 0.40138918 0.05494953 0.04800000
v 0.40069723 0.05504062 0.03800000
v 0.40069723 0.05504062 0.04800000
v 0.40000001 0.05507107 0.03800000
v 0.40000001 0.05507107 0.04800000
v 0.39930275 0.05504062 0.03800000
v 0.39930275 0.05504062 0.04800000
v 0.39861080 0.05494953 0.03800000
v 0.39861080 0.05494953 0.04800000
v 0.39792946 0.05479847 0.03800000
v 0.39792946 0.05479847 0.04800000
v 0.39726382 0.05458861 0.03800000
v 0.39726382 0.05458861 0.04800000
v 0.39661905 0.05432153 0.03800000
v 0.39661905 0.05432153 0.04800000
v 0.39600000 0.05399927 0.03800000
v 0.39600000 0.05399927 0.04800000
v 0.39541137 0.05362428 0.03800000
v 0.39541137 0.05362428 0.04800000
v 0.39485770 0.05319942 0.03800000
v 0.39485770 0.05319942 0.04800000
v 0.39434314 0.05272792 0.03800000
v 0.39434314 0.05272792 0.04800000
v 0.39387164 0.05221337 0.03800000
v 0.39387164 0.05221337 0.04800000
v 0.39344677 0.05165968 0.03800000
v 0.39344677 0.05165968 0.04800000
v 0.39307180 0.05107107 0.03800000
v 0.39307180 0.05107107 0.04800000
v 0.39274955 0.05045201 0.03800000
v 0.39274955 0.05045201 0.04800000
v 0.39248246 0.04980723 0.03800000
v 0.39248246 0.04980723 0.04800000
v 0.39248246 0.04433491 0.03800000
v 0.39248246 0.04433491 0.04800000
v 0.39274955 0.04369012 0.03800000
v 0.39274955 0.04369012 0.04800000
v 0.39307180 0.04307107 0.03800000
v 0.39307180 0.04307107 0.04800000
v 0.39344677 0.04248246 0.03800000
v 0.39344677 0.04248246 0.04800000
v 0.39387164 0.04192877 0.03800000
v 0.39387164 0.04192877 0.04800000
v 0.39434314 0.04141421 0.03800000
v 0.39434314 0.04141421 0.04800000
v 0.39485770 0.04094271 0.03800000
v 0.39485770 0.04094271 0.04800000
v 0.39541137 0.04051785 0.03800000
v 0.39541137 0.04051785 0.04800000
v 0.39600000 0.04014286 0.03800000
v 0.39600000 0.04014286 0.04800000
v 0.39661905 0.03982060 0.03800000
v 0.39661905 0.03982060 0.04800000
v 0.39726382 0.03955353 0.03800000
v 0.39726382 0.03955353 0.04800000
v 0.39792946 0.03934366 0.03800000
v 0.39792946 0.03934366 0.04800000
v 0.39861080 0.03919261 0.03800000
v 0.39861080 0.03919261 0.04800000
v 0.39930275 0.03910151 0.03800000
v 0.39930275 0.03910151 0.04800000
v 0.40000001 0.03907107 0.03800000
v 0.40000001 0.03907107 0.04800000
v 0.40069723 0.03910151 0.03800000
v 0.40069723 0.03910151 0.04800000
v 0.40138918 0.03919261 0.03800000
v 0.40138918 0.03919261 0.04800000
v 0.40207055 0.03934366 0.03800000
v 0.40207055 0.03934366 0.04800000
v 0.40273616 0.03955353 0.03800000
v 0.40273616 0.03955353 0.04800000
v 0.40338093 0.03982060 0.03800000
v 0.40338093 0.03982060 0.04800000
v 0.40399998 0.04014286 0.03800000
v 0.40399998 0.04014286 0.04800000
v 0.40458861 0.04051785 0.03800000
v 0.40458861 0.04051785 0.04800000
v 0.40514231 0.04094271 0.03800000
v 0.40514231 0.04094271 0.04800000
v 0.40565684 0.04141421 0.03800000
v 0.40565684 0.04141421 0.04800000
v 0.40612835 0.04192877 0.03800000
v 0.40612835 0.04192877 0.04800000
v 0.40655321 0.04248246 0.03800000
v 0.40655321 0.04248246 0.04800000
v 0.40692821 0.04307107 0.03800000
v 0.40692821 0.04307107 0.04800000
v 0.40725046 0.04369012 0.03800000
v 0.40725046 0.04369012 0.04800000
v 0.40751755 0.04433491 0.03800000
v 0.40751755 0.04433491 0.04800000
v 0.39913175 0.04214703 0.04800000
v 0.39956421 0.04209010 0.04800000
v 0.40000001 0.04207107 0.04800000
v 0.40043578 0.04209010 0.04800000
v 0.40086824 0.04214703 0.04800000
v 0.40129408 0.04224144 0.04800000
v 0.40171009 0.04237260 0.04800000
v 0.40211308 0.04253953 0.04800000
v 0.40250000 0.04274094 0.04800000
v 0.40286788 0.04297531 0.04800000
v 0.40321395 0.04324085 0.04800000
v 0.40353554 0.04353553 0.04800000
v 0.40383023 0.04385713 0.04800000
v 0.40409577 0.04420318 0.04800000
v 0.40433013 0.04457107 0.04800000
v 0.40453154 0.04495798 0.04800000
v 0.40469846 0.04536097 0.04800000
v 0.40482962 0.04577697 0.04800000
v 0.40492404 0.04620283 0.04800000
v 0.40498096 0.04663529 0.04800000
v 0.40500000 0.04707107 0.04800000
v 0.40498096 0.04750685 0.04800000
v 0.40492404 0.04793931 0.04800000
v 0.40482962 0.04836516 0.04800000
v 0.40469846 0.04878117 0.04800000
v 0.40453154 0.04918416 0.04800000
v 0.40433013 0.04957107 0.04800000
v 0.40409577 0.04993895 0.04800000
v 0.40383023 0.05028500 0.04800000
v 0.40353554 0.05060660 0.04800000
v 0.40321395 0.05090129 0.04800000
v 0.40286788 0.05116683 0.04800000
v 0.40250000 0.05140119 0.04800000
v 0.40211308 0.05160261 0.04800000
v 0.40171009 0.05176953 0.04800000
v 0.40129408 0.05190070 0.04800000
v 0.40086824 0.05199511 0.04800000
v 0.40043578 0.05205204 0.04800000
v 0.40000001 0.05207107 0.04800000
v 0.39956421 0.05205204 0.04800000
v 0.39913175 0.05199511 0.04800000
v 0.39870590 0.05190070 0.04800000
v 0.39828989 0.05176953 0.04800000
v 0.39788690 0.05160261 0.04800000
v 0.39750001 0.05140119 0.04800000
v 0.39713213 0.05116683 0.04800000
v 0.39678606 0.05090129 0.04800000
v 0.39646447 0.05060660 0.04800000
v 0.39616978 0.05028500 0.04800000
v 0.39590424 0.04993895 0.04800000
v 0.39566988 0.04957107 0.04800000
v 0.39546847 0.04918416 0.04800000
v 0.39530152 0.04878117 0.04800000
v 0.39517036 0.04836516 0.04800000
v 0.39507595 0.04793931 0.04800000
v 0.39501902 0.04750685 0.04800000
v 0.39500001 0.04707107 0.04800000
v 0.39501902 0.04663529 0.04800000
v 0.39507595 0.04620283 0.04800000
v 0.39517036 0.04577697 0.04800000
v 0.39530152 0.04536097 0.04800000
v 0.39546847 0.04495798 0.04800000
v 0.39566988 0.04457107 0.04800000
v 0.39590424 0.04420318 0.04800000
v 0.39616978 0.04385713 0.04800000
v 0.39646447 0.04353553 0.04800000
v 0.39678606 0.04324085 0.04800000
v 0.39713213 0.04297531 0.04800000
v 0.39750001 0.04274094 0.04800000
v 0.39788690 0.04253953 0.04800000
v 0.39828989 0.04237260 0.04800000
v 0.39870590 0.04224144 0.04800000
v 0.41385642 0.03907107 0.03800000
v 0.41225672 0.03678647 0.03800000
v 0.41310644 0.03789385 0.03800000
v 0.40000001 0.03107107 0.03800000
v 0.41593912 0.04567657 0.03800000
v 0.41131371 0.03575736 0.03800000
v 0.41028461 0.03481436 0.03800000
v 0.41575691 0.04429270 0.03800000
v 0.41545480 0.04292996 0.03800000
v 0.41503507 0.04159874 0.03800000
v 0.41450092 0.04030918 0.03800000
v 0.40917721 0.03396463 0.03800000
v 0.40799999 0.03321466 0.03800000
v 0.40676188 0.03257014 0.03800000
v 0.40547231 0.03203598 0.03800000
v 0.40414110 0.03161626 0.03800000
v 0.40277836 0.03131414 0.03800000
v 0.40139449 0.03113195 0.03800000
v 0.38971540 0.03481436 0.03800000
v 0.38774329 0.03678647 0.03800000
v 0.38868630 0.03575736 0.03800000
v 0.38689357 0.03789385 0.03800000
v 0.38406089 0.04567657 0.03800000
v 0.38424307 0.04429270 0.03800000
v 0.38454518 0.04292996 0.03800000
v 0.38614359 0.03907107 0.03800000
v 0.38549906 0.04030918 0.03800000
v 0.38496491 0.04159874 0.03800000
v 0.39860550 0.03113195 0.03800000
v 0.39722162 0.03131414 0.03800000
v 0.39585888 0.03161626 0.03800000
v 0.39452767 0.03203598 0.03800000
v 0.39323810 0.03257014 0.03800000
v 0.39199999 0.03321466 0.03800000
v 0.39082277 0.03396463 0.03800000
v 0.38689357 0.05624829 0.03800000
v 0.38454518 0.05121217 0.03800000
v 0.38496491 0.05254339 0.03800000
v 0.38549906 0.05383296 0.03800000
v 0.38868630 0.05838478 0.03800000
v 0.38774329 0.05735567 0.03800000
v 0.40000001 0.06307106 0.03800000
v 0.38400000 0.04707107 0.03800000
v 0.38406089 0.04846556 0.03800000
v 0.38424307 0.04984944 0.03800000
v 0.38614359 0.05507107 0.03800000
v 0.38971540 0.05932778 0.03800000
v 0.39082277 0.06017750 0.03800000
v 0.39199999 0.06092747 0.03800000
v 0.39323810 0.06157199 0.03800000
v 0.39585888 0.06252588 0.03800000
v 0.39722162 0.06282799 0.03800000
v 0.39860550 0.06301019 0.03800000
v 0.39452767 0.06210615 0.03800000
v 0.41385642 0.05507107 0.03800000
v 0.41450092 0.05383296 0.03800000
v 0.41503507 0.05254339 0.03800000
v 0.41545480 0.05121217 0.03800000
v 0.41028461 0.05932778 0.03800000
v 0.41575691 0.04984944 0.03800000
v 0.41225672 0.05735567 0.03800000
v 0.41131371 0.05838478 0.03800000
v 0.41593912 0.04846556 0.03800000
v 0.41600001 0.04707107 0.03800000
v 0.41310644 0.05624829 0.03800000
v 0.40139449 0.06301019 0.03800000
v 0.40277836 0.06282799 0.03800000
v 0.40414110 0.06252588 0.03800000
v 0.40547231 0.06210615 0.03800000
v 0.40676188 0.06157199 0.03800000
v 0.40799999 0.06092747 0.03800000
v 0.40917721 0.06017750 0.03800000
v 0.40414110 0.06252588 0.03500000
v 0.40277836 0.06282799 0.03500000
v 0.40139449 0.06301019 0.03500000
v 0.40000001 0.06307106 0.03500000
v 0.39860550 0.06301019 0.03500000
v 0.39722162 0.06282799 0.03500000
v 0.39585888 0.06252588 0.03500000
v 0.39452767 0.06210615 0.03500000
v 0.39323810 0.06157199 0.03500000
v 0.39199999 0.06092747 0.03500000
v 0.39082277 0.06017750 0.03500000
v 0.38971540 0.05932778 0.03500000
v 0.38868630 0.05838478 0.03500000
v 0.38774329 0.05735567 0.03500000
v 0.38689357 0.05624829 0.03500000
v 0.38614359 0.05507107 0.03500000
v 0.38549906 0.05383296 0.03500000
v 0.38496491 0.05254339 0.03500000
v 0.38454518 0.05121217 0.03500000
v 0.38424307 0.04984944 0.03500000
v 0.38406089 0.04846556 0.03500000
v 0.38400000 0.04707107 0.03500000
v 0.38406089 0.04567657 0.03500000
v 0.38424307 0.04429270 0.03500000
v 0.38454518 0.04292996 0.03500000
v 0.38496491 0.04159874 0.03500000
v 0.38497519 0.04157058 0.03500000
v 0.41545480 0.04292996 0.03500000
v 0.41575691 0.04429270 0.03500000
v 0.41593912 0.04567657 0.03500000
v 0.41600001 0.04707107 0.03500000
v 0.41593912 0.04846556 0.03500000
v 0.41575691 0.04984944 0.03500000
v 0.41545480 0.05121217 0.03500000
v 0.41503507 0.05254339 0.03500000
v 0.41450092 0.05383296 0.03500000
v 0.41385642 0.05507107 0.03500000
v 0.41310644 0.05624829 0.03500000
v 0.41225672 0.05735567 0.03500000
v 0.41131371 0.05838478 0.03500000
v 0.41028461 0.05932778 0.03500000
v 0.40917721 0.06017750 0.03500000
v 0.40799999 0.06092747 0.03500000
v 0.40676188 0.06157199 0.03500000
v 0.40550050 0.06209587 0.03500000
v 0.40547231 0.06210615 0.03500000
v 0.40799999 0.03321466 0.03500000
v 0.40917721 0.03396463 0.03500000
v 0.41028461 0.03481436 0.03500000
v 0.41131371 0.03575736 0.03500000
v 0.41225672 0.03678647 0.03500000
v 0.41310644 0.03789385 0.03500000
v 0.41385642 0.03907107 0.03500000
v 0.41450092 0.04030918 0.03500000
v 0.41502479 0.04157058 0.03500000
v 0.41503507 0.04159874 0.03500000
v 0.38549906 0.04030918 0.03500000
v 0.38614359 0.03907107 0.03500000
v 0.38689357 0.03789385 0.03500000
v 0.38774329 0.03678647 0.03500000
v 0.38868630 0.03575736 0.03500000
v 0.38971540 0.03481436 0.03500000
v 0.39082277 0.03396463 0.03500000
v 0.39199999 0.03321466 0.03500000
v 0.39323810 0.03257014 0.03500000
v 0.39452767 0.03203598 0.03500000
v 0.39585888 0.03161626 0.03500000
v 0.39722162 0.03131414 0.03500000
v 0.39860550 0.03113195 0.03500000
v 0.40000001 0.03107107 0.03500000
v 0.40139449 0.03113195 0.03500000
v 0.40277836 0.03131414 0.03500000
v 0.40414110 0.03161626 0.03500000
v 0.40547231 0.03203598 0.03500000
v 0.40550050 0.03204627 0.03500000
v 0.40676188 0.03257014 0.03500000
v 0.40549999 0.04157107 0.03500000
v 0.40492404 0.04793931 0.03500000
v 0.40482962 0.04836516 0.03500000
v 0.39788690 0.05160261 0.03500000
v 0.39750001 0.05140119 0.03500000
v 0.39713213 0.05116683 0.03500000
v 0.39956421 0.05205204 0.03500000
v 0.40000001 0.05207107 0.03500000
v 0.40043578 0.05205204 0.03500000
v 0.39566988 0.04457107 0.03500000
v 0.39590424 0.04420318 0.03500000
v 0.40383023 0.04385713 0.03500000
v 0.40409577 0.04420318 0.03500000
v 0.40433013 0.04457107 0.03500000
v 0.40453154 0.04495798 0.03500000
v 0.40469846 0.04536097 0.03500000
v 0.40482962 0.04577697 0.03500000
v 0.40492404 0.04620283 0.03500000
v 0.40498096 0.04663529 0.03500000
v 0.40500000 0.04707107 0.03500000
v 0.40498096 0.04750685 0.03500000
v 0.40250000 0.05140119 0.03500000
v 0.40211308 0.05160261 0.03500000
v 0.39913175 0.05199511 0.03500000
v 0.39870590 0.05190070 0.03500000
v 0.39828989 0.05176953 0.03500000
v 0.40171009 0.05176953 0.03500000
v 0.40129408 0.05190070 0.03500000
v 0.40086824 0.05199511 0.03500000
v 0.40469846 0.04878117 0.03500000
v 0.40453154 0.04918416 0.03500000
v 0.40433013 0.04957107 0.03500000
v 0.40409577 0.04993895 0.03500000
v 0.40383023 0.05028500 0.03500000
v 0.40353554 0.05060660 0.03500000
v 0.39616978 0.04385713 0.03500000
v 0.39646447 0.04353553 0.03500000
v 0.39678606 0.04324085 0.03500000
v 0.39546847 0.04918416 0.03500000
v 0.39530152 0.04878117 0.03500000
v 0.39517036 0.04836516 0.03500000
v 0.39507595 0.04793931 0.03500000
v 0.39501902 0.04750685 0.03500000
v 0.39500001 0.04707107 0.03500000
v 0.39501902 0.04663529 0.03500000
v 0.39507595 0.04620283 0.03500000
v 0.39517036 0.04577697 0.03500000
v 0.39530152 0.04536097 0.03500000
v 0.39546847 0.04495798 0.03500000
v 0.40321395 0.05090129 0.03500000
v 0.40286788 0.05116683 0.03500000
v 0.39678606 0.05090129 0.03500000
v 0.39646447 0.05060660 0.03500000
v 0.39616978 0.05028500 0.03500000
v 0.39590424 0.04993895 0.03500000
v 0.39566988 0.04957107 0.03500000
v 0.39713213 0.04297531 0.03500000
v 0.39750001 0.04274094 0.03500000
v 0.39788690 0.04253953 0.03500000
v 0.40250000 0.04274094 0.03500000
v 0.40286788 0.04297531 0.03500000
v 0.39828989 0.04237260 0.03500000
v 0.39870590 0.04224144 0.03500000
v 0.39913175 0.04214703 0.03500000
v 0.40086824 0.04214703 0.03500000
v 0.40129408 0.04224144 0.03500000
v 0.40321395 0.04324085 0.03500000
v 0.40353554 0.04353553 0.03500000
v 0.39956421 0.04209010 0.03500000
v 0.40000001 0.04207107 0.03500000
v 0.40043578 0.04209010 0.03500000
v 0.40171009 0.04237260 0.03500000
v 0.40211308 0.04253953 0.03500000
f 1 2 3
f 2 4 3
f 3 4 5
f 4 6 5
f 5 6 7
f 6 8 7
f 7 8 9
f 8 10 9
f 9 10 11
f 10 12 11
f 11 12 13
f 12 14 13
f 13 14 15
f 14 16 15
f 15 16 17
f 16 18 17
f 17 18 19
f 18 20 19
f 19 20 21
f 20 22 21
f 21 22 23
f 22 24 23
f 24 25 23
f 23 25 26
f 25 27 26
f 26 27 28
f 27 29 28
f 28 29 30
f 29 31 30
f 30 31 32
f 31 33 32
f 32 33 34
f 33 35 34
f 34 35 36
f 35 37 36
f 36 37 38
f 37 39 38
f 38 39 40
f 39 41 40
f 40 41 42
f 41 43 42
f 42 43 44
f 43 45 44
f 44 45 46
f 45 47 46
f 46 47 48
f 47 49 48
f 48 49 50
f 49 51 50
f 50 51 52
f 51 53 52
f 52 53 54
f 53 55 54
f 54 55 56
f 55 57 56
f 56 57 58
f 57 59 58
f 58 59 60
f 60 59 61
f 59 62 61
f 61 62 63
f 62 64 63
f 63 64 65
f 64 66 65
f 65 66 67
f 66 68 67
f 67 68 69
f 68 70 69
f 69 70 71
f 70 72 71
f 71 72 73
f 72 74 73
f 73 74 75
f 74 76 75
f 75 76 77
f 76 78 77
f 77 78 79
f 78 80 79
f 79 80 81
f 80 82 81
f 81 82 83
f 82 84 83
f 84 85 83
f 83 85 86
f 85 87 86
f 86 87 88
f 88 87 89
f 87 90 89
f 89 90 91
f 90 92 91
f 92 93 91
f 91 93 94
f 93 95 94
f 94 95 96
f 95 97 96
f 96 97 98
f 97 99 98
f 98 99 100
f 99 101 100
f 100 101 102
f 101 103 102
f 102 103 104
f 103 105 104
f 104 105 106
f 105 107 106
f 106 107 108
f 107 109 108
f 108 109 110
f 109 111 110
f 110 111 112
f 111 113 112
f 112 113 114
f 113 115 114
f 114 115 116
f 115 117 116
f 116 117 118
f 117 119 118
f 118 119 120
f 119 121 120
f 120 121 122
f 121 123 122
f 122 123 124
f 123 125 124
f 124 125 126
f 125 127 126
f 127 128 126
f 126 128 129
f 128 130 129
f 129 130 131
f 130 132 131
f 131 132 133
f 132 134 133
f 133 134 135
f 134 136 135
f 135 136 137
f 136 138 137
f 137 138 139
f 138 140 139
f 139 140 141
f 140 142 141
f 141 142 143
f 142 144 143
f 143 144 145
f 144 146 145
f 145 146 147
f 146 148 147
f 147 148 149
f 148 150 149
f 150 151 149
f 149 151 152
f 151 153 152
f 152 153 154
f 153 155 154
f 154 155 156
f 155 157 156
f 156 157 158
f 157 159 158
f 158 159 160
f 159 161 160
f 160 161 162
f 161 163 162
f 162 163 164
f 163 165 164
f 164 165 166
f 165 167 166
f 166 167 168
f 167 169 168
f 168 169 170
f 169 171 170
f 170 171 172
f 171 173 172
f 172 173 174
f 173 175 174
f 174 175 176
f 175 177 176
f 176 177 178
f 177 179 178
f 178 179 180
f 179 181 180
f 180 181 182
f 181 183 182
f 182 183 184
f 183 185 184
f 184 185 186
f 186 185 187
f 185 188 187
f 187 188 189
f 188 190 189
f 189 190 191
f 190 192 191
f 191 192 193
f 192 194 193
f 193 194 195
f 194 196 195
f 195 196 197
f 196 198 197
f 197 198 199
f 198 200 199
f 199 200 201
f 200 202 201
f 201 202 203
f 202 204 203
f 203 204 205
f 204 206 205
f 205 206 207
f 206 208 207
f 207 208 209
f 208 210 209
f 210 211 209
f 209 211 212
f 211 213 212
f 212 213 214
f 214 213 215
f 213 216 215
f 215 216 217
f 216 218 217
f 218 219 217
f 217 219 220
f 219 221 220
f 220 221 222
f 221 223 222
f 222 223 224
f 223 225 224
f 224 225 226
f 225 227 226
f 226 227 228
f 227 229 228
f 228 229 230
f 229 231 230
f 230 231 232
f 231 233 232
f 232 233 234
f 233 235 234
f 234 235 236
f 235 237 236
f 236 237 238
f 237 239 238
f 238 239 240
f 239 241 240
f 240 241 242
f 241 243 242
f 242 243 244
f 243 245 244
f 244 245 246
f 245 247 246
f 246 247 248
f 247 249 248
f 248 249 250
f 249 251 250
f 250 251 1
f 251 252 1
f 1 252 2
f 253 254 255
f 254 256 255
f 254 257 256
f 257 258 256
f 256 258 259
f 258 260 259
f 259 260 261
f 261 260 262
f 260 263 262
f 262 263 264
f 263 265 264
f 264 265 266
f 265 267 266
f 266 267 268
f 267 269 268
f 268 269 270
f 269 271 270
f 270 271 272
f 271 273 272
f 272 273 274
f 273 275 274
f 274 275 276
f 275 277 276
f 276 277 278
f 277 279 278
f 278 279 280
f 279 281 280
f 280 281 282
f 281 283 282
f 282 283 284
f 283 285 284
f 285 286 284
f 284 286 287
f 286 288 287
f 287 288 289
f 288 290 289
f 289 290 291
f 290 292 291
f 291 292 293
f 292 294 293
f 293 294 295
f 294 296 295
f 295 296 297
f 296 298 297
f 297 298 299
f 298 300 299
f 299 300 301
f 300 302 301
f 301 302 303
f 302 304 303
f 303 304 305
f 304 306 305
f 305 306 307
f 306 308 307
f 307 308 309
f 308 310 309
f 309 310 311
f 310 312 311
f 311 312 313
f 312 314 313
f 313 314 315
f 314 316 315
f 315 316 317
f 316 318 317
f 317 318 319
f 318 320 319
f 319 320 321
f 321 320 322
f 320 323 322
f 322 323 324
f 323 325 324
f 324 325 326
f 325 327 326
f 326 327 328
f 327 329 328
f 328 329 330
f 329 331 330
f 330 331 332
f 331 333 332
f 332 333 334
f 333 335 334
f 334 335 336
f 335 337 336
f 336 337 338
f 337 339 338
f 338 339 340
f 339 341 340
f 340 341 342
f 341 343 342
f 342 343 344
f 344 343 345
f 343 346 345
f 345 346 347
f 346 348 347
f 347 348 349
f 348 350 349
f 349 350 351
f 351 350 352
f 350 353 352
f 352 353 354
f 353 355 354
f 354 355 356
f 355 357 356
f 356 357 358
f 357 359 358
f 358 359 360
f 359 361 360
f 360 361 362
f 361 363 362
f 362 363 364
f 363 365 364
f 364 365 366
f 365 367 366
f 366 367 368
f 367 369 368
f 368 369 370
f 369 371 370
f 370 371 372
f 371 373 372
f 372 373 374
f 373 375 374
f 374 375 376
f 375 377 376
f 376 377 378
f 377 379 378
f 378 379 380
f 380 379 381
f 379 382 381
f 381 382 383
f 382 384 383
f 384 385 383
f 383 385 386
f 385 387 386
f 386 387 388
f 388 387 389
f 387 390 389
f 389 390 391
f 390 392 391
f 391 392 393
f 392 394 393
f 393 394 395
f 394 396 395
f 395 396 397
f 396 398 397
f 397 398 399
f 398 400 399
f 399 400 401
f 400 402 401
f 401 402 403
f 402 404 403
f 403 404 405
f 404 406 405
f 405 406 407
f 406 408 407
f 407 408 409
f 408 410 409
f 409 410 411
f 412 413 414
f 413 415 414
f 414 415 416
f 415 417 416
f 416 417 418
f 417 419 418
f 418 419 420
f 419 421 420
f 420 421 422
f 421 423 422
f 422 423 424
f 423 425 424
f 424 425 426
f 425 427 426
f 426 427 428
f 427 429 428
f 428 429 430
f 429 431 430
f 430 431 432
f 431 433 432
f 432 433 434
f 433 435 434
f 434 435 436
f 435 437 436
f 436 437 438
f 437 439 438
f 438 439 440
f 439 441 440
f 440 441 442
f 441 443 442
f 442 443 444
f 443 445 444
f 444 445 446
f 445 411 446
f 446 411 447
f 411 410 447
f 448 449 450
f 449 451 450
f 450 451 452
f 451 453 452
f 452 453 454
f 453 455 454
f 454 455 456
f 455 457 456
f 456 457 458
f 457 459 458
f 458 459 460
f 459 461 460
f 460 461 462
f 461 463 462
f 462 463 464
f 463 465 464
f 464 465 466
f 465 467 466
f 466 467 468
f 467 469 468
f 468 469 412
f 469 470 412
f 412 470 413
f 255 471 253
f 471 472 253
f 253 472 473
f 472 474 473
f 473 474 475
f 474 476 475
f 475 476 477
f 476 478 477
f 477 478 479
f 478 480 479
f 479 480 481
f 480 482 481
f 481 482 483
f 482 484 483
f 483 484 485
f 484 486 485
f 485 486 487
f 486 488 487
f 487 488 489
f 488 490 489
f 489 490 491
f 490 492 491
f 491 492 493
f 492 494 493
f 493 494 495
f 494 496 495
f 495 496 497
f 496 498 497
f 497 498 499
f 498 500 499
f 499 500 501
f 500 502 501
f 501 502 503
f 502 504 503
f 503 504 448
f 504 505 448
f 448 505 449
f 506 507 508
f 507 509 508
f 508 509 510
f 509 511 510
f 510 511 512
f 511 513 512
f 512 513 514
f 513 515 514
f 514 515 516
f 515 517 516
f 516 517 518
f 517 519 518
f 518 519 520
f 519 521 520
f 520 521 522
f 521 523 522
f 522 523 524
f 523 525 524
f 524 525 526
f 525 527 526
f 526 527 528
f 527 529 528
f 528 529 530
f 529 531 530
f 530 531 532
f 531 533 532
f 532 533 534
f 533 535 534
f 534 535 536
f 535 537 536
f 536 537 538
f 537 539 538
f 538 539 540
f 539 541 540
f 540 541 542
f 541 543 542
f 542 543 544
f 543 545 544
f 544 545 546
f 545 547 546
f 546 547 548
f 547 549 548
f 548 549 550
f 549 551 550
f 550 551 552
f 551 553 552
f 552 553 554
f 553 555 554
f 554 555 556
f 555 557 556
f 556 557 558
f 557 559 558
f 558 559 560
f 559 561 560
f 560 561 562
f 561 563 562
f 562 563 564
f 563 565 564
f 564 565 566
f 565 567 566
f 566 567 568
f 567 569 568
f 568 569 570
f 569 571 570
f 570 571 572
f 571 573 572
f 572 573 574
f 573 575 574
f 574 575 576
f 575 577 576
f 576 577 578
f 577 579 578
f 578 579 580
f 579 581 580
f 580 581 582
f 581 583 582
f 582 583 584
f 583 585 584
f 584 585 586
f 585 587 586
f 586 587 588
f 587 589 588
f 588 589 590
f 589 591 590
f 590 591 592
f 591 593 592
f 592 593 594
f 593 595 594
f 594 595 596
f 595 597 596
f 596 597 598
f 597 599 598
f 598 599 600
f 599 601 600
f 600 601 602
f 601 603 602
f 602 603 604
f 603 605 604
f 604 605 606
f 605 607 606
f 606 607 608
f 607 609 608
f 608 609 610
f 609 611 610
f 610 611 612
f 611 613 612
f 612 613 614
f 613 615 614
f 614 615 616
f 615 617 616
f 616 617 618
f 617 619 618
f 618 619 620
f 619 621 620
f 620 621 622
f 621 623 622
f 622 623 624
f 623 625 624
f 624 625 626
f 625 627 626
f 626 627 628
f 627 629 628
f 628 629 630
f 629 631 630
f 630 631 632
f 631 633 632
f 632 633 634
f 633 635 634
f 634 635 636
f 635 637 636
f 636 637 638
f 637 639 638
f 638 639 640
f 639 641 640
f 640 641 642
f 641 643 642
f 642 643 644
f 643 645 644
f 644 645 646
f 645 647 646
f 646 647 648
f 647 649 648
f 648 649 506
f 649 507 506
f 650 651 652
f 651 653 652
f 652 653 654
f 653 655 654
f 654 655 656
f 655 657 656
f 656 657 658
f 657 659 658
f 658 659 660
f 659 661 660
f 660 661 662
f 661 663 662
f 662 663 664
f 663 665 664
f 664 665 666
f 665 667 666
f 666 667 668
f 667 669 668
f 668 669 670
f 669 671 670
f 670 671 672
f 671 673 672
f 672 673 674
f 673 675 674
f 674 675 676
f 675 677 676
f 676 677 678
f 677 679 678
f 678 679 680
f 679 681 680
f 680 681 682
f 681 683 682
f 682 683 684
f 683 685 684
f 684 685 686
f 685 687 686
f 686 687 688
f 687 689 688
f 688 689 690
f 689 691 690
f 690 691 692
f 691 693 692
f 692 693 694
f 693 695 694
f 694 695 696
f 695 697 696
f 696 697 698
f 697 699 698
f 698 699 700
f 699 701 700
f 700 701 702
f 701 703 702
f 702 703 704
f 703 705 704
f 704 705 706
f 705 707 706
f 706 707 708
f 707 709 708
f 708 709 710
f 709 711 710
f 710 711 712
f 711 713 712
f 712 713 714
f 713 715 714
f 714 715 716
f 715 717 716
f 716 717 718
f 717 719 718
f 718 719 720
f 719 721 720
f 720 721 722
f 721 723 722
f 722 723 724
f 723 725 724
f 724 725 726
f 725 727 726
f 726 727 728
f 727 729 728
f 728 729 730
f 729 731 730
f 730 731 732
f 731 733 732
f 732 733 734
f 733 735 734
f 734 735 736
f 735 737 736
f 736 737 738
f 737 739 738
f 738 739 740
f 739 741 740
f 740 741 742
f 741 743 742
f 742 743 744
f 743 745 744
f 744 745 746
f 745 747 746
f 746 747 748
f 747 749 748
f 748 749 750
f 749 751 750
f 750 751 752
f 751 753 752
f 752 753 754
f 753 755 754
f 754 755 756
f 755 757 756
f 756 757 758
f 757 759 758
f 758 759 760
f 759 761 760
f 760 761 762
f 761 763 762
f 762 763 764
f 763 765 764
f 764 765 766
f 765 767 766
f 766 767 768
f 767 769 768
f 768 769 770
f 769 771 770
f 770 771 772
f 771 773 772
f 772 773 774
f 773 775 774
f 774 775 776
f 775 777 776
f 776 777 778
f 777 779 778
f 778 779 780
f 779 781 780
f 780 781 782
f 781 783 782
f 782 783 784
f 783 785 784
f 784 785 786
f 785 787 786
f 786 787 788
f 787 789 788
f 788 789 790
f 789 791 790
f 790 791 792
f 791 793 792
f 792 793 650
f 793 651 650
f 794 795 796
f 795 797 796
f 796 797 798
f 797 799 798
f 798 799 800
f 799 801 800
f 800 801 802
f 801 803 802
f 802 803 804
f 803 805 804
f 804 805 806
f 805 807 806
f 806 807 808
f 807 809 808
f 808 809 810
f 809 811 810
f 810 811 812
f 811 813 812
f 812 813 814
f 813 815 814
f 814 815 816
f 815 817 816
f 816 817 818
f 817 819 818
f 818 819 820
f 819 821 820
f 820 821 822
f 821 823 822
f 822 823 824
f 823 825 824
f 824 825 826
f 825 827 826
f 826 827 828
f 827 829 828
f 828 829 830
f 829 831 830
f 830 831 832
f 831 833 832
f 832 833 834
f 833 835 834
f 834 835 836
f 835 837 836
f 836 837 838
f 837 839 838
f 838 839 840
f 839 841 840
f 840 841 842
f 841 843 842
f 842 843 844
f 843 845 844
f 844 845 846
f 845 847 846
f 846 847 848
f 847 849 848
f 848 849 850
f 849 851 850
f 850 851 852
f 851 853 852
f 852 853 854
f 853 855 854
f 854 855 856
f 855 857 856
f 856 857 858
f 857 859 858
f 858 859 860
f 859 861 860
f 860 861 862
f 861 863 862
f 862 863 864
f 863 865 864
f 864 865 866
f 865 867 866
f 866 867 868
f 867 869 868
f 868 869 870
f 869 871 870
f 870 871 872
f 871 873 872
f 872 873 874
f 873 875 874
f 874 875 876
f 875 877 876
f 876 877 878
f 877 879 878
f 878 879 880
f 879 881 880
f 880 881 882
f 881 883 882
f 882 883 884
f 883 885 884
f 884 885 886
f 885 887 886
f 886 887 888
f 887 889 888
f 888 889 890
f 889 891 890
f 890 891 892
f 891 893 892
f 892 893 894
f 893 895 894
f 894 895 896
f 895 897 896
f 896 897 898
f 897 899 898
f 898 899 900
f 899 901 900
f 900 901 902
f 901 903 902
f 902 903 904
f 903 905 904
f 904 905 906
f 905 907 906
f 906 907 908
f 907 909 908
f 908 909 910
f 909 911 910
f 910 911 912
f 911 913 912
f 912 913 914
f 913 915 914
f 914 915 916
f 915 917 916
f 916 917 918
f 917 919 918
f 918 919 920
f 919 921 920
f 920 921 922
f 921 923 922
f 922 923 924
f 923 925 924
f 924 925 926
f 925 927 926
f 926 927 928
f 927 929 928
f 928 929 930
f 929 931 930
f 930 931 932
f 931 933 932
f 932 933 934
f 933 935 934
f 934 935 936
f 935 937 936
f 936 937 794
f 937 795 794
f 938 939 940
f 939 941 940
f 940 941 942
f 941 943 942
f 942 943 944
f 943 945 944
f 944 945 946
f 945 947 946
f 946 947 948
f 947 949 948
f 948 949 950
f 949 951 950
f 950 951 952
f 951 953 952
f 952 953 954
f 953 955 954
f 954 955 956
f 955 957 956
f 956 957 958
f 957 959 958
f 958 959 960
f 959 961 960
f 960 961 962
f 961 963 962
f 962 963 964
f 963 965 964
f 964 965 966
f 965 967 966
f 966 967 968
f 967 969 968
f 968 969 970
f 969 971 970
f 970 971 972
f 971 973 972
f 972 973 974
f 973 975 974
f 974 975 976
f 975 977 976
f 976 977 978
f 977 979 978
f 978 979 980
f 979 981 980
f 980 981 982
f 981 983 982
f 982 983 984
f 983 985 984
f 984 985 986
f 985 987 986
f 986 987 988
f 987 989 988
f 988 989 990
f 989 991 990
f 990 991 992
f 991 993 992
f 992 993 994
f 993 995 994
f 994 995 996
f 995 997 996
f 996 997 998
f 997 999 998
f 998 999 1000
f 999 1001 1000
f 1000 1001 1002
f 1001 1003 1002
f 1002 1003 1004
f 1003 1005 1004
f 1004 1005 1006
f 1005 1007 1006
f 1006 1007 1008
f 1007 1009 1008
f 1008 1009 1010
f 1009 1011 1010
f 1010 1011 1012
f 1011 1013 1012
f 1012 1013 1014
f 1013 1015 1014
f 1014 1015 1016
f 1015 1017 1016
f 1016 1017 1018
f 1017 1019 1018
f 1018 1019 1020
f 1019 1021 1020
f 1020 1021 1022
f 1021 1023 1022
f 1022 1023 1024
f 1023 1025 1024
f 1024 1025 1026
f 1025 1027 1026
f 1026 1027 1028
f 1027 1029 1028
f 1028 1029 1030
f 1029 1031 1030
f 1030 1031 1032
f 1031 1033 1032
f 1032 1033 1034
f 1033 1035 1034
f 1034 1035 1036
f 1035 1037 1036
f 1036 1037 1038
f 1037 1039 1038
f 1038 1039 1040
f 1039 1041 1040
f 1040 1041 1042
f 1041 1043 1042
f 1042 1043 1044
f 1043 1045 1044
f 1044 1045 1046
f 1045 1047 1046
f 1046 1047 1048
f 1047 1049 1048
f 1048 1049 1050
f 1049 1051 1050
f 1050 1051 1052
f 1051 1053 1052
f 1052 1053 1054
f 1053 1055 1054
f 1054 1055 1056
f 1055 1057 1056
f 1056 1057 1058
f 1057 1059 1058
f 1058 1059 1060
f 1059 1061 1060
f 1060 1061 1062
f 1061 1063 1062
f 1062 1063 1064
f 1063 1065 1064
f 1064 1065 1066
f 1065 1067 1066
f 1066 1067 1068
f 1067 1069 1068
f 1068 1069 1070
f 1069 1071 1070
f 1070 1071 1072
f 1071 1073 1072
f 1072 1073 1074
f 1073 1075 1074
f 1074 1075 1076
f 1075 1077 1076
f 1076 1077 1078
f 1077 1079 1078
f 1078 1079 1080
f 1079 1081 1080
f 1080 1081 938
f 1081 939 938
f 473 475 1082
f 475 477 1082
f 489 491 1082
f 491 493 1082
f 1082 493 495
f 483 485 1082
f 485 487 1082
f 1082 487 489
f 477 479 1082
f 479 481 1082
f 1082 481 483
f 495 497 1082
f 497 499 1082
f 1082 499 501
f 1083 501 503
f 503 448 1083
f 448 450 1083
f 1083 450 452
f 452 454 1083
f 454 456 1083
f 1083 456 458
f 458 460 1083
f 460 462 1083
f 1083 462 464
f 464 466 1083
f 466 468 1083
f 1083 468 412
f 418 1084 416
f 1084 1083 416
f 416 1083 414
f 1083 412 414
f 260 258 1085
f 260 1085 263
f 258 257 1085
f 257 254 1085
f 1085 254 1082
f 254 253 1082
f 1082 253 473
f 1086 285 283
f 1086 283 1087
f 283 281 1087
f 281 279 1087
f 1087 279 277
f 277 275 1087
f 275 273 1087
f 1087 273 271
f 271 269 1087
f 269 267 1087
f 1087 267 1085
f 267 265 1085
f 1085 265 263
f 300 298 1088
f 298 296 1088
f 296 294 1088
f 1088 294 292
f 292 290 1088
f 290 288 1088
f 1088 288 1086
f 288 286 1086
f 1086 286 285
f 312 310 1089
f 310 308 1089
f 308 306 1089
f 306 304 1089
f 1089 304 1088
f 304 302 1088
f 1088 302 300
f 377 375 1090
f 375 373 1090
f 361 359 1090
f 359 357 1090
f 1090 357 355
f 367 365 1090
f 365 363 1090
f 1090 363 361
f 373 371 1090
f 371 369 1090
f 1090 369 367
f 355 353 1090
f 353 350 1090
f 1090 350 348
f 346 343 1091
f 343 341 1091
f 1091 341 339
f 339 337 1091
f 337 335 1091
f 1091 335 333
f 333 331 1091
f 331 329 1091
f 1091 329 327
f 327 325 1091
f 325 323 1091
f 1091 323 320
f 320 318 1091
f 318 316 1091
f 1091 316 1089
f 316 314 1089
f 1089 314 312
f 387 385 1092
f 387 1092 390
f 385 384 1092
f 384 382 1092
f 1092 382 1090
f 382 379 1090
f 1090 379 377
f 1093 447 410
f 1093 410 1094
f 410 408 1094
f 408 406 1094
f 1094 406 404
f 404 402 1094
f 402 400 1094
f 1094 400 398
f 398 396 1094
f 396 394 1094
f 1094 394 1092
f 394 392 1092
f 1092 392 390
f 432 434 1095
f 434 436 1095
f 436 438 1095
f 1095 438 440
f 440 442 1095
f 442 444 1095
f 1095 444 1093
f 444 446 1093
f 1093 446 447
f 418 420 1084
f 420 422 1084
f 1084 422 424
f 424 426 1084
f 426 428 1084
f 1084 428 1095
f 428 430 1095
f 1095 430 432
f 220 222 1096
f 222 224 1096
f 242 244 1096
f 244 246 1096
f 1096 246 248
f 236 238 1096
f 238 240 1096
f 1096 240 242
f 230 232 1096
f 232 234 1096
f 1096 234 236
f 224 226 1096
f 226 228 1096
f 1096 228 230
f 250 1 1097
f 1 3 1097
f 1097 3 5
f 5 7 1097
f 7 9 1097
f 1097 9 11
f 11 13 1097
f 13 15 1097
f 1097 15 17
f 17 19 1097
f 19 21 1097
f 1097 21 23
f 30 1098 28
f 1098 1097 28
f 28 1097 26
f 1097 23 26
f 209 212 1099
f 209 1099 207
f 212 214 1099
f 214 215 1099
f 1099 215 1096
f 215 217 1096
f 1096 217 220
f 1100 186 187
f 1100 187 1101
f 187 189 1101
f 189 191 1101
f 1101 191 193
f 193 195 1101
f 195 197 1101
f 1101 197 199
f 199 201 1101
f 201 203 1101
f 1101 203 1099
f 203 205 1099
f 1099 205 207
f 176 178 1102
f 170 172 1102
f 172 174 1102
f 1102 174 176
f 178 180 1102
f 180 182 1102
f 1102 182 1100
f 182 184 1100
f 1100 184 186
f 158 160 1103
f 160 162 1103
f 162 164 1103
f 164 166 1103
f 1103 166 1102
f 166 168 1102
f 1102 168 170
f 94 96 1104
f 96 98 1104
f 122 124 1105
f 104 106 1104
f 106 108 1104
f 1104 108 110
f 98 100 1104
f 100 102 1104
f 1104 102 104
f 110 112 1104
f 112 114 1104
f 1104 114 116
f 116 118 1104
f 118 120 1104
f 1104 120 122
f 124 126 1105
f 126 129 1105
f 1105 129 131
f 131 133 1105
f 133 135 1105
f 1105 135 137
f 137 139 1105
f 139 141 1105
f 1105 141 143
f 143 145 1105
f 145 147 1105
f 1105 147 149
f 149 152 1105
f 152 154 1105
f 1105 154 1103
f 154 156 1103
f 1103 156 158
f 83 86 1106
f 83 1106 81
f 86 88 1106
f 88 89 1106
f 1106 89 1104
f 89 91 1104
f 1104 91 94
f 1107 60 61
f 1107 61 1108
f 61 63 1108
f 63 65 1108
f 1108 65 67
f 67 69 1108
f 69 71 1108
f 1108 71 73
f 73 75 1108
f 75 77 1108
f 1108 77 1106
f 77 79 1106
f 1106 79 81
f 44 46 1109
f 46 48 1109
f 48 50 1109
f 1109 50 52
f 52 54 1109
f 54 56 1109
f 1109 56 1107
f 56 58 1107
f 1107 58 60
f 30 32 1098
f 32 34 1098
f 1098 34 36
f 36 38 1098
f 38 40 1098
f 1098 40 1109
f 40 42 1109
f 1109 42 44
f 501 1083 1082
f 1083 1110 1082
f 1082 1110 1111
f 1110 1112 1111
f 1111 1112 1113
f 1112 1114 1113
f 1113 1114 1115
f 1114 1116 1115
f 1115 1116 1117
f 1116 1118 1117
f 1117 1118 1119
f 1118 1120 1119
f 1119 1120 1121
f 1120 1122 1121
f 1121 1122 1123
f 1122 1124 1123
f 1123 1124 1125
f 1124 1126 1125
f 1125 1126 1127
f 1126 1128 1127
f 1127 1128 1129
f 1128 1130 1129
f 1129 1130 1131
f 1130 1132 1131
f 1131 1132 1133
f 1132 1134 1133
f 1133 1134 1135
f 1134 1136 1135
f 1135 1136 1137
f 1136 1138 1137
f 1137 1138 1139
f 1138 1140 1139
f 1139 1140 1141
f 1140 1142 1141
f 1141 1142 1143
f 1142 1144 1143
f 1143 1144 1145
f 1144 1146 1145
f 1145 1146 1147
f 1146 1148 1147
f 1147 1148 1149
f 1148 1150 1149
f 1149 1150 1151
f 1150 1152 1151
f 1151 1152 1153
f 1152 1154 1153
f 1153 1154 1155
f 1154 1156 1155
f 1155 1156 1157
f 1156 1158 1157
f 1157 1158 1159
f 1158 1160 1159
f 1159 1160 1161
f 1160 1162 1161
f 1161 1162 1163
f 1162 1164 1163
f 1163 1164 1165
f 1164 1166 1165
f 1165 1166 1167
f 1166 1096 1167
f 1167 1096 1097
f 1096 248 1097
f 1097 248 250
f 122 1105 1104
f 1105 1168 1104
f 1104 1168 1169
f 1168 1170 1169
f 1169 1170 1171
f 1170 1172 1171
f 1171 1172 1173
f 1172 1174 1173
f 1173 1174 1175
f 1174 1176 1175
f 1175 1176 1177
f 1176 1178 1177
f 1177 1178 1179
f 1178 1180 1179
f 1179 1180 1181
f 1180 1182 1181
f 1181 1182 1183
f 1182 1184 1183
f 1183 1184 1185
f 1184 1186 1185
f 1185 1186 1187
f 1186 1188 1187
f 1187 1188 1189
f 1188 1190 1189
f 1189 1190 1191
f 1190 1192 1191
f 1191 1192 1193
f 1192 1194 1193
f 1193 1194 1195
f 1194 1196 1195
f 1195 1196 1197
f 1196 1198 1197
f 1197 1198 1199
f 1198 1200 1199
f 1199 1200 1201
f 1200 1202 1201
f 1201 1202 1203
f 1202 1204 1203
f 1203 1204 1205
f 1204 1206 1205
f 1205 1206 1207
f 1206 1208 1207
f 1207 1208 1209
f 1208 1210 1209
f 1209 1210 1211
f 1210 1212 1211
f 1211 1212 1213
f 1212 1214 1213
f 1213 1214 1215
f 1214 1216 1215
f 1215 1216 1217
f 1216 1218 1217
f 1217 1218 1219
f 1218 1220 1219
f 1219 1220 1221
f 1220 1222 1221
f 1221 1222 1223
f 1222 1224 1223
f 1223 1224 1225
f 1224 1090 1225
f 1225 1090 1091
f 1090 348 1091
f 1091 348 346
f 1226 1193 1227
f 1193 1195 1227
f 1227 1195 1228
f 1195 1197 1228
f 1228 1197 1229
f 1197 1199 1229
f 1229 1199 1230
f 1199 1201 1230
f 1230 1201 1231
f 1201 1203 1231
f 1231 1203 1232
f 1203 1205 1232
f 1232 1205 1233
f 1205 1207 1233
f 1233 1207 1234
f 1207 1209 1234
f 1234 1209 1235
f 1209 1211 1235
f 1235 1211 1236
f 1211 1213 1236
f 1236 1213 1237
f 1213 1215 1237
f 1237 1215 1238
f 1215 1217 1238
f 1238 1217 1239
f 1217 1219 1239
f 1239 1219 1240
f 1219 1221 1240
f 1240 1221 1241
f 1221 1223 1241
f 1241 1223 1242
f 1223 1225 1242
f 1242 1225 1243
f 1225 1091 1243
f 1243 1091 1244
f 1091 1089 1244
f 1244 1089 1245
f 1089 1088 1245
f 1245 1088 1246
f 1088 1086 1246
f 1246 1086 1247
f 1086 1087 1247
f 1247 1087 1248
f 1087 1085 1248
f 1248 1085 1249
f 1085 1082 1249
f 1249 1082 1250
f 1082 1111 1250
f 1250 1111 1251
f 1111 1113 1251
f 1251 1113 1252
f 1113 1115 1252
f 1252 1115 1253
f 1115 1117 1253
f 1253 1117 1254
f 1117 1119 1254
f 1254 1119 1255
f 1119 1121 1255
f 1255 1121 1256
f 1121 1123 1256
f 1256 1123 1257
f 1123 1125 1257
f 1257 1125 1258
f 1125 1127 1258
f 1258 1127 1259
f 1127 1129 1259
f 1259 1129 1260
f 1129 1131 1260
f 1260 1131 1261
f 1131 1133 1261
f 1261 1133 1262
f 1133 1135 1262
f 1262 1135 1263
f 1135 1137 1263
f 1263 1137 1264
f 1137 1139 1264
f 1264 1139 1265
f 1139 1141 1265
f 1265 1141 1266
f 1141 1143 1266
f 1266 1143 1267
f 1143 1145 1267
f 1267 1145 1268
f 1145 1147 1268
f 1268 1147 1269
f 1147 1149 1269
f 1269 1149 1270
f 1149 1151 1270
f 1270 1151 1271
f 1151 1153 1271
f 1271 1153 1272
f 1153 1155 1272
f 1272 1155 1273
f 1155 1157 1273
f 1273 1157 1274
f 1157 1159 1274
f 1274 1159 1275
f 1159 1161 1275
f 1275 1161 1276
f 1161 1163 1276
f 1276 1163 1277
f 1163 1165 1277
f 1277 1165 1278
f 1165 1167 1278
f 1278 1167 1279
f 1167 1097 1279
f 1279 1097 1280
f 1097 1098 1280
f 1280 1098 1281
f 1098 1109 1281
f 1281 1109 1282
f 1109 1107 1282
f 1282 1107 1283
f 1107 1108 1283
f 1283 1108 1284
f 1108 1106 1284
f 1284 1106 1285
f 1106 1104 1285
f 1285 1104 1286
f 1104 1169 1286
f 1286 1169 1287
f 1169 1171 1287
f 1287 1171 1288
f 1171 1173 1288
f 1288 1173 1289
f 1173 1175 1289
f 1289 1175 1290
f 1175 1177 1290
f 1290 1177 1291
f 1177 1179 1291
f 1291 1179 1292
f 1179 1181 1292
f 1292 1181 1293
f 1181 1183 1293
f 1293 1183 1294
f 1183 1185 1294
f 1294 1185 1295
f 1185 1187 1295
f 1295 1187 1296
f 1187 1189 1296
f 1296 1189 1297
f 1189 1191 1297
f 1297 1191 1226
f 1191 1193 1226
f 1298 578 580
f 588 1299 586
f 1299 1300 586
f 586 1300 584
f 1301 634 636
f 1092 1090 1302
f 1298 580 1300
f 580 582 1300
f 1300 582 584
f 636 638 1301
f 638 640 1301
f 1301 640 1196
f 640 642 1196
f 1196 642 644
f 644 646 1196
f 646 648 1196
f 1196 648 1198
f 522 1214 520
f 1214 1212 520
f 1224 1222 562
f 1208 1206 508
f 1206 1204 508
f 508 1204 506
f 1204 1202 506
f 506 1202 648
f 1202 1200 648
f 648 1200 1198
f 1210 516 1212
f 516 518 1212
f 1212 518 520
f 588 590 1299
f 590 592 1299
f 1299 592 1303
f 592 594 1303
f 600 1304 598
f 1304 1303 598
f 598 1303 596
f 1303 594 596
f 508 510 1208
f 510 512 1208
f 1208 512 1210
f 512 514 1210
f 1210 514 516
f 1090 1224 1302
f 1224 562 1302
f 1302 562 1305
f 562 564 1305
f 1305 564 1306
f 554 556 1222
f 564 566 1306
f 566 568 1306
f 1306 568 1307
f 568 570 1307
f 1307 570 1308
f 570 572 1308
f 572 574 1308
f 1308 574 1298
f 574 576 1298
f 1298 576 578
f 522 524 1214
f 524 526 1214
f 1214 526 1216
f 556 558 1222
f 558 560 1222
f 1222 560 562
f 606 1309 604
f 1309 1304 604
f 604 1304 602
f 1304 600 602
f 612 1310 610
f 1310 1309 610
f 610 1309 608
f 1309 606 608
f 1311 620 1312
f 620 622 1312
f 1312 622 1313
f 612 614 1310
f 614 616 1310
f 1310 616 1311
f 616 618 1311
f 1311 618 620
f 622 624 1313
f 624 626 1313
f 1313 626 1314
f 626 628 1314
f 1314 628 1315
f 628 630 1315
f 1315 630 1301
f 630 632 1301
f 1301 632 634
f 534 536 1218
f 536 538 1218
f 1218 538 1220
f 1220 538 1222
f 538 540 1222
f 1222 540 542
f 542 544 1222
f 544 546 1222
f 1222 546 548
f 526 528 1216
f 528 530 1216
f 1216 530 1218
f 530 532 1218
f 1218 532 534
f 548 550 1222
f 550 552 1222
f 1222 552 554
f 718 720 1184
f 1301 734 736
f 704 706 1178
f 1194 722 1196
f 722 724 1196
f 1196 724 726
f 726 728 1196
f 728 730 1196
f 1196 730 1301
f 730 732 1301
f 1301 732 734
f 770 772 1316
f 780 1317 778
f 1317 1318 778
f 778 1318 776
f 786 1319 784
f 1319 1317 784
f 784 1317 782
f 1317 780 782
f 666 1320 664
f 1320 1321 664
f 664 1321 662
f 1321 1322 662
f 1178 706 1180
f 792 1323 790
f 1323 1319 790
f 790 1319 788
f 1319 786 788
f 792 650 1323
f 650 652 1323
f 1323 652 1324
f 706 708 1180
f 708 710 1180
f 1180 710 1182
f 1184 720 1186
f 652 654 1324
f 654 656 1324
f 1324 656 1325
f 656 658 1325
f 1325 658 1322
f 658 660 1322
f 1322 660 662
f 666 668 1320
f 668 670 1320
f 1320 670 672
f 680 682 1105
f 1194 1192 722
f 1192 1190 722
f 722 1190 720
f 1190 1188 720
f 720 1188 1186
f 736 738 1301
f 738 740 1301
f 1301 740 1326
f 740 742 1326
f 1326 742 1327
f 742 744 1327
f 1327 744 1328
f 1316 772 1318
f 772 774 1318
f 1318 774 776
f 710 712 1182
f 712 714 1182
f 1182 714 1184
f 714 716 1184
f 1184 716 718
f 1176 700 1178
f 700 702 1178
f 1178 702 704
f 744 746 1328
f 746 748 1328
f 1328 748 1329
f 748 750 1329
f 1329 750 1330
f 756 1331 754
f 1331 1330 754
f 754 1330 752
f 1330 750 752
f 762 1332 760
f 1332 1331 760
f 760 1331 758
f 1331 756 758
f 762 764 1332
f 764 766 1332
f 1332 766 1316
f 766 768 1316
f 1316 768 770
f 672 674 1320
f 674 676 1320
f 1320 676 1105
f 676 678 1105
f 1105 678 680
f 1174 696 1176
f 696 698 1176
f 1176 698 700
f 682 684 1105
f 684 686 1105
f 1105 686 1168
f 686 688 1168
f 1168 688 1170
f 688 690 1170
f 1170 690 1172
f 690 692 1172
f 1172 692 1174
f 692 694 1174
f 1174 694 696
f 1140 1138 1010
f 1140 1010 1142
f 1026 1156 1024
f 1156 1154 1024
f 944 946 1333
f 1150 1148 1012
f 1148 1146 1012
f 1012 1146 1010
f 1146 1144 1010
f 1010 1144 1142
f 1152 1020 1154
f 1020 1022 1154
f 1154 1022 1024
f 1166 1164 1334
f 1334 1066 1068
f 1068 1070 1334
f 1070 1072 1334
f 1334 1072 1335
f 1072 1074 1335
f 1335 1074 1336
f 954 1337 952
f 1337 1338 952
f 952 1338 950
f 1339 994 996
f 1012 1014 1150
f 1014 1016 1150
f 1150 1016 1152
f 1016 1018 1152
f 1152 1018 1020
f 1105 1103 1320
f 1103 1102 1320
f 1320 1102 1340
f 1102 1100 1340
f 1340 1100 1341
f 1100 1101 1341
f 1341 1101 1342
f 1101 1099 1342
f 1342 1099 1334
f 1099 1096 1334
f 1334 1096 1166
f 1080 1343 1078
f 1343 1336 1078
f 1078 1336 1076
f 1336 1074 1076
f 1333 946 1338
f 946 948 1338
f 1338 948 950
f 1058 1060 1334
f 1080 938 1343
f 938 940 1343
f 1343 940 1333
f 940 942 1333
f 1333 942 944
f 960 1344 958
f 1344 1337 958
f 958 1337 956
f 1337 954 956
f 996 998 1339
f 998 1000 1339
f 1339 1000 1138
f 1000 1002 1138
f 1138 1002 1004
f 1004 1006 1138
f 1006 1008 1138
f 1138 1008 1010
f 1026 1028 1156
f 1028 1030 1156
f 1156 1030 1158
f 1038 1040 1160
f 1040 1162 1160
f 1060 1062 1334
f 1062 1064 1334
f 1334 1064 1066
f 966 1345 964
f 1345 1344 964
f 964 1344 962
f 1344 960 962
f 966 968 1345
f 968 970 1345
f 1345 970 1346
f 970 972 1346
f 972 974 1346
f 974 976 1346
f 1346 976 1347
f 1348 986 1349
f 986 988 1349
f 1349 988 1350
f 988 990 1350
f 1350 990 1339
f 990 992 1339
f 1339 992 994
f 1162 1040 1164
f 1040 1042 1164
f 1164 1042 1044
f 1044 1046 1164
f 1046 1048 1164
f 1164 1048 1050
f 976 978 1347
f 978 980 1347
f 1347 980 1351
f 980 982 1351
f 1351 982 1348
f 982 984 1348
f 1348 984 986
f 1030 1032 1158
f 1032 1034 1158
f 1158 1034 1160
f 1034 1036 1160
f 1160 1036 1038
f 1050 1052 1164
f 1052 1054 1164
f 1164 1054 1334
f 1054 1056 1334
f 1334 1056 1058
f 934 936 1126
f 1352 866 868
f 794 796 1132
f 1132 796 1134
f 1352 868 1353
f 1124 1122 926
f 1126 936 1128
f 1339 806 808
f 868 870 1353
f 870 872 1353
f 1353 872 1354
f 872 874 1354
f 1354 874 1355
f 920 922 1120
f 1120 922 1122
f 922 924 1122
f 1122 924 926
f 794 1132 936
f 1132 1130 936
f 936 1130 1128
f 842 844 1356
f 1357 1112 1110
f 926 928 1124
f 928 930 1124
f 1124 930 1126
f 930 932 1126
f 1126 932 934
f 798 1138 796
f 1138 1136 796
f 796 1136 1134
f 798 800 1138
f 800 802 1138
f 1138 802 1339
f 802 804 1339
f 1339 804 806
f 852 1358 850
f 1358 1359 850
f 850 1359 848
f 882 884 1357
f 1110 1083 1357
f 1083 1084 1357
f 1357 1084 1360
f 1084 1095 1360
f 1360 1095 1361
f 1095 1093 1361
f 1361 1093 1302
f 1093 1094 1302
f 1302 1094 1092
f 858 1362 856
f 1362 1358 856
f 856 1358 854
f 1358 852 854
f 874 876 1355
f 876 878 1355
f 1355 878 1357
f 878 880 1357
f 1357 880 882
f 808 810 1339
f 810 812 1339
f 1339 812 1363
f 812 814 1363
f 1363 814 1364
f 814 816 1364
f 1364 816 1365
f 1356 844 1359
f 844 846 1359
f 1359 846 848
f 858 860 1362
f 860 862 1362
f 1362 862 1352
f 862 864 1352
f 1352 864 866
f 884 886 1357
f 886 888 1357
f 1357 888 890
f 1118 916 1120
f 916 918 1120
f 1120 918 920
f 816 818 1365
f 818 820 1365
f 1365 820 1366
f 820 822 1366
f 1366 822 1367
f 822 824 1367
f 824 826 1367
f 1367 826 1368
f 826 828 1368
f 834 1369 832
f 1369 1368 832
f 832 1368 830
f 1368 828 830
f 896 1112 894
f 1112 1357 894
f 894 1357 892
f 1357 890 892
f 896 898 1112
f 898 900 1112
f 1112 900 902
f 902 904 1112
f 904 906 1112
f 1112 906 1114
f 906 908 1114
f 1114 908 1116
f 834 836 1369
f 836 838 1369
f 1369 838 1356
f 838 840 1356
f 1356 840 842
f 908 910 1116
f 910 912 1116
f 1116 912 1118
f 912 914 1118
f 1118 914 916
f 1366 1370 1365
f 1370 1371 1365
f 1365 1371 1364
f 1371 1372 1364
f 1364 1372 1363
f 1372 1373 1363
f 1363 1373 1339
f 1373 1374 1339
f 1339 1374 1350
f 1374 1375 1350
f 1350 1375 1349
f 1375 1376 1349
f 1349 1376 1348
f 1376 1377 1348
f 1348 1377 1351
f 1377 1378 1351
f 1351 1378 1347
f 1378 1379 1347
f 1347 1379 1346
f 1379 1380 1346
f 1346 1380 1345
f 1380 1381 1345
f 1345 1381 1344
f 1381 1382 1344
f 1344 1382 1337
f 1382 1383 1337
f 1337 1383 1338
f 1383 1384 1338
f 1338 1384 1333
f 1384 1385 1333
f 1333 1385 1343
f 1385 1386 1343
f 1343 1386 1336
f 1386 1387 1336
f 1336 1387 1335
f 1387 1388 1335
f 1335 1388 1334
f 1388 1389 1334
f 1334 1389 1342
f 1389 1390 1342
f 1342 1390 1341
f 1390 1391 1341
f 1341 1391 1340
f 1391 1392 1340
f 1340 1392 1320
f 1392 1393 1320
f 1320 1393 1321
f 1393 1394 1321
f 1321 1394 1322
f 1394 1395 1322
f 1322 1395 1325
f 1395 1396 1325
f 1325 1396 1324
f 1307 1397 1306
f 1397 1398 1306
f 1306 1398 1305
f 1398 1399 1305
f 1305 1399 1302
f 1399 1400 1302
f 1302 1400 1361
f 1400 1401 1361
f 1361 1401 1360
f 1401 1402 1360
f 1360 1402 1357
f 1402 1403 1357
f 1357 1403 1355
f 1403 1404 1355
f 1355 1404 1354
f 1404 1405 1354
f 1354 1405 1353
f 1405 1406 1353
f 1353 1406 1352
f 1406 1407 1352
f 1352 1407 1362
f 1407 1408 1362
f 1362 1408 1358
f 1408 1409 1358
f 1358 1409 1359
f 1409 1410 1359
f 1359 1410 1356
f 1410 1411 1356
f 1356 1411 1369
f 1411 1412 1369
f 1369 1412 1368
f 1412 1413 1368
f 1368 1413 1367
f 1413 1414 1367
f 1367 1414 1366
f 1414 1415 1366
f 1366 1415 1370
f 1311 1416 1310
f 1416 1417 1310
f 1310 1417 1309
f 1417 1418 1309
f 1309 1418 1304
f 1418 1419 1304
f 1304 1419 1303
f 1419 1420 1303
f 1303 1420 1299
f 1420 1421 1299
f 1299 1421 1300
f 1421 1422 1300
f 1300 1422 1298
f 1422 1423 1298
f 1298 1423 1308
f 1423 1424 1308
f 1308 1424 1307
f 1424 1425 1307
f 1307 1425 1397
f 1396 1426 1324
f 1426 1427 1324
f 1324 1427 1323
f 1427 1428 1323
f 1323 1428 1319
f 1428 1429 1319
f 1319 1429 1317
f 1429 1430 1317
f 1317 1430 1318
f 1430 1431 1318
f 1318 1431 1316
f 1431 1432 1316
f 1316 1432 1332
f 1432 1433 1332
f 1332 1433 1331
f 1433 1434 1331
f 1331 1434 1330
f 1434 1435 1330
f 1330 1435 1329
f 1435 1436 1329
f 1329 1436 1328
f 1436 1437 1328
f 1328 1437 1327
f 1437 1438 1327
f 1327 1438 1326
f 1438 1439 1326
f 1326 1439 1301
f 1439 1440 1301
f 1301 1440 1315
f 1440 1441 1315
f 1315 1441 1314
f 1441 1442 1314
f 1314 1442 1313
f 1442 1443 1313
f 1313 1443 1312
f 1443 1444 1312
f 1312 1444 1311
f 1444 1445 1311
f 1311 1445 1416
f 937 1446 795
f 1446 1414 795
f 1405 1404 875
f 927 1446 929
f 1446 931 929
f 875 1404 877
f 1404 1403 877
f 877 1403 879
f 809 807 1414
f 937 935 1446
f 935 933 1446
f 1446 933 931
f 927 925 1446
f 925 923 1446
f 1446 923 921
f 869 1406 871
f 1406 1405 871
f 871 1405 873
f 1405 875 873
f 861 859 1407
f 807 805 1414
f 805 803 1414
f 1414 803 801
f 851 1409 853
f 1409 1408 853
f 853 1408 855
f 815 813 1414
f 813 811 1414
f 1414 811 809
f 801 799 1414
f 799 797 1414
f 1414 797 795
f 1407 859 1408
f 859 857 1408
f 1408 857 855
f 845 1410 847
f 1410 1409 847
f 847 1409 849
f 1409 851 849
f 921 919 1446
f 919 917 1446
f 1446 917 915
f 909 907 1446
f 907 905 1446
f 897 895 1424
f 895 893 1424
f 869 867 1406
f 867 865 1406
f 1406 865 1407
f 865 863 1407
f 1407 863 861
f 915 913 1446
f 913 911 1446
f 1446 911 909
f 821 819 1414
f 819 817 1414
f 1414 817 815
f 905 903 1446
f 903 901 1446
f 1446 901 1424
f 901 899 1424
f 1424 899 897
f 879 1403 881
f 1403 1402 881
f 881 1402 883
f 1402 1401 883
f 883 1401 885
f 1401 1400 885
f 885 1400 887
f 1400 1399 887
f 887 1399 889
f 1399 1398 889
f 889 1398 891
f 1398 1397 891
f 891 1397 893
f 1397 1425 893
f 893 1425 1424
f 833 1412 835
f 1412 1411 835
f 835 1411 837
f 833 831 1412
f 831 829 1412
f 1412 829 1413
f 829 827 1413
f 827 825 1413
f 1413 825 1414
f 825 823 1414
f 1414 823 821
f 845 843 1410
f 843 841 1410
f 1410 841 1411
f 841 839 1411
f 1411 839 837
f 1385 939 1081
f 1447 1448 1414
f 1388 1071 1069
f 1449 1450 1023
f 1450 1451 1023
f 1023 1451 1025
f 1385 1081 1386
f 1452 1019 1453
f 1019 1454 1453
f 1455 1456 1396
f 1457 1458 1446
f 1458 1459 1446
f 1446 1459 1460
f 1460 1461 1446
f 1461 1462 1446
f 1446 1462 1463
f 1463 1464 1446
f 1464 1465 1446
f 1446 1465 1414
f 1465 1466 1414
f 1414 1466 1447
f 1467 1468 1414
f 963 961 1381
f 953 1383 955
f 1383 1382 955
f 955 1382 957
f 1081 1079 1386
f 1079 1077 1386
f 1386 1077 1387
f 1077 1075 1387
f 1387 1075 1388
f 1075 1073 1388
f 1388 1073 1071
f 1069 1067 1388
f 1067 1065 1388
f 1388 1065 1063
f 1452 1469 1019
f 1469 1470 1019
f 1019 1470 1471
f 1015 1472 1017
f 1472 1473 1017
f 1017 1473 1019
f 1473 1474 1019
f 1019 1474 1454
f 1448 1475 1414
f 1475 1476 1414
f 1414 1476 1477
f 1477 1478 1414
f 1478 1479 1414
f 1414 1479 1480
f 1007 1005 1414
f 1005 1003 1414
f 1003 1001 1414
f 1414 1001 1415
f 947 1384 949
f 1384 1383 949
f 949 1383 951
f 1383 953 951
f 1456 1481 1396
f 1481 1482 1396
f 1396 1482 1483
f 1015 1013 1472
f 1013 1011 1472
f 1472 1011 1468
f 1468 1011 1414
f 1011 1009 1414
f 1414 1009 1007
f 947 945 1384
f 945 943 1384
f 1384 943 1385
f 943 941 1385
f 1385 941 939
f 1449 1023 1471
f 1023 1021 1471
f 1471 1021 1019
f 1484 1485 1388
f 1485 1486 1388
f 1388 1486 1389
f 1486 1487 1389
f 1389 1487 1390
f 1487 1488 1390
f 1390 1488 1391
f 1488 1489 1391
f 1391 1489 1392
f 1489 1490 1392
f 1392 1490 1393
f 1490 1491 1393
f 1393 1491 1394
f 1491 1492 1394
f 1394 1492 1395
f 1492 1493 1395
f 1395 1493 1396
f 1493 1494 1396
f 1396 1494 1455
f 1480 1495 1414
f 1495 1496 1414
f 1414 1496 1467
f 1415 1001 1370
f 1001 999 1370
f 1370 999 1371
f 999 997 1371
f 1371 997 1372
f 997 995 1372
f 1372 995 1373
f 995 993 1373
f 1373 993 1374
f 993 991 1374
f 1374 991 1375
f 991 989 1375
f 1375 989 1376
f 1381 961 1382
f 961 959 1382
f 1382 959 957
f 1025 1451 1027
f 1451 1497 1027
f 1027 1497 1029
f 1497 1498 1029
f 1029 1498 1031
f 1498 1499 1031
f 1031 1499 1033
f 1049 1047 1484
f 1047 1045 1484
f 1499 1500 1033
f 1500 1501 1033
f 1033 1501 1035
f 1501 1484 1035
f 1035 1484 1037
f 1484 1039 1037
f 1483 1502 1396
f 1502 1503 1396
f 1396 1503 1504
f 1378 979 1379
f 979 977 1379
f 971 1380 973
f 1380 1379 973
f 973 1379 975
f 1379 977 975
f 1063 1061 1388
f 1061 1059 1388
f 1388 1059 1057
f 1057 1055 1388
f 1055 1053 1388
f 1388 1053 1484
f 1053 1051 1484
f 1484 1051 1049
f 1045 1043 1484
f 1043 1041 1484
f 1484 1041 1039
f 1446 1505 1506
f 989 987 1376
f 987 985 1376
f 1376 985 1377
f 985 983 1377
f 1377 983 1378
f 983 981 1378
f 1378 981 979
f 971 969 1380
f 969 967 1380
f 1380 967 1381
f 967 965 1381
f 1381 965 963
f 1504 1507 1396
f 1507 1508 1396
f 1396 1508 1509
f 1510 1511 1446
f 1506 1512 1446
f 1512 1513 1446
f 1446 1513 1457
f 1509 1514 1396
f 1514 1515 1396
f 1396 1515 1446
f 1515 1516 1446
f 1446 1516 1510
f 1511 1517 1446
f 1517 1518 1446
f 1446 1518 1505
f 1427 651 793
f 721 1446 723
f 1446 725 723
f 785 1429 787
f 1429 1428 787
f 787 1428 789
f 779 1430 781
f 1430 1429 781
f 781 1429 783
f 1429 785 783
f 663 1396 665
f 1396 667 665
f 1427 793 1428
f 793 791 1428
f 1428 791 789
f 725 1446 727
f 1446 1444 727
f 727 1444 729
f 709 707 1446
f 707 705 1446
f 663 661 1396
f 661 659 1396
f 1396 659 1426
f 773 1431 775
f 1431 1430 775
f 775 1430 777
f 1430 779 777
f 715 713 1446
f 713 711 1446
f 1446 711 709
f 721 719 1446
f 719 717 1446
f 1446 717 715
f 673 671 1396
f 671 669 1396
f 1396 669 667
f 659 657 1426
f 657 655 1426
f 1426 655 1427
f 655 653 1427
f 1427 653 651
f 1436 747 1437
f 747 745 1437
f 1437 745 1438
f 745 743 1438
f 1438 743 1439
f 743 741 1439
f 1439 741 1440
f 741 739 1440
f 1440 739 1441
f 739 737 1441
f 1441 737 1442
f 737 735 1442
f 1442 735 1443
f 735 733 1443
f 1443 733 1444
f 733 731 1444
f 1444 731 729
f 705 703 1446
f 703 701 1446
f 1446 701 699
f 761 1433 763
f 1433 1432 763
f 763 1432 765
f 761 759 1433
f 759 757 1433
f 1433 757 1434
f 685 683 1396
f 683 681 1396
f 1396 681 679
f 773 771 1431
f 771 769 1431
f 1431 769 1432
f 769 767 1432
f 1432 767 765
f 757 755 1434
f 755 753 1434
f 1434 753 1435
f 753 751 1435
f 1435 751 1436
f 751 749 1436
f 1436 749 747
f 699 697 1446
f 697 695 1446
f 1446 695 693
f 693 691 1446
f 691 689 1446
f 1446 689 1396
f 689 687 1396
f 1396 687 685
f 679 677 1396
f 677 675 1396
f 1396 675 673
f 1446 507 649
f 645 643 1444
f 643 641 1444
f 1444 641 639
f 587 1421 589
f 1421 1420 589
f 589 1420 591
f 1446 649 1444
f 649 647 1444
f 1444 647 645
f 639 637 1444
f 637 635 1444
f 1444 635 633
f 581 1422 583
f 1422 1421 583
f 583 1421 585
f 1421 587 585
f 569 567 1424
f 519 1446 521
f 1446 523 521
f 567 565 1424
f 565 563 1424
f 1424 563 561
f 519 517 1446
f 517 515 1446
f 1446 515 513
f 1417 609 607
f 513 511 1446
f 511 509 1446
f 1446 509 507
f 599 1419 601
f 1419 1418 601
f 601 1418 603
f 599 597 1419
f 597 595 1419
f 1419 595 1420
f 595 593 1420
f 1420 593 591
f 1423 573 1424
f 573 571 1424
f 1424 571 569
f 529 527 1446
f 527 525 1446
f 1446 525 523
f 633 631 1444
f 631 629 1444
f 1444 629 627
f 581 579 1422
f 579 577 1422
f 1422 577 1423
f 577 575 1423
f 1423 575 573
f 561 559 1424
f 559 557 1424
f 1424 557 555
f 627 625 1444
f 625 623 1444
f 1444 623 1445
f 623 621 1445
f 621 619 1445
f 1445 619 1416
f 619 617 1416
f 1417 607 1418
f 607 605 1418
f 1418 605 603
f 541 539 1446
f 539 537 1446
f 1446 537 535
f 617 615 1416
f 615 613 1416
f 1416 613 1417
f 613 611 1417
f 1417 611 609
f 555 553 1424
f 553 551 1424
f 1424 551 549
f 549 547 1424
f 547 545 1424
f 1424 545 1446
f 545 543 1446
f 1446 543 541
f 535 533 1446
f 533 531 1446
f 1446 531 529
f 505 504 1476
f 453 451 1476
f 451 449 1476
f 1476 449 505
f 459 457 1476
f 457 455 1476
f 1476 455 453
f 465 463 1476
f 463 461 1476
f 1476 461 459
f 498 1250 500
f 1250 1251 500
f 500 1251 502
f 498 496 1250
f 496 494 1250
f 1250 494 492
f 492 490 1250
f 490 488 1250
f 1250 488 486
f 486 484 1250
f 484 482 1250
f 1250 482 480
f 413 470 1475
f 470 469 1475
f 1475 469 1476
f 469 467 1476
f 1476 467 465
f 421 419 1448
f 419 417 1448
f 1448 417 1475
f 417 415 1475
f 1475 415 413
f 1466 437 1447
f 437 435 1447
f 435 433 1447
f 433 431 1447
f 1447 431 429
f 429 427 1447
f 427 425 1447
f 1447 425 1448
f 425 423 1448
f 1448 423 421
f 443 441 1466
f 441 439 1466
f 1466 439 437
f 1464 403 405
f 405 407 1464
f 407 409 1464
f 1464 409 1465
f 409 411 1465
f 1465 411 1466
f 411 445 1466
f 1466 445 443
f 393 395 1463
f 393 1463 391
f 395 397 1463
f 397 399 1463
f 1463 399 1464
f 399 401 1464
f 1464 401 403
f 383 386 1462
f 386 388 1462
f 1462 388 1463
f 388 389 1463
f 1463 389 391
f 376 378 1461
f 378 380 1461
f 1461 380 1462
f 380 381 1462
f 1462 381 383
f 340 342 1241
f 340 1241 338
f 332 334 1241
f 334 336 1241
f 1241 336 338
f 326 328 1241
f 328 330 1241
f 1241 330 332
f 342 344 1241
f 344 345 1241
f 1241 345 347
f 349 351 1460
f 351 352 1460
f 1460 352 1461
f 352 354 1461
f 354 356 1461
f 1461 356 358
f 358 360 1461
f 360 362 1461
f 1461 362 364
f 364 366 1461
f 366 368 1461
f 1461 368 370
f 370 372 1461
f 372 374 1461
f 1461 374 376
f 319 321 1242
f 321 322 1242
f 1242 322 1241
f 322 324 1241
f 1241 324 326
f 311 313 1243
f 313 315 1243
f 1243 315 1242
f 315 317 1242
f 1242 317 319
f 1245 295 1244
f 295 297 1244
f 297 299 1244
f 299 301 1244
f 1244 301 303
f 303 305 1244
f 305 307 1244
f 1244 307 1243
f 307 309 1243
f 1243 309 311
f 289 291 1245
f 291 293 1245
f 1245 293 295
f 1247 276 278
f 278 280 1247
f 280 282 1247
f 1247 282 1246
f 282 284 1246
f 1246 284 1245
f 284 287 1245
f 1245 287 289
f 266 268 1248
f 266 1248 264
f 268 270 1248
f 270 272 1248
f 1248 272 1247
f 272 274 1247
f 1247 274 276
f 256 259 1249
f 259 261 1249
f 1249 261 1248
f 261 262 1248
f 1248 262 264
f 480 478 1250
f 478 476 1250
f 1250 476 474
f 474 472 1250
f 472 471 1250
f 1250 471 1249
f 471 255 1249
f 1249 255 256
f 252 251 1277
f 6 4 1277
f 4 2 1277
f 1277 2 252
f 12 10 1277
f 10 8 1277
f 1277 8 6
f 18 16 1277
f 16 14 1277
f 1277 14 12
f 249 247 1484
f 247 245 1484
f 1484 245 1485
f 245 243 1485
f 243 241 1485
f 1485 241 239
f 239 237 1485
f 237 235 1485
f 1485 235 233
f 233 231 1485
f 231 229 1485
f 1485 229 227
f 25 24 1278
f 24 22 1278
f 1278 22 1277
f 22 20 1277
f 1277 20 18
f 33 31 1279
f 31 29 1279
f 1279 29 1278
f 29 27 1278
f 1278 27 25
f 1281 49 1280
f 49 47 1280
f 47 45 1280
f 45 43 1280
f 1280 43 41
f 41 39 1280
f 39 37 1280
f 1280 37 1279
f 37 35 1279
f 1279 35 33
f 55 53 1281
f 53 51 1281
f 1281 51 49
f 1283 68 66
f 66 64 1283
f 64 62 1283
f 1283 62 1282
f 62 59 1282
f 1282 59 1281
f 59 57 1281
f 1281 57 55
f 78 76 1284
f 78 1284 80
f 76 74 1284
f 74 72 1284
f 1284 72 1283
f 72 70 1283
f 1283 70 68
f 87 85 1285
f 85 84 1285
f 1285 84 1284
f 84 82 1284
f 1284 82 80
f 95 93 1286
f 93 92 1286
f 1286 92 1285
f 92 90 1285
f 1285 90 87
f 127 125 1494
f 132 130 1494
f 130 128 1494
f 1494 128 127
f 138 136 1494
f 136 134 1494
f 1494 134 132
f 144 142 1494
f 142 140 1494
f 1494 140 138
f 119 1286 121
f 1286 1287 121
f 121 1287 123
f 119 117 1286
f 117 115 1286
f 1286 115 113
f 113 111 1286
f 111 109 1286
f 1286 109 107
f 107 105 1286
f 105 103 1286
f 1286 103 101
f 101 99 1286
f 99 97 1286
f 1286 97 95
f 151 150 1493
f 150 148 1493
f 1493 148 1494
f 148 146 1494
f 1494 146 144
f 159 157 1492
f 157 155 1492
f 1492 155 1493
f 155 153 1493
f 1493 153 151
f 1490 175 1491
f 175 173 1491
f 173 171 1491
f 171 169 1491
f 1491 169 167
f 167 165 1491
f 165 163 1491
f 1491 163 1492
f 163 161 1492
f 1492 161 159
f 181 179 1490
f 179 177 1490
f 1490 177 175
f 1488 194 192
f 192 190 1488
f 190 188 1488
f 1488 188 1489
f 188 185 1489
f 1489 185 1490
f 185 183 1490
f 1490 183 181
f 204 202 1487
f 204 1487 206
f 202 200 1487
f 200 198 1487
f 1487 198 1488
f 198 196 1488
f 1488 196 194
f 213 211 1486
f 211 210 1486
f 1486 210 1487
f 210 208 1487
f 1487 208 206
f 227 225 1485
f 225 223 1485
f 1485 223 221
f 221 219 1485
f 219 218 1485
f 1485 218 1486
f 218 216 1486
f 1486 216 213
f 504 502 1476
f 502 1251 1476
f 1476 1251 1477
f 1251 1252 1477
f 1477 1252 1478
f 1252 1253 1478
f 1478 1253 1479
f 1253 1254 1479
f 1479 1254 1480
f 1254 1255 1480
f 1480 1255 1495
f 1255 1256 1495
f 1495 1256 1496
f 1256 1257 1496
f 1496 1257 1467
f 1257 1258 1467
f 1467 1258 1468
f 1258 1259 1468
f 1468 1259 1472
f 1259 1260 1472
f 1472 1260 1473
f 1260 1261 1473
f 1473 1261 1474
f 1261 1262 1474
f 1474 1262 1454
f 1262 1263 1454
f 1454 1263 1453
f 1263 1264 1453
f 1453 1264 1452
f 1264 1265 1452
f 1452 1265 1469
f 1265 1266 1469
f 1469 1266 1470
f 1266 1267 1470
f 1470 1267 1471
f 1267 1268 1471
f 1471 1268 1449
f 1268 1269 1449
f 1449 1269 1450
f 1269 1270 1450
f 1450 1270 1451
f 1270 1271 1451
f 1451 1271 1497
f 1271 1272 1497
f 1497 1272 1498
f 1272 1273 1498
f 1498 1273 1499
f 1273 1274 1499
f 1499 1274 1500
f 1274 1275 1500
f 1500 1275 1501
f 1275 1276 1501
f 1501 1276 1484
f 1276 1277 1484
f 1484 1277 249
f 1277 251 249
f 125 123 1494
f 123 1287 1494
f 1494 1287 1455
f 1287 1288 1455
f 1455 1288 1456
f 1288 1289 1456
f 1456 1289 1481
f 1289 1290 1481
f 1481 1290 1482
f 1290 1291 1482
f 1482 1291 1483
f 1291 1292 1483
f 1483 1292 1502
f 1292 1293 1502
f 1502 1293 1503
f 1293 1294 1503
f 1503 1294 1504
f 1294 1295 1504
f 1504 1295 1507
f 1295 1296 1507
f 1507 1296 1508
f 1296 1297 1508
f 1508 1297 1509
f 1297 1226 1509
f 1509 1226 1514
f 1226 1227 1514
f 1514 1227 1515
f 1227 1228 1515
f 1515 1228 1516
f 1228 1229 1516
f 1516 1229 1510
f 1229 1230 1510
f 1510 1230 1511
f 1230 1231 1511
f 1511 1231 1517
f 1231 1232 1517
f 1517 1232 1518
f 1232 1233 1518
f 1518 1233 1505
f 1233 1234 1505
f 1505 1234 1506
f 1234 1235 1506
f 1506 1235 1512
f 1235 1236 1512
f 1512 1236 1513
f 1236 1237 1513
f 1513 1237 1457
f 1237 1238 1457
f 1457 1238 1458
f 1238 1239 1458
f 1458 1239 1459
f 1239 1240 1459
f 1459 1240 1460
f 1240 1241 1460
f 1460 1241 349
f 1241 347 349

