# https://github.com/mikedh/trimesh
v 0.00000000 0.00600000 0.00340000
v -0.00040092 0.00458250 0.00200000
v -0.00052293 0.00597717 0.00340000
v -0.00079878 0.00453012 0.00200000
v -0.00104189 0.00590885 0.00340000
v -0.00119057 0.00444326 0.00200000
v -0.00155291 0.00579556 0.00340000
v -0.00157329 0.00432259 0.00200000
v -0.00205212 0.00563816 0.00340000
v -0.00194404 0.00416902 0.00200000
v -0.00253571 0.00543785 0.00340000
v -0.00230000 0.00398372 0.00200000
v -0.00300000 0.00519615 0.00340000
v -0.00263845 0.00376810 0.00200000
v -0.00344146 0.00491491 0.00340000
v -0.00295682 0.00352380 0.00200000
v -0.00385673 0.00459627 0.00340000
v -0.00325269 0.00325269 0.00200000
v -0.00424264 0.00424264 0.00340000
v -0.00352380 0.00295682 0.00200000
v -0.00459627 0.00385673 0.00340000
v -0.00376810 0.00263845 0.00200000
v -0.00491491 0.00344146 0.00340000
v -0.00398372 0.00230000 0.00200000
v -0.00519615 0.00300000 0.00340000
v -0.00416902 0.00194404 0.00200000
v -0.00543785 0.00253571 0.00340000
v -0.00432259 0.00157329 0.00200000
v -0.00563816 0.00205212 0.00340000
v -0.00444326 0.00119057 0.00200000
v -0.00579556 0.00155291 0.00340000
v -0.00453012 0.00079878 0.00200000
v -0.00590885 0.00104189 0.00340000
v -0.00458250 0.00040092 0.00200000
v -0.00597717 0.00052293 0.00340000
v -0.00460000 0.00000000 0.00200000
v -0.00600000 0.00000000 0.00340000
v -0.00458250 -0.00040092 0.00200000
v -0.00597717 -0.00052293 0.00340000
v -0.00453012 -0.00079878 0.00200000
v -0.00590885 -0.00104189 0.00340000
v -0.00444326 -0.00119057 0.00200000
v -0.00579556 -0.00155291 0.00340000
v -0.00432259 -0.00157329 0.00200000
v -0.00563816 -0.00205212 0.00340000
v -0.00416902 -0.00194404 0.00200000
v -0.00543785 -0.00253571 0.00340000
v -0.00398372 -0.00230000 0.00200000
v -0.00519615 -0.00300000 0.00340000
v -0.00376810 -0.00263845 0.00200000
v -0.00491491 -0.00344146 0.00340000
v -0.00352380 -0.00295682 0.00200000
v -0.00459627 -0.00385673 0.00340000
v -0.00325269 -0.00325269 0.00200000
v -0.00424264 -0.00424264 0.00340000
v -0.00295682 -0.00352380 0.00200000
v -0.00385673 -0.00459627 0.00340000
v -0.00263845 -0.00376810 0.00200000
v -0.00344146 -0.00491491 0.00340000
v -0.00230000 -0.00398372 0.00200000
v -0.00300000 -0.00519615 0.00340000
v -0.00194404 -0.00416902 0.00200000
v -0.00253571 -0.00543785 0.00340000
v -0.00157329 -0.00432259 0.00200000
v -0.00205212 -0.00563816 0.00340000
v -0.00119057 -0.00444326 0.00200000
v -0.00155291 -0.00579556 0.00340000
v -0.00079878 -0.00453012 0.00200000
v -0.00104189 -0.00590885 0.00340000
v -0.00040092 -0.00458250 0.00200000
v -0.00052293 -0.00597717 0.00340000
v -0.00000000 -0.00460000 0.00200000
v -0.00000000 -0.00600000 0.00340000
v 0.00040092 -0.00458250 0.00200000
v 0.00052293 -0.00597717 0.00340000
v 0.00079878 -0.00453012 0.00200000
v 0.00104189 -0.00590885 0.00340000
v 0.00119057 -0.00444326 0.00200000
v 0.00155291 -0.00579556 0.00340000
v 0.00157329 -0.00432259 0.00200000
v 0.00205212 -0.00563816 0.00340000
v 0.00194404 -0.00416902 0.00200000
v 0.00253571 -0.00543785 0.00340000
v 0.00230000 -0.00398372 0.00200000
v 0.00300000 -0.00519615 0.00340000
v 0.00263845 -0.00376810 0.00200000
v 0.00344146 -0.00491491 0.00340000
v 0.00295682 -0.00352380 0.00200000
v 0.00385673 -0.00459627 0.00340000
v 0.00325269 -0.00325269 0.00200000
v 0.00424264 -0.00424264 0.00340000
v 0.00352380 -0.00295682 0.00200000
v 0.00459627 -0.00385673 0.00340000
v 0.00376810 -0.00263845 0.00200000
v 0.00491491 -0.00344146 0.00340000
v 0.00398372 -0.00230000 0.00200000
v 0.00519615 -0.00300000 0.00340000
v 0.00416902 -0.00194404 0.00200000
v 0.00543785 -0.00253571 0.00340000
v 0.00432259 -0.00157329 0.00200000
v 0.00563816 -0.00205212 0.00340000
v 0.00444326 -0.00119057 0.00200000
v 0.00579556 -0.00155291 0.00340000
v 0.00453012 -0.00079878 0.00200000
v 0.00590885 -0.00104189 0.00340000
v 0.00458250 -0.00040092 0.00200000
v 0.00597717 -0.00052293 0.00340000
v 0.00460000 -0.00000000 0.00200000
v 0.00600000 -0.00000000 0.00340000
v 0.00458250 0.00040092 0.00200000
v 0.00597717 0.00052293 0.00340000
v 0.00453012 0.00079878 0.00200000
v 0.00590885 0.00104189 0.00340000
v 0.00444326 0.00119057 0.00200000
v 0.00579556 0.00155291 0.00340000
v 0.00432259 0.00157329 0.00200000
v 0.00563816 0.00205212 0.00340000
v 0.00416902 0.00194404 0.00200000
v 0.00543785 0.00253571 0.00340000
v 0.00398372 0.00230000 0.00200000
v 0.00519615 0.00300000 0.00340000
v 0.00376810 0.00263845 0.00200000
v 0.00491491 0.00344146 0.00340000
v 0.00352380 0.00295682 0.00200000
v 0.00459627 0.00385673 0.00340000
v 0.00325269 0.00325269 0.00200000
v 0.00424264 0.00424264 0.00340000
v 0.00295682 0.00352380 0.00200000
v 0.00385673 0.00459627 0.00340000
v 0.00263845 0.00376810 0.00200000
v 0.00344146 0.00491491 0.00340000
v 0.00230000 0.00398372 0.00200000
v 0.00300000 0.00519615 0.00340000
v 0.00194404 0.00416902 0.00200000
v 0.00253571 0.00543785 0.00340000
v 0.00157329 0.00432259 0.00200000
v 0.00205212 0.00563816 0.00340000
v 0.00119057 0.00444326 0.00200000
v 0.00155291 0.00579556 0.00340000
v 0.00079878 0.00453012 0.00200000
v 0.00104189 0.00590885 0.00340000
v 0.00040092 0.00458250 0.00200000
v 0.00052293 0.00597717 0.00340000
v 0.00000000 0.00460000 0.00200000
v -0.00063393 0.00135946 0.00400000
v -0.00253571 0.00543785 0.00400000
v -0.00075000 0.00129904 0.00400000
v -0.00300000 0.00519615 0.00400000
v -0.00086036 0.00122873 0.00400000
v -0.00344146 0.00491491 0.00400000
v -0.00096418 0.00114907 0.00400000
v -0.00385673 0.00459627 0.00400000
v -0.00106066 0.00106066 0.00400000
v -0.00424264 0.00424264 0.00400000
v -0.00114907 0.00096418 0.00400000
v -0.00459627 0.00385673 0.00400000
v -0.00122873 0.00086036 0.00400000
v -0.00491491 0.00344146 0.00400000
v -0.00129904 0.00075000 0.00400000
v -0.00519615 0.00300000 0.00400000
v -0.00135946 0.00063393 0.00400000
v -0.00543785 0.00253571 0.00400000
v -0.00140954 0.00051303 0.00400000
v -0.00563816 0.00205212 0.00400000
v -0.00144889 0.00038823 0.00400000
v -0.00579556 0.00155291 0.00400000
v -0.00147721 0.00026047 0.00400000
v -0.00590885 0.00104189 0.00400000
v -0.00149429 0.00013073 0.00400000
v -0.00597717 0.00052293 0.00400000
v -0.00150000 0.00000000 0.00400000
v -0.00600000 0.00000000 0.00400000
v -0.00149429 -0.00013073 0.00400000
v -0.00597717 -0.00052293 0.00400000
v -0.00147721 -0.00026047 0.00400000
v -0.00590885 -0.00104189 0.00400000
v -0.00144889 -0.00038823 0.00400000
v -0.00579556 -0.00155291 0.00400000
v -0.00140954 -0.00051303 0.00400000
v -0.00563816 -0.00205212 0.00400000
v -0.00135946 -0.00063393 0.00400000
v -0.00543785 -0.00253571 0.00400000
v -0.00129904 -0.00075000 0.00400000
v -0.00519615 -0.00300000 0.00400000
v -0.00122873 -0.00086036 0.00400000
v -0.00491491 -0.00344146 0.00400000
v -0.00114907 -0.00096418 0.00400000
v -0.00459627 -0.00385673 0.00400000
v -0.00106066 -0.00106066 0.00400000
v -0.00424264 -0.00424264 0.00400000
v -0.00096418 -0.00114907 0.00400000
v -0.00385673 -0.00459627 0.00400000
v -0.00086036 -0.00122873 0.00400000
v -0.00344146 -0.00491491 0.00400000
v -0.00075000 -0.00129904 0.00400000
v -0.00300000 -0.00519615 0.00400000
v -0.00063393 -0.00135946 0.00400000
v -0.00253571 -0.00543785 0.00400000
v -0.00051303 -0.00140954 0.00400000
v -0.00205212 -0.00563816 0.00400000
v -0.00038823 -0.00144889 0.00400000
v -0.00155291 -0.00579556 0.00400000
v -0.00026047 -0.00147721 0.00400000
v -0.00104189 -0.00590885 0.00400000
v -0.00013073 -0.00149429 0.00400000
v -0.00052293 -0.00597717 0.00400000
v -0.00000000 -0.00150000 0.00400000
v -0.00000000 -0.00600000 0.00400000
v 0.00013073 -0.00149429 0.00400000
v 0.00052293 -0.00597717 0.00400000
v 0.00026047 -0.00147721 0.00400000
v 0.00104189 -0.00590885 0.00400000
v 0.00038823 -0.00144889 0.00400000
v 0.00155291 -0.00579556 0.00400000
v 0.00051303 -0.00140954 0.00400000
v 0.00205212 -0.00563816 0.00400000
v 0.00063393 -0.00135946 0.00400000
v 0.00253571 -0.00543785 0.00400000
v 0.00075000 -0.00129904 0.00400000
v 0.00300000 -0.00519615 0.00400000
v 0.00086036 -0.00122873 0.00400000
v 0.00344146 -0.00491491 0.00400000
v 0.00096418 -0.00114907 0.00400000
v 0.00385673 -0.00459627 0.00400000
v 0.00106066 -0.00106066 0.00400000
v 0.00424264 -0.00424264 0.00400000
v 0.00114907 -0.00096418 0.00400000
v 0.00459627 -0.00385673 0.00400000
v 0.00122873 -0.00086036 0.00400000
v 0.00491491 -0.00344146 0.00400000
v 0.00129904 -0.00075000 0.00400000
v 0.00519615 -0.00300000 0.00400000
v 0.00135946 -0.00063393 0.00400000
v 0.00543785 -0.00253571 0.00400000
v 0.00140954 -0.00051303 0.00400000
v 0.00563816 -0.00205212 0.00400000
v 0.00144889 -0.00038823 0.00400000
v 0.00579556 -0.00155291 0.00400000
v 0.00147721 -0.00026047 0.00400000
v 0.00590885 -0.00104189 0.00400000
v 0.00149429 -0.00013073 0.00400000
v 0.00597717 -0.00052293 0.00400000
v 0.00150000 -0.00000000 0.00400000
v 0.00600000 0.00000000 0.00400000
v 0.00149429 0.00013073 0.00400000
v 0.00597717 0.00052293 0.00400000
v 0.00147721 0.00026047 0.00400000
v 0.00590885 0.00104189 0.00400000
v 0.00144889 0.00038823 0.00400000
v 0.00579556 0.00155291 0.00400000
v 0.00140954 0.00051303 0.00400000
v 0.00563816 0.00205212 0.00400000
v 0.00135946 0.00063393 0.00400000
v 0.00543785 0.00253571 0.00400000
v 0.00129904 0.00075000 0.00400000
v 0.00519615 0.00300000 0.00400000
v 0.00122873 0.00086036 0.00400000
v 0.00491491 0.00344146 0.00400000
v 0.00114907 0.00096418 0.00400000
v 0.00459627 0.00385673 0.00400000
v 0.00106066 0.00106066 0.00400000
v 0.00424264 0.00424264 0.00400000
v 0.00096418 0.00114907 0.00400000
v 0.00385673 0.00459627 0.00400000
v 0.00086036 0.00122873 0.00400000
v 0.00344146 0.00491491 0.00400000
v 0.00075000 0.00129904 0.00400000
v 0.00300000 0.00519615 0.00400000
v 0.00063393 0.00135946 0.00400000
v 0.00253571 0.00543785 0.00400000
v 0.00051303 0.00140954 0.00400000
v 0.00205212 0.00563816 0.00400000
v 0.00038823 0.00144889 0.00400000
v 0.00155291 0.00579556 0.00400000
v 0.00026047 0.00147721 0.00400000
v 0.00104189 0.00590885 0.00400000
v 0.00013073 0.00149429 0.00400000
v 0.00052293 0.00597717 0.00400000
v 0.00000000 0.00150000 0.00400000
v 0.00000000 0.00600000 0.00400000
v -0.00013073 0.00149429 0.00400000
v -0.00052293 0.00597717 0.00400000
v -0.00026047 0.00147721 0.00400000
v -0.00104189 0.00590885 0.00400000
v -0.00038823 0.00144889 0.00400000
v -0.00155291 0.00579556 0.00400000
v -0.00051303 0.00140954 0.00400000
v -0.00205212 0.00563816 0.00400000
v -0.00135946 0.00063393 0.00000000
v -0.00543785 0.00253571 0.00000000
v -0.00129904 0.00075000 0.00000000
v -0.00519615 0.00300000 0.00000000
v -0.00122873 0.00086036 0.00000000
v -0.00491491 0.00344146 0.00000000
v -0.00114907 0.00096418 0.00000000
v -0.00459627 0.00385673 0.00000000
v -0.00106066 0.00106066 0.00000000
v -0.00424264 0.00424264 0.00000000
v -0.00096418 0.00114907 0.00000000
v -0.00385673 0.00459627 0.00000000
v -0.00086036 0.00122873 0.00000000
v -0.00344146 0.00491491 0.00000000
v -0.00075000 0.00129904 0.00000000
v -0.00300000 0.00519615 0.00000000
v -0.00063393 0.00135946 0.00000000
v -0.00253571 0.00543785 0.00000000
v -0.00051303 0.00140954 0.00000000
v -0.00205212 0.00563816 0.00000000
v -0.00038823 0.00144889 0.00000000
v -0.00155291 0.00579556 0.00000000
v -0.00026047 0.00147721 0.00000000
v -0.00104189 0.00590885 0.00000000
v -0.00013073 0.00149429 0.00000000
v -0.00052293 0.00597717 0.00000000
v 0.00000000 0.00150000 0.00000000
v 0.00000000 0.00600000 0.00000000
v 0.00013073 0.00149429 0.00000000
v 0.00052293 0.00597717 0.00000000
v 0.00026047 0.00147721 0.00000000
v 0.00104189 0.00590885 0.00000000
v 0.00038823 0.00144889 0.00000000
v 0.00155291 0.00579556 0.00000000
v 0.00051303 0.00140954 0.00000000
v 0.00205212 0.00563816 0.00000000
v 0.00063393 0.00135946 0.00000000
v 0.00253571 0.00543785 0.00000000
v 0.00075000 0.00129904 0.00000000
v 0.00300000 0.00519615 0.00000000
v 0.00086036 0.00122873 0.00000000
v 0.00344146 0.00491491 0.00000000
v 0.00096418 0.00114907 0.00000000
v 0.00385673 0.00459627 0.00000000
v 0.00106066 0.00106066 0.00000000
v 0.00424264 0.00424264 0.00000000
v 0.00114907 0.00096418 0.00000000
v 0.00459627 0.00385673 0.00000000
v 0.00122873 0.00086036 0.00000000
v 0.00491491 0.00344146 0.00000000
v 0.00129904 0.00075000 0.00000000
v 0.00519615 0.00300000 0.00000000
v 0.00135946 0.00063393 0.00000000
v 0.00543785 0.00253571 0.00000000
v 0.00140954 0.00051303 0.00000000
v 0.00563816 0.00205212 0.00000000
v 0.00144889 0.00038823 0.00000000
v 0.00579556 0.00155291 0.00000000
v 0.00147721 0.00026047 0.00000000
v 0.00590885 0.00104189 0.00000000
v 0.00149429 0.00013073 0.00000000
v 0.00597717 0.00052293 0.00000000
v 0.00150000 -0.00000000 0.00000000
v 0.00600000 -0.00000000 0.00000000
v 0.00149429 -0.00013073 0.00000000
v 0.00597717 -0.00052293 0.00000000
v 0.00147721 -0.00026047 0.00000000
v 0.00590885 -0.00104189 0.00000000
v 0.00144889 -0.00038823 0.00000000
v 0.00579556 -0.00155291 0.00000000
v 0.00140954 -0.00051303 0.00000000
v 0.00563816 -0.00205212 0.00000000
v 0.00135946 -0.00063393 0.00000000
v 0.00543785 -0.00253571 0.00000000
v 0.00129904 -0.00075000 0.00000000
v 0.00519615 -0.00300000 0.00000000
v 0.00122873 -0.00086036 0.00000000
v 0.00491491 -0.00344146 0.00000000
v 0.00114907 -0.00096418 0.00000000
v 0.00459627 -0.00385673 0.00000000
v 0.00106066 -0.00106066 0.00000000
v 0.00424264 -0.00424264 0.00000000
v 0.00096418 -0.00114907 0.00000000
v 0.00385673 -0.00459627 0.00000000
v 0.00086036 -0.00122873 0.00000000
v 0.00344146 -0.00491491 0.00000000
v 0.00075000 -0.00129904 0.00000000
v 0.00300000 -0.00519615 0.00000000
v 0.00063393 -0.00135946 0.00000000
v 0.00253571 -0.00543785 0.00000000
v 0.00051303 -0.00140954 0.00000000
v 0.00205212 -0.00563816 0.00000000
v 0.00038823 -0.00144889 0.00000000
v 0.00155291 -0.00579556 0.00000000
v 0.00026047 -0.00147721 0.00000000
v 0.00104189 -0.00590885 0.00000000
v 0.00013073 -0.00149429 0.00000000
v 0.00052293 -0.00597717 0.00000000
v -0.00000000 -0.00150000 0.00000000
v -0.00000000 -0.00600000 0.00000000
v -0.00013073 -0.00149429 0.00000000
v -0.00052293 -0.00597717 0.00000000
v -0.00026047 -0.00147721 0.00000000
v -0.00104189 -0.00590885 0.00000000
v -0.00038823 -0.00144889 0.00000000
v -0.00155291 -0.00579556 0.00000000
v -0.00051303 -0.00140954 0.00000000
v -0.00205212 -0.00563816 0.00000000
v -0.00063393 -0.00135946 0.00000000
v -0.00253571 -0.00543785 0.00000000
v -0.00075000 -0.00129904 0.00000000
v -0.00300000 -0.00519615 0.00000000
v -0.00086036 -0.00122873 0.00000000
v -0.00344146 -0.00491491 0.00000000
v -0.00096418 -0.00114907 0.00000000
v -0.00385673 -0.00459627 0.00000000
v -0.00106066 -0.00106066 0.00000000
v -0.00424264 -0.00424264 0.00000000
v -0.00114907 -0.00096418 0.00000000
v -0.00459627 -0.00385673 0.00000000
v -0.00122873 -0.00086036 0.00000000
v -0.00491491 -0.00344146 0.00000000
v -0.00129904 -0.00075000 0.00000000
v -0.00519615 -0.00300000 0.00000000
v -0.00135946 -0.00063393 0.00000000
v -0.00543785 -0.00253571 0.00000000
v -0.00140954 -0.00051303 0.00000000
v -0.00563816 -0.00205212 0.00000000
v -0.00144889 -0.00038823 0.00000000
v -0.00579556 -0.00155291 0.00000000
v -0.00147721 -0.00026047 0.00000000
v -0.00590885 -0.00104189 0.00000000
v -0.00149429 -0.00013073 0.00000000
v -0.00597717 -0.00052293 0.00000000
v -0.00150000 0.00000000 0.00000000
v -0.00600000 0.00000000 0.00000000
v -0.00149429 0.00013073 0.00000000
v -0.00597717 0.00052293 0.00000000
v -0.00147721 0.00026047 0.00000000
v -0.00590885 0.00104189 0.00000000
v -0.00144889 0.00038823 0.00000000
v -0.00579556 0.00155291 0.00000000
v -0.00140954 0.00051303 0.00000000
v -0.00563816 0.00205212 0.00000000
v 0.00600000 0.00000000 0.00060000
v 0.00597717 0.00052293 0.00060000
v 0.00590885 0.00104189 0.00060000
v 0.00579556 0.00155291 0.00060000
v 0.00563816 0.00205212 0.00060000
v 0.00543785 0.00253571 0.00060000
v 0.00519615 0.00300000 0.00060000
v 0.00491491 0.00344146 0.00060000
v 0.00459627 0.00385673 0.00060000
v 0.00424264 0.00424264 0.00060000
v 0.00385673 0.00459627 0.00060000
v 0.00344146 0.00491491 0.00060000
v 0.00300000 0.00519615 0.00060000
v 0.00253571 0.00543785 0.00060000
v 0.00205212 0.00563816 0.00060000
v 0.00155291 0.00579556 0.00060000
v 0.00104189 0.00590885 0.00060000
v 0.00052293 0.00597717 0.00060000
v -0.00000000 0.00600000 0.00060000
v -0.00052293 0.00597717 0.00060000
v -0.00104189 0.00590885 0.00060000
v -0.00155291 0.00579556 0.00060000
v -0.00205212 0.00563816 0.00060000
v -0.00253571 0.00543785 0.00060000
v -0.00300000 0.00519615 0.00060000
v -0.00344146 0.00491491 0.00060000
v -0.00385673 0.00459627 0.00060000
v -0.00424264 0.00424264 0.00060000
v -0.00459627 0.00385673 0.00060000
v -0.00491491 0.00344146 0.00060000
v -0.00519615 0.00300000 0.00060000
v -0.00543785 0.00253571 0.00060000
v -0.00563816 0.00205212 0.00060000
v -0.00579556 0.00155291 0.00060000
v -0.00590885 0.00104189 0.00060000
v -0.00597717 0.00052293 0.00060000
v -0.00600000 -0.00000000 0.00060000
v -0.00597717 -0.00052293 0.00060000
v -0.00590885 -0.00104189 0.00060000
v -0.00579556 -0.00155291 0.00060000
v -0.00563816 -0.00205212 0.00060000
v -0.00543785 -0.00253571 0.00060000
v -0.00519615 -0.00300000 0.00060000
v -0.00491491 -0.00344146 0.00060000
v -0.00459627 -0.00385673 0.00060000
v -0.00424264 -0.00424264 0.00060000
v -0.00385673 -0.00459627 0.00060000
v -0.00344146 -0.00491491 0.00060000
v -0.00300000 -0.00519615 0.00060000
v -0.00253571 -0.00543785 0.00060000
v -0.00205212 -0.00563816 0.00060000
v -0.00155291 -0.00579556 0.00060000
v -0.00104189 -0.00590885 0.00060000
v -0.00052293 -0.00597717 0.00060000
v 0.00000000 -0.00600000 0.00060000
v 0.00052293 -0.00597717 0.00060000
v 0.00104189 -0.00590885 0.00060000
v 0.00155291 -0.00579556 0.00060000
v 0.00205212 -0.00563816 0.00060000
v 0.00253571 -0.00543785 0.00060000
v 0.00300000 -0.00519615 0.00060000
v 0.00344146 -0.00491491 0.00060000
v 0.00385673 -0.00459627 0.00060000
v 0.00424264 -0.00424264 0.00060000
v 0.00459627 -0.00385673 0.00060000
v 0.00491491 -0.00344146 0.00060000
v 0.00519615 -0.00300000 0.00060000
v 0.00543785 -0.00253571 0.00060000
v 0.00563816 -0.00205212 0.00060000
v 0.00579556 -0.00155291 0.00060000
v 0.00590885 -0.00104189 0.00060000
v 0.00597717 -0.00052293 0.00060000
f 1 2 3
f 2 4 3
f 3 4 5
f 4 6 5
f 5 6 7
f 6 8 7
f 7 8 9
f 8 10 9
f 9 10 11
f 10 12 11
f 11 12 13
f 12 14 13
f 13 14 15
f 14 16 15
f 15 16 17
f 16 18 17
f 17 18 19
f 18 20 19
f 19 20 21
f 20 22 21
f 21 22 23
f 22 24 23
f 23 24 25
f 24 26 25
f 25 26 27
f 26 28 27
f 27 28 29
f 28 30 29
f 29 30 31
f 30 32 31
f 31 32 33
f 32 34 33
f 33 34 35
f 34 36 35
f 35 36 37
f 36 38 37
f 37 38 39
f 38 40 39
f 39 40 41
f 40 42 41
f 41 42 43
f 42 44 43
f 43 44 45
f 44 46 45
f 45 46 47
f 46 48 47
f 47 48 49
f 48 50 49
f 49 50 51
f 50 52 51
f 51 52 53
f 52 54 53
f 53 54 55
f 54 56 55
f 55 56 57
f 56 58 57
f 57 58 59
f 58 60 59
f 59 60 61
f 60 62 61
f 61 62 63
f 62 64 63
f 63 64 65
f 64 66 65
f 65 66 67
f 66 68 67
f 67 68 69
f 68 70 69
f 69 70 71
f 70 72 71
f 71 72 73
f 72 74 73
f 73 74 75
f 74 76 75
f 75 76 77
f 76 78 77
f 77 78 79
f 78 80 79
f 79 80 81
f 80 82 81
f 81 82 83
f 82 84 83
f 83 84 85
f 84 86 85
f 85 86 87
f 86 88 87
f 87 88 89
f 88 90 89
f 89 90 91
f 90 92 91
f 91 92 93
f 92 94 93
f 93 94 95
f 94 96 95
f 95 96 97
f 96 98 97
f 97 98 99
f 98 100 99
f 99 100 101
f 100 102 101
f 101 102 103
f 102 104 103
f 103 104 105
f 104 106 105
f 105 106 107
f 106 108 107
f 107 108 109
f 108 110 109
f 109 110 111
f 110 112 111
f 111 112 113
f 112 114 113
f 113 114 115
f 114 116 115
f 115 116 117
f 116 118 117
f 117 118 119
f 118 120 119
f 119 120 121
f 120 122 121
f 121 122 123
f 122 124 123
f 123 124 125
f 124 126 125
f 125 126 127
f 126 128 127
f 127 128 129
f 128 130 129
f 129 130 131
f 130 132 131
f 131 132 133
f 132 134 133
f 133 134 135
f 134 136 135
f 135 136 137
f 136 138 137
f 137 138 139
f 138 140 139
f 139 140 141
f 140 142 141
f 141 142 143
f 142 144 143
f 143 144 1
f 144 2 1
f 145 146 147
f 146 148 147
f 147 148 149
f 148 150 149
f 149 150 151
f 150 152 151
f 151 152 153
f 152 154 153
f 153 154 155
f 154 156 155
f 155 156 157
f 156 158 157
f 157 158 159
f 158 160 159
f 159 160 161
f 160 162 161
f 161 162 163
f 162 164 163
f 163 164 165
f 164 166 165
f 165 166 167
f 166 168 167
f 167 168 169
f 168 170 169
f 169 170 171
f 170 172 171
f 171 172 173
f 172 174 173
f 173 174 175
f 174 176 175
f 175 176 177
f 176 178 177
f 177 178 179
f 178 180 179
f 179 180 181
f 180 182 181
f 181 182 183
f 182 184 183
f 183 184 185
f 184 186 185
f 185 186 187
f 186 188 187
f 187 188 189
f 188 190 189
f 189 190 191
f 190 192 191
f 191 192 193
f 192 194 193
f 193 194 195
f 194 196 195
f 195 196 197
f 196 198 197
f 197 198 199
f 198 200 199
f 199 200 201
f 200 202 201
f 201 202 203
f 202 204 203
f 203 204 205
f 204 206 205
f 205 206 207
f 206 208 207
f 207 208 209
f 208 210 209
f 209 210 211
f 210 212 211
f 211 212 213
f 212 214 213
f 213 214 215
f 214 216 215
f 215 216 217
f 216 218 217
f 217 218 219
f 218 220 219
f 219 220 221
f 220 222 221
f 221 222 223
f 222 224 223
f 223 224 225
f 224 226 225
f 225 226 227
f 226 228 227
f 227 228 229
f 228 230 229
f 229 230 231
f 230 232 231
f 231 232 233
f 232 234 233
f 233 234 235
f 234 236 235
f 235 236 237
f 236 238 237
f 237 238 239
f 238 240 239
f 239 240 241
f 240 242 241
f 241 242 243
f 242 244 243
f 243 244 245
f 244 246 245
f 245 246 247
f 246 248 247
f 247 248 249
f 248 250 249
f 249 250 251
f 250 252 251
f 251 252 253
f 252 254 253
f 253 254 255
f 254 256 255
f 255 256 257
f 256 258 257
f 257 258 259
f 258 260 259
f 259 260 261
f 260 262 261
f 261 262 263
f 262 264 263
f 263 264 265
f 264 266 265
f 265 266 267
f 266 268 267
f 267 268 269
f 268 270 269
f 269 270 271
f 270 272 271
f 271 272 273
f 272 274 273
f 273 274 275
f 274 276 275
f 275 276 277
f 276 278 277
f 277 278 279
f 278 280 279
f 279 280 281
f 280 282 281
f 281 282 283
f 282 284 283
f 283 284 285
f 284 286 285
f 285 286 287
f 286 288 287
f 287 288 145
f 288 146 145
f 289 290 291
f 290 292 291
f 291 292 293
f 292 294 293
f 293 294 295
f 294 296 295
f 295 296 297
f 296 298 297
f 297 298 299
f 298 300 299
f 299 300 301
f 300 302 301
f 301 302 303
f 302 304 303
f 303 304 305
f 304 306 305
f 305 306 307
f 306 308 307
f 307 308 309
f 308 310 309
f 309 310 311
f 310 312 311
f 311 312 313
f 312 314 313
f 313 314 315
f 314 316 315
f 315 316 317
f 316 318 317
f 317 318 319
f 318 320 319
f 319 320 321
f 320 322 321
f 321 322 323
f 322 324 323
f 323 324 325
f 324 326 325
f 325 326 327
f 326 328 327
f 327 328 329
f 328 330 329
f 329 330 331
f 330 332 331
f 331 332 333
f 332 334 333
f 333 334 335
f 334 336 335
f 335 336 337
f 336 338 337
f 337 338 339
f 338 340 339
f 339 340 341
f 340 342 341
f 341 342 343
f 342 344 343
f 343 344 345
f 344 346 345
f 345 346 347
f 346 348 347
f 347 348 349
f 348 350 349
f 349 350 351
f 350 352 351
f 351 352 353
f 352 354 353
f 353 354 355
f 354 356 355
f 355 356 357
f 356 358 357
f 357 358 359
f 358 360 359
f 359 360 361
f 360 362 361
f 361 362 363
f 362 364 363
f 363 364 365
f 364 366 365
f 365 366 367
f 366 368 367
f 367 368 369
f 368 370 369
f 369 370 371
f 370 372 371
f 371 372 373
f 372 374 373
f 373 374 375
f 374 376 375
f 375 376 377
f 376 378 377
f 377 378 379
f 378 380 379
f 379 380 381
f 380 382 381
f 381 382 383
f 382 384 383
f 383 384 385
f 384 386 385
f 385 386 387
f 386 388 387
f 387 388 389
f 388 390 389
f 389 390 391
f 390 392 391
f 391 392 393
f 392 394 393
f 393 394 395
f 394 396 395
f 395 396 397
f 396 398 397
f 397 398 399
f 398 400 399
f 399 400 401
f 400 402 401
f 401 402 403
f 402 404 403
f 403 404 405
f 404 406 405
f 405 406 407
f 406 408 407
f 407 408 409
f 408 410 409
f 409 410 411
f 410 412 411
f 411 412 413
f 412 414 413
f 413 414 415
f 414 416 415
f 415 416 417
f 416 418 417
f 417 418 419
f 418 420 419
f 419 420 421
f 420 422 421
f 421 422 423
f 422 424 423
f 423 424 425
f 424 426 425
f 425 426 427
f 426 428 427
f 427 428 429
f 428 430 429
f 429 430 431
f 430 432 431
f 431 432 289
f 432 290 289
f 244 111 246
f 111 113 246
f 246 113 248
f 113 115 248
f 248 115 250
f 115 117 250
f 250 117 252
f 117 119 252
f 252 119 254
f 119 121 254
f 254 121 256
f 121 123 256
f 256 123 258
f 123 125 258
f 258 125 260
f 125 127 260
f 260 127 262
f 127 129 262
f 262 129 264
f 129 131 264
f 264 131 266
f 131 133 266
f 266 133 268
f 133 135 268
f 268 135 270
f 135 137 270
f 270 137 272
f 137 139 272
f 272 139 274
f 139 141 274
f 274 141 276
f 141 143 276
f 276 143 278
f 143 1 278
f 278 1 280
f 1 3 280
f 280 3 282
f 3 5 282
f 282 5 284
f 5 7 284
f 284 7 286
f 7 9 286
f 286 9 288
f 9 11 288
f 288 11 146
f 11 13 146
f 146 13 148
f 13 15 148
f 148 15 150
f 15 17 150
f 150 17 152
f 17 19 152
f 152 19 154
f 19 21 154
f 154 21 156
f 21 23 156
f 156 23 158
f 23 25 158
f 158 25 160
f 25 27 160
f 160 27 162
f 27 29 162
f 162 29 164
f 29 31 164
f 164 31 166
f 31 33 166
f 166 33 168
f 33 35 168
f 168 35 170
f 35 37 170
f 170 37 172
f 37 39 172
f 172 39 174
f 39 41 174
f 174 41 176
f 41 43 176
f 176 43 178
f 43 45 178
f 178 45 180
f 45 47 180
f 180 47 182
f 47 49 182
f 182 49 184
f 49 51 184
f 184 51 186
f 51 53 186
f 186 53 188
f 53 55 188
f 188 55 190
f 55 57 190
f 190 57 192
f 57 59 192
f 192 59 194
f 59 61 194
f 194 61 196
f 61 63 196
f 196 63 198
f 63 65 198
f 198 65 200
f 65 67 200
f 200 67 202
f 67 69 202
f 202 69 204
f 69 71 204
f 204 71 206
f 71 73 206
f 206 73 208
f 73 75 208
f 208 75 210
f 75 77 210
f 210 77 212
f 77 79 212
f 212 79 214
f 79 81 214
f 214 81 216
f 81 83 216
f 216 83 218
f 83 85 218
f 218 85 220
f 85 87 220
f 220 87 222
f 87 89 222
f 222 89 224
f 89 91 224
f 224 91 226
f 91 93 226
f 226 93 228
f 93 95 228
f 228 95 230
f 95 97 230
f 230 97 232
f 97 99 232
f 232 99 234
f 99 101 234
f 234 101 236
f 101 103 236
f 236 103 238
f 103 105 238
f 238 105 240
f 105 107 240
f 240 107 242
f 107 109 242
f 242 109 244
f 109 111 244
f 423 171 421
f 171 173 421
f 421 173 419
f 173 175 419
f 419 175 417
f 175 177 417
f 417 177 415
f 177 179 415
f 415 179 413
f 179 181 413
f 413 181 411
f 181 183 411
f 411 183 409
f 183 185 409
f 409 185 407
f 185 187 407
f 407 187 405
f 187 189 405
f 405 189 403
f 189 191 403
f 403 191 401
f 191 193 401
f 401 193 399
f 193 195 399
f 399 195 397
f 195 197 397
f 397 197 395
f 197 199 395
f 395 199 393
f 199 201 393
f 393 201 391
f 201 203 391
f 391 203 389
f 203 205 389
f 389 205 387
f 205 207 387
f 387 207 385
f 207 209 385
f 385 209 383
f 209 211 383
f 383 211 381
f 211 213 381
f 381 213 379
f 213 215 379
f 379 215 377
f 215 217 377
f 377 217 375
f 217 219 375
f 375 219 373
f 219 221 373
f 373 221 371
f 221 223 371
f 371 223 369
f 223 225 369
f 369 225 367
f 225 227 367
f 367 227 365
f 227 229 365
f 365 229 363
f 229 231 363
f 363 231 361
f 231 233 361
f 361 233 359
f 233 235 359
f 359 235 357
f 235 237 357
f 357 237 355
f 237 239 355
f 355 239 353
f 239 241 353
f 353 241 351
f 241 243 351
f 351 243 349
f 243 245 349
f 349 245 347
f 245 247 347
f 347 247 345
f 247 249 345
f 345 249 343
f 249 251 343
f 343 251 341
f 251 253 341
f 341 253 339
f 253 255 339
f 339 255 337
f 255 257 337
f 337 257 335
f 257 259 335
f 335 259 333
f 259 261 333
f 333 261 331
f 261 263 331
f 331 263 329
f 263 265 329
f 329 265 327
f 265 267 327
f 327 267 325
f 267 269 325
f 325 269 323
f 269 271 323
f 323 271 321
f 271 273 321
f 321 273 319
f 273 275 319
f 319 275 317
f 275 277 317
f 317 277 315
f 277 279 315
f 315 279 313
f 279 281 313
f 313 281 311
f 281 283 311
f 311 283 309
f 283 285 309
f 309 285 307
f 285 287 307
f 307 287 305
f 287 145 305
f 305 145 303
f 145 147 303
f 303 147 301
f 147 149 301
f 301 149 299
f 149 151 299
f 299 151 297
f 151 153 297
f 297 153 295
f 153 155 295
f 295 155 293
f 155 157 293
f 293 157 291
f 157 159 291
f 291 159 289
f 159 161 289
f 289 161 431
f 161 163 431
f 431 163 429
f 163 165 429
f 429 165 427
f 165 167 427
f 427 167 425
f 167 169 425
f 425 169 423
f 169 171 423
f 433 350 434
f 350 348 434
f 434 348 435
f 348 346 435
f 435 346 436
f 346 344 436
f 436 344 437
f 344 342 437
f 437 342 438
f 342 340 438
f 438 340 439
f 340 338 439
f 439 338 440
f 338 336 440
f 440 336 441
f 336 334 441
f 441 334 442
f 334 332 442
f 442 332 443
f 332 330 443
f 443 330 444
f 330 328 444
f 444 328 445
f 328 326 445
f 445 326 446
f 326 324 446
f 446 324 447
f 324 322 447
f 447 322 448
f 322 320 448
f 448 320 449
f 320 318 449
f 449 318 450
f 318 316 450
f 450 316 451
f 316 314 451
f 451 314 452
f 314 312 452
f 452 312 453
f 312 310 453
f 453 310 454
f 310 308 454
f 454 308 455
f 308 306 455
f 455 306 456
f 306 304 456
f 456 304 457
f 304 302 457
f 457 302 458
f 302 300 458
f 458 300 459
f 300 298 459
f 459 298 460
f 298 296 460
f 460 296 461
f 296 294 461
f 461 294 462
f 294 292 462
f 462 292 463
f 292 290 463
f 463 290 464
f 290 432 464
f 464 432 465
f 432 430 465
f 465 430 466
f 430 428 466
f 466 428 467
f 428 426 467
f 467 426 468
f 426 424 468
f 468 424 469
f 424 422 469
f 469 422 470
f 422 420 470
f 470 420 471
f 420 418 471
f 471 418 472
f 418 416 472
f 472 416 473
f 416 414 473
f 473 414 474
f 414 412 474
f 474 412 475
f 412 410 475
f 475 410 476
f 410 408 476
f 476 408 477
f 408 406 477
f 477 406 478
f 406 404 478
f 478 404 479
f 404 402 479
f 479 402 480
f 402 400 480
f 480 400 481
f 400 398 481
f 481 398 482
f 398 396 482
f 482 396 483
f 396 394 483
f 483 394 484
f 394 392 484
f 484 392 485
f 392 390 485
f 485 390 486
f 390 388 486
f 486 388 487
f 388 386 487
f 487 386 488
f 386 384 488
f 488 384 489
f 384 382 489
f 489 382 490
f 382 380 490
f 490 380 491
f 380 378 491
f 491 378 492
f 378 376 492
f 492 376 493
f 376 374 493
f 493 374 494
f 374 372 494
f 494 372 495
f 372 370 495
f 495 370 496
f 370 368 496
f 496 368 497
f 368 366 497
f 497 366 498
f 366 364 498
f 498 364 499
f 364 362 499
f 499 362 500
f 362 360 500
f 500 360 501
f 360 358 501
f 501 358 502
f 358 356 502
f 502 356 503
f 356 354 503
f 503 354 504
f 354 352 504
f 504 352 433
f 352 350 433
f 451 142 450
f 142 140 450
f 450 140 449
f 140 138 449
f 449 138 448
f 138 136 448
f 448 136 447
f 136 134 447
f 447 134 446
f 134 132 446
f 446 132 445
f 132 130 445
f 445 130 444
f 130 128 444
f 444 128 443
f 128 126 443
f 443 126 442
f 126 124 442
f 442 124 441
f 124 122 441
f 441 122 440
f 122 120 440
f 440 120 439
f 120 118 439
f 439 118 438
f 118 116 438
f 438 116 437
f 116 114 437
f 437 114 436
f 114 112 436
f 436 112 435
f 112 110 435
f 435 110 434
f 110 108 434
f 434 108 433
f 108 106 433
f 433 106 504
f 106 104 504
f 504 104 503
f 104 102 503
f 503 102 502
f 102 100 502
f 502 100 501
f 100 98 501
f 501 98 500
f 98 96 500
f 500 96 499
f 96 94 499
f 499 94 498
f 94 92 498
f 498 92 497
f 92 90 497
f 497 90 496
f 90 88 496
f 496 88 495
f 88 86 495
f 495 86 494
f 86 84 494
f 494 84 493
f 84 82 493
f 493 82 492
f 82 80 492
f 492 80 491
f 80 78 491
f 491 78 490
f 78 76 490
f 490 76 489
f 76 74 489
f 489 74 488
f 74 72 488
f 488 72 487
f 72 70 487
f 487 70 486
f 70 68 486
f 486 68 485
f 68 66 485
f 485 66 484
f 66 64 484
f 484 64 483
f 64 62 483
f 483 62 482
f 62 60 482
f 482 60 481
f 60 58 481
f 481 58 480
f 58 56 480
f 480 56 479
f 56 54 479
f 479 54 478
f 54 52 478
f 478 52 477
f 52 50 477
f 477 50 476
f 50 48 476
f 476 48 475
f 48 46 475
f 475 46 474
f 46 44 474
f 474 44 473
f 44 42 473
f 473 42 472
f 42 40 472
f 472 40 471
f 40 38 471
f 471 38 470
f 38 36 470
f 470 36 469
f 36 34 469
f 469 34 468
f 34 32 468
f 468 32 467
f 32 30 467
f 467 30 466
f 30 28 466
f 466 28 465
f 28 26 465
f 465 26 464
f 26 24 464
f 464 24 463
f 24 22 463
f 463 22 462
f 22 20 462
f 462 20 461
f 20 18 461
f 461 18 460
f 18 16 460
f 460 16 459
f 16 14 459
f 459 14 458
f 14 12 458
f 458 12 457
f 12 10 457
f 457 10 456
f 10 8 456
f 456 8 455
f 8 6 455
f 455 6 454
f 6 4 454
f 454 4 453
f 4 2 453
f 453 2 452
f 2 144 452
f 452 144 451
f 144 142 451

