# https://github.com/mikedh/trimesh
v 0.00607769 -0.03446827 -0.09200000
v 0.00711958 -0.04037712 -0.09200000
v 0.00305045 -0.03486681 -0.09200000
v 0.00357339 -0.04084398 -0.09200000
v -0.00000000 -0.03500000 -0.09200000
v -0.00000000 -0.04100000 -0.09200000
v -0.00305045 -0.03486681 -0.09200000
v -0.00357339 -0.04084398 -0.09200000
v -0.00607769 -0.03446827 -0.09200000
v -0.00711958 -0.04037712 -0.09200000
v -0.00905867 -0.03380740 -0.09200000
v -0.01061158 -0.03960296 -0.09200000
v -0.01197071 -0.03288924 -0.09200000
v -0.01402283 -0.03852740 -0.09200000
v -0.01479164 -0.03172077 -0.09200000
v -0.01732735 -0.03715862 -0.09200000
v -0.01750000 -0.03031089 -0.09200000
v -0.02050000 -0.03550704 -0.09200000
v -0.02007518 -0.02867032 -0.09200000
v -0.02351663 -0.03358524 -0.09200000
v -0.02249757 -0.02681156 -0.09200000
v -0.02635429 -0.03140782 -0.09200000
v -0.02474874 -0.02474874 -0.09200000
v -0.02899138 -0.02899138 -0.09200000
v -0.02681156 -0.02249757 -0.09200000
v -0.03140782 -0.02635429 -0.09200000
v -0.02867032 -0.02007518 -0.09200000
v -0.03358524 -0.02351663 -0.09200000
v -0.03031089 -0.01750000 -0.09200000
v -0.03550704 -0.02050000 -0.09200000
v -0.03172077 -0.01479164 -0.09200000
v -0.03715862 -0.01732735 -0.09200000
v -0.03288924 -0.01197071 -0.09200000
v -0.03852740 -0.01402283 -0.09200000
v -0.03380740 -0.00905867 -0.09200000
v -0.03960296 -0.01061158 -0.09200000
v -0.03446827 -0.00607769 -0.09200000
v -0.04037712 -0.00711958 -0.09200000
v -0.03486681 -0.00305045 -0.09200000
v -0.04084398 -0.00357339 -0.09200000
v -0.03500000 0.00000000 -0.09200000
v -0.04100000 0.00000000 -0.09200000
v -0.03486681 0.00305045 -0.09200000
v -0.04084398 0.00357339 -0.09200000
v -0.03446827 0.00607769 -0.09200000
v -0.04037712 0.00711958 -0.09200000
v -0.03380740 0.00905867 -0.09200000
v -0.03960296 0.01061158 -0.09200000
v -0.03288924 0.01197071 -0.09200000
v -0.03852740 0.01402283 -0.09200000
v -0.03172077 0.01479164 -0.09200000
v -0.03715862 0.01732735 -0.09200000
v -0.03031089 0.01750000 -0.09200000
v -0.03550704 0.02050000 -0.09200000
v -0.02867032 0.02007518 -0.09200000
v -0.03358524 0.02351663 -0.09200000
v -0.02681156 0.02249757 -0.09200000
v -0.03140782 0.02635429 -0.09200000
v -0.02474874 0.02474874 -0.09200000
v -0.02899138 0.02899138 -0.09200000
v -0.02249757 0.02681156 -0.09200000
v -0.02635429 0.03140782 -0.09200000
v -0.02007518 0.02867032 -0.09200000
v -0.02351663 0.03358524 -0.09200000
v -0.01750000 0.03031089 -0.09200000
v -0.02050000 0.03550704 -0.09200000
v -0.01479164 0.03172077 -0.09200000
v -0.01732735 0.03715862 -0.09200000
v -0.01197071 0.03288924 -0.09200000
v -0.01402283 0.03852740 -0.09200000
v -0.00905867 0.03380740 -0.09200000
v -0.01061158 0.03960296 -0.09200000
v -0.00607769 0.03446827 -0.09200000
v -0.00711958 0.04037712 -0.09200000
v -0.00305045 0.03486681 -0.09200000
v -0.00357339 0.04084398 -0.09200000
v 0.00000000 0.03500000 -0.09200000
v 0.00000000 0.04100000 -0.09200000
v 0.00305045 0.03486681 -0.09200000
v 0.00357339 0.04084398 -0.09200000
v 0.00607769 0.03446827 -0.09200000
v 0.00711958 0.04037712 -0.09200000
v 0.00905867 0.03380740 -0.09200000
v 0.01061158 0.03960296 -0.09200000
v 0.01197071 0.03288924 -0.09200000
v 0.01402283 0.03852740 -0.09200000
v 0.01479164 0.03172077 -0.09200000
v 0.01732735 0.03715862 -0.09200000
v 0.01750000 0.03031089 -0.09200000
v 0.02050000 0.03550704 -0.09200000
v 0.02007518 0.02867032 -0.09200000
v 0.02351663 0.03358524 -0.09200000
v 0.02249757 0.02681156 -0.09200000
v 0.02635429 0.03140782 -0.09200000
v 0.02474874 0.02474874 -0.09200000
v 0.02899138 0.02899138 -0.09200000
v 0.02681156 0.02249757 -0.09200000
v 0.03140782 0.02635429 -0.09200000
v 0.02867032 0.02007518 -0.09200000
v 0.03358524 0.02351663 -0.09200000
v 0.03031089 0.01750000 -0.09200000
v 0.03550704 0.02050000 -0.09200000
v 0.03172077 0.01479164 -0.09200000
v 0.03715862 0.01732735 -0.09200000
v 0.03288924 0.01197071 -0.09200000
v 0.03852740 0.01402283 -0.09200000
v 0.03380740 0.00905867 -0.09200000
v 0.03960296 0.01061158 -0.09200000
v 0.03446827 0.00607769 -0.09200000
v 0.04037712 0.00711958 -0.09200000
v 0.03486681 0.00305045 -0.09200000
v 0.04084398 0.00357339 -0.09200000
v 0.03500000 0.00000000 -0.09200000
v 0.04100000 -0.00000000 -0.09200000
v 0.03486681 -0.00305045 -0.09200000
v 0.04084398 -0.00357339 -0.09200000
v 0.03446827 -0.00607769 -0.09200000
v 0.04037712 -0.00711958 -0.09200000
v 0.03380740 -0.00905867 -0.09200000
v 0.03960296 -0.01061158 -0.09200000
v 0.03288924 -0.01197071 -0.09200000
v 0.03852740 -0.01402283 -0.09200000
v 0.03172077 -0.01479164 -0.09200000
v 0.03715862 -0.01732735 -0.09200000
v 0.03031089 -0.01750000 -0.09200000
v 0.03550704 -0.02050000 -0.09200000
v 0.02867032 -0.02007518 -0.09200000
v 0.03358524 -0.02351663 -0.09200000
v 0.02681156 -0.02249757 -0.09200000
v 0.03140782 -0.02635429 -0.09200000
v 0.02474874 -0.02474874 -0.09200000
v 0.02899138 -0.02899138 -0.09200000
v 0.02249757 -0.02681156 -0.09200000
v 0.02635429 -0.03140782 -0.09200000
v 0.02007518 -0.02867032 -0.09200000
v 0.02351663 -0.03358524 -0.09200000
v 0.01750000 -0.03031089 -0.09200000
v 0.02050000 -0.03550704 -0.09200000
v 0.01479164 -0.03172077 -0.09200000
v 0.01732735 -0.03715862 -0.09200000
v 0.01197071 -0.03288924 -0.09200000
v 0.01402283 -0.03852740 -0.09200000
v 0.00905867 -0.03380740 -0.09200000
v 0.01061158 -0.03960296 -0.09200000
v 0.04100000 0.00000000 -0.08900000
v 0.04084398 0.00357339 -0.08900000
v 0.04037712 0.00711958 -0.08900000
v 0.03960296 0.01061158 -0.08900000
v 0.03852740 0.01402283 -0.08900000
v 0.03715862 0.01732735 -0.08900000
v 0.03550704 0.02050000 -0.08900000
v 0.03358524 0.02351663 -0.08900000
v 0.03140782 0.02635429 -0.08900000
v 0.02899138 0.02899138 -0.08900000
v 0.02635429 0.03140782 -0.08900000
v 0.02351663 0.03358524 -0.08900000
v 0.02050000 0.03550704 -0.08900000
v 0.01732735 0.03715862 -0.08900000
v 0.01402283 0.03852740 -0.08900000
v 0.01061158 0.03960296 -0.08900000
v 0.00711958 0.04037712 -0.08900000
v 0.00357339 0.04084398 -0.08900000
v 0.00000000 0.04100000 -0.08900000
v -0.00357339 0.04084398 -0.08900000
v -0.00711958 0.04037712 -0.08900000
v -0.01061158 0.03960296 -0.08900000
v -0.01402283 0.03852740 -0.08900000
v -0.01732735 0.03715862 -0.08900000
v -0.02050000 0.03550704 -0.08900000
v -0.02351663 0.03358524 -0.08900000
v -0.02635429 0.03140782 -0.08900000
v -0.02899138 0.02899138 -0.08900000
v -0.03140782 0.02635429 -0.08900000
v -0.03358524 0.02351663 -0.08900000
v -0.03550704 0.02050000 -0.08900000
v -0.03715862 0.01732735 -0.08900000
v -0.03852740 0.01402283 -0.08900000
v -0.03960296 0.01061158 -0.08900000
v -0.04037712 0.00711958 -0.08900000
v -0.04084398 0.00357339 -0.08900000
v -0.04100000 0.00000000 -0.08900000
v -0.04084398 -0.00357339 -0.08900000
v -0.04037712 -0.00711958 -0.08900000
v -0.03960296 -0.01061158 -0.08900000
v -0.03852740 -0.01402283 -0.08900000
v -0.03715862 -0.01732735 -0.08900000
v -0.03550704 -0.02050000 -0.08900000
v -0.03358524 -0.02351663 -0.08900000
v -0.03140782 -0.02635429 -0.08900000
v -0.02899138 -0.02899138 -0.08900000
v -0.02635429 -0.03140782 -0.08900000
v -0.02351663 -0.03358524 -0.08900000
v -0.02050000 -0.03550704 -0.08900000
v -0.01732735 -0.03715862 -0.08900000
v -0.01402283 -0.03852740 -0.08900000
v -0.01061158 -0.03960296 -0.08900000
v -0.00711958 -0.04037712 -0.08900000
v -0.00357339 -0.04084398 -0.08900000
v -0.00000000 -0.04100000 -0.08900000
v 0.00357339 -0.04084398 -0.08900000
v 0.00711958 -0.04037712 -0.08900000
v 0.01061158 -0.03960296 -0.08900000
v 0.01402283 -0.03852740 -0.08900000
v 0.01732735 -0.03715862 -0.08900000
v 0.02050000 -0.03550704 -0.08900000
v 0.02351663 -0.03358524 -0.08900000
v 0.02635429 -0.03140782 -0.08900000
v 0.02899138 -0.02899138 -0.08900000
v 0.03140782 -0.02635429 -0.08900000
v 0.03358524 -0.02351663 -0.08900000
v 0.03550704 -0.02050000 -0.08900000
v 0.03715862 -0.01732735 -0.08900000
v 0.03852740 -0.01402283 -0.08900000
v 0.03960296 -0.01061158 -0.08900000
v 0.04037712 -0.00711958 -0.08900000
v 0.04084398 -0.00357339 -0.08900000
v 0.01479164 0.03172077 -0.03600000
v 0.01732735 0.03715862 -0.03600000
v 0.01197071 0.03288924 -0.03600000
v 0.01402283 0.03852740 -0.03600000
v 0.00905867 0.03380740 -0.03600000
v 0.01061158 0.03960296 -0.03600000
v 0.00607769 0.03446827 -0.03600000
v 0.00711958 0.04037712 -0.03600000
v 0.00305045 0.03486681 -0.03600000
v 0.00357339 0.04084398 -0.03600000
v -0.00000000 0.03500000 -0.03600000
v -0.00000000 0.04100000 -0.03600000
v -0.00305045 0.03486681 -0.03600000
v -0.00357339 0.04084398 -0.03600000
v -0.00607769 0.03446827 -0.03600000
v -0.00711958 0.04037712 -0.03600000
v -0.00905867 0.03380740 -0.03600000
v -0.01061158 0.03960296 -0.03600000
v -0.01197071 0.03288924 -0.03600000
v -0.01402283 0.03852740 -0.03600000
v -0.01479164 0.03172077 -0.03600000
v -0.01732735 0.03715862 -0.03600000
v -0.01750000 0.03031089 -0.03600000
v -0.02050000 0.03550704 -0.03600000
v -0.02007518 0.02867032 -0.03600000
v -0.02351663 0.03358524 -0.03600000
v -0.02249757 0.02681156 -0.03600000
v -0.02635429 0.03140782 -0.03600000
v -0.02474874 0.02474874 -0.03600000
v -0.02899138 0.02899138 -0.03600000
v -0.02681156 0.02249757 -0.03600000
v -0.03140782 0.02635429 -0.03600000
v -0.02867032 0.02007518 -0.03600000
v -0.03358524 0.02351663 -0.03600000
v -0.03031089 0.01750000 -0.03600000
v -0.03550704 0.02050000 -0.03600000
v -0.03172077 0.01479164 -0.03600000
v -0.03715862 0.01732735 -0.03600000
v -0.03288924 0.01197071 -0.03600000
v -0.03852740 0.01402283 -0.03600000
v -0.03380740 0.00905867 -0.03600000
v -0.03960296 0.01061158 -0.03600000
v -0.03446827 0.00607769 -0.03600000
v -0.04037712 0.00711958 -0.03600000
v -0.03486681 0.00305045 -0.03600000
v -0.04084398 0.00357339 -0.03600000
v -0.03500000 0.00000000 -0.03600000
v -0.04100000 0.00000000 -0.03600000
v -0.03486681 -0.00305045 -0.03600000
v -0.04084398 -0.00357339 -0.03600000
v -0.03446827 -0.00607769 -0.03600000
v -0.04037712 -0.00711958 -0.03600000
v -0.03380740 -0.00905867 -0.03600000
v -0.03960296 -0.01061158 -0.03600000
v -0.03288924 -0.01197071 -0.03600000
v -0.03852740 -0.01402283 -0.03600000
v -0.03172077 -0.01479164 -0.03600000
v -0.03715862 -0.01732735 -0.03600000
v -0.03031089 -0.01750000 -0.03600000
v -0.03550704 -0.02050000 -0.03600000
v -0.02867032 -0.02007518 -0.03600000
v -0.03358524 -0.02351663 -0.03600000
v -0.02681156 -0.02249757 -0.03600000
v -0.03140782 -0.02635429 -0.03600000
v -0.02474874 -0.02474874 -0.03600000
v -0.02899138 -0.02899138 -0.03600000
v -0.02249757 -0.02681156 -0.03600000
v -0.02635429 -0.03140782 -0.03600000
v -0.02007518 -0.02867032 -0.03600000
v -0.02351663 -0.03358524 -0.03600000
v -0.01750000 -0.03031089 -0.03600000
v -0.02050000 -0.03550704 -0.03600000
v -0.01479164 -0.03172077 -0.03600000
v -0.01732735 -0.03715862 -0.03600000
v -0.01197071 -0.03288924 -0.03600000
v -0.01402283 -0.03852740 -0.03600000
v -0.00905867 -0.03380740 -0.03600000
v -0.01061158 -0.03960296 -0.03600000
v -0.00607769 -0.03446827 -0.03600000
v -0.00711958 -0.04037712 -0.03600000
v -0.00305045 -0.03486681 -0.03600000
v -0.00357339 -0.04084398 -0.03600000
v -0.00000000 -0.03500000 -0.03600000
v -0.00000000 -0.04100000 -0.03600000
v 0.00305045 -0.03486681 -0.03600000
v 0.00357339 -0.04084398 -0.03600000
v 0.00607769 -0.03446827 -0.03600000
v 0.00711958 -0.04037712 -0.03600000
v 0.00905867 -0.03380740 -0.03600000
v 0.01061158 -0.03960296 -0.03600000
v 0.01197071 -0.03288924 -0.03600000
v 0.01402283 -0.03852740 -0.03600000
v 0.01479164 -0.03172077 -0.03600000
v 0.01732735 -0.03715862 -0.03600000
v 0.01750000 -0.03031089 -0.03600000
v 0.02050000 -0.03550704 -0.03600000
v 0.02007518 -0.02867032 -0.03600000
v 0.02351663 -0.03358524 -0.03600000
v 0.02249757 -0.02681156 -0.03600000
v 0.02635429 -0.03140782 -0.03600000
v 0.02474874 -0.02474874 -0.03600000
v 0.02899138 -0.02899138 -0.03600000
v 0.02681156 -0.02249757 -0.03600000
v 0.03140782 -0.02635429 -0.03600000
v 0.02867032 -0.02007518 -0.03600000
v 0.03358524 -0.02351663 -0.03600000
v 0.03031089 -0.01750000 -0.03600000
v 0.03550704 -0.02050000 -0.03600000
v 0.03172077 -0.01479164 -0.03600000
v 0.03715862 -0.01732735 -0.03600000
v 0.03288924 -0.01197071 -0.03600000
v 0.03852740 -0.01402283 -0.03600000
v 0.03380740 -0.00905867 -0.03600000
v 0.03960296 -0.01061158 -0.03600000
v 0.03446827 -0.00607769 -0.03600000
v 0.04037712 -0.00711958 -0.03600000
v 0.03486681 -0.00305045 -0.03600000
v 0.04084398 -0.00357339 -0.03600000
v 0.03500000 -0.00000000 -0.03600000
v 0.04100000 0.00000000 -0.03600000
v 0.03486681 0.00305045 -0.03600000
v 0.04084398 0.00357339 -0.03600000
v 0.03446827 0.00607769 -0.03600000
v 0.04037712 0.00711958 -0.03600000
v 0.03380740 0.00905867 -0.03600000
v 0.03960296 0.01061158 -0.03600000
v 0.03288924 0.01197071 -0.03600000
v 0.03852740 0.01402283 -0.03600000
v 0.03172077 0.01479164 -0.03600000
v 0.03715862 0.01732735 -0.03600000
v 0.03031089 0.01750000 -0.03600000
v 0.03550704 0.02050000 -0.03600000
v 0.02867032 0.02007518 -0.03600000
v 0.03358524 0.02351663 -0.03600000
v 0.02681156 0.02249757 -0.03600000
v 0.03140782 0.02635429 -0.03600000
v 0.02474874 0.02474874 -0.03600000
v 0.02899138 0.02899138 -0.03600000
v 0.02249757 0.02681156 -0.03600000
v 0.02635429 0.03140782 -0.03600000
v 0.02007518 0.02867032 -0.03600000
v 0.02351663 0.03358524 -0.03600000
v 0.01750000 0.03031089 -0.03600000
v 0.02050000 0.03550704 -0.03600000
v 0.04084398 0.00357339 -0.03900000
v 0.04037712 0.00711958 -0.03900000
v 0.03960296 0.01061158 -0.03900000
v 0.03852740 0.01402283 -0.03900000
v 0.03715862 0.01732735 -0.03900000
v 0.03550704 0.02050000 -0.03900000
v 0.03358524 0.02351663 -0.03900000
v 0.03140782 0.02635429 -0.03900000
v 0.02899138 0.02899138 -0.03900000
v 0.02635429 0.03140782 -0.03900000
v 0.02351663 0.03358524 -0.03900000
v 0.02050000 0.03550704 -0.03900000
v 0.01732735 0.03715862 -0.03900000
v 0.01402283 0.03852740 -0.03900000
v 0.01061158 0.03960296 -0.03900000
v 0.00711958 0.04037712 -0.03900000
v 0.00357339 0.04084398 -0.03900000
v -0.00000000 0.04100000 -0.03900000
v -0.00357339 0.04084398 -0.03900000
v -0.00711958 0.04037712 -0.03900000
v -0.01061158 0.03960296 -0.03900000
v -0.01402283 0.03852740 -0.03900000
v -0.01732735 0.03715862 -0.03900000
v -0.02050000 0.03550704 -0.03900000
v -0.02351663 0.03358524 -0.03900000
v -0.02635429 0.03140782 -0.03900000
v -0.02899138 0.02899138 -0.03900000
v -0.03140782 0.02635429 -0.03900000
v -0.03358524 0.02351663 -0.03900000
v -0.03550704 0.02050000 -0.03900000
v -0.03715862 0.01732735 -0.03900000
v -0.03852740 0.01402283 -0.03900000
v -0.03960296 0.01061158 -0.03900000
v -0.04037712 0.00711958 -0.03900000
v -0.04084398 0.00357339 -0.03900000
v -0.04100000 0.00000000 -0.03900000
v -0.04084398 -0.00357339 -0.03900000
v -0.04037712 -0.00711958 -0.03900000
v -0.03960296 -0.01061158 -0.03900000
v -0.03852740 -0.01402283 -0.03900000
v -0.03715862 -0.01732735 -0.03900000
v -0.03550704 -0.02050000 -0.03900000
v -0.03358524 -0.02351663 -0.03900000
v -0.03140782 -0.02635429 -0.03900000
v -0.02899138 -0.02899138 -0.03900000
v -0.02635429 -0.03140782 -0.03900000
v -0.02351663 -0.03358524 -0.03900000
v -0.02050000 -0.03550704 -0.03900000
v -0.01732735 -0.03715862 -0.03900000
v -0.01402283 -0.03852740 -0.03900000
v -0.01061158 -0.03960296 -0.03900000
v -0.00711958 -0.04037712 -0.03900000
v -0.00357339 -0.04084398 -0.03900000
v -0.00000000 -0.04100000 -0.03900000
v 0.00357339 -0.04084398 -0.03900000
v 0.00711958 -0.04037712 -0.03900000
v 0.01061158 -0.03960296 -0.03900000
v 0.01402283 -0.03852740 -0.03900000
v 0.01732735 -0.03715862 -0.03900000
v 0.02050000 -0.03550704 -0.03900000
v 0.02351663 -0.03358524 -0.03900000
v 0.02635429 -0.03140782 -0.03900000
v 0.02899138 -0.02899138 -0.03900000
v 0.03140782 -0.02635429 -0.03900000
v 0.03358524 -0.02351663 -0.03900000
v 0.03550704 -0.02050000 -0.03900000
v 0.03715862 -0.01732735 -0.03900000
v 0.03852740 -0.01402283 -0.03900000
v 0.03960296 -0.01061158 -0.03900000
v 0.04037712 -0.00711958 -0.03900000
v 0.04084398 -0.00357339 -0.03900000
v 0.04100000 -0.00000000 -0.03900000
v -0.02179590 -0.03112778 -0.03900000
v -0.02442593 -0.02910969 -0.03900000
v -0.02687006 -0.02687006 -0.03900000
v -0.02910969 -0.02442593 -0.03900000
v -0.03112778 -0.02179590 -0.03900000
v -0.03290896 -0.01900000 -0.03900000
v -0.03443969 -0.01605949 -0.03900000
v -0.03570832 -0.01299677 -0.03900000
v -0.03670518 -0.00983512 -0.03900000
v -0.03742269 -0.00659863 -0.03900000
v -0.03785540 -0.00331192 -0.03900000
v -0.03800000 0.00000000 -0.03900000
v -0.03785540 0.00331192 -0.03900000
v -0.03742269 0.00659863 -0.03900000
v -0.03670518 0.00983512 -0.03900000
v -0.03570832 0.01299677 -0.03900000
v -0.03443969 0.01605949 -0.03900000
v -0.03290896 0.01900000 -0.03900000
v -0.03112778 0.02179590 -0.03900000
v -0.02910969 0.02442593 -0.03900000
v -0.02687006 0.02687006 -0.03900000
v -0.02442593 0.02910969 -0.03900000
v -0.02179590 0.03112778 -0.03900000
v -0.01900000 0.03290896 -0.03900000
v -0.01605949 0.03443969 -0.03900000
v -0.01299677 0.03570832 -0.03900000
v -0.00983512 0.03670518 -0.03900000
v -0.00659863 0.03742269 -0.03900000
v -0.00331192 0.03785540 -0.03900000
v -0.00000000 0.03800000 -0.03900000
v 0.00331192 0.03785540 -0.03900000
v 0.00659863 0.03742269 -0.03900000
v 0.00983512 0.03670518 -0.03900000
v 0.01299677 0.03570832 -0.03900000
v 0.01605949 0.03443969 -0.03900000
v 0.01900000 0.03290896 -0.03900000
v 0.02179590 0.03112778 -0.03900000
v 0.02442593 0.02910969 -0.03900000
v 0.02687006 0.02687006 -0.03900000
v 0.02910969 0.02442593 -0.03900000
v 0.03112778 0.02179590 -0.03900000
v 0.03290896 0.01900000 -0.03900000
v 0.03443969 0.01605949 -0.03900000
v 0.03570832 0.01299677 -0.03900000
v 0.03670518 0.00983512 -0.03900000
v 0.03742269 0.00659863 -0.03900000
v 0.03785540 0.00331192 -0.03900000
v 0.03800000 0.00000000 -0.03900000
v 0.03785540 -0.00331192 -0.03900000
v 0.03742269 -0.00659863 -0.03900000
v 0.03670518 -0.00983512 -0.03900000
v 0.03570832 -0.01299677 -0.03900000
v 0.03443969 -0.01605949 -0.03900000
v 0.03290896 -0.01900000 -0.03900000
v 0.03112778 -0.02179590 -0.03900000
v 0.02910969 -0.02442593 -0.03900000
v 0.02687006 -0.02687006 -0.03900000
v 0.02442593 -0.02910969 -0.03900000
v 0.02179590 -0.03112778 -0.03900000
v 0.01900000 -0.03290896 -0.03900000
v 0.01605949 -0.03443969 -0.03900000
v 0.01299677 -0.03570832 -0.03900000
v 0.00983512 -0.03670518 -0.03900000
v 0.00659863 -0.03742269 -0.03900000
v 0.00331192 -0.03785540 -0.03900000
v -0.00000000 -0.03800000 -0.03900000
v -0.00331192 -0.03785540 -0.03900000
v -0.00659863 -0.03742269 -0.03900000
v -0.00983512 -0.03670518 -0.03900000
v -0.01299677 -0.03570832 -0.03900000
v -0.01605949 -0.03443969 -0.03900000
v -0.01900000 -0.03290896 -0.03900000
v 0.03785540 0.00331192 -0.08900000
v 0.03742269 0.00659863 -0.08900000
v 0.03670518 0.00983512 -0.08900000
v 0.03570832 0.01299677 -0.08900000
v 0.03443969 0.01605949 -0.08900000
v 0.03290896 0.01900000 -0.08900000
v 0.03112778 0.02179590 -0.08900000
v 0.02910969 0.02442593 -0.08900000
v 0.02687006 0.02687006 -0.08900000
v 0.02442593 0.02910969 -0.08900000
v 0.02179590 0.03112778 -0.08900000
v 0.01900000 0.03290896 -0.08900000
v 0.01605949 0.03443969 -0.08900000
v 0.01299677 0.03570832 -0.08900000
v 0.00983512 0.03670518 -0.08900000
v 0.00659863 0.03742269 -0.08900000
v 0.00331192 0.03785540 -0.08900000
v 0.00000000 0.03800000 -0.08900000
v -0.00331192 0.03785540 -0.08900000
v -0.00659863 0.03742269 -0.08900000
v -0.00983512 0.03670518 -0.08900000
v -0.01299677 0.03570832 -0.08900000
v -0.01605949 0.03443969 -0.08900000
v -0.01900000 0.03290896 -0.08900000
v -0.02179590 0.03112778 -0.08900000
v -0.02442593 0.02910969 -0.08900000
v -0.02687006 0.02687006 -0.08900000
v -0.02910969 0.02442593 -0.08900000
v -0.03112778 0.02179590 -0.08900000
v -0.03290896 0.01900000 -0.08900000
v -0.03443969 0.01605949 -0.08900000
v -0.03570832 0.01299677 -0.08900000
v -0.03670518 0.00983512 -0.08900000
v -0.03742269 0.00659863 -0.08900000
v -0.03785540 0.00331192 -0.08900000
v -0.03800000 0.00000000 -0.08900000
v -0.03785540 -0.00331192 -0.08900000
v -0.03742269 -0.00659863 -0.08900000
v -0.03670518 -0.00983512 -0.08900000
v -0.03570832 -0.01299677 -0.08900000
v -0.03443969 -0.01605949 -0.08900000
v -0.03290896 -0.01900000 -0.08900000
v -0.03112778 -0.02179590 -0.08900000
v -0.02910969 -0.02442593 -0.08900000
v -0.02687006 -0.02687006 -0.08900000
v -0.02442593 -0.02910969 -0.08900000
v -0.02179590 -0.03112778 -0.08900000
v -0.01900000 -0.03290896 -0.08900000
v -0.01605949 -0.03443969 -0.08900000
v -0.01299677 -0.03570832 -0.08900000
v -0.00983512 -0.03670518 -0.08900000
v -0.00659863 -0.03742269 -0.08900000
v -0.00331192 -0.03785540 -0.08900000
v -0.00000000 -0.03800000 -0.08900000
v 0.00331192 -0.03785540 -0.08900000
v 0.00659863 -0.03742269 -0.08900000
v 0.00983512 -0.03670518 -0.08900000
v 0.01299677 -0.03570832 -0.08900000
v 0.01605949 -0.03443969 -0.08900000
v 0.01900000 -0.03290896 -0.08900000
v 0.02179590 -0.03112778 -0.08900000
v 0.02442593 -0.02910969 -0.08900000
v 0.02687006 -0.02687006 -0.08900000
v 0.02910969 -0.02442593 -0.08900000
v 0.03112778 -0.02179590 -0.08900000
v 0.03290896 -0.01900000 -0.08900000
v 0.03443969 -0.01605949 -0.08900000
v 0.03570832 -0.01299677 -0.08900000
v 0.03670518 -0.00983512 -0.08900000
v 0.03742269 -0.00659863 -0.08900000
v 0.03785540 -0.00331192 -0.08900000
v 0.03800000 -0.00000000 -0.08900000
f 1 2 3
f 2 4 3
f 3 4 5
f 4 6 5
f 5 6 7
f 6 8 7
f 7 8 9
f 8 10 9
f 9 10 11
f 10 12 11
f 11 12 13
f 12 14 13
f 13 14 15
f 14 16 15
f 15 16 17
f 16 18 17
f 17 18 19
f 18 20 19
f 19 20 21
f 20 22 21
f 21 22 23
f 22 24 23
f 23 24 25
f 24 26 25
f 25 26 27
f 26 28 27
f 27 28 29
f 28 30 29
f 29 30 31
f 30 32 31
f 31 32 33
f 32 34 33
f 33 34 35
f 34 36 35
f 35 36 37
f 36 38 37
f 37 38 39
f 38 40 39
f 39 40 41
f 40 42 41
f 41 42 43
f 42 44 43
f 43 44 45
f 44 46 45
f 45 46 47
f 46 48 47
f 47 48 49
f 48 50 49
f 49 50 51
f 50 52 51
f 51 52 53
f 52 54 53
f 53 54 55
f 54 56 55
f 55 56 57
f 56 58 57
f 57 58 59
f 58 60 59
f 59 60 61
f 60 62 61
f 61 62 63
f 62 64 63
f 63 64 65
f 64 66 65
f 65 66 67
f 66 68 67
f 67 68 69
f 68 70 69
f 69 70 71
f 70 72 71
f 71 72 73
f 72 74 73
f 73 74 75
f 74 76 75
f 75 76 77
f 76 78 77
f 77 78 79
f 78 80 79
f 79 80 81
f 80 82 81
f 81 82 83
f 82 84 83
f 83 84 85
f 84 86 85
f 85 86 87
f 86 88 87
f 87 88 89
f 88 90 89
f 89 90 91
f 90 92 91
f 91 92 93
f 92 94 93
f 93 94 95
f 94 96 95
f 95 96 97
f 96 98 97
f 97 98 99
f 98 100 99
f 99 100 101
f 100 102 101
f 101 102 103
f 102 104 103
f 103 104 105
f 104 106 105
f 105 106 107
f 106 108 107
f 107 108 109
f 108 110 109
f 109 110 111
f 110 112 111
f 111 112 113
f 112 114 113
f 113 114 115
f 114 116 115
f 115 116 117
f 116 118 117
f 117 118 119
f 118 120 119
f 119 120 121
f 120 122 121
f 121 122 123
f 122 124 123
f 123 124 125
f 124 126 125
f 125 126 127
f 126 128 127
f 127 128 129
f 128 130 129
f 129 130 131
f 130 132 131
f 131 132 133
f 132 134 133
f 133 134 135
f 134 136 135
f 135 136 137
f 136 138 137
f 137 138 139
f 138 140 139
f 139 140 141
f 140 142 141
f 141 142 143
f 142 144 143
f 143 144 1
f 144 2 1
f 145 112 146
f 112 110 146
f 146 110 147
f 110 108 147
f 147 108 148
f 108 106 148
f 148 106 149
f 106 104 149
f 149 104 150
f 104 102 150
f 150 102 151
f 102 100 151
f 151 100 152
f 100 98 152
f 152 98 153
f 98 96 153
f 153 96 154
f 96 94 154
f 154 94 155
f 94 92 155
f 155 92 156
f 92 90 156
f 156 90 157
f 90 88 157
f 157 88 158
f 88 86 158
f 158 86 159
f 86 84 159
f 159 84 160
f 84 82 160
f 160 82 161
f 82 80 161
f 161 80 162
f 80 78 162
f 162 78 163
f 78 76 163
f 163 76 164
f 76 74 164
f 164 74 165
f 74 72 165
f 165 72 166
f 72 70 166
f 166 70 167
f 70 68 167
f 167 68 168
f 68 66 168
f 168 66 169
f 66 64 169
f 169 64 170
f 64 62 170
f 170 62 171
f 62 60 171
f 171 60 172
f 60 58 172
f 172 58 173
f 58 56 173
f 173 56 174
f 56 54 174
f 174 54 175
f 54 52 175
f 175 52 176
f 52 50 176
f 176 50 177
f 50 48 177
f 177 48 178
f 48 46 178
f 178 46 179
f 46 44 179
f 179 44 180
f 44 42 180
f 180 42 181
f 42 40 181
f 181 40 182
f 40 38 182
f 182 38 183
f 38 36 183
f 183 36 184
f 36 34 184
f 184 34 185
f 34 32 185
f 185 32 186
f 32 30 186
f 186 30 187
f 30 28 187
f 187 28 188
f 28 26 188
f 188 26 189
f 26 24 189
f 189 24 190
f 24 22 190
f 190 22 191
f 22 20 191
f 191 20 192
f 20 18 192
f 192 18 193
f 18 16 193
f 193 16 194
f 16 14 194
f 194 14 195
f 14 12 195
f 195 12 196
f 12 10 196
f 196 10 197
f 10 8 197
f 197 8 198
f 8 6 198
f 198 6 199
f 6 4 199
f 199 4 200
f 4 2 200
f 200 2 201
f 2 144 201
f 201 144 202
f 144 142 202
f 202 142 203
f 142 140 203
f 203 140 204
f 140 138 204
f 204 138 205
f 138 136 205
f 205 136 206
f 136 134 206
f 206 134 207
f 134 132 207
f 207 132 208
f 132 130 208
f 208 130 209
f 130 128 209
f 209 128 210
f 128 126 210
f 210 126 211
f 126 124 211
f 211 124 212
f 124 122 212
f 212 122 213
f 122 120 213
f 213 120 214
f 120 118 214
f 214 118 215
f 118 116 215
f 215 116 216
f 116 114 216
f 216 114 145
f 114 112 145
f 217 218 219
f 218 220 219
f 219 220 221
f 220 222 221
f 221 222 223
f 222 224 223
f 223 224 225
f 224 226 225
f 225 226 227
f 226 228 227
f 227 228 229
f 228 230 229
f 229 230 231
f 230 232 231
f 231 232 233
f 232 234 233
f 233 234 235
f 234 236 235
f 235 236 237
f 236 238 237
f 237 238 239
f 238 240 239
f 239 240 241
f 240 242 241
f 241 242 243
f 242 244 243
f 243 244 245
f 244 246 245
f 245 246 247
f 246 248 247
f 247 248 249
f 248 250 249
f 249 250 251
f 250 252 251
f 251 252 253
f 252 254 253
f 253 254 255
f 254 256 255
f 255 256 257
f 256 258 257
f 257 258 259
f 258 260 259
f 259 260 261
f 260 262 261
f 261 262 263
f 262 264 263
f 263 264 265
f 264 266 265
f 265 266 267
f 266 268 267
f 267 268 269
f 268 270 269
f 269 270 271
f 270 272 271
f 271 272 273
f 272 274 273
f 273 274 275
f 274 276 275
f 275 276 277
f 276 278 277
f 277 278 279
f 278 280 279
f 279 280 281
f 280 282 281
f 281 282 283
f 282 284 283
f 283 284 285
f 284 286 285
f 285 286 287
f 286 288 287
f 287 288 289
f 288 290 289
f 289 290 291
f 290 292 291
f 291 292 293
f 292 294 293
f 293 294 295
f 294 296 295
f 295 296 297
f 296 298 297
f 297 298 299
f 298 300 299
f 299 300 301
f 300 302 301
f 301 302 303
f 302 304 303
f 303 304 305
f 304 306 305
f 305 306 307
f 306 308 307
f 307 308 309
f 308 310 309
f 309 310 311
f 310 312 311
f 311 312 313
f 312 314 313
f 313 314 315
f 314 316 315
f 315 316 317
f 316 318 317
f 317 318 319
f 318 320 319
f 319 320 321
f 320 322 321
f 321 322 323
f 322 324 323
f 323 324 325
f 324 326 325
f 325 326 327
f 326 328 327
f 327 328 329
f 328 330 329
f 329 330 331
f 330 332 331
f 331 332 333
f 332 334 333
f 333 334 335
f 334 336 335
f 335 336 337
f 336 338 337
f 337 338 339
f 338 340 339
f 339 340 341
f 340 342 341
f 341 342 343
f 342 344 343
f 343 344 345
f 344 346 345
f 345 346 347
f 346 348 347
f 347 348 349
f 348 350 349
f 349 350 351
f 350 352 351
f 351 352 353
f 352 354 353
f 353 354 355
f 354 356 355
f 355 356 357
f 356 358 357
f 357 358 359
f 358 360 359
f 359 360 217
f 360 218 217
f 113 335 111
f 335 337 111
f 111 337 109
f 337 339 109
f 109 339 107
f 339 341 107
f 107 341 105
f 341 343 105
f 105 343 103
f 343 345 103
f 103 345 101
f 345 347 101
f 101 347 99
f 347 349 99
f 99 349 97
f 349 351 97
f 97 351 95
f 351 353 95
f 95 353 93
f 353 355 93
f 93 355 91
f 355 357 91
f 91 357 89
f 357 359 89
f 89 359 87
f 359 217 87
f 87 217 85
f 217 219 85
f 85 219 83
f 219 221 83
f 83 221 81
f 221 223 81
f 81 223 79
f 223 225 79
f 79 225 77
f 225 227 77
f 77 227 75
f 227 229 75
f 75 229 73
f 229 231 73
f 73 231 71
f 231 233 71
f 71 233 69
f 233 235 69
f 69 235 67
f 235 237 67
f 67 237 65
f 237 239 65
f 65 239 63
f 239 241 63
f 63 241 61
f 241 243 61
f 61 243 59
f 243 245 59
f 59 245 57
f 245 247 57
f 57 247 55
f 247 249 55
f 55 249 53
f 249 251 53
f 53 251 51
f 251 253 51
f 51 253 49
f 253 255 49
f 49 255 47
f 255 257 47
f 47 257 45
f 257 259 45
f 45 259 43
f 259 261 43
f 43 261 41
f 261 263 41
f 41 263 39
f 263 265 39
f 39 265 37
f 265 267 37
f 37 267 35
f 267 269 35
f 35 269 33
f 269 271 33
f 33 271 31
f 271 273 31
f 31 273 29
f 273 275 29
f 29 275 27
f 275 277 27
f 27 277 25
f 277 279 25
f 25 279 23
f 279 281 23
f 23 281 21
f 281 283 21
f 21 283 19
f 283 285 19
f 19 285 17
f 285 287 17
f 17 287 15
f 287 289 15
f 15 289 13
f 289 291 13
f 13 291 11
f 291 293 11
f 11 293 9
f 293 295 9
f 9 295 7
f 295 297 7
f 7 297 5
f 297 299 5
f 5 299 3
f 299 301 3
f 3 301 1
f 301 303 1
f 1 303 143
f 303 305 143
f 143 305 141
f 305 307 141
f 141 307 139
f 307 309 139
f 139 309 137
f 309 311 137
f 137 311 135
f 311 313 135
f 135 313 133
f 313 315 133
f 133 315 131
f 315 317 131
f 131 317 129
f 317 319 129
f 129 319 127
f 319 321 127
f 127 321 125
f 321 323 125
f 125 323 123
f 323 325 123
f 123 325 121
f 325 327 121
f 121 327 119
f 327 329 119
f 119 329 117
f 329 331 117
f 117 331 115
f 331 333 115
f 115 333 113
f 333 335 113
f 336 361 338
f 361 362 338
f 338 362 340
f 362 363 340
f 340 363 342
f 363 364 342
f 342 364 344
f 364 365 344
f 344 365 346
f 365 366 346
f 346 366 348
f 366 367 348
f 348 367 350
f 367 368 350
f 350 368 352
f 368 369 352
f 352 369 354
f 369 370 354
f 354 370 356
f 370 371 356
f 356 371 358
f 371 372 358
f 358 372 360
f 372 373 360
f 360 373 218
f 373 374 218
f 218 374 220
f 374 375 220
f 220 375 222
f 375 376 222
f 222 376 224
f 376 377 224
f 224 377 226
f 377 378 226
f 226 378 228
f 378 379 228
f 228 379 230
f 379 380 230
f 230 380 232
f 380 381 232
f 232 381 234
f 381 382 234
f 234 382 236
f 382 383 236
f 236 383 238
f 383 384 238
f 238 384 240
f 384 385 240
f 240 385 242
f 385 386 242
f 242 386 244
f 386 387 244
f 244 387 246
f 387 388 246
f 246 388 248
f 388 389 248
f 248 389 250
f 389 390 250
f 250 390 252
f 390 391 252
f 252 391 254
f 391 392 254
f 254 392 256
f 392 393 256
f 256 393 258
f 393 394 258
f 258 394 260
f 394 395 260
f 260 395 262
f 395 396 262
f 262 396 264
f 396 397 264
f 264 397 266
f 397 398 266
f 266 398 268
f 398 399 268
f 268 399 270
f 399 400 270
f 270 400 272
f 400 401 272
f 272 401 274
f 401 402 274
f 274 402 276
f 402 403 276
f 276 403 278
f 403 404 278
f 278 404 280
f 404 405 280
f 280 405 282
f 405 406 282
f 282 406 284
f 406 407 284
f 284 407 286
f 407 408 286
f 286 408 288
f 408 409 288
f 288 409 290
f 409 410 290
f 290 410 292
f 410 411 292
f 292 411 294
f 411 412 294
f 294 412 296
f 412 413 296
f 296 413 298
f 413 414 298
f 298 414 300
f 414 415 300
f 300 415 302
f 415 416 302
f 302 416 304
f 416 417 304
f 304 417 306
f 417 418 306
f 306 418 308
f 418 419 308
f 308 419 310
f 419 420 310
f 310 420 312
f 420 421 312
f 312 421 314
f 421 422 314
f 314 422 316
f 422 423 316
f 316 423 318
f 423 424 318
f 318 424 320
f 424 425 320
f 320 425 322
f 425 426 322
f 322 426 324
f 426 427 324
f 324 427 326
f 427 428 326
f 326 428 328
f 428 429 328
f 328 429 330
f 429 430 330
f 330 430 332
f 430 431 332
f 332 431 334
f 431 432 334
f 334 432 336
f 432 361 336
f 433 407 434
f 407 406 434
f 434 406 435
f 406 405 435
f 435 405 436
f 405 404 436
f 436 404 437
f 404 403 437
f 437 403 438
f 403 402 438
f 438 402 439
f 402 401 439
f 439 401 440
f 401 400 440
f 440 400 441
f 400 399 441
f 441 399 442
f 399 398 442
f 442 398 443
f 398 397 443
f 443 397 444
f 397 396 444
f 444 396 445
f 396 395 445
f 445 395 446
f 395 394 446
f 446 394 447
f 394 393 447
f 447 393 448
f 393 392 448
f 448 392 449
f 392 391 449
f 449 391 450
f 391 390 450
f 450 390 451
f 390 389 451
f 451 389 452
f 389 388 452
f 452 388 453
f 388 387 453
f 453 387 454
f 387 386 454
f 454 386 455
f 386 385 455
f 455 385 456
f 385 384 456
f 456 384 457
f 384 383 457
f 457 383 458
f 383 382 458
f 458 382 459
f 382 381 459
f 459 381 460
f 381 380 460
f 460 380 461
f 380 379 461
f 461 379 462
f 379 378 462
f 462 378 463
f 378 377 463
f 463 377 464
f 377 376 464
f 464 376 465
f 376 375 465
f 465 375 466
f 375 374 466
f 466 374 467
f 374 373 467
f 467 373 468
f 373 372 468
f 468 372 469
f 372 371 469
f 469 371 470
f 371 370 470
f 470 370 471
f 370 369 471
f 471 369 472
f 369 368 472
f 472 368 473
f 368 367 473
f 473 367 474
f 367 366 474
f 474 366 475
f 366 365 475
f 475 365 476
f 365 364 476
f 476 364 477
f 364 363 477
f 477 363 478
f 363 362 478
f 478 362 479
f 362 361 479
f 479 361 480
f 361 432 480
f 480 432 481
f 432 431 481
f 481 431 482
f 431 430 482
f 482 430 483
f 430 429 483
f 483 429 484
f 429 428 484
f 484 428 485
f 428 427 485
f 485 427 486
f 427 426 486
f 486 426 487
f 426 425 487
f 487 425 488
f 425 424 488
f 488 424 489
f 424 423 489
f 489 423 490
f 423 422 490
f 490 422 491
f 422 421 491
f 491 421 492
f 421 420 492
f 492 420 493
f 420 419 493
f 493 419 494
f 419 418 494
f 494 418 495
f 418 417 495
f 495 417 496
f 417 416 496
f 496 416 497
f 416 415 497
f 497 415 498
f 415 414 498
f 498 414 499
f 414 413 499
f 499 413 500
f 413 412 500
f 500 412 501
f 412 411 501
f 501 411 502
f 411 410 502
f 502 410 503
f 410 409 503
f 503 409 504
f 409 408 504
f 504 408 433
f 408 407 433
f 480 505 479
f 505 506 479
f 479 506 478
f 506 507 478
f 478 507 477
f 507 508 477
f 477 508 476
f 508 509 476
f 476 509 475
f 509 510 475
f 475 510 474
f 510 511 474
f 474 511 473
f 511 512 473
f 473 512 472
f 512 513 472
f 472 513 471
f 513 514 471
f 471 514 470
f 514 515 470
f 470 515 469
f 515 516 469
f 469 516 468
f 516 517 468
f 468 517 467
f 517 518 467
f 467 518 466
f 518 519 466
f 466 519 465
f 519 520 465
f 465 520 464
f 520 521 464
f 464 521 463
f 521 522 463
f 463 522 462
f 522 523 462
f 462 523 461
f 523 524 461
f 461 524 460
f 524 525 460
f 460 525 459
f 525 526 459
f 459 526 458
f 526 527 458
f 458 527 457
f 527 528 457
f 457 528 456
f 528 529 456
f 456 529 455
f 529 530 455
f 455 530 454
f 530 531 454
f 454 531 453
f 531 532 453
f 453 532 452
f 532 533 452
f 452 533 451
f 533 534 451
f 451 534 450
f 534 535 450
f 450 535 449
f 535 536 449
f 449 536 448
f 536 537 448
f 448 537 447
f 537 538 447
f 447 538 446
f 538 539 446
f 446 539 445
f 539 540 445
f 445 540 444
f 540 541 444
f 444 541 443
f 541 542 443
f 443 542 442
f 542 543 442
f 442 543 441
f 543 544 441
f 441 544 440
f 544 545 440
f 440 545 439
f 545 546 439
f 439 546 438
f 546 547 438
f 438 547 437
f 547 548 437
f 437 548 436
f 548 549 436
f 436 549 435
f 549 550 435
f 435 550 434
f 550 551 434
f 434 551 433
f 551 552 433
f 433 552 504
f 552 553 504
f 504 553 503
f 553 554 503
f 503 554 502
f 554 555 502
f 502 555 501
f 555 556 501
f 501 556 500
f 556 557 500
f 500 557 499
f 557 558 499
f 499 558 498
f 558 559 498
f 498 559 497
f 559 560 497
f 497 560 496
f 560 561 496
f 496 561 495
f 561 562 495
f 495 562 494
f 562 563 494
f 494 563 493
f 563 564 493
f 493 564 492
f 564 565 492
f 492 565 491
f 565 566 491
f 491 566 490
f 566 567 490
f 490 567 489
f 567 568 489
f 489 568 488
f 568 569 488
f 488 569 487
f 569 570 487
f 487 570 486
f 570 571 486
f 486 571 485
f 571 572 485
f 485 572 484
f 572 573 484
f 484 573 483
f 573 574 483
f 483 574 482
f 574 575 482
f 482 575 481
f 575 576 481
f 481 576 480
f 576 505 480
f 547 188 548
f 188 189 548
f 548 189 549
f 189 190 549
f 549 190 550
f 190 191 550
f 550 191 551
f 191 192 551
f 551 192 552
f 192 193 552
f 552 193 553
f 193 194 553
f 553 194 554
f 194 195 554
f 554 195 555
f 195 196 555
f 555 196 556
f 196 197 556
f 556 197 557
f 197 198 557
f 557 198 558
f 198 199 558
f 558 199 559
f 199 200 559
f 559 200 560
f 200 201 560
f 560 201 561
f 201 202 561
f 561 202 562
f 202 203 562
f 562 203 563
f 203 204 563
f 563 204 564
f 204 205 564
f 564 205 565
f 205 206 565
f 565 206 566
f 206 207 566
f 566 207 567
f 207 208 567
f 567 208 568
f 208 209 568
f 568 209 569
f 209 210 569
f 569 210 570
f 210 211 570
f 570 211 571
f 211 212 571
f 571 212 572
f 212 213 572
f 572 213 573
f 213 214 573
f 573 214 574
f 214 215 574
f 574 215 575
f 215 216 575
f 575 216 576
f 216 145 576
f 576 145 505
f 145 146 505
f 505 146 506
f 146 147 506
f 506 147 507
f 147 148 507
f 507 148 508
f 148 149 508
f 508 149 509
f 149 150 509
f 509 150 510
f 150 151 510
f 510 151 511
f 151 152 511
f 511 152 512
f 152 153 512
f 512 153 513
f 153 154 513
f 513 154 514
f 154 155 514
f 514 155 515
f 155 156 515
f 515 156 516
f 156 157 516
f 516 157 517
f 157 158 517
f 517 158 518
f 158 159 518
f 518 159 519
f 159 160 519
f 519 160 520
f 160 161 520
f 520 161 521
f 161 162 521
f 521 162 522
f 162 163 522
f 522 163 523
f 163 164 523
f 523 164 524
f 164 165 524
f 524 165 525
f 165 166 525
f 525 166 526
f 166 167 526
f 526 167 527
f 167 168 527
f 527 168 528
f 168 169 528
f 528 169 529
f 169 170 529
f 529 170 530
f 170 171 530
f 530 171 531
f 171 172 531
f 531 172 532
f 172 173 532
f 532 173 533
f 173 174 533
f 533 174 534
f 174 175 534
f 534 175 535
f 175 176 535
f 535 176 536
f 176 177 536
f 536 177 537
f 177 178 537
f 537 178 538
f 178 179 538
f 538 179 539
f 179 180 539
f 539 180 540
f 180 181 540
f 540 181 541
f 181 182 541
f 541 182 542
f 182 183 542
f 542 183 543
f 183 184 543
f 543 184 544
f 184 185 544
f 544 185 545
f 185 186 545
f 545 186 546
f 186 187 546
f 546 187 547
f 187 188 547

