# https://github.com/mikedh/trimesh
v -0.00494897 0.11606702 0.00000000
v -0.00737634 0.11552889 0.00000000
v -0.04150000 0.13000000 0.00000000
v -0.02468172 0.10225000 0.00000000
v -0.02582977 0.10004462 0.00000000
v -0.02678124 0.09774757 0.00000000
v -0.01634693 -0.06465416 0.00000000
v -0.02806702 -0.00494897 0.00000000
v -0.02752889 -0.00737634 0.00000000
v -0.02752889 0.09537634 0.00000000
v -0.02806702 0.09294897 0.00000000
v -0.02839155 0.09048394 0.00000000
v -0.00974757 0.11478124 0.00000000
v -0.01204462 0.11382977 0.00000000
v -0.01425000 0.11268172 0.00000000
v -0.01634693 0.11134584 0.00000000
v -0.01831945 0.10983226 0.00000000
v -0.02015254 0.10815255 0.00000000
v -0.02183227 0.10631945 0.00000000
v -0.02334583 0.10434693 0.00000000
v -0.02334583 -0.07165307 0.00000000
v -0.02468172 -0.07375000 0.00000000
v -0.02839155 -0.00248394 0.00000000
v -0.02582977 -0.07595538 0.00000000
v -0.02850000 0.00000000 0.00000000
v -0.02678124 -0.07825243 0.00000000
v -0.02752889 -0.08062366 0.00000000
v 0.04150000 0.13000000 0.00000000
v -0.00000000 0.11650000 0.00000000
v -0.00248394 0.11639155 0.00000000
v -0.01831945 -0.02183227 0.00000000
v -0.01634693 -0.02334583 0.00000000
v -0.00737634 -0.06047111 0.00000000
v -0.01425000 -0.02468172 0.00000000
v -0.01831945 -0.06616773 0.00000000
v -0.02015254 -0.06784745 0.00000000
v -0.02183227 -0.06968056 0.00000000
v -0.02806702 -0.08305103 0.00000000
v -0.02839155 -0.08551606 0.00000000
v -0.04150000 -0.13000000 0.00000000
v -0.02850000 -0.08800000 0.00000000
v -0.02839155 -0.09048394 0.00000000
v -0.02334583 -0.10434693 0.00000000
v -0.02183227 -0.10631945 0.00000000
v -0.00494897 -0.11606702 0.00000000
v -0.00737634 -0.11552889 0.00000000
v -0.00974757 -0.11478124 0.00000000
v 0.00737634 0.11552889 0.00000000
v 0.00494897 0.11606702 0.00000000
v 0.00248394 0.11639155 0.00000000
v -0.00974757 -0.02678124 0.00000000
v -0.00737634 -0.02752889 0.00000000
v -0.00248394 -0.05960845 0.00000000
v -0.00974757 -0.06121876 0.00000000
v -0.02678124 -0.00974757 0.00000000
v -0.01204462 -0.06217023 0.00000000
v -0.01425000 -0.06331827 0.00000000
v -0.02582977 -0.01204462 0.00000000
v -0.02468172 -0.01425000 0.00000000
v -0.02334583 -0.01634693 0.00000000
v -0.02806702 -0.09294897 0.00000000
v -0.02752889 -0.09537634 0.00000000
v -0.02678124 -0.09774757 0.00000000
v -0.02015254 -0.10815255 0.00000000
v -0.01831945 -0.10983226 0.00000000
v -0.01634693 -0.11134584 0.00000000
v -0.02839155 0.00248394 0.00000000
v 0.02334583 0.10434693 0.00000000
v 0.02183227 0.10631945 0.00000000
v 0.02015254 0.10815255 0.00000000
v -0.01204462 -0.02582977 0.00000000
v -0.00494897 -0.05993298 0.00000000
v -0.02183227 -0.01831945 0.00000000
v -0.02015254 -0.02015254 0.00000000
v -0.02582977 -0.10004462 0.00000000
v -0.02468172 -0.10225000 0.00000000
v -0.01425000 -0.11268172 0.00000000
v -0.01204462 -0.11382977 0.00000000
v -0.02850000 0.08800000 0.00000000
v -0.02839155 0.08551606 0.00000000
v -0.02806702 0.08305103 0.00000000
v -0.02752889 0.08062366 0.00000000
v -0.02678124 0.07825243 0.00000000
v -0.02582977 0.07595538 0.00000000
v -0.02468172 0.07375000 0.00000000
v 0.01831945 0.10983226 0.00000000
v 0.01634693 0.11134584 0.00000000
v 0.01425000 0.11268172 0.00000000
v 0.01204462 0.11382977 0.00000000
v 0.00974757 0.11478124 0.00000000
v 0.00494897 -0.11606702 0.00000000
v 0.00737634 -0.11552889 0.00000000
v 0.04150000 -0.13000000 0.00000000
v 0.00974757 -0.11478124 0.00000000
v 0.01634693 -0.11134584 0.00000000
v 0.01831945 -0.10983226 0.00000000
v 0.02015254 -0.10815255 0.00000000
v 0.00248394 0.05960845 0.00000000
v 0.00494897 0.05993298 0.00000000
v 0.02334583 0.01634693 0.00000000
v 0.02752889 0.08062366 0.00000000
v 0.02806702 0.08305103 0.00000000
v 0.02839155 0.08551606 0.00000000
v 0.02850000 0.08800000 0.00000000
v 0.02839155 0.09048394 0.00000000
v 0.02806702 0.09294897 0.00000000
v 0.02752889 0.09537634 0.00000000
v 0.02678124 0.09774757 0.00000000
v 0.02582977 0.10004462 0.00000000
v 0.02468172 0.10225000 0.00000000
v -0.00248394 -0.11639155 0.00000000
v 0.00000000 -0.11650000 0.00000000
v 0.00248394 -0.11639155 0.00000000
v 0.01204462 -0.11382977 0.00000000
v 0.01425000 -0.11268172 0.00000000
v 0.02183227 -0.10631945 0.00000000
v 0.02334583 -0.10434693 0.00000000
v 0.02468172 -0.10225000 0.00000000
v 0.02678124 -0.00974757 0.00000000
v 0.02752889 -0.00737634 0.00000000
v 0.01204462 -0.06217023 0.00000000
v 0.02582977 -0.10004462 0.00000000
v 0.02678124 -0.09774757 0.00000000
v 0.02752889 -0.09537634 0.00000000
v -0.02334583 0.07165307 0.00000000
v -0.02183227 0.06968056 0.00000000
v -0.02015254 0.06784745 0.00000000
v -0.02806702 0.00494897 0.00000000
v -0.01831945 0.06616773 0.00000000
v -0.01634693 0.06465416 0.00000000
v -0.01425000 0.06331827 0.00000000
v 0.02183227 0.01831945 0.00000000
v -0.01204462 0.06217023 0.00000000
v -0.00974757 0.06121876 0.00000000
v 0.01831945 0.02183227 0.00000000
v 0.01634693 0.02334583 0.00000000
v 0.01425000 0.02468172 0.00000000
v 0.01204462 0.02582977 0.00000000
v 0.00000000 0.05950000 0.00000000
v 0.02582977 0.01204462 0.00000000
v 0.02468172 0.01425000 0.00000000
v 0.00974757 0.06121876 0.00000000
v 0.00737634 0.06047111 0.00000000
v 0.02015254 0.02015254 0.00000000
v 0.00974757 0.02678124 0.00000000
v 0.00737634 0.02752889 0.00000000
v 0.00494897 0.02806702 0.00000000
v 0.02334583 -0.07165307 0.00000000
v 0.02183227 -0.06968056 0.00000000
v 0.02806702 -0.00494897 0.00000000
v 0.02015254 -0.06784745 0.00000000
v 0.02678124 0.00974757 0.00000000
v 0.01204462 0.06217023 0.00000000
v 0.02752889 0.00737634 0.00000000
v 0.01425000 0.06331827 0.00000000
v 0.01634693 0.06465416 0.00000000
v 0.02806702 0.00494897 0.00000000
v 0.02334583 0.07165307 0.00000000
v 0.02468172 0.07375000 0.00000000
v -0.00737634 0.06047111 0.00000000
v -0.00494897 0.05993298 0.00000000
v -0.00248394 0.05960845 0.00000000
v 0.02806702 -0.09294897 0.00000000
v 0.02839155 -0.09048394 0.00000000
v 0.02850000 -0.08800000 0.00000000
v 0.01634693 -0.02334583 0.00000000
v 0.01831945 -0.02183227 0.00000000
v 0.02839155 -0.00248394 0.00000000
v 0.01831945 0.06616773 0.00000000
v 0.02015254 0.06784745 0.00000000
v 0.02839155 0.00248394 0.00000000
v 0.02183227 0.06968056 0.00000000
v 0.02582977 0.07595538 0.00000000
v 0.02678124 0.07825243 0.00000000
v 0.02839155 -0.08551606 0.00000000
v 0.02806702 -0.08305103 0.00000000
v 0.02752889 -0.08062366 0.00000000
v 0.02678124 -0.07825243 0.00000000
v 0.02582977 -0.07595538 0.00000000
v 0.02468172 -0.07375000 0.00000000
v 0.01831945 -0.06616773 0.00000000
v 0.01634693 -0.06465416 0.00000000
v 0.01425000 -0.06331827 0.00000000
v 0.01425000 -0.02468172 0.00000000
v -0.00494897 -0.02806702 0.00000000
v -0.00248394 -0.02839155 0.00000000
v 0.00000000 -0.05950000 0.00000000
v 0.00000000 -0.02850000 0.00000000
v 0.00248394 -0.05960845 0.00000000
v 0.00248394 0.02839155 0.00000000
v -0.00000000 0.02850000 0.00000000
v -0.00248394 0.02839155 0.00000000
v -0.01634693 0.02334583 0.00000000
v -0.01831945 0.02183227 0.00000000
v -0.02015254 0.02015254 0.00000000
v -0.02183227 0.01831945 0.00000000
v -0.02334583 0.01634693 0.00000000
v -0.02468172 0.01425000 0.00000000
v -0.02582977 0.01204462 0.00000000
v -0.02678124 0.00974757 0.00000000
v -0.02752889 0.00737634 0.00000000
v 0.02015254 -0.02015254 0.00000000
v 0.02183227 -0.01831945 0.00000000
v 0.02334583 -0.01634693 0.00000000
v 0.00248394 -0.02839155 0.00000000
v 0.00494897 -0.02806702 0.00000000
v 0.00494897 -0.05993298 0.00000000
v 0.00737634 -0.02752889 0.00000000
v 0.02850000 0.00000000 0.00000000
v -0.00494897 0.02806702 0.00000000
v -0.00737634 0.02752889 0.00000000
v -0.00974757 0.02678124 0.00000000
v 0.02468172 -0.01425000 0.00000000
v 0.02582977 -0.01204462 0.00000000
v -0.01204462 0.02582977 0.00000000
v -0.01425000 0.02468172 0.00000000
v 0.00974757 -0.02678124 0.00000000
v 0.01204462 -0.02582977 0.00000000
v 0.00737634 -0.06047111 0.00000000
v 0.00974757 -0.06121876 0.00000000
v -0.04150000 0.13000000 0.02500000
v -0.00737634 0.11552889 0.02500000
v -0.00494897 0.11606702 0.02500000
v 0.04150000 -0.13000000 0.02500000
v 0.02850000 -0.08800000 0.02500000
v 0.02839155 -0.09048394 0.02500000
v -0.01425000 0.11268172 0.02500000
v -0.01204462 0.11382977 0.02500000
v -0.00974757 0.11478124 0.02500000
v -0.00248394 0.11639155 0.02500000
v -0.00000000 0.11650000 0.02500000
v 0.04150000 0.13000000 0.02500000
v 0.00248394 0.11639155 0.02500000
v 0.00494897 0.11606702 0.02500000
v 0.00737634 0.11552889 0.02500000
v 0.00974757 0.11478124 0.02500000
v 0.01204462 0.11382977 0.02500000
v 0.01425000 0.11268172 0.02500000
v 0.01634693 0.11134584 0.02500000
v 0.01831945 0.10983226 0.02500000
v 0.00737634 -0.11552889 0.02500000
v 0.00494897 -0.11606702 0.02500000
v -0.00737634 -0.06047111 0.02500000
v -0.01831945 -0.02183227 0.02500000
v -0.00974757 -0.06121876 0.02500000
v -0.02015254 -0.02015254 0.02500000
v -0.02183227 -0.01831945 0.02500000
v -0.01425000 -0.06331827 0.02500000
v -0.01204462 -0.06217023 0.02500000
v -0.01204462 -0.02582977 0.02500000
v -0.01425000 -0.02468172 0.02500000
v -0.01634693 -0.02334583 0.02500000
v -0.00248394 -0.05960845 0.02500000
v 0.00000000 -0.05950000 0.02500000
v 0.00000000 -0.02850000 0.02500000
v 0.01204462 -0.06217023 0.02500000
v 0.02752889 -0.00737634 0.02500000
v 0.02678124 -0.00974757 0.02500000
v 0.01425000 -0.11268172 0.02500000
v 0.01634693 -0.11134584 0.02500000
v 0.01831945 -0.10983226 0.02500000
v -0.00494897 -0.11606702 0.02500000
v -0.00737634 -0.11552889 0.02500000
v -0.04150000 -0.13000000 0.02500000
v -0.00974757 -0.11478124 0.02500000
v -0.01204462 -0.11382977 0.02500000
v -0.01831945 -0.10983226 0.02500000
v -0.02015254 -0.10815255 0.02500000
v -0.02183227 -0.10631945 0.02500000
v -0.02334583 -0.10434693 0.02500000
v -0.02468172 -0.10225000 0.02500000
v -0.02334583 -0.01634693 0.02500000
v -0.02468172 -0.01425000 0.02500000
v -0.02582977 -0.01204462 0.02500000
v 0.00248394 -0.02839155 0.02500000
v 0.00248394 -0.05960845 0.02500000
v 0.00494897 -0.02806702 0.02500000
v -0.00248394 -0.02839155 0.02500000
v -0.00494897 -0.02806702 0.02500000
v -0.00494897 -0.05993298 0.02500000
v -0.00737634 -0.02752889 0.02500000
v -0.00974757 -0.02678124 0.02500000
v 0.01831945 -0.06616773 0.02500000
v 0.02806702 -0.00494897 0.02500000
v 0.01634693 -0.06465416 0.02500000
v 0.01425000 -0.06331827 0.02500000
v 0.02015254 0.10815255 0.02500000
v 0.02183227 0.10631945 0.02500000
v 0.02334583 0.10434693 0.02500000
v 0.02806702 -0.09294897 0.02500000
v 0.02752889 -0.09537634 0.02500000
v 0.02678124 -0.09774757 0.02500000
v 0.02334583 -0.10434693 0.02500000
v 0.02183227 -0.10631945 0.02500000
v 0.02015254 -0.10815255 0.02500000
v 0.01204462 -0.11382977 0.02500000
v 0.00974757 -0.11478124 0.02500000
v -0.01425000 -0.11268172 0.02500000
v -0.01634693 -0.11134584 0.02500000
v 0.02752889 0.00737634 0.02500000
v 0.02806702 0.00494897 0.02500000
v 0.01634693 0.06465416 0.02500000
v -0.02678124 0.09774757 0.02500000
v -0.02582977 0.10004462 0.02500000
v -0.02468172 0.10225000 0.02500000
v 0.02015254 -0.06784745 0.02500000
v 0.02183227 -0.06968056 0.02500000
v 0.02334583 -0.07165307 0.02500000
v 0.02468172 0.10225000 0.02500000
v 0.02582977 0.10004462 0.02500000
v 0.02678124 0.09774757 0.02500000
v 0.02752889 0.09537634 0.02500000
v 0.02806702 0.09294897 0.02500000
v 0.02839155 0.09048394 0.02500000
v 0.02582977 -0.10004462 0.02500000
v 0.02468172 -0.10225000 0.02500000
v 0.00248394 -0.11639155 0.02500000
v 0.00000000 -0.11650000 0.02500000
v -0.00248394 -0.11639155 0.02500000
v 0.02839155 0.00248394 0.02500000
v 0.02850000 0.00000000 0.02500000
v 0.02839155 -0.00248394 0.02500000
v -0.02468172 0.07375000 0.02500000
v -0.02582977 0.07595538 0.02500000
v -0.02678124 0.07825243 0.02500000
v -0.02752889 0.08062366 0.02500000
v -0.02334583 0.10434693 0.02500000
v -0.02183227 0.10631945 0.02500000
v -0.02015254 0.10815255 0.02500000
v 0.00737634 -0.02752889 0.02500000
v 0.00494897 -0.05993298 0.02500000
v 0.00974757 -0.02678124 0.02500000
v 0.02582977 -0.01204462 0.02500000
v 0.02468172 -0.01425000 0.02500000
v 0.02334583 -0.01634693 0.02500000
v 0.02183227 -0.01831945 0.02500000
v 0.02015254 -0.02015254 0.02500000
v 0.01831945 -0.02183227 0.02500000
v 0.02468172 -0.07375000 0.02500000
v 0.02582977 -0.07595538 0.02500000
v 0.02678124 -0.07825243 0.02500000
v 0.02752889 -0.08062366 0.02500000
v 0.02806702 -0.08305103 0.02500000
v 0.02839155 -0.08551606 0.02500000
v 0.02850000 0.08800000 0.02500000
v 0.02839155 0.08551606 0.02500000
v 0.02806702 0.08305103 0.02500000
v 0.02752889 0.08062366 0.02500000
v -0.02678124 -0.07825243 0.02500000
v -0.02582977 -0.07595538 0.02500000
v -0.02850000 0.00000000 0.02500000
v -0.02806702 0.08305103 0.02500000
v -0.02839155 0.08551606 0.02500000
v -0.02850000 0.08800000 0.02500000
v -0.02839155 0.09048394 0.02500000
v -0.01831945 0.10983226 0.02500000
v -0.01634693 0.11134584 0.02500000
v 0.02678124 0.07825243 0.02500000
v 0.02582977 0.07595538 0.02500000
v 0.02468172 0.07375000 0.02500000
v -0.02582977 0.01204462 0.02500000
v -0.02468172 0.01425000 0.02500000
v -0.00494897 0.05993298 0.02500000
v -0.02334583 0.01634693 0.02500000
v -0.02183227 0.01831945 0.02500000
v 0.00974757 0.06121876 0.02500000
v 0.00737634 0.02752889 0.02500000
v 0.00974757 0.02678124 0.02500000
v -0.02806702 0.09294897 0.02500000
v -0.02752889 0.09537634 0.02500000
v 0.02334583 0.07165307 0.02500000
v 0.02183227 0.06968056 0.02500000
v 0.02015254 0.06784745 0.02500000
v 0.01831945 0.06616773 0.02500000
v -0.02015254 0.02015254 0.02500000
v -0.01831945 0.02183227 0.02500000
v -0.01634693 0.02334583 0.02500000
v 0.01204462 0.02582977 0.02500000
v 0.01425000 0.02468172 0.02500000
v 0.01634693 0.02334583 0.02500000
v 0.02468172 0.01425000 0.02500000
v 0.02334583 0.01634693 0.02500000
v 0.02183227 0.01831945 0.02500000
v 0.01425000 0.06331827 0.02500000
v 0.01204462 0.06217023 0.02500000
v 0.02678124 0.00974757 0.02500000
v 0.02582977 0.01204462 0.02500000
v -0.01634693 0.06465416 0.02500000
v -0.02806702 0.00494897 0.02500000
v -0.02752889 0.00737634 0.02500000
v -0.00737634 0.06047111 0.02500000
v -0.00974757 0.06121876 0.02500000
v -0.02678124 0.00974757 0.02500000
v -0.01204462 0.06217023 0.02500000
v -0.01425000 0.06331827 0.02500000
v 0.00737634 -0.06047111 0.02500000
v 0.01425000 -0.02468172 0.02500000
v 0.01204462 -0.02582977 0.02500000
v 0.01634693 -0.02334583 0.02500000
v 0.00974757 -0.06121876 0.02500000
v 0.01831945 0.02183227 0.02500000
v 0.02015254 0.02015254 0.02500000
v -0.02582977 -0.10004462 0.02500000
v -0.02678124 -0.09774757 0.02500000
v -0.02752889 -0.09537634 0.02500000
v -0.02806702 -0.09294897 0.02500000
v -0.02839155 -0.09048394 0.02500000
v -0.02850000 -0.08800000 0.02500000
v -0.02468172 -0.07375000 0.02500000
v -0.02806702 -0.00494897 0.02500000
v -0.02839155 -0.00248394 0.02500000
v -0.02334583 -0.07165307 0.02500000
v -0.02183227 -0.06968056 0.02500000
v -0.02015254 -0.06784745 0.02500000
v -0.01425000 0.02468172 0.02500000
v -0.01204462 0.02582977 0.02500000
v -0.00974757 0.02678124 0.02500000
v -0.01831945 -0.06616773 0.02500000
v -0.01634693 -0.06465416 0.02500000
v -0.02752889 -0.00737634 0.02500000
v -0.02678124 -0.00974757 0.02500000
v 0.00737634 0.06047111 0.02500000
v 0.00494897 0.05993298 0.02500000
v 0.00494897 0.02806702 0.02500000
v 0.00248394 0.05960845 0.02500000
v -0.02839155 0.00248394 0.02500000
v -0.00737634 0.02752889 0.02500000
v -0.00494897 0.02806702 0.02500000
v -0.00248394 0.05960845 0.02500000
v -0.00248394 0.02839155 0.02500000
v 0.00000000 0.05950000 0.02500000
v -0.00000000 0.02850000 0.02500000
v 0.00248394 0.02839155 0.02500000
v -0.02839155 -0.08551606 0.02500000
v -0.02806702 -0.08305103 0.02500000
v -0.02752889 -0.08062366 0.02500000
v -0.01831945 0.06616773 0.02500000
v -0.02015254 0.06784745 0.02500000
v -0.02183227 0.06968056 0.02500000
v -0.02334583 0.07165307 0.02500000
f 1 2 3
f 4 5 3
f 5 6 3
f 7 8 9
f 6 10 3
f 10 11 3
f 3 11 12
f 2 13 3
f 13 14 3
f 3 14 15
f 15 16 3
f 16 17 3
f 3 17 18
f 18 19 3
f 19 20 3
f 3 20 4
f 21 22 23
f 22 24 23
f 23 24 25
f 24 26 25
f 25 26 27
f 28 29 3
f 29 30 3
f 3 30 1
f 31 32 33
f 32 34 33
f 7 35 8
f 35 36 8
f 8 36 23
f 36 37 23
f 23 37 21
f 38 39 40
f 39 41 40
f 40 41 42
f 43 44 40
f 45 40 46
f 40 47 46
f 48 49 28
f 49 50 28
f 28 50 29
f 51 52 53
f 33 54 55
f 54 56 55
f 55 56 9
f 56 57 9
f 9 57 7
f 55 58 33
f 58 59 33
f 33 59 60
f 42 61 40
f 61 62 40
f 40 62 63
f 44 64 40
f 64 65 40
f 40 65 66
f 27 38 25
f 38 40 25
f 25 40 67
f 68 69 28
f 69 70 28
f 34 71 33
f 71 51 33
f 33 51 72
f 51 53 72
f 60 73 33
f 73 74 33
f 33 74 31
f 63 75 40
f 75 76 40
f 40 76 43
f 66 77 40
f 77 78 40
f 40 78 47
f 12 79 3
f 79 80 3
f 3 80 40
f 80 81 40
f 40 81 82
f 82 83 40
f 83 84 40
f 40 84 85
f 70 86 28
f 86 87 28
f 28 87 88
f 88 89 28
f 89 90 28
f 28 90 48
f 91 92 93
f 92 94 93
f 95 96 93
f 96 97 93
f 98 99 100
f 101 102 93
f 102 103 93
f 93 103 28
f 103 104 28
f 28 104 105
f 105 106 28
f 106 107 28
f 28 107 108
f 108 109 28
f 109 110 28
f 28 110 68
f 45 111 40
f 111 112 40
f 40 112 93
f 112 113 93
f 93 113 91
f 94 114 93
f 114 115 93
f 93 115 95
f 97 116 93
f 116 117 93
f 93 117 118
f 119 120 121
f 118 122 93
f 122 123 93
f 93 123 124
f 85 125 40
f 125 126 40
f 40 126 67
f 126 127 67
f 67 127 128
f 127 129 128
f 130 131 132
f 131 133 132
f 132 133 134
f 135 136 129
f 136 137 129
f 129 137 138
f 98 100 139
f 140 141 142
f 141 100 142
f 142 100 143
f 100 99 143
f 130 132 129
f 132 144 129
f 129 144 135
f 138 145 129
f 145 146 129
f 129 146 147
f 148 149 150
f 149 151 150
f 140 142 152
f 142 153 152
f 152 153 154
f 153 155 154
f 155 156 154
f 154 156 157
f 93 158 159
f 134 160 132
f 160 161 132
f 132 161 100
f 161 162 100
f 100 162 139
f 124 163 93
f 163 164 93
f 93 164 165
f 166 167 121
f 93 150 168
f 156 169 157
f 169 170 157
f 157 170 171
f 170 172 171
f 159 173 93
f 173 174 93
f 93 174 101
f 165 175 93
f 175 176 93
f 93 176 150
f 176 177 150
f 150 177 178
f 178 179 150
f 179 180 150
f 150 180 148
f 151 181 150
f 181 182 150
f 150 182 120
f 182 183 120
f 120 183 121
f 166 121 184
f 52 185 53
f 185 186 53
f 53 186 187
f 186 188 187
f 187 188 189
f 147 190 129
f 190 191 129
f 129 191 192
f 193 194 129
f 194 195 129
f 129 195 196
f 196 197 129
f 197 198 129
f 129 198 199
f 199 200 129
f 200 201 129
f 129 201 128
f 167 202 121
f 202 203 121
f 121 203 204
f 188 205 189
f 205 206 189
f 189 206 207
f 206 208 207
f 168 209 93
f 209 171 93
f 93 171 158
f 171 172 158
f 192 210 129
f 210 211 129
f 129 211 212
f 204 213 121
f 213 214 121
f 121 214 119
f 212 215 129
f 215 216 129
f 129 216 193
f 208 217 207
f 217 218 207
f 207 218 219
f 218 184 219
f 219 184 220
f 184 121 220
f 221 222 223
f 224 225 226
f 227 228 221
f 228 229 221
f 221 229 222
f 223 230 221
f 230 231 221
f 221 231 232
f 231 233 232
f 232 233 234
f 234 235 232
f 235 236 232
f 232 236 237
f 237 238 232
f 238 239 232
f 232 239 240
f 224 241 242
f 243 244 245
f 244 246 245
f 247 248 246
f 248 249 246
f 246 249 245
f 250 251 243
f 251 252 243
f 243 252 244
f 253 254 255
f 256 257 258
f 259 224 260
f 224 261 260
f 262 263 264
f 263 265 264
f 264 265 266
f 264 267 268
f 268 269 264
f 269 270 264
f 264 270 271
f 247 272 248
f 272 273 248
f 248 273 274
f 255 254 275
f 254 276 275
f 275 276 277
f 255 278 253
f 278 279 253
f 253 279 280
f 279 281 280
f 280 281 243
f 281 282 243
f 243 282 250
f 283 284 285
f 284 257 285
f 285 257 286
f 257 256 286
f 240 287 232
f 287 288 232
f 232 288 289
f 226 290 224
f 290 291 224
f 224 291 292
f 293 294 224
f 294 295 224
f 224 295 261
f 259 296 224
f 296 297 224
f 224 297 241
f 266 298 264
f 298 299 264
f 264 299 267
f 300 301 302
f 303 304 221
f 304 305 221
f 283 306 284
f 306 307 284
f 284 307 308
f 289 309 232
f 309 310 232
f 232 310 311
f 311 312 232
f 312 313 232
f 232 313 314
f 292 315 224
f 315 316 224
f 224 316 293
f 242 317 224
f 317 318 224
f 224 318 264
f 318 319 264
f 264 319 262
f 320 321 224
f 321 322 224
f 224 322 284
f 323 324 264
f 324 325 264
f 264 325 326
f 305 327 221
f 327 328 221
f 221 328 329
f 277 276 330
f 276 331 330
f 330 331 332
f 258 333 256
f 333 334 256
f 256 334 335
f 335 336 256
f 336 337 256
f 256 337 338
f 308 339 284
f 339 340 284
f 284 340 341
f 341 342 284
f 342 343 284
f 284 343 224
f 343 344 224
f 224 344 225
f 314 345 232
f 345 346 232
f 232 346 224
f 346 347 224
f 224 347 348
f 349 350 351
f 326 352 264
f 352 353 264
f 264 353 221
f 353 354 221
f 221 354 355
f 329 356 221
f 356 357 221
f 221 357 227
f 348 358 224
f 358 359 224
f 224 359 360
f 361 362 363
f 362 364 363
f 363 364 365
f 366 367 368
f 355 369 221
f 369 370 221
f 221 370 303
f 360 371 224
f 371 372 224
f 224 372 320
f 372 373 320
f 320 373 301
f 373 374 301
f 301 374 302
f 365 375 363
f 375 376 363
f 363 376 377
f 368 378 366
f 378 379 366
f 366 379 380
f 381 366 382
f 366 383 382
f 302 384 300
f 384 385 300
f 300 385 386
f 385 366 386
f 386 366 387
f 366 381 387
f 388 389 390
f 363 391 361
f 391 392 361
f 361 392 393
f 392 394 393
f 393 394 390
f 394 395 390
f 390 395 388
f 396 397 331
f 397 398 331
f 331 398 332
f 338 399 256
f 399 397 256
f 256 397 400
f 397 396 400
f 380 401 366
f 401 402 366
f 366 402 383
f 271 403 264
f 403 404 264
f 264 404 405
f 405 406 264
f 406 407 264
f 264 407 408
f 409 410 350
f 410 411 350
f 350 411 351
f 409 412 410
f 412 413 410
f 410 413 414
f 377 415 363
f 415 416 363
f 363 416 417
f 414 418 410
f 418 419 410
f 410 419 420
f 419 248 420
f 420 248 421
f 248 274 421
f 366 422 367
f 422 423 367
f 367 423 424
f 423 425 424
f 351 426 264
f 417 427 363
f 427 428 363
f 363 428 429
f 428 430 429
f 429 430 431
f 430 432 431
f 431 432 425
f 432 433 425
f 425 433 424
f 408 434 264
f 434 435 264
f 264 435 351
f 435 436 351
f 351 436 349
f 388 437 389
f 437 438 389
f 389 438 426
f 438 439 426
f 426 439 264
f 439 440 264
f 264 440 323
f 264 221 40
f 221 3 40
f 232 224 28
f 224 93 28
f 224 264 93
f 264 40 93
f 408 41 434
f 41 39 434
f 434 39 435
f 39 38 435
f 435 38 436
f 38 27 436
f 436 27 349
f 27 26 349
f 349 26 350
f 26 24 350
f 350 24 409
f 24 22 409
f 409 22 412
f 22 21 412
f 412 21 413
f 21 37 413
f 413 37 414
f 37 36 414
f 414 36 418
f 36 35 418
f 418 35 419
f 35 7 419
f 419 7 248
f 7 57 248
f 248 57 249
f 57 56 249
f 249 56 245
f 56 54 245
f 245 54 243
f 54 33 243
f 243 33 280
f 33 72 280
f 280 72 253
f 72 53 253
f 253 53 254
f 53 187 254
f 254 187 276
f 187 189 276
f 276 189 331
f 189 207 331
f 331 207 396
f 207 219 396
f 396 219 400
f 219 220 400
f 400 220 256
f 220 121 256
f 256 121 286
f 121 183 286
f 286 183 285
f 183 182 285
f 285 182 283
f 182 181 283
f 283 181 306
f 181 151 306
f 306 151 307
f 151 149 307
f 307 149 308
f 149 148 308
f 308 148 339
f 148 180 339
f 339 180 340
f 180 179 340
f 340 179 341
f 179 178 341
f 341 178 342
f 178 177 342
f 342 177 343
f 177 176 343
f 343 176 344
f 176 175 344
f 344 175 225
f 175 165 225
f 225 165 226
f 165 164 226
f 226 164 290
f 164 163 290
f 290 163 291
f 163 124 291
f 291 124 292
f 124 123 292
f 292 123 315
f 123 122 315
f 315 122 316
f 122 118 316
f 316 118 293
f 118 117 293
f 293 117 294
f 117 116 294
f 294 116 295
f 116 97 295
f 295 97 261
f 97 96 261
f 261 96 260
f 96 95 260
f 260 95 259
f 95 115 259
f 259 115 296
f 115 114 296
f 296 114 297
f 114 94 297
f 297 94 241
f 94 92 241
f 241 92 242
f 92 91 242
f 242 91 317
f 91 113 317
f 317 113 318
f 113 112 318
f 318 112 319
f 112 111 319
f 319 111 262
f 111 45 262
f 262 45 263
f 45 46 263
f 263 46 265
f 46 47 265
f 265 47 266
f 47 78 266
f 266 78 298
f 78 77 298
f 298 77 299
f 77 66 299
f 299 66 267
f 66 65 267
f 267 65 268
f 65 64 268
f 268 64 269
f 64 44 269
f 269 44 270
f 44 43 270
f 270 43 271
f 43 76 271
f 271 76 403
f 76 75 403
f 403 75 404
f 75 63 404
f 404 63 405
f 63 62 405
f 405 62 406
f 62 61 406
f 406 61 407
f 61 42 407
f 407 42 408
f 42 41 408
f 221 232 3
f 232 28 3
f 354 79 355
f 79 12 355
f 355 12 369
f 12 11 369
f 369 11 370
f 11 10 370
f 370 10 303
f 10 6 303
f 303 6 304
f 6 5 304
f 304 5 305
f 5 4 305
f 305 4 327
f 4 20 327
f 327 20 328
f 20 19 328
f 328 19 329
f 19 18 329
f 329 18 356
f 18 17 356
f 356 17 357
f 17 16 357
f 357 16 227
f 16 15 227
f 227 15 228
f 15 14 228
f 228 14 229
f 14 13 229
f 229 13 222
f 13 2 222
f 222 2 223
f 2 1 223
f 223 1 230
f 1 30 230
f 230 30 231
f 30 29 231
f 231 29 233
f 29 50 233
f 233 50 234
f 50 49 234
f 234 49 235
f 49 48 235
f 235 48 236
f 48 90 236
f 236 90 237
f 90 89 237
f 237 89 238
f 89 88 238
f 238 88 239
f 88 87 239
f 239 87 240
f 87 86 240
f 240 86 287
f 86 70 287
f 287 70 288
f 70 69 288
f 288 69 289
f 69 68 289
f 289 68 309
f 68 110 309
f 309 110 310
f 110 109 310
f 310 109 311
f 109 108 311
f 311 108 312
f 108 107 312
f 312 107 313
f 107 106 313
f 313 106 314
f 106 105 314
f 314 105 345
f 105 104 345
f 345 104 346
f 104 103 346
f 346 103 347
f 103 102 347
f 347 102 348
f 102 101 348
f 348 101 358
f 101 174 358
f 358 174 359
f 174 173 359
f 359 173 360
f 173 159 360
f 360 159 371
f 159 158 371
f 371 158 372
f 158 172 372
f 372 172 373
f 172 170 373
f 373 170 374
f 170 169 374
f 374 169 302
f 169 156 302
f 302 156 384
f 156 155 384
f 384 155 385
f 155 153 385
f 385 153 366
f 153 142 366
f 366 142 422
f 142 143 422
f 422 143 423
f 143 99 423
f 423 99 425
f 99 98 425
f 425 98 431
f 98 139 431
f 431 139 429
f 139 162 429
f 429 162 363
f 162 161 363
f 363 161 391
f 161 160 391
f 391 160 392
f 160 134 392
f 392 134 394
f 134 133 394
f 394 133 395
f 133 131 395
f 395 131 388
f 131 130 388
f 388 130 437
f 130 129 437
f 437 129 438
f 129 127 438
f 438 127 439
f 127 126 439
f 439 126 440
f 126 125 440
f 440 125 323
f 125 85 323
f 323 85 324
f 85 84 324
f 324 84 325
f 84 83 325
f 325 83 326
f 83 82 326
f 326 82 352
f 82 81 352
f 352 81 353
f 81 80 353
f 353 80 354
f 80 79 354
f 351 25 426
f 25 67 426
f 426 67 389
f 67 128 389
f 389 128 390
f 128 201 390
f 390 201 393
f 201 200 393
f 393 200 361
f 200 199 361
f 361 199 362
f 199 198 362
f 362 198 364
f 198 197 364
f 364 197 365
f 197 196 365
f 365 196 375
f 196 195 375
f 375 195 376
f 195 194 376
f 376 194 377
f 194 193 377
f 377 193 415
f 193 216 415
f 415 216 416
f 216 215 416
f 416 215 417
f 215 212 417
f 417 212 427
f 212 211 427
f 427 211 428
f 211 210 428
f 428 210 430
f 210 192 430
f 430 192 432
f 192 191 432
f 432 191 433
f 191 190 433
f 433 190 424
f 190 147 424
f 424 147 367
f 147 146 367
f 367 146 368
f 146 145 368
f 368 145 378
f 145 138 378
f 378 138 379
f 138 137 379
f 379 137 380
f 137 136 380
f 380 136 401
f 136 135 401
f 401 135 402
f 135 144 402
f 402 144 383
f 144 132 383
f 383 132 382
f 132 100 382
f 382 100 381
f 100 141 381
f 381 141 387
f 141 140 387
f 387 140 386
f 140 152 386
f 386 152 300
f 152 154 300
f 300 154 301
f 154 157 301
f 301 157 320
f 157 171 320
f 320 171 321
f 171 209 321
f 321 209 322
f 209 168 322
f 322 168 284
f 168 150 284
f 284 150 257
f 150 120 257
f 257 120 258
f 120 119 258
f 258 119 333
f 119 214 333
f 333 214 334
f 214 213 334
f 334 213 335
f 213 204 335
f 335 204 336
f 204 203 336
f 336 203 337
f 203 202 337
f 337 202 338
f 202 167 338
f 338 167 399
f 167 166 399
f 399 166 397
f 166 184 397
f 397 184 398
f 184 218 398
f 398 218 332
f 218 217 332
f 332 217 330
f 217 208 330
f 330 208 277
f 208 206 277
f 277 206 275
f 206 205 275
f 275 205 255
f 205 188 255
f 255 188 278
f 188 186 278
f 278 186 279
f 186 185 279
f 279 185 281
f 185 52 281
f 281 52 282
f 52 51 282
f 282 51 250
f 51 71 250
f 250 71 251
f 71 34 251
f 251 34 252
f 34 32 252
f 252 32 244
f 32 31 244
f 244 31 246
f 31 74 246
f 246 74 247
f 74 73 247
f 247 73 272
f 73 60 272
f 272 60 273
f 60 59 273
f 273 59 274
f 59 58 274
f 274 58 421
f 58 55 421
f 421 55 420
f 55 9 420
f 420 9 410
f 9 8 410
f 410 8 411
f 8 23 411
f 411 23 351
f 23 25 351

