# https://github.com/mikedh/trimesh
v -0.01500000 0.00000000 0.00000000
v -0.01500000 0.00000000 0.00400000
v -0.01494292 -0.00130734 0.00000000
v -0.01494292 -0.00130734 0.00400000
v -0.01477212 -0.00260472 0.00000000
v -0.01477212 -0.00260472 0.00400000
v -0.01448889 -0.00388229 0.00000000
v -0.01448889 -0.00388229 0.00400000
v -0.01409539 -0.00513030 0.00000000
v -0.01409539 -0.00513030 0.00400000
v -0.01359462 -0.00633927 0.00000000
v -0.01359462 -0.00633927 0.00400000
v -0.01299038 -0.00750000 0.00000000
v -0.01299038 -0.00750000 0.00400000
v -0.01228728 -0.00860365 0.00000000
v -0.01228728 -0.00860365 0.00400000
v -0.01149067 -0.00964181 0.00000000
v -0.01149067 -0.00964181 0.00400000
v -0.01060660 -0.01060660 0.00000000
v -0.01060660 -0.01060660 0.00400000
v -0.00964181 -0.01149067 0.00000000
v -0.00964181 -0.01149067 0.00400000
v -0.00860365 -0.01228728 0.00000000
v -0.00860365 -0.01228728 0.00400000
v -0.00750000 -0.01299038 0.00000000
v -0.00750000 -0.01299038 0.00400000
v -0.00633927 -0.01359462 0.00000000
v -0.00633927 -0.01359462 0.00400000
v -0.00513030 -0.01409539 0.00000000
v -0.00513030 -0.01409539 0.00400000
v -0.00388229 -0.01448889 0.00000000
v -0.00388229 -0.01448889 0.00400000
v -0.00260472 -0.01477212 0.00000000
v -0.00260472 -0.01477212 0.00400000
v -0.00130734 -0.01494292 0.00000000
v -0.00130734 -0.01494292 0.00400000
v -0.00000000 -0.01500000 0.00000000
v -0.00000000 -0.01500000 0.00400000
v 0.00130734 -0.01494292 0.00000000
v 0.00130734 -0.01494292 0.00400000
v 0.00260472 -0.01477212 0.00000000
v 0.00260472 -0.01477212 0.00400000
v 0.00388229 -0.01448889 0.00000000
v 0.00388229 -0.01448889 0.00400000
v 0.00513030 -0.01409539 0.00000000
v 0.00513030 -0.01409539 0.00400000
v 0.00633927 -0.01359462 0.00000000
v 0.00633927 -0.01359462 0.00400000
v 0.00750000 -0.01299038 0.00000000
v 0.00750000 -0.01299038 0.00400000
v 0.00860365 -0.01228728 0.00000000
v 0.00860365 -0.01228728 0.00400000
v 0.00964181 -0.01149067 0.00000000
v 0.00964181 -0.01149067 0.00400000
v 0.01060660 -0.01060660 0.00000000
v 0.01060660 -0.01060660 0.00400000
v 0.01149067 -0.00964181 0.00000000
v 0.01149067 -0.00964181 0.00400000
v 0.01228728 -0.00860365 0.00000000
v 0.01228728 -0.00860365 0.00400000
v 0.01299038 -0.00750000 0.00000000
v 0.01299038 -0.00750000 0.00400000
v 0.01359462 -0.00633927 0.00000000
v 0.01359462 -0.00633927 0.00400000
v 0.01409539 -0.00513030 0.00000000
v 0.01409539 -0.00513030 0.00400000
v 0.01448889 -0.00388229 0.00000000
v 0.01448889 -0.00388229 0.00400000
v 0.01477212 -0.00260472 0.00000000
v 0.01477212 -0.00260472 0.00400000
v 0.01494292 -0.00130734 0.00000000
v 0.01494292 -0.00130734 0.00400000
v 0.01500000 -0.00000000 0.00000000
v 0.01500000 -0.00000000 0.00400000
v 0.01494292 0.00130734 0.00000000
v 0.01494292 0.00130734 0.00400000
v 0.01477212 0.00260472 0.00000000
v 0.01477212 0.00260472 0.00400000
v 0.01448889 0.00388229 0.00000000
v 0.01448889 0.00388229 0.00400000
v 0.01409539 0.00513030 0.00000000
v 0.01409539 0.00513030 0.00400000
v 0.01359462 0.00633927 0.00000000
v 0.01359462 0.00633927 0.00400000
v 0.01299038 0.00750000 0.00000000
v 0.01299038 0.00750000 0.00400000
v 0.01228728 0.00860365 0.00000000
v 0.01228728 0.00860365 0.00400000
v 0.01149067 0.00964181 0.00000000
v 0.01149067 0.00964181 0.00400000
v 0.01060660 0.01060660 0.00000000
v 0.01060660 0.01060660 0.00400000
v 0.00964181 0.01149067 0.00000000
v 0.00964181 0.01149067 0.00400000
v 0.00860365 0.01228728 0.00000000
v 0.00860365 0.01228728 0.00400000
v 0.00750000 0.01299038 0.00000000
v 0.00750000 0.01299038 0.00400000
v 0.00633927 0.01359462 0.00000000
v 0.00633927 0.01359462 0.00400000
v 0.00513030 0.01409539 0.00000000
v 0.00513030 0.01409539 0.00400000
v 0.00388229 0.01448889 0.00000000
v 0.00388229 0.01448889 0.00400000
v 0.00260472 0.01477212 0.00000000
v 0.00260472 0.01477212 0.00400000
v 0.00130734 0.01494292 0.00000000
v 0.00130734 0.01494292 0.00400000
v 0.00000000 0.01500000 0.00000000
v 0.00000000 0.01500000 0.00400000
v -0.00130734 0.01494292 0.00000000
v -0.00130734 0.01494292 0.00400000
v -0.00260472 0.01477212 0.00000000
v -0.00260472 0.01477212 0.00400000
v -0.00388229 0.01448889 0.00000000
v -0.00388229 0.01448889 0.00400000
v -0.00513030 0.01409539 0.00000000
v -0.00513030 0.01409539 0.00400000
v -0.00633927 0.01359462 0.00000000
v -0.00633927 0.01359462 0.00400000
v -0.00750000 0.01299038 0.00000000
v -0.00750000 0.01299038 0.00400000
v -0.00860365 0.01228728 0.00000000
v -0.00860365 0.01228728 0.00400000
v -0.00964181 0.01149067 0.00000000
v -0.00964181 0.01149067 0.00400000
v -0.01060660 0.01060660 0.00000000
v -0.01060660 0.01060660 0.00400000
v -0.01149067 0.00964181 0.00000000
v -0.01149067 0.00964181 0.00400000
v -0.01228728 0.00860365 0.00000000
v -0.01228728 0.00860365 0.00400000
v -0.01299038 0.00750000 0.00000000
v -0.01299038 0.00750000 0.00400000
v -0.01359462 0.00633927 0.00000000
v -0.01359462 0.00633927 0.00400000
v -0.01409539 0.00513030 0.00000000
v -0.01409539 0.00513030 0.00400000
v -0.01448889 0.00388229 0.00000000
v -0.01448889 0.00388229 0.00400000
v -0.01477212 0.00260472 0.00000000
v -0.01477212 0.00260472 0.00400000
v -0.01494292 0.00130734 0.00000000
v -0.01494292 0.00130734 0.00400000
v 0.01850000 0.00000000 0.00400000
v 0.01842960 0.00161238 0.00000000
v 0.01842960 0.00161238 0.00400000
v 0.01821894 0.00321249 0.00000000
v 0.01821894 0.00321249 0.00400000
v 0.01786963 0.00478815 0.00000000
v 0.01786963 0.00478815 0.00400000
v 0.01738431 0.00632737 0.00000000
v 0.01738431 0.00632737 0.00400000
v 0.01676669 0.00781844 0.00000000
v 0.01676669 0.00781844 0.00400000
v 0.01602147 0.00925000 0.00000000
v 0.01602147 0.00925000 0.00400000
v 0.01515431 0.01061116 0.00000000
v 0.01515431 0.01061116 0.00400000
v 0.01417182 0.01189157 0.00000000
v 0.01417182 0.01189157 0.00400000
v 0.01308148 0.01308148 0.00000000
v 0.01308148 0.01308148 0.00400000
v 0.01189157 0.01417182 0.00000000
v 0.01189157 0.01417182 0.00400000
v 0.01061116 0.01515431 0.00000000
v 0.01061116 0.01515431 0.00400000
v 0.00925000 0.01602147 0.00000000
v 0.00925000 0.01602147 0.00400000
v 0.00781844 0.01676669 0.00000000
v 0.00781844 0.01676669 0.00400000
v 0.00632737 0.01738431 0.00000000
v 0.00632737 0.01738431 0.00400000
v 0.00478815 0.01786963 0.00000000
v 0.00478815 0.01786963 0.00400000
v 0.00321249 0.01821894 0.00000000
v 0.00321249 0.01821894 0.00400000
v 0.00161238 0.01842960 0.00000000
v 0.00161238 0.01842960 0.00400000
v 0.00000000 0.01850000 0.00000000
v 0.00000000 0.01850000 0.00400000
v -0.00161238 0.01842960 0.00000000
v -0.00161238 0.01842960 0.00400000
v -0.00321249 0.01821894 0.00000000
v -0.00321249 0.01821894 0.00400000
v -0.00478815 0.01786963 0.00000000
v -0.00478815 0.01786963 0.00400000
v -0.00632737 0.01738431 0.00000000
v -0.00632737 0.01738431 0.00400000
v -0.00781844 0.01676669 0.00000000
v -0.00781844 0.01676669 0.00400000
v -0.00925000 0.01602147 0.00000000
v -0.00925000 0.01602147 0.00400000
v -0.01061116 0.01515431 0.00000000
v -0.01061116 0.01515431 0.00400000
v -0.01189157 0.01417182 0.00000000
v -0.01189157 0.01417182 0.00400000
v -0.01308148 0.01308148 0.00000000
v -0.01308148 0.01308148 0.00400000
v -0.01417182 0.01189157 0.00000000
v -0.01417182 0.01189157 0.00400000
v -0.01515431 0.01061116 0.00000000
v -0.01515431 0.01061116 0.00400000
v -0.01602147 0.00925000 0.00000000
v -0.01602147 0.00925000 0.00400000
v -0.01676669 0.00781844 0.00000000
v -0.01676669 0.00781844 0.00400000
v -0.01738431 0.00632737 0.00000000
v -0.01738431 0.00632737 0.00400000
v -0.01786963 0.00478815 0.00000000
v -0.01786963 0.00478815 0.00400000
v -0.01821894 0.00321249 0.00000000
v -0.01821894 0.00321249 0.00400000
v -0.01842960 0.00161238 0.00000000
v -0.01842960 0.00161238 0.00400000
v -0.01850000 0.00000000 0.00000000
v -0.01850000 0.00000000 0.00400000
v -0.01842960 -0.00161238 0.00000000
v -0.01842960 -0.00161238 0.00400000
v -0.01821894 -0.00321249 0.00000000
v -0.01821894 -0.00321249 0.00400000
v -0.01786963 -0.00478815 0.00000000
v -0.01786963 -0.00478815 0.00400000
v -0.01738431 -0.00632737 0.00000000
v -0.01738431 -0.00632737 0.00400000
v -0.01676669 -0.00781844 0.00000000
v -0.01676669 -0.00781844 0.00400000
v -0.01602147 -0.00925000 0.00000000
v -0.01602147 -0.00925000 0.00400000
v -0.01515431 -0.01061116 0.00000000
v -0.01515431 -0.01061116 0.00400000
v -0.01417182 -0.01189157 0.00000000
v -0.01417182 -0.01189157 0.00400000
v -0.01308148 -0.01308148 0.00000000
v -0.01308148 -0.01308148 0.00400000
v -0.01189157 -0.01417182 0.00000000
v -0.01189157 -0.01417182 0.00400000
v -0.01061116 -0.01515431 0.00000000
v -0.01061116 -0.01515431 0.00400000
v -0.00925000 -0.01602147 0.00000000
v -0.00925000 -0.01602147 0.00400000
v -0.00781844 -0.01676669 0.00000000
v -0.00781844 -0.01676669 0.00400000
v -0.00632737 -0.01738431 0.00000000
v -0.00632737 -0.01738431 0.00400000
v -0.00478815 -0.01786963 0.00000000
v -0.00478815 -0.01786963 0.00400000
v -0.00321249 -0.01821894 0.00000000
v -0.00321249 -0.01821894 0.00400000
v -0.00161238 -0.01842960 0.00000000
v -0.00161238 -0.01842960 0.00400000
v -0.00000000 -0.01850000 0.00000000
v -0.00000000 -0.01850000 0.00400000
v 0.00161238 -0.01842960 0.00000000
v 0.00161238 -0.01842960 0.00400000
v 0.00321249 -0.01821894 0.00000000
v 0.00321249 -0.01821894 0.00400000
v 0.00478815 -0.01786963 0.00000000
v 0.00478815 -0.01786963 0.00400000
v 0.00632737 -0.01738431 0.00000000
v 0.00632737 -0.01738431 0.00400000
v 0.00781844 -0.01676669 0.00000000
v 0.00781844 -0.01676669 0.00400000
v 0.00925000 -0.01602147 0.00000000
v 0.00925000 -0.01602147 0.00400000
v 0.01061116 -0.01515431 0.00000000
v 0.01061116 -0.01515431 0.00400000
v 0.01189157 -0.01417182 0.00000000
v 0.01189157 -0.01417182 0.00400000
v 0.01308148 -0.01308148 0.00000000
v 0.01308148 -0.01308148 0.00400000
v 0.01417182 -0.01189157 0.00000000
v 0.01417182 -0.01189157 0.00400000
v 0.01515431 -0.01061116 0.00000000
v 0.01515431 -0.01061116 0.00400000
v 0.01602147 -0.00925000 0.00000000
v 0.01602147 -0.00925000 0.00400000
v 0.01676669 -0.00781844 0.00000000
v 0.01676669 -0.00781844 0.00400000
v 0.01738431 -0.00632737 0.00000000
v 0.01738431 -0.00632737 0.00400000
v 0.01786963 -0.00478815 0.00000000
v 0.01786963 -0.00478815 0.00400000
v 0.01821894 -0.00321249 0.00000000
v 0.01821894 -0.00321249 0.00400000
v 0.01842960 -0.00161238 0.00000000
v 0.01842960 -0.00161238 0.00400000
v 0.01850000 -0.00000000 0.00000000
f 1 2 3
f 2 4 3
f 3 4 5
f 4 6 5
f 5 6 7
f 6 8 7
f 7 8 9
f 8 10 9
f 9 10 11
f 10 12 11
f 11 12 13
f 12 14 13
f 13 14 15
f 14 16 15
f 15 16 17
f 16 18 17
f 17 18 19
f 18 20 19
f 19 20 21
f 20 22 21
f 21 22 23
f 22 24 23
f 23 24 25
f 24 26 25
f 25 26 27
f 26 28 27
f 27 28 29
f 28 30 29
f 29 30 31
f 30 32 31
f 31 32 33
f 32 34 33
f 33 34 35
f 34 36 35
f 35 36 37
f 36 38 37
f 37 38 39
f 38 40 39
f 39 40 41
f 40 42 41
f 41 42 43
f 42 44 43
f 43 44 45
f 44 46 45
f 45 46 47
f 46 48 47
f 47 48 49
f 48 50 49
f 49 50 51
f 50 52 51
f 51 52 53
f 52 54 53
f 53 54 55
f 54 56 55
f 55 56 57
f 56 58 57
f 57 58 59
f 58 60 59
f 59 60 61
f 60 62 61
f 61 62 63
f 62 64 63
f 63 64 65
f 64 66 65
f 65 66 67
f 66 68 67
f 67 68 69
f 68 70 69
f 69 70 71
f 70 72 71
f 71 72 73
f 72 74 73
f 73 74 75
f 74 76 75
f 75 76 77
f 76 78 77
f 77 78 79
f 78 80 79
f 79 80 81
f 80 82 81
f 81 82 83
f 82 84 83
f 83 84 85
f 84 86 85
f 85 86 87
f 86 88 87
f 87 88 89
f 88 90 89
f 89 90 91
f 90 92 91
f 91 92 93
f 92 94 93
f 93 94 95
f 94 96 95
f 95 96 97
f 96 98 97
f 97 98 99
f 98 100 99
f 99 100 101
f 100 102 101
f 101 102 103
f 102 104 103
f 103 104 105
f 104 106 105
f 105 106 107
f 106 108 107
f 107 108 109
f 108 110 109
f 109 110 111
f 110 112 111
f 111 112 113
f 112 114 113
f 113 114 115
f 114 116 115
f 115 116 117
f 116 118 117
f 117 118 119
f 118 120 119
f 119 120 121
f 120 122 121
f 121 122 123
f 122 124 123
f 123 124 125
f 124 126 125
f 125 126 127
f 126 128 127
f 127 128 129
f 128 130 129
f 129 130 131
f 130 132 131
f 131 132 133
f 132 134 133
f 133 134 135
f 134 136 135
f 135 136 137
f 136 138 137
f 137 138 139
f 138 140 139
f 139 140 141
f 140 142 141
f 141 142 143
f 142 144 143
f 143 144 1
f 144 2 1
f 145 146 147
f 146 148 147
f 147 148 149
f 148 150 149
f 149 150 151
f 150 152 151
f 151 152 153
f 152 154 153
f 153 154 155
f 154 156 155
f 155 156 157
f 156 158 157
f 157 158 159
f 158 160 159
f 159 160 161
f 160 162 161
f 161 162 163
f 162 164 163
f 163 164 165
f 164 166 165
f 165 166 167
f 166 168 167
f 167 168 169
f 168 170 169
f 169 170 171
f 170 172 171
f 171 172 173
f 172 174 173
f 173 174 175
f 174 176 175
f 175 176 177
f 176 178 177
f 177 178 179
f 178 180 179
f 179 180 181
f 180 182 181
f 181 182 183
f 182 184 183
f 183 184 185
f 184 186 185
f 185 186 187
f 186 188 187
f 187 188 189
f 188 190 189
f 189 190 191
f 190 192 191
f 191 192 193
f 192 194 193
f 193 194 195
f 194 196 195
f 195 196 197
f 196 198 197
f 197 198 199
f 198 200 199
f 199 200 201
f 200 202 201
f 201 202 203
f 202 204 203
f 203 204 205
f 204 206 205
f 205 206 207
f 206 208 207
f 207 208 209
f 208 210 209
f 209 210 211
f 210 212 211
f 211 212 213
f 212 214 213
f 213 214 215
f 214 216 215
f 215 216 217
f 216 218 217
f 217 218 219
f 218 220 219
f 219 220 221
f 220 222 221
f 221 222 223
f 222 224 223
f 223 224 225
f 224 226 225
f 225 226 227
f 226 228 227
f 227 228 229
f 228 230 229
f 229 230 231
f 230 232 231
f 231 232 233
f 232 234 233
f 233 234 235
f 234 236 235
f 235 236 237
f 236 238 237
f 237 238 239
f 238 240 239
f 239 240 241
f 240 242 241
f 241 242 243
f 242 244 243
f 243 244 245
f 244 246 245
f 245 246 247
f 246 248 247
f 247 248 249
f 248 250 249
f 249 250 251
f 250 252 251
f 251 252 253
f 252 254 253
f 253 254 255
f 254 256 255
f 255 256 257
f 256 258 257
f 257 258 259
f 258 260 259
f 259 260 261
f 260 262 261
f 261 262 263
f 262 264 263
f 263 264 265
f 264 266 265
f 265 266 267
f 266 268 267
f 267 268 269
f 268 270 269
f 269 270 271
f 270 272 271
f 271 272 273
f 272 274 273
f 273 274 275
f 274 276 275
f 275 276 277
f 276 278 277
f 277 278 279
f 278 280 279
f 279 280 281
f 280 282 281
f 281 282 283
f 282 284 283
f 283 284 285
f 284 286 285
f 285 286 287
f 286 288 287
f 287 288 145
f 288 146 145
f 33 248 31
f 248 246 31
f 31 246 29
f 246 244 29
f 29 244 27
f 244 242 27
f 27 242 25
f 242 240 25
f 25 240 23
f 240 238 23
f 23 238 21
f 238 236 21
f 21 236 19
f 236 234 19
f 19 234 17
f 234 232 17
f 17 232 15
f 232 230 15
f 15 230 13
f 230 228 13
f 13 228 11
f 228 226 11
f 11 226 9
f 226 224 9
f 9 224 7
f 224 222 7
f 7 222 5
f 222 220 5
f 5 220 3
f 220 218 3
f 3 218 1
f 218 216 1
f 1 216 143
f 216 214 143
f 143 214 141
f 214 212 141
f 141 212 139
f 212 210 139
f 139 210 137
f 210 208 137
f 137 208 135
f 208 206 135
f 135 206 133
f 206 204 133
f 133 204 131
f 204 202 131
f 131 202 129
f 202 200 129
f 129 200 127
f 200 198 127
f 127 198 125
f 198 196 125
f 125 196 123
f 196 194 123
f 123 194 121
f 194 192 121
f 121 192 119
f 192 190 119
f 119 190 117
f 190 188 117
f 117 188 115
f 188 186 115
f 115 186 113
f 186 184 113
f 113 184 111
f 184 182 111
f 111 182 109
f 182 180 109
f 109 180 107
f 180 178 107
f 107 178 105
f 178 176 105
f 105 176 103
f 176 174 103
f 103 174 101
f 174 172 101
f 101 172 99
f 172 170 99
f 99 170 97
f 170 168 97
f 97 168 95
f 168 166 95
f 95 166 93
f 166 164 93
f 93 164 91
f 164 162 91
f 91 162 89
f 162 160 89
f 89 160 87
f 160 158 87
f 87 158 85
f 158 156 85
f 85 156 83
f 156 154 83
f 83 154 81
f 154 152 81
f 81 152 79
f 152 150 79
f 79 150 77
f 150 148 77
f 77 148 75
f 148 146 75
f 75 146 73
f 146 288 73
f 73 288 71
f 288 286 71
f 71 286 69
f 286 284 69
f 69 284 67
f 284 282 67
f 67 282 65
f 282 280 65
f 65 280 63
f 280 278 63
f 63 278 61
f 278 276 61
f 61 276 59
f 276 274 59
f 59 274 57
f 274 272 57
f 57 272 55
f 272 270 55
f 55 270 53
f 270 268 53
f 53 268 51
f 268 266 51
f 51 266 49
f 266 264 49
f 49 264 47
f 264 262 47
f 47 262 45
f 262 260 45
f 45 260 43
f 260 258 43
f 43 258 41
f 258 256 41
f 41 256 39
f 256 254 39
f 39 254 37
f 254 252 37
f 37 252 35
f 252 250 35
f 35 250 33
f 250 248 33
f 132 203 134
f 203 205 134
f 134 205 136
f 205 207 136
f 136 207 138
f 207 209 138
f 138 209 140
f 209 211 140
f 140 211 142
f 211 213 142
f 142 213 144
f 213 215 144
f 144 215 2
f 215 217 2
f 2 217 4
f 217 219 4
f 4 219 6
f 219 221 6
f 6 221 8
f 221 223 8
f 8 223 10
f 223 225 10
f 10 225 12
f 225 227 12
f 12 227 14
f 227 229 14
f 14 229 16
f 229 231 16
f 16 231 18
f 231 233 18
f 18 233 20
f 233 235 20
f 20 235 22
f 235 237 22
f 22 237 24
f 237 239 24
f 24 239 26
f 239 241 26
f 26 241 28
f 241 243 28
f 28 243 30
f 243 245 30
f 30 245 32
f 245 247 32
f 32 247 34
f 247 249 34
f 34 249 36
f 249 251 36
f 36 251 38
f 251 253 38
f 38 253 40
f 253 255 40
f 40 255 42
f 255 257 42
f 42 257 44
f 257 259 44
f 44 259 46
f 259 261 46
f 46 261 48
f 261 263 48
f 48 263 50
f 263 265 50
f 50 265 52
f 265 267 52
f 52 267 54
f 267 269 54
f 54 269 56
f 269 271 56
f 56 271 58
f 271 273 58
f 58 273 60
f 273 275 60
f 60 275 62
f 275 277 62
f 62 277 64
f 277 279 64
f 64 279 66
f 279 281 66
f 66 281 68
f 281 283 68
f 68 283 70
f 283 285 70
f 70 285 72
f 285 287 72
f 72 287 74
f 287 145 74
f 74 145 76
f 145 147 76
f 76 147 78
f 147 149 78
f 78 149 80
f 149 151 80
f 80 151 82
f 151 153 82
f 82 153 84
f 153 155 84
f 84 155 86
f 155 157 86
f 86 157 88
f 157 159 88
f 88 159 90
f 159 161 90
f 90 161 92
f 161 163 92
f 92 163 94
f 163 165 94
f 94 165 96
f 165 167 96
f 96 167 98
f 167 169 98
f 98 169 100
f 169 171 100
f 100 171 102
f 171 173 102
f 102 173 104
f 173 175 104
f 104 175 106
f 175 177 106
f 106 177 108
f 177 179 108
f 108 179 110
f 179 181 110
f 110 181 112
f 181 183 112
f 112 183 114
f 183 185 114
f 114 185 116
f 185 187 116
f 116 187 118
f 187 189 118
f 118 189 120
f 189 191 120
f 120 191 122
f 191 193 122
f 122 193 124
f 193 195 124
f 124 195 126
f 195 197 126
f 126 197 128
f 197 199 128
f 128 199 130
f 199 201 130
f 130 201 132
f 201 203 132

