# https://github.com/mikedh/trimesh
v -0.10102279 0.03694754 0.01470000
v -0.10100571 0.03707729 0.01470000
v -0.10250000 0.03720802 0.01470000
v -0.10100000 0.03720802 0.01470000
v -0.10100571 0.03733875 0.01470000
v -0.10114054 0.03657409 0.01470000
v -0.10109046 0.03669499 0.01470000
v -0.10105111 0.03681979 0.01470000
v -0.10135093 0.03624384 0.01470000
v -0.10127127 0.03634765 0.01470000
v -0.10120096 0.03645802 0.01470000
v -0.10163964 0.03597929 0.01470000
v -0.10153582 0.03605895 0.01470000
v -0.10143934 0.03614736 0.01470000
v -0.10198697 0.03579848 0.01470000
v -0.10186607 0.03584856 0.01470000
v -0.10175000 0.03590898 0.01470000
v -0.10236926 0.03571372 0.01470000
v -0.10223953 0.03573081 0.01470000
v -0.10211177 0.03575913 0.01470000
v -0.10276047 0.03573081 0.01470000
v -0.10263073 0.03571372 0.01470000
v -0.10250000 0.03570802 0.01470000
v -0.10313392 0.03584856 0.01470000
v -0.10301303 0.03579848 0.01470000
v -0.10288823 0.03575913 0.01470000
v -0.10346418 0.03605895 0.01470000
v -0.10336036 0.03597929 0.01470000
v -0.10325000 0.03590898 0.01470000
v -0.10372873 0.03634765 0.01470000
v -0.10364906 0.03624384 0.01470000
v -0.10356066 0.03614736 0.01470000
v -0.10390954 0.03669499 0.01470000
v -0.10385946 0.03657409 0.01470000
v -0.10379904 0.03645802 0.01470000
v -0.10399430 0.03707729 0.01470000
v -0.10397721 0.03694754 0.01470000
v -0.10394889 0.03681979 0.01470000
v -0.10397721 0.03746849 0.01470000
v -0.10399430 0.03733875 0.01470000
v -0.10400000 0.03720802 0.01470000
v -0.10385946 0.03784195 0.01470000
v -0.10390954 0.03772105 0.01470000
v -0.10394889 0.03759625 0.01470000
v -0.10364906 0.03817220 0.01470000
v -0.10372873 0.03806838 0.01470000
v -0.10379904 0.03795802 0.01470000
v -0.10336036 0.03843675 0.01470000
v -0.10346418 0.03835709 0.01470000
v -0.10356066 0.03826868 0.01470000
v -0.10301303 0.03861756 0.01470000
v -0.10313392 0.03856748 0.01470000
v -0.10325000 0.03850706 0.01470000
v -0.10263073 0.03870231 0.01470000
v -0.10276047 0.03868523 0.01470000
v -0.10288823 0.03865691 0.01470000
v -0.10223953 0.03868523 0.01470000
v -0.10236926 0.03870231 0.01470000
v -0.10250000 0.03870802 0.01470000
v -0.10186607 0.03856748 0.01470000
v -0.10198697 0.03861756 0.01470000
v -0.10211177 0.03865691 0.01470000
v -0.10153582 0.03835709 0.01470000
v -0.10163964 0.03843675 0.01470000
v -0.10175000 0.03850706 0.01470000
v -0.10127127 0.03806838 0.01470000
v -0.10135093 0.03817220 0.01470000
v -0.10143934 0.03826868 0.01470000
v -0.10109046 0.03772105 0.01470000
v -0.10114054 0.03784195 0.01470000
v -0.10120096 0.03795802 0.01470000
v -0.10102279 0.03746849 0.01470000
v -0.10105111 0.03759625 0.01470000
v -0.10128424 -0.03776047 0.01830000
v -0.10126715 -0.03763073 0.01830000
v -0.10276145 -0.03750000 0.01830000
v -0.10126144 -0.03750000 0.01830000
v -0.10126715 -0.03736927 0.01830000
v -0.10140198 -0.03813393 0.01830000
v -0.10135191 -0.03801303 0.01830000
v -0.10131256 -0.03788823 0.01830000
v -0.10161238 -0.03846418 0.01830000
v -0.10153272 -0.03836036 0.01830000
v -0.10146241 -0.03825000 0.01830000
v -0.10190108 -0.03872873 0.01830000
v -0.10179727 -0.03864907 0.01830000
v -0.10170079 -0.03856066 0.01830000
v -0.10224842 -0.03890954 0.01830000
v -0.10212752 -0.03885946 0.01830000
v -0.10201145 -0.03879904 0.01830000
v -0.10263071 -0.03899429 0.01830000
v -0.10250098 -0.03897721 0.01830000
v -0.10237322 -0.03894889 0.01830000
v -0.10302192 -0.03897721 0.01830000
v -0.10289218 -0.03899429 0.01830000
v -0.10276145 -0.03900000 0.01830000
v -0.10339537 -0.03885946 0.01830000
v -0.10327448 -0.03890954 0.01830000
v -0.10314967 -0.03894889 0.01830000
v -0.10372563 -0.03864907 0.01830000
v -0.10362181 -0.03872873 0.01830000
v -0.10351145 -0.03879904 0.01830000
v -0.10399017 -0.03836036 0.01830000
v -0.10391051 -0.03846418 0.01830000
v -0.10382210 -0.03856066 0.01830000
v -0.10417099 -0.03801303 0.01830000
v -0.10412091 -0.03813393 0.01830000
v -0.10406049 -0.03825000 0.01830000
v -0.10425574 -0.03763073 0.01830000
v -0.10423866 -0.03776047 0.01830000
v -0.10421033 -0.03788823 0.01830000
v -0.10423866 -0.03723953 0.01830000
v -0.10425574 -0.03736927 0.01830000
v -0.10426144 -0.03750000 0.01830000
v -0.10412091 -0.03686607 0.01830000
v -0.10417099 -0.03698697 0.01830000
v -0.10421033 -0.03711177 0.01830000
v -0.10391051 -0.03653582 0.01830000
v -0.10399017 -0.03663963 0.01830000
v -0.10406049 -0.03675000 0.01830000
v -0.10362181 -0.03627127 0.01830000
v -0.10372563 -0.03635093 0.01830000
v -0.10382210 -0.03643934 0.01830000
v -0.10327448 -0.03609046 0.01830000
v -0.10339537 -0.03614054 0.01830000
v -0.10351145 -0.03620096 0.01830000
v -0.10289218 -0.03600571 0.01830000
v -0.10302192 -0.03602279 0.01830000
v -0.10314967 -0.03605111 0.01830000
v -0.10250098 -0.03602279 0.01830000
v -0.10263071 -0.03600571 0.01830000
v -0.10276145 -0.03600000 0.01830000
v -0.10212752 -0.03614054 0.01830000
v -0.10224842 -0.03609046 0.01830000
v -0.10237322 -0.03605111 0.01830000
v -0.10179727 -0.03635093 0.01830000
v -0.10190108 -0.03627127 0.01830000
v -0.10201145 -0.03620096 0.01830000
v -0.10153272 -0.03663963 0.01830000
v -0.10161238 -0.03653582 0.01830000
v -0.10170079 -0.03643934 0.01830000
v -0.10135191 -0.03698697 0.01830000
v -0.10140198 -0.03686607 0.01830000
v -0.10146241 -0.03675000 0.01830000
v -0.10128424 -0.03723953 0.01830000
v -0.10131256 -0.03711177 0.01830000
v -0.10126144 -0.03750000 0.02130000
v -0.10126715 -0.03736927 0.02130000
v -0.10128424 -0.03723953 0.02130000
v -0.10131256 -0.03711177 0.02130000
v -0.10135191 -0.03698697 0.02130000
v -0.10140198 -0.03686607 0.02130000
v -0.10146241 -0.03675000 0.02130000
v -0.10153272 -0.03663963 0.02130000
v -0.10161238 -0.03653582 0.02130000
v -0.10170079 -0.03643934 0.02130000
v -0.10179727 -0.03635093 0.02130000
v -0.10190108 -0.03627127 0.02130000
v -0.10201145 -0.03620096 0.02130000
v -0.10212752 -0.03614054 0.02130000
v -0.10224842 -0.03609046 0.02130000
v -0.10237322 -0.03605111 0.02130000
v -0.10250098 -0.03602279 0.02130000
v -0.10263071 -0.03600571 0.02130000
v -0.10276145 -0.03600000 0.02130000
v -0.10289218 -0.03600571 0.02130000
v -0.10302192 -0.03602279 0.02130000
v -0.10314967 -0.03605111 0.02130000
v -0.10327448 -0.03609046 0.02130000
v -0.10339537 -0.03614054 0.02130000
v -0.10351145 -0.03620096 0.02130000
v -0.10362181 -0.03627127 0.02130000
v -0.10372563 -0.03635093 0.02130000
v -0.10382210 -0.03643934 0.02130000
v -0.10391051 -0.03653582 0.02130000
v -0.10399017 -0.03663963 0.02130000
v -0.10406049 -0.03675000 0.02130000
v -0.10412091 -0.03686607 0.02130000
v -0.10417099 -0.03698697 0.02130000
v -0.10421033 -0.03711177 0.02130000
v -0.10423866 -0.03723953 0.02130000
v -0.10425574 -0.03736927 0.02130000
v -0.10426144 -0.03750000 0.02130000
v -0.10425574 -0.03763073 0.02130000
v -0.10423866 -0.03776047 0.02130000
v -0.10421033 -0.03788823 0.02130000
v -0.10417099 -0.03801303 0.02130000
v -0.10412091 -0.03813393 0.02130000
v -0.10406049 -0.03825000 0.02130000
v -0.10399017 -0.03836036 0.02130000
v -0.10391051 -0.03846418 0.02130000
v -0.10382210 -0.03856066 0.02130000
v -0.10372563 -0.03864907 0.02130000
v -0.10362181 -0.03872873 0.02130000
v -0.10351145 -0.03879904 0.02130000
v -0.10339537 -0.03885946 0.02130000
v -0.10327448 -0.03890954 0.02130000
v -0.10314967 -0.03894889 0.02130000
v -0.10302192 -0.03897721 0.02130000
v -0.10289218 -0.03899429 0.02130000
v -0.10276145 -0.03900000 0.02130000
v -0.10263071 -0.03899429 0.02130000
v -0.10250098 -0.03897721 0.02130000
v -0.10237322 -0.03894889 0.02130000
v -0.10224842 -0.03890954 0.02130000
v -0.10212752 -0.03885946 0.02130000
v -0.10201145 -0.03879904 0.02130000
v -0.10190108 -0.03872873 0.02130000
v -0.10179727 -0.03864907 0.02130000
v -0.10170079 -0.03856066 0.02130000
v -0.10161238 -0.03846418 0.02130000
v -0.10153272 -0.03836036 0.02130000
v -0.10146241 -0.03825000 0.02130000
v -0.10140198 -0.03813393 0.02130000
v -0.10135191 -0.03801303 0.02130000
v -0.10131256 -0.03788823 0.02130000
v -0.10128424 -0.03776047 0.02130000
v -0.10126715 -0.03763073 0.02130000
v -0.10100000 0.03720802 0.01770000
v -0.10100571 0.03733875 0.01770000
v -0.10102279 0.03746849 0.01770000
v -0.10105111 0.03759625 0.01770000
v -0.10109046 0.03772105 0.01770000
v -0.10114054 0.03784195 0.01770000
v -0.10120096 0.03795802 0.01770000
v -0.10127127 0.03806838 0.01770000
v -0.10135093 0.03817220 0.01770000
v -0.10143934 0.03826868 0.01770000
v -0.10153582 0.03835709 0.01770000
v -0.10163964 0.03843675 0.01770000
v -0.10175000 0.03850706 0.01770000
v -0.10186607 0.03856748 0.01770000
v -0.10198697 0.03861756 0.01770000
v -0.10211177 0.03865691 0.01770000
v -0.10223953 0.03868523 0.01770000
v -0.10236926 0.03870231 0.01770000
v -0.10250000 0.03870802 0.01770000
v -0.10263073 0.03870231 0.01770000
v -0.10276047 0.03868523 0.01770000
v -0.10288823 0.03865691 0.01770000
v -0.10301303 0.03861756 0.01770000
v -0.10313392 0.03856748 0.01770000
v -0.10325000 0.03850706 0.01770000
v -0.10336036 0.03843675 0.01770000
v -0.10346418 0.03835709 0.01770000
v -0.10356066 0.03826868 0.01770000
v -0.10364906 0.03817220 0.01770000
v -0.10372873 0.03806838 0.01770000
v -0.10379904 0.03795802 0.01770000
v -0.10385946 0.03784195 0.01770000
v -0.10390954 0.03772105 0.01770000
v -0.10394889 0.03759625 0.01770000
v -0.10397721 0.03746849 0.01770000
v -0.10399430 0.03733875 0.01770000
v -0.10400000 0.03720802 0.01770000
v -0.10399430 0.03707729 0.01770000
v -0.10397721 0.03694754 0.01770000
v -0.10394889 0.03681979 0.01770000
v -0.10390954 0.03669499 0.01770000
v -0.10385946 0.03657409 0.01770000
v -0.10379904 0.03645802 0.01770000
v -0.10372873 0.03634765 0.01770000
v -0.10364906 0.03624384 0.01770000
v -0.10356066 0.03614736 0.01770000
v -0.10346418 0.03605895 0.01770000
v -0.10336036 0.03597929 0.01770000
v -0.10325000 0.03590898 0.01770000
v -0.10313392 0.03584856 0.01770000
v -0.10301303 0.03579848 0.01770000
v -0.10288823 0.03575913 0.01770000
v -0.10276047 0.03573081 0.01770000
v -0.10263073 0.03571372 0.01770000
v -0.10250000 0.03570802 0.01770000
v -0.10236926 0.03571372 0.01770000
v -0.10223953 0.03573081 0.01770000
v -0.10211177 0.03575913 0.01770000
v -0.10198697 0.03579848 0.01770000
v -0.10186607 0.03584856 0.01770000
v -0.10175000 0.03590898 0.01770000
v -0.10163964 0.03597929 0.01770000
v -0.10153582 0.03605895 0.01770000
v -0.10143934 0.03614736 0.01770000
v -0.10135093 0.03624384 0.01770000
v -0.10127127 0.03634765 0.01770000
v -0.10120096 0.03645802 0.01770000
v -0.10114054 0.03657409 0.01770000
v -0.10109046 0.03669499 0.01770000
v -0.10105111 0.03681979 0.01770000
v -0.10102279 0.03694754 0.01770000
v -0.10100571 0.03707729 0.01770000
v -0.11000000 -0.03000000 0.02130000
v -0.09104579 -0.03000000 0.02130000
v -0.11000000 -0.03000000 0.03230000
v -0.09104579 -0.03000000 0.03230000
v -0.09000000 0.02883207 0.01770000
v -0.09000000 0.02500000 0.01770000
v -0.10000000 0.04000000 0.01770000
v -0.11000000 0.04000000 0.01770000
v -0.11000000 0.02500000 0.01770000
v -0.11000000 -0.04000000 0.02130000
v -0.11000000 -0.04000000 0.03230000
v -0.10000000 -0.04000000 0.03230000
v -0.11000000 0.04000000 0.02870000
v -0.10000000 0.04000000 0.02870000
v -0.11000000 0.02500000 0.02870000
v -0.09000000 0.02883207 0.02870000
v -0.09000000 0.02500000 0.02870000
v -0.30693471 0.03758771 0.00500000
v -0.30500001 0.03682601 0.00500000
v -0.30500001 0.04220374 0.00500000
v -0.36061552 -0.00000000 0.00500000
v -0.36557287 -0.00195897 0.00500000
v -0.36046332 -0.00348623 0.00500000
v -0.36523208 -0.00586205 0.00500000
v -0.36000785 -0.00694593 0.00500000
v -0.36455306 -0.00972070 0.00500000
v -0.35925257 -0.01035276 0.00500000
v -0.36354101 -0.01350566 0.00500000
v -0.35820323 -0.01368081 0.00500000
v -0.36220357 -0.01718824 0.00500000
v -0.35686785 -0.01690473 0.00500000
v -0.36055085 -0.02074053 0.00500000
v -0.35525656 -0.02000000 0.00500000
v -0.35859543 -0.02413560 0.00500000
v -0.35338160 -0.02294306 0.00500000
v -0.35635209 -0.02734772 0.00500000
v -0.35125729 -0.02571150 0.00500000
v -0.35383788 -0.03035253 0.00500000
v -0.34889981 -0.02828427 0.00500000
v -0.35107180 -0.03312725 0.00500000
v -0.34632704 -0.03064178 0.00500000
v -0.34807488 -0.03565086 0.00500000
v -0.34355858 -0.03276608 0.00500000
v -0.34486979 -0.03790423 0.00500000
v -0.34061554 -0.03464102 0.00500000
v -0.34148085 -0.03987026 0.00500000
v -0.33752027 -0.03625231 0.00500000
v -0.33793375 -0.04153407 0.00500000
v -0.33429635 -0.03758771 0.00500000
v -0.33425537 -0.04288303 0.00500000
v -0.33096829 -0.03863703 0.00500000
v -0.33047360 -0.04390693 0.00500000
v -0.32756147 -0.03939231 0.00500000
v -0.32661709 -0.04459799 0.00500000
v -0.32410175 -0.03984779 0.00500000
v -0.32271510 -0.04495099 0.00500000
v -0.32061553 -0.04000000 0.00500000
v -0.31879717 -0.04496325 0.00500000
v -0.31712928 -0.03984779 0.00500000
v -0.31489304 -0.04463466 0.00500000
v -0.31366959 -0.03939231 0.00500000
v -0.31103230 -0.04396774 0.00500000
v -0.31026277 -0.03863703 0.00500000
v -0.30724418 -0.04296751 0.00500000
v -0.30693471 -0.03758771 0.00500000
v -0.30500001 -0.04220374 0.00500000
v -0.30500001 -0.03682601 0.00500000
v -0.31026277 0.03863703 0.00500000
v -0.30724418 0.04296751 0.00500000
v -0.31366959 0.03939231 0.00500000
v -0.31103230 0.04396774 0.00500000
v -0.31712928 0.03984779 0.00500000
v -0.31489304 0.04463466 0.00500000
v -0.32061553 0.04000000 0.00500000
v -0.31879717 0.04496325 0.00500000
v -0.32410175 0.03984779 0.00500000
v -0.32271510 0.04495099 0.00500000
v -0.32756147 0.03939231 0.00500000
v -0.32661709 0.04459799 0.00500000
v -0.33096829 0.03863703 0.00500000
v -0.33047360 0.04390693 0.00500000
v -0.33429635 0.03758771 0.00500000
v -0.33425537 0.04288303 0.00500000
v -0.33752027 0.03625231 0.00500000
v -0.33793375 0.04153407 0.00500000
v -0.34061554 0.03464102 0.00500000
v -0.34148085 0.03987026 0.00500000
v -0.34355858 0.03276608 0.00500000
v -0.34486979 0.03790423 0.00500000
v -0.34632704 0.03064178 0.00500000
v -0.34807488 0.03565086 0.00500000
v -0.34889981 0.02828427 0.00500000
v -0.35107180 0.03312725 0.00500000
v -0.35125729 0.02571150 0.00500000
v -0.35383788 0.03035253 0.00500000
v -0.35338160 0.02294306 0.00500000
v -0.35635209 0.02734772 0.00500000
v -0.35525656 0.02000000 0.00500000
v -0.35859543 0.02413560 0.00500000
v -0.35686785 0.01690473 0.00500000
v -0.36055085 0.02074053 0.00500000
v -0.35820323 0.01368081 0.00500000
v -0.36220357 0.01718824 0.00500000
v -0.35925257 0.01035276 0.00500000
v -0.36354101 0.01350566 0.00500000
v -0.36000785 0.00694593 0.00500000
v -0.36455306 0.00972070 0.00500000
v -0.36046332 0.00348623 0.00500000
v -0.36523208 0.00586205 0.00500000
v -0.36557287 0.00195897 0.00500000
v -0.30693471 -0.03758771 0.04500000
v -0.30500001 -0.03682601 0.04500000
v -0.30500001 -0.04220374 0.04500000
v -0.31026277 -0.03863703 0.04500000
v -0.30724418 -0.04296751 0.04500000
v -0.31366959 -0.03939231 0.04500000
v -0.31103230 -0.04396774 0.04500000
v -0.31712928 -0.03984779 0.04500000
v -0.31489304 -0.04463466 0.04500000
v -0.32061553 -0.04000000 0.04500000
v -0.31879717 -0.04496325 0.04500000
v -0.32410175 -0.03984779 0.04500000
v -0.32271510 -0.04495099 0.04500000
v -0.32756147 -0.03939231 0.04500000
v -0.32661709 -0.04459799 0.04500000
v -0.33096829 -0.03863703 0.04500000
v -0.33047360 -0.04390693 0.04500000
v -0.33429635 -0.03758771 0.04500000
v -0.33425537 -0.04288303 0.04500000
v -0.33752027 -0.03625231 0.04500000
v -0.33793375 -0.04153407 0.04500000
v -0.34061554 -0.03464102 0.04500000
v -0.34148085 -0.03987026 0.04500000
v -0.34355858 -0.03276608 0.04500000
v -0.34486979 -0.03790423 0.04500000
v -0.34632704 -0.03064178 0.04500000
v -0.34807488 -0.03565086 0.04500000
v -0.34889981 -0.02828427 0.04500000
v -0.35107180 -0.03312725 0.04500000
v -0.35125729 -0.02571150 0.04500000
v -0.35383788 -0.03035253 0.04500000
v -0.35338160 -0.02294306 0.04500000
v -0.35635209 -0.02734772 0.04500000
v -0.35525656 -0.02000000 0.04500000
v -0.35859543 -0.02413560 0.04500000
v -0.35686785 -0.01690473 0.04500000
v -0.36055085 -0.02074053 0.04500000
v -0.35820323 -0.01368081 0.04500000
v -0.36220357 -0.01718824 0.04500000
v -0.35925257 -0.01035276 0.04500000
v -0.36354101 -0.01350566 0.04500000
v -0.36000785 -0.00694593 0.04500000
v -0.36455306 -0.00972070 0.04500000
v -0.36046332 -0.00348623 0.04500000
v -0.36523208 -0.00586205 0.04500000
v -0.36557287 -0.00195897 0.04500000
v -0.36061552 -0.00000000 0.04500000
v -0.36557287 0.00195897 0.04500000
v -0.36046332 0.00348623 0.04500000
v -0.36523208 0.00586205 0.04500000
v -0.36000785 0.00694593 0.04500000
v -0.36455306 0.00972070 0.04500000
v -0.35925257 0.01035276 0.04500000
v -0.36354101 0.01350566 0.04500000
v -0.35820323 0.01368081 0.04500000
v -0.36220357 0.01718824 0.04500000
v -0.35686785 0.01690473 0.04500000
v -0.36055085 0.02074053 0.04500000
v -0.35525656 0.02000000 0.04500000
v -0.35859543 0.02413560 0.04500000
v -0.35338160 0.02294306 0.04500000
v -0.35635209 0.02734772 0.04500000
v -0.35125729 0.02571150 0.04500000
v -0.35383788 0.03035253 0.04500000
v -0.34889981 0.02828427 0.04500000
v -0.35107180 0.03312725 0.04500000
v -0.34632704 0.03064178 0.04500000
v -0.34807488 0.03565086 0.04500000
v -0.34355858 0.03276608 0.04500000
v -0.34486979 0.03790423 0.04500000
v -0.34061554 0.03464102 0.04500000
v -0.34148085 0.03987026 0.04500000
v -0.33752027 0.03625231 0.04500000
v -0.33793375 0.04153407 0.04500000
v -0.33429635 0.03758771 0.04500000
v -0.33425537 0.04288303 0.04500000
v -0.33096829 0.03863703 0.04500000
v -0.33047360 0.04390693 0.04500000
v -0.32756147 0.03939231 0.04500000
v -0.32661709 0.04459799 0.04500000
v -0.32410175 0.03984779 0.04500000
v -0.32271510 0.04495099 0.04500000
v -0.32061553 0.04000000 0.04500000
v -0.31879717 0.04496325 0.04500000
v -0.31712928 0.03984779 0.04500000
v -0.31489304 0.04463466 0.04500000
v -0.31366959 0.03939231 0.04500000
v -0.31103230 0.04396774 0.04500000
v -0.31026277 0.03863703 0.04500000
v -0.30724418 0.04296751 0.04500000
v -0.30693471 0.03758771 0.04500000
v -0.30500001 0.04220374 0.04500000
v -0.30500001 0.03682601 0.04500000
v -0.00453154 0.00211309 0.00500000
v -0.00433013 0.00250000 0.00500000
v -0.00866025 -0.00500000 0.00500000
v -0.00866025 0.00500000 0.00500000
v -0.05866025 0.00500000 0.00500000
v -0.05866025 -0.00500000 0.00500000
v -0.00469846 0.00171010 0.00500000
v -0.00492404 -0.00086824 0.00500000
v -0.00498097 -0.00043578 0.00500000
v -0.00500000 -0.00000000 0.00500000
v -0.00498097 0.00043578 0.00500000
v -0.00492404 0.00086824 0.00500000
v -0.00482963 0.00129410 0.00500000
v -0.00453154 -0.00211309 0.00500000
v -0.00469846 -0.00171010 0.00500000
v -0.00482963 -0.00129410 0.00500000
v -0.00819152 0.00573576 0.00500000
v -0.00409576 0.00286788 0.00500000
v -0.00766044 0.00642788 0.00500000
v -0.00383022 0.00321394 0.00500000
v -0.00707107 0.00707107 0.00500000
v -0.00353553 0.00353553 0.00500000
v -0.00642788 0.00766044 0.00500000
v -0.00321394 0.00383022 0.00500000
v -0.00573576 0.00819152 0.00500000
v -0.00286788 0.00409576 0.00500000
v -0.00500000 0.00866025 0.00500000
v -0.00250000 0.00433013 0.00500000
v -0.00422618 0.00906308 0.00500000
v -0.00211309 0.00453154 0.00500000
v -0.00342020 0.00939693 0.00500000
v -0.00171010 0.00469846 0.00500000
v -0.00258819 0.00965926 0.00500000
v -0.00129410 0.00482963 0.00500000
v -0.00173648 0.00984808 0.00500000
v -0.00086824 0.00492404 0.00500000
v -0.00087156 0.00996195 0.00500000
v -0.00043578 0.00498097 0.00500000
v 0.00000000 0.01000000 0.00500000
v -0.00000000 0.00500000 0.00500000
v 0.00087156 0.00996195 0.00500000
v 0.00043578 0.00498097 0.00500000
v 0.00173648 0.00984808 0.00500000
v 0.00086824 0.00492404 0.00500000
v 0.00258819 0.00965926 0.00500000
v 0.00129410 0.00482963 0.00500000
v 0.00342020 0.00939693 0.00500000
v 0.00171010 0.00469846 0.00500000
v 0.00422618 0.00906308 0.00500000
v 0.00211309 0.00453154 0.00500000
v 0.00500000 0.00866025 0.00500000
v 0.00250000 0.00433013 0.00500000
v 0.00573576 0.00819152 0.00500000
v 0.00286788 0.00409576 0.00500000
v 0.00642788 0.00766044 0.00500000
v 0.00321394 0.00383022 0.00500000
v 0.00707107 0.00707107 0.00500000
v 0.00353553 0.00353553 0.00500000
v 0.00766044 0.00642788 0.00500000
v 0.00383022 0.00321394 0.00500000
v 0.00819152 0.00573576 0.00500000
v 0.00409576 0.00286788 0.00500000
v 0.00866025 0.00500000 0.00500000
v 0.00433013 0.00250000 0.00500000
v 0.00906308 0.00422618 0.00500000
v 0.00453154 0.00211309 0.00500000
v 0.00939693 0.00342020 0.00500000
v 0.00469846 0.00171010 0.00500000
v 0.00965926 0.00258819 0.00500000
v 0.00482963 0.00129410 0.00500000
v 0.00984808 0.00173648 0.00500000
v 0.00492404 0.00086824 0.00500000
v 0.00996195 0.00087156 0.00500000
v 0.00498097 0.00043578 0.00500000
v 0.01000000 -0.00000000 0.00500000
v 0.00500000 0.00000000 0.00500000
v 0.00996195 -0.00087156 0.00500000
v 0.00498097 -0.00043578 0.00500000
v 0.00984808 -0.00173648 0.00500000
v 0.00492404 -0.00086824 0.00500000
v 0.00965926 -0.00258819 0.00500000
v 0.00482963 -0.00129410 0.00500000
v 0.00939693 -0.00342020 0.00500000
v 0.00469846 -0.00171010 0.00500000
v 0.00906308 -0.00422618 0.00500000
v 0.00453154 -0.00211309 0.00500000
v 0.00866025 -0.00500000 0.00500000
v 0.00433013 -0.00250000 0.00500000
v 0.00819152 -0.00573576 0.00500000
v 0.00409576 -0.00286788 0.00500000
v 0.00766044 -0.00642788 0.00500000
v 0.00383022 -0.00321394 0.00500000
v 0.00707107 -0.00707107 0.00500000
v 0.00353553 -0.00353553 0.00500000
v 0.00642788 -0.00766044 0.00500000
v 0.00321394 -0.00383022 0.00500000
v 0.00573576 -0.00819152 0.00500000
v 0.00286788 -0.00409576 0.00500000
v 0.00500000 -0.00866025 0.00500000
v 0.00250000 -0.00433013 0.00500000
v 0.00422618 -0.00906308 0.00500000
v 0.00211309 -0.00453154 0.00500000
v 0.00342020 -0.00939693 0.00500000
v 0.00171010 -0.00469846 0.00500000
v 0.00258819 -0.00965926 0.00500000
v 0.00129410 -0.00482963 0.00500000
v 0.00173648 -0.00984808 0.00500000
v 0.00086824 -0.00492404 0.00500000
v 0.00087156 -0.00996195 0.00500000
v 0.00043578 -0.00498097 0.00500000
v -0.00000000 -0.01000000 0.00500000
v 0.00000000 -0.00500000 0.00500000
v -0.00087156 -0.00996195 0.00500000
v -0.00043578 -0.00498097 0.00500000
v -0.00173648 -0.00984808 0.00500000
v -0.00086824 -0.00492404 0.00500000
v -0.00258819 -0.00965926 0.00500000
v -0.00129410 -0.00482963 0.00500000
v -0.00342020 -0.00939693 0.00500000
v -0.00171010 -0.00469846 0.00500000
v -0.00422618 -0.00906308 0.00500000
v -0.00211309 -0.00453154 0.00500000
v -0.00500000 -0.00866025 0.00500000
v -0.00250000 -0.00433013 0.00500000
v -0.00573576 -0.00819152 0.00500000
v -0.00286788 -0.00409576 0.00500000
v -0.00642788 -0.00766044 0.00500000
v -0.00321394 -0.00383022 0.00500000
v -0.00707107 -0.00707107 0.00500000
v -0.00353553 -0.00353553 0.00500000
v -0.00766044 -0.00642788 0.00500000
v -0.00383022 -0.00321394 0.00500000
v -0.00819152 -0.00573576 0.00500000
v -0.00409576 -0.00286788 0.00500000
v -0.00433013 -0.00250000 0.00500000
v -0.30355746 0.04164159 0.00000000
v -0.30355746 0.04164159 0.05000000
v -0.30724418 0.04296751 0.05000000
v -0.30724418 0.04296751 0.00000000
v -0.31103230 0.04396774 0.00000000
v -0.31489304 0.04463466 0.00000000
v -0.31879717 0.04496325 0.00000000
v -0.32271510 0.04495099 0.00000000
v -0.32661709 0.04459799 0.00000000
v -0.33047360 0.04390693 0.00000000
v -0.33425537 0.04288303 0.00000000
v -0.33793375 0.04153407 0.00000000
v -0.34148085 0.03987026 0.00000000
v -0.34486979 0.03790423 0.00000000
v -0.34807488 0.03565086 0.00000000
v -0.35107180 0.03312725 0.00000000
v -0.35383788 0.03035253 0.00000000
v -0.35635209 0.02734772 0.00000000
v -0.35859543 0.02413560 0.00000000
v -0.36055085 0.02074053 0.00000000
v -0.36220357 0.01718824 0.00000000
v -0.36354101 0.01350566 0.00000000
v -0.36455306 0.00972070 0.00000000
v -0.36523208 0.00586205 0.00000000
v -0.36557287 0.00195897 0.00000000
v -0.36557287 -0.00195897 0.00000000
v -0.36523208 -0.00586205 0.00000000
v -0.36455306 -0.00972070 0.00000000
v -0.36354101 -0.01350566 0.00000000
v -0.36220357 -0.01718824 0.00000000
v -0.36055085 -0.02074053 0.00000000
v -0.35859543 -0.02413560 0.00000000
v -0.35635209 -0.02734772 0.00000000
v -0.35383788 -0.03035253 0.00000000
v -0.35107180 -0.03312725 0.00000000
v -0.34807488 -0.03565086 0.00000000
v -0.34486979 -0.03790423 0.00000000
v -0.34148085 -0.03987026 0.00000000
v -0.33793375 -0.04153407 0.00000000
v -0.33425537 -0.04288303 0.00000000
v -0.33047360 -0.04390693 0.00000000
v -0.32661709 -0.04459799 0.00000000
v -0.32271510 -0.04495099 0.00000000
v -0.31879717 -0.04496325 0.00000000
v -0.31489304 -0.04463466 0.00000000
v -0.31103230 -0.04396774 0.00000000
v -0.30724418 -0.04296751 0.00000000
v -0.30355746 -0.04164159 0.05000000
v -0.30724418 -0.04296751 0.05000000
v -0.31103230 -0.04396774 0.05000000
v -0.31489304 -0.04463466 0.05000000
v -0.31879717 -0.04496325 0.05000000
v -0.32271510 -0.04495099 0.05000000
v -0.32661709 -0.04459799 0.05000000
v -0.33047360 -0.04390693 0.05000000
v -0.33425537 -0.04288303 0.05000000
v -0.33793375 -0.04153407 0.05000000
v -0.34148085 -0.03987026 0.05000000
v -0.34486979 -0.03790423 0.05000000
v -0.34807488 -0.03565086 0.05000000
v -0.35107180 -0.03312725 0.05000000
v -0.35383788 -0.03035253 0.05000000
v -0.35635209 -0.02734772 0.05000000
v -0.35859543 -0.02413560 0.05000000
v -0.36055085 -0.02074053 0.05000000
v -0.36220357 -0.01718824 0.05000000
v -0.36354101 -0.01350566 0.05000000
v -0.36455306 -0.00972070 0.05000000
v -0.36523208 -0.00586205 0.05000000
v -0.36557287 -0.00195897 0.05000000
v -0.36557287 0.00195897 0.05000000
v -0.36523208 0.00586205 0.05000000
v -0.36455306 0.00972070 0.05000000
v -0.36354101 0.01350566 0.05000000
v -0.36220357 0.01718824 0.05000000
v -0.36055085 0.02074053 0.05000000
v -0.35859543 0.02413560 0.05000000
v -0.35635209 0.02734772 0.05000000
v -0.35383788 0.03035253 0.05000000
v -0.35107180 0.03312725 0.05000000
v -0.34807488 0.03565086 0.05000000
v -0.34486979 0.03790423 0.05000000
v -0.34148085 0.03987026 0.05000000
v -0.33793375 0.04153407 0.05000000
v -0.33425537 0.04288303 0.05000000
v -0.33047360 0.04390693 0.05000000
v -0.32661709 0.04459799 0.05000000
v -0.32271510 0.04495099 0.05000000
v -0.31879717 0.04496325 0.05000000
v -0.31489304 0.04463466 0.05000000
v -0.31103230 0.04396774 0.05000000
v -0.30000001 0.04000000 0.05000000
v -0.30000001 0.04000000 0.00000000
v -0.30355746 -0.04164159 0.00000000
v -0.30000001 -0.04000000 0.00000000
v -0.30000001 -0.04000000 0.05000000
v -0.00866025 -0.00500000 0.05000000
v -0.00866025 -0.00500000 0.04500000
v -0.00819152 -0.00573576 0.04500000
v -0.00819152 -0.00573576 0.05000000
v -0.00766044 -0.00642788 0.04500000
v -0.00766044 -0.00642788 0.05000000
v -0.00707107 -0.00707107 0.04500000
v -0.00707107 -0.00707107 0.05000000
v -0.00642788 -0.00766044 0.04500000
v -0.00642788 -0.00766044 0.05000000
v -0.00573576 -0.00819152 0.04500000
v -0.00573576 -0.00819152 0.05000000
v -0.00500000 -0.00866025 0.04500000
v -0.00500000 -0.00866025 0.05000000
v -0.00422618 -0.00906308 0.04500000
v -0.00422618 -0.00906308 0.05000000
v -0.00342020 -0.00939693 0.04500000
v -0.00342020 -0.00939693 0.05000000
v -0.00258819 -0.00965926 0.04500000
v -0.00258819 -0.00965926 0.05000000
v -0.00173648 -0.00984808 0.04500000
v -0.00173648 -0.00984808 0.05000000
v -0.00087156 -0.00996195 0.04500000
v -0.00087156 -0.00996195 0.05000000
v -0.00000000 -0.01000000 0.04500000
v -0.00000000 -0.01000000 0.05000000
v 0.00087156 -0.00996195 0.04500000
v 0.00087156 -0.00996195 0.05000000
v 0.00173648 -0.00984808 0.04500000
v 0.00173648 -0.00984808 0.05000000
v 0.00258819 -0.00965926 0.04500000
v 0.00258819 -0.00965926 0.05000000
v 0.00342020 -0.00939693 0.04500000
v 0.00342020 -0.00939693 0.05000000
v 0.00422618 -0.00906308 0.04500000
v 0.00422618 -0.00906308 0.05000000
v 0.00500000 -0.00866025 0.04500000
v 0.00500000 -0.00866025 0.05000000
v 0.00573576 -0.00819152 0.04500000
v 0.00573576 -0.00819152 0.05000000
v 0.00642788 -0.00766044 0.04500000
v 0.00642788 -0.00766044 0.05000000
v 0.00707107 -0.00707107 0.04500000
v 0.00707107 -0.00707107 0.05000000
v 0.00766044 -0.00642788 0.04500000
v 0.00766044 -0.00642788 0.05000000
v 0.00819152 -0.00573576 0.04500000
v 0.00819152 -0.00573576 0.05000000
v 0.00866025 -0.00500000 0.04500000
v 0.00866025 -0.00500000 0.05000000
v 0.00906308 -0.00422618 0.04500000
v 0.00906308 -0.00422618 0.05000000
v 0.00939693 -0.00342020 0.04500000
v 0.00939693 -0.00342020 0.05000000
v 0.00965926 -0.00258819 0.04500000
v 0.00965926 -0.00258819 0.05000000
v 0.00984808 -0.00173648 0.04500000
v 0.00984808 -0.00173648 0.05000000
v 0.00996195 -0.00087156 0.04500000
v 0.00996195 -0.00087156 0.05000000
v 0.01000000 -0.00000000 0.04500000
v 0.01000000 -0.00000000 0.05000000
v 0.00996195 0.00087156 0.04500000
v 0.00996195 0.00087156 0.05000000
v 0.00984808 0.00173648 0.04500000
v 0.00984808 0.00173648 0.05000000
v 0.00965926 0.00258819 0.04500000
v 0.00965926 0.00258819 0.05000000
v 0.00939693 0.00342020 0.04500000
v 0.00939693 0.00342020 0.05000000
v 0.00906308 0.00422618 0.04500000
v 0.00906308 0.00422618 0.05000000
v 0.00866025 0.00500000 0.04500000
v 0.00866025 0.00500000 0.05000000
v 0.00819152 0.00573576 0.04500000
v 0.00819152 0.00573576 0.05000000
v 0.00766044 0.00642788 0.04500000
v 0.00766044 0.00642788 0.05000000
v 0.00707107 0.00707107 0.04500000
v 0.00707107 0.00707107 0.05000000
v 0.00642788 0.00766044 0.04500000
v 0.00642788 0.00766044 0.05000000
v 0.00573576 0.00819152 0.04500000
v 0.00573576 0.00819152 0.05000000
v 0.00500000 0.00866025 0.04500000
v 0.00500000 0.00866025 0.05000000
v 0.00422618 0.00906308 0.04500000
v 0.00422618 0.00906308 0.05000000
v 0.00342020 0.00939693 0.04500000
v 0.00342020 0.00939693 0.05000000
v 0.00258819 0.00965926 0.04500000
v 0.00258819 0.00965926 0.05000000
v 0.00173648 0.00984808 0.04500000
v 0.00173648 0.00984808 0.05000000
v 0.00087156 0.00996195 0.04500000
v 0.00087156 0.00996195 0.05000000
v 0.00000000 0.01000000 0.04500000
v 0.00000000 0.01000000 0.05000000
v -0.00087156 0.00996195 0.04500000
v -0.00087156 0.00996195 0.05000000
v -0.00173648 0.00984808 0.04500000
v -0.00173648 0.00984808 0.05000000
v -0.00258819 0.00965926 0.04500000
v -0.00258819 0.00965926 0.05000000
v -0.00342020 0.00939693 0.04500000
v -0.00342020 0.00939693 0.05000000
v -0.00422618 0.00906308 0.04500000
v -0.00422618 0.00906308 0.05000000
v -0.00500000 0.00866025 0.04500000
v -0.00500000 0.00866025 0.05000000
v -0.00573576 0.00819152 0.04500000
v -0.00573576 0.00819152 0.05000000
v -0.00642788 0.00766044 0.04500000
v -0.00642788 0.00766044 0.05000000
v -0.00707107 0.00707107 0.04500000
v -0.00707107 0.00707107 0.05000000
v -0.00766044 0.00642788 0.04500000
v -0.00766044 0.00642788 0.05000000
v -0.00819152 0.00573576 0.04500000
v -0.00819152 0.00573576 0.05000000
v -0.00866025 0.00500000 0.04500000
v -0.00866025 0.00500000 0.05000000
v -0.10000000 0.04000000 0.05000000
v -0.06866025 0.00500000 0.05000000
v -0.06866025 0.00500000 0.00000000
v -0.10000000 0.04000000 0.00000000
v -0.06866025 -0.00500000 0.00000000
v -0.10000000 -0.04000000 0.00000000
v -0.00469846 -0.00171010 0.00000000
v -0.00866025 -0.00500000 0.00000000
v -0.00482963 -0.00129410 0.00000000
v -0.00492404 -0.00086824 0.00000000
v -0.00286788 0.00409576 0.00000000
v -0.00321394 0.00383022 0.00000000
v -0.00866025 0.00500000 0.00000000
v -0.00482963 0.00129410 0.00000000
v -0.00492404 0.00086824 0.00000000
v -0.00498097 0.00043578 0.00000000
v -0.00500000 -0.00000000 0.00000000
v -0.00498097 -0.00043578 0.00000000
v -0.00250000 0.00433013 0.00000000
v -0.00353553 0.00353553 0.00000000
v -0.00383022 0.00321394 0.00000000
v -0.00409576 0.00286788 0.00000000
v -0.28122321 0.00694593 0.00000000
v -0.28076774 0.00348623 0.00000000
v -0.28197849 0.01035276 0.00000000
v -0.28302783 0.01368081 0.00000000
v -0.28436321 0.01690473 0.00000000
v -0.28597450 0.02000000 0.00000000
v -0.28784946 0.02294306 0.00000000
v -0.28997374 0.02571150 0.00000000
v -0.00086824 0.00492404 0.00000000
v -0.00129410 0.00482963 0.00000000
v -0.00433013 0.00250000 0.00000000
v -0.00453154 0.00211309 0.00000000
v -0.00469846 0.00171010 0.00000000
v -0.29233125 -0.02828427 0.00000000
v -0.28997374 -0.02571150 0.00000000
v -0.30371079 -0.03625231 0.00000000
v -0.30061552 -0.03464102 0.00000000
v -0.29767248 -0.03276608 0.00000000
v -0.29490402 -0.03064178 0.00000000
v -0.28197849 -0.01035276 0.00000000
v -0.28302783 -0.01368081 0.00000000
v -0.28436321 -0.01690473 0.00000000
v -0.28122321 -0.00694593 0.00000000
v -0.28076774 -0.00348623 0.00000000
v -0.28061554 -0.00000000 0.00000000
v -0.29233125 0.02828427 0.00000000
v -0.29490402 0.03064178 0.00000000
v -0.29767248 0.03276608 0.00000000
v -0.28784946 -0.02294306 0.00000000
v -0.28597450 -0.02000000 0.00000000
v -0.00171010 0.00469846 0.00000000
v -0.00211309 0.00453154 0.00000000
v -0.00819152 0.00573576 0.00000000
v -0.00000000 0.00500000 0.00000000
v -0.00043578 0.00498097 0.00000000
v -0.30693471 -0.03758771 0.00000000
v -0.31026277 -0.03863703 0.00000000
v -0.31366959 -0.03939231 0.00000000
v -0.31712928 -0.03984779 0.00000000
v -0.32061553 -0.04000000 0.00000000
v -0.32410175 -0.03984779 0.00000000
v -0.32756147 -0.03939231 0.00000000
v -0.33096829 -0.03863703 0.00000000
v -0.33429635 -0.03758771 0.00000000
v -0.33752027 -0.03625231 0.00000000
v -0.34061554 -0.03464102 0.00000000
v -0.34355858 -0.03276608 0.00000000
v -0.34632704 -0.03064178 0.00000000
v -0.34889981 -0.02828427 0.00000000
v -0.35125729 -0.02571150 0.00000000
v -0.35338160 -0.02294306 0.00000000
v -0.35525656 -0.02000000 0.00000000
v -0.35686785 -0.01690473 0.00000000
v -0.35820323 -0.01368081 0.00000000
v -0.35925257 -0.01035276 0.00000000
v -0.36000785 -0.00694593 0.00000000
v -0.36046332 -0.00348623 0.00000000
v -0.00766044 0.00642788 0.00000000
v -0.00707107 0.00707107 0.00000000
v -0.00642788 0.00766044 0.00000000
v -0.00573576 0.00819152 0.00000000
v -0.00500000 0.00866025 0.00000000
v -0.00422618 0.00906308 0.00000000
v -0.00453154 -0.00211309 0.00000000
v -0.00433013 -0.00250000 0.00000000
v -0.00819152 -0.00573576 0.00000000
v -0.00409576 -0.00286788 0.00000000
v -0.00766044 -0.00642788 0.00000000
v -0.00383022 -0.00321394 0.00000000
v -0.00707107 -0.00707107 0.00000000
v -0.00353553 -0.00353553 0.00000000
v -0.00642788 -0.00766044 0.00000000
v -0.00321394 -0.00383022 0.00000000
v -0.00573576 -0.00819152 0.00000000
v -0.00286788 -0.00409576 0.00000000
v -0.00500000 -0.00866025 0.00000000
v -0.00250000 -0.00433013 0.00000000
v -0.00422618 -0.00906308 0.00000000
v -0.00211309 -0.00453154 0.00000000
v -0.00342020 -0.00939693 0.00000000
v -0.00171010 -0.00469846 0.00000000
v -0.00258819 -0.00965926 0.00000000
v -0.00129410 -0.00482963 0.00000000
v -0.00173648 -0.00984808 0.00000000
v -0.00086824 -0.00492404 0.00000000
v -0.00087156 -0.00996195 0.00000000
v -0.00043578 -0.00498097 0.00000000
v -0.00000000 -0.01000000 0.00000000
v 0.00000000 -0.00500000 0.00000000
v 0.00087156 -0.00996195 0.00000000
v 0.00043578 -0.00498097 0.00000000
v 0.00173648 -0.00984808 0.00000000
v 0.00086824 -0.00492404 0.00000000
v 0.00258819 -0.00965926 0.00000000
v 0.00129410 -0.00482963 0.00000000
v 0.00342020 -0.00939693 0.00000000
v 0.00171010 -0.00469846 0.00000000
v 0.00422618 -0.00906308 0.00000000
v 0.00211309 -0.00453154 0.00000000
v 0.00500000 -0.00866025 0.00000000
v 0.00250000 -0.00433013 0.00000000
v 0.00573576 -0.00819152 0.00000000
v 0.00286788 -0.00409576 0.00000000
v 0.00642788 -0.00766044 0.00000000
v 0.00321394 -0.00383022 0.00000000
v 0.00707107 -0.00707107 0.00000000
v 0.00353553 -0.00353553 0.00000000
v 0.00766044 -0.00642788 0.00000000
v 0.00383022 -0.00321394 0.00000000
v 0.00819152 -0.00573576 0.00000000
v 0.00409576 -0.00286788 0.00000000
v 0.00866025 -0.00500000 0.00000000
v 0.00433013 -0.00250000 0.00000000
v 0.00906308 -0.00422618 0.00000000
v 0.00453154 -0.00211309 0.00000000
v 0.00939693 -0.00342020 0.00000000
v 0.00469846 -0.00171010 0.00000000
v 0.00965926 -0.00258819 0.00000000
v 0.00482963 -0.00129410 0.00000000
v 0.00984808 -0.00173648 0.00000000
v 0.00492404 -0.00086824 0.00000000
v 0.00996195 -0.00087156 0.00000000
v 0.00498097 -0.00043578 0.00000000
v 0.01000000 -0.00000000 0.00000000
v 0.00500000 0.00000000 0.00000000
v 0.00996195 0.00087156 0.00000000
v 0.00498097 0.00043578 0.00000000
v 0.00984808 0.00173648 0.00000000
v 0.00492404 0.00086824 0.00000000
v 0.00965926 0.00258819 0.00000000
v 0.00482963 0.00129410 0.00000000
v 0.00939693 0.00342020 0.00000000
v 0.00469846 0.00171010 0.00000000
v 0.00906308 0.00422618 0.00000000
v 0.00453154 0.00211309 0.00000000
v 0.00866025 0.00500000 0.00000000
v 0.00433013 0.00250000 0.00000000
v 0.00819152 0.00573576 0.00000000
v 0.00409576 0.00286788 0.00000000
v 0.00766044 0.00642788 0.00000000
v 0.00383022 0.00321394 0.00000000
v 0.00707107 0.00707107 0.00000000
v 0.00353553 0.00353553 0.00000000
v 0.00642788 0.00766044 0.00000000
v 0.00321394 0.00383022 0.00000000
v 0.00573576 0.00819152 0.00000000
v 0.00286788 0.00409576 0.00000000
v 0.00500000 0.00866025 0.00000000
v 0.00250000 0.00433013 0.00000000
v 0.00422618 0.00906308 0.00000000
v 0.00211309 0.00453154 0.00000000
v 0.00342020 0.00939693 0.00000000
v 0.00171010 0.00469846 0.00000000
v 0.00258819 0.00965926 0.00000000
v 0.00129410 0.00482963 0.00000000
v 0.00173648 0.00984808 0.00000000
v 0.00086824 0.00492404 0.00000000
v 0.00087156 0.00996195 0.00000000
v 0.00043578 0.00498097 0.00000000
v 0.00000000 0.01000000 0.00000000
v -0.00087156 0.00996195 0.00000000
v -0.00173648 0.00984808 0.00000000
v -0.36061552 -0.00000000 0.00000000
v -0.36046332 0.00348623 0.00000000
v -0.36000785 0.00694593 0.00000000
v -0.35925257 0.01035276 0.00000000
v -0.35820323 0.01368081 0.00000000
v -0.35686785 0.01690473 0.00000000
v -0.35525656 0.02000000 0.00000000
v -0.35338160 0.02294306 0.00000000
v -0.35125729 0.02571150 0.00000000
v -0.34889981 0.02828427 0.00000000
v -0.34632704 0.03064178 0.00000000
v -0.34355858 0.03276608 0.00000000
v -0.34061554 0.03464102 0.00000000
v -0.33752027 0.03625231 0.00000000
v -0.33429635 0.03758771 0.00000000
v -0.33096829 0.03863703 0.00000000
v -0.32756147 0.03939231 0.00000000
v -0.32410175 0.03984779 0.00000000
v -0.32061553 0.04000000 0.00000000
v -0.31712928 0.03984779 0.00000000
v -0.31366959 0.03939231 0.00000000
v -0.31026277 0.03863703 0.00000000
v -0.30693471 0.03758771 0.00000000
v -0.30371079 0.03625231 0.00000000
v -0.30061552 0.03464102 0.00000000
v -0.00342020 0.00939693 0.00000000
v -0.00258819 0.00965926 0.00000000
v -0.10000000 -0.04000000 0.02130000
v -0.06866025 -0.00500000 0.05000000
v -0.10000000 -0.04000000 0.05000000
v -0.05866025 0.00500000 0.04500000
v -0.00500000 -0.00000000 0.05000000
v -0.00500000 -0.00000000 0.04500000
v -0.00498097 0.00043578 0.05000000
v -0.00498097 0.00043578 0.04500000
v -0.00492404 0.00086824 0.05000000
v -0.00492404 0.00086824 0.04500000
v -0.00482963 0.00129410 0.05000000
v -0.00482963 0.00129410 0.04500000
v -0.00469846 0.00171010 0.05000000
v -0.00469846 0.00171010 0.04500000
v -0.00453154 0.00211309 0.05000000
v -0.00453154 0.00211309 0.04500000
v -0.00433013 0.00250000 0.05000000
v -0.00433013 0.00250000 0.04500000
v -0.00409576 0.00286788 0.05000000
v -0.00409576 0.00286788 0.04500000
v -0.00383022 0.00321394 0.05000000
v -0.00383022 0.00321394 0.04500000
v -0.00353553 0.00353553 0.05000000
v -0.00353553 0.00353553 0.04500000
v -0.00321394 0.00383022 0.05000000
v -0.00321394 0.00383022 0.04500000
v -0.00286788 0.00409576 0.05000000
v -0.00286788 0.00409576 0.04500000
v -0.00250000 0.00433013 0.05000000
v -0.00250000 0.00433013 0.04500000
v -0.00211309 0.00453154 0.05000000
v -0.00211309 0.00453154 0.04500000
v -0.00171010 0.00469846 0.05000000
v -0.00171010 0.00469846 0.04500000
v -0.00129410 0.00482963 0.05000000
v -0.00129410 0.00482963 0.04500000
v -0.00086824 0.00492404 0.05000000
v -0.00086824 0.00492404 0.04500000
v -0.00043578 0.00498097 0.05000000
v -0.00043578 0.00498097 0.04500000
v -0.00000000 0.00500000 0.05000000
v -0.00000000 0.00500000 0.04500000
v 0.00043578 0.00498097 0.05000000
v 0.00043578 0.00498097 0.04500000
v 0.00086824 0.00492404 0.05000000
v 0.00086824 0.00492404 0.04500000
v 0.00129410 0.00482963 0.05000000
v 0.00129410 0.00482963 0.04500000
v 0.00171010 0.00469846 0.05000000
v 0.00171010 0.00469846 0.04500000
v 0.00211309 0.00453154 0.05000000
v 0.00211309 0.00453154 0.04500000
v 0.00250000 0.00433013 0.05000000
v 0.00250000 0.00433013 0.04500000
v 0.00286788 0.00409576 0.05000000
v 0.00286788 0.00409576 0.04500000
v 0.00321394 0.00383022 0.05000000
v 0.00321394 0.00383022 0.04500000
v 0.00353553 0.00353553 0.05000000
v 0.00353553 0.00353553 0.04500000
v 0.00383022 0.00321394 0.05000000
v 0.00383022 0.00321394 0.04500000
v 0.00409576 0.00286788 0.05000000
v 0.00409576 0.00286788 0.04500000
v 0.00433013 0.00250000 0.05000000
v 0.00433013 0.00250000 0.04500000
v 0.00453154 0.00211309 0.05000000
v 0.00453154 0.00211309 0.04500000
v 0.00469846 0.00171010 0.05000000
v 0.00469846 0.00171010 0.04500000
v 0.00482963 0.00129410 0.05000000
v 0.00482963 0.00129410 0.04500000
v 0.00492404 0.00086824 0.05000000
v 0.00492404 0.00086824 0.04500000
v 0.00498097 0.00043578 0.05000000
v 0.00498097 0.00043578 0.04500000
v 0.00500000 0.00000000 0.05000000
v 0.00500000 0.00000000 0.04500000
v 0.00498097 -0.00043578 0.05000000
v 0.00498097 -0.00043578 0.04500000
v 0.00492404 -0.00086824 0.05000000
v 0.00492404 -0.00086824 0.04500000
v 0.00482963 -0.00129410 0.05000000
v 0.00482963 -0.00129410 0.04500000
v 0.00469846 -0.00171010 0.05000000
v 0.00469846 -0.00171010 0.04500000
v 0.00453154 -0.00211309 0.05000000
v 0.00453154 -0.00211309 0.04500000
v 0.00433013 -0.00250000 0.05000000
v 0.00433013 -0.00250000 0.04500000
v 0.00409576 -0.00286788 0.05000000
v 0.00409576 -0.00286788 0.04500000
v 0.00383022 -0.00321394 0.05000000
v 0.00383022 -0.00321394 0.04500000
v 0.00353553 -0.00353553 0.05000000
v 0.00353553 -0.00353553 0.04500000
v 0.00321394 -0.00383022 0.05000000
v 0.00321394 -0.00383022 0.04500000
v 0.00286788 -0.00409576 0.05000000
v 0.00286788 -0.00409576 0.04500000
v 0.00250000 -0.00433013 0.05000000
v 0.00250000 -0.00433013 0.04500000
v 0.00211309 -0.00453154 0.05000000
v 0.00211309 -0.00453154 0.04500000
v 0.00171010 -0.00469846 0.05000000
v 0.00171010 -0.00469846 0.04500000
v 0.00129410 -0.00482963 0.05000000
v 0.00129410 -0.00482963 0.04500000
v 0.00086824 -0.00492404 0.05000000
v 0.00086824 -0.00492404 0.04500000
v 0.00043578 -0.00498097 0.05000000
v 0.00043578 -0.00498097 0.04500000
v 0.00000000 -0.00500000 0.05000000
v 0.00000000 -0.00500000 0.04500000
v -0.00043578 -0.00498097 0.05000000
v -0.00043578 -0.00498097 0.04500000
v -0.00086824 -0.00492404 0.05000000
v -0.00086824 -0.00492404 0.04500000
v -0.00129410 -0.00482963 0.05000000
v -0.00129410 -0.00482963 0.04500000
v -0.00171010 -0.00469846 0.05000000
v -0.00171010 -0.00469846 0.04500000
v -0.00211309 -0.00453154 0.05000000
v -0.00211309 -0.00453154 0.04500000
v -0.00250000 -0.00433013 0.05000000
v -0.00250000 -0.00433013 0.04500000
v -0.00286788 -0.00409576 0.05000000
v -0.00286788 -0.00409576 0.04500000
v -0.00321394 -0.00383022 0.05000000
v -0.00321394 -0.00383022 0.04500000
v -0.00353553 -0.00353553 0.05000000
v -0.00353553 -0.00353553 0.04500000
v -0.00383022 -0.00321394 0.05000000
v -0.00383022 -0.00321394 0.04500000
v -0.00409576 -0.00286788 0.05000000
v -0.00409576 -0.00286788 0.04500000
v -0.00433013 -0.00250000 0.05000000
v -0.00433013 -0.00250000 0.04500000
v -0.00453154 -0.00211309 0.05000000
v -0.00453154 -0.00211309 0.04500000
v -0.00469846 -0.00171010 0.05000000
v -0.00469846 -0.00171010 0.04500000
v -0.00482963 -0.00129410 0.05000000
v -0.00482963 -0.00129410 0.04500000
v -0.00492404 -0.00086824 0.05000000
v -0.00492404 -0.00086824 0.04500000
v -0.00498097 -0.00043578 0.05000000
v -0.00498097 -0.00043578 0.04500000
v -0.05866025 -0.00500000 0.04500000
v -0.28061554 -0.00000000 0.05000000
v -0.28076774 0.00348623 0.05000000
v -0.31712928 0.03984779 0.05000000
v -0.31366959 0.03939231 0.05000000
v -0.28076774 -0.00348623 0.05000000
v -0.28122321 -0.00694593 0.05000000
v -0.28197849 -0.01035276 0.05000000
v -0.28784946 0.02294306 0.05000000
v -0.28597450 0.02000000 0.05000000
v -0.28436321 0.01690473 0.05000000
v -0.28302783 0.01368081 0.05000000
v -0.28197849 0.01035276 0.05000000
v -0.28122321 0.00694593 0.05000000
v -0.29490402 0.03064178 0.05000000
v -0.29233125 0.02828427 0.05000000
v -0.28997374 0.02571150 0.05000000
v -0.28302783 -0.01368081 0.05000000
v -0.28436321 -0.01690473 0.05000000
v -0.28597450 -0.02000000 0.05000000
v -0.29767248 -0.03276608 0.05000000
v -0.29490402 -0.03064178 0.05000000
v -0.29233125 -0.02828427 0.05000000
v -0.30693471 0.03758771 0.05000000
v -0.30371079 0.03625231 0.05000000
v -0.28784946 -0.02294306 0.05000000
v -0.28997374 -0.02571150 0.05000000
v -0.30061552 0.03464102 0.05000000
v -0.29767248 0.03276608 0.05000000
v -0.31026277 0.03863703 0.05000000
v -0.36061552 -0.00000000 0.05000000
v -0.36046332 -0.00348623 0.05000000
v -0.36000785 -0.00694593 0.05000000
v -0.35925257 -0.01035276 0.05000000
v -0.35820323 -0.01368081 0.05000000
v -0.35686785 -0.01690473 0.05000000
v -0.35525656 -0.02000000 0.05000000
v -0.35338160 -0.02294306 0.05000000
v -0.35125729 -0.02571150 0.05000000
v -0.34889981 -0.02828427 0.05000000
v -0.34632704 -0.03064178 0.05000000
v -0.34355858 -0.03276608 0.05000000
v -0.34061554 -0.03464102 0.05000000
v -0.33752027 -0.03625231 0.05000000
v -0.33429635 -0.03758771 0.05000000
v -0.33096829 -0.03863703 0.05000000
v -0.32756147 -0.03939231 0.05000000
v -0.32410175 -0.03984779 0.05000000
v -0.32061553 -0.04000000 0.05000000
v -0.31712928 -0.03984779 0.05000000
v -0.31366959 -0.03939231 0.05000000
v -0.31026277 -0.03863703 0.05000000
v -0.30693471 -0.03758771 0.05000000
v -0.30371079 -0.03625231 0.05000000
v -0.30061552 -0.03464102 0.05000000
v -0.32061553 0.04000000 0.05000000
v -0.32410175 0.03984779 0.05000000
v -0.32756147 0.03939231 0.05000000
v -0.33096829 0.03863703 0.05000000
v -0.33429635 0.03758771 0.05000000
v -0.33752027 0.03625231 0.05000000
v -0.34061554 0.03464102 0.05000000
v -0.34355858 0.03276608 0.05000000
v -0.34632704 0.03064178 0.05000000
v -0.34889981 0.02828427 0.05000000
v -0.35125729 0.02571150 0.05000000
v -0.35338160 0.02294306 0.05000000
v -0.35525656 0.02000000 0.05000000
v -0.35686785 0.01690473 0.05000000
v -0.35820323 0.01368081 0.05000000
v -0.35925257 0.01035276 0.05000000
v -0.36000785 0.00694593 0.05000000
v -0.36046332 0.00348623 0.05000000
f 1 2 3
f 2 4 3
f 3 4 5
f 6 7 3
f 7 8 3
f 3 8 1
f 9 10 3
f 10 11 3
f 3 11 6
f 12 13 3
f 13 14 3
f 3 14 9
f 15 16 3
f 16 17 3
f 3 17 12
f 18 19 3
f 19 20 3
f 3 20 15
f 21 22 3
f 22 23 3
f 3 23 18
f 24 25 3
f 25 26 3
f 3 26 21
f 27 28 3
f 28 29 3
f 3 29 24
f 30 31 3
f 31 32 3
f 3 32 27
f 33 34 3
f 34 35 3
f 3 35 30
f 36 37 3
f 37 38 3
f 3 38 33
f 39 40 3
f 40 41 3
f 3 41 36
f 42 43 3
f 43 44 3
f 3 44 39
f 45 46 3
f 46 47 3
f 3 47 42
f 48 49 3
f 49 50 3
f 3 50 45
f 51 52 3
f 52 53 3
f 3 53 48
f 54 55 3
f 55 56 3
f 3 56 51
f 57 58 3
f 58 59 3
f 3 59 54
f 60 61 3
f 61 62 3
f 3 62 57
f 63 64 3
f 64 65 3
f 3 65 60
f 66 67 3
f 67 68 3
f 3 68 63
f 69 70 3
f 70 71 3
f 3 71 66
f 5 72 3
f 72 73 3
f 3 73 69
f 74 75 76
f 75 77 76
f 76 77 78
f 79 80 76
f 80 81 76
f 76 81 74
f 82 83 76
f 83 84 76
f 76 84 79
f 85 86 76
f 86 87 76
f 76 87 82
f 88 89 76
f 89 90 76
f 76 90 85
f 91 92 76
f 92 93 76
f 76 93 88
f 94 95 76
f 95 96 76
f 76 96 91
f 97 98 76
f 98 99 76
f 76 99 94
f 100 101 76
f 101 102 76
f 76 102 97
f 103 104 76
f 104 105 76
f 76 105 100
f 106 107 76
f 107 108 76
f 76 108 103
f 109 110 76
f 110 111 76
f 76 111 106
f 112 113 76
f 113 114 76
f 76 114 109
f 115 116 76
f 116 117 76
f 76 117 112
f 118 119 76
f 119 120 76
f 76 120 115
f 121 122 76
f 122 123 76
f 76 123 118
f 124 125 76
f 125 126 76
f 76 126 121
f 127 128 76
f 128 129 76
f 76 129 124
f 130 131 76
f 131 132 76
f 76 132 127
f 133 134 76
f 134 135 76
f 76 135 130
f 136 137 76
f 137 138 76
f 76 138 133
f 139 140 76
f 140 141 76
f 76 141 136
f 142 143 76
f 143 144 76
f 76 144 139
f 78 145 76
f 145 146 76
f 76 146 142
f 77 147 78
f 147 148 78
f 78 148 145
f 148 149 145
f 145 149 146
f 149 150 146
f 146 150 142
f 150 151 142
f 142 151 143
f 151 152 143
f 143 152 144
f 152 153 144
f 144 153 139
f 153 154 139
f 139 154 140
f 154 155 140
f 140 155 141
f 155 156 141
f 141 156 136
f 156 157 136
f 136 157 137
f 157 158 137
f 137 158 138
f 158 159 138
f 138 159 133
f 159 160 133
f 133 160 134
f 160 161 134
f 134 161 135
f 161 162 135
f 135 162 130
f 162 163 130
f 130 163 131
f 163 164 131
f 131 164 132
f 164 165 132
f 132 165 127
f 165 166 127
f 127 166 128
f 166 167 128
f 128 167 129
f 167 168 129
f 129 168 124
f 168 169 124
f 124 169 125
f 169 170 125
f 125 170 126
f 170 171 126
f 126 171 121
f 171 172 121
f 121 172 122
f 172 173 122
f 122 173 123
f 173 174 123
f 123 174 118
f 174 175 118
f 118 175 119
f 175 176 119
f 119 176 120
f 176 177 120
f 120 177 115
f 177 178 115
f 115 178 116
f 178 179 116
f 116 179 117
f 179 180 117
f 117 180 112
f 180 181 112
f 112 181 113
f 181 182 113
f 113 182 114
f 182 183 114
f 114 183 109
f 183 184 109
f 109 184 110
f 184 185 110
f 110 185 111
f 185 186 111
f 111 186 106
f 186 187 106
f 106 187 107
f 187 188 107
f 107 188 108
f 188 189 108
f 108 189 103
f 189 190 103
f 103 190 104
f 190 191 104
f 104 191 105
f 191 192 105
f 105 192 100
f 192 193 100
f 100 193 101
f 193 194 101
f 101 194 102
f 194 195 102
f 102 195 97
f 195 196 97
f 97 196 98
f 196 197 98
f 98 197 99
f 197 198 99
f 99 198 94
f 198 199 94
f 94 199 95
f 199 200 95
f 95 200 96
f 200 201 96
f 96 201 91
f 201 202 91
f 91 202 92
f 202 203 92
f 92 203 93
f 203 204 93
f 93 204 88
f 204 205 88
f 88 205 89
f 205 206 89
f 89 206 90
f 206 207 90
f 90 207 85
f 207 208 85
f 85 208 86
f 208 209 86
f 86 209 87
f 209 210 87
f 87 210 82
f 210 211 82
f 82 211 83
f 211 212 83
f 83 212 84
f 212 213 84
f 84 213 79
f 213 214 79
f 79 214 80
f 214 215 80
f 80 215 81
f 215 216 81
f 81 216 74
f 216 217 74
f 74 217 75
f 217 218 75
f 75 218 77
f 218 147 77
f 4 219 5
f 219 220 5
f 5 220 72
f 220 221 72
f 72 221 73
f 221 222 73
f 73 222 69
f 222 223 69
f 69 223 70
f 223 224 70
f 70 224 71
f 224 225 71
f 71 225 66
f 225 226 66
f 66 226 67
f 226 227 67
f 67 227 68
f 227 228 68
f 68 228 63
f 228 229 63
f 63 229 64
f 229 230 64
f 64 230 65
f 230 231 65
f 65 231 60
f 231 232 60
f 60 232 61
f 232 233 61
f 61 233 62
f 233 234 62
f 62 234 57
f 234 235 57
f 57 235 58
f 235 236 58
f 58 236 59
f 236 237 59
f 59 237 54
f 237 238 54
f 54 238 55
f 238 239 55
f 55 239 56
f 239 240 56
f 56 240 51
f 240 241 51
f 51 241 52
f 241 242 52
f 52 242 53
f 242 243 53
f 53 243 48
f 243 244 48
f 48 244 49
f 244 245 49
f 49 245 50
f 245 246 50
f 50 246 45
f 246 247 45
f 45 247 46
f 247 248 46
f 46 248 47
f 248 249 47
f 47 249 42
f 249 250 42
f 42 250 43
f 250 251 43
f 43 251 44
f 251 252 44
f 44 252 39
f 252 253 39
f 39 253 40
f 253 254 40
f 40 254 41
f 254 255 41
f 41 255 36
f 255 256 36
f 36 256 37
f 256 257 37
f 37 257 38
f 257 258 38
f 38 258 33
f 258 259 33
f 33 259 34
f 259 260 34
f 34 260 35
f 260 261 35
f 35 261 30
f 261 262 30
f 30 262 31
f 262 263 31
f 31 263 32
f 263 264 32
f 32 264 27
f 264 265 27
f 27 265 28
f 265 266 28
f 28 266 29
f 266 267 29
f 29 267 24
f 267 268 24
f 24 268 25
f 268 269 25
f 25 269 26
f 269 270 26
f 26 270 21
f 270 271 21
f 21 271 22
f 271 272 22
f 22 272 23
f 272 273 23
f 23 273 18
f 273 274 18
f 18 274 19
f 274 275 19
f 19 275 20
f 275 276 20
f 20 276 15
f 276 277 15
f 15 277 16
f 277 278 16
f 16 278 17
f 278 279 17
f 17 279 12
f 279 280 12
f 12 280 13
f 280 281 13
f 13 281 14
f 281 282 14
f 14 282 9
f 282 283 9
f 9 283 10
f 283 284 10
f 10 284 11
f 284 285 11
f 11 285 6
f 285 286 6
f 6 286 7
f 286 287 7
f 7 287 8
f 287 288 8
f 8 288 1
f 288 289 1
f 1 289 2
f 289 290 2
f 2 290 4
f 290 219 4
f 291 292 293
f 292 294 293
f 220 219 295
f 286 295 287
f 295 288 287
f 281 280 296
f 219 290 295
f 290 289 295
f 295 289 288
f 281 296 282
f 280 279 296
f 279 278 296
f 296 278 277
f 226 225 297
f 225 224 297
f 286 285 295
f 285 284 295
f 295 284 296
f 284 283 296
f 296 283 282
f 244 243 298
f 243 242 298
f 298 242 241
f 224 223 297
f 223 222 297
f 297 222 295
f 222 221 295
f 295 221 220
f 299 268 267
f 253 252 298
f 252 251 298
f 298 251 250
f 250 249 298
f 249 248 298
f 298 248 247
f 237 236 297
f 274 299 275
f 299 296 275
f 275 296 276
f 296 277 276
f 274 273 299
f 273 272 299
f 299 272 271
f 261 260 299
f 260 259 299
f 299 259 298
f 247 246 298
f 246 245 298
f 298 245 244
f 241 240 298
f 240 239 298
f 298 239 297
f 239 238 297
f 297 238 237
f 229 228 297
f 228 227 297
f 297 227 226
f 271 270 299
f 270 269 299
f 299 269 268
f 267 266 299
f 266 265 299
f 299 265 264
f 297 233 232
f 264 263 299
f 263 262 299
f 299 262 261
f 259 258 298
f 258 257 298
f 298 257 256
f 236 235 297
f 235 234 297
f 297 234 233
f 232 231 297
f 231 230 297
f 297 230 229
f 256 255 298
f 255 254 298
f 298 254 253
f 291 293 300
f 293 301 300
f 293 294 301
f 294 302 301
f 303 304 305
f 304 306 305
f 305 306 307
f 308 309 310
f 311 312 313
f 312 314 313
f 313 314 315
f 314 316 315
f 315 316 317
f 316 318 317
f 317 318 319
f 318 320 319
f 319 320 321
f 320 322 321
f 321 322 323
f 322 324 323
f 323 324 325
f 324 326 325
f 325 326 327
f 326 328 327
f 327 328 329
f 328 330 329
f 329 330 331
f 330 332 331
f 331 332 333
f 332 334 333
f 333 334 335
f 334 336 335
f 335 336 337
f 336 338 337
f 337 338 339
f 338 340 339
f 339 340 341
f 340 342 341
f 341 342 343
f 342 344 343
f 343 344 345
f 344 346 345
f 345 346 347
f 346 348 347
f 347 348 349
f 348 350 349
f 349 350 351
f 350 352 351
f 351 352 353
f 352 354 353
f 353 354 355
f 354 356 355
f 355 356 357
f 308 310 358
f 310 359 358
f 358 359 360
f 359 361 360
f 360 361 362
f 361 363 362
f 362 363 364
f 363 365 364
f 364 365 366
f 365 367 366
f 366 367 368
f 367 369 368
f 368 369 370
f 369 371 370
f 370 371 372
f 371 373 372
f 372 373 374
f 373 375 374
f 374 375 376
f 375 377 376
f 376 377 378
f 377 379 378
f 378 379 380
f 379 381 380
f 380 381 382
f 381 383 382
f 382 383 384
f 383 385 384
f 384 385 386
f 385 387 386
f 386 387 388
f 387 389 388
f 388 389 390
f 389 391 390
f 390 391 392
f 391 393 392
f 392 393 394
f 393 395 394
f 394 395 396
f 395 397 396
f 396 397 398
f 397 399 398
f 398 399 311
f 399 400 311
f 311 400 312
f 401 402 403
f 401 403 404
f 403 405 404
f 404 405 406
f 405 407 406
f 406 407 408
f 407 409 408
f 408 409 410
f 409 411 410
f 410 411 412
f 411 413 412
f 412 413 414
f 413 415 414
f 414 415 416
f 415 417 416
f 416 417 418
f 417 419 418
f 418 419 420
f 419 421 420
f 420 421 422
f 421 423 422
f 422 423 424
f 423 425 424
f 424 425 426
f 425 427 426
f 426 427 428
f 427 429 428
f 428 429 430
f 429 431 430
f 430 431 432
f 431 433 432
f 432 433 434
f 433 435 434
f 434 435 436
f 435 437 436
f 436 437 438
f 437 439 438
f 438 439 440
f 439 441 440
f 440 441 442
f 441 443 442
f 442 443 444
f 443 445 444
f 445 446 444
f 444 446 447
f 446 448 447
f 447 448 449
f 448 450 449
f 449 450 451
f 450 452 451
f 451 452 453
f 452 454 453
f 453 454 455
f 454 456 455
f 455 456 457
f 456 458 457
f 457 458 459
f 458 460 459
f 459 460 461
f 460 462 461
f 461 462 463
f 462 464 463
f 463 464 465
f 464 466 465
f 465 466 467
f 466 468 467
f 467 468 469
f 468 470 469
f 469 470 471
f 470 472 471
f 471 472 473
f 472 474 473
f 473 474 475
f 474 476 475
f 475 476 477
f 476 478 477
f 477 478 479
f 478 480 479
f 479 480 481
f 480 482 481
f 481 482 483
f 482 484 483
f 483 484 485
f 484 486 485
f 485 486 487
f 486 488 487
f 487 488 489
f 488 490 489
f 489 490 491
f 490 492 491
f 491 492 493
f 307 306 296
f 306 295 296
f 402 357 403
f 357 356 403
f 305 299 303
f 299 298 303
f 309 493 310
f 493 492 310
f 494 495 496
f 497 498 499
f 494 496 500
f 501 502 496
f 502 503 496
f 496 503 504
f 504 505 496
f 505 506 496
f 496 506 500
f 507 508 496
f 508 509 496
f 496 509 501
f 499 496 497
f 496 495 497
f 497 495 510
f 495 511 510
f 510 511 512
f 511 513 512
f 512 513 514
f 513 515 514
f 514 515 516
f 515 517 516
f 516 517 518
f 517 519 518
f 518 519 520
f 519 521 520
f 520 521 522
f 521 523 522
f 522 523 524
f 523 525 524
f 524 525 526
f 525 527 526
f 526 527 528
f 527 529 528
f 528 529 530
f 529 531 530
f 530 531 532
f 531 533 532
f 532 533 534
f 533 535 534
f 534 535 536
f 535 537 536
f 536 537 538
f 537 539 538
f 538 539 540
f 539 541 540
f 540 541 542
f 541 543 542
f 542 543 544
f 543 545 544
f 544 545 546
f 545 547 546
f 546 547 548
f 547 549 548
f 548 549 550
f 549 551 550
f 550 551 552
f 551 553 552
f 552 553 554
f 553 555 554
f 554 555 556
f 555 557 556
f 556 557 558
f 557 559 558
f 558 559 560
f 559 561 560
f 560 561 562
f 561 563 562
f 562 563 564
f 563 565 564
f 564 565 566
f 565 567 566
f 566 567 568
f 567 569 568
f 568 569 570
f 569 571 570
f 570 571 572
f 571 573 572
f 572 573 574
f 573 575 574
f 574 575 576
f 575 577 576
f 576 577 578
f 577 579 578
f 578 579 580
f 579 581 580
f 580 581 582
f 581 583 582
f 582 583 584
f 583 585 584
f 584 585 586
f 585 587 586
f 586 587 588
f 587 589 588
f 588 589 590
f 589 591 590
f 590 591 592
f 591 593 592
f 592 593 594
f 593 595 594
f 594 595 596
f 595 597 596
f 596 597 598
f 597 599 598
f 598 599 600
f 599 601 600
f 600 601 602
f 601 603 602
f 602 603 604
f 603 605 604
f 604 605 606
f 605 607 606
f 606 607 608
f 607 609 608
f 608 609 610
f 609 611 610
f 610 611 612
f 611 613 612
f 612 613 614
f 613 615 614
f 614 615 616
f 615 617 616
f 616 617 618
f 617 619 618
f 618 619 620
f 619 621 620
f 620 621 622
f 621 623 622
f 622 623 624
f 623 625 624
f 624 625 626
f 625 627 626
f 626 627 496
f 627 628 496
f 496 628 507
f 296 299 307
f 299 305 307
f 359 310 629
f 310 492 630
f 630 492 631
f 629 632 359
f 632 633 359
f 359 633 361
f 633 634 361
f 361 634 363
f 634 635 363
f 363 635 365
f 635 636 365
f 365 636 367
f 636 637 367
f 367 637 369
f 637 638 369
f 369 638 371
f 638 639 371
f 371 639 373
f 639 640 373
f 373 640 375
f 640 641 375
f 375 641 377
f 641 642 377
f 377 642 379
f 642 643 379
f 379 643 381
f 643 644 381
f 381 644 383
f 644 645 383
f 383 645 385
f 645 646 385
f 385 646 387
f 646 647 387
f 387 647 389
f 647 648 389
f 389 648 391
f 648 649 391
f 391 649 393
f 649 650 393
f 393 650 395
f 650 651 395
f 395 651 397
f 651 652 397
f 397 652 399
f 652 653 399
f 399 653 400
f 653 654 400
f 400 654 312
f 654 655 312
f 312 655 314
f 655 656 314
f 314 656 316
f 656 657 316
f 316 657 318
f 657 658 318
f 318 658 320
f 658 659 320
f 320 659 322
f 659 660 322
f 322 660 324
f 660 661 324
f 324 661 326
f 661 662 326
f 326 662 328
f 662 663 328
f 328 663 330
f 663 664 330
f 330 664 332
f 664 665 332
f 332 665 334
f 665 666 334
f 334 666 336
f 666 667 336
f 336 667 338
f 667 668 338
f 338 668 340
f 668 669 340
f 340 669 342
f 669 670 342
f 342 670 344
f 670 671 344
f 344 671 346
f 671 672 346
f 346 672 348
f 672 673 348
f 348 673 350
f 673 674 350
f 350 674 352
f 674 675 352
f 352 675 354
f 405 403 676
f 403 356 676
f 676 677 405
f 677 678 405
f 405 678 407
f 678 679 407
f 407 679 409
f 679 680 409
f 409 680 411
f 680 681 411
f 411 681 413
f 681 682 413
f 413 682 415
f 682 683 415
f 415 683 417
f 683 684 417
f 417 684 419
f 684 685 419
f 419 685 421
f 685 686 421
f 421 686 423
f 686 687 423
f 423 687 425
f 687 688 425
f 425 688 427
f 688 689 427
f 427 689 429
f 689 690 429
f 429 690 431
f 690 691 431
f 431 691 433
f 691 692 433
f 433 692 435
f 692 693 435
f 435 693 437
f 693 694 437
f 437 694 439
f 694 695 439
f 439 695 441
f 695 696 441
f 441 696 443
f 696 697 443
f 443 697 445
f 697 698 445
f 445 698 446
f 698 699 446
f 446 699 448
f 699 700 448
f 448 700 450
f 700 701 450
f 450 701 452
f 701 702 452
f 452 702 454
f 702 703 454
f 454 703 456
f 703 704 456
f 456 704 458
f 704 705 458
f 458 705 460
f 705 706 460
f 460 706 462
f 706 707 462
f 462 707 464
f 707 708 464
f 464 708 466
f 708 709 466
f 466 709 468
f 709 710 468
f 468 710 470
f 710 711 470
f 470 711 472
f 711 712 472
f 472 712 474
f 712 713 474
f 474 713 476
f 713 714 476
f 476 714 478
f 714 715 478
f 478 715 480
f 715 716 480
f 480 716 482
f 716 717 482
f 482 717 484
f 717 718 484
f 484 718 486
f 718 719 486
f 486 719 488
f 719 631 488
f 488 631 490
f 631 492 490
f 310 630 629
f 630 720 629
f 629 720 721
f 354 675 356
f 675 722 356
f 356 722 676
f 722 723 676
f 676 723 724
f 725 726 727
f 725 727 728
f 727 729 728
f 728 729 730
f 729 731 730
f 730 731 732
f 731 733 732
f 732 733 734
f 733 735 734
f 734 735 736
f 735 737 736
f 736 737 738
f 737 739 738
f 738 739 740
f 739 741 740
f 740 741 742
f 741 743 742
f 742 743 744
f 743 745 744
f 744 745 746
f 745 747 746
f 746 747 748
f 747 749 748
f 748 749 750
f 749 751 750
f 750 751 752
f 751 753 752
f 752 753 754
f 753 755 754
f 754 755 756
f 755 757 756
f 756 757 758
f 757 759 758
f 758 759 760
f 759 761 760
f 760 761 762
f 761 763 762
f 762 763 764
f 763 765 764
f 764 765 766
f 765 767 766
f 766 767 768
f 767 769 768
f 768 769 770
f 769 771 770
f 770 771 772
f 771 773 772
f 772 773 774
f 773 775 774
f 774 775 776
f 775 777 776
f 776 777 778
f 777 779 778
f 778 779 780
f 779 781 780
f 780 781 782
f 781 783 782
f 782 783 784
f 783 785 784
f 784 785 786
f 785 787 786
f 786 787 788
f 787 789 788
f 788 789 790
f 789 791 790
f 790 791 792
f 791 793 792
f 792 793 794
f 793 795 794
f 794 795 796
f 795 797 796
f 796 797 798
f 797 799 798
f 798 799 800
f 799 801 800
f 800 801 802
f 801 803 802
f 802 803 804
f 803 805 804
f 804 805 806
f 805 807 806
f 806 807 808
f 807 809 808
f 808 809 810
f 809 811 810
f 810 811 812
f 811 813 812
f 812 813 814
f 813 815 814
f 814 815 816
f 815 817 816
f 816 817 818
f 817 819 818
f 818 819 820
f 819 821 820
f 820 821 822
f 821 823 822
f 822 823 824
f 823 825 824
f 824 825 826
f 825 827 826
f 826 827 828
f 827 829 828
f 828 829 830
f 829 831 830
f 830 831 832
f 831 833 832
f 832 833 834
f 833 835 834
f 834 835 836
f 835 837 836
f 836 837 838
f 837 839 838
f 838 839 840
f 839 841 840
f 840 841 842
f 841 843 842
f 842 843 844
f 843 845 844
f 844 845 846
f 304 847 306
f 847 848 306
f 306 848 295
f 848 849 295
f 295 849 297
f 849 850 297
f 851 852 849
f 853 854 855
f 854 856 855
f 857 858 859
f 860 861 849
f 861 862 849
f 849 862 851
f 862 863 851
f 851 863 854
f 863 864 854
f 854 864 856
f 857 859 865
f 858 866 859
f 866 867 859
f 859 867 868
f 869 850 870
f 850 849 870
f 869 871 850
f 871 872 850
f 850 872 873
f 873 874 850
f 874 875 850
f 850 875 876
f 877 878 859
f 868 879 859
f 879 880 859
f 859 880 849
f 880 881 849
f 849 881 860
f 882 883 852
f 884 885 723
f 885 886 723
f 723 886 852
f 886 887 852
f 852 887 882
f 888 852 889
f 852 890 889
f 888 891 852
f 891 892 852
f 852 892 849
f 892 893 849
f 849 893 870
f 876 894 850
f 894 895 850
f 850 895 721
f 895 896 721
f 883 897 852
f 897 898 852
f 852 898 890
f 878 899 859
f 899 900 859
f 859 900 865
f 901 902 859
f 902 903 859
f 859 903 877
f 884 723 904
f 723 722 904
f 904 722 905
f 722 675 905
f 905 675 906
f 675 674 906
f 906 674 907
f 674 673 907
f 907 673 908
f 673 672 908
f 908 672 909
f 672 671 909
f 909 671 910
f 671 670 910
f 910 670 911
f 670 669 911
f 911 669 912
f 669 668 912
f 912 668 913
f 668 667 913
f 913 667 914
f 667 666 914
f 914 666 915
f 666 665 915
f 915 665 916
f 665 664 916
f 916 664 917
f 664 663 917
f 917 663 918
f 663 662 918
f 918 662 919
f 662 661 919
f 919 661 920
f 661 660 920
f 920 660 921
f 660 659 921
f 921 659 922
f 659 658 922
f 922 658 923
f 658 657 923
f 923 657 924
f 657 656 924
f 924 656 925
f 901 926 902
f 926 927 902
f 902 927 928
f 928 929 902
f 929 930 902
f 902 930 931
f 853 932 854
f 932 933 854
f 854 933 934
f 933 935 934
f 934 935 936
f 935 937 936
f 936 937 938
f 937 939 938
f 938 939 940
f 939 941 940
f 940 941 942
f 941 943 942
f 942 943 944
f 943 945 944
f 944 945 946
f 945 947 946
f 946 947 948
f 947 949 948
f 948 949 950
f 949 951 950
f 950 951 952
f 951 953 952
f 952 953 954
f 953 955 954
f 954 955 956
f 955 957 956
f 956 957 958
f 957 959 958
f 958 959 960
f 959 961 960
f 960 961 962
f 961 963 962
f 962 963 964
f 963 965 964
f 964 965 966
f 965 967 966
f 966 967 968
f 967 969 968
f 968 969 970
f 969 971 970
f 970 971 972
f 971 973 972
f 972 973 974
f 973 975 974
f 974 975 976
f 975 977 976
f 976 977 978
f 977 979 978
f 978 979 980
f 979 981 980
f 980 981 982
f 981 983 982
f 982 983 984
f 983 985 984
f 984 985 986
f 985 987 986
f 986 987 988
f 987 989 988
f 988 989 990
f 989 991 990
f 990 991 992
f 991 993 992
f 992 993 994
f 993 995 994
f 994 995 996
f 995 997 996
f 996 997 998
f 997 999 998
f 998 999 1000
f 999 1001 1000
f 1000 1001 1002
f 1001 1003 1002
f 1002 1003 1004
f 1003 1005 1004
f 1004 1005 1006
f 1005 1007 1006
f 1006 1007 1008
f 1007 1009 1008
f 1008 1009 1010
f 1009 1011 1010
f 1010 1011 1012
f 1011 1013 1012
f 1012 1013 1014
f 1013 1015 1014
f 1014 1015 1016
f 1015 1017 1016
f 1016 1017 1018
f 1017 1019 1018
f 1018 1019 1020
f 1019 1021 1020
f 1020 1021 1022
f 1021 1023 1022
f 1022 1023 1024
f 1023 1025 1024
f 1024 1025 1026
f 1025 1027 1026
f 1026 1027 1028
f 1027 902 1028
f 1028 902 1029
f 902 1030 1029
f 656 655 925
f 655 654 925
f 925 654 1031
f 654 653 1031
f 1031 653 1032
f 653 652 1032
f 1032 652 1033
f 652 651 1033
f 1033 651 1034
f 651 650 1034
f 1034 650 1035
f 650 649 1035
f 1035 649 1036
f 649 648 1036
f 1036 648 1037
f 648 647 1037
f 1037 647 1038
f 647 646 1038
f 1038 646 1039
f 646 645 1039
f 1039 645 1040
f 645 644 1040
f 1040 644 1041
f 644 643 1041
f 1041 643 1042
f 643 642 1042
f 1042 642 1043
f 642 641 1043
f 1043 641 1044
f 641 640 1044
f 1044 640 1045
f 640 639 1045
f 1045 639 1046
f 639 638 1046
f 1046 638 1047
f 638 637 1047
f 1047 637 1048
f 637 636 1048
f 1048 636 1049
f 636 635 1049
f 1049 635 1050
f 635 634 1050
f 1050 634 1051
f 634 633 1051
f 1051 633 1052
f 633 632 1052
f 1052 632 1053
f 632 629 1053
f 1053 629 1054
f 629 721 1054
f 1054 721 1055
f 721 896 1055
f 931 1056 902
f 1056 1057 902
f 902 1057 1030
f 1058 852 292
f 852 851 292
f 292 851 294
f 851 1059 294
f 294 1059 302
f 1059 1060 302
f 496 854 934
f 496 934 626
f 934 936 626
f 626 936 624
f 936 938 624
f 624 938 622
f 938 940 622
f 622 940 620
f 940 942 620
f 620 942 618
f 942 944 618
f 618 944 616
f 944 946 616
f 616 946 614
f 946 948 614
f 614 948 612
f 948 950 612
f 612 950 610
f 950 952 610
f 610 952 608
f 952 954 608
f 608 954 606
f 954 956 606
f 606 956 604
f 956 958 604
f 604 958 602
f 958 960 602
f 602 960 600
f 960 962 600
f 600 962 598
f 962 964 598
f 598 964 596
f 964 966 596
f 596 966 594
f 966 968 594
f 594 968 592
f 968 970 592
f 592 970 590
f 970 972 590
f 590 972 588
f 972 974 588
f 588 974 586
f 974 976 586
f 586 976 584
f 976 978 584
f 584 978 582
f 978 980 582
f 582 980 580
f 980 982 580
f 580 982 578
f 982 984 578
f 578 984 576
f 984 986 576
f 576 986 574
f 986 988 574
f 574 988 572
f 988 990 572
f 572 990 570
f 990 992 570
f 570 992 568
f 992 994 568
f 568 994 566
f 994 996 566
f 566 996 564
f 996 998 564
f 564 998 562
f 998 1000 562
f 562 1000 560
f 1000 1002 560
f 560 1002 558
f 1002 1004 558
f 558 1004 556
f 1004 1006 556
f 556 1006 554
f 1006 1008 554
f 554 1008 552
f 1008 1010 552
f 552 1010 550
f 1010 1012 550
f 550 1012 548
f 1012 1014 548
f 548 1014 546
f 1014 1016 546
f 546 1016 544
f 1016 1018 544
f 544 1018 542
f 1018 1020 542
f 542 1020 540
f 1020 1022 540
f 540 1022 538
f 1022 1024 538
f 538 1024 536
f 1024 1026 536
f 536 1026 534
f 1026 1028 534
f 534 1028 532
f 1028 1029 532
f 532 1029 530
f 1029 1030 530
f 530 1030 528
f 1030 1057 528
f 528 1057 526
f 1057 1056 526
f 526 1056 524
f 1056 931 524
f 524 931 522
f 931 930 522
f 522 930 520
f 930 929 520
f 520 929 518
f 929 928 518
f 518 928 516
f 928 927 516
f 516 927 514
f 927 926 514
f 514 926 512
f 926 901 512
f 512 901 510
f 901 859 510
f 510 859 497
f 847 304 303
f 297 850 298
f 850 721 298
f 298 721 303
f 721 720 303
f 303 720 847
f 852 1058 300
f 302 1060 301
f 1060 724 301
f 301 724 300
f 724 723 300
f 300 723 852
f 497 859 498
f 859 849 498
f 498 849 1061
f 849 848 1061
f 1061 848 845
f 848 846 845
f 1062 1063 1064
f 1063 1065 1064
f 1064 1065 1066
f 1065 1067 1066
f 1066 1067 1068
f 1067 1069 1068
f 1068 1069 1070
f 1069 1071 1070
f 1070 1071 1072
f 1071 1073 1072
f 1072 1073 1074
f 1073 1075 1074
f 1074 1075 1076
f 1075 1077 1076
f 1076 1077 1078
f 1077 1079 1078
f 1078 1079 1080
f 1079 1081 1080
f 1080 1081 1082
f 1081 1083 1082
f 1082 1083 1084
f 1083 1085 1084
f 1084 1085 1086
f 1085 1087 1086
f 1086 1087 1088
f 1087 1089 1088
f 1088 1089 1090
f 1089 1091 1090
f 1090 1091 1092
f 1091 1093 1092
f 1092 1093 1094
f 1093 1095 1094
f 1094 1095 1096
f 1095 1097 1096
f 1096 1097 1098
f 1097 1099 1098
f 1098 1099 1100
f 1099 1101 1100
f 1100 1101 1102
f 1101 1103 1102
f 1102 1103 1104
f 1103 1105 1104
f 1104 1105 1106
f 1105 1107 1106
f 1106 1107 1108
f 1107 1109 1108
f 1108 1109 1110
f 1109 1111 1110
f 1110 1111 1112
f 1111 1113 1112
f 1112 1113 1114
f 1113 1115 1114
f 1114 1115 1116
f 1115 1117 1116
f 1116 1117 1118
f 1117 1119 1118
f 1118 1119 1120
f 1119 1121 1120
f 1120 1121 1122
f 1121 1123 1122
f 1122 1123 1124
f 1123 1125 1124
f 1124 1125 1126
f 1125 1127 1126
f 1126 1127 1128
f 1127 1129 1128
f 1128 1129 1130
f 1129 1131 1130
f 1130 1131 1132
f 1131 1133 1132
f 1132 1133 1134
f 1133 1135 1134
f 1134 1135 1136
f 1135 1137 1136
f 1136 1137 1138
f 1137 1139 1138
f 1138 1139 1140
f 1139 1141 1140
f 1140 1141 1142
f 1141 1143 1142
f 1142 1143 1144
f 1143 1145 1144
f 1144 1145 1146
f 1145 1147 1146
f 1146 1147 1148
f 1147 1149 1148
f 1148 1149 1150
f 1149 1151 1150
f 1150 1151 1152
f 1151 1153 1152
f 1152 1153 1154
f 1153 1155 1154
f 1154 1155 1156
f 1155 1157 1156
f 1156 1157 1158
f 1157 1159 1158
f 1158 1159 1160
f 1159 1161 1160
f 1160 1161 1162
f 1161 1163 1162
f 1162 1163 1164
f 1163 1165 1164
f 1164 1165 1166
f 1165 1167 1166
f 1166 1167 1168
f 1167 1169 1168
f 1168 1169 1170
f 1169 1171 1170
f 1170 1171 1172
f 1171 1173 1172
f 1172 1173 1174
f 1173 1175 1174
f 1174 1175 1176
f 1175 1177 1176
f 1176 1177 1178
f 1177 1179 1178
f 1178 1179 1180
f 1179 1181 1180
f 1180 1181 1182
f 1181 1183 1182
f 1182 1183 1184
f 1183 1185 1184
f 1184 1185 1186
f 1185 1187 1186
f 1186 1187 1188
f 1187 1189 1188
f 1188 1189 1190
f 1189 1191 1190
f 1190 1191 1192
f 1191 1193 1192
f 1192 1193 1194
f 1193 1195 1194
f 1194 1195 1196
f 1195 1197 1196
f 1196 1197 1198
f 1197 1199 1198
f 1198 1199 1200
f 1199 1201 1200
f 1200 1201 1202
f 1201 1203 1202
f 1202 1203 1204
f 1203 1205 1204
f 1204 1205 1062
f 1205 1063 1062
f 726 725 1206
f 725 1059 1206
f 1206 1059 499
f 1059 851 499
f 499 851 496
f 851 854 496
f 503 863 504
f 863 862 504
f 504 862 505
f 862 861 505
f 505 861 506
f 861 860 506
f 506 860 500
f 860 881 500
f 500 881 494
f 881 880 494
f 494 880 495
f 880 879 495
f 495 879 511
f 879 868 511
f 511 868 513
f 868 867 513
f 513 867 515
f 867 866 515
f 515 866 517
f 866 858 517
f 517 858 519
f 858 857 519
f 519 857 521
f 857 865 521
f 521 865 523
f 865 900 523
f 523 900 525
f 900 899 525
f 525 899 527
f 899 878 527
f 527 878 529
f 878 877 529
f 529 877 531
f 877 903 531
f 531 903 533
f 903 902 533
f 533 902 535
f 902 1027 535
f 535 1027 537
f 1027 1025 537
f 537 1025 539
f 1025 1023 539
f 539 1023 541
f 1023 1021 541
f 541 1021 543
f 1021 1019 543
f 543 1019 545
f 1019 1017 545
f 545 1017 547
f 1017 1015 547
f 547 1015 549
f 1015 1013 549
f 549 1013 551
f 1013 1011 551
f 551 1011 553
f 1011 1009 553
f 553 1009 555
f 1009 1007 555
f 555 1007 557
f 1007 1005 557
f 557 1005 559
f 1005 1003 559
f 559 1003 561
f 1003 1001 561
f 561 1001 563
f 1001 999 563
f 563 999 565
f 999 997 565
f 565 997 567
f 997 995 567
f 567 995 569
f 995 993 569
f 569 993 571
f 993 991 571
f 571 991 573
f 991 989 573
f 573 989 575
f 989 987 575
f 575 987 577
f 987 985 577
f 577 985 579
f 985 983 579
f 579 983 581
f 983 981 581
f 581 981 583
f 981 979 583
f 583 979 585
f 979 977 585
f 585 977 587
f 977 975 587
f 587 975 589
f 975 973 589
f 589 973 591
f 973 971 591
f 591 971 593
f 971 969 593
f 593 969 595
f 969 967 595
f 595 967 597
f 967 965 597
f 597 965 599
f 965 963 599
f 599 963 601
f 963 961 601
f 601 961 603
f 961 959 603
f 603 959 605
f 959 957 605
f 605 957 607
f 957 955 607
f 607 955 609
f 955 953 609
f 609 953 611
f 953 951 611
f 611 951 613
f 951 949 613
f 613 949 615
f 949 947 615
f 615 947 617
f 947 945 617
f 617 945 619
f 945 943 619
f 619 943 621
f 943 941 621
f 621 941 623
f 941 939 623
f 623 939 625
f 939 937 625
f 625 937 627
f 937 935 627
f 627 935 628
f 935 933 628
f 628 933 507
f 933 932 507
f 507 932 508
f 932 853 508
f 508 853 509
f 853 855 509
f 509 855 501
f 855 856 501
f 501 856 502
f 856 864 502
f 502 864 503
f 864 863 503
f 1204 1062 846
f 1062 1064 846
f 1188 1190 1207
f 1190 848 1207
f 1207 848 1208
f 1190 1192 848
f 1192 1194 848
f 848 1194 846
f 1194 1196 846
f 846 1196 1198
f 720 1209 1210
f 725 1207 1059
f 1207 1211 1059
f 1059 1211 1060
f 1211 1212 1060
f 1060 1212 1213
f 1198 1200 846
f 1200 1202 846
f 846 1202 1204
f 1064 1066 846
f 1066 1068 846
f 846 1068 1070
f 1182 1184 1207
f 1184 1186 1207
f 1207 1186 1188
f 1214 1215 848
f 1215 1216 848
f 848 1216 1217
f 1217 1218 848
f 1218 1219 848
f 848 1219 1208
f 848 847 720
f 1174 1176 1207
f 1220 1221 848
f 1221 1222 848
f 848 1222 1214
f 1213 1223 1060
f 1223 1224 1060
f 1060 1224 1225
f 1226 724 1227
f 724 1060 1227
f 1227 1060 1228
f 1170 725 728
f 1229 1230 848
f 1225 1231 1060
f 1231 1232 1060
f 1060 1232 1228
f 728 730 1170
f 730 732 1170
f 1170 732 734
f 734 736 1170
f 736 738 1170
f 1170 738 740
f 740 742 1170
f 742 744 1170
f 1170 744 746
f 725 1170 1207
f 1170 1172 1207
f 1207 1172 1174
f 1230 1233 848
f 1233 1234 848
f 848 1234 1220
f 1176 1178 1207
f 1178 1180 1207
f 1207 1180 1182
f 720 1210 848
f 1210 1235 848
f 848 1235 1229
f 1236 698 1237
f 698 697 1237
f 1237 697 1238
f 697 696 1238
f 1238 696 1239
f 696 695 1239
f 1239 695 1240
f 695 694 1240
f 1240 694 1241
f 694 693 1241
f 1241 693 1242
f 693 692 1242
f 1242 692 1243
f 692 691 1243
f 1243 691 1244
f 691 690 1244
f 1244 690 1245
f 690 689 1245
f 1245 689 1246
f 689 688 1246
f 1246 688 1247
f 688 687 1247
f 1247 687 1248
f 687 686 1248
f 1248 686 1249
f 686 685 1249
f 1249 685 1250
f 685 684 1250
f 1250 684 1251
f 684 683 1251
f 1251 683 1252
f 683 682 1252
f 1252 682 1253
f 682 681 1253
f 1253 681 1254
f 681 680 1254
f 1254 680 1255
f 680 679 1255
f 1255 679 1256
f 679 678 1256
f 1256 678 1257
f 678 677 1257
f 1257 677 1258
f 677 676 1258
f 1258 676 1259
f 676 724 1259
f 1259 724 1260
f 724 1226 1260
f 1261 717 1262
f 717 716 1262
f 1262 716 1263
f 716 715 1263
f 1263 715 1264
f 715 714 1264
f 1264 714 1265
f 714 713 1265
f 1265 713 1266
f 713 712 1266
f 1266 712 1267
f 712 711 1267
f 1267 711 1268
f 711 710 1268
f 1268 710 1269
f 710 709 1269
f 1269 709 1270
f 709 708 1270
f 1270 708 1271
f 708 707 1271
f 1271 707 1272
f 707 706 1272
f 1272 706 1273
f 706 705 1273
f 1273 705 1274
f 705 704 1274
f 1274 704 1275
f 704 703 1275
f 1275 703 1276
f 703 702 1276
f 1276 702 1277
f 702 701 1277
f 1277 701 1278
f 701 700 1278
f 1278 700 1236
f 700 699 1236
f 1236 699 698
f 1209 720 1261
f 720 630 1261
f 1261 630 631
f 746 748 1170
f 748 750 1170
f 1170 750 1168
f 750 752 1168
f 1168 752 1166
f 752 754 1166
f 1166 754 1164
f 754 756 1164
f 1164 756 1162
f 756 758 1162
f 1162 758 1160
f 758 760 1160
f 1160 760 1158
f 760 762 1158
f 1158 762 1156
f 762 764 1156
f 1156 764 1154
f 764 766 1154
f 1154 766 1152
f 766 768 1152
f 1152 768 1150
f 768 770 1150
f 1150 770 1148
f 770 772 1148
f 1148 772 1146
f 772 774 1146
f 1146 774 1144
f 774 776 1144
f 1144 776 1142
f 776 778 1142
f 1142 778 1140
f 778 780 1140
f 1140 780 1138
f 780 782 1138
f 1138 782 1136
f 782 784 1136
f 1136 784 1134
f 784 786 1134
f 1134 786 1132
f 786 788 1132
f 1132 788 1130
f 788 790 1130
f 1130 790 1128
f 790 792 1128
f 1128 792 1126
f 792 794 1126
f 1126 794 1124
f 794 796 1124
f 1124 796 1122
f 796 798 1122
f 1122 798 1120
f 798 800 1120
f 1120 800 1118
f 800 802 1118
f 1118 802 1116
f 802 804 1116
f 1116 804 1114
f 804 806 1114
f 1114 806 1112
f 806 808 1112
f 1112 808 1110
f 808 810 1110
f 1110 810 1108
f 810 812 1108
f 1108 812 1106
f 812 814 1106
f 1106 814 1104
f 814 816 1104
f 1104 816 1102
f 816 818 1102
f 1102 818 1100
f 818 820 1100
f 1100 820 1098
f 820 822 1098
f 1098 822 1096
f 822 824 1096
f 1096 824 1094
f 824 826 1094
f 1094 826 1092
f 826 828 1092
f 1092 828 1090
f 828 830 1090
f 1090 830 1088
f 830 832 1088
f 1088 832 1086
f 832 834 1086
f 1086 834 1084
f 834 836 1084
f 1084 836 1082
f 836 838 1082
f 1082 838 1080
f 838 840 1080
f 1080 840 1078
f 840 842 1078
f 1078 842 1076
f 842 844 1076
f 1076 844 1074
f 844 846 1074
f 1074 846 1072
f 846 1070 1072
f 631 719 1261
f 719 718 1261
f 1261 718 717
f 357 402 1259
f 884 904 355
f 355 904 353
f 904 905 353
f 353 905 351
f 905 906 351
f 351 906 349
f 906 907 349
f 349 907 347
f 907 908 347
f 347 908 345
f 908 909 345
f 345 909 343
f 909 910 343
f 343 910 341
f 910 911 341
f 341 911 339
f 911 912 339
f 339 912 337
f 912 913 337
f 337 913 335
f 913 914 335
f 335 914 333
f 914 915 333
f 333 915 331
f 915 916 331
f 331 916 329
f 916 917 329
f 329 917 327
f 917 918 327
f 327 918 325
f 918 919 325
f 325 919 323
f 919 920 323
f 323 920 321
f 920 921 321
f 321 921 319
f 921 922 319
f 319 922 317
f 922 923 317
f 317 923 315
f 923 924 315
f 315 924 313
f 924 925 313
f 313 925 311
f 925 1031 311
f 311 1031 398
f 1031 1032 398
f 398 1032 396
f 1032 1033 396
f 396 1033 394
f 1033 1034 394
f 394 1034 392
f 1034 1035 392
f 392 1035 390
f 1035 1036 390
f 390 1036 388
f 1036 1037 388
f 388 1037 386
f 1037 1038 386
f 386 1038 384
f 1038 1039 384
f 384 1039 382
f 1039 1040 382
f 382 1040 380
f 1040 1041 380
f 380 1041 378
f 1041 1042 378
f 378 1042 376
f 1042 1043 376
f 376 1043 374
f 1043 1044 374
f 374 1044 372
f 1044 1045 372
f 372 1045 370
f 1045 1046 370
f 370 1046 368
f 1046 1047 368
f 368 1047 366
f 1047 1048 366
f 366 1048 364
f 1048 1049 364
f 364 1049 362
f 1049 1050 362
f 362 1050 360
f 1050 1051 360
f 360 1051 358
f 1051 1052 358
f 358 1052 308
f 1052 1053 308
f 308 1053 309
f 1053 1054 309
f 309 1054 493
f 1259 402 1258
f 402 401 1258
f 1258 401 1257
f 401 404 1257
f 1257 404 1256
f 404 406 1256
f 1256 406 1255
f 406 408 1255
f 1255 408 1254
f 408 410 1254
f 1254 410 1253
f 410 412 1253
f 1253 412 1252
f 412 414 1252
f 1252 414 1251
f 414 416 1251
f 1251 416 1250
f 416 418 1250
f 1250 418 1249
f 418 420 1249
f 1249 420 1248
f 420 422 1248
f 1248 422 1247
f 422 424 1247
f 1247 424 1246
f 424 426 1246
f 1246 426 1245
f 426 428 1245
f 1245 428 1244
f 428 430 1244
f 1244 430 1243
f 430 432 1243
f 1243 432 1242
f 432 434 1242
f 1242 434 1241
f 434 436 1241
f 1241 436 1240
f 436 438 1240
f 1240 438 1239
f 438 440 1239
f 1239 440 1238
f 440 442 1238
f 1238 442 1237
f 442 444 1237
f 1237 444 1236
f 444 447 1236
f 1236 447 1278
f 447 449 1278
f 1278 449 1277
f 449 451 1277
f 1277 451 1276
f 451 453 1276
f 1276 453 1275
f 453 455 1275
f 1275 455 1274
f 455 457 1274
f 1274 457 1273
f 457 459 1273
f 1273 459 1272
f 459 461 1272
f 1272 461 1271
f 461 463 1271
f 1271 463 1270
f 463 465 1270
f 1270 465 1269
f 465 467 1269
f 1269 467 1268
f 467 469 1268
f 1268 469 1267
f 469 471 1267
f 1267 471 1266
f 471 473 1266
f 1266 473 1265
f 473 475 1265
f 1265 475 1264
f 475 477 1264
f 1264 477 1263
f 477 479 1263
f 1263 479 1262
f 479 481 1262
f 1262 481 1261
f 481 483 1261
f 1261 483 1209
f 483 485 1209
f 1209 485 1210
f 485 487 1210
f 1210 487 1235
f 487 489 1235
f 1235 489 1229
f 489 491 1229
f 1229 491 1230
f 491 493 1230
f 493 1054 1230
f 1230 1054 1233
f 1054 1055 1233
f 1233 1055 1234
f 1055 896 1234
f 1234 896 1220
f 896 895 1220
f 1220 895 1221
f 895 894 1221
f 1221 894 1222
f 894 876 1222
f 1222 876 1214
f 876 875 1214
f 1214 875 1215
f 875 874 1215
f 1215 874 1216
f 874 873 1216
f 1216 873 1217
f 873 872 1217
f 1217 872 1218
f 872 871 1218
f 1218 871 1219
f 871 869 1219
f 1219 869 1208
f 869 870 1208
f 1208 870 1207
f 870 893 1207
f 1207 893 1211
f 893 892 1211
f 1211 892 1212
f 892 891 1212
f 1212 891 1213
f 891 888 1213
f 1213 888 1223
f 888 889 1223
f 1223 889 1224
f 889 890 1224
f 1224 890 1225
f 890 898 1225
f 1225 898 1231
f 898 897 1231
f 1231 897 1232
f 897 883 1232
f 1232 883 1228
f 883 882 1228
f 1228 882 1227
f 882 887 1227
f 1227 887 1226
f 887 886 1226
f 1226 886 1260
f 886 885 1260
f 1260 885 1259
f 885 884 1259
f 1259 884 357
f 884 355 357
f 179 178 291
f 214 1058 215
f 1058 216 215
f 214 213 1058
f 213 212 1058
f 1058 212 211
f 216 1058 217
f 1058 292 217
f 217 292 218
f 208 207 1058
f 207 206 1058
f 1058 206 205
f 154 153 292
f 153 152 292
f 211 210 1058
f 210 209 1058
f 1058 209 208
f 172 171 291
f 171 170 291
f 291 170 169
f 152 151 292
f 151 150 292
f 292 150 149
f 149 148 292
f 148 147 292
f 292 147 218
f 205 204 1058
f 204 203 1058
f 1058 203 202
f 198 197 300
f 197 196 300
f 300 196 195
f 189 188 300
f 188 187 300
f 178 177 291
f 177 176 291
f 291 176 175
f 169 168 291
f 168 167 291
f 291 167 166
f 175 174 291
f 174 173 291
f 291 173 172
f 157 156 292
f 156 155 292
f 292 155 154
f 202 201 1058
f 201 200 1058
f 1058 200 300
f 200 199 300
f 300 199 198
f 195 194 300
f 194 193 300
f 300 193 192
f 300 181 291
f 181 180 291
f 291 180 179
f 162 161 292
f 161 160 292
f 192 191 300
f 191 190 300
f 300 190 189
f 187 186 300
f 186 185 300
f 300 185 184
f 160 159 292
f 159 158 292
f 292 158 157
f 184 183 300
f 183 182 300
f 300 182 181
f 166 165 291
f 165 164 291
f 291 164 292
f 164 163 292
f 292 163 162
f 1099 1097 845
f 1097 1095 845
f 845 1095 1093
f 1093 1091 845
f 1091 1089 845
f 845 1089 1087
f 1077 845 1079
f 845 1081 1079
f 1069 1067 1061
f 1067 1065 1061
f 1061 1065 1206
f 1065 1063 1206
f 1206 1063 726
f 1063 1205 726
f 1087 1085 845
f 1085 1083 845
f 845 1083 1081
f 1077 1075 845
f 1075 1073 845
f 845 1073 1061
f 1073 1071 1061
f 1061 1071 1069
f 1205 1203 726
f 1203 1201 726
f 726 1201 1199
f 1099 821 1101
f 821 819 1101
f 1101 819 1103
f 819 817 1103
f 1103 817 1105
f 817 815 1105
f 1105 815 1107
f 815 813 1107
f 1107 813 1109
f 813 811 1109
f 1109 811 1111
f 811 809 1111
f 1111 809 1113
f 809 807 1113
f 1113 807 1115
f 807 805 1115
f 1115 805 1117
f 805 803 1117
f 1117 803 1119
f 803 801 1119
f 1119 801 1121
f 801 799 1121
f 1121 799 1123
f 799 797 1123
f 1123 797 1125
f 797 795 1125
f 1125 795 1127
f 795 793 1127
f 1127 793 1129
f 793 791 1129
f 1129 791 1131
f 791 789 1131
f 1131 789 1133
f 789 787 1133
f 1133 787 1135
f 787 785 1135
f 1135 785 1137
f 785 783 1137
f 1137 783 1139
f 783 781 1139
f 1139 781 1141
f 781 779 1141
f 1141 779 1143
f 779 777 1143
f 1143 777 1145
f 777 775 1145
f 1145 775 1147
f 775 773 1147
f 1147 773 1149
f 773 771 1149
f 1149 771 1151
f 771 769 1151
f 1151 769 1153
f 769 767 1153
f 1153 767 1155
f 767 765 1155
f 1155 765 1157
f 765 763 1157
f 1157 763 1159
f 763 761 1159
f 1159 761 1161
f 761 759 1161
f 1161 759 1163
f 759 757 1163
f 1163 757 1165
f 757 755 1165
f 1165 755 1167
f 755 753 1167
f 1167 753 1169
f 753 751 1169
f 1169 751 1171
f 751 749 1171
f 1171 749 1173
f 749 747 1173
f 1173 747 1175
f 747 745 1175
f 1175 745 1177
f 745 743 1177
f 1177 743 1179
f 743 741 1179
f 1179 741 1181
f 741 739 1181
f 1181 739 1183
f 739 737 1183
f 1183 737 1185
f 737 735 1185
f 1185 735 1187
f 735 733 1187
f 1187 733 1189
f 733 731 1189
f 1189 731 1191
f 731 729 1191
f 1191 729 1193
f 729 727 1193
f 1193 727 1195
f 727 726 1195
f 1195 726 1197
f 726 1199 1197
f 845 843 1099
f 843 841 1099
f 1099 841 839
f 839 837 1099
f 837 835 1099
f 1099 835 833
f 833 831 1099
f 831 829 1099
f 1099 829 827
f 827 825 1099
f 825 823 1099
f 1099 823 821
f 499 498 1206
f 498 1061 1206

