# https://github.com/mikedh/trimesh
v 0.00147721 0.00026047 0.00000000
v 0.00149429 0.00013073 0.00000000
v 0.00000000 0.00000000 0.00000000
v 0.00150000 0.00000000 0.00000000
v 0.00149429 -0.00013073 0.00000000
v 0.00135946 0.00063393 0.00000000
v 0.00140954 0.00051303 0.00000000
v 0.00144889 0.00038823 0.00000000
v 0.00114907 0.00096418 0.00000000
v 0.00122873 0.00086036 0.00000000
v 0.00129904 0.00075000 0.00000000
v 0.00086036 0.00122873 0.00000000
v 0.00096418 0.00114907 0.00000000
v 0.00106066 0.00106066 0.00000000
v 0.00051303 0.00140954 0.00000000
v 0.00063393 0.00135946 0.00000000
v 0.00075000 0.00129904 0.00000000
v 0.00013073 0.00149429 0.00000000
v 0.00026047 0.00147721 0.00000000
v 0.00038823 0.00144889 0.00000000
v -0.00026047 0.00147721 0.00000000
v -0.00013073 0.00149429 0.00000000
v -0.00000000 0.00150000 0.00000000
v -0.00063393 0.00135946 0.00000000
v -0.00051303 0.00140954 0.00000000
v -0.00038823 0.00144889 0.00000000
v -0.00096418 0.00114907 0.00000000
v -0.00086036 0.00122873 0.00000000
v -0.00075000 0.00129904 0.00000000
v -0.00122873 0.00086036 0.00000000
v -0.00114907 0.00096418 0.00000000
v -0.00106066 0.00106066 0.00000000
v -0.00140954 0.00051303 0.00000000
v -0.00135946 0.00063393 0.00000000
v -0.00129904 0.00075000 0.00000000
v -0.00149429 0.00013073 0.00000000
v -0.00147721 0.00026047 0.00000000
v -0.00144889 0.00038823 0.00000000
v -0.00147721 -0.00026047 0.00000000
v -0.00149429 -0.00013073 0.00000000
v -0.00150000 0.00000000 0.00000000
v -0.00135946 -0.00063393 0.00000000
v -0.00140954 -0.00051303 0.00000000
v -0.00144889 -0.00038823 0.00000000
v -0.00114907 -0.00096418 0.00000000
v -0.00122873 -0.00086036 0.00000000
v -0.00129904 -0.00075000 0.00000000
v -0.00086036 -0.00122873 0.00000000
v -0.00096418 -0.00114907 0.00000000
v -0.00106066 -0.00106066 0.00000000
v -0.00051303 -0.00140954 0.00000000
v -0.00063393 -0.00135946 0.00000000
v -0.00075000 -0.00129904 0.00000000
v -0.00013073 -0.00149429 0.00000000
v -0.00026047 -0.00147721 0.00000000
v -0.00038823 -0.00144889 0.00000000
v 0.00026047 -0.00147721 0.00000000
v 0.00013073 -0.00149429 0.00000000
v 0.00000000 -0.00150000 0.00000000
v 0.00063393 -0.00135946 0.00000000
v 0.00051303 -0.00140954 0.00000000
v 0.00038823 -0.00144889 0.00000000
v 0.00096418 -0.00114907 0.00000000
v 0.00086036 -0.00122873 0.00000000
v 0.00075000 -0.00129904 0.00000000
v 0.00122873 -0.00086036 0.00000000
v 0.00114907 -0.00096418 0.00000000
v 0.00106066 -0.00106066 0.00000000
v 0.00140954 -0.00051303 0.00000000
v 0.00135946 -0.00063393 0.00000000
v 0.00129904 -0.00075000 0.00000000
v 0.00147721 -0.00026047 0.00000000
v 0.00144889 -0.00038823 0.00000000
v -0.00149429 0.00013073 0.01700000
v -0.00147721 0.00026047 0.01700000
v -0.00144889 0.00038823 0.01700000
v -0.00140954 0.00051303 0.01700000
v -0.00135946 0.00063393 0.01700000
v -0.00129904 0.00075000 0.01700000
v -0.00122873 0.00086036 0.01700000
v -0.00114907 0.00096418 0.01700000
v -0.00106066 0.00106066 0.01700000
v -0.00096418 0.00114907 0.01700000
v -0.00086036 0.00122873 0.01700000
v -0.00075000 0.00129904 0.01700000
v -0.00063393 0.00135946 0.01700000
v -0.00051303 0.00140954 0.01700000
v -0.00038823 0.00144889 0.01700000
v -0.00026047 0.00147721 0.01700000
v -0.00013073 0.00149429 0.01700000
v -0.00000000 0.00150000 0.01700000
v 0.00013073 0.00149429 0.01700000
v 0.00026047 0.00147721 0.01700000
v 0.00038823 0.00144889 0.01700000
v 0.00051303 0.00140954 0.01700000
v 0.00063393 0.00135946 0.01700000
v 0.00075000 0.00129904 0.01700000
v 0.00086036 0.00122873 0.01700000
v 0.00096418 0.00114907 0.01700000
v 0.00106066 0.00106066 0.01700000
v 0.00114907 0.00096418 0.01700000
v 0.00122873 0.00086036 0.01700000
v 0.00129904 0.00075000 0.01700000
v 0.00135946 0.00063393 0.01700000
v 0.00140954 0.00051303 0.01700000
v 0.00144889 0.00038823 0.01700000
v 0.00147721 0.00026047 0.01700000
v 0.00149429 0.00013073 0.01700000
v 0.00150000 0.00000000 0.01700000
v 0.00149429 -0.00013073 0.01700000
v 0.00147721 -0.00026047 0.01700000
v 0.00144889 -0.00038823 0.01700000
v 0.00140954 -0.00051303 0.01700000
v 0.00135946 -0.00063393 0.01700000
v 0.00129904 -0.00075000 0.01700000
v 0.00122873 -0.00086036 0.01700000
v 0.00114907 -0.00096418 0.01700000
v 0.00106066 -0.00106066 0.01700000
v 0.00096418 -0.00114907 0.01700000
v 0.00086036 -0.00122873 0.01700000
v 0.00075000 -0.00129904 0.01700000
v 0.00063393 -0.00135946 0.01700000
v 0.00051303 -0.00140954 0.01700000
v 0.00038823 -0.00144889 0.01700000
v 0.00026047 -0.00147721 0.01700000
v 0.00013073 -0.00149429 0.01700000
v 0.00000000 -0.00150000 0.01700000
v -0.00013073 -0.00149429 0.01700000
v -0.00026047 -0.00147721 0.01700000
v -0.00038823 -0.00144889 0.01700000
v -0.00051303 -0.00140954 0.01700000
v -0.00063393 -0.00135946 0.01700000
v -0.00075000 -0.00129904 0.01700000
v -0.00086036 -0.00122873 0.01700000
v -0.00096418 -0.00114907 0.01700000
v -0.00106066 -0.00106066 0.01700000
v -0.00114907 -0.00096418 0.01700000
v -0.00122873 -0.00086036 0.01700000
v -0.00129904 -0.00075000 0.01700000
v -0.00135946 -0.00063393 0.01700000
v -0.00140954 -0.00051303 0.01700000
v -0.00144889 -0.00038823 0.01700000
v -0.00147721 -0.00026047 0.01700000
v -0.00149429 -0.00013073 0.01700000
v -0.00150000 0.00000000 0.01700000
v 0.00000000 0.00000000 0.01700000
f 1 2 3
f 2 4 3
f 3 4 5
f 6 7 3
f 7 8 3
f 3 8 1
f 9 10 3
f 10 11 3
f 3 11 6
f 12 13 3
f 13 14 3
f 3 14 9
f 15 16 3
f 16 17 3
f 3 17 12
f 18 19 3
f 19 20 3
f 3 20 15
f 21 22 3
f 22 23 3
f 3 23 18
f 24 25 3
f 25 26 3
f 3 26 21
f 27 28 3
f 28 29 3
f 3 29 24
f 30 31 3
f 31 32 3
f 3 32 27
f 33 34 3
f 34 35 3
f 3 35 30
f 36 37 3
f 37 38 3
f 3 38 33
f 39 40 3
f 40 41 3
f 3 41 36
f 42 43 3
f 43 44 3
f 3 44 39
f 45 46 3
f 46 47 3
f 3 47 42
f 48 49 3
f 49 50 3
f 3 50 45
f 51 52 3
f 52 53 3
f 3 53 48
f 54 55 3
f 55 56 3
f 3 56 51
f 57 58 3
f 58 59 3
f 3 59 54
f 60 61 3
f 61 62 3
f 3 62 57
f 63 64 3
f 64 65 3
f 3 65 60
f 66 67 3
f 67 68 3
f 3 68 63
f 69 70 3
f 70 71 3
f 3 71 66
f 5 72 3
f 72 73 3
f 3 73 69
f 41 74 36
f 74 75 36
f 36 75 37
f 75 76 37
f 37 76 38
f 76 77 38
f 38 77 33
f 77 78 33
f 33 78 34
f 78 79 34
f 34 79 35
f 79 80 35
f 35 80 30
f 80 81 30
f 30 81 31
f 81 82 31
f 31 82 32
f 82 83 32
f 32 83 27
f 83 84 27
f 27 84 28
f 84 85 28
f 28 85 29
f 85 86 29
f 29 86 24
f 86 87 24
f 24 87 25
f 87 88 25
f 25 88 26
f 88 89 26
f 26 89 21
f 89 90 21
f 21 90 22
f 90 91 22
f 22 91 23
f 91 92 23
f 23 92 18
f 92 93 18
f 18 93 19
f 93 94 19
f 19 94 20
f 94 95 20
f 20 95 15
f 95 96 15
f 15 96 16
f 96 97 16
f 16 97 17
f 97 98 17
f 17 98 12
f 98 99 12
f 12 99 13
f 99 100 13
f 13 100 14
f 100 101 14
f 14 101 9
f 101 102 9
f 9 102 10
f 102 103 10
f 10 103 11
f 103 104 11
f 11 104 6
f 104 105 6
f 6 105 7
f 105 106 7
f 7 106 8
f 106 107 8
f 8 107 1
f 107 108 1
f 1 108 2
f 108 109 2
f 2 109 4
f 109 110 4
f 4 110 5
f 110 111 5
f 5 111 72
f 111 112 72
f 72 112 73
f 112 113 73
f 73 113 69
f 113 114 69
f 69 114 70
f 114 115 70
f 70 115 71
f 115 116 71
f 71 116 66
f 116 117 66
f 66 117 67
f 117 118 67
f 67 118 68
f 118 119 68
f 68 119 63
f 119 120 63
f 63 120 64
f 120 121 64
f 64 121 65
f 121 122 65
f 65 122 60
f 122 123 60
f 60 123 61
f 123 124 61
f 61 124 62
f 124 125 62
f 62 125 57
f 125 126 57
f 57 126 58
f 126 127 58
f 58 127 59
f 127 128 59
f 59 128 54
f 128 129 54
f 54 129 55
f 129 130 55
f 55 130 56
f 130 131 56
f 56 131 51
f 131 132 51
f 51 132 52
f 132 133 52
f 52 133 53
f 133 134 53
f 53 134 48
f 134 135 48
f 48 135 49
f 135 136 49
f 49 136 50
f 136 137 50
f 50 137 45
f 137 138 45
f 45 138 46
f 138 139 46
f 46 139 47
f 139 140 47
f 47 140 42
f 140 141 42
f 42 141 43
f 141 142 43
f 43 142 44
f 142 143 44
f 44 143 39
f 143 144 39
f 39 144 40
f 144 145 40
f 40 145 41
f 145 74 41
f 111 110 146
f 110 109 146
f 146 109 108
f 114 113 146
f 113 112 146
f 146 112 111
f 117 116 146
f 116 115 146
f 146 115 114
f 120 119 146
f 119 118 146
f 146 118 117
f 123 122 146
f 122 121 146
f 146 121 120
f 126 125 146
f 125 124 146
f 146 124 123
f 129 128 146
f 128 127 146
f 146 127 126
f 132 131 146
f 131 130 146
f 146 130 129
f 135 134 146
f 134 133 146
f 146 133 132
f 138 137 146
f 137 136 146
f 146 136 135
f 141 140 146
f 140 139 146
f 146 139 138
f 144 143 146
f 143 142 146
f 146 142 141
f 75 74 146
f 74 145 146
f 146 145 144
f 78 77 146
f 77 76 146
f 146 76 75
f 81 80 146
f 80 79 146
f 146 79 78
f 84 83 146
f 83 82 146
f 146 82 81
f 87 86 146
f 86 85 146
f 146 85 84
f 90 89 146
f 89 88 146
f 146 88 87
f 93 92 146
f 92 91 146
f 146 91 90
f 96 95 146
f 95 94 146
f 146 94 93
f 99 98 146
f 98 97 146
f 146 97 96
f 102 101 146
f 101 100 146
f 146 100 99
f 105 104 146
f 104 103 146
f 146 103 102
f 108 107 146
f 107 106 146
f 146 106 105

