# https://github.com/mikedh/trimesh
v 0.03939231 -0.00694593 1.17624998
v 0.03984779 -0.00348623 1.17624998
v 0.00000000 0.00000000 1.17624998
v 0.04000000 0.00000000 1.17624998
v 0.03984779 0.00348623 1.17624998
v 0.03625231 -0.01690473 1.17624998
v 0.03758771 -0.01368081 1.17624998
v 0.03863703 -0.01035276 1.17624998
v 0.03064178 -0.02571150 1.17624998
v 0.03276608 -0.02294306 1.17624998
v 0.03464102 -0.02000000 1.17624998
v 0.02294306 -0.03276608 1.17624998
v 0.02571150 -0.03064178 1.17624998
v 0.02828427 -0.02828427 1.17624998
v 0.01368081 -0.03758771 1.17624998
v 0.01690473 -0.03625231 1.17624998
v 0.02000000 -0.03464102 1.17624998
v 0.00348623 -0.03984779 1.17624998
v 0.00694593 -0.03939231 1.17624998
v 0.01035276 -0.03863703 1.17624998
v -0.00694593 -0.03939231 1.17624998
v -0.00348623 -0.03984779 1.17624998
v 0.00000000 -0.04000000 1.17624998
v -0.01690473 -0.03625231 1.17624998
v -0.01368081 -0.03758771 1.17624998
v -0.01035276 -0.03863703 1.17624998
v -0.02571150 -0.03064178 1.17624998
v -0.02294306 -0.03276608 1.17624998
v -0.02000000 -0.03464102 1.17624998
v -0.03276608 -0.02294306 1.17624998
v -0.03064178 -0.02571150 1.17624998
v -0.02828427 -0.02828427 1.17624998
v -0.03758771 -0.01368081 1.17624998
v -0.03625231 -0.01690473 1.17624998
v -0.03464102 -0.02000000 1.17624998
v -0.03984779 -0.00348623 1.17624998
v -0.03939231 -0.00694593 1.17624998
v -0.03863703 -0.01035276 1.17624998
v -0.03939231 0.00694593 1.17624998
v -0.03984779 0.00348623 1.17624998
v -0.04000000 0.00000000 1.17624998
v -0.03625231 0.01690473 1.17624998
v -0.03758771 0.01368081 1.17624998
v -0.03863703 0.01035276 1.17624998
v -0.03064178 0.02571150 1.17624998
v -0.03276608 0.02294306 1.17624998
v -0.03464102 0.02000000 1.17624998
v -0.02294306 0.03276608 1.17624998
v -0.02571150 0.03064178 1.17624998
v -0.02828427 0.02828427 1.17624998
v -0.01368081 0.03758771 1.17624998
v -0.01690473 0.03625231 1.17624998
v -0.02000000 0.03464102 1.17624998
v -0.00348623 0.03984779 1.17624998
v -0.00694593 0.03939231 1.17624998
v -0.01035276 0.03863703 1.17624998
v 0.00694593 0.03939231 1.17624998
v 0.00348623 0.03984779 1.17624998
v -0.00000000 0.04000000 1.17624998
v 0.01690473 0.03625231 1.17624998
v 0.01368081 0.03758771 1.17624998
v 0.01035276 0.03863703 1.17624998
v 0.02571150 0.03064178 1.17624998
v 0.02294306 0.03276608 1.17624998
v 0.02000000 0.03464102 1.17624998
v 0.03276608 0.02294306 1.17624998
v 0.03064178 0.02571150 1.17624998
v 0.02828427 0.02828427 1.17624998
v 0.03758771 0.01368081 1.17624998
v 0.03625231 0.01690473 1.17624998
v 0.03464102 0.02000000 1.17624998
v 0.03939231 0.00694593 1.17624998
v 0.03863703 0.01035276 1.17624998
v -0.04000000 0.00000000 1.10000002
v -0.03984779 0.00348623 1.10000002
v -0.03939231 0.00694593 1.10000002
v -0.03863703 0.01035276 1.10000002
v -0.03758771 0.01368081 1.10000002
v -0.03625231 0.01690473 1.10000002
v -0.03464102 0.02000000 1.10000002
v -0.03276608 0.02294306 1.10000002
v -0.03064178 0.02571150 1.10000002
v -0.02828427 0.02828427 1.10000002
v -0.02571150 0.03064178 1.10000002
v -0.02294306 0.03276608 1.10000002
v -0.02000000 0.03464102 1.10000002
v -0.01690473 0.03625231 1.10000002
v -0.01368081 0.03758771 1.10000002
v -0.01035276 0.03863703 1.10000002
v -0.00694593 0.03939231 1.10000002
v -0.00348623 0.03984779 1.10000002
v -0.00000000 0.04000000 1.10000002
v 0.00348623 0.03984779 1.10000002
v 0.00694593 0.03939231 1.10000002
v 0.01035276 0.03863703 1.10000002
v 0.01368081 0.03758771 1.10000002
v 0.01690473 0.03625231 1.10000002
v 0.02000000 0.03464102 1.10000002
v 0.02294306 0.03276608 1.10000002
v 0.02571150 0.03064178 1.10000002
v 0.02828427 0.02828427 1.10000002
v 0.03064178 0.02571150 1.10000002
v 0.03276608 0.02294306 1.10000002
v 0.03464102 0.02000000 1.10000002
v 0.03625231 0.01690473 1.10000002
v 0.03758771 0.01368081 1.10000002
v 0.03863703 0.01035276 1.10000002
v 0.03939231 0.00694593 1.10000002
v 0.03984779 0.00348623 1.10000002
v 0.04000000 0.00000000 1.10000002
v 0.03984779 -0.00348623 1.10000002
v 0.03939231 -0.00694593 1.10000002
v 0.03863703 -0.01035276 1.10000002
v 0.03758771 -0.01368081 1.10000002
v 0.03625231 -0.01690473 1.10000002
v 0.03464102 -0.02000000 1.10000002
v 0.03276608 -0.02294306 1.10000002
v 0.03064178 -0.02571150 1.10000002
v 0.02828427 -0.02828427 1.10000002
v 0.02571150 -0.03064178 1.10000002
v 0.02294306 -0.03276608 1.10000002
v 0.02000000 -0.03464102 1.10000002
v 0.01690473 -0.03625231 1.10000002
v 0.01368081 -0.03758771 1.10000002
v 0.01035276 -0.03863703 1.10000002
v 0.00694593 -0.03939231 1.10000002
v 0.00348623 -0.03984779 1.10000002
v 0.00000000 -0.04000000 1.10000002
v -0.00348623 -0.03984779 1.10000002
v -0.00694593 -0.03939231 1.10000002
v -0.01035276 -0.03863703 1.10000002
v -0.01368081 -0.03758771 1.10000002
v -0.01690473 -0.03625231 1.10000002
v -0.02000000 -0.03464102 1.10000002
v -0.02294306 -0.03276608 1.10000002
v -0.02571150 -0.03064178 1.10000002
v -0.02828427 -0.02828427 1.10000002
v -0.03064178 -0.02571150 1.10000002
v -0.03276608 -0.02294306 1.10000002
v -0.03464102 -0.02000000 1.10000002
v -0.03625231 -0.01690473 1.10000002
v -0.03758771 -0.01368081 1.10000002
v -0.03863703 -0.01035276 1.10000002
v -0.03939231 -0.00694593 1.10000002
v -0.03984779 -0.00348623 1.10000002
v -0.12500000 -0.12500000 1.10000002
v -0.12500000 0.12500000 1.10000002
v -0.12500000 -0.12500000 0.00000000
v -0.12500000 0.12500000 0.00000000
v 0.12500000 0.12500000 1.10000002
v 0.12500000 0.12500000 0.00000000
v 0.12500000 -0.12500000 1.10000002
v 0.12500000 -0.12500000 0.00000000
f 1 2 3
f 2 4 3
f 3 4 5
f 6 7 3
f 7 8 3
f 3 8 1
f 9 10 3
f 10 11 3
f 3 11 6
f 12 13 3
f 13 14 3
f 3 14 9
f 15 16 3
f 16 17 3
f 3 17 12
f 18 19 3
f 19 20 3
f 3 20 15
f 21 22 3
f 22 23 3
f 3 23 18
f 24 25 3
f 25 26 3
f 3 26 21
f 27 28 3
f 28 29 3
f 3 29 24
f 30 31 3
f 31 32 3
f 3 32 27
f 33 34 3
f 34 35 3
f 3 35 30
f 36 37 3
f 37 38 3
f 3 38 33
f 39 40 3
f 40 41 3
f 3 41 36
f 42 43 3
f 43 44 3
f 3 44 39
f 45 46 3
f 46 47 3
f 3 47 42
f 48 49 3
f 49 50 3
f 3 50 45
f 51 52 3
f 52 53 3
f 3 53 48
f 54 55 3
f 55 56 3
f 3 56 51
f 57 58 3
f 58 59 3
f 3 59 54
f 60 61 3
f 61 62 3
f 3 62 57
f 63 64 3
f 64 65 3
f 3 65 60
f 66 67 3
f 67 68 3
f 3 68 63
f 69 70 3
f 70 71 3
f 3 71 66
f 5 72 3
f 72 73 3
f 3 73 69
f 74 40 75
f 40 39 75
f 75 39 76
f 39 44 76
f 76 44 77
f 44 43 77
f 77 43 78
f 43 42 78
f 78 42 79
f 42 47 79
f 79 47 80
f 47 46 80
f 80 46 81
f 46 45 81
f 81 45 82
f 45 50 82
f 82 50 83
f 50 49 83
f 83 49 84
f 49 48 84
f 84 48 85
f 48 53 85
f 85 53 86
f 53 52 86
f 86 52 87
f 52 51 87
f 87 51 88
f 51 56 88
f 88 56 89
f 56 55 89
f 89 55 90
f 55 54 90
f 90 54 91
f 54 59 91
f 91 59 92
f 59 58 92
f 92 58 93
f 58 57 93
f 93 57 94
f 57 62 94
f 94 62 95
f 62 61 95
f 95 61 96
f 61 60 96
f 96 60 97
f 60 65 97
f 97 65 98
f 65 64 98
f 98 64 99
f 64 63 99
f 99 63 100
f 63 68 100
f 100 68 101
f 68 67 101
f 101 67 102
f 67 66 102
f 102 66 103
f 66 71 103
f 103 71 104
f 71 70 104
f 104 70 105
f 70 69 105
f 105 69 106
f 69 73 106
f 106 73 107
f 73 72 107
f 107 72 108
f 72 5 108
f 108 5 109
f 5 4 109
f 109 4 110
f 4 2 110
f 110 2 111
f 2 1 111
f 111 1 112
f 1 8 112
f 112 8 113
f 8 7 113
f 113 7 114
f 7 6 114
f 114 6 115
f 6 11 115
f 115 11 116
f 11 10 116
f 116 10 117
f 10 9 117
f 117 9 118
f 9 14 118
f 118 14 119
f 14 13 119
f 119 13 120
f 13 12 120
f 120 12 121
f 12 17 121
f 121 17 122
f 17 16 122
f 122 16 123
f 16 15 123
f 123 15 124
f 15 20 124
f 124 20 125
f 20 19 125
f 125 19 126
f 19 18 126
f 126 18 127
f 18 23 127
f 127 23 128
f 23 22 128
f 128 22 129
f 22 21 129
f 129 21 130
f 21 26 130
f 130 26 131
f 26 25 131
f 131 25 132
f 25 24 132
f 132 24 133
f 24 29 133
f 133 29 134
f 29 28 134
f 134 28 135
f 28 27 135
f 135 27 136
f 27 32 136
f 136 32 137
f 32 31 137
f 137 31 138
f 31 30 138
f 138 30 139
f 30 35 139
f 139 35 140
f 35 34 140
f 140 34 141
f 34 33 141
f 141 33 142
f 33 38 142
f 142 38 143
f 38 37 143
f 143 37 144
f 37 36 144
f 144 36 145
f 36 41 145
f 145 41 74
f 41 40 74
f 146 147 148
f 147 149 148
f 147 150 149
f 150 151 149
f 152 146 153
f 146 148 153
f 150 152 151
f 152 153 151
f 99 100 150
f 99 150 98
f 117 118 152
f 118 119 152
f 152 119 120
f 100 101 150
f 101 102 150
f 150 102 103
f 103 104 150
f 104 105 150
f 150 105 106
f 150 109 152
f 109 110 152
f 152 110 111
f 111 112 152
f 112 113 152
f 152 113 114
f 87 88 147
f 88 89 147
f 106 107 150
f 107 108 150
f 150 108 109
f 114 115 152
f 115 116 152
f 152 116 117
f 82 83 147
f 83 84 147
f 93 94 150
f 94 95 150
f 120 121 152
f 121 122 152
f 152 122 123
f 123 124 152
f 124 125 152
f 152 125 126
f 84 85 147
f 85 86 147
f 147 86 87
f 95 96 150
f 96 97 150
f 150 97 98
f 136 137 146
f 137 138 146
f 144 145 146
f 145 74 146
f 146 74 147
f 74 75 147
f 147 75 76
f 76 77 147
f 77 78 147
f 147 78 79
f 79 80 147
f 80 81 147
f 147 81 82
f 89 90 147
f 90 91 147
f 147 91 150
f 91 92 150
f 150 92 93
f 126 127 152
f 127 128 152
f 152 128 146
f 128 129 146
f 146 129 130
f 130 131 146
f 131 132 146
f 146 132 133
f 138 139 146
f 139 140 146
f 146 140 141
f 133 134 146
f 134 135 146
f 146 135 136
f 141 142 146
f 142 143 146
f 146 143 144
f 153 148 151
f 148 149 151

