# https://github.com/mikedh/trimesh
v 0.96799999 0.00000000 0.00000000
v 0.96799999 -0.00000000 0.03812500
v 0.96794289 0.00130734 0.00000000
v 0.96794289 0.00130734 0.03812500
v 0.96777213 0.00260472 0.00000000
v 0.96777213 0.00260472 0.03812500
v 0.96748888 0.00388229 0.00000000
v 0.96748888 0.00388229 0.03812500
v 0.96709538 0.00513030 0.00000000
v 0.96709538 0.00513030 0.03812500
v 0.96659464 0.00633927 0.00000000
v 0.96659464 0.00633927 0.03812500
v 0.96599036 0.00750000 0.00000000
v 0.96599036 0.00750000 0.03812500
v 0.96528727 0.00860365 0.00000000
v 0.96528727 0.00860365 0.03812500
v 0.96449065 0.00964181 0.00000000
v 0.96449065 0.00964181 0.03812500
v 0.96360660 0.01060660 0.00000000
v 0.96360660 0.01060660 0.03812500
v 0.96264184 0.01149067 0.00000000
v 0.96264184 0.01149067 0.03812500
v 0.96160364 0.01228728 0.00000000
v 0.96160364 0.01228728 0.03812500
v 0.96050000 0.01299038 0.00000000
v 0.96050000 0.01299038 0.03812500
v 0.95933926 0.01359462 0.00000000
v 0.95933926 0.01359462 0.03812500
v 0.95813030 0.01409539 0.00000000
v 0.95813030 0.01409539 0.03812500
v 0.95688230 0.01448889 0.00000000
v 0.95688230 0.01448889 0.03812500
v 0.95560473 0.01477212 0.00000000
v 0.95560473 0.01477212 0.03812500
v 0.95430732 0.01494292 0.00000000
v 0.95430732 0.01494292 0.03812500
v 0.95300001 0.01500000 0.00000000
v 0.95300001 0.01500000 0.03812500
v 0.95169264 0.01494292 0.00000000
v 0.95169264 0.01494292 0.03812500
v 0.95039529 0.01477212 0.00000000
v 0.95039529 0.01477212 0.03812500
v 0.94911772 0.01448889 0.00000000
v 0.94911772 0.01448889 0.03812500
v 0.94786972 0.01409539 0.00000000
v 0.94786972 0.01409539 0.03812500
v 0.94666070 0.01359462 0.00000000
v 0.94666070 0.01359462 0.03812500
v 0.94550002 0.01299038 0.00000000
v 0.94550002 0.01299038 0.03812500
v 0.94439638 0.01228728 0.00000000
v 0.94439638 0.01228728 0.03812500
v 0.94335818 0.01149067 0.00000000
v 0.94335818 0.01149067 0.03812500
v 0.94239342 0.01060660 0.00000000
v 0.94239342 0.01060660 0.03812500
v 0.94150931 0.00964181 0.00000000
v 0.94150931 0.00964181 0.03812500
v 0.94071269 0.00860365 0.00000000
v 0.94071269 0.00860365 0.03812500
v 0.94000959 0.00750000 0.00000000
v 0.94000959 0.00750000 0.03812500
v 0.93940538 0.00633927 0.00000000
v 0.93940538 0.00633927 0.03812500
v 0.93890458 0.00513030 0.00000000
v 0.93890458 0.00513030 0.03812500
v 0.93851113 0.00388229 0.00000000
v 0.93851113 0.00388229 0.03812500
v 0.93822789 0.00260472 0.00000000
v 0.93822789 0.00260472 0.03812500
v 0.93805707 0.00130734 0.00000000
v 0.93805707 0.00130734 0.03812500
v 0.93800002 0.00000000 0.00000000
v 0.93800002 0.00000000 0.03812500
v 0.93805707 -0.00130734 0.00000000
v 0.93805707 -0.00130734 0.03812500
v 0.93822789 -0.00260472 0.00000000
v 0.93822789 -0.00260472 0.03812500
v 0.93851113 -0.00388229 0.00000000
v 0.93851113 -0.00388229 0.03812500
v 0.93890458 -0.00513030 0.00000000
v 0.93890458 -0.00513030 0.03812500
v 0.93940538 -0.00633927 0.00000000
v 0.93940538 -0.00633927 0.03812500
v 0.94000959 -0.00750000 0.00000000
v 0.94000959 -0.00750000 0.03812500
v 0.94071269 -0.00860365 0.00000000
v 0.94071269 -0.00860365 0.03812500
v 0.94150931 -0.00964181 0.00000000
v 0.94150931 -0.00964181 0.03812500
v 0.94239342 -0.01060660 0.00000000
v 0.94239342 -0.01060660 0.03812500
v 0.94335818 -0.01149067 0.00000000
v 0.94335818 -0.01149067 0.03812500
v 0.94439638 -0.01228728 0.00000000
v 0.94439638 -0.01228728 0.03812500
v 0.94550002 -0.01299038 0.00000000
v 0.94550002 -0.01299038 0.03812500
v 0.94666070 -0.01359462 0.00000000
v 0.94666070 -0.01359462 0.03812500
v 0.94786972 -0.01409539 0.00000000
v 0.94786972 -0.01409539 0.03812500
v 0.94911772 -0.01448889 0.00000000
v 0.94911772 -0.01448889 0.03812500
v 0.95039529 -0.01477212 0.00000000
v 0.95039529 -0.01477212 0.03812500
v 0.95169264 -0.01494292 0.00000000
v 0.95169264 -0.01494292 0.03812500
v 0.95300001 -0.01500000 0.00000000
v 0.95300001 -0.01500000 0.03812500
v 0.95430732 -0.01494292 0.00000000
v 0.95430732 -0.01494292 0.03812500
v 0.95560473 -0.01477212 0.00000000
v 0.95560473 -0.01477212 0.03812500
v 0.95688230 -0.01448889 0.00000000
v 0.95688230 -0.01448889 0.03812500
v 0.95813030 -0.01409539 0.00000000
v 0.95813030 -0.01409539 0.03812500
v 0.95933926 -0.01359462 0.00000000
v 0.95933926 -0.01359462 0.03812500
v 0.96050000 -0.01299038 0.00000000
v 0.96050000 -0.01299038 0.03812500
v 0.96160364 -0.01228728 0.00000000
v 0.96160364 -0.01228728 0.03812500
v 0.96264184 -0.01149067 0.00000000
v 0.96264184 -0.01149067 0.03812500
v 0.96360660 -0.01060660 0.00000000
v 0.96360660 -0.01060660 0.03812500
v 0.96449065 -0.00964181 0.00000000
v 0.96449065 -0.00964181 0.03812500
v 0.96528727 -0.00860365 0.00000000
v 0.96528727 -0.00860365 0.03812500
v 0.96599036 -0.00750000 0.00000000
v 0.96599036 -0.00750000 0.03812500
v 0.96659464 -0.00633927 0.00000000
v 0.96659464 -0.00633927 0.03812500
v 0.96709538 -0.00513030 0.00000000
v 0.96709538 -0.00513030 0.03812500
v 0.96748888 -0.00388229 0.00000000
v 0.96748888 -0.00388229 0.03812500
v 0.96777213 -0.00260472 0.00000000
v 0.96777213 -0.00260472 0.03812500
v 0.96794289 -0.00130734 0.00000000
v 0.96794289 -0.00130734 0.03812500
v 0.00000000 -0.04700000 0.00000000
v 0.03625231 0.01690473 0.00000000
v 0.03758771 0.01368081 0.00000000
v 0.03863703 0.01035276 0.00000000
v 0.00000000 0.04700000 0.00000000
v 0.03984779 0.00348623 0.00000000
v 0.03939231 0.00694593 0.00000000
v 0.03064178 0.02571150 0.00000000
v 0.02828427 0.02828427 0.00000000
v 0.00348623 -0.03984779 0.00000000
v 0.00694593 -0.03939231 0.00000000
v 0.02828427 -0.02828427 0.00000000
v 0.03064178 -0.02571150 0.00000000
v 0.03276608 -0.02294306 0.00000000
v 0.03464102 -0.02000000 0.00000000
v 0.03625231 -0.01690473 0.00000000
v 0.03758771 -0.01368081 0.00000000
v 0.03863703 -0.01035276 0.00000000
v 0.03939231 -0.00694593 0.00000000
v 0.03984779 -0.00348623 0.00000000
v 0.04000000 0.00000000 0.00000000
v 0.01035276 -0.03863703 0.00000000
v 0.01368081 -0.03758771 0.00000000
v 0.01690473 -0.03625231 0.00000000
v 0.02000000 -0.03464102 0.00000000
v 0.02294306 -0.03276608 0.00000000
v 0.02571150 -0.03064178 0.00000000
v 0.96116143 -0.04628596 0.00000000
v 0.95709634 -0.04682115 0.00000000
v 0.95300001 -0.04700000 0.00000000
v 0.97286308 -0.04259647 0.00000000
v 0.96516448 -0.04539851 0.00000000
v 0.96907496 -0.04416555 0.00000000
v 0.03464102 0.02000000 0.00000000
v 0.03276608 0.02294306 0.00000000
v 0.02571150 0.03064178 0.00000000
v 0.02294306 0.03276608 0.00000000
v 0.02000000 0.03464102 0.00000000
v 0.95300001 0.04700000 0.00000000
v 0.01368081 0.03758771 0.00000000
v -0.00409632 0.04682115 0.00000000
v 0.01690473 0.03625231 0.00000000
v 0.01035276 0.03863703 0.00000000
v 0.00694593 0.03939231 0.00000000
v 0.00348623 0.03984779 0.00000000
v -0.00000000 0.04000000 0.00000000
v -0.00348623 0.03984779 0.00000000
v -0.00816146 0.04628596 0.00000000
v -0.00694593 0.03939231 0.00000000
v -0.01216449 0.04539851 0.00000000
v -0.01035276 0.03863703 0.00000000
v -0.01607495 0.04416555 0.00000000
v -0.01368081 0.03758771 0.00000000
v -0.01986306 0.04259647 0.00000000
v -0.01690473 0.03625231 0.00000000
v -0.02350000 0.04070319 0.00000000
v -0.02000000 0.03464102 0.00000000
v -0.02695809 0.03850015 0.00000000
v -0.02294306 0.03276608 0.00000000
v -0.03021102 0.03600409 0.00000000
v -0.02571150 0.03064178 0.00000000
v -0.03323402 0.03323402 0.00000000
v -0.02828427 0.02828427 0.00000000
v -0.03600409 0.03021102 0.00000000
v -0.03064178 0.02571150 0.00000000
v -0.03850015 0.02695809 0.00000000
v -0.03276608 0.02294306 0.00000000
v -0.04070319 0.02350000 0.00000000
v -0.03464102 0.02000000 0.00000000
v -0.04259647 0.01986306 0.00000000
v -0.03625231 0.01690473 0.00000000
v -0.04416555 0.01607495 0.00000000
v -0.03758771 0.01368081 0.00000000
v -0.04539851 0.01216449 0.00000000
v -0.03863703 0.01035276 0.00000000
v -0.04628596 0.00816146 0.00000000
v -0.03939231 0.00694593 0.00000000
v -0.04682115 0.00409632 0.00000000
v -0.03984779 0.00348623 0.00000000
v -0.04700000 -0.00000000 0.00000000
v -0.04000000 -0.00000000 0.00000000
v -0.04682115 -0.00409632 0.00000000
v -0.03984779 -0.00348623 0.00000000
v -0.04628596 -0.00816146 0.00000000
v -0.03939231 -0.00694593 0.00000000
v -0.04539851 -0.01216449 0.00000000
v -0.03863703 -0.01035276 0.00000000
v -0.04416555 -0.01607495 0.00000000
v -0.03758771 -0.01368081 0.00000000
v -0.04259647 -0.01986306 0.00000000
v -0.03625231 -0.01690473 0.00000000
v -0.04070319 -0.02350000 0.00000000
v -0.03464102 -0.02000000 0.00000000
v -0.03850015 -0.02695809 0.00000000
v -0.03276608 -0.02294306 0.00000000
v -0.03600409 -0.03021102 0.00000000
v -0.03064178 -0.02571150 0.00000000
v -0.03323402 -0.03323402 0.00000000
v -0.02828427 -0.02828427 0.00000000
v -0.03021102 -0.03600409 0.00000000
v -0.02571150 -0.03064178 0.00000000
v -0.02695809 -0.03850015 0.00000000
v -0.02294306 -0.03276608 0.00000000
v -0.02350000 -0.04070319 0.00000000
v -0.02000000 -0.03464102 0.00000000
v -0.01986306 -0.04259647 0.00000000
v -0.01690473 -0.03625231 0.00000000
v -0.01607495 -0.04416555 0.00000000
v -0.01368081 -0.03758771 0.00000000
v -0.01216449 -0.04539851 0.00000000
v -0.01035276 -0.03863703 0.00000000
v -0.00816146 -0.04628596 0.00000000
v -0.00694593 -0.03939231 0.00000000
v -0.00409632 -0.04682115 0.00000000
v -0.00348623 -0.03984779 0.00000000
v 0.00000000 -0.04000000 0.00000000
v 0.97649997 -0.04070319 0.00000000
v 0.97995812 -0.03850015 0.00000000
v 0.98321104 -0.03600409 0.00000000
v 0.98623401 -0.03323402 0.00000000
v 0.98900408 -0.03021102 0.00000000
v 0.99150014 -0.02695809 0.00000000
v 0.99370319 -0.02350000 0.00000000
v 0.99559647 -0.01986306 0.00000000
v 0.99716556 -0.01607495 0.00000000
v 0.99839854 -0.01216449 0.00000000
v 0.99928594 -0.00816146 0.00000000
v 0.99982113 -0.00409632 0.00000000
v 1.00000000 0.00000000 0.00000000
v 0.99982113 0.00409632 0.00000000
v 0.99928594 0.00816146 0.00000000
v 0.99839854 0.01216449 0.00000000
v 0.99716556 0.01607495 0.00000000
v 0.99559647 0.01986306 0.00000000
v 0.99370319 0.02350000 0.00000000
v 0.99150014 0.02695809 0.00000000
v 0.98900408 0.03021102 0.00000000
v 0.98623401 0.03323402 0.00000000
v 0.98321104 0.03600409 0.00000000
v 0.97995812 0.03850015 0.00000000
v 0.97649997 0.04070319 0.00000000
v 0.97286308 0.04259647 0.00000000
v 0.96907496 0.04416555 0.00000000
v 0.96516448 0.04539851 0.00000000
v 0.96116143 0.04628596 0.00000000
v 0.95709634 0.04682115 0.00000000
v 0.95300001 -0.04700000 0.03812500
v 0.00000000 -0.04700000 0.03812500
v 0.00000000 0.04700000 0.03812500
v -0.00409632 0.04682115 0.03812500
v -0.00816146 0.04628596 0.03812500
v -0.01216449 0.04539851 0.03812500
v -0.01607495 0.04416555 0.03812500
v -0.01986306 0.04259647 0.03812500
v -0.02350000 0.04070319 0.03812500
v -0.02695809 0.03850015 0.03812500
v -0.03021102 0.03600409 0.03812500
v -0.03323402 0.03323402 0.03812500
v -0.03600409 0.03021102 0.03812500
v -0.03850015 0.02695809 0.03812500
v -0.04070319 0.02350000 0.03812500
v -0.04259647 0.01986306 0.03812500
v -0.04416555 0.01607495 0.03812500
v -0.04539851 0.01216449 0.03812500
v -0.04628596 0.00816146 0.03812500
v -0.04682115 0.00409632 0.03812500
v -0.04700000 -0.00000000 0.03812500
v -0.04682115 -0.00409632 0.03812500
v -0.04628596 -0.00816146 0.03812500
v -0.04539851 -0.01216449 0.03812500
v -0.04416555 -0.01607495 0.03812500
v -0.04259647 -0.01986306 0.03812500
v -0.04070319 -0.02350000 0.03812500
v -0.03850015 -0.02695809 0.03812500
v -0.03600409 -0.03021102 0.03812500
v -0.03323402 -0.03323402 0.03812500
v -0.03021102 -0.03600409 0.03812500
v -0.02695809 -0.03850015 0.03812500
v -0.02350000 -0.04070319 0.03812500
v -0.01986306 -0.04259647 0.03812500
v -0.01607495 -0.04416555 0.03812500
v -0.01216449 -0.04539851 0.03812500
v -0.00816146 -0.04628596 0.03812500
v -0.00409632 -0.04682115 0.03812500
v 0.95709634 -0.04682115 0.03812500
v 0.96116143 -0.04628596 0.03812500
v 0.96516448 -0.04539851 0.03812500
v 0.96907496 -0.04416555 0.03812500
v 0.97286308 -0.04259647 0.03812500
v 0.97649997 -0.04070319 0.03812500
v 0.97995812 -0.03850015 0.03812500
v 0.98321104 -0.03600409 0.03812500
v 0.98623401 -0.03323402 0.03812500
v 0.98900408 -0.03021102 0.03812500
v 0.99150014 -0.02695809 0.03812500
v 0.99370319 -0.02350000 0.03812500
v 0.99559647 -0.01986306 0.03812500
v 0.99716556 -0.01607495 0.03812500
v 0.99839854 -0.01216449 0.03812500
v 0.99928594 -0.00816146 0.03812500
v 0.99982113 -0.00409632 0.03812500
v 1.00000000 0.00000000 0.03812500
v 0.99982113 0.00409632 0.03812500
v 0.99928594 0.00816146 0.03812500
v 0.99839854 0.01216449 0.03812500
v 0.99716556 0.01607495 0.03812500
v 0.99559647 0.01986306 0.03812500
v 0.99370319 0.02350000 0.03812500
v 0.99150014 0.02695809 0.03812500
v 0.98900408 0.03021102 0.03812500
v 0.98623401 0.03323402 0.03812500
v 0.98321104 0.03600409 0.03812500
v 0.97995812 0.03850015 0.03812500
v 0.97649997 0.04070319 0.03812500
v 0.97286308 0.04259647 0.03812500
v 0.96907496 0.04416555 0.03812500
v 0.96516448 0.04539851 0.03812500
v 0.96116143 0.04628596 0.03812500
v 0.95709634 0.04682115 0.03812500
v 0.95300001 0.04700000 0.03812500
v 0.00348623 0.03984779 0.03812500
v 0.04000000 0.00000000 0.03812500
v 0.01035276 0.03863703 0.03812500
v 0.01368081 0.03758771 0.03812500
v 0.02294306 0.03276608 0.03812500
v 0.02571150 0.03064178 0.03812500
v 0.02828427 0.02828427 0.03812500
v 0.03064178 0.02571150 0.03812500
v 0.03276608 0.02294306 0.03812500
v 0.03464102 0.02000000 0.03812500
v 0.03625231 0.01690473 0.03812500
v 0.03758771 0.01368081 0.03812500
v 0.03863703 0.01035276 0.03812500
v 0.03939231 0.00694593 0.03812500
v 0.03984779 0.00348623 0.03812500
v 0.00694593 0.03939231 0.03812500
v 0.01690473 0.03625231 0.03812500
v 0.02000000 0.03464102 0.03812500
v 0.03984779 -0.00348623 0.03812500
v 0.03939231 -0.00694593 0.03812500
v 0.03863703 -0.01035276 0.03812500
v 0.03758771 -0.01368081 0.03812500
v 0.03625231 -0.01690473 0.03812500
v 0.03464102 -0.02000000 0.03812500
v 0.03276608 -0.02294306 0.03812500
v 0.02571150 -0.03064178 0.03812500
v 0.02294306 -0.03276608 0.03812500
v 0.02000000 -0.03464102 0.03812500
v 0.01690473 -0.03625231 0.03812500
v 0.01368081 -0.03758771 0.03812500
v 0.01035276 -0.03863703 0.03812500
v 0.00694593 -0.03939231 0.03812500
v 0.03064178 -0.02571150 0.03812500
v 0.02828427 -0.02828427 0.03812500
v 0.00348623 -0.03984779 0.03812500
v 0.00000000 -0.04000000 0.03812500
v -0.00348623 -0.03984779 0.03812500
v -0.00694593 -0.03939231 0.03812500
v -0.01035276 -0.03863703 0.03812500
v -0.01368081 -0.03758771 0.03812500
v -0.01690473 -0.03625231 0.03812500
v -0.02000000 -0.03464102 0.03812500
v -0.02294306 -0.03276608 0.03812500
v -0.02571150 -0.03064178 0.03812500
v -0.02828427 -0.02828427 0.03812500
v -0.03064178 -0.02571150 0.03812500
v -0.03276608 -0.02294306 0.03812500
v -0.03464102 -0.02000000 0.03812500
v -0.03625231 -0.01690473 0.03812500
v -0.03758771 -0.01368081 0.03812500
v -0.03863703 -0.01035276 0.03812500
v -0.03939231 -0.00694593 0.03812500
v -0.03984779 -0.00348623 0.03812500
v -0.04000000 -0.00000000 0.03812500
v -0.03984779 0.00348623 0.03812500
v -0.03939231 0.00694593 0.03812500
v -0.03863703 0.01035276 0.03812500
v -0.03758771 0.01368081 0.03812500
v -0.03625231 0.01690473 0.03812500
v -0.03464102 0.02000000 0.03812500
v -0.03276608 0.02294306 0.03812500
v -0.03064178 0.02571150 0.03812500
v -0.02828427 0.02828427 0.03812500
v -0.02571150 0.03064178 0.03812500
v -0.02294306 0.03276608 0.03812500
v -0.02000000 0.03464102 0.03812500
v -0.01690473 0.03625231 0.03812500
v -0.01368081 0.03758771 0.03812500
v -0.01035276 0.03863703 0.03812500
v -0.00694593 0.03939231 0.03812500
v -0.00348623 0.03984779 0.03812500
v -0.00000000 0.04000000 0.03812500
f 1 2 3
f 2 4 3
f 3 4 5
f 4 6 5
f 5 6 7
f 6 8 7
f 7 8 9
f 8 10 9
f 9 10 11
f 10 12 11
f 11 12 13
f 12 14 13
f 13 14 15
f 14 16 15
f 15 16 17
f 16 18 17
f 17 18 19
f 18 20 19
f 19 20 21
f 20 22 21
f 21 22 23
f 22 24 23
f 23 24 25
f 24 26 25
f 25 26 27
f 26 28 27
f 27 28 29
f 28 30 29
f 29 30 31
f 30 32 31
f 31 32 33
f 32 34 33
f 33 34 35
f 34 36 35
f 35 36 37
f 36 38 37
f 37 38 39
f 38 40 39
f 39 40 41
f 40 42 41
f 41 42 43
f 42 44 43
f 43 44 45
f 44 46 45
f 45 46 47
f 46 48 47
f 47 48 49
f 48 50 49
f 49 50 51
f 50 52 51
f 51 52 53
f 52 54 53
f 53 54 55
f 54 56 55
f 55 56 57
f 56 58 57
f 57 58 59
f 58 60 59
f 59 60 61
f 60 62 61
f 61 62 63
f 62 64 63
f 63 64 65
f 64 66 65
f 65 66 67
f 66 68 67
f 67 68 69
f 68 70 69
f 69 70 71
f 70 72 71
f 71 72 73
f 72 74 73
f 73 74 75
f 74 76 75
f 75 76 77
f 76 78 77
f 77 78 79
f 78 80 79
f 79 80 81
f 80 82 81
f 81 82 83
f 82 84 83
f 83 84 85
f 84 86 85
f 85 86 87
f 86 88 87
f 87 88 89
f 88 90 89
f 89 90 91
f 90 92 91
f 91 92 93
f 92 94 93
f 93 94 95
f 94 96 95
f 95 96 97
f 96 98 97
f 97 98 99
f 98 100 99
f 99 100 101
f 100 102 101
f 101 102 103
f 102 104 103
f 103 104 105
f 104 106 105
f 105 106 107
f 106 108 107
f 107 108 109
f 108 110 109
f 109 110 111
f 110 112 111
f 111 112 113
f 112 114 113
f 113 114 115
f 114 116 115
f 115 116 117
f 116 118 117
f 117 118 119
f 118 120 119
f 119 120 121
f 120 122 121
f 121 122 123
f 122 124 123
f 123 124 125
f 124 126 125
f 125 126 127
f 126 128 127
f 127 128 129
f 128 130 129
f 129 130 131
f 130 132 131
f 131 132 133
f 132 134 133
f 133 134 135
f 134 136 135
f 135 136 137
f 136 138 137
f 137 138 139
f 138 140 139
f 139 140 141
f 140 142 141
f 141 142 143
f 142 144 143
f 143 144 1
f 144 2 1
f 81 83 145
f 146 71 147
f 71 148 147
f 61 63 149
f 63 65 149
f 149 65 67
f 73 150 71
f 150 151 71
f 71 151 148
f 152 153 71
f 154 155 145
f 156 157 75
f 157 158 75
f 75 158 159
f 159 160 75
f 160 161 75
f 75 161 162
f 162 163 75
f 163 164 75
f 75 164 73
f 164 165 73
f 73 165 150
f 75 77 145
f 77 79 145
f 145 79 81
f 55 57 149
f 57 59 149
f 149 59 61
f 155 166 145
f 166 167 145
f 145 167 75
f 167 168 75
f 75 168 169
f 169 170 75
f 170 171 75
f 75 171 156
f 87 172 173
f 83 85 145
f 85 87 145
f 145 87 174
f 87 173 174
f 95 97 175
f 97 99 175
f 172 87 176
f 87 89 176
f 176 89 177
f 89 91 177
f 177 91 175
f 91 93 175
f 175 93 95
f 146 178 71
f 178 179 71
f 71 179 152
f 153 180 71
f 180 181 71
f 71 181 182
f 183 45 47
f 184 185 186
f 185 149 186
f 105 107 175
f 107 109 175
f 109 111 175
f 111 113 175
f 175 113 115
f 47 49 183
f 49 51 183
f 183 51 149
f 51 53 149
f 149 53 55
f 39 41 183
f 41 43 183
f 183 43 45
f 67 69 149
f 69 71 149
f 149 71 186
f 71 182 186
f 184 187 185
f 187 188 185
f 185 188 189
f 189 190 185
f 190 191 185
f 185 191 192
f 191 193 192
f 192 193 194
f 193 195 194
f 194 195 196
f 195 197 196
f 196 197 198
f 197 199 198
f 198 199 200
f 199 201 200
f 200 201 202
f 201 203 202
f 202 203 204
f 203 205 204
f 204 205 206
f 205 207 206
f 206 207 208
f 207 209 208
f 208 209 210
f 209 211 210
f 210 211 212
f 211 213 212
f 212 213 214
f 213 215 214
f 214 215 216
f 215 217 216
f 216 217 218
f 217 219 218
f 218 219 220
f 219 221 220
f 220 221 222
f 221 223 222
f 222 223 224
f 223 225 224
f 224 225 226
f 225 227 226
f 226 227 228
f 227 229 228
f 228 229 230
f 229 231 230
f 230 231 232
f 231 233 232
f 232 233 234
f 233 235 234
f 234 235 236
f 235 237 236
f 236 237 238
f 237 239 238
f 238 239 240
f 239 241 240
f 240 241 242
f 241 243 242
f 242 243 244
f 243 245 244
f 244 245 246
f 245 247 246
f 246 247 248
f 247 249 248
f 248 249 250
f 249 251 250
f 250 251 252
f 251 253 252
f 252 253 254
f 253 255 254
f 254 255 256
f 255 257 256
f 256 257 258
f 257 259 258
f 258 259 145
f 259 260 145
f 145 260 154
f 99 101 175
f 101 103 175
f 175 103 105
f 115 117 175
f 117 119 175
f 175 119 261
f 119 121 261
f 261 121 262
f 121 123 262
f 262 123 263
f 123 125 263
f 263 125 264
f 125 127 264
f 264 127 265
f 127 129 265
f 265 129 266
f 129 131 266
f 266 131 267
f 131 133 267
f 267 133 268
f 133 135 268
f 268 135 269
f 135 137 269
f 269 137 270
f 137 139 270
f 270 139 271
f 139 141 271
f 271 141 272
f 141 143 272
f 272 143 273
f 143 1 273
f 273 1 274
f 1 3 274
f 274 3 275
f 3 5 275
f 275 5 276
f 5 7 276
f 276 7 277
f 7 9 277
f 277 9 278
f 9 11 278
f 278 11 279
f 11 13 279
f 279 13 280
f 13 15 280
f 280 15 281
f 15 17 281
f 281 17 282
f 17 19 282
f 282 19 283
f 19 21 283
f 283 21 284
f 21 23 284
f 284 23 285
f 23 25 285
f 285 25 286
f 25 27 286
f 286 27 287
f 27 29 287
f 287 29 288
f 29 31 288
f 288 31 289
f 31 33 289
f 289 33 290
f 33 35 290
f 290 35 183
f 35 37 183
f 183 37 39
f 291 292 174
f 292 145 174
f 293 149 185
f 293 185 294
f 185 192 294
f 294 192 295
f 192 194 295
f 295 194 296
f 194 196 296
f 296 196 297
f 196 198 297
f 297 198 298
f 198 200 298
f 298 200 299
f 200 202 299
f 299 202 300
f 202 204 300
f 300 204 301
f 204 206 301
f 301 206 302
f 206 208 302
f 302 208 303
f 208 210 303
f 303 210 304
f 210 212 304
f 304 212 305
f 212 214 305
f 305 214 306
f 214 216 306
f 306 216 307
f 216 218 307
f 307 218 308
f 218 220 308
f 308 220 309
f 220 222 309
f 309 222 310
f 222 224 310
f 310 224 311
f 224 226 311
f 311 226 312
f 226 228 312
f 312 228 313
f 228 230 313
f 313 230 314
f 230 232 314
f 314 232 315
f 232 234 315
f 315 234 316
f 234 236 316
f 316 236 317
f 236 238 317
f 317 238 318
f 238 240 318
f 318 240 319
f 240 242 319
f 319 242 320
f 242 244 320
f 320 244 321
f 244 246 321
f 321 246 322
f 246 248 322
f 322 248 323
f 248 250 323
f 323 250 324
f 250 252 324
f 324 252 325
f 252 254 325
f 325 254 326
f 254 256 326
f 326 256 327
f 256 258 327
f 327 258 328
f 258 145 328
f 328 145 292
f 291 174 173
f 291 173 329
f 173 172 329
f 329 172 330
f 172 176 330
f 330 176 331
f 176 177 331
f 331 177 332
f 177 175 332
f 332 175 333
f 175 261 333
f 333 261 334
f 261 262 334
f 334 262 335
f 262 263 335
f 335 263 336
f 263 264 336
f 336 264 337
f 264 265 337
f 337 265 338
f 265 266 338
f 338 266 339
f 266 267 339
f 339 267 340
f 267 268 340
f 340 268 341
f 268 269 341
f 341 269 342
f 269 270 342
f 342 270 343
f 270 271 343
f 343 271 344
f 271 272 344
f 344 272 345
f 272 273 345
f 345 273 346
f 273 274 346
f 346 274 347
f 274 275 347
f 347 275 348
f 275 276 348
f 348 276 349
f 276 277 349
f 349 277 350
f 277 278 350
f 350 278 351
f 278 279 351
f 351 279 352
f 279 280 352
f 352 280 353
f 280 281 353
f 353 281 354
f 281 282 354
f 354 282 355
f 282 283 355
f 355 283 356
f 283 284 356
f 356 284 357
f 284 285 357
f 357 285 358
f 285 286 358
f 358 286 359
f 286 287 359
f 359 287 360
f 287 288 360
f 360 288 361
f 288 289 361
f 361 289 362
f 289 290 362
f 362 290 363
f 290 183 363
f 363 183 364
f 293 364 149
f 364 183 149
f 56 359 360
f 365 80 78
f 70 68 293
f 68 66 293
f 293 66 64
f 366 98 96
f 367 368 82
f 82 369 370
f 370 371 82
f 371 372 82
f 82 372 373
f 373 374 82
f 374 375 82
f 82 375 376
f 376 377 82
f 377 378 82
f 82 378 379
f 110 108 366
f 108 106 366
f 366 106 104
f 96 94 366
f 94 92 366
f 366 92 90
f 90 88 366
f 88 86 366
f 366 86 379
f 86 84 379
f 379 84 82
f 56 360 58
f 360 361 58
f 58 361 60
f 361 362 60
f 60 362 363
f 64 62 293
f 62 60 293
f 293 60 364
f 60 363 364
f 104 102 366
f 102 100 366
f 366 100 98
f 80 365 82
f 365 380 82
f 82 380 367
f 368 381 82
f 381 382 82
f 82 382 369
f 383 384 291
f 384 385 291
f 291 385 386
f 386 387 291
f 387 388 291
f 291 388 389
f 291 390 391
f 391 392 291
f 392 393 291
f 291 393 292
f 393 394 292
f 394 395 292
f 292 395 396
f 389 397 291
f 397 398 291
f 291 398 390
f 396 399 292
f 399 400 292
f 292 400 328
f 400 401 328
f 328 401 327
f 401 402 327
f 327 402 326
f 402 403 326
f 326 403 325
f 403 404 325
f 325 404 324
f 404 405 324
f 324 405 323
f 405 406 323
f 323 406 322
f 406 407 322
f 322 407 321
f 407 408 321
f 321 408 320
f 408 409 320
f 320 409 319
f 409 410 319
f 319 410 318
f 410 411 318
f 318 411 317
f 411 412 317
f 317 412 316
f 412 413 316
f 316 413 315
f 413 414 315
f 315 414 314
f 414 415 314
f 314 415 313
f 415 416 313
f 313 416 312
f 416 417 312
f 312 417 311
f 417 418 311
f 311 418 310
f 418 419 310
f 310 419 309
f 419 420 309
f 309 420 308
f 420 421 308
f 308 421 307
f 421 422 307
f 307 422 306
f 422 423 306
f 306 423 305
f 423 424 305
f 305 424 304
f 424 425 304
f 304 425 303
f 425 426 303
f 303 426 302
f 426 427 302
f 302 427 301
f 427 428 301
f 301 428 300
f 428 429 300
f 300 429 299
f 429 430 299
f 299 430 298
f 430 431 298
f 298 431 297
f 431 432 297
f 297 432 296
f 432 433 296
f 296 433 295
f 433 434 295
f 295 434 294
f 434 435 294
f 294 435 293
f 435 436 293
f 293 436 365
f 56 54 359
f 54 52 359
f 359 52 50
f 50 48 359
f 48 46 359
f 359 46 44
f 38 36 359
f 36 34 359
f 366 383 110
f 383 291 110
f 110 291 112
f 291 329 112
f 112 329 114
f 329 330 114
f 114 330 116
f 330 331 116
f 116 331 118
f 331 332 118
f 118 332 120
f 332 333 120
f 120 333 122
f 333 334 122
f 122 334 124
f 334 335 124
f 124 335 126
f 335 336 126
f 126 336 128
f 336 337 128
f 128 337 130
f 337 338 130
f 130 338 132
f 338 339 132
f 132 339 134
f 339 340 134
f 134 340 136
f 340 341 136
f 136 341 138
f 341 342 138
f 138 342 140
f 342 343 140
f 140 343 142
f 343 344 142
f 142 344 144
f 344 345 144
f 144 345 2
f 345 346 2
f 2 346 4
f 346 347 4
f 4 347 6
f 347 348 6
f 6 348 8
f 348 349 8
f 8 349 10
f 349 350 10
f 10 350 12
f 350 351 12
f 12 351 14
f 351 352 14
f 14 352 16
f 352 353 16
f 16 353 18
f 353 354 18
f 18 354 20
f 354 355 20
f 20 355 22
f 355 356 22
f 22 356 24
f 356 357 24
f 24 357 26
f 357 358 26
f 26 358 28
f 358 359 28
f 78 76 365
f 76 74 365
f 365 74 293
f 74 72 293
f 293 72 70
f 44 42 359
f 42 40 359
f 359 40 38
f 34 32 359
f 32 30 359
f 359 30 28
f 418 225 419
f 225 223 419
f 419 223 420
f 223 221 420
f 420 221 421
f 221 219 421
f 421 219 422
f 219 217 422
f 422 217 423
f 217 215 423
f 423 215 424
f 215 213 424
f 424 213 425
f 213 211 425
f 425 211 426
f 211 209 426
f 426 209 427
f 209 207 427
f 427 207 428
f 207 205 428
f 428 205 429
f 205 203 429
f 429 203 430
f 203 201 430
f 430 201 431
f 201 199 431
f 431 199 432
f 199 197 432
f 432 197 433
f 197 195 433
f 433 195 434
f 195 193 434
f 434 193 435
f 193 191 435
f 435 191 436
f 191 190 436
f 436 190 365
f 190 189 365
f 365 189 380
f 189 188 380
f 380 188 367
f 188 187 367
f 367 187 368
f 187 184 368
f 368 184 381
f 184 186 381
f 381 186 382
f 186 182 382
f 382 182 369
f 182 181 369
f 369 181 370
f 181 180 370
f 370 180 371
f 180 153 371
f 371 153 372
f 153 152 372
f 372 152 373
f 152 179 373
f 373 179 374
f 179 178 374
f 374 178 375
f 178 146 375
f 375 146 376
f 146 147 376
f 376 147 377
f 147 148 377
f 377 148 378
f 148 151 378
f 378 151 379
f 151 150 379
f 379 150 366
f 150 165 366
f 366 165 383
f 165 164 383
f 383 164 384
f 164 163 384
f 384 163 385
f 163 162 385
f 385 162 386
f 162 161 386
f 386 161 387
f 161 160 387
f 387 160 388
f 160 159 388
f 388 159 389
f 159 158 389
f 389 158 397
f 158 157 397
f 397 157 398
f 157 156 398
f 398 156 390
f 156 171 390
f 390 171 391
f 171 170 391
f 391 170 392
f 170 169 392
f 392 169 393
f 169 168 393
f 393 168 394
f 168 167 394
f 394 167 395
f 167 166 395
f 395 166 396
f 166 155 396
f 396 155 399
f 155 154 399
f 399 154 400
f 154 260 400
f 400 260 401
f 260 259 401
f 401 259 402
f 259 257 402
f 402 257 403
f 257 255 403
f 403 255 404
f 255 253 404
f 404 253 405
f 253 251 405
f 405 251 406
f 251 249 406
f 406 249 407
f 249 247 407
f 407 247 408
f 247 245 408
f 408 245 409
f 245 243 409
f 409 243 410
f 243 241 410
f 410 241 411
f 241 239 411
f 411 239 412
f 239 237 412
f 412 237 413
f 237 235 413
f 413 235 414
f 235 233 414
f 414 233 415
f 233 231 415
f 415 231 416
f 231 229 416
f 416 229 417
f 229 227 417
f 417 227 418
f 227 225 418

