# https://github.com/mikedh/trimesh
v 0.91360772 -0.00694593 -0.08000000
v 0.91315222 -0.00348623 -0.08000000
v 0.95300001 -0.00000000 -0.08000000
v 0.91299999 0.00000000 -0.08000000
v 0.91315222 0.00348623 -0.08000000
v 0.91674769 -0.01690473 -0.08000000
v 0.91541231 -0.01368081 -0.08000000
v 0.91436297 -0.01035276 -0.08000000
v 0.92235821 -0.02571150 -0.08000000
v 0.92023391 -0.02294306 -0.08000000
v 0.91835898 -0.02000000 -0.08000000
v 0.93005693 -0.03276608 -0.08000000
v 0.92728847 -0.03064178 -0.08000000
v 0.92471576 -0.02828427 -0.08000000
v 0.93931919 -0.03758771 -0.08000000
v 0.93609530 -0.03625231 -0.08000000
v 0.93300003 -0.03464102 -0.08000000
v 0.94951379 -0.03984779 -0.08000000
v 0.94605410 -0.03939231 -0.08000000
v 0.94264722 -0.03863703 -0.08000000
v 0.95994592 -0.03939231 -0.08000000
v 0.95648623 -0.03984779 -0.08000000
v 0.95300001 -0.04000000 -0.08000000
v 0.96990472 -0.03625231 -0.08000000
v 0.96668082 -0.03758771 -0.08000000
v 0.96335274 -0.03863703 -0.08000000
v 0.97871149 -0.03064178 -0.08000000
v 0.97594303 -0.03276608 -0.08000000
v 0.97299999 -0.03464102 -0.08000000
v 0.98576605 -0.02294306 -0.08000000
v 0.98364180 -0.02571150 -0.08000000
v 0.98128426 -0.02828427 -0.08000000
v 0.99058771 -0.01368081 -0.08000000
v 0.98925233 -0.01690473 -0.08000000
v 0.98764104 -0.02000000 -0.08000000
v 0.99284780 -0.00348623 -0.08000000
v 0.99239230 -0.00694593 -0.08000000
v 0.99163705 -0.01035276 -0.08000000
v 0.99239230 0.00694593 -0.08000000
v 0.99284780 0.00348623 -0.08000000
v 0.99299997 -0.00000000 -0.08000000
v 0.98925233 0.01690473 -0.08000000
v 0.99058771 0.01368081 -0.08000000
v 0.99163705 0.01035276 -0.08000000
v 0.98364180 0.02571150 -0.08000000
v 0.98576605 0.02294306 -0.08000000
v 0.98764104 0.02000000 -0.08000000
v 0.97594303 0.03276608 -0.08000000
v 0.97871149 0.03064178 -0.08000000
v 0.98128426 0.02828427 -0.08000000
v 0.96668082 0.03758771 -0.08000000
v 0.96990472 0.03625231 -0.08000000
v 0.97299999 0.03464102 -0.08000000
v 0.95648623 0.03984779 -0.08000000
v 0.95994592 0.03939231 -0.08000000
v 0.96335274 0.03863703 -0.08000000
v 0.94605410 0.03939231 -0.08000000
v 0.94951379 0.03984779 -0.08000000
v 0.95300001 0.04000000 -0.08000000
v 0.93609530 0.03625231 -0.08000000
v 0.93931919 0.03758771 -0.08000000
v 0.94264722 0.03863703 -0.08000000
v 0.92728847 0.03064178 -0.08000000
v 0.93005693 0.03276608 -0.08000000
v 0.93300003 0.03464102 -0.08000000
v 0.92023391 0.02294306 -0.08000000
v 0.92235821 0.02571150 -0.08000000
v 0.92471576 0.02828427 -0.08000000
v 0.91541231 0.01368081 -0.08000000
v 0.91674769 0.01690473 -0.08000000
v 0.91835898 0.02000000 -0.08000000
v 0.91360772 0.00694593 -0.08000000
v 0.91436297 0.01035276 -0.08000000
v 0.99299997 -0.00000000 0.00000000
v 0.99284780 0.00348623 0.00000000
v 0.99239230 0.00694593 0.00000000
v 0.99163705 0.01035276 0.00000000
v 0.99058771 0.01368081 0.00000000
v 0.98925233 0.01690473 0.00000000
v 0.98764104 0.02000000 0.00000000
v 0.98576605 0.02294306 0.00000000
v 0.98364180 0.02571150 0.00000000
v 0.98128426 0.02828427 0.00000000
v 0.97871149 0.03064178 0.00000000
v 0.97594303 0.03276608 0.00000000
v 0.97299999 0.03464102 0.00000000
v 0.96990472 0.03625231 0.00000000
v 0.96668082 0.03758771 0.00000000
v 0.96335274 0.03863703 0.00000000
v 0.95994592 0.03939231 0.00000000
v 0.95648623 0.03984779 0.00000000
v 0.95300001 0.04000000 0.00000000
v 0.94951379 0.03984779 0.00000000
v 0.94605410 0.03939231 0.00000000
v 0.94264722 0.03863703 0.00000000
v 0.93931919 0.03758771 0.00000000
v 0.93609530 0.03625231 0.00000000
v 0.93300003 0.03464102 0.00000000
v 0.93005693 0.03276608 0.00000000
v 0.92728847 0.03064178 0.00000000
v 0.92471576 0.02828427 0.00000000
v 0.92235821 0.02571150 0.00000000
v 0.92023391 0.02294306 0.00000000
v 0.91835898 0.02000000 0.00000000
v 0.91674769 0.01690473 0.00000000
v 0.91541231 0.01368081 0.00000000
v 0.91436297 0.01035276 0.00000000
v 0.91360772 0.00694593 0.00000000
v 0.91315222 0.00348623 0.00000000
v 0.91299999 0.00000000 0.00000000
v 0.91315222 -0.00348623 0.00000000
v 0.91360772 -0.00694593 0.00000000
v 0.91436297 -0.01035276 0.00000000
v 0.91541231 -0.01368081 0.00000000
v 0.91674769 -0.01690473 0.00000000
v 0.91835898 -0.02000000 0.00000000
v 0.92023391 -0.02294306 0.00000000
v 0.92235821 -0.02571150 0.00000000
v 0.92471576 -0.02828427 0.00000000
v 0.92728847 -0.03064178 0.00000000
v 0.93005693 -0.03276608 0.00000000
v 0.93300003 -0.03464102 0.00000000
v 0.93609530 -0.03625231 0.00000000
v 0.93931919 -0.03758771 0.00000000
v 0.94264722 -0.03863703 0.00000000
v 0.94605410 -0.03939231 0.00000000
v 0.94951379 -0.03984779 0.00000000
v 0.95300001 -0.04000000 0.00000000
v 0.95648623 -0.03984779 0.00000000
v 0.95994592 -0.03939231 0.00000000
v 0.96335274 -0.03863703 0.00000000
v 0.96668082 -0.03758771 0.00000000
v 0.96990472 -0.03625231 0.00000000
v 0.97299999 -0.03464102 0.00000000
v 0.97594303 -0.03276608 0.00000000
v 0.97871149 -0.03064178 0.00000000
v 0.98128426 -0.02828427 0.00000000
v 0.98364180 -0.02571150 0.00000000
v 0.98576605 -0.02294306 0.00000000
v 0.98764104 -0.02000000 0.00000000
v 0.98925233 -0.01690473 0.00000000
v 0.99058771 -0.01368081 0.00000000
v 0.99163705 -0.01035276 0.00000000
v 0.99239230 -0.00694593 0.00000000
v 0.99284780 -0.00348623 0.00000000
v 0.04000000 0.00000000 0.00000000
v 0.03984779 0.00348623 0.00000000
v 0.03625231 -0.01690473 0.00000000
v 0.03758771 -0.01368081 0.00000000
v 0.03464102 -0.02000000 0.00000000
v 0.00000000 -0.04700000 0.00000000
v 0.00000000 0.04700000 0.00000000
v 0.03939231 0.00694593 0.00000000
v 0.03863703 0.01035276 0.00000000
v 0.03758771 0.01368081 0.00000000
v 0.03625231 0.01690473 0.00000000
v 0.00348623 -0.03984779 0.00000000
v 0.00694593 -0.03939231 0.00000000
v 0.02828427 -0.02828427 0.00000000
v 0.03064178 -0.02571150 0.00000000
v 0.03276608 -0.02294306 0.00000000
v 0.03863703 -0.01035276 0.00000000
v 0.03939231 -0.00694593 0.00000000
v 0.03984779 -0.00348623 0.00000000
v 0.03064178 0.02571150 0.00000000
v 0.02828427 0.02828427 0.00000000
v 0.01035276 -0.03863703 0.00000000
v 0.01368081 -0.03758771 0.00000000
v 0.01690473 -0.03625231 0.00000000
v 0.02000000 -0.03464102 0.00000000
v 0.02294306 -0.03276608 0.00000000
v 0.02571150 -0.03064178 0.00000000
v 0.95300001 -0.04700000 0.00000000
v 0.03464102 0.02000000 0.00000000
v 0.03276608 0.02294306 0.00000000
v 0.02571150 0.03064178 0.00000000
v 0.02294306 0.03276608 0.00000000
v 0.02000000 0.03464102 0.00000000
v 0.01368081 0.03758771 0.00000000
v -0.00409632 0.04682115 0.00000000
v 0.01690473 0.03625231 0.00000000
v 0.01035276 0.03863703 0.00000000
v 0.00694593 0.03939231 0.00000000
v 0.00348623 0.03984779 0.00000000
v -0.00000000 0.04000000 0.00000000
v -0.00348623 0.03984779 0.00000000
v -0.00816146 0.04628596 0.00000000
v -0.00694593 0.03939231 0.00000000
v -0.01216449 0.04539851 0.00000000
v -0.01035276 0.03863703 0.00000000
v -0.01607495 0.04416555 0.00000000
v -0.01368081 0.03758771 0.00000000
v -0.01986306 0.04259647 0.00000000
v -0.01690473 0.03625231 0.00000000
v -0.02350000 0.04070319 0.00000000
v -0.02000000 0.03464102 0.00000000
v -0.02695809 0.03850015 0.00000000
v -0.02294306 0.03276608 0.00000000
v -0.03021102 0.03600409 0.00000000
v -0.02571150 0.03064178 0.00000000
v -0.03323402 0.03323402 0.00000000
v -0.02828427 0.02828427 0.00000000
v -0.03600409 0.03021102 0.00000000
v -0.03064178 0.02571150 0.00000000
v -0.03850015 0.02695809 0.00000000
v -0.03276608 0.02294306 0.00000000
v -0.04070319 0.02350000 0.00000000
v -0.03464102 0.02000000 0.00000000
v -0.04259647 0.01986306 0.00000000
v -0.03625231 0.01690473 0.00000000
v -0.04416555 0.01607495 0.00000000
v -0.03758771 0.01368081 0.00000000
v -0.04539851 0.01216449 0.00000000
v -0.03863703 0.01035276 0.00000000
v -0.04628596 0.00816146 0.00000000
v -0.03939231 0.00694593 0.00000000
v -0.04682115 0.00409632 0.00000000
v -0.03984779 0.00348623 0.00000000
v -0.04700000 -0.00000000 0.00000000
v -0.04000000 -0.00000000 0.00000000
v -0.04682115 -0.00409632 0.00000000
v -0.03984779 -0.00348623 0.00000000
v -0.04628596 -0.00816146 0.00000000
v -0.03939231 -0.00694593 0.00000000
v -0.04539851 -0.01216449 0.00000000
v -0.03863703 -0.01035276 0.00000000
v -0.04416555 -0.01607495 0.00000000
v -0.03758771 -0.01368081 0.00000000
v -0.04259647 -0.01986306 0.00000000
v -0.03625231 -0.01690473 0.00000000
v -0.04070319 -0.02350000 0.00000000
v -0.03464102 -0.02000000 0.00000000
v -0.03850015 -0.02695809 0.00000000
v -0.03276608 -0.02294306 0.00000000
v -0.03600409 -0.03021102 0.00000000
v -0.03064178 -0.02571150 0.00000000
v -0.03323402 -0.03323402 0.00000000
v -0.02828427 -0.02828427 0.00000000
v -0.03021102 -0.03600409 0.00000000
v -0.02571150 -0.03064178 0.00000000
v -0.02695809 -0.03850015 0.00000000
v -0.02294306 -0.03276608 0.00000000
v -0.02350000 -0.04070319 0.00000000
v -0.02000000 -0.03464102 0.00000000
v -0.01986306 -0.04259647 0.00000000
v -0.01690473 -0.03625231 0.00000000
v -0.01607495 -0.04416555 0.00000000
v -0.01368081 -0.03758771 0.00000000
v -0.01216449 -0.04539851 0.00000000
v -0.01035276 -0.03863703 0.00000000
v -0.00816146 -0.04628596 0.00000000
v -0.00694593 -0.03939231 0.00000000
v -0.00409632 -0.04682115 0.00000000
v -0.00348623 -0.03984779 0.00000000
v 0.00000000 -0.04000000 0.00000000
v 0.95709634 -0.04682115 0.00000000
v 0.96116143 -0.04628596 0.00000000
v 0.96516448 -0.04539851 0.00000000
v 0.96907496 -0.04416555 0.00000000
v 0.97286308 -0.04259647 0.00000000
v 0.97649997 -0.04070319 0.00000000
v 0.97995812 -0.03850015 0.00000000
v 0.98321104 -0.03600409 0.00000000
v 0.98623401 -0.03323402 0.00000000
v 0.98900408 -0.03021102 0.00000000
v 0.99150014 -0.02695809 0.00000000
v 0.99370319 -0.02350000 0.00000000
v 0.99559647 -0.01986306 0.00000000
v 0.99716556 -0.01607495 0.00000000
v 0.99839854 -0.01216449 0.00000000
v 0.99928594 -0.00816146 0.00000000
v 0.99982113 -0.00409632 0.00000000
v 1.00000000 0.00000000 0.00000000
v 0.99982113 0.00409632 0.00000000
v 0.99928594 0.00816146 0.00000000
v 0.99839854 0.01216449 0.00000000
v 0.99716556 0.01607495 0.00000000
v 0.99559647 0.01986306 0.00000000
v 0.99370319 0.02350000 0.00000000
v 0.99150014 0.02695809 0.00000000
v 0.98900408 0.03021102 0.00000000
v 0.98623401 0.03323402 0.00000000
v 0.98321104 0.03600409 0.00000000
v 0.97995812 0.03850015 0.00000000
v 0.97649997 0.04070319 0.00000000
v 0.97286308 0.04259647 0.00000000
v 0.96907496 0.04416555 0.00000000
v 0.96516448 0.04539851 0.00000000
v 0.96116143 0.04628596 0.00000000
v 0.95709634 0.04682115 0.00000000
v 0.95300001 0.04700000 0.00000000
v 0.95300001 -0.04700000 0.03812500
v 0.00000000 -0.04700000 0.03812500
v 0.00000000 0.04700000 0.03812500
v -0.00409632 0.04682115 0.03812500
v -0.00816146 0.04628596 0.03812500
v -0.01216449 0.04539851 0.03812500
v -0.01607495 0.04416555 0.03812500
v -0.01986306 0.04259647 0.03812500
v -0.02350000 0.04070319 0.03812500
v -0.02695809 0.03850015 0.03812500
v -0.03021102 0.03600409 0.03812500
v -0.03323402 0.03323402 0.03812500
v -0.03600409 0.03021102 0.03812500
v -0.03850015 0.02695809 0.03812500
v -0.04070319 0.02350000 0.03812500
v -0.04259647 0.01986306 0.03812500
v -0.04416555 0.01607495 0.03812500
v -0.04539851 0.01216449 0.03812500
v -0.04628596 0.00816146 0.03812500
v -0.04682115 0.00409632 0.03812500
v -0.04700000 -0.00000000 0.03812500
v -0.04682115 -0.00409632 0.03812500
v -0.04628596 -0.00816146 0.03812500
v -0.04539851 -0.01216449 0.03812500
v -0.04416555 -0.01607495 0.03812500
v -0.04259647 -0.01986306 0.03812500
v -0.04070319 -0.02350000 0.03812500
v -0.03850015 -0.02695809 0.03812500
v -0.03600409 -0.03021102 0.03812500
v -0.03323402 -0.03323402 0.03812500
v -0.03021102 -0.03600409 0.03812500
v -0.02695809 -0.03850015 0.03812500
v -0.02350000 -0.04070319 0.03812500
v -0.01986306 -0.04259647 0.03812500
v -0.01607495 -0.04416555 0.03812500
v -0.01216449 -0.04539851 0.03812500
v -0.00816146 -0.04628596 0.03812500
v -0.00409632 -0.04682115 0.03812500
v 0.95709634 -0.04682115 0.03812500
v 0.96116143 -0.04628596 0.03812500
v 0.96516448 -0.04539851 0.03812500
v 0.96907496 -0.04416555 0.03812500
v 0.97286308 -0.04259647 0.03812500
v 0.97649997 -0.04070319 0.03812500
v 0.97995812 -0.03850015 0.03812500
v 0.98321104 -0.03600409 0.03812500
v 0.98623401 -0.03323402 0.03812500
v 0.98900408 -0.03021102 0.03812500
v 0.99150014 -0.02695809 0.03812500
v 0.99370319 -0.02350000 0.03812500
v 0.99559647 -0.01986306 0.03812500
v 0.99716556 -0.01607495 0.03812500
v 0.99839854 -0.01216449 0.03812500
v 0.99928594 -0.00816146 0.03812500
v 0.99982113 -0.00409632 0.03812500
v 1.00000000 0.00000000 0.03812500
v 0.99982113 0.00409632 0.03812500
v 0.99928594 0.00816146 0.03812500
v 0.99839854 0.01216449 0.03812500
v 0.99716556 0.01607495 0.03812500
v 0.99559647 0.01986306 0.03812500
v 0.99370319 0.02350000 0.03812500
v 0.99150014 0.02695809 0.03812500
v 0.98900408 0.03021102 0.03812500
v 0.98623401 0.03323402 0.03812500
v 0.98321104 0.03600409 0.03812500
v 0.97995812 0.03850015 0.03812500
v 0.97649997 0.04070319 0.03812500
v 0.97286308 0.04259647 0.03812500
v 0.96907496 0.04416555 0.03812500
v 0.96516448 0.04539851 0.03812500
v 0.96116143 0.04628596 0.03812500
v 0.95709634 0.04682115 0.03812500
v 0.95300001 0.04700000 0.03812500
v -0.04000000 -0.00000000 0.03812500
v -0.03984779 0.00348623 0.03812500
v -0.03939231 0.00694593 0.03812500
v -0.03863703 0.01035276 0.03812500
v -0.03758771 0.01368081 0.03812500
v -0.03625231 0.01690473 0.03812500
v -0.03464102 0.02000000 0.03812500
v -0.03276608 0.02294306 0.03812500
v -0.03064178 0.02571150 0.03812500
v -0.02828427 0.02828427 0.03812500
v -0.02571150 0.03064178 0.03812500
v -0.02294306 0.03276608 0.03812500
v -0.02000000 0.03464102 0.03812500
v -0.01690473 0.03625231 0.03812500
v -0.01368081 0.03758771 0.03812500
v -0.01035276 0.03863703 0.03812500
v -0.00694593 0.03939231 0.03812500
v -0.00348623 0.03984779 0.03812500
v -0.00000000 0.04000000 0.03812500
v 0.00348623 0.03984779 0.03812500
v 0.00694593 0.03939231 0.03812500
v 0.01035276 0.03863703 0.03812500
v 0.01368081 0.03758771 0.03812500
v 0.01690473 0.03625231 0.03812500
v 0.02000000 0.03464102 0.03812500
v 0.02294306 0.03276608 0.03812500
v 0.02571150 0.03064178 0.03812500
v 0.02828427 0.02828427 0.03812500
v 0.03064178 0.02571150 0.03812500
v 0.03276608 0.02294306 0.03812500
v 0.03464102 0.02000000 0.03812500
v 0.03625231 0.01690473 0.03812500
v 0.03758771 0.01368081 0.03812500
v 0.03863703 0.01035276 0.03812500
v 0.03939231 0.00694593 0.03812500
v 0.03984779 0.00348623 0.03812500
v 0.04000000 0.00000000 0.03812500
v 0.03984779 -0.00348623 0.03812500
v 0.03939231 -0.00694593 0.03812500
v 0.03863703 -0.01035276 0.03812500
v 0.03758771 -0.01368081 0.03812500
v 0.03625231 -0.01690473 0.03812500
v 0.03464102 -0.02000000 0.03812500
v 0.03276608 -0.02294306 0.03812500
v 0.03064178 -0.02571150 0.03812500
v 0.02828427 -0.02828427 0.03812500
v 0.02571150 -0.03064178 0.03812500
v 0.02294306 -0.03276608 0.03812500
v 0.02000000 -0.03464102 0.03812500
v 0.01690473 -0.03625231 0.03812500
v 0.01368081 -0.03758771 0.03812500
v 0.01035276 -0.03863703 0.03812500
v 0.00694593 -0.03939231 0.03812500
v 0.00348623 -0.03984779 0.03812500
v 0.00000000 -0.04000000 0.03812500
v -0.00348623 -0.03984779 0.03812500
v -0.00694593 -0.03939231 0.03812500
v -0.01035276 -0.03863703 0.03812500
v -0.01368081 -0.03758771 0.03812500
v -0.01690473 -0.03625231 0.03812500
v -0.02000000 -0.03464102 0.03812500
v -0.02294306 -0.03276608 0.03812500
v -0.02571150 -0.03064178 0.03812500
v -0.02828427 -0.02828427 0.03812500
v -0.03064178 -0.02571150 0.03812500
v -0.03276608 -0.02294306 0.03812500
v -0.03464102 -0.02000000 0.03812500
v -0.03625231 -0.01690473 0.03812500
v -0.03758771 -0.01368081 0.03812500
v -0.03863703 -0.01035276 0.03812500
v -0.03939231 -0.00694593 0.03812500
v -0.03984779 -0.00348623 0.03812500
f 1 2 3
f 2 4 3
f 3 4 5
f 6 7 3
f 7 8 3
f 3 8 1
f 9 10 3
f 10 11 3
f 3 11 6
f 12 13 3
f 13 14 3
f 3 14 9
f 15 16 3
f 16 17 3
f 3 17 12
f 18 19 3
f 19 20 3
f 3 20 15
f 21 22 3
f 22 23 3
f 3 23 18
f 24 25 3
f 25 26 3
f 3 26 21
f 27 28 3
f 28 29 3
f 3 29 24
f 30 31 3
f 31 32 3
f 3 32 27
f 33 34 3
f 34 35 3
f 3 35 30
f 36 37 3
f 37 38 3
f 3 38 33
f 39 40 3
f 40 41 3
f 3 41 36
f 42 43 3
f 43 44 3
f 3 44 39
f 45 46 3
f 46 47 3
f 3 47 42
f 48 49 3
f 49 50 3
f 3 50 45
f 51 52 3
f 52 53 3
f 3 53 48
f 54 55 3
f 55 56 3
f 3 56 51
f 57 58 3
f 58 59 3
f 3 59 54
f 60 61 3
f 61 62 3
f 3 62 57
f 63 64 3
f 64 65 3
f 3 65 60
f 66 67 3
f 67 68 3
f 3 68 63
f 69 70 3
f 70 71 3
f 3 71 66
f 5 72 3
f 72 73 3
f 3 73 69
f 74 40 75
f 40 39 75
f 75 39 76
f 39 44 76
f 76 44 77
f 44 43 77
f 77 43 78
f 43 42 78
f 78 42 79
f 42 47 79
f 79 47 80
f 47 46 80
f 80 46 81
f 46 45 81
f 81 45 82
f 45 50 82
f 82 50 83
f 50 49 83
f 83 49 84
f 49 48 84
f 84 48 85
f 48 53 85
f 85 53 86
f 53 52 86
f 86 52 87
f 52 51 87
f 87 51 88
f 51 56 88
f 88 56 89
f 56 55 89
f 89 55 90
f 55 54 90
f 90 54 91
f 54 59 91
f 91 59 92
f 59 58 92
f 92 58 93
f 58 57 93
f 93 57 94
f 57 62 94
f 94 62 95
f 62 61 95
f 95 61 96
f 61 60 96
f 96 60 97
f 60 65 97
f 97 65 98
f 65 64 98
f 98 64 99
f 64 63 99
f 99 63 100
f 63 68 100
f 100 68 101
f 68 67 101
f 101 67 102
f 67 66 102
f 102 66 103
f 66 71 103
f 103 71 104
f 71 70 104
f 104 70 105
f 70 69 105
f 105 69 106
f 69 73 106
f 106 73 107
f 73 72 107
f 107 72 108
f 72 5 108
f 108 5 109
f 5 4 109
f 109 4 110
f 4 2 110
f 110 2 111
f 2 1 111
f 111 1 112
f 1 8 112
f 112 8 113
f 8 7 113
f 113 7 114
f 7 6 114
f 114 6 115
f 6 11 115
f 115 11 116
f 11 10 116
f 116 10 117
f 10 9 117
f 117 9 118
f 9 14 118
f 118 14 119
f 14 13 119
f 119 13 120
f 13 12 120
f 120 12 121
f 12 17 121
f 121 17 122
f 17 16 122
f 122 16 123
f 16 15 123
f 123 15 124
f 15 20 124
f 124 20 125
f 20 19 125
f 125 19 126
f 19 18 126
f 126 18 127
f 18 23 127
f 127 23 128
f 23 22 128
f 128 22 129
f 22 21 129
f 129 21 130
f 21 26 130
f 130 26 131
f 26 25 131
f 131 25 132
f 25 24 132
f 132 24 133
f 24 29 133
f 133 29 134
f 29 28 134
f 134 28 135
f 28 27 135
f 135 27 136
f 27 32 136
f 136 32 137
f 32 31 137
f 137 31 138
f 31 30 138
f 138 30 139
f 30 35 139
f 139 35 140
f 35 34 140
f 140 34 141
f 34 33 141
f 141 33 142
f 33 38 142
f 142 38 143
f 38 37 143
f 143 37 144
f 37 36 144
f 144 36 145
f 36 41 145
f 145 41 74
f 41 40 74
f 146 147 110
f 148 149 112
f 148 112 150
f 112 113 151
f 113 114 151
f 151 114 115
f 103 104 152
f 104 105 152
f 152 105 106
f 153 154 108
f 154 155 108
f 108 155 156
f 157 158 151
f 159 160 112
f 160 161 112
f 112 161 150
f 149 162 112
f 162 163 112
f 112 163 164
f 115 116 151
f 116 117 151
f 151 117 118
f 165 166 108
f 158 167 151
f 167 168 151
f 151 168 112
f 168 169 112
f 112 169 170
f 170 171 112
f 171 172 112
f 112 172 159
f 146 110 164
f 110 111 164
f 164 111 112
f 121 122 151
f 153 108 147
f 108 109 147
f 147 109 110
f 122 123 151
f 123 124 151
f 151 124 173
f 124 125 173
f 173 125 126
f 156 174 108
f 174 175 108
f 108 175 165
f 118 119 151
f 119 120 151
f 151 120 121
f 166 176 108
f 176 177 108
f 108 177 178
f 97 98 152
f 98 99 152
f 152 99 100
f 100 101 152
f 101 102 152
f 152 102 103
f 179 180 181
f 180 152 181
f 106 107 152
f 107 108 152
f 152 108 181
f 108 178 181
f 179 182 180
f 182 183 180
f 180 183 184
f 184 185 180
f 185 186 180
f 180 186 187
f 186 188 187
f 187 188 189
f 188 190 189
f 189 190 191
f 190 192 191
f 191 192 193
f 192 194 193
f 193 194 195
f 194 196 195
f 195 196 197
f 196 198 197
f 197 198 199
f 198 200 199
f 199 200 201
f 200 202 201
f 201 202 203
f 202 204 203
f 203 204 205
f 204 206 205
f 205 206 207
f 206 208 207
f 207 208 209
f 208 210 209
f 209 210 211
f 210 212 211
f 211 212 213
f 212 214 213
f 213 214 215
f 214 216 215
f 215 216 217
f 216 218 217
f 217 218 219
f 218 220 219
f 219 220 221
f 220 222 221
f 221 222 223
f 222 224 223
f 223 224 225
f 224 226 225
f 225 226 227
f 226 228 227
f 227 228 229
f 228 230 229
f 229 230 231
f 230 232 231
f 231 232 233
f 232 234 233
f 233 234 235
f 234 236 235
f 235 236 237
f 236 238 237
f 237 238 239
f 238 240 239
f 239 240 241
f 240 242 241
f 241 242 243
f 242 244 243
f 243 244 245
f 244 246 245
f 245 246 247
f 246 248 247
f 247 248 249
f 248 250 249
f 249 250 251
f 250 252 251
f 251 252 253
f 252 254 253
f 253 254 151
f 254 255 151
f 151 255 157
f 126 127 173
f 127 128 173
f 173 128 256
f 128 129 256
f 256 129 257
f 129 130 257
f 257 130 258
f 130 131 258
f 258 131 259
f 131 132 259
f 259 132 260
f 132 133 260
f 260 133 261
f 133 134 261
f 261 134 262
f 134 135 262
f 262 135 263
f 135 136 263
f 263 136 264
f 136 137 264
f 264 137 265
f 137 138 265
f 265 138 266
f 138 139 266
f 266 139 267
f 139 140 267
f 267 140 268
f 140 141 268
f 268 141 269
f 141 142 269
f 269 142 270
f 142 143 270
f 270 143 271
f 143 144 271
f 271 144 272
f 144 145 272
f 272 145 273
f 145 74 273
f 273 74 274
f 74 75 274
f 274 75 275
f 75 76 275
f 275 76 276
f 76 77 276
f 276 77 277
f 77 78 277
f 277 78 278
f 78 79 278
f 278 79 279
f 79 80 279
f 279 80 280
f 80 81 280
f 280 81 281
f 81 82 281
f 281 82 282
f 82 83 282
f 282 83 283
f 83 84 283
f 283 84 284
f 84 85 284
f 284 85 285
f 85 86 285
f 285 86 286
f 86 87 286
f 286 87 287
f 87 88 287
f 287 88 288
f 88 89 288
f 288 89 289
f 89 90 289
f 289 90 290
f 90 91 290
f 290 91 291
f 91 92 291
f 291 92 93
f 93 94 291
f 94 95 291
f 291 95 152
f 95 96 152
f 152 96 97
f 292 293 173
f 293 151 173
f 294 152 180
f 294 180 295
f 180 187 295
f 295 187 296
f 187 189 296
f 296 189 297
f 189 191 297
f 297 191 298
f 191 193 298
f 298 193 299
f 193 195 299
f 299 195 300
f 195 197 300
f 300 197 301
f 197 199 301
f 301 199 302
f 199 201 302
f 302 201 303
f 201 203 303
f 303 203 304
f 203 205 304
f 304 205 305
f 205 207 305
f 305 207 306
f 207 209 306
f 306 209 307
f 209 211 307
f 307 211 308
f 211 213 308
f 308 213 309
f 213 215 309
f 309 215 310
f 215 217 310
f 310 217 311
f 217 219 311
f 311 219 312
f 219 221 312
f 312 221 313
f 221 223 313
f 313 223 314
f 223 225 314
f 314 225 315
f 225 227 315
f 315 227 316
f 227 229 316
f 316 229 317
f 229 231 317
f 317 231 318
f 231 233 318
f 318 233 319
f 233 235 319
f 319 235 320
f 235 237 320
f 320 237 321
f 237 239 321
f 321 239 322
f 239 241 322
f 322 241 323
f 241 243 323
f 323 243 324
f 243 245 324
f 324 245 325
f 245 247 325
f 325 247 326
f 247 249 326
f 326 249 327
f 249 251 327
f 327 251 328
f 251 253 328
f 328 253 329
f 253 151 329
f 329 151 293
f 292 173 256
f 292 256 330
f 256 257 330
f 330 257 331
f 257 258 331
f 331 258 332
f 258 259 332
f 332 259 333
f 259 260 333
f 333 260 334
f 260 261 334
f 334 261 335
f 261 262 335
f 335 262 336
f 262 263 336
f 336 263 337
f 263 264 337
f 337 264 338
f 264 265 338
f 338 265 339
f 265 266 339
f 339 266 340
f 266 267 340
f 340 267 341
f 267 268 341
f 341 268 342
f 268 269 342
f 342 269 343
f 269 270 343
f 343 270 344
f 270 271 344
f 344 271 345
f 271 272 345
f 345 272 346
f 272 273 346
f 346 273 347
f 273 274 347
f 347 274 348
f 274 275 348
f 348 275 349
f 275 276 349
f 349 276 350
f 276 277 350
f 350 277 351
f 277 278 351
f 351 278 352
f 278 279 352
f 352 279 353
f 279 280 353
f 353 280 354
f 280 281 354
f 354 281 355
f 281 282 355
f 355 282 356
f 282 283 356
f 356 283 357
f 283 284 357
f 357 284 358
f 284 285 358
f 358 285 359
f 285 286 359
f 359 286 360
f 286 287 360
f 360 287 361
f 287 288 361
f 361 288 362
f 288 289 362
f 362 289 363
f 289 290 363
f 363 290 364
f 290 291 364
f 364 291 365
f 294 365 152
f 365 291 152
f 366 220 367
f 220 218 367
f 367 218 368
f 218 216 368
f 368 216 369
f 216 214 369
f 369 214 370
f 214 212 370
f 370 212 371
f 212 210 371
f 371 210 372
f 210 208 372
f 372 208 373
f 208 206 373
f 373 206 374
f 206 204 374
f 374 204 375
f 204 202 375
f 375 202 376
f 202 200 376
f 376 200 377
f 200 198 377
f 377 198 378
f 198 196 378
f 378 196 379
f 196 194 379
f 379 194 380
f 194 192 380
f 380 192 381
f 192 190 381
f 381 190 382
f 190 188 382
f 382 188 383
f 188 186 383
f 383 186 384
f 186 185 384
f 384 185 385
f 185 184 385
f 385 184 386
f 184 183 386
f 386 183 387
f 183 182 387
f 387 182 388
f 182 179 388
f 388 179 389
f 179 181 389
f 389 181 390
f 181 178 390
f 390 178 391
f 178 177 391
f 391 177 392
f 177 176 392
f 392 176 393
f 176 166 393
f 393 166 394
f 166 165 394
f 394 165 395
f 165 175 395
f 395 175 396
f 175 174 396
f 396 174 397
f 174 156 397
f 397 156 398
f 156 155 398
f 398 155 399
f 155 154 399
f 399 154 400
f 154 153 400
f 400 153 401
f 153 147 401
f 401 147 402
f 147 146 402
f 402 146 403
f 146 164 403
f 403 164 404
f 164 163 404
f 404 163 405
f 163 162 405
f 405 162 406
f 162 149 406
f 406 149 407
f 149 148 407
f 407 148 408
f 148 150 408
f 408 150 409
f 150 161 409
f 409 161 410
f 161 160 410
f 410 160 411
f 160 159 411
f 411 159 412
f 159 172 412
f 412 172 413
f 172 171 413
f 413 171 414
f 171 170 414
f 414 170 415
f 170 169 415
f 415 169 416
f 169 168 416
f 416 168 417
f 168 167 417
f 417 167 418
f 167 158 418
f 418 158 419
f 158 157 419
f 419 157 420
f 157 255 420
f 420 255 421
f 255 254 421
f 421 254 422
f 254 252 422
f 422 252 423
f 252 250 423
f 423 250 424
f 250 248 424
f 424 248 425
f 248 246 425
f 425 246 426
f 246 244 426
f 426 244 427
f 244 242 427
f 427 242 428
f 242 240 428
f 428 240 429
f 240 238 429
f 429 238 430
f 238 236 430
f 430 236 431
f 236 234 431
f 431 234 432
f 234 232 432
f 432 232 433
f 232 230 433
f 433 230 434
f 230 228 434
f 434 228 435
f 228 226 435
f 435 226 436
f 226 224 436
f 436 224 437
f 224 222 437
f 437 222 366
f 222 220 366
f 338 339 402
f 345 346 402
f 403 404 292
f 404 405 292
f 292 405 406
f 406 407 292
f 407 408 292
f 292 408 409
f 292 412 413
f 413 414 292
f 414 415 292
f 292 415 293
f 415 416 293
f 416 417 293
f 293 417 418
f 339 340 402
f 340 341 402
f 402 341 342
f 409 410 292
f 410 411 292
f 292 411 412
f 398 399 365
f 399 400 365
f 331 332 402
f 342 343 402
f 343 344 402
f 402 344 345
f 392 393 365
f 393 394 365
f 365 394 395
f 395 396 365
f 396 397 365
f 365 397 398
f 346 347 402
f 347 348 402
f 402 348 349
f 332 333 402
f 333 334 402
f 402 334 335
f 403 292 402
f 292 330 402
f 402 330 331
f 335 336 402
f 336 337 402
f 402 337 338
f 354 402 353
f 402 352 353
f 389 390 365
f 390 391 365
f 365 391 392
f 349 350 402
f 350 351 402
f 402 351 352
f 354 355 402
f 355 356 402
f 402 356 357
f 418 419 293
f 419 420 293
f 293 420 329
f 420 421 329
f 329 421 328
f 421 422 328
f 328 422 327
f 422 423 327
f 327 423 326
f 423 424 326
f 326 424 325
f 424 425 325
f 325 425 324
f 425 426 324
f 324 426 323
f 426 427 323
f 323 427 322
f 427 428 322
f 322 428 321
f 428 429 321
f 321 429 320
f 429 430 320
f 320 430 319
f 430 431 319
f 319 431 318
f 431 432 318
f 318 432 317
f 432 433 317
f 317 433 316
f 433 434 316
f 316 434 315
f 434 435 315
f 315 435 314
f 435 436 314
f 314 436 313
f 436 437 313
f 313 437 312
f 437 366 312
f 312 366 311
f 366 367 311
f 311 367 310
f 367 368 310
f 310 368 309
f 368 369 309
f 309 369 308
f 369 370 308
f 308 370 307
f 370 371 307
f 307 371 306
f 371 372 306
f 306 372 305
f 372 373 305
f 305 373 304
f 373 374 304
f 304 374 303
f 374 375 303
f 303 375 302
f 375 376 302
f 302 376 301
f 376 377 301
f 301 377 300
f 377 378 300
f 300 378 299
f 378 379 299
f 299 379 298
f 379 380 298
f 298 380 297
f 380 381 297
f 297 381 296
f 381 382 296
f 296 382 295
f 382 383 295
f 295 383 294
f 383 384 294
f 294 384 385
f 385 386 294
f 386 387 294
f 294 387 365
f 387 388 365
f 365 388 389
f 357 358 402
f 358 359 402
f 402 359 360
f 360 361 402
f 361 362 402
f 402 362 363
f 363 364 402
f 364 365 402
f 402 365 401
f 365 400 401

