# https://github.com/mikedh/trimesh
v 0.01690473 -0.03625231 0.00000000
v 0.02000000 -0.03464102 0.00000000
v 0.95300001 -0.04700000 0.00000000
v 0.99982113 0.00409632 0.00000000
v 1.00000000 0.00000000 0.00000000
v 0.04000000 0.00000000 0.00000000
v 0.03939231 0.00694593 0.00000000
v 0.03863703 0.01035276 0.00000000
v 0.95300001 0.04700000 0.00000000
v 0.03758771 0.01368081 0.00000000
v 0.03625231 0.01690473 0.00000000
v 0.02828427 -0.02828427 0.00000000
v 0.03064178 -0.02571150 0.00000000
v 0.00348623 -0.03984779 0.00000000
v 0.00694593 -0.03939231 0.00000000
v 0.00000000 -0.04700000 0.00000000
v 0.01035276 -0.03863703 0.00000000
v 0.01368081 -0.03758771 0.00000000
v 0.02294306 -0.03276608 0.00000000
v 0.02571150 -0.03064178 0.00000000
v 0.03276608 -0.02294306 0.00000000
v 0.03464102 -0.02000000 0.00000000
v 0.03625231 -0.01690473 0.00000000
v 0.03758771 -0.01368081 0.00000000
v 0.03863703 -0.01035276 0.00000000
v 0.03939231 -0.00694593 0.00000000
v 0.03464102 0.02000000 0.00000000
v 0.03276608 0.02294306 0.00000000
v 0.03064178 0.02571150 0.00000000
v 0.98900408 0.03021102 0.00000000
v 0.99150014 0.02695809 0.00000000
v 0.02828427 0.02828427 0.00000000
v 0.02571150 0.03064178 0.00000000
v 0.02294306 0.03276608 0.00000000
v 0.01690473 0.03625231 0.00000000
v 0.01368081 0.03758771 0.00000000
v -0.00409632 0.04682115 0.00000000
v 0.99370319 -0.02350000 0.00000000
v 0.99150014 -0.02695809 0.00000000
v 0.99982113 -0.00409632 0.00000000
v 0.99928594 -0.00816146 0.00000000
v 0.99839854 -0.01216449 0.00000000
v 0.98900408 -0.03021102 0.00000000
v 0.98623401 -0.03323402 0.00000000
v 0.98321104 -0.03600409 0.00000000
v 0.99370319 0.02350000 0.00000000
v 0.99559647 0.01986306 0.00000000
v 0.99716556 0.01607495 0.00000000
v 0.99716556 -0.01607495 0.00000000
v 0.99559647 -0.01986306 0.00000000
v 0.99839854 0.01216449 0.00000000
v 0.99928594 0.00816146 0.00000000
v 0.02000000 0.03464102 0.00000000
v 0.00000000 0.04700000 0.00000000
v 0.01035276 0.03863703 0.00000000
v 0.00694593 0.03939231 0.00000000
v 0.00348623 0.03984779 0.00000000
v -0.00000000 0.04000000 0.00000000
v -0.00348623 0.03984779 0.00000000
v -0.00816146 0.04628596 0.00000000
v -0.00694593 0.03939231 0.00000000
v -0.01216449 0.04539851 0.00000000
v -0.01035276 0.03863703 0.00000000
v -0.01607495 0.04416555 0.00000000
v -0.01368081 0.03758771 0.00000000
v -0.01986306 0.04259647 0.00000000
v -0.01690473 0.03625231 0.00000000
v -0.02350000 0.04070319 0.00000000
v -0.02000000 0.03464102 0.00000000
v -0.02695809 0.03850015 0.00000000
v -0.02294306 0.03276608 0.00000000
v -0.03021102 0.03600409 0.00000000
v -0.02571150 0.03064178 0.00000000
v -0.03323402 0.03323402 0.00000000
v -0.02828427 0.02828427 0.00000000
v -0.03600409 0.03021102 0.00000000
v -0.03064178 0.02571150 0.00000000
v -0.03850015 0.02695809 0.00000000
v -0.03276608 0.02294306 0.00000000
v -0.04070319 0.02350000 0.00000000
v -0.03464102 0.02000000 0.00000000
v -0.04259647 0.01986306 0.00000000
v -0.03625231 0.01690473 0.00000000
v -0.04416555 0.01607495 0.00000000
v -0.03758771 0.01368081 0.00000000
v -0.04539851 0.01216449 0.00000000
v -0.03863703 0.01035276 0.00000000
v -0.04628596 0.00816146 0.00000000
v -0.03939231 0.00694593 0.00000000
v -0.04682115 0.00409632 0.00000000
v -0.03984779 0.00348623 0.00000000
v -0.04700000 -0.00000000 0.00000000
v -0.04000000 -0.00000000 0.00000000
v -0.04682115 -0.00409632 0.00000000
v -0.03984779 -0.00348623 0.00000000
v -0.04628596 -0.00816146 0.00000000
v -0.03939231 -0.00694593 0.00000000
v -0.04539851 -0.01216449 0.00000000
v -0.03863703 -0.01035276 0.00000000
v -0.04416555 -0.01607495 0.00000000
v -0.03758771 -0.01368081 0.00000000
v -0.04259647 -0.01986306 0.00000000
v -0.03625231 -0.01690473 0.00000000
v -0.04070319 -0.02350000 0.00000000
v -0.03464102 -0.02000000 0.00000000
v -0.03850015 -0.02695809 0.00000000
v -0.03276608 -0.02294306 0.00000000
v -0.03600409 -0.03021102 0.00000000
v -0.03064178 -0.02571150 0.00000000
v -0.03323402 -0.03323402 0.00000000
v -0.02828427 -0.02828427 0.00000000
v -0.03021102 -0.03600409 0.00000000
v -0.02571150 -0.03064178 0.00000000
v -0.02695809 -0.03850015 0.00000000
v -0.02294306 -0.03276608 0.00000000
v -0.02350000 -0.04070319 0.00000000
v -0.02000000 -0.03464102 0.00000000
v -0.01986306 -0.04259647 0.00000000
v -0.01690473 -0.03625231 0.00000000
v -0.01607495 -0.04416555 0.00000000
v -0.01368081 -0.03758771 0.00000000
v -0.01216449 -0.04539851 0.00000000
v -0.01035276 -0.03863703 0.00000000
v -0.00816146 -0.04628596 0.00000000
v -0.00694593 -0.03939231 0.00000000
v -0.00409632 -0.04682115 0.00000000
v -0.00348623 -0.03984779 0.00000000
v 0.00000000 -0.04000000 0.00000000
v 0.97995812 -0.03850015 0.00000000
v 0.97649997 -0.04070319 0.00000000
v 0.97286308 -0.04259647 0.00000000
v 0.95709634 0.04682115 0.00000000
v 0.96116143 0.04628596 0.00000000
v 0.96516448 0.04539851 0.00000000
v 0.96907496 0.04416555 0.00000000
v 0.97995812 0.03850015 0.00000000
v 0.98321104 0.03600409 0.00000000
v 0.98623401 0.03323402 0.00000000
v 0.03984779 0.00348623 0.00000000
v 0.97286308 0.04259647 0.00000000
v 0.97649997 0.04070319 0.00000000
v 0.96907496 -0.04416555 0.00000000
v 0.96516448 -0.04539851 0.00000000
v 0.96116143 -0.04628596 0.00000000
v 0.95709634 -0.04682115 0.00000000
v 0.03984779 -0.00348623 0.00000000
v 0.95300001 -0.04700000 0.03812500
v 0.00000000 -0.04700000 0.03812500
v 0.00000000 0.04700000 0.03812500
v -0.00409632 0.04682115 0.03812500
v -0.00816146 0.04628596 0.03812500
v -0.01216449 0.04539851 0.03812500
v -0.01607495 0.04416555 0.03812500
v -0.01986306 0.04259647 0.03812500
v -0.02350000 0.04070319 0.03812500
v -0.02695809 0.03850015 0.03812500
v -0.03021102 0.03600409 0.03812500
v -0.03323402 0.03323402 0.03812500
v -0.03600409 0.03021102 0.03812500
v -0.03850015 0.02695809 0.03812500
v -0.04070319 0.02350000 0.03812500
v -0.04259647 0.01986306 0.03812500
v -0.04416555 0.01607495 0.03812500
v -0.04539851 0.01216449 0.03812500
v -0.04628596 0.00816146 0.03812500
v -0.04682115 0.00409632 0.03812500
v -0.04700000 -0.00000000 0.03812500
v -0.04682115 -0.00409632 0.03812500
v -0.04628596 -0.00816146 0.03812500
v -0.04539851 -0.01216449 0.03812500
v -0.04416555 -0.01607495 0.03812500
v -0.04259647 -0.01986306 0.03812500
v -0.04070319 -0.02350000 0.03812500
v -0.03850015 -0.02695809 0.03812500
v -0.03600409 -0.03021102 0.03812500
v -0.03323402 -0.03323402 0.03812500
v -0.03021102 -0.03600409 0.03812500
v -0.02695809 -0.03850015 0.03812500
v -0.02350000 -0.04070319 0.03812500
v -0.01986306 -0.04259647 0.03812500
v -0.01607495 -0.04416555 0.03812500
v -0.01216449 -0.04539851 0.03812500
v -0.00816146 -0.04628596 0.03812500
v -0.00409632 -0.04682115 0.03812500
v 0.95709634 -0.04682115 0.03812500
v 0.96116143 -0.04628596 0.03812500
v 0.96516448 -0.04539851 0.03812500
v 0.96907496 -0.04416555 0.03812500
v 0.97286308 -0.04259647 0.03812500
v 0.97649997 -0.04070319 0.03812500
v 0.97995812 -0.03850015 0.03812500
v 0.98321104 -0.03600409 0.03812500
v 0.98623401 -0.03323402 0.03812500
v 0.98900408 -0.03021102 0.03812500
v 0.99150014 -0.02695809 0.03812500
v 0.99370319 -0.02350000 0.03812500
v 0.99559647 -0.01986306 0.03812500
v 0.99716556 -0.01607495 0.03812500
v 0.99839854 -0.01216449 0.03812500
v 0.99928594 -0.00816146 0.03812500
v 0.99982113 -0.00409632 0.03812500
v 1.00000000 0.00000000 0.03812500
v 0.99982113 0.00409632 0.03812500
v 0.99928594 0.00816146 0.03812500
v 0.99839854 0.01216449 0.03812500
v 0.99716556 0.01607495 0.03812500
v 0.99559647 0.01986306 0.03812500
v 0.99370319 0.02350000 0.03812500
v 0.99150014 0.02695809 0.03812500
v 0.98900408 0.03021102 0.03812500
v 0.98623401 0.03323402 0.03812500
v 0.98321104 0.03600409 0.03812500
v 0.97995812 0.03850015 0.03812500
v 0.97649997 0.04070319 0.03812500
v 0.97286308 0.04259647 0.03812500
v 0.96907496 0.04416555 0.03812500
v 0.96516448 0.04539851 0.03812500
v 0.96116143 0.04628596 0.03812500
v 0.95709634 0.04682115 0.03812500
v 0.95300001 0.04700000 0.03812500
v -0.04000000 -0.00000000 0.03812500
v -0.03984779 0.00348623 0.03812500
v -0.03939231 0.00694593 0.03812500
v -0.03863703 0.01035276 0.03812500
v -0.03758771 0.01368081 0.03812500
v -0.03625231 0.01690473 0.03812500
v -0.03464102 0.02000000 0.03812500
v -0.03276608 0.02294306 0.03812500
v -0.03064178 0.02571150 0.03812500
v -0.02828427 0.02828427 0.03812500
v -0.02571150 0.03064178 0.03812500
v -0.02294306 0.03276608 0.03812500
v -0.02000000 0.03464102 0.03812500
v -0.01690473 0.03625231 0.03812500
v -0.01368081 0.03758771 0.03812500
v -0.01035276 0.03863703 0.03812500
v -0.00694593 0.03939231 0.03812500
v -0.00348623 0.03984779 0.03812500
v -0.00000000 0.04000000 0.03812500
v 0.00348623 0.03984779 0.03812500
v 0.00694593 0.03939231 0.03812500
v 0.01035276 0.03863703 0.03812500
v 0.01368081 0.03758771 0.03812500
v 0.01690473 0.03625231 0.03812500
v 0.02000000 0.03464102 0.03812500
v 0.02294306 0.03276608 0.03812500
v 0.02571150 0.03064178 0.03812500
v 0.02828427 0.02828427 0.03812500
v 0.03064178 0.02571150 0.03812500
v 0.03276608 0.02294306 0.03812500
v 0.03464102 0.02000000 0.03812500
v 0.03625231 0.01690473 0.03812500
v 0.03758771 0.01368081 0.03812500
v 0.03863703 0.01035276 0.03812500
v 0.03939231 0.00694593 0.03812500
v 0.03984779 0.00348623 0.03812500
v 0.04000000 0.00000000 0.03812500
v 0.03984779 -0.00348623 0.03812500
v 0.03939231 -0.00694593 0.03812500
v 0.03863703 -0.01035276 0.03812500
v 0.03758771 -0.01368081 0.03812500
v 0.03625231 -0.01690473 0.03812500
v 0.03464102 -0.02000000 0.03812500
v 0.03276608 -0.02294306 0.03812500
v 0.03064178 -0.02571150 0.03812500
v 0.02828427 -0.02828427 0.03812500
v 0.02571150 -0.03064178 0.03812500
v 0.02294306 -0.03276608 0.03812500
v 0.02000000 -0.03464102 0.03812500
v 0.01690473 -0.03625231 0.03812500
v 0.01368081 -0.03758771 0.03812500
v 0.01035276 -0.03863703 0.03812500
v 0.00694593 -0.03939231 0.03812500
v 0.00348623 -0.03984779 0.03812500
v 0.00000000 -0.04000000 0.03812500
v -0.00348623 -0.03984779 0.03812500
v -0.00694593 -0.03939231 0.03812500
v -0.01035276 -0.03863703 0.03812500
v -0.01368081 -0.03758771 0.03812500
v -0.01690473 -0.03625231 0.03812500
v -0.02000000 -0.03464102 0.03812500
v -0.02294306 -0.03276608 0.03812500
v -0.02571150 -0.03064178 0.03812500
v -0.02828427 -0.02828427 0.03812500
v -0.03064178 -0.02571150 0.03812500
v -0.03276608 -0.02294306 0.03812500
v -0.03464102 -0.02000000 0.03812500
v -0.03625231 -0.01690473 0.03812500
v -0.03758771 -0.01368081 0.03812500
v -0.03863703 -0.01035276 0.03812500
v -0.03939231 -0.00694593 0.03812500
v -0.03984779 -0.00348623 0.03812500
f 1 2 3
f 4 5 6
f 7 8 9
f 8 10 9
f 9 10 11
f 3 12 13
f 14 15 16
f 15 17 16
f 16 17 3
f 17 18 3
f 3 18 1
f 2 19 3
f 19 20 3
f 3 20 12
f 13 21 3
f 21 22 3
f 3 22 23
f 23 24 3
f 24 25 3
f 3 25 26
f 11 27 9
f 27 28 9
f 9 28 29
f 30 31 6
f 29 32 9
f 32 33 9
f 9 33 34
f 35 36 37
f 6 38 39
f 5 40 6
f 40 41 6
f 6 41 42
f 39 43 6
f 43 44 6
f 6 44 45
f 31 46 6
f 46 47 6
f 6 47 48
f 42 49 6
f 49 50 6
f 6 50 38
f 48 51 6
f 51 52 6
f 6 52 4
f 34 53 9
f 53 35 9
f 9 35 54
f 35 37 54
f 36 55 37
f 55 56 37
f 37 56 57
f 57 58 37
f 58 59 37
f 37 59 60
f 59 61 60
f 60 61 62
f 61 63 62
f 62 63 64
f 63 65 64
f 64 65 66
f 65 67 66
f 66 67 68
f 67 69 68
f 68 69 70
f 69 71 70
f 70 71 72
f 71 73 72
f 72 73 74
f 73 75 74
f 74 75 76
f 75 77 76
f 76 77 78
f 77 79 78
f 78 79 80
f 79 81 80
f 80 81 82
f 81 83 82
f 82 83 84
f 83 85 84
f 84 85 86
f 85 87 86
f 86 87 88
f 87 89 88
f 88 89 90
f 89 91 90
f 90 91 92
f 91 93 92
f 92 93 94
f 93 95 94
f 94 95 96
f 95 97 96
f 96 97 98
f 97 99 98
f 98 99 100
f 99 101 100
f 100 101 102
f 101 103 102
f 102 103 104
f 103 105 104
f 104 105 106
f 105 107 106
f 106 107 108
f 107 109 108
f 108 109 110
f 109 111 110
f 110 111 112
f 111 113 112
f 112 113 114
f 113 115 114
f 114 115 116
f 115 117 116
f 116 117 118
f 117 119 118
f 118 119 120
f 119 121 120
f 120 121 122
f 121 123 122
f 122 123 124
f 123 125 124
f 124 125 126
f 125 127 126
f 126 127 16
f 127 128 16
f 16 128 14
f 45 129 6
f 129 130 6
f 6 130 131
f 132 133 6
f 133 134 6
f 6 134 135
f 136 137 6
f 137 138 6
f 6 138 30
f 132 6 9
f 6 139 9
f 9 139 7
f 135 140 6
f 140 141 6
f 6 141 136
f 131 142 6
f 142 143 6
f 6 143 144
f 144 145 6
f 145 3 6
f 6 3 146
f 3 26 146
f 147 148 3
f 148 16 3
f 149 54 37
f 149 37 150
f 37 60 150
f 150 60 151
f 60 62 151
f 151 62 152
f 62 64 152
f 152 64 153
f 64 66 153
f 153 66 154
f 66 68 154
f 154 68 155
f 68 70 155
f 155 70 156
f 70 72 156
f 156 72 157
f 72 74 157
f 157 74 158
f 74 76 158
f 158 76 159
f 76 78 159
f 159 78 160
f 78 80 160
f 160 80 161
f 80 82 161
f 161 82 162
f 82 84 162
f 162 84 163
f 84 86 163
f 163 86 164
f 86 88 164
f 164 88 165
f 88 90 165
f 165 90 166
f 90 92 166
f 166 92 167
f 92 94 167
f 167 94 168
f 94 96 168
f 168 96 169
f 96 98 169
f 169 98 170
f 98 100 170
f 170 100 171
f 100 102 171
f 171 102 172
f 102 104 172
f 172 104 173
f 104 106 173
f 173 106 174
f 106 108 174
f 174 108 175
f 108 110 175
f 175 110 176
f 110 112 176
f 176 112 177
f 112 114 177
f 177 114 178
f 114 116 178
f 178 116 179
f 116 118 179
f 179 118 180
f 118 120 180
f 180 120 181
f 120 122 181
f 181 122 182
f 122 124 182
f 182 124 183
f 124 126 183
f 183 126 184
f 126 16 184
f 184 16 148
f 147 3 145
f 147 145 185
f 145 144 185
f 185 144 186
f 144 143 186
f 186 143 187
f 143 142 187
f 187 142 188
f 142 131 188
f 188 131 189
f 131 130 189
f 189 130 190
f 130 129 190
f 190 129 191
f 129 45 191
f 191 45 192
f 45 44 192
f 192 44 193
f 44 43 193
f 193 43 194
f 43 39 194
f 194 39 195
f 39 38 195
f 195 38 196
f 38 50 196
f 196 50 197
f 50 49 197
f 197 49 198
f 49 42 198
f 198 42 199
f 42 41 199
f 199 41 200
f 41 40 200
f 200 40 201
f 40 5 201
f 201 5 202
f 5 4 202
f 202 4 203
f 4 52 203
f 203 52 204
f 52 51 204
f 204 51 205
f 51 48 205
f 205 48 206
f 48 47 206
f 206 47 207
f 47 46 207
f 207 46 208
f 46 31 208
f 208 31 209
f 31 30 209
f 209 30 210
f 30 138 210
f 210 138 211
f 138 137 211
f 211 137 212
f 137 136 212
f 212 136 213
f 136 141 213
f 213 141 214
f 141 140 214
f 214 140 215
f 140 135 215
f 215 135 216
f 135 134 216
f 216 134 217
f 134 133 217
f 217 133 218
f 133 132 218
f 218 132 219
f 132 9 219
f 219 9 220
f 149 220 54
f 220 9 54
f 221 93 222
f 93 91 222
f 222 91 223
f 91 89 223
f 223 89 224
f 89 87 224
f 224 87 225
f 87 85 225
f 225 85 226
f 85 83 226
f 226 83 227
f 83 81 227
f 227 81 228
f 81 79 228
f 228 79 229
f 79 77 229
f 229 77 230
f 77 75 230
f 230 75 231
f 75 73 231
f 231 73 232
f 73 71 232
f 232 71 233
f 71 69 233
f 233 69 234
f 69 67 234
f 234 67 235
f 67 65 235
f 235 65 236
f 65 63 236
f 236 63 237
f 63 61 237
f 237 61 238
f 61 59 238
f 238 59 239
f 59 58 239
f 239 58 240
f 58 57 240
f 240 57 241
f 57 56 241
f 241 56 242
f 56 55 242
f 242 55 243
f 55 36 243
f 243 36 244
f 36 35 244
f 244 35 245
f 35 53 245
f 245 53 246
f 53 34 246
f 246 34 247
f 34 33 247
f 247 33 248
f 33 32 248
f 248 32 249
f 32 29 249
f 249 29 250
f 29 28 250
f 250 28 251
f 28 27 251
f 251 27 252
f 27 11 252
f 252 11 253
f 11 10 253
f 253 10 254
f 10 8 254
f 254 8 255
f 8 7 255
f 255 7 256
f 7 139 256
f 256 139 257
f 139 6 257
f 257 6 258
f 6 146 258
f 258 146 259
f 146 26 259
f 259 26 260
f 26 25 260
f 260 25 261
f 25 24 261
f 261 24 262
f 24 23 262
f 262 23 263
f 23 22 263
f 263 22 264
f 22 21 264
f 264 21 265
f 21 13 265
f 265 13 266
f 13 12 266
f 266 12 267
f 12 20 267
f 267 20 268
f 20 19 268
f 268 19 269
f 19 2 269
f 269 2 270
f 2 1 270
f 270 1 271
f 1 18 271
f 271 18 272
f 18 17 272
f 272 17 273
f 17 15 273
f 273 15 274
f 15 14 274
f 274 14 275
f 14 128 275
f 275 128 276
f 128 127 276
f 276 127 277
f 127 125 277
f 277 125 278
f 125 123 278
f 278 123 279
f 123 121 279
f 279 121 280
f 121 119 280
f 280 119 281
f 119 117 281
f 281 117 282
f 117 115 282
f 282 115 283
f 115 113 283
f 283 113 284
f 113 111 284
f 284 111 285
f 111 109 285
f 285 109 286
f 109 107 286
f 286 107 287
f 107 105 287
f 287 105 288
f 105 103 288
f 288 103 289
f 103 101 289
f 289 101 290
f 101 99 290
f 290 99 291
f 99 97 291
f 291 97 292
f 97 95 292
f 292 95 221
f 95 93 221
f 193 194 257
f 200 201 257
f 258 259 147
f 259 260 147
f 147 260 261
f 261 262 147
f 262 263 147
f 147 263 264
f 147 267 268
f 268 269 147
f 269 270 147
f 147 270 148
f 270 271 148
f 271 272 148
f 148 272 273
f 194 195 257
f 195 196 257
f 257 196 197
f 264 265 147
f 265 266 147
f 147 266 267
f 253 254 220
f 254 255 220
f 186 187 257
f 197 198 257
f 198 199 257
f 257 199 200
f 247 248 220
f 248 249 220
f 220 249 250
f 250 251 220
f 251 252 220
f 220 252 253
f 201 202 257
f 202 203 257
f 257 203 204
f 187 188 257
f 188 189 257
f 257 189 190
f 258 147 257
f 147 185 257
f 257 185 186
f 190 191 257
f 191 192 257
f 257 192 193
f 209 257 208
f 257 207 208
f 244 245 220
f 245 246 220
f 220 246 247
f 204 205 257
f 205 206 257
f 257 206 207
f 209 210 257
f 210 211 257
f 257 211 212
f 273 274 148
f 274 275 148
f 148 275 184
f 275 276 184
f 184 276 183
f 276 277 183
f 183 277 182
f 277 278 182
f 182 278 181
f 278 279 181
f 181 279 180
f 279 280 180
f 180 280 179
f 280 281 179
f 179 281 178
f 281 282 178
f 178 282 177
f 282 283 177
f 177 283 176
f 283 284 176
f 176 284 175
f 284 285 175
f 175 285 174
f 285 286 174
f 174 286 173
f 286 287 173
f 173 287 172
f 287 288 172
f 172 288 171
f 288 289 171
f 171 289 170
f 289 290 170
f 170 290 169
f 290 291 169
f 169 291 168
f 291 292 168
f 168 292 167
f 292 221 167
f 167 221 166
f 221 222 166
f 166 222 165
f 222 223 165
f 165 223 164
f 223 224 164
f 164 224 163
f 224 225 163
f 163 225 162
f 225 226 162
f 162 226 161
f 226 227 161
f 161 227 160
f 227 228 160
f 160 228 159
f 228 229 159
f 159 229 158
f 229 230 158
f 158 230 157
f 230 231 157
f 157 231 156
f 231 232 156
f 156 232 155
f 232 233 155
f 155 233 154
f 233 234 154
f 154 234 153
f 234 235 153
f 153 235 152
f 235 236 152
f 152 236 151
f 236 237 151
f 151 237 150
f 237 238 150
f 150 238 149
f 238 239 149
f 149 239 240
f 240 241 149
f 241 242 149
f 149 242 220
f 242 243 220
f 220 243 244
f 212 213 257
f 213 214 257
f 257 214 215
f 215 216 257
f 216 217 257
f 257 217 218
f 218 219 257
f 219 220 257
f 257 220 256
f 220 255 256

