# https://github.com/mikedh/trimesh
v -1.89100003 -0.00000000 1.05812502
v -1.89100003 -0.00000000 1.09625006
v -1.89105713 0.00130734 1.05812502
v -1.89105713 0.00130734 1.09625006
v -1.89122784 0.00260472 1.05812502
v -1.89122784 0.00260472 1.09625006
v -1.89151108 0.00388229 1.05812502
v -1.89151108 0.00388229 1.09625006
v -1.89190459 0.00513030 1.05812502
v -1.89190459 0.00513030 1.09625006
v -1.89240539 0.00633927 1.05812502
v -1.89240539 0.00633927 1.09625006
v -1.89300966 0.00750000 1.05812502
v -1.89300966 0.00750000 1.09625006
v -1.89371276 0.00860365 1.05812502
v -1.89371276 0.00860365 1.09625006
v -1.89450932 0.00964181 1.05812502
v -1.89450932 0.00964181 1.09625006
v -1.89539337 0.01060660 1.05812502
v -1.89539337 0.01060660 1.09625006
v -1.89635813 0.01149067 1.05812502
v -1.89635813 0.01149067 1.09625006
v -1.89739633 0.01228728 1.05812502
v -1.89739633 0.01228728 1.09625006
v -1.89849997 0.01299038 1.05812502
v -1.89849997 0.01299038 1.09625006
v -1.89966071 0.01359462 1.05812502
v -1.89966071 0.01359462 1.09625006
v -1.90086973 0.01409539 1.05812502
v -1.90086973 0.01409539 1.09625006
v -1.90211773 0.01448889 1.05812502
v -1.90211773 0.01448889 1.09625006
v -1.90339530 0.01477212 1.05812502
v -1.90339530 0.01477212 1.09625006
v -1.90469265 0.01494292 1.05812502
v -1.90469265 0.01494292 1.09625006
v -1.90600002 0.01500000 1.05812502
v -1.90600002 0.01500000 1.09625006
v -1.90730739 0.01494292 1.05812502
v -1.90730739 0.01494292 1.09625006
v -1.90860474 0.01477212 1.05812502
v -1.90860474 0.01477212 1.09625006
v -1.90988231 0.01448889 1.05812502
v -1.90988231 0.01448889 1.09625006
v -1.91113031 0.01409539 1.05812502
v -1.91113031 0.01409539 1.09625006
v -1.91233933 0.01359462 1.05812502
v -1.91233933 0.01359462 1.09625006
v -1.91349995 0.01299038 1.05812502
v -1.91349995 0.01299038 1.09625006
v -1.91460359 0.01228728 1.05812502
v -1.91460359 0.01228728 1.09625006
v -1.91564178 0.01149067 1.05812502
v -1.91564178 0.01149067 1.09625006
v -1.91660655 0.01060660 1.05812502
v -1.91660655 0.01060660 1.09625006
v -1.91749072 0.00964181 1.05812502
v -1.91749072 0.00964181 1.09625006
v -1.91828728 0.00860365 1.05812502
v -1.91828728 0.00860365 1.09625006
v -1.91899037 0.00750000 1.05812502
v -1.91899037 0.00750000 1.09625006
v -1.91959465 0.00633927 1.05812502
v -1.91959465 0.00633927 1.09625006
v -1.92009544 0.00513030 1.05812502
v -1.92009544 0.00513030 1.09625006
v -1.92048883 0.00388229 1.05812502
v -1.92048883 0.00388229 1.09625006
v -1.92077208 0.00260472 1.05812502
v -1.92077208 0.00260472 1.09625006
v -1.92094290 0.00130734 1.05812502
v -1.92094290 0.00130734 1.09625006
v -1.92100000 -0.00000000 1.05812502
v -1.92100000 0.00000000 1.09625006
v -1.92094290 -0.00130734 1.05812502
v -1.92094290 -0.00130734 1.09625006
v -1.92077208 -0.00260472 1.05812502
v -1.92077208 -0.00260472 1.09625006
v -1.92048883 -0.00388229 1.05812502
v -1.92048883 -0.00388229 1.09625006
v -1.92009544 -0.00513030 1.05812502
v -1.92009544 -0.00513030 1.09625006
v -1.91959465 -0.00633927 1.05812502
v -1.91959465 -0.00633927 1.09625006
v -1.91899037 -0.00750000 1.05812502
v -1.91899037 -0.00750000 1.09625006
v -1.91828728 -0.00860365 1.05812502
v -1.91828728 -0.00860365 1.09625006
v -1.91749072 -0.00964181 1.05812502
v -1.91749072 -0.00964181 1.09625006
v -1.91660655 -0.01060660 1.05812502
v -1.91660655 -0.01060660 1.09625006
v -1.91564178 -0.01149067 1.05812502
v -1.91564178 -0.01149067 1.09625006
v -1.91460359 -0.01228728 1.05812502
v -1.91460359 -0.01228728 1.09625006
v -1.91349995 -0.01299038 1.05812502
v -1.91349995 -0.01299038 1.09625006
v -1.91233933 -0.01359462 1.05812502
v -1.91233933 -0.01359462 1.09625006
v -1.91113031 -0.01409539 1.05812502
v -1.91113031 -0.01409539 1.09625006
v -1.90988231 -0.01448889 1.05812502
v -1.90988231 -0.01448889 1.09625006
v -1.90860474 -0.01477212 1.05812502
v -1.90860474 -0.01477212 1.09625006
v -1.90730739 -0.01494292 1.05812502
v -1.90730739 -0.01494292 1.09625006
v -1.90600002 -0.01500000 1.05812502
v -1.90600002 -0.01500000 1.09625006
v -1.90469265 -0.01494292 1.05812502
v -1.90469265 -0.01494292 1.09625006
v -1.90339530 -0.01477212 1.05812502
v -1.90339530 -0.01477212 1.09625006
v -1.90211773 -0.01448889 1.05812502
v -1.90211773 -0.01448889 1.09625006
v -1.90086973 -0.01409539 1.05812502
v -1.90086973 -0.01409539 1.09625006
v -1.89966071 -0.01359462 1.05812502
v -1.89966071 -0.01359462 1.09625006
v -1.89849997 -0.01299038 1.05812502
v -1.89849997 -0.01299038 1.09625006
v -1.89739633 -0.01228728 1.05812502
v -1.89739633 -0.01228728 1.09625006
v -1.89635813 -0.01149067 1.05812502
v -1.89635813 -0.01149067 1.09625006
v -1.89539337 -0.01060660 1.05812502
v -1.89539337 -0.01060660 1.09625006
v -1.89450932 -0.00964181 1.05812502
v -1.89450932 -0.00964181 1.09625006
v -1.89371276 -0.00860365 1.05812502
v -1.89371276 -0.00860365 1.09625006
v -1.89300966 -0.00750000 1.05812502
v -1.89300966 -0.00750000 1.09625006
v -1.89240539 -0.00633927 1.05812502
v -1.89240539 -0.00633927 1.09625006
v -1.89190459 -0.00513030 1.05812502
v -1.89190459 -0.00513030 1.09625006
v -1.89151108 -0.00388229 1.05812502
v -1.89151108 -0.00388229 1.09625006
v -1.89122784 -0.00260472 1.05812502
v -1.89122784 -0.00260472 1.09625006
v -1.89105713 -0.00130734 1.05812502
v -1.89105713 -0.00130734 1.09625006
v -0.99284780 0.00348623 1.09625006
v -0.99239230 0.00694593 1.09625006
v -1.90600002 -0.04700000 1.09625006
v -0.99284780 -0.00348623 1.09625006
v -0.99299997 0.00000000 1.09625006
v -0.98925233 -0.01690473 1.09625006
v -0.99058771 -0.01368081 1.09625006
v -0.99163705 -0.01035276 1.09625006
v -0.99239230 -0.00694593 1.09625006
v -0.98128426 -0.02828427 1.09625006
v -0.98364180 -0.02571150 1.09625006
v -0.95300001 -0.04700000 1.09625006
v -0.95300001 0.04700000 1.09625006
v -0.99163705 0.01035276 1.09625006
v -0.99058771 0.01368081 1.09625006
v -0.98925233 0.01690473 1.09625006
v -0.98576605 -0.02294306 1.09625006
v -0.98764104 -0.02000000 1.09625006
v -0.98764104 0.02000000 1.09625006
v -0.98576605 0.02294306 1.09625006
v -0.98364180 0.02571150 1.09625006
v -0.95648623 -0.03984779 1.09625006
v -0.95994592 -0.03939231 1.09625006
v -0.97299999 -0.03464102 1.09625006
v -0.97594303 -0.03276608 1.09625006
v -0.97871149 -0.03064178 1.09625006
v -1.90600002 0.04700000 1.09625006
v -0.96335274 -0.03863703 1.09625006
v -0.96668082 -0.03758771 1.09625006
v -0.96990472 -0.03625231 1.09625006
v -0.98128426 0.02828427 1.09625006
v -0.97871149 0.03064178 1.09625006
v -0.97594303 0.03276608 1.09625006
v -0.97299999 0.03464102 1.09625006
v -0.94483852 0.04628596 1.09625006
v -0.96668082 0.03758771 1.09625006
v -0.96335274 0.03863703 1.09625006
v -0.96990472 0.03625231 1.09625006
v -0.94890368 0.04682115 1.09625006
v -1.91009629 -0.04682115 1.09625006
v -1.91416144 -0.04628596 1.09625006
v -1.91816449 -0.04539851 1.09625006
v -1.92207491 -0.04416555 1.09625006
v -1.92586303 -0.04259647 1.09625006
v -1.92949998 -0.04070319 1.09625006
v -1.93295813 -0.03850015 1.09625006
v -1.93621099 -0.03600409 1.09625006
v -1.93923402 -0.03323402 1.09625006
v -1.94200408 -0.03021102 1.09625006
v -1.94450009 -0.02695809 1.09625006
v -1.94670320 -0.02350000 1.09625006
v -1.94859648 -0.01986306 1.09625006
v -1.95016551 -0.01607495 1.09625006
v -1.95139849 -0.01216449 1.09625006
v -1.95228601 -0.00816146 1.09625006
v -1.95282114 -0.00409632 1.09625006
v -1.95299995 0.00000000 1.09625006
v -1.95282114 0.00409632 1.09625006
v -1.95228601 0.00816146 1.09625006
v -1.95139849 0.01216449 1.09625006
v -1.95016551 0.01607495 1.09625006
v -1.94859648 0.01986306 1.09625006
v -1.94670320 0.02350000 1.09625006
v -1.94450009 0.02695809 1.09625006
v -1.94200408 0.03021102 1.09625006
v -1.93923402 0.03323402 1.09625006
v -1.93621099 0.03600409 1.09625006
v -1.93295813 0.03850015 1.09625006
v -1.92949998 0.04070319 1.09625006
v -1.92586303 0.04259647 1.09625006
v -1.92207491 0.04416555 1.09625006
v -1.91816449 0.04539851 1.09625006
v -1.91416144 0.04628596 1.09625006
v -1.91009629 0.04682115 1.09625006
v -0.95994592 0.03939231 1.09625006
v -0.95648623 0.03984779 1.09625006
v -0.95300001 0.04000000 1.09625006
v -0.94951379 0.03984779 1.09625006
v -0.94605410 0.03939231 1.09625006
v -0.94083548 0.04539851 1.09625006
v -0.94264722 0.03863703 1.09625006
v -0.93692505 0.04416555 1.09625006
v -0.93931919 0.03758771 1.09625006
v -0.93313694 0.04259647 1.09625006
v -0.93609530 0.03625231 1.09625006
v -0.92949998 0.04070319 1.09625006
v -0.93300003 0.03464102 1.09625006
v -0.92604190 0.03850015 1.09625006
v -0.93005693 0.03276608 1.09625006
v -0.92278898 0.03600409 1.09625006
v -0.92728847 0.03064178 1.09625006
v -0.91976601 0.03323402 1.09625006
v -0.92471576 0.02828427 1.09625006
v -0.91699588 0.03021102 1.09625006
v -0.92235821 0.02571150 1.09625006
v -0.91449988 0.02695809 1.09625006
v -0.92023391 0.02294306 1.09625006
v -0.91229683 0.02350000 1.09625006
v -0.91835898 0.02000000 1.09625006
v -0.91040355 0.01986306 1.09625006
v -0.91674769 0.01690473 1.09625006
v -0.90883446 0.01607495 1.09625006
v -0.91541231 0.01368081 1.09625006
v -0.90760148 0.01216449 1.09625006
v -0.91436297 0.01035276 1.09625006
v -0.90671402 0.00816146 1.09625006
v -0.91360772 0.00694593 1.09625006
v -0.90617883 0.00409632 1.09625006
v -0.91315222 0.00348623 1.09625006
v -0.90600002 -0.00000000 1.09625006
v -0.91299999 -0.00000000 1.09625006
v -0.90617883 -0.00409632 1.09625006
v -0.91315222 -0.00348623 1.09625006
v -0.90671402 -0.00816146 1.09625006
v -0.91360772 -0.00694593 1.09625006
v -0.90760148 -0.01216449 1.09625006
v -0.91436297 -0.01035276 1.09625006
v -0.90883446 -0.01607495 1.09625006
v -0.91541231 -0.01368081 1.09625006
v -0.91040355 -0.01986306 1.09625006
v -0.91674769 -0.01690473 1.09625006
v -0.91229683 -0.02350000 1.09625006
v -0.91835898 -0.02000000 1.09625006
v -0.91449988 -0.02695809 1.09625006
v -0.92023391 -0.02294306 1.09625006
v -0.91699588 -0.03021102 1.09625006
v -0.92235821 -0.02571150 1.09625006
v -0.91976601 -0.03323402 1.09625006
v -0.92471576 -0.02828427 1.09625006
v -0.92278898 -0.03600409 1.09625006
v -0.92728847 -0.03064178 1.09625006
v -0.92604190 -0.03850015 1.09625006
v -0.93005693 -0.03276608 1.09625006
v -0.92949998 -0.04070319 1.09625006
v -0.93300003 -0.03464102 1.09625006
v -0.93313694 -0.04259647 1.09625006
v -0.93609530 -0.03625231 1.09625006
v -0.93692505 -0.04416555 1.09625006
v -0.93931919 -0.03758771 1.09625006
v -0.94083548 -0.04539851 1.09625006
v -0.94264722 -0.03863703 1.09625006
v -0.94483852 -0.04628596 1.09625006
v -0.94605410 -0.03939231 1.09625006
v -0.94890368 -0.04682115 1.09625006
v -0.94951379 -0.03984779 1.09625006
v -0.95300001 -0.04000000 1.09625006
v -1.90600002 -0.04700000 1.05812502
v -0.95300001 -0.04700000 1.05812502
v -0.95300001 0.04700000 1.05812502
v -0.94890368 0.04682115 1.05812502
v -0.94483852 0.04628596 1.05812502
v -0.94083548 0.04539851 1.05812502
v -0.93692505 0.04416555 1.05812502
v -0.93313694 0.04259647 1.05812502
v -0.92949998 0.04070319 1.05812502
v -0.92604190 0.03850015 1.05812502
v -0.92278898 0.03600409 1.05812502
v -0.91976601 0.03323402 1.05812502
v -0.91699588 0.03021102 1.05812502
v -0.91449988 0.02695809 1.05812502
v -0.91229683 0.02350000 1.05812502
v -0.91040355 0.01986306 1.05812502
v -0.90883446 0.01607495 1.05812502
v -0.90760148 0.01216449 1.05812502
v -0.90671402 0.00816146 1.05812502
v -0.90617883 0.00409632 1.05812502
v -0.90600002 -0.00000000 1.05812502
v -0.90617883 -0.00409632 1.05812502
v -0.90671402 -0.00816146 1.05812502
v -0.90760148 -0.01216449 1.05812502
v -0.90883446 -0.01607495 1.05812502
v -0.91040355 -0.01986306 1.05812502
v -0.91229683 -0.02350000 1.05812502
v -0.91449988 -0.02695809 1.05812502
v -0.91699588 -0.03021102 1.05812502
v -0.91976601 -0.03323402 1.05812502
v -0.92278898 -0.03600409 1.05812502
v -0.92604190 -0.03850015 1.05812502
v -0.92949998 -0.04070319 1.05812502
v -0.93313694 -0.04259647 1.05812502
v -0.93692505 -0.04416555 1.05812502
v -0.94083548 -0.04539851 1.05812502
v -0.94483852 -0.04628596 1.05812502
v -0.94890368 -0.04682115 1.05812502
v -1.91009629 -0.04682115 1.05812502
v -1.91416144 -0.04628596 1.05812502
v -1.91816449 -0.04539851 1.05812502
v -1.92207491 -0.04416555 1.05812502
v -1.92586303 -0.04259647 1.05812502
v -1.92949998 -0.04070319 1.05812502
v -1.93295813 -0.03850015 1.05812502
v -1.93621099 -0.03600409 1.05812502
v -1.93923402 -0.03323402 1.05812502
v -1.94200408 -0.03021102 1.05812502
v -1.94450009 -0.02695809 1.05812502
v -1.94670320 -0.02350000 1.05812502
v -1.94859648 -0.01986306 1.05812502
v -1.95016551 -0.01607495 1.05812502
v -1.95139849 -0.01216449 1.05812502
v -1.95228601 -0.00816146 1.05812502
v -1.95282114 -0.00409632 1.05812502
v -1.95299995 0.00000000 1.05812502
v -1.95282114 0.00409632 1.05812502
v -1.95228601 0.00816146 1.05812502
v -1.95139849 0.01216449 1.05812502
v -1.95016551 0.01607495 1.05812502
v -1.94859648 0.01986306 1.05812502
v -1.94670320 0.02350000 1.05812502
v -1.94450009 0.02695809 1.05812502
v -1.94200408 0.03021102 1.05812502
v -1.93923402 0.03323402 1.05812502
v -1.93621099 0.03600409 1.05812502
v -1.93295813 0.03850015 1.05812502
v -1.92949998 0.04070319 1.05812502
v -1.92586303 0.04259647 1.05812502
v -1.92207491 0.04416555 1.05812502
v -1.91816449 0.04539851 1.05812502
v -1.91416144 0.04628596 1.05812502
v -1.91009629 0.04682115 1.05812502
v -1.90600002 0.04700000 1.05812502
v -0.99284780 0.00348623 1.05812502
v -0.99299997 0.00000000 1.05812502
v -0.98576605 0.02294306 1.05812502
v -0.98764104 0.02000000 1.05812502
v -0.98925233 0.01690473 1.05812502
v -0.99058771 0.01368081 1.05812502
v -0.99163705 0.01035276 1.05812502
v -0.99239230 0.00694593 1.05812502
v -0.99284780 -0.00348623 1.05812502
v -0.99239230 -0.00694593 1.05812502
v -0.96335274 0.03863703 1.05812502
v -0.96668082 0.03758771 1.05812502
v -0.97594303 0.03276608 1.05812502
v -0.97871149 0.03064178 1.05812502
v -0.98128426 0.02828427 1.05812502
v -0.98364180 0.02571150 1.05812502
v -0.96990472 0.03625231 1.05812502
v -0.97299999 0.03464102 1.05812502
v -0.99163705 -0.01035276 1.05812502
v -0.99058771 -0.01368081 1.05812502
v -0.98925233 -0.01690473 1.05812502
v -0.98764104 -0.02000000 1.05812502
v -0.98576605 -0.02294306 1.05812502
v -0.98364180 -0.02571150 1.05812502
v -0.97594303 -0.03276608 1.05812502
v -0.97299999 -0.03464102 1.05812502
v -0.96990472 -0.03625231 1.05812502
v -0.96668082 -0.03758771 1.05812502
v -0.96335274 -0.03863703 1.05812502
v -0.95994592 -0.03939231 1.05812502
v -0.98128426 -0.02828427 1.05812502
v -0.97871149 -0.03064178 1.05812502
v -0.95648623 0.03984779 1.05812502
v -0.95994592 0.03939231 1.05812502
v -0.95648623 -0.03984779 1.05812502
v -0.95300001 -0.04000000 1.05812502
v -0.94951379 -0.03984779 1.05812502
v -0.94605410 -0.03939231 1.05812502
v -0.94264722 -0.03863703 1.05812502
v -0.93931919 -0.03758771 1.05812502
v -0.93609530 -0.03625231 1.05812502
v -0.93300003 -0.03464102 1.05812502
v -0.93005693 -0.03276608 1.05812502
v -0.92728847 -0.03064178 1.05812502
v -0.92471576 -0.02828427 1.05812502
v -0.92235821 -0.02571150 1.05812502
v -0.92023391 -0.02294306 1.05812502
v -0.91835898 -0.02000000 1.05812502
v -0.91674769 -0.01690473 1.05812502
v -0.91541231 -0.01368081 1.05812502
v -0.91436297 -0.01035276 1.05812502
v -0.91360772 -0.00694593 1.05812502
v -0.91315222 -0.00348623 1.05812502
v -0.91299999 -0.00000000 1.05812502
v -0.91315222 0.00348623 1.05812502
v -0.91360772 0.00694593 1.05812502
v -0.91436297 0.01035276 1.05812502
v -0.91541231 0.01368081 1.05812502
v -0.91674769 0.01690473 1.05812502
v -0.91835898 0.02000000 1.05812502
v -0.92023391 0.02294306 1.05812502
v -0.92235821 0.02571150 1.05812502
v -0.92471576 0.02828427 1.05812502
v -0.92728847 0.03064178 1.05812502
v -0.93005693 0.03276608 1.05812502
v -0.93300003 0.03464102 1.05812502
v -0.93609530 0.03625231 1.05812502
v -0.93931919 0.03758771 1.05812502
v -0.94264722 0.03863703 1.05812502
v -0.94605410 0.03939231 1.05812502
v -0.94951379 0.03984779 1.05812502
v -0.95300001 0.04000000 1.05812502
f 1 2 3
f 2 4 3
f 3 4 5
f 4 6 5
f 5 6 7
f 6 8 7
f 7 8 9
f 8 10 9
f 9 10 11
f 10 12 11
f 11 12 13
f 12 14 13
f 13 14 15
f 14 16 15
f 15 16 17
f 16 18 17
f 17 18 19
f 18 20 19
f 19 20 21
f 20 22 21
f 21 22 23
f 22 24 23
f 23 24 25
f 24 26 25
f 25 26 27
f 26 28 27
f 27 28 29
f 28 30 29
f 29 30 31
f 30 32 31
f 31 32 33
f 32 34 33
f 33 34 35
f 34 36 35
f 35 36 37
f 36 38 37
f 37 38 39
f 38 40 39
f 39 40 41
f 40 42 41
f 41 42 43
f 42 44 43
f 43 44 45
f 44 46 45
f 45 46 47
f 46 48 47
f 47 48 49
f 48 50 49
f 49 50 51
f 50 52 51
f 51 52 53
f 52 54 53
f 53 54 55
f 54 56 55
f 55 56 57
f 56 58 57
f 57 58 59
f 58 60 59
f 59 60 61
f 60 62 61
f 61 62 63
f 62 64 63
f 63 64 65
f 64 66 65
f 65 66 67
f 66 68 67
f 67 68 69
f 68 70 69
f 69 70 71
f 70 72 71
f 71 72 73
f 72 74 73
f 73 74 75
f 74 76 75
f 75 76 77
f 76 78 77
f 77 78 79
f 78 80 79
f 79 80 81
f 80 82 81
f 81 82 83
f 82 84 83
f 83 84 85
f 84 86 85
f 85 86 87
f 86 88 87
f 87 88 89
f 88 90 89
f 89 90 91
f 90 92 91
f 91 92 93
f 92 94 93
f 93 94 95
f 94 96 95
f 95 96 97
f 96 98 97
f 97 98 99
f 98 100 99
f 99 100 101
f 100 102 101
f 101 102 103
f 102 104 103
f 103 104 105
f 104 106 105
f 105 106 107
f 106 108 107
f 107 108 109
f 108 110 109
f 109 110 111
f 110 112 111
f 111 112 113
f 112 114 113
f 113 114 115
f 114 116 115
f 115 116 117
f 116 118 117
f 117 118 119
f 118 120 119
f 119 120 121
f 120 122 121
f 121 122 123
f 122 124 123
f 123 124 125
f 124 126 125
f 125 126 127
f 126 128 127
f 127 128 129
f 128 130 129
f 129 130 131
f 130 132 131
f 131 132 133
f 132 134 133
f 133 134 135
f 134 136 135
f 135 136 137
f 136 138 137
f 137 138 139
f 138 140 139
f 139 140 141
f 140 142 141
f 141 142 143
f 142 144 143
f 143 144 1
f 144 2 1
f 145 146 6
f 134 132 147
f 148 149 2
f 149 145 2
f 2 145 4
f 145 6 4
f 150 151 142
f 151 152 142
f 142 152 153
f 154 155 142
f 148 2 153
f 2 144 153
f 153 144 142
f 142 140 156
f 140 138 156
f 156 138 147
f 138 136 147
f 147 136 134
f 20 18 157
f 18 16 157
f 146 158 6
f 158 159 6
f 6 159 160
f 155 161 142
f 161 162 142
f 142 162 150
f 132 130 147
f 130 128 147
f 147 128 126
f 126 124 147
f 124 122 147
f 147 122 120
f 16 14 157
f 14 12 157
f 157 12 10
f 160 163 6
f 163 164 6
f 6 164 165
f 166 167 156
f 168 169 142
f 169 170 142
f 142 170 154
f 30 28 171
f 167 172 156
f 172 173 156
f 156 173 142
f 173 174 142
f 142 174 168
f 28 26 171
f 26 24 171
f 171 24 157
f 24 22 157
f 157 22 20
f 120 118 147
f 118 116 147
f 147 116 114
f 165 175 6
f 175 176 6
f 6 176 177
f 10 8 157
f 8 6 157
f 157 6 178
f 6 177 178
f 179 180 181
f 36 34 171
f 34 32 171
f 171 32 30
f 178 182 157
f 182 180 157
f 157 180 183
f 180 179 183
f 114 112 147
f 112 110 147
f 147 110 184
f 110 108 184
f 184 108 185
f 108 106 185
f 185 106 186
f 106 104 186
f 186 104 187
f 104 102 187
f 187 102 188
f 102 100 188
f 188 100 189
f 100 98 189
f 189 98 190
f 98 96 190
f 190 96 191
f 96 94 191
f 191 94 192
f 94 92 192
f 192 92 193
f 92 90 193
f 193 90 194
f 90 88 194
f 194 88 195
f 88 86 195
f 195 86 196
f 86 84 196
f 196 84 197
f 84 82 197
f 197 82 198
f 82 80 198
f 198 80 199
f 80 78 199
f 199 78 200
f 78 76 200
f 200 76 201
f 76 74 201
f 201 74 202
f 74 72 202
f 202 72 203
f 72 70 203
f 203 70 204
f 70 68 204
f 204 68 205
f 68 66 205
f 205 66 206
f 66 64 206
f 206 64 207
f 64 62 207
f 207 62 208
f 62 60 208
f 208 60 209
f 60 58 209
f 209 58 210
f 58 56 210
f 210 56 211
f 56 54 211
f 211 54 212
f 54 52 212
f 212 52 213
f 52 50 213
f 213 50 214
f 50 48 214
f 214 48 215
f 48 46 215
f 215 46 216
f 46 44 216
f 216 44 217
f 44 42 217
f 217 42 218
f 42 40 218
f 218 40 171
f 40 38 171
f 171 38 36
f 181 219 179
f 219 220 179
f 179 220 221
f 221 222 179
f 222 223 179
f 179 223 224
f 223 225 224
f 224 225 226
f 225 227 226
f 226 227 228
f 227 229 228
f 228 229 230
f 229 231 230
f 230 231 232
f 231 233 232
f 232 233 234
f 233 235 234
f 234 235 236
f 235 237 236
f 236 237 238
f 237 239 238
f 238 239 240
f 239 241 240
f 240 241 242
f 241 243 242
f 242 243 244
f 243 245 244
f 244 245 246
f 245 247 246
f 246 247 248
f 247 249 248
f 248 249 250
f 249 251 250
f 250 251 252
f 251 253 252
f 252 253 254
f 253 255 254
f 254 255 256
f 255 257 256
f 256 257 258
f 257 259 258
f 258 259 260
f 259 261 260
f 260 261 262
f 261 263 262
f 262 263 264
f 263 265 264
f 264 265 266
f 265 267 266
f 266 267 268
f 267 269 268
f 268 269 270
f 269 271 270
f 270 271 272
f 271 273 272
f 272 273 274
f 273 275 274
f 274 275 276
f 275 277 276
f 276 277 278
f 277 279 278
f 278 279 280
f 279 281 280
f 280 281 282
f 281 283 282
f 282 283 284
f 283 285 284
f 284 285 286
f 285 287 286
f 286 287 288
f 287 289 288
f 288 289 156
f 289 290 156
f 156 290 166
f 291 292 147
f 292 156 147
f 293 157 183
f 293 183 294
f 183 179 294
f 294 179 295
f 179 224 295
f 295 224 296
f 224 226 296
f 296 226 297
f 226 228 297
f 297 228 298
f 228 230 298
f 298 230 299
f 230 232 299
f 299 232 300
f 232 234 300
f 300 234 301
f 234 236 301
f 301 236 302
f 236 238 302
f 302 238 303
f 238 240 303
f 303 240 304
f 240 242 304
f 304 242 305
f 242 244 305
f 305 244 306
f 244 246 306
f 306 246 307
f 246 248 307
f 307 248 308
f 248 250 308
f 308 250 309
f 250 252 309
f 309 252 310
f 252 254 310
f 310 254 311
f 254 256 311
f 311 256 312
f 256 258 312
f 312 258 313
f 258 260 313
f 313 260 314
f 260 262 314
f 314 262 315
f 262 264 315
f 315 264 316
f 264 266 316
f 316 266 317
f 266 268 317
f 317 268 318
f 268 270 318
f 318 270 319
f 270 272 319
f 319 272 320
f 272 274 320
f 320 274 321
f 274 276 321
f 321 276 322
f 276 278 322
f 322 278 323
f 278 280 323
f 323 280 324
f 280 282 324
f 324 282 325
f 282 284 325
f 325 284 326
f 284 286 326
f 326 286 327
f 286 288 327
f 327 288 328
f 288 156 328
f 328 156 292
f 291 147 184
f 291 184 329
f 184 185 329
f 329 185 330
f 185 186 330
f 330 186 331
f 186 187 331
f 331 187 332
f 187 188 332
f 332 188 333
f 188 189 333
f 333 189 334
f 189 190 334
f 334 190 335
f 190 191 335
f 335 191 336
f 191 192 336
f 336 192 337
f 192 193 337
f 337 193 338
f 193 194 338
f 338 194 339
f 194 195 339
f 339 195 340
f 195 196 340
f 340 196 341
f 196 197 341
f 341 197 342
f 197 198 342
f 342 198 343
f 198 199 343
f 343 199 344
f 199 200 344
f 344 200 345
f 200 201 345
f 345 201 346
f 201 202 346
f 346 202 347
f 202 203 347
f 347 203 348
f 203 204 348
f 348 204 349
f 204 205 349
f 349 205 350
f 205 206 350
f 350 206 351
f 206 207 351
f 351 207 352
f 207 208 352
f 352 208 353
f 208 209 353
f 353 209 354
f 209 210 354
f 354 210 355
f 210 211 355
f 355 211 356
f 211 212 356
f 356 212 357
f 212 213 357
f 357 213 358
f 213 214 358
f 358 214 359
f 214 215 359
f 359 215 360
f 215 216 360
f 360 216 361
f 216 217 361
f 361 217 362
f 217 218 362
f 362 218 363
f 218 171 363
f 363 171 364
f 293 364 157
f 364 171 157
f 365 366 137
f 5 293 3
f 293 1 3
f 119 121 366
f 121 123 366
f 366 123 125
f 125 127 366
f 127 129 366
f 366 129 131
f 131 133 366
f 133 135 366
f 366 135 137
f 367 368 141
f 368 369 141
f 369 370 141
f 370 371 141
f 141 371 372
f 365 137 372
f 137 139 372
f 372 139 141
f 373 374 291
f 13 15 364
f 113 366 111
f 366 109 111
f 375 376 141
f 141 377 378
f 113 115 366
f 115 117 366
f 366 117 119
f 378 379 141
f 379 380 141
f 141 380 367
f 5 7 293
f 7 9 293
f 293 9 364
f 9 11 364
f 364 11 13
f 376 381 141
f 381 382 141
f 141 382 377
f 374 383 291
f 383 384 291
f 291 384 385
f 15 17 364
f 17 19 364
f 364 19 21
f 21 23 364
f 23 25 364
f 364 25 27
f 385 386 291
f 386 387 291
f 291 387 388
f 389 390 291
f 390 391 291
f 391 392 291
f 291 392 292
f 392 393 292
f 292 393 394
f 27 29 364
f 29 31 364
f 364 31 33
f 388 395 291
f 395 396 291
f 291 396 389
f 1 293 143
f 293 397 143
f 143 397 141
f 397 398 141
f 141 398 375
f 366 373 109
f 373 291 109
f 109 291 107
f 291 329 107
f 107 329 105
f 329 330 105
f 105 330 103
f 330 331 103
f 103 331 101
f 331 332 101
f 101 332 99
f 332 333 99
f 99 333 97
f 333 334 97
f 97 334 95
f 334 335 95
f 95 335 93
f 335 336 93
f 93 336 91
f 336 337 91
f 91 337 89
f 337 338 89
f 89 338 87
f 338 339 87
f 87 339 85
f 339 340 85
f 85 340 83
f 340 341 83
f 83 341 81
f 341 342 81
f 81 342 79
f 342 343 79
f 79 343 77
f 343 344 77
f 77 344 75
f 344 345 75
f 75 345 73
f 345 346 73
f 73 346 71
f 346 347 71
f 71 347 69
f 347 348 69
f 69 348 67
f 348 349 67
f 67 349 65
f 349 350 65
f 65 350 63
f 350 351 63
f 63 351 61
f 351 352 61
f 61 352 59
f 352 353 59
f 59 353 57
f 353 354 57
f 57 354 55
f 354 355 55
f 55 355 53
f 355 356 53
f 53 356 51
f 356 357 51
f 51 357 49
f 357 358 49
f 49 358 47
f 358 359 47
f 47 359 45
f 359 360 45
f 45 360 43
f 360 361 43
f 43 361 41
f 361 362 41
f 41 362 39
f 362 363 39
f 39 363 37
f 363 364 37
f 37 364 35
f 364 33 35
f 394 399 292
f 399 400 292
f 292 400 328
f 400 401 328
f 328 401 327
f 401 402 327
f 327 402 326
f 402 403 326
f 326 403 325
f 403 404 325
f 325 404 324
f 404 405 324
f 324 405 323
f 405 406 323
f 323 406 322
f 406 407 322
f 322 407 321
f 407 408 321
f 321 408 320
f 408 409 320
f 320 409 319
f 409 410 319
f 319 410 318
f 410 411 318
f 318 411 317
f 411 412 317
f 317 412 316
f 412 413 316
f 316 413 315
f 413 414 315
f 315 414 314
f 414 415 314
f 314 415 313
f 415 416 313
f 313 416 312
f 416 417 312
f 312 417 311
f 417 418 311
f 311 418 310
f 418 419 310
f 310 419 309
f 419 420 309
f 309 420 308
f 420 421 308
f 308 421 307
f 421 422 307
f 307 422 306
f 422 423 306
f 306 423 305
f 423 424 305
f 305 424 304
f 424 425 304
f 304 425 303
f 425 426 303
f 303 426 302
f 426 427 302
f 302 427 301
f 427 428 301
f 301 428 300
f 428 429 300
f 300 429 299
f 429 430 299
f 299 430 298
f 430 431 298
f 298 431 297
f 431 432 297
f 297 432 296
f 432 433 296
f 296 433 295
f 433 434 295
f 295 434 294
f 434 435 294
f 294 435 293
f 435 436 293
f 293 436 397
f 418 255 419
f 255 253 419
f 419 253 420
f 253 251 420
f 420 251 421
f 251 249 421
f 421 249 422
f 249 247 422
f 422 247 423
f 247 245 423
f 423 245 424
f 245 243 424
f 424 243 425
f 243 241 425
f 425 241 426
f 241 239 426
f 426 239 427
f 239 237 427
f 427 237 428
f 237 235 428
f 428 235 429
f 235 233 429
f 429 233 430
f 233 231 430
f 430 231 431
f 231 229 431
f 431 229 432
f 229 227 432
f 432 227 433
f 227 225 433
f 433 225 434
f 225 223 434
f 434 223 435
f 223 222 435
f 435 222 436
f 222 221 436
f 436 221 397
f 221 220 397
f 397 220 398
f 220 219 398
f 398 219 375
f 219 181 375
f 375 181 376
f 181 180 376
f 376 180 381
f 180 182 381
f 381 182 382
f 182 178 382
f 382 178 377
f 178 177 377
f 377 177 378
f 177 176 378
f 378 176 379
f 176 175 379
f 379 175 380
f 175 165 380
f 380 165 367
f 165 164 367
f 367 164 368
f 164 163 368
f 368 163 369
f 163 160 369
f 369 160 370
f 160 159 370
f 370 159 371
f 159 158 371
f 371 158 372
f 158 146 372
f 372 146 365
f 146 145 365
f 365 145 366
f 145 149 366
f 366 149 373
f 149 148 373
f 373 148 374
f 148 153 374
f 374 153 383
f 153 152 383
f 383 152 384
f 152 151 384
f 384 151 385
f 151 150 385
f 385 150 386
f 150 162 386
f 386 162 387
f 162 161 387
f 387 161 388
f 161 155 388
f 388 155 395
f 155 154 395
f 395 154 396
f 154 170 396
f 396 170 389
f 170 169 389
f 389 169 390
f 169 168 390
f 390 168 391
f 168 174 391
f 391 174 392
f 174 173 392
f 392 173 393
f 173 172 393
f 393 172 394
f 172 167 394
f 394 167 399
f 167 166 399
f 399 166 400
f 166 290 400
f 400 290 401
f 290 289 401
f 401 289 402
f 289 287 402
f 402 287 403
f 287 285 403
f 403 285 404
f 285 283 404
f 404 283 405
f 283 281 405
f 405 281 406
f 281 279 406
f 406 279 407
f 279 277 407
f 407 277 408
f 277 275 408
f 408 275 409
f 275 273 409
f 409 273 410
f 273 271 410
f 410 271 411
f 271 269 411
f 411 269 412
f 269 267 412
f 412 267 413
f 267 265 413
f 413 265 414
f 265 263 414
f 414 263 415
f 263 261 415
f 415 261 416
f 261 259 416
f 416 259 417
f 259 257 417
f 417 257 418
f 257 255 418

