# https://github.com/mikedh/trimesh
v -0.99239230 -0.00694593 1.09625006
v -0.99284780 -0.00348623 1.09625006
v -0.95300001 -0.00000000 1.09625006
v -0.99299997 0.00000000 1.09625006
v -0.99284780 0.00348623 1.09625006
v -0.98925233 -0.01690473 1.09625006
v -0.99058771 -0.01368081 1.09625006
v -0.99163705 -0.01035276 1.09625006
v -0.98364180 -0.02571150 1.09625006
v -0.98576605 -0.02294306 1.09625006
v -0.98764104 -0.02000000 1.09625006
v -0.97594303 -0.03276608 1.09625006
v -0.97871149 -0.03064178 1.09625006
v -0.98128426 -0.02828427 1.09625006
v -0.96668082 -0.03758771 1.09625006
v -0.96990472 -0.03625231 1.09625006
v -0.97299999 -0.03464102 1.09625006
v -0.95648623 -0.03984779 1.09625006
v -0.95994592 -0.03939231 1.09625006
v -0.96335274 -0.03863703 1.09625006
v -0.94605410 -0.03939231 1.09625006
v -0.94951379 -0.03984779 1.09625006
v -0.95300001 -0.04000000 1.09625006
v -0.93609530 -0.03625231 1.09625006
v -0.93931919 -0.03758771 1.09625006
v -0.94264722 -0.03863703 1.09625006
v -0.92728847 -0.03064178 1.09625006
v -0.93005693 -0.03276608 1.09625006
v -0.93300003 -0.03464102 1.09625006
v -0.92023391 -0.02294306 1.09625006
v -0.92235821 -0.02571150 1.09625006
v -0.92471576 -0.02828427 1.09625006
v -0.91541231 -0.01368081 1.09625006
v -0.91674769 -0.01690473 1.09625006
v -0.91835898 -0.02000000 1.09625006
v -0.91315222 -0.00348623 1.09625006
v -0.91360772 -0.00694593 1.09625006
v -0.91436297 -0.01035276 1.09625006
v -0.91360772 0.00694593 1.09625006
v -0.91315222 0.00348623 1.09625006
v -0.91299999 -0.00000000 1.09625006
v -0.91674769 0.01690473 1.09625006
v -0.91541231 0.01368081 1.09625006
v -0.91436297 0.01035276 1.09625006
v -0.92235821 0.02571150 1.09625006
v -0.92023391 0.02294306 1.09625006
v -0.91835898 0.02000000 1.09625006
v -0.93005693 0.03276608 1.09625006
v -0.92728847 0.03064178 1.09625006
v -0.92471576 0.02828427 1.09625006
v -0.93931919 0.03758771 1.09625006
v -0.93609530 0.03625231 1.09625006
v -0.93300003 0.03464102 1.09625006
v -0.94951379 0.03984779 1.09625006
v -0.94605410 0.03939231 1.09625006
v -0.94264722 0.03863703 1.09625006
v -0.95994592 0.03939231 1.09625006
v -0.95648623 0.03984779 1.09625006
v -0.95300001 0.04000000 1.09625006
v -0.96990472 0.03625231 1.09625006
v -0.96668082 0.03758771 1.09625006
v -0.96335274 0.03863703 1.09625006
v -0.97871149 0.03064178 1.09625006
v -0.97594303 0.03276608 1.09625006
v -0.97299999 0.03464102 1.09625006
v -0.98576605 0.02294306 1.09625006
v -0.98364180 0.02571150 1.09625006
v -0.98128426 0.02828427 1.09625006
v -0.99058771 0.01368081 1.09625006
v -0.98925233 0.01690473 1.09625006
v -0.98764104 0.02000000 1.09625006
v -0.99239230 0.00694593 1.09625006
v -0.99163705 0.01035276 1.09625006
v -0.91299999 -0.00000000 1.17624998
v -0.91315222 0.00348623 1.17624998
v -0.91360772 0.00694593 1.17624998
v -0.91436297 0.01035276 1.17624998
v -0.91541231 0.01368081 1.17624998
v -0.91674769 0.01690473 1.17624998
v -0.91835898 0.02000000 1.17624998
v -0.92023391 0.02294306 1.17624998
v -0.92235821 0.02571150 1.17624998
v -0.92471576 0.02828427 1.17624998
v -0.92728847 0.03064178 1.17624998
v -0.93005693 0.03276608 1.17624998
v -0.93300003 0.03464102 1.17624998
v -0.93609530 0.03625231 1.17624998
v -0.93931919 0.03758771 1.17624998
v -0.94264722 0.03863703 1.17624998
v -0.94605410 0.03939231 1.17624998
v -0.94951379 0.03984779 1.17624998
v -0.95300001 0.04000000 1.17624998
v -0.95648623 0.03984779 1.17624998
v -0.95994592 0.03939231 1.17624998
v -0.96335274 0.03863703 1.17624998
v -0.96668082 0.03758771 1.17624998
v -0.96990472 0.03625231 1.17624998
v -0.97299999 0.03464102 1.17624998
v -0.97594303 0.03276608 1.17624998
v -0.97871149 0.03064178 1.17624998
v -0.98128426 0.02828427 1.17624998
v -0.98364180 0.02571150 1.17624998
v -0.98576605 0.02294306 1.17624998
v -0.98764104 0.02000000 1.17624998
v -0.98925233 0.01690473 1.17624998
v -0.99058771 0.01368081 1.17624998
v -0.99163705 0.01035276 1.17624998
v -0.99239230 0.00694593 1.17624998
v -0.99284780 0.00348623 1.17624998
v -0.99299997 0.00000000 1.17624998
v -0.99284780 -0.00348623 1.17624998
v -0.99239230 -0.00694593 1.17624998
v -0.99163705 -0.01035276 1.17624998
v -0.99058771 -0.01368081 1.17624998
v -0.98925233 -0.01690473 1.17624998
v -0.98764104 -0.02000000 1.17624998
v -0.98576605 -0.02294306 1.17624998
v -0.98364180 -0.02571150 1.17624998
v -0.98128426 -0.02828427 1.17624998
v -0.97871149 -0.03064178 1.17624998
v -0.97594303 -0.03276608 1.17624998
v -0.97299999 -0.03464102 1.17624998
v -0.96990472 -0.03625231 1.17624998
v -0.96668082 -0.03758771 1.17624998
v -0.96335274 -0.03863703 1.17624998
v -0.95994592 -0.03939231 1.17624998
v -0.95648623 -0.03984779 1.17624998
v -0.95300001 -0.04000000 1.17624998
v -0.94951379 -0.03984779 1.17624998
v -0.94605410 -0.03939231 1.17624998
v -0.94264722 -0.03863703 1.17624998
v -0.93931919 -0.03758771 1.17624998
v -0.93609530 -0.03625231 1.17624998
v -0.93300003 -0.03464102 1.17624998
v -0.93005693 -0.03276608 1.17624998
v -0.92728847 -0.03064178 1.17624998
v -0.92471576 -0.02828427 1.17624998
v -0.92235821 -0.02571150 1.17624998
v -0.92023391 -0.02294306 1.17624998
v -0.91835898 -0.02000000 1.17624998
v -0.91674769 -0.01690473 1.17624998
v -0.91541231 -0.01368081 1.17624998
v -0.91436297 -0.01035276 1.17624998
v -0.91360772 -0.00694593 1.17624998
v -0.91315222 -0.00348623 1.17624998
v -0.03064178 0.02571150 1.17624998
v -0.03276608 0.02294306 1.17624998
v -0.01035276 0.03863703 1.17624998
v -0.01368081 0.03758771 1.17624998
v -0.02294306 0.03276608 1.17624998
v -0.02571150 0.03064178 1.17624998
v -0.02828427 0.02828427 1.17624998
v -0.03464102 0.02000000 1.17624998
v -0.03625231 0.01690473 1.17624998
v -0.03758771 0.01368081 1.17624998
v -0.03863703 0.01035276 1.17624998
v -0.03939231 0.00694593 1.17624998
v -0.03984779 0.00348623 1.17624998
v -0.04000000 0.00000000 1.17624998
v -0.00348623 0.03984779 1.17624998
v -0.00694593 0.03939231 1.17624998
v -0.01690473 0.03625231 1.17624998
v -0.02000000 0.03464102 1.17624998
v 0.00000000 0.04700000 1.17624998
v -0.03939231 -0.00694593 1.17624998
v -0.03863703 -0.01035276 1.17624998
v -0.95300001 -0.04700000 1.17624998
v -0.03758771 -0.01368081 1.17624998
v -0.03625231 -0.01690473 1.17624998
v -0.03464102 -0.02000000 1.17624998
v -0.03276608 -0.02294306 1.17624998
v -0.03064178 -0.02571150 1.17624998
v -0.02828427 -0.02828427 1.17624998
v -0.02571150 -0.03064178 1.17624998
v -0.02294306 -0.03276608 1.17624998
v -0.02000000 -0.03464102 1.17624998
v 0.00000000 -0.04700000 1.17624998
v -0.01690473 -0.03625231 1.17624998
v -0.01368081 -0.03758771 1.17624998
v -0.01035276 -0.03863703 1.17624998
v -0.00694593 -0.03939231 1.17624998
v -0.03984779 -0.00348623 1.17624998
v -0.00348623 -0.03984779 1.17624998
v 0.00000000 -0.04000000 1.17624998
v 0.00409632 -0.04682115 1.17624998
v 0.00348623 -0.03984779 1.17624998
v 0.00816146 -0.04628596 1.17624998
v 0.00694593 -0.03939231 1.17624998
v 0.01216449 -0.04539851 1.17624998
v 0.01035276 -0.03863703 1.17624998
v 0.01607495 -0.04416555 1.17624998
v 0.01368081 -0.03758771 1.17624998
v 0.01986306 -0.04259647 1.17624998
v 0.01690473 -0.03625231 1.17624998
v 0.02350000 -0.04070319 1.17624998
v 0.02000000 -0.03464102 1.17624998
v 0.02695809 -0.03850015 1.17624998
v 0.02294306 -0.03276608 1.17624998
v 0.03021102 -0.03600409 1.17624998
v 0.02571150 -0.03064178 1.17624998
v 0.03323402 -0.03323402 1.17624998
v 0.02828427 -0.02828427 1.17624998
v 0.03600409 -0.03021102 1.17624998
v 0.03064178 -0.02571150 1.17624998
v 0.03850015 -0.02695809 1.17624998
v 0.03276608 -0.02294306 1.17624998
v 0.04070319 -0.02350000 1.17624998
v 0.03464102 -0.02000000 1.17624998
v 0.04259647 -0.01986306 1.17624998
v 0.03625231 -0.01690473 1.17624998
v 0.04416555 -0.01607495 1.17624998
v 0.03758771 -0.01368081 1.17624998
v 0.04539851 -0.01216449 1.17624998
v 0.03863703 -0.01035276 1.17624998
v 0.04628596 -0.00816146 1.17624998
v 0.03939231 -0.00694593 1.17624998
v 0.04682115 -0.00409632 1.17624998
v 0.03984779 -0.00348623 1.17624998
v 0.04700000 0.00000000 1.17624998
v 0.04000000 0.00000000 1.17624998
v 0.04682115 0.00409632 1.17624998
v 0.03984779 0.00348623 1.17624998
v 0.04628596 0.00816146 1.17624998
v 0.03939231 0.00694593 1.17624998
v 0.04539851 0.01216449 1.17624998
v 0.03863703 0.01035276 1.17624998
v 0.04416555 0.01607495 1.17624998
v 0.03758771 0.01368081 1.17624998
v 0.04259647 0.01986306 1.17624998
v 0.03625231 0.01690473 1.17624998
v 0.04070319 0.02350000 1.17624998
v 0.03464102 0.02000000 1.17624998
v 0.03850015 0.02695809 1.17624998
v 0.03276608 0.02294306 1.17624998
v 0.03600409 0.03021102 1.17624998
v 0.03064178 0.02571150 1.17624998
v 0.03323402 0.03323402 1.17624998
v 0.02828427 0.02828427 1.17624998
v 0.03021102 0.03600409 1.17624998
v 0.02571150 0.03064178 1.17624998
v 0.02695809 0.03850015 1.17624998
v 0.02294306 0.03276608 1.17624998
v 0.02350000 0.04070319 1.17624998
v 0.02000000 0.03464102 1.17624998
v 0.01986306 0.04259647 1.17624998
v 0.01690473 0.03625231 1.17624998
v 0.01607495 0.04416555 1.17624998
v 0.01368081 0.03758771 1.17624998
v 0.01216449 0.04539851 1.17624998
v 0.01035276 0.03863703 1.17624998
v 0.00816146 0.04628596 1.17624998
v 0.00694593 0.03939231 1.17624998
v 0.00409632 0.04682115 1.17624998
v 0.00348623 0.03984779 1.17624998
v -0.00000000 0.04000000 1.17624998
v -0.95300001 0.04700000 1.17624998
v -0.95709634 0.04682115 1.17624998
v -0.96116143 0.04628596 1.17624998
v -0.96516448 0.04539851 1.17624998
v -0.96907496 0.04416555 1.17624998
v -0.97286308 0.04259647 1.17624998
v -0.97649997 0.04070319 1.17624998
v -0.97995812 0.03850015 1.17624998
v -0.98321104 0.03600409 1.17624998
v -0.98623401 0.03323402 1.17624998
v -0.98900408 0.03021102 1.17624998
v -0.99150014 0.02695809 1.17624998
v -0.99370319 0.02350000 1.17624998
v -0.99559647 0.01986306 1.17624998
v -0.99716556 0.01607495 1.17624998
v -0.99839854 0.01216449 1.17624998
v -0.99928594 0.00816146 1.17624998
v -0.99982113 0.00409632 1.17624998
v -1.00000000 -0.00000000 1.17624998
v -0.99982113 -0.00409632 1.17624998
v -0.99928594 -0.00816146 1.17624998
v -0.99839854 -0.01216449 1.17624998
v -0.99716556 -0.01607495 1.17624998
v -0.99559647 -0.01986306 1.17624998
v -0.99370319 -0.02350000 1.17624998
v -0.99150014 -0.02695809 1.17624998
v -0.98900408 -0.03021102 1.17624998
v -0.98623401 -0.03323402 1.17624998
v -0.98321104 -0.03600409 1.17624998
v -0.97995812 -0.03850015 1.17624998
v -0.97649997 -0.04070319 1.17624998
v -0.97286308 -0.04259647 1.17624998
v -0.96907496 -0.04416555 1.17624998
v -0.96516448 -0.04539851 1.17624998
v -0.96116143 -0.04628596 1.17624998
v -0.95709634 -0.04682115 1.17624998
v -0.95300001 0.04700000 1.21437502
v 0.00000000 0.04700000 1.21437502
v 0.00000000 -0.04700000 1.21437502
v 0.00409632 -0.04682115 1.21437502
v 0.00816146 -0.04628596 1.21437502
v 0.01216449 -0.04539851 1.21437502
v 0.01607495 -0.04416555 1.21437502
v 0.01986306 -0.04259647 1.21437502
v 0.02350000 -0.04070319 1.21437502
v 0.02695809 -0.03850015 1.21437502
v 0.03021102 -0.03600409 1.21437502
v 0.03323402 -0.03323402 1.21437502
v 0.03600409 -0.03021102 1.21437502
v 0.03850015 -0.02695809 1.21437502
v 0.04070319 -0.02350000 1.21437502
v 0.04259647 -0.01986306 1.21437502
v 0.04416555 -0.01607495 1.21437502
v 0.04539851 -0.01216449 1.21437502
v 0.04628596 -0.00816146 1.21437502
v 0.04682115 -0.00409632 1.21437502
v 0.04700000 0.00000000 1.21437502
v 0.04682115 0.00409632 1.21437502
v 0.04628596 0.00816146 1.21437502
v 0.04539851 0.01216449 1.21437502
v 0.04416555 0.01607495 1.21437502
v 0.04259647 0.01986306 1.21437502
v 0.04070319 0.02350000 1.21437502
v 0.03850015 0.02695809 1.21437502
v 0.03600409 0.03021102 1.21437502
v 0.03323402 0.03323402 1.21437502
v 0.03021102 0.03600409 1.21437502
v 0.02695809 0.03850015 1.21437502
v 0.02350000 0.04070319 1.21437502
v 0.01986306 0.04259647 1.21437502
v 0.01607495 0.04416555 1.21437502
v 0.01216449 0.04539851 1.21437502
v 0.00816146 0.04628596 1.21437502
v 0.00409632 0.04682115 1.21437502
v -0.95709634 0.04682115 1.21437502
v -0.96116143 0.04628596 1.21437502
v -0.96516448 0.04539851 1.21437502
v -0.96907496 0.04416555 1.21437502
v -0.97286308 0.04259647 1.21437502
v -0.97649997 0.04070319 1.21437502
v -0.97995812 0.03850015 1.21437502
v -0.98321104 0.03600409 1.21437502
v -0.98623401 0.03323402 1.21437502
v -0.98900408 0.03021102 1.21437502
v -0.99150014 0.02695809 1.21437502
v -0.99370319 0.02350000 1.21437502
v -0.99559647 0.01986306 1.21437502
v -0.99716556 0.01607495 1.21437502
v -0.99839854 0.01216449 1.21437502
v -0.99928594 0.00816146 1.21437502
v -0.99982113 0.00409632 1.21437502
v -1.00000000 -0.00000000 1.21437502
v -0.99982113 -0.00409632 1.21437502
v -0.99928594 -0.00816146 1.21437502
v -0.99839854 -0.01216449 1.21437502
v -0.99716556 -0.01607495 1.21437502
v -0.99559647 -0.01986306 1.21437502
v -0.99370319 -0.02350000 1.21437502
v -0.99150014 -0.02695809 1.21437502
v -0.98900408 -0.03021102 1.21437502
v -0.98623401 -0.03323402 1.21437502
v -0.98321104 -0.03600409 1.21437502
v -0.97995812 -0.03850015 1.21437502
v -0.97649997 -0.04070319 1.21437502
v -0.97286308 -0.04259647 1.21437502
v -0.96907496 -0.04416555 1.21437502
v -0.96516448 -0.04539851 1.21437502
v -0.96116143 -0.04628596 1.21437502
v -0.95709634 -0.04682115 1.21437502
v -0.95300001 -0.04700000 1.21437502
v -0.04000000 0.00000000 1.21437502
v -0.03984779 0.00348623 1.21437502
v -0.03939231 0.00694593 1.21437502
v -0.03863703 0.01035276 1.21437502
v -0.03758771 0.01368081 1.21437502
v -0.03625231 0.01690473 1.21437502
v -0.03464102 0.02000000 1.21437502
v -0.03276608 0.02294306 1.21437502
v -0.03064178 0.02571150 1.21437502
v -0.02828427 0.02828427 1.21437502
v -0.02571150 0.03064178 1.21437502
v -0.02294306 0.03276608 1.21437502
v -0.02000000 0.03464102 1.21437502
v -0.01690473 0.03625231 1.21437502
v -0.01368081 0.03758771 1.21437502
v -0.01035276 0.03863703 1.21437502
v -0.00694593 0.03939231 1.21437502
v -0.00348623 0.03984779 1.21437502
v -0.00000000 0.04000000 1.21437502
v 0.00348623 0.03984779 1.21437502
v 0.00694593 0.03939231 1.21437502
v 0.01035276 0.03863703 1.21437502
v 0.01368081 0.03758771 1.21437502
v 0.01690473 0.03625231 1.21437502
v 0.02000000 0.03464102 1.21437502
v 0.02294306 0.03276608 1.21437502
v 0.02571150 0.03064178 1.21437502
v 0.02828427 0.02828427 1.21437502
v 0.03064178 0.02571150 1.21437502
v 0.03276608 0.02294306 1.21437502
v 0.03464102 0.02000000 1.21437502
v 0.03625231 0.01690473 1.21437502
v 0.03758771 0.01368081 1.21437502
v 0.03863703 0.01035276 1.21437502
v 0.03939231 0.00694593 1.21437502
v 0.03984779 0.00348623 1.21437502
v 0.04000000 0.00000000 1.21437502
v 0.03984779 -0.00348623 1.21437502
v 0.03939231 -0.00694593 1.21437502
v 0.03863703 -0.01035276 1.21437502
v 0.03758771 -0.01368081 1.21437502
v 0.03625231 -0.01690473 1.21437502
v 0.03464102 -0.02000000 1.21437502
v 0.03276608 -0.02294306 1.21437502
v 0.03064178 -0.02571150 1.21437502
v 0.02828427 -0.02828427 1.21437502
v 0.02571150 -0.03064178 1.21437502
v 0.02294306 -0.03276608 1.21437502
v 0.02000000 -0.03464102 1.21437502
v 0.01690473 -0.03625231 1.21437502
v 0.01368081 -0.03758771 1.21437502
v 0.01035276 -0.03863703 1.21437502
v 0.00694593 -0.03939231 1.21437502
v 0.00348623 -0.03984779 1.21437502
v 0.00000000 -0.04000000 1.21437502
v -0.00348623 -0.03984779 1.21437502
v -0.00694593 -0.03939231 1.21437502
v -0.01035276 -0.03863703 1.21437502
v -0.01368081 -0.03758771 1.21437502
v -0.01690473 -0.03625231 1.21437502
v -0.02000000 -0.03464102 1.21437502
v -0.02294306 -0.03276608 1.21437502
v -0.02571150 -0.03064178 1.21437502
v -0.02828427 -0.02828427 1.21437502
v -0.03064178 -0.02571150 1.21437502
v -0.03276608 -0.02294306 1.21437502
v -0.03464102 -0.02000000 1.21437502
v -0.03625231 -0.01690473 1.21437502
v -0.03758771 -0.01368081 1.21437502
v -0.03863703 -0.01035276 1.21437502
v -0.03939231 -0.00694593 1.21437502
v -0.03984779 -0.00348623 1.21437502
f 1 2 3
f 2 4 3
f 3 4 5
f 6 7 3
f 7 8 3
f 3 8 1
f 9 10 3
f 10 11 3
f 3 11 6
f 12 13 3
f 13 14 3
f 3 14 9
f 15 16 3
f 16 17 3
f 3 17 12
f 18 19 3
f 19 20 3
f 3 20 15
f 21 22 3
f 22 23 3
f 3 23 18
f 24 25 3
f 25 26 3
f 3 26 21
f 27 28 3
f 28 29 3
f 3 29 24
f 30 31 3
f 31 32 3
f 3 32 27
f 33 34 3
f 34 35 3
f 3 35 30
f 36 37 3
f 37 38 3
f 3 38 33
f 39 40 3
f 40 41 3
f 3 41 36
f 42 43 3
f 43 44 3
f 3 44 39
f 45 46 3
f 46 47 3
f 3 47 42
f 48 49 3
f 49 50 3
f 3 50 45
f 51 52 3
f 52 53 3
f 3 53 48
f 54 55 3
f 55 56 3
f 3 56 51
f 57 58 3
f 58 59 3
f 3 59 54
f 60 61 3
f 61 62 3
f 3 62 57
f 63 64 3
f 64 65 3
f 3 65 60
f 66 67 3
f 67 68 3
f 3 68 63
f 69 70 3
f 70 71 3
f 3 71 66
f 5 72 3
f 72 73 3
f 3 73 69
f 74 40 75
f 40 39 75
f 75 39 76
f 39 44 76
f 76 44 77
f 44 43 77
f 77 43 78
f 43 42 78
f 78 42 79
f 42 47 79
f 79 47 80
f 47 46 80
f 80 46 81
f 46 45 81
f 81 45 82
f 45 50 82
f 82 50 83
f 50 49 83
f 83 49 84
f 49 48 84
f 84 48 85
f 48 53 85
f 85 53 86
f 53 52 86
f 86 52 87
f 52 51 87
f 87 51 88
f 51 56 88
f 88 56 89
f 56 55 89
f 89 55 90
f 55 54 90
f 90 54 91
f 54 59 91
f 91 59 92
f 59 58 92
f 92 58 93
f 58 57 93
f 93 57 94
f 57 62 94
f 94 62 95
f 62 61 95
f 95 61 96
f 61 60 96
f 96 60 97
f 60 65 97
f 97 65 98
f 65 64 98
f 98 64 99
f 64 63 99
f 99 63 100
f 63 68 100
f 100 68 101
f 68 67 101
f 101 67 102
f 67 66 102
f 102 66 103
f 66 71 103
f 103 71 104
f 71 70 104
f 104 70 105
f 70 69 105
f 105 69 106
f 69 73 106
f 106 73 107
f 73 72 107
f 107 72 108
f 72 5 108
f 108 5 109
f 5 4 109
f 109 4 110
f 4 2 110
f 110 2 111
f 2 1 111
f 111 1 112
f 1 8 112
f 112 8 113
f 8 7 113
f 113 7 114
f 7 6 114
f 114 6 115
f 6 11 115
f 115 11 116
f 11 10 116
f 116 10 117
f 10 9 117
f 117 9 118
f 9 14 118
f 118 14 119
f 14 13 119
f 119 13 120
f 13 12 120
f 120 12 121
f 12 17 121
f 121 17 122
f 17 16 122
f 122 16 123
f 16 15 123
f 123 15 124
f 15 20 124
f 124 20 125
f 20 19 125
f 125 19 126
f 19 18 126
f 126 18 127
f 18 23 127
f 127 23 128
f 23 22 128
f 128 22 129
f 22 21 129
f 129 21 130
f 21 26 130
f 130 26 131
f 26 25 131
f 131 25 132
f 25 24 132
f 132 24 133
f 24 29 133
f 133 29 134
f 29 28 134
f 134 28 135
f 28 27 135
f 135 27 136
f 27 32 136
f 136 32 137
f 32 31 137
f 137 31 138
f 31 30 138
f 138 30 139
f 30 35 139
f 139 35 140
f 35 34 140
f 140 34 141
f 34 33 141
f 141 33 142
f 33 38 142
f 142 38 143
f 38 37 143
f 143 37 144
f 37 36 144
f 144 36 145
f 36 41 145
f 145 41 74
f 41 40 74
f 146 147 139
f 148 149 139
f 150 151 139
f 151 152 139
f 139 152 146
f 147 153 139
f 153 154 139
f 139 154 155
f 155 156 139
f 156 157 139
f 139 157 158
f 135 136 159
f 136 137 159
f 159 137 158
f 137 138 158
f 158 138 139
f 140 141 160
f 141 142 160
f 142 143 160
f 143 144 160
f 160 144 145
f 140 160 139
f 160 161 139
f 139 161 148
f 149 162 139
f 162 163 139
f 139 163 150
f 131 132 159
f 132 133 159
f 133 134 159
f 159 134 135
f 77 78 164
f 78 79 164
f 79 80 164
f 164 80 81
f 165 166 167
f 166 168 167
f 168 169 167
f 169 170 167
f 167 170 171
f 171 172 167
f 172 173 167
f 167 173 174
f 81 82 164
f 82 83 164
f 164 83 84
f 174 175 167
f 175 176 167
f 167 176 177
f 176 178 177
f 178 179 177
f 179 180 177
f 177 180 181
f 145 74 160
f 74 75 160
f 160 75 164
f 75 76 164
f 164 76 77
f 165 167 182
f 167 129 182
f 182 129 159
f 129 130 159
f 159 130 131
f 181 183 177
f 183 184 177
f 177 184 185
f 184 186 185
f 185 186 187
f 186 188 187
f 187 188 189
f 188 190 189
f 189 190 191
f 190 192 191
f 191 192 193
f 192 194 193
f 193 194 195
f 194 196 195
f 195 196 197
f 196 198 197
f 197 198 199
f 198 200 199
f 199 200 201
f 200 202 201
f 201 202 203
f 202 204 203
f 203 204 205
f 204 206 205
f 205 206 207
f 206 208 207
f 207 208 209
f 208 210 209
f 209 210 211
f 210 212 211
f 211 212 213
f 212 214 213
f 213 214 215
f 214 216 215
f 215 216 217
f 216 218 217
f 217 218 219
f 218 220 219
f 219 220 221
f 220 222 221
f 221 222 223
f 222 224 223
f 223 224 225
f 224 226 225
f 225 226 227
f 226 228 227
f 227 228 229
f 228 230 229
f 229 230 231
f 230 232 231
f 231 232 233
f 232 234 233
f 233 234 235
f 234 236 235
f 235 236 237
f 236 238 237
f 237 238 239
f 238 240 239
f 239 240 241
f 240 242 241
f 241 242 243
f 242 244 243
f 243 244 245
f 244 246 245
f 245 246 247
f 246 248 247
f 247 248 249
f 248 250 249
f 249 250 251
f 250 252 251
f 251 252 253
f 252 254 253
f 253 254 164
f 254 255 164
f 164 255 160
f 84 85 164
f 85 86 164
f 164 86 256
f 86 87 256
f 256 87 257
f 87 88 257
f 88 89 257
f 89 90 257
f 257 90 91
f 91 92 257
f 92 93 257
f 257 93 258
f 93 94 258
f 258 94 259
f 94 95 259
f 259 95 260
f 95 96 260
f 260 96 261
f 96 97 261
f 261 97 262
f 97 98 262
f 262 98 263
f 98 99 263
f 263 99 264
f 99 100 264
f 264 100 265
f 100 101 265
f 265 101 266
f 101 102 266
f 266 102 267
f 102 103 267
f 267 103 268
f 103 104 268
f 268 104 269
f 104 105 269
f 269 105 270
f 105 106 270
f 270 106 271
f 106 107 271
f 271 107 272
f 107 108 272
f 272 108 273
f 108 109 273
f 273 109 274
f 109 110 274
f 274 110 275
f 110 111 275
f 275 111 276
f 111 112 276
f 276 112 277
f 112 113 277
f 277 113 278
f 113 114 278
f 278 114 279
f 114 115 279
f 279 115 280
f 115 116 280
f 280 116 281
f 116 117 281
f 281 117 282
f 117 118 282
f 282 118 283
f 118 119 283
f 283 119 284
f 119 120 284
f 284 120 285
f 120 121 285
f 285 121 286
f 121 122 286
f 286 122 287
f 122 123 287
f 287 123 288
f 123 124 288
f 288 124 289
f 124 125 289
f 289 125 290
f 125 126 290
f 290 126 291
f 126 127 291
f 291 127 167
f 127 128 167
f 167 128 129
f 292 293 256
f 293 164 256
f 294 177 185
f 294 185 295
f 185 187 295
f 295 187 296
f 187 189 296
f 296 189 297
f 189 191 297
f 297 191 298
f 191 193 298
f 298 193 299
f 193 195 299
f 299 195 300
f 195 197 300
f 300 197 301
f 197 199 301
f 301 199 302
f 199 201 302
f 302 201 303
f 201 203 303
f 303 203 304
f 203 205 304
f 304 205 305
f 205 207 305
f 305 207 306
f 207 209 306
f 306 209 307
f 209 211 307
f 307 211 308
f 211 213 308
f 308 213 309
f 213 215 309
f 309 215 310
f 215 217 310
f 310 217 311
f 217 219 311
f 311 219 312
f 219 221 312
f 312 221 313
f 221 223 313
f 313 223 314
f 223 225 314
f 314 225 315
f 225 227 315
f 315 227 316
f 227 229 316
f 316 229 317
f 229 231 317
f 317 231 318
f 231 233 318
f 318 233 319
f 233 235 319
f 319 235 320
f 235 237 320
f 320 237 321
f 237 239 321
f 321 239 322
f 239 241 322
f 322 241 323
f 241 243 323
f 323 243 324
f 243 245 324
f 324 245 325
f 245 247 325
f 325 247 326
f 247 249 326
f 326 249 327
f 249 251 327
f 327 251 328
f 251 253 328
f 328 253 329
f 253 164 329
f 329 164 293
f 292 256 257
f 292 257 330
f 257 258 330
f 330 258 331
f 258 259 331
f 331 259 332
f 259 260 332
f 332 260 333
f 260 261 333
f 333 261 334
f 261 262 334
f 334 262 335
f 262 263 335
f 335 263 336
f 263 264 336
f 336 264 337
f 264 265 337
f 337 265 338
f 265 266 338
f 338 266 339
f 266 267 339
f 339 267 340
f 267 268 340
f 340 268 341
f 268 269 341
f 341 269 342
f 269 270 342
f 342 270 343
f 270 271 343
f 343 271 344
f 271 272 344
f 344 272 345
f 272 273 345
f 345 273 346
f 273 274 346
f 346 274 347
f 274 275 347
f 347 275 348
f 275 276 348
f 348 276 349
f 276 277 349
f 349 277 350
f 277 278 350
f 350 278 351
f 278 279 351
f 351 279 352
f 279 280 352
f 352 280 353
f 280 281 353
f 353 281 354
f 281 282 354
f 354 282 355
f 282 283 355
f 355 283 356
f 283 284 356
f 356 284 357
f 284 285 357
f 357 285 358
f 285 286 358
f 358 286 359
f 286 287 359
f 359 287 360
f 287 288 360
f 360 288 361
f 288 289 361
f 361 289 362
f 289 290 362
f 362 290 363
f 290 291 363
f 363 291 364
f 291 167 364
f 364 167 365
f 294 365 177
f 365 167 177
f 366 159 367
f 159 158 367
f 367 158 368
f 158 157 368
f 368 157 369
f 157 156 369
f 369 156 370
f 156 155 370
f 370 155 371
f 155 154 371
f 371 154 372
f 154 153 372
f 372 153 373
f 153 147 373
f 373 147 374
f 147 146 374
f 374 146 375
f 146 152 375
f 375 152 376
f 152 151 376
f 376 151 377
f 151 150 377
f 377 150 378
f 150 163 378
f 378 163 379
f 163 162 379
f 379 162 380
f 162 149 380
f 380 149 381
f 149 148 381
f 381 148 382
f 148 161 382
f 382 161 383
f 161 160 383
f 383 160 384
f 160 255 384
f 384 255 385
f 255 254 385
f 385 254 386
f 254 252 386
f 386 252 387
f 252 250 387
f 387 250 388
f 250 248 388
f 388 248 389
f 248 246 389
f 389 246 390
f 246 244 390
f 390 244 391
f 244 242 391
f 391 242 392
f 242 240 392
f 392 240 393
f 240 238 393
f 393 238 394
f 238 236 394
f 394 236 395
f 236 234 395
f 395 234 396
f 234 232 396
f 396 232 397
f 232 230 397
f 397 230 398
f 230 228 398
f 398 228 399
f 228 226 399
f 399 226 400
f 226 224 400
f 400 224 401
f 224 222 401
f 401 222 402
f 222 220 402
f 402 220 403
f 220 218 403
f 403 218 404
f 218 216 404
f 404 216 405
f 216 214 405
f 405 214 406
f 214 212 406
f 406 212 407
f 212 210 407
f 407 210 408
f 210 208 408
f 408 208 409
f 208 206 409
f 409 206 410
f 206 204 410
f 410 204 411
f 204 202 411
f 411 202 412
f 202 200 412
f 412 200 413
f 200 198 413
f 413 198 414
f 198 196 414
f 414 196 415
f 196 194 415
f 415 194 416
f 194 192 416
f 416 192 417
f 192 190 417
f 417 190 418
f 190 188 418
f 418 188 419
f 188 186 419
f 419 186 420
f 186 184 420
f 420 184 421
f 184 183 421
f 421 183 422
f 183 181 422
f 422 181 423
f 181 180 423
f 423 180 424
f 180 179 424
f 424 179 425
f 179 178 425
f 425 178 426
f 178 176 426
f 426 176 427
f 176 175 427
f 427 175 428
f 175 174 428
f 428 174 429
f 174 173 429
f 429 173 430
f 173 172 430
f 430 172 431
f 172 171 431
f 431 171 432
f 171 170 432
f 432 170 433
f 170 169 433
f 433 169 434
f 169 168 434
f 434 168 435
f 168 166 435
f 435 166 436
f 166 165 436
f 436 165 437
f 165 182 437
f 437 182 366
f 182 159 366
f 429 430 365
f 369 370 292
f 375 292 374
f 292 373 374
f 430 431 365
f 431 432 365
f 365 432 433
f 433 434 365
f 434 435 365
f 365 435 436
f 369 292 368
f 425 426 365
f 346 347 366
f 347 348 366
f 339 340 366
f 370 371 292
f 371 372 292
f 292 372 373
f 426 427 365
f 427 428 365
f 365 428 429
f 375 376 292
f 376 377 292
f 292 377 378
f 421 422 294
f 422 423 294
f 294 423 365
f 423 424 365
f 365 424 425
f 339 366 338
f 340 341 366
f 341 342 366
f 366 342 343
f 378 379 292
f 379 380 292
f 292 380 293
f 380 381 293
f 293 381 382
f 348 349 366
f 349 350 366
f 366 350 351
f 351 352 366
f 352 353 366
f 366 353 354
f 354 355 366
f 355 356 366
f 366 356 357
f 343 344 366
f 344 345 366
f 366 345 346
f 330 331 366
f 331 332 366
f 332 333 366
f 333 334 366
f 366 334 335
f 382 383 293
f 383 384 293
f 293 384 329
f 384 385 329
f 329 385 328
f 385 386 328
f 328 386 327
f 386 387 327
f 327 387 326
f 387 388 326
f 326 388 325
f 388 389 325
f 325 389 324
f 389 390 324
f 324 390 323
f 390 391 323
f 323 391 322
f 391 392 322
f 322 392 321
f 392 393 321
f 321 393 320
f 393 394 320
f 320 394 319
f 394 395 319
f 319 395 318
f 395 396 318
f 318 396 317
f 396 397 317
f 317 397 316
f 397 398 316
f 316 398 315
f 398 399 315
f 315 399 314
f 399 400 314
f 314 400 313
f 400 401 313
f 313 401 312
f 401 402 312
f 312 402 311
f 402 403 311
f 311 403 310
f 403 404 310
f 310 404 309
f 404 405 309
f 309 405 308
f 405 406 308
f 308 406 307
f 406 407 307
f 307 407 306
f 407 408 306
f 306 408 305
f 408 409 305
f 305 409 304
f 409 410 304
f 304 410 303
f 410 411 303
f 303 411 302
f 411 412 302
f 302 412 301
f 412 413 301
f 301 413 300
f 413 414 300
f 300 414 299
f 414 415 299
f 299 415 298
f 415 416 298
f 298 416 297
f 416 417 297
f 297 417 296
f 417 418 296
f 296 418 295
f 418 419 295
f 295 419 294
f 419 420 294
f 294 420 421
f 357 358 366
f 358 359 366
f 366 359 360
f 360 361 366
f 361 362 366
f 366 362 363
f 363 364 366
f 364 365 366
f 366 365 437
f 365 436 437
f 330 366 292
f 366 367 292
f 292 367 368
f 335 336 366
f 336 337 366
f 366 337 338

