# https://github.com/mikedh/trimesh
v 0.12000000 -0.02350000 0.06000000
v 0.13500001 -0.02350000 0.06000000
v 0.12000000 -0.00150000 0.06000000
v 0.13500001 -0.00150000 0.06000000
v 0.13500001 -0.01786927 0.05150571
v 0.13500001 -0.01800000 0.05150000
v 0.13500001 -0.01250000 0.04000000
v 0.13500001 -0.01725000 0.05170096
v 0.13500001 -0.01736607 0.05164054
v 0.13500001 -0.01748697 0.05159046
v 0.13500001 -0.02350000 0.04000000
v 0.13500001 -0.01813073 0.05150571
v 0.13500001 -0.01826047 0.05152279
v 0.13500001 -0.01935946 0.05363393
v 0.13500001 -0.01929904 0.05375000
v 0.13500001 -0.01761177 0.05155111
v 0.13500001 -0.01773953 0.05152279
v 0.13500001 -0.01838823 0.05155111
v 0.13500001 -0.01851303 0.05159046
v 0.13500001 -0.01863393 0.05164054
v 0.13500001 -0.01693934 0.05193934
v 0.13500001 -0.01703582 0.05185093
v 0.13500001 -0.00150000 0.04000000
v 0.13500001 -0.01906066 0.05406066
v 0.13500001 -0.01896418 0.05414907
v 0.13500001 -0.01886036 0.05422873
v 0.13500001 -0.01875000 0.05429904
v 0.13500001 -0.01863393 0.05435946
v 0.13500001 -0.01851303 0.05440954
v 0.13500001 -0.01838823 0.05444889
v 0.13500001 -0.01826047 0.05447721
v 0.13500001 -0.01813073 0.05449429
v 0.13500001 -0.01800000 0.05450000
v 0.13500001 -0.01896418 0.05185093
v 0.13500001 -0.01906066 0.05193934
v 0.13500001 -0.01940954 0.05248697
v 0.13500001 -0.01935946 0.05236607
v 0.13500001 -0.01929904 0.05225000
v 0.13500001 -0.01655111 0.05261177
v 0.13500001 -0.01659046 0.05248697
v 0.13500001 -0.01664054 0.05236607
v 0.13500001 -0.01670096 0.05225000
v 0.13500001 -0.01713964 0.05177127
v 0.13500001 -0.01875000 0.05170096
v 0.13500001 -0.01886036 0.05177127
v 0.13500001 -0.01949429 0.05313073
v 0.13500001 -0.01947721 0.05326047
v 0.13500001 -0.01922873 0.05386037
v 0.13500001 -0.01914907 0.05396418
v 0.13500001 -0.01655111 0.05338823
v 0.13500001 -0.01652279 0.05326047
v 0.13500001 -0.01650571 0.05313073
v 0.13500001 -0.01677127 0.05213964
v 0.13500001 -0.01685093 0.05203582
v 0.13500001 -0.01914907 0.05203582
v 0.13500001 -0.01922873 0.05213964
v 0.13500001 -0.01950000 0.05300000
v 0.13500001 -0.01944889 0.05338823
v 0.13500001 -0.01940954 0.05351303
v 0.13500001 -0.01748697 0.05440954
v 0.13500001 -0.01736607 0.05435946
v 0.13500001 -0.01703582 0.05414907
v 0.13500001 -0.01693934 0.05406066
v 0.13500001 -0.01650000 0.05300000
v 0.13500001 -0.01650571 0.05286927
v 0.13500001 -0.01652279 0.05273953
v 0.13500001 -0.01786927 0.05449429
v 0.13500001 -0.01773953 0.05447721
v 0.13500001 -0.01761177 0.05444889
v 0.13500001 -0.01725000 0.05429904
v 0.13500001 -0.01713964 0.05422873
v 0.13500001 -0.01685093 0.05396418
v 0.13500001 -0.01677127 0.05386037
v 0.13500001 -0.01670096 0.05375000
v 0.13500001 -0.01664054 0.05363393
v 0.13500001 -0.01659046 0.05351303
v 0.13500001 -0.01944889 0.05261177
v 0.13500001 -0.01947721 0.05273953
v 0.13500001 -0.01949429 0.05286927
v 0.12000000 -0.02350000 0.04000000
v 0.12000000 -0.01786927 0.05449429
v 0.12000000 -0.01800000 0.05450000
v 0.12000000 -0.01813073 0.05449429
v 0.12000000 -0.01826047 0.05447721
v 0.12000000 -0.01851303 0.05159046
v 0.12000000 -0.01838823 0.05155111
v 0.12000000 -0.01826047 0.05152279
v 0.12000000 -0.01664054 0.05236607
v 0.12000000 -0.01659046 0.05248697
v 0.12000000 -0.00150000 0.04000000
v 0.12000000 -0.01761177 0.05444889
v 0.12000000 -0.01773953 0.05447721
v 0.12000000 -0.01736607 0.05164054
v 0.12000000 -0.01725000 0.05170096
v 0.12000000 -0.01250000 0.04000000
v 0.12000000 -0.01713964 0.05177127
v 0.12000000 -0.01703582 0.05185093
v 0.12000000 -0.01693934 0.05193934
v 0.12000000 -0.01685093 0.05203582
v 0.12000000 -0.01838823 0.05444889
v 0.12000000 -0.01851303 0.05440954
v 0.12000000 -0.01863393 0.05435946
v 0.12000000 -0.01875000 0.05429904
v 0.12000000 -0.01886036 0.05422873
v 0.12000000 -0.01896418 0.05414907
v 0.12000000 -0.01944889 0.05261177
v 0.12000000 -0.01940954 0.05248697
v 0.12000000 -0.01813073 0.05150571
v 0.12000000 -0.01800000 0.05150000
v 0.12000000 -0.01786927 0.05150571
v 0.12000000 -0.01773953 0.05152279
v 0.12000000 -0.01677127 0.05213964
v 0.12000000 -0.01670096 0.05225000
v 0.12000000 -0.01650000 0.05300000
v 0.12000000 -0.01650571 0.05313073
v 0.12000000 -0.01652279 0.05326047
v 0.12000000 -0.01655111 0.05338823
v 0.12000000 -0.01659046 0.05351303
v 0.12000000 -0.01896418 0.05185093
v 0.12000000 -0.01886036 0.05177127
v 0.12000000 -0.01761177 0.05155111
v 0.12000000 -0.01748697 0.05159046
v 0.12000000 -0.01655111 0.05261177
v 0.12000000 -0.01652279 0.05273953
v 0.12000000 -0.01650571 0.05286927
v 0.12000000 -0.01685093 0.05396418
v 0.12000000 -0.01693934 0.05406066
v 0.12000000 -0.01906066 0.05406066
v 0.12000000 -0.01914907 0.05396418
v 0.12000000 -0.01922873 0.05386037
v 0.12000000 -0.01929904 0.05375000
v 0.12000000 -0.01935946 0.05363393
v 0.12000000 -0.01940954 0.05351303
v 0.12000000 -0.01935946 0.05236607
v 0.12000000 -0.01929904 0.05225000
v 0.12000000 -0.01922873 0.05213964
v 0.12000000 -0.01875000 0.05170096
v 0.12000000 -0.01863393 0.05164054
v 0.12000000 -0.01677127 0.05386037
v 0.12000000 -0.01944889 0.05338823
v 0.12000000 -0.01947721 0.05326047
v 0.12000000 -0.01949429 0.05313073
v 0.12000000 -0.01914907 0.05203582
v 0.12000000 -0.01906066 0.05193934
v 0.12000000 -0.01703582 0.05414907
v 0.12000000 -0.01713964 0.05422873
v 0.12000000 -0.01725000 0.05429904
v 0.12000000 -0.01736607 0.05435946
v 0.12000000 -0.01748697 0.05440954
v 0.12000000 -0.01664054 0.05363393
v 0.12000000 -0.01670096 0.05375000
v 0.12000000 -0.01950000 0.05300000
v 0.12000000 -0.01949429 0.05286927
v 0.12000000 -0.01947721 0.05273953
v 0.13500001 0.00150000 0.06000000
v 0.13500001 0.02350000 0.06000000
v 0.12000000 0.00150000 0.06000000
v 0.12000000 0.02350000 0.06000000
v 0.06866025 -0.00776618 0.03500000
v 0.06866025 0.00776618 0.03500000
v 0.06866025 -0.00776618 0.00500000
v 0.06866025 0.00776618 0.00500000
v -0.00500000 0.00000000 0.04000000
v -0.00500000 0.00000000 0.03500000
v -0.00498097 0.00043578 0.04000000
v -0.00498097 0.00043578 0.03500000
v -0.00492404 0.00086824 0.04000000
v -0.00492404 0.00086824 0.03500000
v -0.00482963 0.00129410 0.04000000
v -0.00482963 0.00129410 0.03500000
v -0.00469846 0.00171010 0.04000000
v -0.00469846 0.00171010 0.03500000
v -0.00453154 0.00211309 0.04000000
v -0.00453154 0.00211309 0.03500000
v -0.00433013 0.00250000 0.04000000
v -0.00433013 0.00250000 0.03500000
v -0.00409576 0.00286788 0.04000000
v -0.00409576 0.00286788 0.03500000
v -0.00383022 0.00321394 0.04000000
v -0.00383022 0.00321394 0.03500000
v -0.00353553 0.00353553 0.04000000
v -0.00353553 0.00353553 0.03500000
v -0.00321394 0.00383022 0.04000000
v -0.00321394 0.00383022 0.03500000
v -0.00286788 0.00409576 0.04000000
v -0.00286788 0.00409576 0.03500000
v -0.00250000 0.00433013 0.04000000
v -0.00250000 0.00433013 0.03500000
v -0.00211309 0.00453154 0.04000000
v -0.00211309 0.00453154 0.03500000
v -0.00171010 0.00469846 0.04000000
v -0.00171010 0.00469846 0.03500000
v -0.00129410 0.00482963 0.04000000
v -0.00129410 0.00482963 0.03500000
v -0.00086824 0.00492404 0.04000000
v -0.00086824 0.00492404 0.03500000
v -0.00043578 0.00498097 0.04000000
v -0.00043578 0.00498097 0.03500000
v -0.00000000 0.00500000 0.04000000
v -0.00000000 0.00500000 0.03500000
v 0.00043578 0.00498097 0.04000000
v 0.00043578 0.00498097 0.03500000
v 0.00086824 0.00492404 0.04000000
v 0.00086824 0.00492404 0.03500000
v 0.00129410 0.00482963 0.04000000
v 0.00129410 0.00482963 0.03500000
v 0.00171010 0.00469846 0.04000000
v 0.00171010 0.00469846 0.03500000
v 0.00211309 0.00453154 0.04000000
v 0.00211309 0.00453154 0.03500000
v 0.00250000 0.00433013 0.04000000
v 0.00250000 0.00433013 0.03500000
v 0.00286788 0.00409576 0.04000000
v 0.00286788 0.00409576 0.03500000
v 0.00321394 0.00383022 0.04000000
v 0.00321394 0.00383022 0.03500000
v 0.00353553 0.00353553 0.04000000
v 0.00353553 0.00353553 0.03500000
v 0.00383022 0.00321394 0.04000000
v 0.00383022 0.00321394 0.03500000
v 0.00409576 0.00286788 0.04000000
v 0.00409576 0.00286788 0.03500000
v 0.00433013 0.00250000 0.04000000
v 0.00433013 0.00250000 0.03500000
v 0.00453154 0.00211309 0.04000000
v 0.00453154 0.00211309 0.03500000
v 0.00469846 0.00171010 0.04000000
v 0.00469846 0.00171010 0.03500000
v 0.00482963 0.00129410 0.04000000
v 0.00482963 0.00129410 0.03500000
v 0.00492404 0.00086824 0.04000000
v 0.00492404 0.00086824 0.03500000
v 0.00498097 0.00043578 0.04000000
v 0.00498097 0.00043578 0.03500000
v 0.00500000 0.00000000 0.04000000
v 0.00500000 0.00000000 0.03500000
v 0.00498097 -0.00043578 0.04000000
v 0.00498097 -0.00043578 0.03500000
v 0.00492404 -0.00086824 0.04000000
v 0.00492404 -0.00086824 0.03500000
v 0.00482963 -0.00129410 0.04000000
v 0.00482963 -0.00129410 0.03500000
v 0.00469846 -0.00171010 0.04000000
v 0.00469846 -0.00171010 0.03500000
v 0.00453154 -0.00211309 0.04000000
v 0.00453154 -0.00211309 0.03500000
v 0.00433013 -0.00250000 0.04000000
v 0.00433013 -0.00250000 0.03500000
v 0.00409576 -0.00286788 0.04000000
v 0.00409576 -0.00286788 0.03500000
v 0.00383022 -0.00321394 0.04000000
v 0.00383022 -0.00321394 0.03500000
v 0.00353553 -0.00353553 0.04000000
v 0.00353553 -0.00353553 0.03500000
v 0.00321394 -0.00383022 0.04000000
v 0.00321394 -0.00383022 0.03500000
v 0.00286788 -0.00409576 0.04000000
v 0.00286788 -0.00409576 0.03500000
v 0.00250000 -0.00433013 0.04000000
v 0.00250000 -0.00433013 0.03500000
v 0.00211309 -0.00453154 0.04000000
v 0.00211309 -0.00453154 0.03500000
v 0.00171010 -0.00469846 0.04000000
v 0.00171010 -0.00469846 0.03500000
v 0.00129410 -0.00482963 0.04000000
v 0.00129410 -0.00482963 0.03500000
v 0.00086824 -0.00492404 0.04000000
v 0.00086824 -0.00492404 0.03500000
v 0.00043578 -0.00498097 0.04000000
v 0.00043578 -0.00498097 0.03500000
v 0.00000000 -0.00500000 0.04000000
v 0.00000000 -0.00500000 0.03500000
v -0.00043578 -0.00498097 0.04000000
v -0.00043578 -0.00498097 0.03500000
v -0.00086824 -0.00492404 0.04000000
v -0.00086824 -0.00492404 0.03500000
v -0.00129410 -0.00482963 0.04000000
v -0.00129410 -0.00482963 0.03500000
v -0.00171010 -0.00469846 0.04000000
v -0.00171010 -0.00469846 0.03500000
v -0.00211309 -0.00453154 0.04000000
v -0.00211309 -0.00453154 0.03500000
v -0.00250000 -0.00433013 0.04000000
v -0.00250000 -0.00433013 0.03500000
v -0.00286788 -0.00409576 0.04000000
v -0.00286788 -0.00409576 0.03500000
v -0.00321394 -0.00383022 0.04000000
v -0.00321394 -0.00383022 0.03500000
v -0.00353553 -0.00353553 0.04000000
v -0.00353553 -0.00353553 0.03500000
v -0.00383022 -0.00321394 0.04000000
v -0.00383022 -0.00321394 0.03500000
v -0.00409576 -0.00286788 0.04000000
v -0.00409576 -0.00286788 0.03500000
v -0.00433013 -0.00250000 0.04000000
v -0.00433013 -0.00250000 0.03500000
v -0.00453154 -0.00211309 0.04000000
v -0.00453154 -0.00211309 0.03500000
v -0.00469846 -0.00171010 0.04000000
v -0.00469846 -0.00171010 0.03500000
v -0.00482963 -0.00129410 0.04000000
v -0.00482963 -0.00129410 0.03500000
v -0.00492404 -0.00086824 0.04000000
v -0.00492404 -0.00086824 0.03500000
v -0.00498097 -0.00043578 0.04000000
v -0.00498097 -0.00043578 0.03500000
v 0.19492404 -0.00086824 0.03500000
v 0.19498098 -0.00043578 0.03500000
v 0.19000000 0.00000000 0.03500000
v 0.19499999 0.00000000 0.03500000
v 0.19498098 0.00043578 0.03500000
v 0.19453155 -0.00211309 0.03500000
v 0.19469847 -0.00171010 0.03500000
v 0.19482963 -0.00129410 0.03500000
v 0.19383022 -0.00321394 0.03500000
v 0.19409576 -0.00286788 0.03500000
v 0.19433013 -0.00250000 0.03500000
v 0.19286788 -0.00409576 0.03500000
v 0.19321394 -0.00383022 0.03500000
v 0.19353554 -0.00353553 0.03500000
v 0.19171010 -0.00469846 0.03500000
v 0.19211309 -0.00453154 0.03500000
v 0.19250000 -0.00433013 0.03500000
v 0.19043578 -0.00498097 0.03500000
v 0.19086824 -0.00492404 0.03500000
v 0.19129409 -0.00482963 0.03500000
v 0.18913177 -0.00492404 0.03500000
v 0.18956423 -0.00498097 0.03500000
v 0.19000000 -0.00500000 0.03500000
v 0.18788691 -0.00453154 0.03500000
v 0.18828990 -0.00469846 0.03500000
v 0.18870591 -0.00482963 0.03500000
v 0.18678606 -0.00383022 0.03500000
v 0.18713212 -0.00409576 0.03500000
v 0.18750000 -0.00433013 0.03500000
v 0.18590423 -0.00286788 0.03500000
v 0.18616977 -0.00321394 0.03500000
v 0.18646446 -0.00353553 0.03500000
v 0.18530154 -0.00171010 0.03500000
v 0.18546847 -0.00211309 0.03500000
v 0.18566987 -0.00250000 0.03500000
v 0.18501903 -0.00043578 0.03500000
v 0.18507597 -0.00086824 0.03500000
v 0.18517037 -0.00129410 0.03500000
v 0.18507597 0.00086824 0.03500000
v 0.18501903 0.00043578 0.03500000
v 0.18500000 0.00000000 0.03500000
v 0.18546847 0.00211309 0.03500000
v 0.18530154 0.00171010 0.03500000
v 0.18517037 0.00129410 0.03500000
v 0.18616977 0.00321394 0.03500000
v 0.18590423 0.00286788 0.03500000
v 0.18566987 0.00250000 0.03500000
v 0.18713212 0.00409576 0.03500000
v 0.18678606 0.00383022 0.03500000
v 0.18646446 0.00353553 0.03500000
v 0.18828990 0.00469846 0.03500000
v 0.18788691 0.00453154 0.03500000
v 0.18750000 0.00433013 0.03500000
v 0.18956423 0.00498097 0.03500000
v 0.18913177 0.00492404 0.03500000
v 0.18870591 0.00482963 0.03500000
v 0.19086824 0.00492404 0.03500000
v 0.19043578 0.00498097 0.03500000
v 0.19000000 0.00500000 0.03500000
v 0.19211309 0.00453154 0.03500000
v 0.19171010 0.00469846 0.03500000
v 0.19129409 0.00482963 0.03500000
v 0.19321394 0.00383022 0.03500000
v 0.19286788 0.00409576 0.03500000
v 0.19250000 0.00433013 0.03500000
v 0.19409576 0.00286788 0.03500000
v 0.19383022 0.00321394 0.03500000
v 0.19353554 0.00353553 0.03500000
v 0.19469847 0.00171010 0.03500000
v 0.19453155 0.00211309 0.03500000
v 0.19433013 0.00250000 0.03500000
v 0.19492404 0.00086824 0.03500000
v 0.19482963 0.00129410 0.03500000
v 0.03866025 -0.00500000 0.04000000
v 0.03866025 -0.00500000 0.03500000
v 0.03866025 -0.00500000 0.00500000
v 0.03866025 -0.00500000 0.00000000
v 0.12000000 -0.01250000 0.00000000
v 0.12000000 -0.01250000 0.01270000
v 0.12000000 -0.01250000 0.02370000
v 0.12000000 0.02350000 0.04000000
v 0.13500001 0.02350000 0.04000000
v 0.12000000 0.01250000 0.04000000
v 0.13500001 0.01250000 0.04000000
v 0.00866025 -0.00500000 0.03500000
v 0.00866025 -0.00500000 0.04000000
v 0.20000000 0.01250000 0.04000000
v 0.20000000 -0.01250000 0.04000000
v 0.20000000 0.01250000 0.00000000
v 0.20000000 -0.01250000 0.00000000
v 0.12000000 -0.02250000 0.02370000
v 0.13500001 -0.02250000 0.02370000
v 0.13500001 -0.01250000 0.02370000
v 0.00866025 0.00500000 0.04000000
v 0.00866025 0.00500000 0.03500000
v 0.00819152 0.00573576 0.03500000
v 0.00819152 0.00573576 0.04000000
v 0.00766044 0.00642788 0.03500000
v 0.00766044 0.00642788 0.04000000
v 0.00707107 0.00707107 0.03500000
v 0.00707107 0.00707107 0.04000000
v 0.00642788 0.00766044 0.03500000
v 0.00642788 0.00766044 0.04000000
v 0.00573576 0.00819152 0.03500000
v 0.00573576 0.00819152 0.04000000
v 0.00500000 0.00866025 0.03500000
v 0.00500000 0.00866025 0.04000000
v 0.00422618 0.00906308 0.03500000
v 0.00422618 0.00906308 0.04000000
v 0.00342020 0.00939693 0.03500000
v 0.00342020 0.00939693 0.04000000
v 0.00258819 0.00965926 0.03500000
v 0.00258819 0.00965926 0.04000000
v 0.00173648 0.00984808 0.03500000
v 0.00173648 0.00984808 0.04000000
v 0.00087156 0.00996195 0.03500000
v 0.00087156 0.00996195 0.04000000
v -0.00000000 0.01000000 0.03500000
v -0.00000000 0.01000000 0.04000000
v -0.00087156 0.00996195 0.03500000
v -0.00087156 0.00996195 0.04000000
v -0.00173648 0.00984808 0.03500000
v -0.00173648 0.00984808 0.04000000
v -0.00258819 0.00965926 0.03500000
v -0.00258819 0.00965926 0.04000000
v -0.00342020 0.00939693 0.03500000
v -0.00342020 0.00939693 0.04000000
v -0.00422618 0.00906308 0.03500000
v -0.00422618 0.00906308 0.04000000
v -0.00500000 0.00866025 0.03500000
v -0.00500000 0.00866025 0.04000000
v -0.00573576 0.00819152 0.03500000
v -0.00573576 0.00819152 0.04000000
v -0.00642788 0.00766044 0.03500000
v -0.00642788 0.00766044 0.04000000
v -0.00707107 0.00707107 0.03500000
v -0.00707107 0.00707107 0.04000000
v -0.00766044 0.00642788 0.03500000
v -0.00766044 0.00642788 0.04000000
v -0.00819152 0.00573576 0.03500000
v -0.00819152 0.00573576 0.04000000
v -0.00866025 0.00500000 0.03500000
v -0.00866025 0.00500000 0.04000000
v -0.00906308 0.00422618 0.03500000
v -0.00906308 0.00422618 0.04000000
v -0.00939693 0.00342020 0.03500000
v -0.00939693 0.00342020 0.04000000
v -0.00965926 0.00258819 0.03500000
v -0.00965926 0.00258819 0.04000000
v -0.00984808 0.00173648 0.03500000
v -0.00984808 0.00173648 0.04000000
v -0.00996195 0.00087156 0.03500000
v -0.00996195 0.00087156 0.04000000
v -0.01000000 -0.00000000 0.03500000
v -0.01000000 -0.00000000 0.04000000
v -0.00996195 -0.00087156 0.03500000
v -0.00996195 -0.00087156 0.04000000
v -0.00984808 -0.00173648 0.03500000
v -0.00984808 -0.00173648 0.04000000
v -0.00965926 -0.00258819 0.03500000
v -0.00965926 -0.00258819 0.04000000
v -0.00939693 -0.00342020 0.03500000
v -0.00939693 -0.00342020 0.04000000
v -0.00906308 -0.00422618 0.03500000
v -0.00906308 -0.00422618 0.04000000
v -0.00866025 -0.00500000 0.03500000
v -0.00866025 -0.00500000 0.04000000
v -0.00819152 -0.00573576 0.03500000
v -0.00819152 -0.00573576 0.04000000
v -0.00766044 -0.00642788 0.03500000
v -0.00766044 -0.00642788 0.04000000
v -0.00707107 -0.00707107 0.03500000
v -0.00707107 -0.00707107 0.04000000
v -0.00642788 -0.00766044 0.03500000
v -0.00642788 -0.00766044 0.04000000
v -0.00573576 -0.00819152 0.03500000
v -0.00573576 -0.00819152 0.04000000
v -0.00500000 -0.00866025 0.03500000
v -0.00500000 -0.00866025 0.04000000
v -0.00422618 -0.00906308 0.03500000
v -0.00422618 -0.00906308 0.04000000
v -0.00342020 -0.00939693 0.03500000
v -0.00342020 -0.00939693 0.04000000
v -0.00258819 -0.00965926 0.03500000
v -0.00258819 -0.00965926 0.04000000
v -0.00173648 -0.00984808 0.03500000
v -0.00173648 -0.00984808 0.04000000
v -0.00087156 -0.00996195 0.03500000
v -0.00087156 -0.00996195 0.04000000
v 0.00000000 -0.01000000 0.03500000
v 0.00000000 -0.01000000 0.04000000
v 0.00087156 -0.00996195 0.03500000
v 0.00087156 -0.00996195 0.04000000
v 0.00173648 -0.00984808 0.03500000
v 0.00173648 -0.00984808 0.04000000
v 0.00258819 -0.00965926 0.03500000
v 0.00258819 -0.00965926 0.04000000
v 0.00342020 -0.00939693 0.03500000
v 0.00342020 -0.00939693 0.04000000
v 0.00422618 -0.00906308 0.03500000
v 0.00422618 -0.00906308 0.04000000
v 0.00500000 -0.00866025 0.03500000
v 0.00500000 -0.00866025 0.04000000
v 0.00573576 -0.00819152 0.03500000
v 0.00573576 -0.00819152 0.04000000
v 0.00642788 -0.00766044 0.03500000
v 0.00642788 -0.00766044 0.04000000
v 0.00707107 -0.00707107 0.03500000
v 0.00707107 -0.00707107 0.04000000
v 0.00766044 -0.00642788 0.03500000
v 0.00766044 -0.00642788 0.04000000
v 0.00819152 -0.00573576 0.03500000
v 0.00819152 -0.00573576 0.04000000
v 0.03866025 0.00500000 0.00000000
v 0.03866025 0.00500000 0.00500000
v 0.03866025 0.00500000 0.03500000
v 0.03866025 0.00500000 0.04000000
v 0.12000000 0.01250000 0.02730000
v 0.12000000 0.01250000 0.01630000
v 0.12000000 0.01250000 0.00000000
v 0.13500001 0.01250000 0.01630000
v 0.13500001 0.01250000 0.02730000
v 0.00453154 0.00211309 0.00000000
v 0.00433013 0.00250000 0.00000000
v 0.00866025 -0.00500000 0.00000000
v 0.00866025 0.00500000 0.00000000
v 0.00469846 0.00171010 0.00000000
v 0.00453154 -0.00211309 0.00000000
v 0.00469846 -0.00171010 0.00000000
v 0.00482963 -0.00129410 0.00000000
v 0.00492404 -0.00086824 0.00000000
v 0.00498097 -0.00043578 0.00000000
v 0.00500000 0.00000000 0.00000000
v 0.00498097 0.00043578 0.00000000
v 0.00492404 0.00086824 0.00000000
v 0.00482963 0.00129410 0.00000000
v 0.00819152 0.00573576 0.00000000
v 0.00409576 0.00286788 0.00000000
v 0.00766044 0.00642788 0.00000000
v 0.00383022 0.00321394 0.00000000
v 0.00707107 0.00707107 0.00000000
v 0.00353553 0.00353553 0.00000000
v 0.00642788 0.00766044 0.00000000
v 0.00321394 0.00383022 0.00000000
v 0.00573576 0.00819152 0.00000000
v 0.00286788 0.00409576 0.00000000
v 0.00500000 0.00866025 0.00000000
v 0.00250000 0.00433013 0.00000000
v 0.00422618 0.00906308 0.00000000
v 0.00211309 0.00453154 0.00000000
v 0.00342020 0.00939693 0.00000000
v 0.00171010 0.00469846 0.00000000
v 0.00258819 0.00965926 0.00000000
v 0.00129410 0.00482963 0.00000000
v 0.00173648 0.00984808 0.00000000
v 0.00086824 0.00492404 0.00000000
v 0.00087156 0.00996195 0.00000000
v 0.00043578 0.00498097 0.00000000
v -0.00000000 0.01000000 0.00000000
v -0.00000000 0.00500000 0.00000000
v -0.00087156 0.00996195 0.00000000
v -0.00043578 0.00498097 0.00000000
v -0.00173648 0.00984808 0.00000000
v -0.00086824 0.00492404 0.00000000
v -0.00258819 0.00965926 0.00000000
v -0.00129410 0.00482963 0.00000000
v -0.00342020 0.00939693 0.00000000
v -0.00171010 0.00469846 0.00000000
v -0.00422618 0.00906308 0.00000000
v -0.00211309 0.00453154 0.00000000
v -0.00500000 0.00866025 0.00000000
v -0.00250000 0.00433013 0.00000000
v -0.00573576 0.00819152 0.00000000
v -0.00286788 0.00409576 0.00000000
v -0.00642788 0.00766044 0.00000000
v -0.00321394 0.00383022 0.00000000
v -0.00707107 0.00707107 0.00000000
v -0.00353553 0.00353553 0.00000000
v -0.00766044 0.00642788 0.00000000
v -0.00383022 0.00321394 0.00000000
v -0.00819152 0.00573576 0.00000000
v -0.00409576 0.00286788 0.00000000
v -0.00866025 0.00500000 0.00000000
v -0.00433013 0.00250000 0.00000000
v -0.00906308 0.00422618 0.00000000
v -0.00453154 0.00211309 0.00000000
v -0.00939693 0.00342020 0.00000000
v -0.00469846 0.00171010 0.00000000
v -0.00965926 0.00258819 0.00000000
v -0.00482963 0.00129410 0.00000000
v -0.00984808 0.00173648 0.00000000
v -0.00492404 0.00086824 0.00000000
v -0.00996195 0.00087156 0.00000000
v -0.00498097 0.00043578 0.00000000
v -0.01000000 -0.00000000 0.00000000
v -0.00500000 0.00000000 0.00000000
v -0.00996195 -0.00087156 0.00000000
v -0.00498097 -0.00043578 0.00000000
v -0.00984808 -0.00173648 0.00000000
v -0.00492404 -0.00086824 0.00000000
v -0.00965926 -0.00258819 0.00000000
v -0.00482963 -0.00129410 0.00000000
v -0.00939693 -0.00342020 0.00000000
v -0.00469846 -0.00171010 0.00000000
v -0.00906308 -0.00422618 0.00000000
v -0.00453154 -0.00211309 0.00000000
v -0.00866025 -0.00500000 0.00000000
v -0.00433013 -0.00250000 0.00000000
v -0.00819152 -0.00573576 0.00000000
v -0.00409576 -0.00286788 0.00000000
v -0.00766044 -0.00642788 0.00000000
v -0.00383022 -0.00321394 0.00000000
v -0.00707107 -0.00707107 0.00000000
v -0.00353553 -0.00353553 0.00000000
v -0.00642788 -0.00766044 0.00000000
v -0.00321394 -0.00383022 0.00000000
v -0.00573576 -0.00819152 0.00000000
v -0.00286788 -0.00409576 0.00000000
v -0.00500000 -0.00866025 0.00000000
v -0.00250000 -0.00433013 0.00000000
v -0.00422618 -0.00906308 0.00000000
v -0.00211309 -0.00453154 0.00000000
v -0.00342020 -0.00939693 0.00000000
v -0.00171010 -0.00469846 0.00000000
v -0.00258819 -0.00965926 0.00000000
v -0.00129410 -0.00482963 0.00000000
v -0.00173648 -0.00984808 0.00000000
v -0.00086824 -0.00492404 0.00000000
v -0.00087156 -0.00996195 0.00000000
v -0.00043578 -0.00498097 0.00000000
v 0.00000000 -0.01000000 0.00000000
v 0.00000000 -0.00500000 0.00000000
v 0.00087156 -0.00996195 0.00000000
v 0.00043578 -0.00498097 0.00000000
v 0.00173648 -0.00984808 0.00000000
v 0.00086824 -0.00492404 0.00000000
v 0.00258819 -0.00965926 0.00000000
v 0.00129410 -0.00482963 0.00000000
v 0.00342020 -0.00939693 0.00000000
v 0.00171010 -0.00469846 0.00000000
v 0.00422618 -0.00906308 0.00000000
v 0.00211309 -0.00453154 0.00000000
v 0.00500000 -0.00866025 0.00000000
v 0.00250000 -0.00433013 0.00000000
v 0.00573576 -0.00819152 0.00000000
v 0.00286788 -0.00409576 0.00000000
v 0.00642788 -0.00766044 0.00000000
v 0.00321394 -0.00383022 0.00000000
v 0.00707107 -0.00707107 0.00000000
v 0.00353553 -0.00353553 0.00000000
v 0.00766044 -0.00642788 0.00000000
v 0.00383022 -0.00321394 0.00000000
v 0.00819152 -0.00573576 0.00000000
v 0.00409576 -0.00286788 0.00000000
v 0.00433013 -0.00250000 0.00000000
v 0.13500001 -0.01250000 0.01270000
v 0.12000000 -0.01649429 0.01806927
v 0.12000000 -0.01647721 0.01793953
v 0.12000000 -0.02250000 0.01270000
v 0.12000000 -0.01425000 0.01949904
v 0.12000000 -0.01436607 0.01955946
v 0.12000000 -0.01513073 0.01969429
v 0.12000000 -0.01526047 0.01967721
v 0.12000000 -0.01575000 0.01949904
v 0.12000000 -0.01563393 0.01955946
v 0.12000000 -0.01551303 0.01960954
v 0.12000000 -0.01644889 0.01858823
v 0.12000000 -0.01647721 0.01846047
v 0.12000000 -0.01649429 0.01833073
v 0.12000000 -0.01650000 0.01820000
v 0.12000000 -0.01563393 0.01684054
v 0.12000000 -0.01575000 0.01690096
v 0.12000000 -0.01586036 0.01697127
v 0.12000000 -0.01586036 0.01942873
v 0.12000000 -0.01596418 0.01934907
v 0.12000000 -0.01606066 0.01926066
v 0.12000000 -0.01629904 0.01895000
v 0.12000000 -0.01635946 0.01883393
v 0.12000000 -0.01640954 0.01871303
v 0.12000000 -0.01448697 0.01960954
v 0.12000000 -0.01461177 0.01964889
v 0.12000000 -0.01473953 0.01967721
v 0.12000000 -0.01538823 0.01964889
v 0.12000000 -0.01614907 0.01916418
v 0.12000000 -0.01622873 0.01906036
v 0.12000000 -0.01644889 0.01781177
v 0.12000000 -0.01640954 0.01768697
v 0.12000000 -0.01635946 0.01756607
v 0.12000000 -0.01486927 0.01969429
v 0.12000000 -0.01500000 0.01970000
v 0.12000000 -0.01629904 0.01745000
v 0.12000000 -0.01622873 0.01733964
v 0.12000000 -0.01614907 0.01723582
v 0.12000000 -0.01606066 0.01713934
v 0.12000000 -0.01596418 0.01705093
v 0.12000000 -0.01551303 0.01679046
v 0.12000000 -0.01538823 0.01675111
v 0.12000000 -0.01526047 0.01672279
v 0.12000000 -0.01513073 0.01670571
v 0.12000000 -0.01500000 0.01670000
v 0.12000000 -0.01486927 0.01670571
v 0.12000000 -0.01473953 0.01672279
v 0.12000000 -0.01461177 0.01675111
v 0.12000000 -0.01448697 0.01679046
v 0.12000000 -0.01436607 0.01684054
v 0.12000000 -0.01425000 0.01690096
v 0.12000000 -0.01413964 0.01697127
v 0.12000000 -0.01403582 0.01705093
v 0.12000000 -0.01393934 0.01713934
v 0.12000000 -0.01385093 0.01723582
v 0.12000000 -0.01370096 0.01895000
v 0.12000000 -0.01377127 0.01906036
v 0.12000000 -0.01385093 0.01916418
v 0.12000000 -0.01393934 0.01926066
v 0.12000000 -0.01403582 0.01934907
v 0.12000000 -0.01413964 0.01942873
v 0.12000000 -0.01377127 0.01733964
v 0.12000000 -0.01370096 0.01745000
v 0.12000000 -0.01364054 0.01756607
v 0.12000000 -0.01359046 0.01768697
v 0.12000000 -0.01355111 0.01781177
v 0.12000000 -0.01352279 0.01793953
v 0.12000000 -0.01352279 0.01846047
v 0.12000000 -0.01355111 0.01858823
v 0.12000000 -0.01359046 0.01871303
v 0.12000000 -0.01364054 0.01883393
v 0.12000000 -0.01350571 0.01806927
v 0.12000000 -0.01350000 0.01820000
v 0.12000000 -0.01350571 0.01833073
v 0.19469847 0.00171010 0.04000000
v 0.19482963 0.00129410 0.04000000
v 0.19499999 -0.00000000 0.04000000
v 0.19498098 -0.00043578 0.04000000
v 0.19492404 -0.00086824 0.04000000
v 0.19492404 0.00086824 0.04000000
v 0.19498098 0.00043578 0.04000000
v 0.19482963 -0.00129410 0.04000000
v 0.19469847 -0.00171010 0.04000000
v 0.19453155 -0.00211309 0.04000000
v 0.12000000 0.00150000 0.04000000
v 0.18507597 -0.00086824 0.04000000
v 0.18501903 -0.00043578 0.04000000
v 0.13500001 0.00150000 0.04000000
v 0.18517037 0.00129410 0.04000000
v 0.18530154 0.00171010 0.04000000
v 0.18566987 -0.00250000 0.04000000
v 0.18546847 -0.00211309 0.04000000
v 0.19433013 -0.00250000 0.04000000
v 0.19409576 -0.00286788 0.04000000
v 0.19383022 -0.00321394 0.04000000
v 0.18530154 -0.00171010 0.04000000
v 0.18517037 -0.00129410 0.04000000
v 0.18500000 0.00000000 0.04000000
v 0.18501903 0.00043578 0.04000000
v 0.18507597 0.00086824 0.04000000
v 0.18546847 0.00211309 0.04000000
v 0.18566987 0.00250000 0.04000000
v 0.18590423 0.00286788 0.04000000
v 0.19383022 0.00321394 0.04000000
v 0.19409576 0.00286788 0.04000000
v 0.18788691 -0.00453154 0.04000000
v 0.18750000 -0.00433013 0.04000000
v 0.19433013 0.00250000 0.04000000
v 0.19453155 0.00211309 0.04000000
v 0.18828990 -0.00469846 0.04000000
v 0.18646446 -0.00353553 0.04000000
v 0.18616977 -0.00321394 0.04000000
v 0.18590423 -0.00286788 0.04000000
v 0.19353554 -0.00353553 0.04000000
v 0.19321394 -0.00383022 0.04000000
v 0.19286788 -0.00409576 0.04000000
v 0.18713212 -0.00409576 0.04000000
v 0.18678606 -0.00383022 0.04000000
v 0.19250000 -0.00433013 0.04000000
v 0.19211309 -0.00453154 0.04000000
v 0.19171010 -0.00469846 0.04000000
v 0.19286788 0.00409576 0.04000000
v 0.19321394 0.00383022 0.04000000
v 0.19353554 0.00353553 0.04000000
v 0.18956423 -0.00498097 0.04000000
v 0.19000000 -0.00500000 0.04000000
v 0.19043578 -0.00498097 0.04000000
v 0.18913177 -0.00492404 0.04000000
v 0.18870591 -0.00482963 0.04000000
v 0.18616977 0.00321394 0.04000000
v 0.18646446 0.00353553 0.04000000
v 0.18678606 0.00383022 0.04000000
v 0.19129409 -0.00482963 0.04000000
v 0.19086824 -0.00492404 0.04000000
v 0.19171010 0.00469846 0.04000000
v 0.19211309 0.00453154 0.04000000
v 0.19250000 0.00433013 0.04000000
v 0.18713212 0.00409576 0.04000000
v 0.18750000 0.00433013 0.04000000
v 0.18788691 0.00453154 0.04000000
v 0.18828990 0.00469846 0.04000000
v 0.18870591 0.00482963 0.04000000
v 0.18913177 0.00492404 0.04000000
v 0.18956423 0.00498097 0.04000000
v 0.19000000 0.00500000 0.04000000
v 0.19043578 0.00498097 0.04000000
v 0.19086824 0.00492404 0.04000000
v 0.19129409 0.00482963 0.04000000
v 0.13500001 -0.01644889 0.01781177
v 0.13500001 -0.01647721 0.01793953
v 0.13500001 -0.02250000 0.01270000
v 0.13500001 -0.01425000 0.01949904
v 0.13500001 -0.01413964 0.01942873
v 0.13500001 -0.01640954 0.01871303
v 0.13500001 -0.01644889 0.01858823
v 0.13500001 -0.01647721 0.01846047
v 0.13500001 -0.01563393 0.01684054
v 0.13500001 -0.01551303 0.01679046
v 0.13500001 -0.01538823 0.01675111
v 0.13500001 -0.01649429 0.01806927
v 0.13500001 -0.01650000 0.01820000
v 0.13500001 -0.01649429 0.01833073
v 0.13500001 -0.01461177 0.01964889
v 0.13500001 -0.01448697 0.01960954
v 0.13500001 -0.01436607 0.01955946
v 0.13500001 -0.01622873 0.01733964
v 0.13500001 -0.01629904 0.01745000
v 0.13500001 -0.01513073 0.01969429
v 0.13500001 -0.01500000 0.01970000
v 0.13500001 -0.01364054 0.01756607
v 0.13500001 -0.01370096 0.01745000
v 0.13500001 -0.01393934 0.01713934
v 0.13500001 -0.01403582 0.01705093
v 0.13500001 -0.01526047 0.01672279
v 0.13500001 -0.01513073 0.01670571
v 0.13500001 -0.01635946 0.01756607
v 0.13500001 -0.01640954 0.01768697
v 0.13500001 -0.01413964 0.01697127
v 0.13500001 -0.01425000 0.01690096
v 0.13500001 -0.01436607 0.01684054
v 0.13500001 -0.01448697 0.01679046
v 0.13500001 -0.01461177 0.01675111
v 0.13500001 -0.01473953 0.01672279
v 0.13500001 -0.01486927 0.01670571
v 0.13500001 -0.01500000 0.01670000
v 0.13500001 -0.01575000 0.01690096
v 0.13500001 -0.01586036 0.01697127
v 0.13500001 -0.01596418 0.01705093
v 0.13500001 -0.01635946 0.01883393
v 0.13500001 -0.01629904 0.01895000
v 0.13500001 -0.01622873 0.01906036
v 0.13500001 -0.01596418 0.01934907
v 0.13500001 -0.01586036 0.01942873
v 0.13500001 -0.01575000 0.01949904
v 0.13500001 -0.01563393 0.01955946
v 0.13500001 -0.01486927 0.01969429
v 0.13500001 -0.01473953 0.01967721
v 0.13500001 -0.01377127 0.01733964
v 0.13500001 -0.01385093 0.01723582
v 0.13500001 -0.01614907 0.01916418
v 0.13500001 -0.01606066 0.01926066
v 0.13500001 -0.01403582 0.01934907
v 0.13500001 -0.01393934 0.01926066
v 0.13500001 -0.01385093 0.01916418
v 0.13500001 -0.01377127 0.01906036
v 0.13500001 -0.01370096 0.01895000
v 0.13500001 -0.01364054 0.01883393
v 0.13500001 -0.01606066 0.01713934
v 0.13500001 -0.01614907 0.01723582
v 0.13500001 -0.01551303 0.01960954
v 0.13500001 -0.01538823 0.01964889
v 0.13500001 -0.01526047 0.01967721
v 0.13500001 -0.01352279 0.01793953
v 0.13500001 -0.01355111 0.01781177
v 0.13500001 -0.01359046 0.01768697
v 0.13500001 -0.01359046 0.01871303
v 0.13500001 -0.01355111 0.01858823
v 0.13500001 -0.01352279 0.01846047
v 0.13500001 -0.01350571 0.01833073
v 0.13500001 -0.01350000 0.01820000
v 0.13500001 -0.01350571 0.01806927
v 0.00866025 -0.00500000 0.00500000
v 0.00866025 0.00500000 0.00500000
v 0.00819152 0.00573576 0.00500000
v 0.00766044 0.00642788 0.00500000
v 0.00707107 0.00707107 0.00500000
v 0.00642788 0.00766044 0.00500000
v 0.00573576 0.00819152 0.00500000
v 0.00500000 0.00866025 0.00500000
v 0.00422618 0.00906308 0.00500000
v 0.00342020 0.00939693 0.00500000
v 0.00258819 0.00965926 0.00500000
v 0.00173648 0.00984808 0.00500000
v 0.00087156 0.00996195 0.00500000
v -0.00000000 0.01000000 0.00500000
v -0.00087156 0.00996195 0.00500000
v -0.00173648 0.00984808 0.00500000
v -0.00258819 0.00965926 0.00500000
v -0.00342020 0.00939693 0.00500000
v -0.00422618 0.00906308 0.00500000
v -0.00500000 0.00866025 0.00500000
v -0.00573576 0.00819152 0.00500000
v -0.00642788 0.00766044 0.00500000
v -0.00707107 0.00707107 0.00500000
v -0.00766044 0.00642788 0.00500000
v -0.00819152 0.00573576 0.00500000
v -0.00866025 0.00500000 0.00500000
v -0.00906308 0.00422618 0.00500000
v -0.00939693 0.00342020 0.00500000
v -0.00965926 0.00258819 0.00500000
v -0.00984808 0.00173648 0.00500000
v -0.00996195 0.00087156 0.00500000
v -0.01000000 -0.00000000 0.00500000
v -0.00996195 -0.00087156 0.00500000
v -0.00984808 -0.00173648 0.00500000
v -0.00965926 -0.00258819 0.00500000
v -0.00939693 -0.00342020 0.00500000
v -0.00906308 -0.00422618 0.00500000
v -0.00866025 -0.00500000 0.00500000
v -0.00819152 -0.00573576 0.00500000
v -0.00766044 -0.00642788 0.00500000
v -0.00707107 -0.00707107 0.00500000
v -0.00642788 -0.00766044 0.00500000
v -0.00573576 -0.00819152 0.00500000
v -0.00500000 -0.00866025 0.00500000
v -0.00422618 -0.00906308 0.00500000
v -0.00342020 -0.00939693 0.00500000
v -0.00258819 -0.00965926 0.00500000
v -0.00173648 -0.00984808 0.00500000
v -0.00087156 -0.00996195 0.00500000
v 0.00000000 -0.01000000 0.00500000
v 0.00087156 -0.00996195 0.00500000
v 0.00173648 -0.00984808 0.00500000
v 0.00258819 -0.00965926 0.00500000
v 0.00342020 -0.00939693 0.00500000
v 0.00422618 -0.00906308 0.00500000
v 0.00500000 -0.00866025 0.00500000
v 0.00573576 -0.00819152 0.00500000
v 0.00642788 -0.00766044 0.00500000
v 0.00707107 -0.00707107 0.00500000
v 0.00766044 -0.00642788 0.00500000
v 0.00819152 -0.00573576 0.00500000
v -0.00500000 0.00000000 0.00500000
v -0.00498097 0.00043578 0.00500000
v -0.00492404 0.00086824 0.00500000
v -0.00482963 0.00129410 0.00500000
v -0.00469846 0.00171010 0.00500000
v -0.00453154 0.00211309 0.00500000
v -0.00433013 0.00250000 0.00500000
v -0.00409576 0.00286788 0.00500000
v -0.00383022 0.00321394 0.00500000
v -0.00353553 0.00353553 0.00500000
v -0.00321394 0.00383022 0.00500000
v -0.00286788 0.00409576 0.00500000
v -0.00250000 0.00433013 0.00500000
v -0.00211309 0.00453154 0.00500000
v -0.00171010 0.00469846 0.00500000
v -0.00129410 0.00482963 0.00500000
v -0.00086824 0.00492404 0.00500000
v -0.00043578 0.00498097 0.00500000
v -0.00000000 0.00500000 0.00500000
v 0.00043578 0.00498097 0.00500000
v 0.00086824 0.00492404 0.00500000
v 0.00129410 0.00482963 0.00500000
v 0.00171010 0.00469846 0.00500000
v 0.00211309 0.00453154 0.00500000
v 0.00250000 0.00433013 0.00500000
v 0.00286788 0.00409576 0.00500000
v 0.00321394 0.00383022 0.00500000
v 0.00353553 0.00353553 0.00500000
v 0.00383022 0.00321394 0.00500000
v 0.00409576 0.00286788 0.00500000
v 0.00433013 0.00250000 0.00500000
v 0.00453154 0.00211309 0.00500000
v 0.00469846 0.00171010 0.00500000
v 0.00482963 0.00129410 0.00500000
v 0.00492404 0.00086824 0.00500000
v 0.00498097 0.00043578 0.00500000
v 0.00500000 0.00000000 0.00500000
v 0.00498097 -0.00043578 0.00500000
v 0.00492404 -0.00086824 0.00500000
v 0.00482963 -0.00129410 0.00500000
v 0.00469846 -0.00171010 0.00500000
v 0.00453154 -0.00211309 0.00500000
v 0.00433013 -0.00250000 0.00500000
v 0.00409576 -0.00286788 0.00500000
v 0.00383022 -0.00321394 0.00500000
v 0.00353553 -0.00353553 0.00500000
v 0.00321394 -0.00383022 0.00500000
v 0.00286788 -0.00409576 0.00500000
v 0.00250000 -0.00433013 0.00500000
v 0.00211309 -0.00453154 0.00500000
v 0.00171010 -0.00469846 0.00500000
v 0.00129410 -0.00482963 0.00500000
v 0.00086824 -0.00492404 0.00500000
v 0.00043578 -0.00498097 0.00500000
v 0.00000000 -0.00500000 0.00500000
v -0.00043578 -0.00498097 0.00500000
v -0.00086824 -0.00492404 0.00500000
v -0.00129410 -0.00482963 0.00500000
v -0.00171010 -0.00469846 0.00500000
v -0.00211309 -0.00453154 0.00500000
v -0.00250000 -0.00433013 0.00500000
v -0.00286788 -0.00409576 0.00500000
v -0.00321394 -0.00383022 0.00500000
v -0.00353553 -0.00353553 0.00500000
v -0.00383022 -0.00321394 0.00500000
v -0.00409576 -0.00286788 0.00500000
v -0.00433013 -0.00250000 0.00500000
v -0.00453154 -0.00211309 0.00500000
v -0.00469846 -0.00171010 0.00500000
v -0.00482963 -0.00129410 0.00500000
v -0.00492404 -0.00086824 0.00500000
v -0.00498097 -0.00043578 0.00500000
v 0.13500001 0.02250000 0.02730000
v 0.12000000 0.02250000 0.02730000
v 0.12000000 0.01748697 0.05159046
v 0.12000000 0.01761177 0.05155111
v 0.12000000 0.01851303 0.05440954
v 0.12000000 0.01838823 0.05444889
v 0.12000000 0.01748697 0.05440954
v 0.12000000 0.01736607 0.05435946
v 0.12000000 0.01800000 0.05450000
v 0.12000000 0.01786927 0.05449429
v 0.12000000 0.01773953 0.05447721
v 0.12000000 0.01761177 0.05444889
v 0.12000000 0.01935946 0.05236607
v 0.12000000 0.01940954 0.05248697
v 0.12000000 0.01826047 0.05447721
v 0.12000000 0.01813073 0.05449429
v 0.12000000 0.01851303 0.05159046
v 0.12000000 0.01863393 0.05164054
v 0.12000000 0.01875000 0.05170096
v 0.12000000 0.01886036 0.05177127
v 0.12000000 0.01896418 0.05185093
v 0.12000000 0.01906066 0.05193934
v 0.12000000 0.01914907 0.05203582
v 0.12000000 0.01813073 0.05150571
v 0.12000000 0.01826047 0.05152279
v 0.12000000 0.01838823 0.05155111
v 0.12000000 0.01922873 0.05213964
v 0.12000000 0.01929904 0.05225000
v 0.12000000 0.01950000 0.05300000
v 0.12000000 0.01949429 0.05313073
v 0.12000000 0.01947721 0.05326047
v 0.12000000 0.01944889 0.05338823
v 0.12000000 0.01940954 0.05351303
v 0.12000000 0.01725000 0.05429904
v 0.12000000 0.01713964 0.05422873
v 0.12000000 0.01703582 0.05414907
v 0.12000000 0.01655111 0.05261177
v 0.12000000 0.01659046 0.05248697
v 0.12000000 0.01773953 0.05152279
v 0.12000000 0.01786927 0.05150571
v 0.12000000 0.01800000 0.05150000
v 0.12000000 0.01944889 0.05261177
v 0.12000000 0.01947721 0.05273953
v 0.12000000 0.01949429 0.05286927
v 0.12000000 0.01896418 0.05414907
v 0.12000000 0.01886036 0.05422873
v 0.12000000 0.01693934 0.05406066
v 0.12000000 0.01685093 0.05396418
v 0.12000000 0.01677127 0.05386037
v 0.12000000 0.01922873 0.05386037
v 0.12000000 0.01914907 0.05396418
v 0.12000000 0.01906066 0.05406066
v 0.12000000 0.01875000 0.05429904
v 0.12000000 0.01863393 0.05435946
v 0.12000000 0.01670096 0.05375000
v 0.12000000 0.01664054 0.05363393
v 0.12000000 0.01659046 0.05351303
v 0.12000000 0.01664054 0.05236607
v 0.12000000 0.01670096 0.05225000
v 0.12000000 0.01677127 0.05213964
v 0.12000000 0.01703582 0.05185093
v 0.12000000 0.01713964 0.05177127
v 0.12000000 0.01725000 0.05170096
v 0.12000000 0.01736607 0.05164054
v 0.12000000 0.01655111 0.05338823
v 0.12000000 0.01652279 0.05326047
v 0.12000000 0.01650571 0.05313073
v 0.12000000 0.01685093 0.05203582
v 0.12000000 0.01693934 0.05193934
v 0.12000000 0.01935946 0.05363393
v 0.12000000 0.01929904 0.05375000
v 0.12000000 0.01650000 0.05300000
v 0.12000000 0.01650571 0.05286927
v 0.12000000 0.01652279 0.05273953
v 0.13500001 0.01763073 0.02329429
v 0.13500001 0.01776047 0.02327721
v 0.13500001 0.01750000 0.02030000
v 0.13500001 0.01763073 0.02030571
v 0.13500001 0.02250000 0.01630000
v 0.13500001 0.01776047 0.02032279
v 0.13500001 0.01788823 0.02035111
v 0.13500001 0.01736927 0.02030571
v 0.13500001 0.01723953 0.02032279
v 0.13500001 0.01711177 0.02035111
v 0.13500001 0.01856066 0.02073934
v 0.13500001 0.01846418 0.02065093
v 0.13500001 0.01836037 0.02057127
v 0.13500001 0.01825000 0.02050096
v 0.13500001 0.01813393 0.02044054
v 0.13500001 0.01801303 0.02039046
v 0.13500001 0.01698697 0.02039046
v 0.13500001 0.01686607 0.02044054
v 0.13500001 0.01675000 0.02050096
v 0.13500001 0.01620096 0.02105000
v 0.13500001 0.01614054 0.02116607
v 0.13500001 0.01609046 0.02128697
v 0.13500001 0.01605111 0.02141177
v 0.13500001 0.01602279 0.02153953
v 0.13500001 0.01736927 0.02329429
v 0.13500001 0.01750000 0.02330000
v 0.13500001 0.01788823 0.02324889
v 0.13500001 0.01801303 0.02320954
v 0.13500001 0.01813393 0.02315946
v 0.13500001 0.01825000 0.02309904
v 0.13500001 0.01836037 0.02302873
v 0.13500001 0.01846418 0.02294907
v 0.13500001 0.01894889 0.02141177
v 0.13500001 0.01897721 0.02153953
v 0.13500001 0.01899429 0.02166927
v 0.13500001 0.01890954 0.02128697
v 0.13500001 0.01885946 0.02116607
v 0.13500001 0.01879904 0.02105000
v 0.13500001 0.01872873 0.02093964
v 0.13500001 0.01864907 0.02083582
v 0.13500001 0.01663963 0.02057127
v 0.13500001 0.01653582 0.02065093
v 0.13500001 0.01643934 0.02073934
v 0.13500001 0.01698697 0.02320954
v 0.13500001 0.01711177 0.02324889
v 0.13500001 0.01723953 0.02327721
v 0.13500001 0.01899429 0.02193073
v 0.13500001 0.01900000 0.02180000
v 0.13500001 0.01635093 0.02083582
v 0.13500001 0.01627127 0.02093964
v 0.13500001 0.01600571 0.02166927
v 0.13500001 0.01600000 0.02180000
v 0.13500001 0.01600571 0.02193073
v 0.13500001 0.01602279 0.02206047
v 0.13500001 0.01605111 0.02218823
v 0.13500001 0.01609046 0.02231303
v 0.13500001 0.01614054 0.02243393
v 0.13500001 0.01620096 0.02255000
v 0.13500001 0.01627127 0.02266037
v 0.13500001 0.01635093 0.02276418
v 0.13500001 0.01643934 0.02286066
v 0.13500001 0.01653582 0.02294907
v 0.13500001 0.01663963 0.02302873
v 0.13500001 0.01856066 0.02286066
v 0.13500001 0.01864907 0.02276418
v 0.13500001 0.01872873 0.02266037
v 0.13500001 0.01890954 0.02231303
v 0.13500001 0.01894889 0.02218823
v 0.13500001 0.01897721 0.02206047
v 0.13500001 0.01675000 0.02309904
v 0.13500001 0.01686607 0.02315946
v 0.13500001 0.01879904 0.02255000
v 0.13500001 0.01885946 0.02243393
v 0.12000000 0.02250000 0.01630000
v 0.13500001 0.01800000 0.05450000
v 0.13500001 0.01813073 0.05449429
v 0.13500001 0.01826047 0.05447721
v 0.13500001 0.01838823 0.05444889
v 0.13500001 0.01851303 0.05440954
v 0.13500001 0.01863393 0.05435946
v 0.13500001 0.01875000 0.05429904
v 0.13500001 0.01886036 0.05422873
v 0.13500001 0.01896418 0.05414907
v 0.13500001 0.01906066 0.05406066
v 0.13500001 0.01914907 0.05396418
v 0.13500001 0.01922873 0.05386037
v 0.13500001 0.01929904 0.05375000
v 0.13500001 0.01935946 0.05363393
v 0.13500001 0.01940954 0.05351303
v 0.13500001 0.01944889 0.05338823
v 0.13500001 0.01947721 0.05326047
v 0.13500001 0.01949429 0.05313073
v 0.13500001 0.01950000 0.05300000
v 0.13500001 0.01949429 0.05286927
v 0.13500001 0.01947721 0.05273953
v 0.13500001 0.01944889 0.05261177
v 0.13500001 0.01940954 0.05248697
v 0.13500001 0.01935946 0.05236607
v 0.13500001 0.01929904 0.05225000
v 0.13500001 0.01922873 0.05213964
v 0.13500001 0.01914907 0.05203582
v 0.13500001 0.01906066 0.05193934
v 0.13500001 0.01896418 0.05185093
v 0.13500001 0.01886036 0.05177127
v 0.13500001 0.01875000 0.05170096
v 0.13500001 0.01863393 0.05164054
v 0.13500001 0.01851303 0.05159046
v 0.13500001 0.01838823 0.05155111
v 0.13500001 0.01826047 0.05152279
v 0.13500001 0.01813073 0.05150571
v 0.13500001 0.01800000 0.05150000
v 0.13500001 0.01786927 0.05150571
v 0.13500001 0.01773953 0.05152279
v 0.13500001 0.01761177 0.05155111
v 0.13500001 0.01748697 0.05159046
v 0.13500001 0.01736607 0.05164054
v 0.13500001 0.01725000 0.05170096
v 0.13500001 0.01713964 0.05177127
v 0.13500001 0.01703582 0.05185093
v 0.13500001 0.01693934 0.05193934
v 0.13500001 0.01685093 0.05203582
v 0.13500001 0.01677127 0.05213964
v 0.13500001 0.01670096 0.05225000
v 0.13500001 0.01664054 0.05236607
v 0.13500001 0.01659046 0.05248697
v 0.13500001 0.01655111 0.05261177
v 0.13500001 0.01652279 0.05273953
v 0.13500001 0.01650571 0.05286927
v 0.13500001 0.01650000 0.05300000
v 0.13500001 0.01650571 0.05313073
v 0.13500001 0.01652279 0.05326047
v 0.13500001 0.01655111 0.05338823
v 0.13500001 0.01659046 0.05351303
v 0.13500001 0.01664054 0.05363393
v 0.13500001 0.01670096 0.05375000
v 0.13500001 0.01677127 0.05386037
v 0.13500001 0.01685093 0.05396418
v 0.13500001 0.01693934 0.05406066
v 0.13500001 0.01703582 0.05414907
v 0.13500001 0.01713964 0.05422873
v 0.13500001 0.01725000 0.05429904
v 0.13500001 0.01736607 0.05435946
v 0.13500001 0.01748697 0.05440954
v 0.13500001 0.01761177 0.05444889
v 0.13500001 0.01773953 0.05447721
v 0.13500001 0.01786927 0.05449429
v 0.12000000 0.01711177 0.02035111
v 0.12000000 0.01723953 0.02032279
v 0.12000000 0.01788823 0.02324889
v 0.12000000 0.01776047 0.02327721
v 0.12000000 0.01763073 0.02329429
v 0.12000000 0.01750000 0.02330000
v 0.12000000 0.01736927 0.02329429
v 0.12000000 0.01723953 0.02327721
v 0.12000000 0.01711177 0.02324889
v 0.12000000 0.01698697 0.02320954
v 0.12000000 0.01686607 0.02315946
v 0.12000000 0.01653582 0.02294907
v 0.12000000 0.01643934 0.02286066
v 0.12000000 0.01736927 0.02030571
v 0.12000000 0.01750000 0.02030000
v 0.12000000 0.01864907 0.02276418
v 0.12000000 0.01856066 0.02286066
v 0.12000000 0.01635093 0.02276418
v 0.12000000 0.01627127 0.02266037
v 0.12000000 0.01620096 0.02255000
v 0.12000000 0.01614054 0.02243393
v 0.12000000 0.01609046 0.02231303
v 0.12000000 0.01605111 0.02218823
v 0.12000000 0.01602279 0.02206047
v 0.12000000 0.01600571 0.02193073
v 0.12000000 0.01600000 0.02180000
v 0.12000000 0.01600571 0.02166927
v 0.12000000 0.01602279 0.02153953
v 0.12000000 0.01605111 0.02141177
v 0.12000000 0.01609046 0.02128697
v 0.12000000 0.01614054 0.02116607
v 0.12000000 0.01620096 0.02105000
v 0.12000000 0.01627127 0.02093964
v 0.12000000 0.01675000 0.02050096
v 0.12000000 0.01663963 0.02057127
v 0.12000000 0.01653582 0.02065093
v 0.12000000 0.01686607 0.02044054
v 0.12000000 0.01698697 0.02039046
v 0.12000000 0.01763073 0.02030571
v 0.12000000 0.01776047 0.02032279
v 0.12000000 0.01788823 0.02035111
v 0.12000000 0.01900000 0.02180000
v 0.12000000 0.01899429 0.02193073
v 0.12000000 0.01897721 0.02206047
v 0.12000000 0.01675000 0.02309904
v 0.12000000 0.01663963 0.02302873
v 0.12000000 0.01801303 0.02039046
v 0.12000000 0.01813393 0.02044054
v 0.12000000 0.01825000 0.02050096
v 0.12000000 0.01836037 0.02057127
v 0.12000000 0.01846418 0.02065093
v 0.12000000 0.01856066 0.02073934
v 0.12000000 0.01894889 0.02218823
v 0.12000000 0.01890954 0.02231303
v 0.12000000 0.01885946 0.02243393
v 0.12000000 0.01846418 0.02294907
v 0.12000000 0.01836037 0.02302873
v 0.12000000 0.01825000 0.02309904
v 0.12000000 0.01813393 0.02315946
v 0.12000000 0.01801303 0.02320954
v 0.12000000 0.01635093 0.02083582
v 0.12000000 0.01643934 0.02073934
v 0.12000000 0.01864907 0.02083582
v 0.12000000 0.01872873 0.02093964
v 0.12000000 0.01879904 0.02105000
v 0.12000000 0.01885946 0.02116607
v 0.12000000 0.01890954 0.02128697
v 0.12000000 0.01894889 0.02141177
v 0.12000000 0.01897721 0.02153953
v 0.12000000 0.01899429 0.02166927
v 0.12000000 0.01879904 0.02255000
v 0.12000000 0.01872873 0.02266037
f 1 2 3
f 2 4 3
f 5 6 7
f 8 9 7
f 9 10 7
f 7 6 11
f 6 12 11
f 11 12 13
f 14 15 2
f 10 16 7
f 16 17 7
f 7 17 5
f 13 18 11
f 18 19 11
f 11 19 20
f 21 22 23
f 24 25 2
f 25 26 2
f 2 26 27
f 27 28 2
f 28 29 2
f 2 29 30
f 30 31 2
f 31 32 2
f 2 32 33
f 11 34 35
f 36 11 37
f 11 38 37
f 39 40 23
f 40 41 23
f 23 41 42
f 23 22 7
f 22 43 7
f 7 43 8
f 20 44 11
f 44 45 11
f 11 45 34
f 46 47 2
f 15 48 2
f 48 49 2
f 2 49 24
f 50 51 4
f 51 52 4
f 42 53 23
f 53 54 23
f 23 54 21
f 35 55 11
f 55 56 11
f 11 56 38
f 46 2 57
f 47 58 2
f 58 59 2
f 2 59 14
f 60 61 4
f 4 62 63
f 52 64 4
f 64 65 4
f 4 65 23
f 65 66 23
f 23 66 39
f 33 67 2
f 67 68 2
f 2 68 4
f 68 69 4
f 4 69 60
f 61 70 4
f 70 71 4
f 4 71 62
f 63 72 4
f 72 73 4
f 4 73 74
f 74 75 4
f 75 76 4
f 4 76 50
f 36 77 11
f 77 78 11
f 11 78 2
f 78 79 2
f 2 79 57
f 2 1 11
f 1 80 11
f 81 82 1
f 82 83 1
f 1 83 84
f 85 86 80
f 86 87 80
f 88 89 90
f 3 91 1
f 91 92 1
f 1 92 81
f 93 94 95
f 94 96 95
f 95 96 90
f 96 97 90
f 97 98 90
f 90 98 99
f 84 100 1
f 100 101 1
f 1 101 102
f 102 103 1
f 103 104 1
f 1 104 105
f 106 107 80
f 87 108 80
f 108 109 80
f 80 109 95
f 109 110 95
f 95 110 111
f 99 112 90
f 112 113 90
f 90 113 88
f 3 114 115
f 115 116 3
f 116 117 3
f 3 117 118
f 80 119 120
f 111 121 95
f 121 122 95
f 95 122 93
f 89 123 90
f 123 124 90
f 90 124 3
f 124 125 3
f 3 125 114
f 126 127 3
f 105 128 1
f 128 129 1
f 1 129 130
f 130 131 1
f 131 132 1
f 1 132 133
f 107 134 80
f 134 135 80
f 80 135 136
f 120 137 80
f 137 138 80
f 80 138 85
f 126 3 139
f 133 140 1
f 140 141 1
f 1 141 142
f 136 143 80
f 143 144 80
f 80 144 119
f 127 145 3
f 145 146 3
f 3 146 147
f 147 148 3
f 148 149 3
f 3 149 91
f 118 150 3
f 150 151 3
f 3 151 139
f 142 152 1
f 152 153 1
f 1 153 80
f 153 154 80
f 80 154 106
f 3 4 90
f 4 23 90
f 155 156 157
f 156 158 157
f 159 160 161
f 160 162 161
f 163 164 165
f 164 166 165
f 165 166 167
f 166 168 167
f 167 168 169
f 168 170 169
f 169 170 171
f 170 172 171
f 171 172 173
f 172 174 173
f 173 174 175
f 174 176 175
f 175 176 177
f 176 178 177
f 177 178 179
f 178 180 179
f 179 180 181
f 180 182 181
f 181 182 183
f 182 184 183
f 183 184 185
f 184 186 185
f 185 186 187
f 186 188 187
f 187 188 189
f 188 190 189
f 189 190 191
f 190 192 191
f 191 192 193
f 192 194 193
f 193 194 195
f 194 196 195
f 195 196 197
f 196 198 197
f 197 198 199
f 198 200 199
f 199 200 201
f 200 202 201
f 201 202 203
f 202 204 203
f 203 204 205
f 204 206 205
f 205 206 207
f 206 208 207
f 207 208 209
f 208 210 209
f 209 210 211
f 210 212 211
f 211 212 213
f 212 214 213
f 213 214 215
f 214 216 215
f 215 216 217
f 216 218 217
f 217 218 219
f 218 220 219
f 219 220 221
f 220 222 221
f 221 222 223
f 222 224 223
f 223 224 225
f 224 226 225
f 225 226 227
f 226 228 227
f 227 228 229
f 228 230 229
f 229 230 231
f 230 232 231
f 231 232 233
f 232 234 233
f 233 234 235
f 234 236 235
f 235 236 237
f 236 238 237
f 237 238 239
f 238 240 239
f 239 240 241
f 240 242 241
f 241 242 243
f 242 244 243
f 243 244 245
f 244 246 245
f 245 246 247
f 246 248 247
f 247 248 249
f 248 250 249
f 249 250 251
f 250 252 251
f 251 252 253
f 252 254 253
f 253 254 255
f 254 256 255
f 255 256 257
f 256 258 257
f 257 258 259
f 258 260 259
f 259 260 261
f 260 262 261
f 261 262 263
f 262 264 263
f 263 264 265
f 264 266 265
f 265 266 267
f 266 268 267
f 267 268 269
f 268 270 269
f 269 270 271
f 270 272 271
f 271 272 273
f 272 274 273
f 273 274 275
f 274 276 275
f 275 276 277
f 276 278 277
f 277 278 279
f 278 280 279
f 279 280 281
f 280 282 281
f 281 282 283
f 282 284 283
f 283 284 285
f 284 286 285
f 285 286 287
f 286 288 287
f 287 288 289
f 288 290 289
f 289 290 291
f 290 292 291
f 291 292 293
f 292 294 293
f 293 294 295
f 294 296 295
f 295 296 297
f 296 298 297
f 297 298 299
f 298 300 299
f 299 300 301
f 300 302 301
f 301 302 303
f 302 304 303
f 303 304 305
f 304 306 305
f 305 306 163
f 306 164 163
f 307 308 309
f 308 310 309
f 309 310 311
f 312 313 309
f 313 314 309
f 309 314 307
f 315 316 309
f 316 317 309
f 309 317 312
f 318 319 309
f 319 320 309
f 309 320 315
f 321 322 309
f 322 323 309
f 309 323 318
f 324 325 309
f 325 326 309
f 309 326 321
f 327 328 309
f 328 329 309
f 309 329 324
f 330 331 309
f 331 332 309
f 309 332 327
f 333 334 309
f 334 335 309
f 309 335 330
f 336 337 309
f 337 338 309
f 309 338 333
f 339 340 309
f 340 341 309
f 309 341 336
f 342 343 309
f 343 344 309
f 309 344 339
f 345 346 309
f 346 347 309
f 309 347 342
f 348 349 309
f 349 350 309
f 309 350 345
f 351 352 309
f 352 353 309
f 309 353 348
f 354 355 309
f 355 356 309
f 309 356 351
f 357 358 309
f 358 359 309
f 309 359 354
f 360 361 309
f 361 362 309
f 309 362 357
f 363 364 309
f 364 365 309
f 309 365 360
f 366 367 309
f 367 368 309
f 309 368 363
f 369 370 309
f 370 371 309
f 309 371 366
f 372 373 309
f 373 374 309
f 309 374 369
f 375 376 309
f 376 377 309
f 309 377 372
f 311 378 309
f 378 379 309
f 309 379 375
f 380 381 159
f 382 383 161
f 383 384 161
f 384 385 161
f 385 386 161
f 161 386 159
f 386 95 159
f 159 95 380
f 387 388 389
f 388 390 389
f 381 380 391
f 380 392 391
f 393 394 395
f 394 396 395
f 397 398 386
f 398 399 386
f 400 401 402
f 400 402 403
f 402 404 403
f 403 404 405
f 404 406 405
f 405 406 407
f 406 408 407
f 407 408 409
f 408 410 409
f 409 410 411
f 410 412 411
f 411 412 413
f 412 414 413
f 413 414 415
f 414 416 415
f 415 416 417
f 416 418 417
f 417 418 419
f 418 420 419
f 419 420 421
f 420 422 421
f 421 422 423
f 422 424 423
f 423 424 425
f 424 426 425
f 425 426 427
f 426 428 427
f 427 428 429
f 428 430 429
f 429 430 431
f 430 432 431
f 431 432 433
f 432 434 433
f 433 434 435
f 434 436 435
f 435 436 437
f 436 438 437
f 437 438 439
f 438 440 439
f 439 440 441
f 440 442 441
f 441 442 443
f 442 444 443
f 443 444 445
f 444 446 445
f 445 446 447
f 446 448 447
f 447 448 449
f 448 450 449
f 449 450 451
f 450 452 451
f 451 452 453
f 452 454 453
f 453 454 455
f 454 456 455
f 455 456 457
f 456 458 457
f 457 458 459
f 458 460 459
f 459 460 461
f 460 462 461
f 461 462 463
f 462 464 463
f 463 464 465
f 464 466 465
f 465 466 467
f 466 468 467
f 467 468 469
f 468 470 469
f 469 470 471
f 470 472 471
f 471 472 473
f 472 474 473
f 473 474 475
f 474 476 475
f 475 476 477
f 476 478 477
f 477 478 479
f 478 480 479
f 479 480 481
f 480 482 481
f 481 482 483
f 482 484 483
f 483 484 485
f 484 486 485
f 485 486 487
f 486 488 487
f 487 488 489
f 488 490 489
f 489 490 491
f 490 492 491
f 491 492 493
f 492 494 493
f 493 494 495
f 494 496 495
f 495 496 497
f 496 498 497
f 497 498 499
f 498 500 499
f 499 500 501
f 500 502 501
f 501 502 503
f 502 504 503
f 503 504 505
f 504 506 505
f 505 506 507
f 506 508 507
f 507 508 509
f 508 510 509
f 509 510 511
f 510 512 511
f 511 512 513
f 512 514 513
f 513 514 515
f 514 516 515
f 515 516 517
f 516 518 517
f 517 518 519
f 518 391 519
f 519 391 392
f 520 521 162
f 522 523 160
f 523 389 160
f 389 524 160
f 524 525 160
f 160 525 162
f 525 526 162
f 162 526 520
f 395 526 527
f 526 525 527
f 395 527 393
f 527 528 393
f 393 528 390
f 528 524 390
f 390 524 389
f 529 530 531
f 395 396 526
f 396 384 526
f 526 384 520
f 384 383 520
f 520 383 532
f 529 531 533
f 534 535 531
f 535 536 531
f 531 536 537
f 537 538 531
f 538 539 531
f 531 539 540
f 540 541 531
f 541 542 531
f 531 542 533
f 383 531 532
f 531 530 532
f 532 530 543
f 530 544 543
f 543 544 545
f 544 546 545
f 545 546 547
f 546 548 547
f 547 548 549
f 548 550 549
f 549 550 551
f 550 552 551
f 551 552 553
f 552 554 553
f 553 554 555
f 554 556 555
f 555 556 557
f 556 558 557
f 557 558 559
f 558 560 559
f 559 560 561
f 560 562 561
f 561 562 563
f 562 564 563
f 563 564 565
f 564 566 565
f 565 566 567
f 566 568 567
f 567 568 569
f 568 570 569
f 569 570 571
f 570 572 571
f 571 572 573
f 572 574 573
f 573 574 575
f 574 576 575
f 575 576 577
f 576 578 577
f 577 578 579
f 578 580 579
f 579 580 581
f 580 582 581
f 581 582 583
f 582 584 583
f 583 584 585
f 584 586 585
f 585 586 587
f 586 588 587
f 587 588 589
f 588 590 589
f 589 590 591
f 590 592 591
f 591 592 593
f 592 594 593
f 593 594 595
f 594 596 595
f 595 596 597
f 596 598 597
f 597 598 599
f 598 600 599
f 599 600 601
f 600 602 601
f 601 602 603
f 602 604 603
f 603 604 605
f 604 606 605
f 605 606 607
f 606 608 607
f 607 608 609
f 608 610 609
f 609 610 611
f 610 612 611
f 611 612 613
f 612 614 613
f 613 614 615
f 614 616 615
f 615 616 617
f 616 618 617
f 617 618 619
f 618 620 619
f 619 620 621
f 620 622 621
f 621 622 623
f 622 624 623
f 623 624 625
f 624 626 625
f 625 626 627
f 626 628 627
f 627 628 629
f 628 630 629
f 629 630 631
f 630 632 631
f 631 632 633
f 632 634 633
f 633 634 635
f 634 636 635
f 635 636 637
f 636 638 637
f 637 638 639
f 638 640 639
f 639 640 641
f 640 642 641
f 641 642 643
f 642 644 643
f 643 644 645
f 644 646 645
f 645 646 647
f 646 648 647
f 647 648 649
f 648 650 649
f 649 650 651
f 650 652 651
f 651 652 653
f 652 654 653
f 653 654 655
f 654 656 655
f 655 656 657
f 656 658 657
f 657 658 659
f 658 660 659
f 659 660 531
f 660 661 531
f 531 661 534
f 95 386 7
f 386 399 7
f 385 384 662
f 384 396 662
f 662 396 399
f 396 394 399
f 399 394 7
f 158 156 387
f 156 388 387
f 663 664 665
f 666 667 386
f 668 669 386
f 670 397 671
f 397 672 671
f 673 674 397
f 674 675 397
f 397 675 665
f 675 676 665
f 665 676 663
f 677 665 678
f 665 679 678
f 670 680 397
f 680 681 397
f 397 681 682
f 683 684 397
f 684 685 397
f 397 685 673
f 667 686 386
f 686 687 386
f 386 687 688
f 386 669 397
f 669 689 397
f 397 689 672
f 682 690 397
f 690 691 397
f 397 691 683
f 664 692 665
f 692 693 665
f 665 693 694
f 688 695 386
f 695 696 386
f 386 696 668
f 694 697 665
f 697 698 665
f 665 698 699
f 699 700 665
f 700 701 665
f 665 701 679
f 677 702 665
f 702 703 665
f 665 703 385
f 703 704 385
f 704 705 385
f 705 706 385
f 385 706 707
f 707 708 385
f 708 709 385
f 385 709 710
f 710 711 385
f 711 712 385
f 385 712 713
f 713 714 385
f 714 715 385
f 385 715 716
f 717 718 386
f 718 719 386
f 386 719 720
f 720 721 386
f 721 722 386
f 386 722 666
f 716 723 385
f 723 724 385
f 385 724 725
f 725 726 385
f 726 727 385
f 385 727 728
f 729 730 386
f 730 731 386
f 731 732 386
f 386 732 717
f 728 733 385
f 733 734 385
f 385 734 386
f 734 735 386
f 386 735 729
f 400 523 401
f 523 522 401
f 736 737 393
f 23 7 394
f 393 738 394
f 738 739 394
f 394 739 740
f 737 741 393
f 741 742 393
f 393 742 738
f 740 743 394
f 743 744 394
f 394 744 745
f 213 215 746
f 23 235 90
f 235 380 90
f 90 380 95
f 747 748 749
f 390 750 751
f 752 753 749
f 215 217 746
f 217 219 746
f 746 219 221
f 221 223 746
f 223 225 746
f 746 225 227
f 745 754 394
f 754 755 394
f 394 755 756
f 753 757 749
f 757 758 749
f 749 758 747
f 748 759 749
f 759 760 749
f 749 760 390
f 760 761 390
f 390 761 750
f 751 762 390
f 762 763 390
f 390 763 764
f 765 766 393
f 746 199 201
f 207 209 746
f 209 211 746
f 746 211 213
f 227 229 746
f 229 231 746
f 746 231 233
f 235 237 380
f 237 239 380
f 380 239 392
f 239 241 392
f 392 241 243
f 767 768 749
f 766 769 393
f 769 770 393
f 393 770 736
f 767 749 771
f 772 773 749
f 773 774 749
f 749 774 752
f 201 203 746
f 203 205 746
f 746 205 207
f 756 775 394
f 775 776 394
f 394 776 777
f 768 778 749
f 778 779 749
f 749 779 772
f 777 780 394
f 780 781 394
f 394 781 782
f 233 235 746
f 235 23 746
f 746 23 749
f 23 394 749
f 749 394 771
f 783 784 393
f 784 785 393
f 393 785 765
f 786 394 787
f 394 788 787
f 786 789 394
f 789 790 394
f 394 790 771
f 764 791 390
f 791 792 390
f 390 792 793
f 389 523 746
f 523 400 746
f 746 400 199
f 400 403 199
f 782 794 394
f 794 795 394
f 394 795 788
f 403 405 199
f 405 407 199
f 199 407 409
f 796 797 393
f 797 798 393
f 393 798 783
f 409 411 199
f 411 413 199
f 199 413 415
f 415 417 199
f 417 419 199
f 199 419 421
f 243 245 392
f 245 247 392
f 392 247 519
f 247 249 519
f 519 249 517
f 249 251 517
f 517 251 515
f 251 253 515
f 515 253 513
f 253 255 513
f 513 255 511
f 255 257 511
f 511 257 509
f 257 259 509
f 509 259 507
f 259 261 507
f 507 261 505
f 261 263 505
f 505 263 503
f 263 265 503
f 503 265 501
f 265 267 501
f 501 267 499
f 267 269 499
f 499 269 497
f 269 271 497
f 497 271 495
f 271 273 495
f 495 273 493
f 273 275 493
f 493 275 491
f 275 277 491
f 491 277 489
f 277 279 489
f 489 279 487
f 279 281 487
f 487 281 485
f 281 283 485
f 485 283 483
f 283 285 483
f 483 285 481
f 285 287 481
f 481 287 479
f 287 289 479
f 479 289 477
f 289 291 477
f 477 291 475
f 291 293 475
f 475 293 473
f 293 295 473
f 473 295 471
f 295 297 471
f 471 297 469
f 297 299 469
f 469 299 467
f 299 301 467
f 467 301 465
f 301 303 465
f 465 303 463
f 303 305 463
f 463 305 461
f 305 163 461
f 461 163 459
f 163 165 459
f 459 165 457
f 165 167 457
f 457 167 455
f 167 169 455
f 455 169 453
f 169 171 453
f 453 171 451
f 171 173 451
f 451 173 449
f 173 175 449
f 449 175 447
f 175 177 447
f 447 177 445
f 177 179 445
f 445 179 443
f 179 181 443
f 443 181 441
f 181 183 441
f 441 183 439
f 183 185 439
f 439 185 437
f 185 187 437
f 437 187 435
f 187 189 435
f 435 189 433
f 189 191 433
f 433 191 431
f 191 193 431
f 431 193 429
f 193 195 429
f 429 195 427
f 195 197 427
f 427 197 425
f 197 199 425
f 425 199 423
f 199 421 423
f 793 799 390
f 799 800 390
f 390 800 801
f 801 802 390
f 802 803 390
f 390 803 393
f 803 804 393
f 804 805 393
f 805 806 393
f 393 806 807
f 807 808 393
f 808 809 393
f 393 809 796
f 7 11 95
f 11 80 95
f 810 811 812
f 813 814 399
f 815 398 816
f 398 817 816
f 818 812 819
f 812 820 819
f 811 821 812
f 821 822 812
f 812 822 398
f 822 823 398
f 398 823 817
f 824 825 399
f 825 826 399
f 399 826 813
f 827 828 812
f 829 830 399
f 831 832 662
f 662 833 834
f 820 812 835
f 812 662 835
f 835 662 836
f 828 837 812
f 837 838 812
f 812 838 810
f 834 839 662
f 839 840 662
f 662 840 841
f 841 842 662
f 842 843 662
f 662 843 844
f 844 845 662
f 845 846 662
f 662 846 836
f 818 847 812
f 847 848 812
f 812 848 849
f 815 850 398
f 850 851 398
f 398 851 852
f 853 854 398
f 854 855 398
f 398 855 856
f 830 857 399
f 857 858 399
f 399 858 824
f 832 859 662
f 859 860 662
f 662 860 833
f 852 861 398
f 861 862 398
f 398 862 853
f 814 863 399
f 863 864 399
f 399 864 865
f 865 866 399
f 866 867 399
f 399 867 868
f 849 869 812
f 869 870 812
f 812 870 827
f 856 871 398
f 871 872 398
f 398 872 399
f 872 873 399
f 399 873 829
f 874 875 662
f 875 876 662
f 662 876 831
f 868 877 399
f 877 878 399
f 399 878 879
f 879 880 399
f 880 881 399
f 399 881 662
f 881 882 662
f 662 882 874
f 531 383 883
f 383 382 883
f 884 532 543
f 884 543 885
f 543 545 885
f 885 545 886
f 545 547 886
f 886 547 887
f 547 549 887
f 887 549 888
f 549 551 888
f 888 551 889
f 551 553 889
f 889 553 890
f 553 555 890
f 890 555 891
f 555 557 891
f 891 557 892
f 557 559 892
f 892 559 893
f 559 561 893
f 893 561 894
f 561 563 894
f 894 563 895
f 563 565 895
f 895 565 896
f 565 567 896
f 896 567 897
f 567 569 897
f 897 569 898
f 569 571 898
f 898 571 899
f 571 573 899
f 899 573 900
f 573 575 900
f 900 575 901
f 575 577 901
f 901 577 902
f 577 579 902
f 902 579 903
f 579 581 903
f 903 581 904
f 581 583 904
f 904 583 905
f 583 585 905
f 905 585 906
f 585 587 906
f 906 587 907
f 587 589 907
f 907 589 908
f 589 591 908
f 908 591 909
f 591 593 909
f 909 593 910
f 593 595 910
f 910 595 911
f 595 597 911
f 911 597 912
f 597 599 912
f 912 599 913
f 599 601 913
f 913 601 914
f 601 603 914
f 914 603 915
f 603 605 915
f 915 605 916
f 605 607 916
f 916 607 917
f 607 609 917
f 917 609 918
f 609 611 918
f 918 611 919
f 611 613 919
f 919 613 920
f 613 615 920
f 920 615 921
f 615 617 921
f 921 617 922
f 617 619 922
f 922 619 923
f 619 621 923
f 923 621 924
f 621 623 924
f 924 623 925
f 623 625 925
f 925 625 926
f 625 627 926
f 926 627 927
f 627 629 927
f 927 629 928
f 629 631 928
f 928 631 929
f 631 633 929
f 929 633 930
f 633 635 930
f 930 635 931
f 635 637 931
f 931 637 932
f 637 639 932
f 932 639 933
f 639 641 933
f 933 641 934
f 641 643 934
f 934 643 935
f 643 645 935
f 935 645 936
f 645 647 936
f 936 647 937
f 647 649 937
f 937 649 938
f 649 651 938
f 938 651 939
f 651 653 939
f 939 653 940
f 653 655 940
f 940 655 941
f 655 657 941
f 941 657 942
f 657 659 942
f 942 659 943
f 659 531 943
f 943 531 883
f 944 602 945
f 602 600 945
f 945 600 946
f 600 598 946
f 946 598 947
f 598 596 947
f 947 596 948
f 596 594 948
f 948 594 949
f 594 592 949
f 949 592 950
f 592 590 950
f 950 590 951
f 590 588 951
f 951 588 952
f 588 586 952
f 952 586 953
f 586 584 953
f 953 584 954
f 584 582 954
f 954 582 955
f 582 580 955
f 955 580 956
f 580 578 956
f 956 578 957
f 578 576 957
f 957 576 958
f 576 574 958
f 958 574 959
f 574 572 959
f 959 572 960
f 572 570 960
f 960 570 961
f 570 568 961
f 961 568 962
f 568 566 962
f 962 566 963
f 566 564 963
f 963 564 964
f 564 562 964
f 964 562 965
f 562 560 965
f 965 560 966
f 560 558 966
f 966 558 967
f 558 556 967
f 967 556 968
f 556 554 968
f 968 554 969
f 554 552 969
f 969 552 970
f 552 550 970
f 970 550 971
f 550 548 971
f 971 548 972
f 548 546 972
f 972 546 973
f 546 544 973
f 973 544 974
f 544 530 974
f 974 530 975
f 530 529 975
f 975 529 976
f 529 533 976
f 976 533 977
f 533 542 977
f 977 542 978
f 542 541 978
f 978 541 979
f 541 540 979
f 979 540 980
f 540 539 980
f 980 539 981
f 539 538 981
f 981 538 982
f 538 537 982
f 982 537 983
f 537 536 983
f 983 536 984
f 536 535 984
f 984 535 985
f 535 534 985
f 985 534 986
f 534 661 986
f 986 661 987
f 661 660 987
f 987 660 988
f 660 658 988
f 988 658 989
f 658 656 989
f 989 656 990
f 656 654 990
f 990 654 991
f 654 652 991
f 991 652 992
f 652 650 992
f 992 650 993
f 650 648 993
f 993 648 994
f 648 646 994
f 994 646 995
f 646 644 995
f 995 644 996
f 644 642 996
f 996 642 997
f 642 640 997
f 997 640 998
f 640 638 998
f 998 638 999
f 638 636 999
f 999 636 1000
f 636 634 1000
f 1000 634 1001
f 634 632 1001
f 1001 632 1002
f 632 630 1002
f 1002 630 1003
f 630 628 1003
f 1003 628 1004
f 628 626 1004
f 1004 626 1005
f 626 624 1005
f 1005 624 1006
f 624 622 1006
f 1006 622 1007
f 622 620 1007
f 1007 620 1008
f 620 618 1008
f 1008 618 1009
f 618 616 1009
f 1009 616 1010
f 616 614 1010
f 1010 614 1011
f 614 612 1011
f 1011 612 1012
f 612 610 1012
f 1012 610 1013
f 610 608 1013
f 1013 608 1014
f 608 606 1014
f 1014 606 1015
f 606 604 1015
f 1015 604 944
f 604 602 944
f 310 738 311
f 738 742 311
f 311 742 378
f 742 741 378
f 378 741 379
f 741 737 379
f 379 737 375
f 737 736 375
f 375 736 376
f 736 770 376
f 376 770 377
f 770 769 377
f 377 769 372
f 769 766 372
f 372 766 373
f 766 765 373
f 373 765 374
f 765 785 374
f 374 785 369
f 785 784 369
f 369 784 370
f 784 783 370
f 370 783 371
f 783 798 371
f 371 798 366
f 798 797 366
f 366 797 367
f 797 796 367
f 367 796 368
f 796 809 368
f 368 809 363
f 809 808 363
f 363 808 364
f 808 807 364
f 364 807 365
f 807 806 365
f 365 806 360
f 806 805 360
f 360 805 361
f 805 804 361
f 361 804 362
f 804 803 362
f 362 803 357
f 803 802 357
f 357 802 358
f 802 801 358
f 358 801 359
f 801 800 359
f 359 800 354
f 800 799 354
f 354 799 355
f 799 793 355
f 355 793 356
f 793 792 356
f 356 792 351
f 792 791 351
f 351 791 352
f 791 764 352
f 352 764 353
f 764 763 353
f 353 763 348
f 763 762 348
f 348 762 349
f 762 751 349
f 349 751 350
f 751 750 350
f 350 750 345
f 750 761 345
f 345 761 346
f 761 760 346
f 346 760 347
f 760 759 347
f 347 759 342
f 759 748 342
f 342 748 343
f 748 747 343
f 343 747 344
f 747 758 344
f 344 758 339
f 758 757 339
f 339 757 340
f 757 753 340
f 340 753 341
f 753 752 341
f 341 752 336
f 752 774 336
f 336 774 337
f 774 773 337
f 337 773 338
f 773 772 338
f 338 772 333
f 772 779 333
f 333 779 334
f 779 778 334
f 334 778 335
f 778 768 335
f 335 768 330
f 768 767 330
f 330 767 331
f 767 771 331
f 331 771 332
f 771 790 332
f 332 790 327
f 790 789 327
f 327 789 328
f 789 786 328
f 328 786 329
f 786 787 329
f 329 787 324
f 787 788 324
f 324 788 325
f 788 795 325
f 325 795 326
f 795 794 326
f 326 794 321
f 794 782 321
f 321 782 322
f 782 781 322
f 322 781 323
f 781 780 323
f 323 780 318
f 780 777 318
f 318 777 319
f 777 776 319
f 319 776 320
f 776 775 320
f 320 775 315
f 775 756 315
f 315 756 316
f 756 755 316
f 316 755 317
f 755 754 317
f 317 754 312
f 754 745 312
f 312 745 313
f 745 744 313
f 313 744 314
f 744 743 314
f 314 743 307
f 743 740 307
f 307 740 308
f 740 739 308
f 308 739 310
f 739 738 310
f 155 157 749
f 157 746 749
f 160 159 522
f 159 381 522
f 522 381 401
f 381 391 401
f 401 391 402
f 391 422 420
f 420 418 391
f 418 416 391
f 391 416 414
f 414 412 391
f 412 410 391
f 391 410 408
f 391 226 224
f 391 224 422
f 224 222 422
f 422 222 220
f 408 406 391
f 406 404 391
f 391 404 402
f 391 246 244
f 232 230 391
f 230 228 391
f 391 228 226
f 422 214 212
f 212 210 422
f 210 208 422
f 422 208 206
f 244 242 391
f 242 240 391
f 391 240 238
f 238 236 391
f 236 234 391
f 391 234 232
f 220 218 422
f 218 216 422
f 422 216 214
f 206 204 422
f 204 202 422
f 422 202 424
f 202 200 424
f 424 200 426
f 200 198 426
f 426 198 428
f 198 196 428
f 428 196 430
f 196 194 430
f 430 194 432
f 194 192 432
f 432 192 434
f 192 190 434
f 434 190 436
f 190 188 436
f 436 188 438
f 188 186 438
f 438 186 440
f 186 184 440
f 440 184 442
f 184 182 442
f 442 182 444
f 182 180 444
f 444 180 446
f 180 178 446
f 446 178 448
f 178 176 448
f 448 176 450
f 176 174 450
f 450 174 452
f 174 172 452
f 452 172 454
f 172 170 454
f 454 170 456
f 170 168 456
f 456 168 458
f 168 166 458
f 458 166 460
f 166 164 460
f 460 164 462
f 164 306 462
f 462 306 464
f 306 304 464
f 464 304 466
f 304 302 466
f 466 302 468
f 302 300 468
f 468 300 470
f 300 298 470
f 470 298 472
f 298 296 472
f 472 296 474
f 296 294 474
f 474 294 476
f 294 292 476
f 476 292 478
f 292 290 478
f 478 290 480
f 290 288 480
f 480 288 482
f 288 286 482
f 482 286 484
f 286 284 484
f 484 284 486
f 284 282 486
f 486 282 488
f 282 280 488
f 488 280 490
f 280 278 490
f 490 278 492
f 278 276 492
f 492 276 494
f 276 274 494
f 494 274 496
f 274 272 496
f 496 272 498
f 272 270 498
f 498 270 500
f 270 268 500
f 500 268 502
f 268 266 502
f 502 266 504
f 266 264 504
f 504 264 506
f 264 262 506
f 506 262 508
f 262 260 508
f 508 260 510
f 260 258 510
f 510 258 512
f 258 256 512
f 512 256 514
f 256 254 514
f 514 254 516
f 254 252 516
f 516 252 518
f 252 250 518
f 518 250 391
f 250 248 391
f 391 248 246
f 161 162 521
f 883 980 981
f 963 964 884
f 883 382 980
f 382 161 980
f 980 161 979
f 161 521 979
f 979 521 978
f 521 977 978
f 981 982 883
f 982 983 883
f 883 983 984
f 964 965 884
f 965 966 884
f 884 966 967
f 973 974 884
f 974 975 884
f 884 975 521
f 975 976 521
f 521 976 977
f 967 968 884
f 968 969 884
f 884 969 970
f 970 971 884
f 971 972 884
f 884 972 973
f 891 962 890
f 962 889 890
f 891 892 962
f 892 893 962
f 962 893 894
f 963 884 962
f 884 885 962
f 962 885 886
f 894 895 962
f 895 896 962
f 962 896 961
f 896 897 961
f 961 897 960
f 897 898 960
f 960 898 959
f 898 899 959
f 959 899 958
f 899 900 958
f 958 900 957
f 900 901 957
f 957 901 956
f 901 902 956
f 956 902 955
f 902 903 955
f 955 903 954
f 903 904 954
f 954 904 953
f 904 905 953
f 953 905 952
f 905 906 952
f 952 906 951
f 906 907 951
f 951 907 950
f 907 908 950
f 950 908 949
f 908 909 949
f 949 909 948
f 909 910 948
f 948 910 947
f 910 911 947
f 947 911 946
f 911 912 946
f 946 912 945
f 912 913 945
f 945 913 944
f 913 914 944
f 944 914 1015
f 914 915 1015
f 1015 915 1014
f 915 916 1014
f 1014 916 1013
f 916 917 1013
f 1013 917 1012
f 917 918 1012
f 1012 918 1011
f 918 919 1011
f 1011 919 1010
f 919 920 1010
f 1010 920 1009
f 920 921 1009
f 1009 921 1008
f 921 922 1008
f 1008 922 1007
f 922 923 1007
f 1007 923 1006
f 923 924 1006
f 1006 924 1005
f 924 925 1005
f 1005 925 1004
f 925 926 1004
f 1004 926 1003
f 926 927 1003
f 1003 927 1002
f 927 928 1002
f 1002 928 1001
f 928 929 1001
f 1001 929 1000
f 929 930 1000
f 1000 930 999
f 930 931 999
f 999 931 998
f 931 932 998
f 998 932 997
f 932 933 997
f 997 933 996
f 933 934 996
f 996 934 995
f 934 935 995
f 995 935 994
f 935 936 994
f 994 936 993
f 936 937 993
f 993 937 992
f 937 938 992
f 992 938 991
f 938 939 991
f 991 939 990
f 939 940 990
f 990 940 989
f 940 941 989
f 989 941 988
f 941 942 988
f 988 942 987
f 942 943 987
f 987 943 986
f 943 883 986
f 986 883 985
f 883 984 985
f 886 887 962
f 887 888 962
f 962 888 889
f 521 520 884
f 520 532 884
f 830 696 857
f 696 695 857
f 857 695 858
f 695 688 858
f 858 688 824
f 688 687 824
f 824 687 825
f 687 686 825
f 825 686 826
f 686 667 826
f 826 667 813
f 667 666 813
f 813 666 814
f 666 722 814
f 814 722 863
f 722 721 863
f 863 721 864
f 721 720 864
f 864 720 865
f 720 719 865
f 865 719 866
f 719 718 866
f 866 718 867
f 718 717 867
f 867 717 868
f 717 732 868
f 868 732 877
f 732 731 877
f 877 731 878
f 731 730 878
f 878 730 879
f 730 729 879
f 879 729 880
f 729 735 880
f 880 735 881
f 735 734 881
f 881 734 882
f 734 733 882
f 882 733 874
f 733 728 874
f 874 728 875
f 728 727 875
f 875 727 876
f 727 726 876
f 876 726 831
f 726 725 831
f 831 725 832
f 725 724 832
f 832 724 859
f 724 723 859
f 859 723 860
f 723 716 860
f 860 716 833
f 716 715 833
f 833 715 834
f 715 714 834
f 834 714 839
f 714 713 839
f 839 713 840
f 713 712 840
f 840 712 841
f 712 711 841
f 841 711 842
f 711 710 842
f 842 710 843
f 710 709 843
f 843 709 844
f 709 708 844
f 844 708 845
f 708 707 845
f 845 707 846
f 707 706 846
f 846 706 836
f 706 705 836
f 836 705 835
f 705 704 835
f 835 704 820
f 704 703 820
f 820 703 819
f 703 702 819
f 819 702 818
f 702 677 818
f 818 677 847
f 677 678 847
f 847 678 848
f 678 679 848
f 848 679 849
f 679 701 849
f 849 701 869
f 701 700 869
f 869 700 870
f 700 699 870
f 870 699 827
f 699 698 827
f 827 698 828
f 698 697 828
f 828 697 837
f 697 694 837
f 837 694 838
f 694 693 838
f 838 693 810
f 693 692 810
f 810 692 811
f 692 664 811
f 811 664 821
f 664 663 821
f 821 663 822
f 663 676 822
f 822 676 823
f 676 675 823
f 823 675 817
f 675 674 817
f 817 674 816
f 674 673 816
f 816 673 815
f 673 685 815
f 815 685 850
f 685 684 850
f 850 684 851
f 684 683 851
f 851 683 852
f 683 691 852
f 852 691 861
f 691 690 861
f 861 690 862
f 690 682 862
f 862 682 853
f 682 681 853
f 853 681 854
f 681 680 854
f 854 680 855
f 680 670 855
f 855 670 856
f 670 671 856
f 856 671 871
f 671 672 871
f 871 672 872
f 672 689 872
f 872 689 873
f 689 669 873
f 873 669 829
f 669 668 829
f 829 668 830
f 668 696 830
f 1016 1017 528
f 1017 524 528
f 1018 1019 389
f 1020 1021 158
f 1022 1023 157
f 1024 1025 158
f 1025 1026 158
f 158 1026 157
f 1026 1027 157
f 157 1027 1022
f 1028 1029 387
f 1021 1030 158
f 1030 1031 158
f 158 1031 1024
f 1032 1033 387
f 1033 1034 387
f 387 1034 1035
f 1035 1036 387
f 1036 1037 387
f 387 1037 1038
f 1039 1040 387
f 1040 1041 387
f 387 1041 1032
f 1038 1042 387
f 1042 1043 387
f 387 1043 1028
f 158 1044 1045
f 1045 1046 158
f 1046 1047 158
f 158 1047 1048
f 1023 1049 157
f 1049 1050 157
f 157 1050 1051
f 1052 1053 746
f 1019 1054 389
f 1054 1055 389
f 389 1055 387
f 1055 1056 387
f 387 1056 1039
f 1029 1057 387
f 1057 1058 387
f 387 1058 158
f 1058 1059 158
f 158 1059 1044
f 158 1060 1061
f 1051 1062 157
f 1062 1063 157
f 157 1063 1064
f 1065 1066 158
f 1066 1067 158
f 158 1067 1060
f 1061 1068 158
f 1068 1069 158
f 158 1069 1020
f 1064 1070 157
f 1070 1071 157
f 157 1071 1072
f 1053 1073 746
f 1073 1074 746
f 746 1074 1075
f 746 1076 389
f 1076 1077 389
f 1077 1078 389
f 1078 1079 389
f 389 1079 1018
f 1072 1080 157
f 1080 1081 157
f 157 1081 1082
f 1075 1083 746
f 1083 1084 746
f 746 1084 1076
f 1048 1085 158
f 1085 1086 158
f 158 1086 1065
f 1082 1087 157
f 1087 1088 157
f 157 1088 746
f 1088 1089 746
f 746 1089 1052
f 33 82 67
f 82 81 67
f 67 81 68
f 81 92 68
f 68 92 69
f 92 91 69
f 69 91 60
f 91 149 60
f 60 149 61
f 149 148 61
f 61 148 70
f 148 147 70
f 70 147 71
f 147 146 71
f 71 146 62
f 146 145 62
f 62 145 63
f 145 127 63
f 63 127 72
f 127 126 72
f 72 126 73
f 126 139 73
f 73 139 74
f 139 151 74
f 74 151 75
f 151 150 75
f 75 150 76
f 150 118 76
f 76 118 50
f 118 117 50
f 50 117 51
f 117 116 51
f 51 116 52
f 116 115 52
f 52 115 64
f 115 114 64
f 64 114 65
f 114 125 65
f 65 125 66
f 125 124 66
f 66 124 39
f 124 123 39
f 39 123 40
f 123 89 40
f 40 89 41
f 89 88 41
f 41 88 42
f 88 113 42
f 42 113 53
f 113 112 53
f 53 112 54
f 112 99 54
f 54 99 21
f 99 98 21
f 21 98 22
f 98 97 22
f 22 97 43
f 97 96 43
f 43 96 8
f 96 94 8
f 8 94 9
f 94 93 9
f 9 93 10
f 93 122 10
f 10 122 16
f 122 121 16
f 16 121 17
f 121 111 17
f 17 111 5
f 111 110 5
f 5 110 6
f 110 109 6
f 6 109 12
f 109 108 12
f 12 108 13
f 108 87 13
f 13 87 18
f 87 86 18
f 18 86 19
f 86 85 19
f 19 85 20
f 85 138 20
f 20 138 44
f 138 137 44
f 44 137 45
f 137 120 45
f 45 120 34
f 120 119 34
f 34 119 35
f 119 144 35
f 35 144 55
f 144 143 55
f 55 143 56
f 143 136 56
f 56 136 38
f 136 135 38
f 38 135 37
f 135 134 37
f 37 134 36
f 134 107 36
f 36 107 77
f 107 106 77
f 77 106 78
f 106 154 78
f 78 154 79
f 154 153 79
f 79 153 57
f 153 152 57
f 57 152 46
f 152 142 46
f 46 142 47
f 142 141 47
f 47 141 58
f 141 140 58
f 58 140 59
f 140 133 59
f 59 133 14
f 133 132 14
f 14 132 15
f 132 131 15
f 15 131 48
f 131 130 48
f 48 130 49
f 130 129 49
f 49 129 24
f 129 128 24
f 24 128 25
f 128 105 25
f 25 105 26
f 105 104 26
f 26 104 27
f 104 103 27
f 27 103 28
f 103 102 28
f 28 102 29
f 102 101 29
f 29 101 30
f 101 100 30
f 30 100 31
f 100 84 31
f 31 84 32
f 84 83 32
f 32 83 33
f 83 82 33
f 1090 1091 1016
f 1092 527 1093
f 527 1094 1093
f 1093 1094 1095
f 1094 1096 1095
f 1092 1097 527
f 1097 1098 527
f 527 1098 1099
f 1100 1101 1094
f 1101 1102 1094
f 1094 1102 1103
f 1103 1104 1094
f 1104 1105 1094
f 1094 1105 1096
f 1099 1106 527
f 1106 1107 527
f 527 1107 1108
f 527 1109 1110
f 1110 1111 527
f 1111 1112 527
f 527 1112 1113
f 528 1114 1016
f 1114 1115 1016
f 1016 1115 1090
f 1091 1116 1016
f 1116 1117 1016
f 1016 1117 1118
f 1118 1119 1016
f 1119 1120 1016
f 1016 1120 1121
f 1122 1094 1123
f 1094 1124 1123
f 1122 1125 1094
f 1125 1126 1094
f 1094 1126 1127
f 1127 1128 1094
f 1128 1129 1094
f 1094 1129 1100
f 1108 1130 527
f 1130 1131 527
f 527 1131 1132
f 1133 1134 528
f 1134 1135 528
f 528 1135 1114
f 1016 1136 1094
f 1136 1137 1094
f 1094 1137 1124
f 1132 1138 527
f 1138 1139 527
f 527 1139 1109
f 1113 1140 527
f 1140 1141 527
f 527 1141 528
f 1141 1142 528
f 528 1142 1143
f 1143 1144 528
f 1144 1145 528
f 528 1145 1146
f 1146 1147 528
f 1147 1148 528
f 528 1148 1149
f 1149 1150 528
f 1150 1151 528
f 528 1151 1152
f 1121 1153 1016
f 1153 1154 1016
f 1016 1154 1155
f 1156 1157 1016
f 1157 1158 1016
f 1016 1158 1136
f 1152 1159 528
f 1159 1160 528
f 528 1160 1133
f 1155 1161 1016
f 1161 1162 1016
f 1016 1162 1156
f 1163 1094 525
f 1094 527 525
f 1164 1024 1165
f 1024 1031 1165
f 1165 1031 1166
f 1031 1030 1166
f 1166 1030 1167
f 1030 1021 1167
f 1167 1021 1168
f 1021 1020 1168
f 1168 1020 1169
f 1020 1069 1169
f 1169 1069 1170
f 1069 1068 1170
f 1170 1068 1171
f 1068 1061 1171
f 1171 1061 1172
f 1061 1060 1172
f 1172 1060 1173
f 1060 1067 1173
f 1173 1067 1174
f 1067 1066 1174
f 1174 1066 1175
f 1066 1065 1175
f 1175 1065 1176
f 1065 1086 1176
f 1176 1086 1177
f 1086 1085 1177
f 1177 1085 1178
f 1085 1048 1178
f 1178 1048 1179
f 1048 1047 1179
f 1179 1047 1180
f 1047 1046 1180
f 1180 1046 1181
f 1046 1045 1181
f 1181 1045 1182
f 1045 1044 1182
f 1182 1044 1183
f 1044 1059 1183
f 1183 1059 1184
f 1059 1058 1184
f 1184 1058 1185
f 1058 1057 1185
f 1185 1057 1186
f 1057 1029 1186
f 1186 1029 1187
f 1029 1028 1187
f 1187 1028 1188
f 1028 1043 1188
f 1188 1043 1189
f 1043 1042 1189
f 1189 1042 1190
f 1042 1038 1190
f 1190 1038 1191
f 1038 1037 1191
f 1191 1037 1192
f 1037 1036 1192
f 1192 1036 1193
f 1036 1035 1193
f 1193 1035 1194
f 1035 1034 1194
f 1194 1034 1195
f 1034 1033 1195
f 1195 1033 1196
f 1033 1032 1196
f 1196 1032 1197
f 1032 1041 1197
f 1197 1041 1198
f 1041 1040 1198
f 1198 1040 1199
f 1040 1039 1199
f 1199 1039 1200
f 1039 1056 1200
f 1200 1056 1201
f 1056 1055 1201
f 1201 1055 1202
f 1055 1054 1202
f 1202 1054 1203
f 1054 1019 1203
f 1203 1019 1204
f 1019 1018 1204
f 1204 1018 1205
f 1018 1079 1205
f 1205 1079 1206
f 1079 1078 1206
f 1206 1078 1207
f 1078 1077 1207
f 1207 1077 1208
f 1077 1076 1208
f 1208 1076 1209
f 1076 1084 1209
f 1209 1084 1210
f 1084 1083 1210
f 1210 1083 1211
f 1083 1075 1211
f 1211 1075 1212
f 1075 1074 1212
f 1212 1074 1213
f 1074 1073 1213
f 1213 1073 1214
f 1073 1053 1214
f 1214 1053 1215
f 1053 1052 1215
f 1215 1052 1216
f 1052 1089 1216
f 1216 1089 1217
f 1089 1088 1217
f 1217 1088 1218
f 1088 1087 1218
f 1218 1087 1219
f 1087 1082 1219
f 1219 1082 1220
f 1082 1081 1220
f 1220 1081 1221
f 1081 1080 1221
f 1221 1080 1222
f 1080 1072 1222
f 1222 1072 1223
f 1072 1071 1223
f 1223 1071 1224
f 1071 1070 1224
f 1224 1070 1225
f 1070 1064 1225
f 1225 1064 1226
f 1064 1063 1226
f 1226 1063 1227
f 1063 1062 1227
f 1227 1062 1228
f 1062 1051 1228
f 1228 1051 1229
f 1051 1050 1229
f 1229 1050 1230
f 1050 1049 1230
f 1230 1049 1231
f 1049 1023 1231
f 1231 1023 1232
f 1023 1022 1232
f 1232 1022 1233
f 1022 1027 1233
f 1233 1027 1234
f 1027 1026 1234
f 1234 1026 1235
f 1026 1025 1235
f 1235 1025 1164
f 1025 1024 1164
f 1236 1237 525
f 1238 1239 1017
f 1239 1240 1017
f 1240 1241 1017
f 1017 1241 524
f 1241 1242 524
f 524 1242 1243
f 1243 1244 524
f 1244 1245 524
f 524 1245 1246
f 524 1247 1248
f 1237 1249 525
f 1249 1250 525
f 525 1250 1163
f 1017 1251 1252
f 1248 1253 524
f 1253 1254 524
f 524 1254 1255
f 1255 1256 524
f 1256 1257 524
f 524 1257 1258
f 1258 1259 524
f 1259 1260 524
f 524 1260 525
f 1260 1261 525
f 525 1261 1262
f 1262 1263 525
f 1263 1264 525
f 525 1264 1265
f 1265 1266 525
f 1266 1267 525
f 525 1267 1268
f 1269 525 1270
f 525 1271 1270
f 1269 1272 525
f 1272 1273 525
f 525 1273 1236
f 1250 1274 1163
f 1274 1275 1163
f 1163 1275 1276
f 1163 1277 1017
f 1277 1278 1017
f 1017 1278 1279
f 1246 1280 524
f 1280 1281 524
f 524 1281 1247
f 1276 1282 1163
f 1282 1283 1163
f 1163 1283 1284
f 1284 1285 1163
f 1285 1286 1163
f 1163 1286 1287
f 1279 1288 1017
f 1288 1289 1017
f 1017 1289 1290
f 1252 1291 1017
f 1291 1292 1017
f 1017 1292 1293
f 1293 1294 1017
f 1294 1295 1017
f 1017 1295 1238
f 1268 1296 525
f 1296 1297 525
f 525 1297 1271
f 1287 1298 1163
f 1298 1299 1163
f 1163 1299 1300
f 1300 1301 1163
f 1301 1302 1163
f 1163 1302 1303
f 1303 1304 1163
f 1304 1305 1163
f 1163 1305 1277
f 1290 1306 1017
f 1306 1307 1017
f 1017 1307 1251
f 1016 1094 1017
f 1094 1163 1017
f 812 665 662
f 665 385 662
f 665 812 397
f 812 398 397
f 1115 1241 1090
f 1241 1240 1090
f 1090 1240 1091
f 1240 1239 1091
f 1091 1239 1116
f 1239 1238 1116
f 1116 1238 1117
f 1238 1295 1117
f 1117 1295 1118
f 1295 1294 1118
f 1118 1294 1119
f 1294 1293 1119
f 1119 1293 1120
f 1293 1292 1120
f 1120 1292 1121
f 1292 1291 1121
f 1121 1291 1153
f 1291 1252 1153
f 1153 1252 1154
f 1252 1251 1154
f 1154 1251 1155
f 1251 1307 1155
f 1155 1307 1161
f 1307 1306 1161
f 1161 1306 1162
f 1306 1290 1162
f 1162 1290 1156
f 1290 1289 1156
f 1156 1289 1157
f 1289 1288 1157
f 1157 1288 1158
f 1288 1279 1158
f 1158 1279 1136
f 1279 1278 1136
f 1136 1278 1137
f 1278 1277 1137
f 1137 1277 1124
f 1277 1305 1124
f 1124 1305 1123
f 1305 1304 1123
f 1123 1304 1122
f 1304 1303 1122
f 1122 1303 1125
f 1303 1302 1125
f 1125 1302 1126
f 1302 1301 1126
f 1126 1301 1127
f 1301 1300 1127
f 1127 1300 1128
f 1300 1299 1128
f 1128 1299 1129
f 1299 1298 1129
f 1129 1298 1100
f 1298 1287 1100
f 1100 1287 1101
f 1287 1286 1101
f 1101 1286 1102
f 1286 1285 1102
f 1102 1285 1103
f 1285 1284 1103
f 1103 1284 1104
f 1284 1283 1104
f 1104 1283 1105
f 1283 1282 1105
f 1105 1282 1096
f 1282 1276 1096
f 1096 1276 1095
f 1276 1275 1095
f 1095 1275 1093
f 1275 1274 1093
f 1093 1274 1092
f 1274 1250 1092
f 1092 1250 1097
f 1250 1249 1097
f 1097 1249 1098
f 1249 1237 1098
f 1098 1237 1099
f 1237 1236 1099
f 1099 1236 1106
f 1236 1273 1106
f 1106 1273 1107
f 1273 1272 1107
f 1107 1272 1108
f 1272 1269 1108
f 1108 1269 1130
f 1269 1270 1130
f 1130 1270 1131
f 1270 1271 1131
f 1131 1271 1132
f 1271 1297 1132
f 1132 1297 1138
f 1297 1296 1138
f 1138 1296 1139
f 1296 1268 1139
f 1139 1268 1109
f 1268 1267 1109
f 1109 1267 1110
f 1267 1266 1110
f 1110 1266 1111
f 1266 1265 1111
f 1111 1265 1112
f 1265 1264 1112
f 1112 1264 1113
f 1264 1263 1113
f 1113 1263 1140
f 1263 1262 1140
f 1140 1262 1141
f 1262 1261 1141
f 1141 1261 1142
f 1261 1260 1142
f 1142 1260 1143
f 1260 1259 1143
f 1143 1259 1144
f 1259 1258 1144
f 1144 1258 1145
f 1258 1257 1145
f 1145 1257 1146
f 1257 1256 1146
f 1146 1256 1147
f 1256 1255 1147
f 1147 1255 1148
f 1255 1254 1148
f 1148 1254 1149
f 1254 1253 1149
f 1149 1253 1150
f 1253 1248 1150
f 1150 1248 1151
f 1248 1247 1151
f 1151 1247 1152
f 1247 1281 1152
f 1152 1281 1159
f 1281 1280 1159
f 1159 1280 1160
f 1280 1246 1160
f 1160 1246 1133
f 1246 1245 1133
f 1133 1245 1134
f 1245 1244 1134
f 1134 1244 1135
f 1244 1243 1135
f 1135 1243 1114
f 1243 1242 1114
f 1114 1242 1115
f 1242 1241 1115
f 1168 1169 156
f 1196 1197 388
f 388 1200 390
f 1200 1201 390
f 390 1201 1202
f 1223 1224 155
f 1191 1192 388
f 1192 1193 388
f 1197 1198 388
f 1198 1199 388
f 388 1199 1200
f 1185 1186 388
f 1186 1187 388
f 388 1187 1188
f 1193 1194 388
f 1194 1195 388
f 388 1195 1196
f 1202 1203 390
f 1203 1204 390
f 390 1204 1205
f 1227 1228 155
f 1228 1229 155
f 1234 156 1233
f 156 155 1233
f 1233 155 1232
f 1234 1235 156
f 1235 1164 156
f 156 1164 1165
f 1165 1166 156
f 1166 1167 156
f 156 1167 1168
f 1179 1180 156
f 1180 1181 156
f 1188 1189 388
f 1189 1190 388
f 388 1190 1191
f 1229 1230 155
f 1230 1231 155
f 155 1231 1232
f 156 1172 1173
f 1181 1182 156
f 1182 1183 156
f 156 1183 388
f 1183 1184 388
f 388 1184 1185
f 1214 749 1213
f 749 1212 1213
f 1224 1225 155
f 1225 1226 155
f 155 1226 1227
f 1169 1170 156
f 1170 1171 156
f 156 1171 1172
f 1205 1206 390
f 1206 1207 390
f 390 1207 749
f 1207 1208 749
f 749 1208 1209
f 1219 1220 155
f 1209 1210 749
f 1210 1211 749
f 749 1211 1212
f 1219 155 1218
f 1220 1221 155
f 1221 1222 155
f 155 1222 1223
f 1173 1174 156
f 1174 1175 156
f 156 1175 1176
f 1176 1177 156
f 1177 1178 156
f 156 1178 1179
f 1214 1215 749
f 1215 1216 749
f 749 1216 155
f 1216 1217 155
f 155 1217 1218

