# https://github.com/mikedh/trimesh
v 0.00200000 0.00000000 -0.00400000
v 0.00200000 -0.00000000 0.00400000
v 0.00199239 0.00017431 -0.00400000
v 0.00199239 0.00017431 0.00400000
v 0.00196962 0.00034730 -0.00400000
v 0.00196962 0.00034730 0.00400000
v 0.00193185 0.00051764 -0.00400000
v 0.00193185 0.00051764 0.00400000
v 0.00187939 0.00068404 -0.00400000
v 0.00187939 0.00068404 0.00400000
v 0.00181262 0.00084524 -0.00400000
v 0.00181262 0.00084524 0.00400000
v 0.00173205 0.00100000 -0.00400000
v 0.00173205 0.00100000 0.00400000
v 0.00163830 0.00114715 -0.00400000
v 0.00163830 0.00114715 0.00400000
v 0.00153209 0.00128558 -0.00400000
v 0.00153209 0.00128558 0.00400000
v 0.00141421 0.00141421 -0.00400000
v 0.00141421 0.00141421 0.00400000
v 0.00128558 0.00153209 -0.00400000
v 0.00128558 0.00153209 0.00400000
v 0.00114715 0.00163830 -0.00400000
v 0.00114715 0.00163830 0.00400000
v 0.00100000 0.00173205 -0.00400000
v 0.00100000 0.00173205 0.00400000
v 0.00084524 0.00181262 -0.00400000
v 0.00084524 0.00181262 0.00400000
v 0.00068404 0.00187939 -0.00400000
v 0.00068404 0.00187939 0.00400000
v 0.00051764 0.00193185 -0.00400000
v 0.00051764 0.00193185 0.00400000
v 0.00034730 0.00196962 -0.00400000
v 0.00034730 0.00196962 0.00400000
v 0.00017431 0.00199239 -0.00400000
v 0.00017431 0.00199239 0.00400000
v 0.00000000 0.00200000 -0.00400000
v 0.00000000 0.00200000 0.00400000
v -0.00017431 0.00199239 -0.00400000
v -0.00017431 0.00199239 0.00400000
v -0.00034730 0.00196962 -0.00400000
v -0.00034730 0.00196962 0.00400000
v -0.00051764 0.00193185 -0.00400000
v -0.00051764 0.00193185 0.00400000
v -0.00068404 0.00187939 -0.00400000
v -0.00068404 0.00187939 0.00400000
v -0.00084524 0.00181262 -0.00400000
v -0.00084524 0.00181262 0.00400000
v -0.00100000 0.00173205 -0.00400000
v -0.00100000 0.00173205 0.00400000
v -0.00114715 0.00163830 -0.00400000
v -0.00114715 0.00163830 0.00400000
v -0.00128558 0.00153209 -0.00400000
v -0.00128558 0.00153209 0.00400000
v -0.00141421 0.00141421 -0.00400000
v -0.00141421 0.00141421 0.00400000
v -0.00153209 0.00128558 -0.00400000
v -0.00153209 0.00128558 0.00400000
v -0.00163830 0.00114715 -0.00400000
v -0.00163830 0.00114715 0.00400000
v -0.00173205 0.00100000 -0.00400000
v -0.00173205 0.00100000 0.00400000
v -0.00181262 0.00084524 -0.00400000
v -0.00181262 0.00084524 0.00400000
v -0.00187939 0.00068404 -0.00400000
v -0.00187939 0.00068404 0.00400000
v -0.00193185 0.00051764 -0.00400000
v -0.00193185 0.00051764 0.00400000
v -0.00196962 0.00034730 -0.00400000
v -0.00196962 0.00034730 0.00400000
v -0.00199239 0.00017431 -0.00400000
v -0.00199239 0.00017431 0.00400000
v -0.00200000 0.00000000 -0.00400000
v -0.00200000 0.00000000 0.00400000
v -0.00199239 -0.00017431 -0.00400000
v -0.00199239 -0.00017431 0.00400000
v -0.00196962 -0.00034730 -0.00400000
v -0.00196962 -0.00034730 0.00400000
v -0.00193185 -0.00051764 -0.00400000
v -0.00193185 -0.00051764 0.00400000
v -0.00187939 -0.00068404 -0.00400000
v -0.00187939 -0.00068404 0.00400000
v -0.00181262 -0.00084524 -0.00400000
v -0.00181262 -0.00084524 0.00400000
v -0.00173205 -0.00100000 -0.00400000
v -0.00173205 -0.00100000 0.00400000
v -0.00163830 -0.00114715 -0.00400000
v -0.00163830 -0.00114715 0.00400000
v -0.00153209 -0.00128558 -0.00400000
v -0.00153209 -0.00128558 0.00400000
v -0.00141421 -0.00141421 -0.00400000
v -0.00141421 -0.00141421 0.00400000
v -0.00128558 -0.00153209 -0.00400000
v -0.00128558 -0.00153209 0.00400000
v -0.00114715 -0.00163830 -0.00400000
v -0.00114715 -0.00163830 0.00400000
v -0.00100000 -0.00173205 -0.00400000
v -0.00100000 -0.00173205 0.00400000
v -0.00084524 -0.00181262 -0.00400000
v -0.00084524 -0.00181262 0.00400000
v -0.00068404 -0.00187939 -0.00400000
v -0.00068404 -0.00187939 0.00400000
v -0.00051764 -0.00193185 -0.00400000
v -0.00051764 -0.00193185 0.00400000
v -0.00034730 -0.00196962 -0.00400000
v -0.00034730 -0.00196962 0.00400000
v -0.00017431 -0.00199239 -0.00400000
v -0.00017431 -0.00199239 0.00400000
v -0.00000000 -0.00200000 -0.00400000
v -0.00000000 -0.00200000 0.00400000
v 0.00017431 -0.00199239 -0.00400000
v 0.00017431 -0.00199239 0.00400000
v 0.00034730 -0.00196962 -0.00400000
v 0.00034730 -0.00196962 0.00400000
v 0.00051764 -0.00193185 -0.00400000
v 0.00051764 -0.00193185 0.00400000
v 0.00068404 -0.00187939 -0.00400000
v 0.00068404 -0.00187939 0.00400000
v 0.00084524 -0.00181262 -0.00400000
v 0.00084524 -0.00181262 0.00400000
v 0.00100000 -0.00173205 -0.00400000
v 0.00100000 -0.00173205 0.00400000
v 0.00114715 -0.00163830 -0.00400000
v 0.00114715 -0.00163830 0.00400000
v 0.00128558 -0.00153209 -0.00400000
v 0.00128558 -0.00153209 0.00400000
v 0.00141421 -0.00141421 -0.00400000
v 0.00141421 -0.00141421 0.00400000
v 0.00153209 -0.00128558 -0.00400000
v 0.00153209 -0.00128558 0.00400000
v 0.00163830 -0.00114715 -0.00400000
v 0.00163830 -0.00114715 0.00400000
v 0.00173205 -0.00100000 -0.00400000
v 0.00173205 -0.00100000 0.00400000
v 0.00181262 -0.00084524 -0.00400000
v 0.00181262 -0.00084524 0.00400000
v 0.00187939 -0.00068404 -0.00400000
v 0.00187939 -0.00068404 0.00400000
v 0.00193185 -0.00051764 -0.00400000
v 0.00193185 -0.00051764 0.00400000
v 0.00196962 -0.00034730 -0.00400000
v 0.00196962 -0.00034730 0.00400000
v 0.00199239 -0.00017431 -0.00400000
v 0.00199239 -0.00017431 0.00400000
v 0.01600000 0.02771281 -0.00400000
v 0.01835445 0.02621287 -0.00400000
v 0.02056920 0.02451342 -0.00400000
v 0.02262742 0.02262742 -0.00400000
v 0.02451342 0.02056920 -0.00400000
v 0.02621287 0.01835445 -0.00400000
v 0.02771281 0.01600000 -0.00400000
v 0.02900185 0.01352378 -0.00400000
v 0.03007016 0.01094464 -0.00400000
v 0.03090963 0.00828221 -0.00400000
v 0.03151385 0.00555674 -0.00400000
v 0.03187823 0.00278898 -0.00400000
v 0.03200000 -0.00000000 -0.00400000
v 0.03187823 -0.00278898 -0.00400000
v 0.03151385 -0.00555674 -0.00400000
v 0.03090963 -0.00828221 -0.00400000
v 0.03007016 -0.01094464 -0.00400000
v 0.02900185 -0.01352378 -0.00400000
v 0.02771281 -0.01600000 -0.00400000
v 0.02621287 -0.01835445 -0.00400000
v 0.02451342 -0.02056920 -0.00400000
v 0.02262742 -0.02262742 -0.00400000
v 0.02056920 -0.02451342 -0.00400000
v 0.01835445 -0.02621287 -0.00400000
v 0.01600000 -0.02771281 -0.00400000
v 0.01352378 -0.02900185 -0.00400000
v 0.01094464 -0.03007016 -0.00400000
v 0.00828221 -0.03090963 -0.00400000
v 0.00555674 -0.03151385 -0.00400000
v 0.00278898 -0.03187823 -0.00400000
v -0.00000000 -0.03200000 -0.00400000
v -0.00278898 -0.03187823 -0.00400000
v -0.00555674 -0.03151385 -0.00400000
v -0.00828221 -0.03090963 -0.00400000
v -0.01094464 -0.03007016 -0.00400000
v -0.01352378 -0.02900185 -0.00400000
v -0.01600000 -0.02771281 -0.00400000
v -0.01835445 -0.02621287 -0.00400000
v -0.02056920 -0.02451342 -0.00400000
v -0.02262742 -0.02262742 -0.00400000
v -0.02451342 -0.02056920 -0.00400000
v -0.02621287 -0.01835445 -0.00400000
v -0.02771281 -0.01600000 -0.00400000
v -0.02900185 -0.01352378 -0.00400000
v -0.03007016 -0.01094464 -0.00400000
v -0.03090963 -0.00828221 -0.00400000
v -0.03151385 -0.00555674 -0.00400000
v -0.03187823 -0.00278898 -0.00400000
v -0.03200000 0.00000000 -0.00400000
v -0.03187823 0.00278898 -0.00400000
v -0.03151385 0.00555674 -0.00400000
v -0.03090963 0.00828221 -0.00400000
v -0.03007016 0.01094464 -0.00400000
v -0.02900185 0.01352378 -0.00400000
v -0.02771281 0.01600000 -0.00400000
v -0.02621287 0.01835445 -0.00400000
v -0.02451342 0.02056920 -0.00400000
v -0.02262742 0.02262742 -0.00400000
v -0.02056920 0.02451342 -0.00400000
v -0.01835445 0.02621287 -0.00400000
v -0.01600000 0.02771281 -0.00400000
v -0.01352378 0.02900185 -0.00400000
v -0.01094464 0.03007016 -0.00400000
v -0.00828221 0.03090963 -0.00400000
v -0.00555674 0.03151385 -0.00400000
v -0.00278898 0.03187823 -0.00400000
v 0.00000000 0.03200000 -0.00400000
v 0.00278898 0.03187823 -0.00400000
v 0.00555674 0.03151385 -0.00400000
v 0.00828221 0.03090963 -0.00400000
v 0.01094464 0.03007016 -0.00400000
v 0.01352378 0.02900185 -0.00400000
v 0.03200000 0.00000000 0.00400000
v 0.03187823 0.00278898 0.00300000
v 0.03187823 0.00278898 0.00400000
v 0.03151385 0.00555674 0.00300000
v 0.03151385 0.00555674 0.00400000
v 0.03090963 0.00828221 0.00300000
v 0.03090963 0.00828221 0.00400000
v 0.03007016 0.01094464 0.00300000
v 0.03007016 0.01094464 0.00400000
v 0.02900185 0.01352378 0.00300000
v 0.02900185 0.01352378 0.00400000
v 0.02771281 0.01600000 0.00300000
v 0.02771281 0.01600000 0.00400000
v 0.02621287 0.01835445 0.00300000
v 0.02621287 0.01835445 0.00400000
v 0.02451342 0.02056920 0.00300000
v 0.02451342 0.02056920 0.00400000
v 0.02262742 0.02262742 0.00300000
v 0.02262742 0.02262742 0.00400000
v 0.02056920 0.02451342 0.00300000
v 0.02056920 0.02451342 0.00400000
v 0.01835445 0.02621287 0.00300000
v 0.01835445 0.02621287 0.00400000
v 0.01600000 0.02771281 0.00300000
v 0.01600000 0.02771281 0.00400000
v 0.01352378 0.02900185 0.00300000
v 0.01352378 0.02900185 0.00400000
v 0.01094464 0.03007016 0.00300000
v 0.01094464 0.03007016 0.00400000
v 0.00828221 0.03090963 0.00300000
v 0.00828221 0.03090963 0.00400000
v 0.00555674 0.03151385 0.00300000
v 0.00555674 0.03151385 0.00400000
v 0.00278898 0.03187823 0.00300000
v 0.00278898 0.03187823 0.00400000
v 0.00000000 0.03200000 0.00300000
v 0.00000000 0.03200000 0.00400000
v -0.00278898 0.03187823 0.00300000
v -0.00278898 0.03187823 0.00400000
v -0.00555674 0.03151385 0.00300000
v -0.00555674 0.03151385 0.00400000
v -0.00828221 0.03090963 0.00300000
v -0.00828221 0.03090963 0.00400000
v -0.01094464 0.03007016 0.00300000
v -0.01094464 0.03007016 0.00400000
v -0.01352378 0.02900185 0.00300000
v -0.01352378 0.02900185 0.00400000
v -0.01600000 0.02771281 0.00300000
v -0.01600000 0.02771281 0.00400000
v -0.01835445 0.02621287 0.00300000
v -0.01835445 0.02621287 0.00400000
v -0.02056920 0.02451342 0.00300000
v -0.02056920 0.02451342 0.00400000
v -0.02262742 0.02262742 0.00300000
v -0.02262742 0.02262742 0.00400000
v -0.02451342 0.02056920 0.00300000
v -0.02451342 0.02056920 0.00400000
v -0.02621287 0.01835445 0.00300000
v -0.02621287 0.01835445 0.00400000
v -0.02771281 0.01600000 0.00300000
v -0.02771281 0.01600000 0.00400000
v -0.02900185 0.01352378 0.00300000
v -0.02900185 0.01352378 0.00400000
v -0.03007016 0.01094464 0.00300000
v -0.03007016 0.01094464 0.00400000
v -0.03090963 0.00828221 0.00300000
v -0.03090963 0.00828221 0.00400000
v -0.03151385 0.00555674 0.00300000
v -0.03151385 0.00555674 0.00400000
v -0.03187823 0.00278898 0.00300000
v -0.03187823 0.00278898 0.00400000
v -0.03200000 0.00000000 0.00300000
v -0.03200000 0.00000000 0.00400000
v -0.03187823 -0.00278898 0.00300000
v -0.03187823 -0.00278898 0.00400000
v -0.03151385 -0.00555674 0.00300000
v -0.03151385 -0.00555674 0.00400000
v -0.03090963 -0.00828221 0.00300000
v -0.03090963 -0.00828221 0.00400000
v -0.03007016 -0.01094464 0.00300000
v -0.03007016 -0.01094464 0.00400000
v -0.02900185 -0.01352378 0.00300000
v -0.02900185 -0.01352378 0.00400000
v -0.02771281 -0.01600000 0.00300000
v -0.02771281 -0.01600000 0.00400000
v -0.02621287 -0.01835445 0.00300000
v -0.02621287 -0.01835445 0.00400000
v -0.02451342 -0.02056920 0.00300000
v -0.02451342 -0.02056920 0.00400000
v -0.02262742 -0.02262742 0.00300000
v -0.02262742 -0.02262742 0.00400000
v -0.02056920 -0.02451342 0.00300000
v -0.02056920 -0.02451342 0.00400000
v -0.01835445 -0.02621287 0.00300000
v -0.01835445 -0.02621287 0.00400000
v -0.01600000 -0.02771281 0.00300000
v -0.01600000 -0.02771281 0.00400000
v -0.01352378 -0.02900185 0.00300000
v -0.01352378 -0.02900185 0.00400000
v -0.01094464 -0.03007016 0.00300000
v -0.01094464 -0.03007016 0.00400000
v -0.00828221 -0.03090963 0.00300000
v -0.00828221 -0.03090963 0.00400000
v -0.00555674 -0.03151385 0.00300000
v -0.00555674 -0.03151385 0.00400000
v -0.00278898 -0.03187823 0.00300000
v -0.00278898 -0.03187823 0.00400000
v -0.00000000 -0.03200000 0.00300000
v -0.00000000 -0.03200000 0.00400000
v 0.00278898 -0.03187823 0.00300000
v 0.00278898 -0.03187823 0.00400000
v 0.00555674 -0.03151385 0.00300000
v 0.00555674 -0.03151385 0.00400000
v 0.00828221 -0.03090963 0.00300000
v 0.00828221 -0.03090963 0.00400000
v 0.01094464 -0.03007016 0.00300000
v 0.01094464 -0.03007016 0.00400000
v 0.01352378 -0.02900185 0.00300000
v 0.01352378 -0.02900185 0.00400000
v 0.01600000 -0.02771281 0.00300000
v 0.01600000 -0.02771281 0.00400000
v 0.01835445 -0.02621287 0.00300000
v 0.01835445 -0.02621287 0.00400000
v 0.02056920 -0.02451342 0.00300000
v 0.02056920 -0.02451342 0.00400000
v 0.02262742 -0.02262742 0.00300000
v 0.02262742 -0.02262742 0.00400000
v 0.02451342 -0.02056920 0.00300000
v 0.02451342 -0.02056920 0.00400000
v 0.02621287 -0.01835445 0.00300000
v 0.02621287 -0.01835445 0.00400000
v 0.02771281 -0.01600000 0.00300000
v 0.02771281 -0.01600000 0.00400000
v 0.02900185 -0.01352378 0.00300000
v 0.02900185 -0.01352378 0.00400000
v 0.03007016 -0.01094464 0.00300000
v 0.03007016 -0.01094464 0.00400000
v 0.03090963 -0.00828221 0.00300000
v 0.03090963 -0.00828221 0.00400000
v 0.03151385 -0.00555674 0.00300000
v 0.03151385 -0.00555674 0.00400000
v 0.03187823 -0.00278898 0.00300000
v 0.03187823 -0.00278898 0.00400000
v 0.03200000 -0.00000000 0.00300000
v -0.02121320 0.02121320 0.00300000
v -0.01928363 0.02298133 0.00300000
v -0.01720729 0.02457456 0.00300000
v -0.01500000 0.02598076 0.00300000
v -0.01267855 0.02718923 0.00300000
v -0.01026060 0.02819078 0.00300000
v -0.00776457 0.02897777 0.00300000
v -0.00520945 0.02954423 0.00300000
v -0.00261467 0.02988584 0.00300000
v 0.00000000 0.03000000 0.00300000
v 0.00261467 0.02988584 0.00300000
v 0.00520945 0.02954423 0.00300000
v 0.00776457 0.02897777 0.00300000
v 0.01026060 0.02819078 0.00300000
v 0.01267855 0.02718923 0.00300000
v 0.01500000 0.02598076 0.00300000
v 0.01720729 0.02457456 0.00300000
v 0.01928363 0.02298133 0.00300000
v 0.02121320 0.02121320 0.00300000
v 0.02298133 0.01928363 0.00300000
v 0.02457456 0.01720729 0.00300000
v 0.02598076 0.01500000 0.00300000
v 0.02718923 0.01267855 0.00300000
v 0.02819078 0.01026060 0.00300000
v 0.02897777 0.00776457 0.00300000
v 0.02954423 0.00520945 0.00300000
v 0.02988584 0.00261467 0.00300000
v 0.03000000 0.00000000 0.00300000
v 0.02988584 -0.00261467 0.00300000
v 0.02954423 -0.00520945 0.00300000
v 0.02897777 -0.00776457 0.00300000
v 0.02819078 -0.01026060 0.00300000
v 0.02718923 -0.01267855 0.00300000
v 0.02598076 -0.01500000 0.00300000
v 0.02457456 -0.01720729 0.00300000
v 0.02298133 -0.01928363 0.00300000
v 0.02121320 -0.02121320 0.00300000
v 0.01928363 -0.02298133 0.00300000
v 0.01720729 -0.02457456 0.00300000
v 0.01500000 -0.02598076 0.00300000
v 0.01267855 -0.02718923 0.00300000
v 0.01026060 -0.02819078 0.00300000
v 0.00776457 -0.02897777 0.00300000
v 0.00520945 -0.02954423 0.00300000
v 0.00261467 -0.02988584 0.00300000
v -0.00000000 -0.03000000 0.00300000
v -0.00261467 -0.02988584 0.00300000
v -0.00520945 -0.02954423 0.00300000
v -0.00776457 -0.02897777 0.00300000
v -0.01026060 -0.02819078 0.00300000
v -0.01267855 -0.02718923 0.00300000
v -0.01500000 -0.02598076 0.00300000
v -0.01720729 -0.02457456 0.00300000
v -0.01928363 -0.02298133 0.00300000
v -0.02121320 -0.02121320 0.00300000
v -0.02298133 -0.01928363 0.00300000
v -0.02457456 -0.01720729 0.00300000
v -0.02598076 -0.01500000 0.00300000
v -0.02718923 -0.01267855 0.00300000
v -0.02819078 -0.01026060 0.00300000
v -0.02897777 -0.00776457 0.00300000
v -0.02954423 -0.00520945 0.00300000
v -0.02988584 -0.00261467 0.00300000
v -0.03000000 0.00000000 0.00300000
v -0.02988584 0.00261467 0.00300000
v -0.02954423 0.00520945 0.00300000
v -0.02897777 0.00776457 0.00300000
v -0.02819078 0.01026060 0.00300000
v -0.02718923 0.01267855 0.00300000
v -0.02598076 0.01500000 0.00300000
v -0.02457456 0.01720729 0.00300000
v -0.02298133 0.01928363 0.00300000
v 0.02988584 0.00261467 -0.00300000
v 0.02954423 0.00520945 -0.00300000
v 0.02897777 0.00776457 -0.00300000
v 0.02819078 0.01026060 -0.00300000
v 0.02718923 0.01267855 -0.00300000
v 0.02598076 0.01500000 -0.00300000
v 0.02457456 0.01720729 -0.00300000
v 0.02298133 0.01928363 -0.00300000
v 0.02121320 0.02121320 -0.00300000
v 0.01928363 0.02298133 -0.00300000
v 0.01720729 0.02457456 -0.00300000
v 0.01500000 0.02598076 -0.00300000
v 0.01267855 0.02718923 -0.00300000
v 0.01026060 0.02819078 -0.00300000
v 0.00776457 0.02897777 -0.00300000
v 0.00520945 0.02954423 -0.00300000
v 0.00261467 0.02988584 -0.00300000
v 0.00000000 0.03000000 -0.00300000
v -0.00261467 0.02988584 -0.00300000
v -0.00520945 0.02954423 -0.00300000
v -0.00776457 0.02897777 -0.00300000
v -0.01026060 0.02819078 -0.00300000
v -0.01267855 0.02718923 -0.00300000
v -0.01500000 0.02598076 -0.00300000
v -0.01720729 0.02457456 -0.00300000
v -0.01928363 0.02298133 -0.00300000
v -0.02121320 0.02121320 -0.00300000
v -0.02298133 0.01928363 -0.00300000
v -0.02457456 0.01720729 -0.00300000
v -0.02598076 0.01500000 -0.00300000
v -0.02718923 0.01267855 -0.00300000
v -0.02819078 0.01026060 -0.00300000
v -0.02897777 0.00776457 -0.00300000
v -0.02954423 0.00520945 -0.00300000
v -0.02988584 0.00261467 -0.00300000
v -0.03000000 0.00000000 -0.00300000
v -0.02988584 -0.00261467 -0.00300000
v -0.02954423 -0.00520945 -0.00300000
v -0.02897777 -0.00776457 -0.00300000
v -0.02819078 -0.01026060 -0.00300000
v -0.02718923 -0.01267855 -0.00300000
v -0.02598076 -0.01500000 -0.00300000
v -0.02457456 -0.01720729 -0.00300000
v -0.02298133 -0.01928363 -0.00300000
v -0.02121320 -0.02121320 -0.00300000
v -0.01928363 -0.02298133 -0.00300000
v -0.01720729 -0.02457456 -0.00300000
v -0.01500000 -0.02598076 -0.00300000
v -0.01267855 -0.02718923 -0.00300000
v -0.01026060 -0.02819078 -0.00300000
v -0.00776457 -0.02897777 -0.00300000
v -0.00520945 -0.02954423 -0.00300000
v -0.00261467 -0.02988584 -0.00300000
v -0.00000000 -0.03000000 -0.00300000
v 0.00261467 -0.02988584 -0.00300000
v 0.00520945 -0.02954423 -0.00300000
v 0.00776457 -0.02897777 -0.00300000
v 0.01026060 -0.02819078 -0.00300000
v 0.01267855 -0.02718923 -0.00300000
v 0.01500000 -0.02598076 -0.00300000
v 0.01720729 -0.02457456 -0.00300000
v 0.01928363 -0.02298133 -0.00300000
v 0.02121320 -0.02121320 -0.00300000
v 0.02298133 -0.01928363 -0.00300000
v 0.02457456 -0.01720729 -0.00300000
v 0.02598076 -0.01500000 -0.00300000
v 0.02718923 -0.01267855 -0.00300000
v 0.02819078 -0.01026060 -0.00300000
v 0.02897777 -0.00776457 -0.00300000
v 0.02954423 -0.00520945 -0.00300000
v 0.02988584 -0.00261467 -0.00300000
v 0.03000000 -0.00000000 -0.00300000
v -0.02056920 0.02451342 -0.00300000
v -0.02262742 0.02262742 -0.00300000
v -0.02451342 0.02056920 -0.00300000
v -0.02621287 0.01835445 -0.00300000
v -0.02771281 0.01600000 -0.00300000
v -0.02900185 0.01352378 -0.00300000
v -0.03007016 0.01094464 -0.00300000
v -0.03090963 0.00828221 -0.00300000
v -0.03151385 0.00555674 -0.00300000
v -0.03187823 0.00278898 -0.00300000
v -0.03200000 0.00000000 -0.00300000
v -0.03187823 -0.00278898 -0.00300000
v -0.03151385 -0.00555674 -0.00300000
v -0.03090963 -0.00828221 -0.00300000
v -0.03007016 -0.01094464 -0.00300000
v -0.02900185 -0.01352378 -0.00300000
v -0.02771281 -0.01600000 -0.00300000
v -0.02621287 -0.01835445 -0.00300000
v -0.02451342 -0.02056920 -0.00300000
v -0.02262742 -0.02262742 -0.00300000
v -0.02056920 -0.02451342 -0.00300000
v -0.01835445 -0.02621287 -0.00300000
v -0.01600000 -0.02771281 -0.00300000
v -0.01352378 -0.02900185 -0.00300000
v -0.01094464 -0.03007016 -0.00300000
v -0.00828221 -0.03090963 -0.00300000
v -0.00555674 -0.03151385 -0.00300000
v -0.00278898 -0.03187823 -0.00300000
v -0.00000000 -0.03200000 -0.00300000
v 0.00278898 -0.03187823 -0.00300000
v 0.00555674 -0.03151385 -0.00300000
v 0.00828221 -0.03090963 -0.00300000
v 0.01094464 -0.03007016 -0.00300000
v 0.01352378 -0.02900185 -0.00300000
v 0.01600000 -0.02771281 -0.00300000
v 0.01835445 -0.02621287 -0.00300000
v 0.02056920 -0.02451342 -0.00300000
v 0.02262742 -0.02262742 -0.00300000
v 0.02451342 -0.02056920 -0.00300000
v 0.02621287 -0.01835445 -0.00300000
v 0.02771281 -0.01600000 -0.00300000
v 0.02900185 -0.01352378 -0.00300000
v 0.03007016 -0.01094464 -0.00300000
v 0.03090963 -0.00828221 -0.00300000
v 0.03151385 -0.00555674 -0.00300000
v 0.03187823 -0.00278898 -0.00300000
v 0.03200000 0.00000000 -0.00300000
v 0.03187823 0.00278898 -0.00300000
v 0.03151385 0.00555674 -0.00300000
v 0.03090963 0.00828221 -0.00300000
v 0.03007016 0.01094464 -0.00300000
v 0.02900185 0.01352378 -0.00300000
v 0.02771281 0.01600000 -0.00300000
v 0.02621287 0.01835445 -0.00300000
v 0.02451342 0.02056920 -0.00300000
v 0.02262742 0.02262742 -0.00300000
v 0.02056920 0.02451342 -0.00300000
v 0.01835445 0.02621287 -0.00300000
v 0.01600000 0.02771281 -0.00300000
v 0.01352378 0.02900185 -0.00300000
v 0.01094464 0.03007016 -0.00300000
v 0.00828221 0.03090963 -0.00300000
v 0.00555674 0.03151385 -0.00300000
v 0.00278898 0.03187823 -0.00300000
v 0.00000000 0.03200000 -0.00300000
v -0.00278898 0.03187823 -0.00300000
v -0.00555674 0.03151385 -0.00300000
v -0.00828221 0.03090963 -0.00300000
v -0.01094464 0.03007016 -0.00300000
v -0.01352378 0.02900185 -0.00300000
v -0.01600000 0.02771281 -0.00300000
v -0.01835445 0.02621287 -0.00300000
f 1 2 3
f 2 4 3
f 3 4 5
f 4 6 5
f 5 6 7
f 6 8 7
f 7 8 9
f 8 10 9
f 9 10 11
f 10 12 11
f 11 12 13
f 12 14 13
f 13 14 15
f 14 16 15
f 15 16 17
f 16 18 17
f 17 18 19
f 18 20 19
f 19 20 21
f 20 22 21
f 21 22 23
f 22 24 23
f 23 24 25
f 24 26 25
f 25 26 27
f 26 28 27
f 27 28 29
f 28 30 29
f 29 30 31
f 30 32 31
f 31 32 33
f 32 34 33
f 33 34 35
f 34 36 35
f 35 36 37
f 36 38 37
f 37 38 39
f 38 40 39
f 39 40 41
f 40 42 41
f 41 42 43
f 42 44 43
f 43 44 45
f 44 46 45
f 45 46 47
f 46 48 47
f 47 48 49
f 48 50 49
f 49 50 51
f 50 52 51
f 51 52 53
f 52 54 53
f 53 54 55
f 54 56 55
f 55 56 57
f 56 58 57
f 57 58 59
f 58 60 59
f 59 60 61
f 60 62 61
f 61 62 63
f 62 64 63
f 63 64 65
f 64 66 65
f 65 66 67
f 66 68 67
f 67 68 69
f 68 70 69
f 69 70 71
f 70 72 71
f 71 72 73
f 72 74 73
f 73 74 75
f 74 76 75
f 75 76 77
f 76 78 77
f 77 78 79
f 78 80 79
f 79 80 81
f 80 82 81
f 81 82 83
f 82 84 83
f 83 84 85
f 84 86 85
f 85 86 87
f 86 88 87
f 87 88 89
f 88 90 89
f 89 90 91
f 90 92 91
f 91 92 93
f 92 94 93
f 93 94 95
f 94 96 95
f 95 96 97
f 96 98 97
f 97 98 99
f 98 100 99
f 99 100 101
f 100 102 101
f 101 102 103
f 102 104 103
f 103 104 105
f 104 106 105
f 105 106 107
f 106 108 107
f 107 108 109
f 108 110 109
f 109 110 111
f 110 112 111
f 111 112 113
f 112 114 113
f 113 114 115
f 114 116 115
f 115 116 117
f 116 118 117
f 117 118 119
f 118 120 119
f 119 120 121
f 120 122 121
f 121 122 123
f 122 124 123
f 123 124 125
f 124 126 125
f 125 126 127
f 126 128 127
f 127 128 129
f 128 130 129
f 129 130 131
f 130 132 131
f 131 132 133
f 132 134 133
f 133 134 135
f 134 136 135
f 135 136 137
f 136 138 137
f 137 138 139
f 138 140 139
f 139 140 141
f 140 142 141
f 141 142 143
f 142 144 143
f 143 144 1
f 144 2 1
f 25 145 23
f 145 146 23
f 23 146 21
f 146 147 21
f 21 147 19
f 147 148 19
f 19 148 17
f 148 149 17
f 17 149 15
f 149 150 15
f 15 150 13
f 150 151 13
f 13 151 11
f 151 152 11
f 11 152 9
f 152 153 9
f 9 153 7
f 153 154 7
f 7 154 5
f 154 155 5
f 5 155 3
f 155 156 3
f 3 156 1
f 156 157 1
f 1 157 143
f 157 158 143
f 143 158 141
f 158 159 141
f 141 159 139
f 159 160 139
f 139 160 137
f 160 161 137
f 137 161 135
f 161 162 135
f 135 162 133
f 162 163 133
f 133 163 131
f 163 164 131
f 131 164 129
f 164 165 129
f 129 165 127
f 165 166 127
f 127 166 125
f 166 167 125
f 125 167 123
f 167 168 123
f 123 168 121
f 168 169 121
f 121 169 119
f 169 170 119
f 119 170 117
f 170 171 117
f 117 171 115
f 171 172 115
f 115 172 113
f 172 173 113
f 113 173 111
f 173 174 111
f 111 174 109
f 174 175 109
f 109 175 107
f 175 176 107
f 107 176 105
f 176 177 105
f 105 177 103
f 177 178 103
f 103 178 101
f 178 179 101
f 101 179 99
f 179 180 99
f 99 180 97
f 180 181 97
f 97 181 95
f 181 182 95
f 95 182 93
f 182 183 93
f 93 183 91
f 183 184 91
f 91 184 89
f 184 185 89
f 89 185 87
f 185 186 87
f 87 186 85
f 186 187 85
f 85 187 83
f 187 188 83
f 83 188 81
f 188 189 81
f 81 189 79
f 189 190 79
f 79 190 77
f 190 191 77
f 77 191 75
f 191 192 75
f 75 192 73
f 192 193 73
f 73 193 71
f 193 194 71
f 71 194 69
f 194 195 69
f 69 195 67
f 195 196 67
f 67 196 65
f 196 197 65
f 65 197 63
f 197 198 63
f 63 198 61
f 198 199 61
f 61 199 59
f 199 200 59
f 59 200 57
f 200 201 57
f 57 201 55
f 201 202 55
f 55 202 53
f 202 203 53
f 53 203 51
f 203 204 51
f 51 204 49
f 204 205 49
f 49 205 47
f 205 206 47
f 47 206 45
f 206 207 45
f 45 207 43
f 207 208 43
f 43 208 41
f 208 209 41
f 41 209 39
f 209 210 39
f 39 210 37
f 210 211 37
f 37 211 35
f 211 212 35
f 35 212 33
f 212 213 33
f 33 213 31
f 213 214 31
f 31 214 29
f 214 215 29
f 29 215 27
f 215 216 27
f 27 216 25
f 216 145 25
f 217 218 219
f 218 220 219
f 219 220 221
f 220 222 221
f 221 222 223
f 222 224 223
f 223 224 225
f 224 226 225
f 225 226 227
f 226 228 227
f 227 228 229
f 228 230 229
f 229 230 231
f 230 232 231
f 231 232 233
f 232 234 233
f 233 234 235
f 234 236 235
f 235 236 237
f 236 238 237
f 237 238 239
f 238 240 239
f 239 240 241
f 240 242 241
f 241 242 243
f 242 244 243
f 243 244 245
f 244 246 245
f 245 246 247
f 246 248 247
f 247 248 249
f 248 250 249
f 249 250 251
f 250 252 251
f 251 252 253
f 252 254 253
f 253 254 255
f 254 256 255
f 255 256 257
f 256 258 257
f 257 258 259
f 258 260 259
f 259 260 261
f 260 262 261
f 261 262 263
f 262 264 263
f 263 264 265
f 264 266 265
f 265 266 267
f 266 268 267
f 267 268 269
f 268 270 269
f 269 270 271
f 270 272 271
f 271 272 273
f 272 274 273
f 273 274 275
f 274 276 275
f 275 276 277
f 276 278 277
f 277 278 279
f 278 280 279
f 279 280 281
f 280 282 281
f 281 282 283
f 282 284 283
f 283 284 285
f 284 286 285
f 285 286 287
f 286 288 287
f 287 288 289
f 288 290 289
f 289 290 291
f 290 292 291
f 291 292 293
f 292 294 293
f 293 294 295
f 294 296 295
f 295 296 297
f 296 298 297
f 297 298 299
f 298 300 299
f 299 300 301
f 300 302 301
f 301 302 303
f 302 304 303
f 303 304 305
f 304 306 305
f 305 306 307
f 306 308 307
f 307 308 309
f 308 310 309
f 309 310 311
f 310 312 311
f 311 312 313
f 312 314 313
f 313 314 315
f 314 316 315
f 315 316 317
f 316 318 317
f 317 318 319
f 318 320 319
f 319 320 321
f 320 322 321
f 321 322 323
f 322 324 323
f 323 324 325
f 324 326 325
f 325 326 327
f 326 328 327
f 327 328 329
f 328 330 329
f 329 330 331
f 330 332 331
f 331 332 333
f 332 334 333
f 333 334 335
f 334 336 335
f 335 336 337
f 336 338 337
f 337 338 339
f 338 340 339
f 339 340 341
f 340 342 341
f 341 342 343
f 342 344 343
f 343 344 345
f 344 346 345
f 345 346 347
f 346 348 347
f 347 348 349
f 348 350 349
f 349 350 351
f 350 352 351
f 351 352 353
f 352 354 353
f 353 354 355
f 354 356 355
f 355 356 357
f 356 358 357
f 357 358 359
f 358 360 359
f 359 360 217
f 360 218 217
f 26 241 28
f 241 243 28
f 28 243 30
f 243 245 30
f 30 245 32
f 245 247 32
f 32 247 34
f 247 249 34
f 34 249 36
f 249 251 36
f 36 251 38
f 251 253 38
f 38 253 40
f 253 255 40
f 40 255 42
f 255 257 42
f 42 257 44
f 257 259 44
f 44 259 46
f 259 261 46
f 46 261 48
f 261 263 48
f 48 263 50
f 263 265 50
f 50 265 52
f 265 267 52
f 52 267 54
f 267 269 54
f 54 269 56
f 269 271 56
f 56 271 58
f 271 273 58
f 58 273 60
f 273 275 60
f 60 275 62
f 275 277 62
f 62 277 64
f 277 279 64
f 64 279 66
f 279 281 66
f 66 281 68
f 281 283 68
f 68 283 70
f 283 285 70
f 70 285 72
f 285 287 72
f 72 287 74
f 287 289 74
f 74 289 76
f 289 291 76
f 76 291 78
f 291 293 78
f 78 293 80
f 293 295 80
f 80 295 82
f 295 297 82
f 82 297 84
f 297 299 84
f 84 299 86
f 299 301 86
f 86 301 88
f 301 303 88
f 88 303 90
f 303 305 90
f 90 305 92
f 305 307 92
f 92 307 94
f 307 309 94
f 94 309 96
f 309 311 96
f 96 311 98
f 311 313 98
f 98 313 100
f 313 315 100
f 100 315 102
f 315 317 102
f 102 317 104
f 317 319 104
f 104 319 106
f 319 321 106
f 106 321 108
f 321 323 108
f 108 323 110
f 323 325 110
f 110 325 112
f 325 327 112
f 112 327 114
f 327 329 114
f 114 329 116
f 329 331 116
f 116 331 118
f 331 333 118
f 118 333 120
f 333 335 120
f 120 335 122
f 335 337 122
f 122 337 124
f 337 339 124
f 124 339 126
f 339 341 126
f 126 341 128
f 341 343 128
f 128 343 130
f 343 345 130
f 130 345 132
f 345 347 132
f 132 347 134
f 347 349 134
f 134 349 136
f 349 351 136
f 136 351 138
f 351 353 138
f 138 353 140
f 353 355 140
f 140 355 142
f 355 357 142
f 142 357 144
f 357 359 144
f 144 359 2
f 359 217 2
f 2 217 4
f 217 219 4
f 4 219 6
f 219 221 6
f 6 221 8
f 221 223 8
f 8 223 10
f 223 225 10
f 10 225 12
f 225 227 12
f 12 227 14
f 227 229 14
f 14 229 16
f 229 231 16
f 16 231 18
f 231 233 18
f 18 233 20
f 233 235 20
f 20 235 22
f 235 237 22
f 22 237 24
f 237 239 24
f 24 239 26
f 239 241 26
f 361 270 362
f 270 268 362
f 362 268 363
f 268 266 363
f 363 266 364
f 266 264 364
f 364 264 365
f 264 262 365
f 365 262 366
f 262 260 366
f 366 260 367
f 260 258 367
f 367 258 368
f 258 256 368
f 368 256 369
f 256 254 369
f 369 254 370
f 254 252 370
f 370 252 371
f 252 250 371
f 371 250 372
f 250 248 372
f 372 248 373
f 248 246 373
f 373 246 374
f 246 244 374
f 374 244 375
f 244 242 375
f 375 242 376
f 242 240 376
f 376 240 377
f 240 238 377
f 377 238 378
f 238 236 378
f 378 236 379
f 236 234 379
f 379 234 380
f 234 232 380
f 380 232 381
f 232 230 381
f 381 230 382
f 230 228 382
f 382 228 383
f 228 226 383
f 383 226 384
f 226 224 384
f 384 224 385
f 224 222 385
f 385 222 386
f 222 220 386
f 386 220 387
f 220 218 387
f 387 218 388
f 218 360 388
f 388 360 389
f 360 358 389
f 389 358 390
f 358 356 390
f 390 356 391
f 356 354 391
f 391 354 392
f 354 352 392
f 392 352 393
f 352 350 393
f 393 350 394
f 350 348 394
f 394 348 395
f 348 346 395
f 395 346 396
f 346 344 396
f 396 344 397
f 344 342 397
f 397 342 398
f 342 340 398
f 398 340 399
f 340 338 399
f 399 338 400
f 338 336 400
f 400 336 401
f 336 334 401
f 401 334 402
f 334 332 402
f 402 332 403
f 332 330 403
f 403 330 404
f 330 328 404
f 404 328 405
f 328 326 405
f 405 326 406
f 326 324 406
f 406 324 407
f 324 322 407
f 407 322 408
f 322 320 408
f 408 320 409
f 320 318 409
f 409 318 410
f 318 316 410
f 410 316 411
f 316 314 411
f 411 314 412
f 314 312 412
f 412 312 413
f 312 310 413
f 413 310 414
f 310 308 414
f 414 308 415
f 308 306 415
f 415 306 416
f 306 304 416
f 416 304 417
f 304 302 417
f 417 302 418
f 302 300 418
f 418 300 419
f 300 298 419
f 419 298 420
f 298 296 420
f 420 296 421
f 296 294 421
f 421 294 422
f 294 292 422
f 422 292 423
f 292 290 423
f 423 290 424
f 290 288 424
f 424 288 425
f 288 286 425
f 425 286 426
f 286 284 426
f 426 284 427
f 284 282 427
f 427 282 428
f 282 280 428
f 428 280 429
f 280 278 429
f 429 278 430
f 278 276 430
f 430 276 431
f 276 274 431
f 431 274 432
f 274 272 432
f 432 272 361
f 272 270 361
f 388 433 387
f 433 434 387
f 387 434 386
f 434 435 386
f 386 435 385
f 435 436 385
f 385 436 384
f 436 437 384
f 384 437 383
f 437 438 383
f 383 438 382
f 438 439 382
f 382 439 381
f 439 440 381
f 381 440 380
f 440 441 380
f 380 441 379
f 441 442 379
f 379 442 378
f 442 443 378
f 378 443 377
f 443 444 377
f 377 444 376
f 444 445 376
f 376 445 375
f 445 446 375
f 375 446 374
f 446 447 374
f 374 447 373
f 447 448 373
f 373 448 372
f 448 449 372
f 372 449 371
f 449 450 371
f 371 450 370
f 450 451 370
f 370 451 369
f 451 452 369
f 369 452 368
f 452 453 368
f 368 453 367
f 453 454 367
f 367 454 366
f 454 455 366
f 366 455 365
f 455 456 365
f 365 456 364
f 456 457 364
f 364 457 363
f 457 458 363
f 363 458 362
f 458 459 362
f 362 459 361
f 459 460 361
f 361 460 432
f 460 461 432
f 432 461 431
f 461 462 431
f 431 462 430
f 462 463 430
f 430 463 429
f 463 464 429
f 429 464 428
f 464 465 428
f 428 465 427
f 465 466 427
f 427 466 426
f 466 467 426
f 426 467 425
f 467 468 425
f 425 468 424
f 468 469 424
f 424 469 423
f 469 470 423
f 423 470 422
f 470 471 422
f 422 471 421
f 471 472 421
f 421 472 420
f 472 473 420
f 420 473 419
f 473 474 419
f 419 474 418
f 474 475 418
f 418 475 417
f 475 476 417
f 417 476 416
f 476 477 416
f 416 477 415
f 477 478 415
f 415 478 414
f 478 479 414
f 414 479 413
f 479 480 413
f 413 480 412
f 480 481 412
f 412 481 411
f 481 482 411
f 411 482 410
f 482 483 410
f 410 483 409
f 483 484 409
f 409 484 408
f 484 485 408
f 408 485 407
f 485 486 407
f 407 486 406
f 486 487 406
f 406 487 405
f 487 488 405
f 405 488 404
f 488 489 404
f 404 489 403
f 489 490 403
f 403 490 402
f 490 491 402
f 402 491 401
f 491 492 401
f 401 492 400
f 492 493 400
f 400 493 399
f 493 494 399
f 399 494 398
f 494 495 398
f 398 495 397
f 495 496 397
f 397 496 396
f 496 497 396
f 396 497 395
f 497 498 395
f 395 498 394
f 498 499 394
f 394 499 393
f 499 500 393
f 393 500 392
f 500 501 392
f 392 501 391
f 501 502 391
f 391 502 390
f 502 503 390
f 390 503 389
f 503 504 389
f 389 504 388
f 504 433 388
f 458 505 459
f 505 506 459
f 459 506 460
f 506 507 460
f 460 507 461
f 507 508 461
f 461 508 462
f 508 509 462
f 462 509 463
f 509 510 463
f 463 510 464
f 510 511 464
f 464 511 465
f 511 512 465
f 465 512 466
f 512 513 466
f 466 513 467
f 513 514 467
f 467 514 468
f 514 515 468
f 468 515 469
f 515 516 469
f 469 516 470
f 516 517 470
f 470 517 471
f 517 518 471
f 471 518 472
f 518 519 472
f 472 519 473
f 519 520 473
f 473 520 474
f 520 521 474
f 474 521 475
f 521 522 475
f 475 522 476
f 522 523 476
f 476 523 477
f 523 524 477
f 477 524 478
f 524 525 478
f 478 525 479
f 525 526 479
f 479 526 480
f 526 527 480
f 480 527 481
f 527 528 481
f 481 528 482
f 528 529 482
f 482 529 483
f 529 530 483
f 483 530 484
f 530 531 484
f 484 531 485
f 531 532 485
f 485 532 486
f 532 533 486
f 486 533 487
f 533 534 487
f 487 534 488
f 534 535 488
f 488 535 489
f 535 536 489
f 489 536 490
f 536 537 490
f 490 537 491
f 537 538 491
f 491 538 492
f 538 539 492
f 492 539 493
f 539 540 493
f 493 540 494
f 540 541 494
f 494 541 495
f 541 542 495
f 495 542 496
f 542 543 496
f 496 543 497
f 543 544 497
f 497 544 498
f 544 545 498
f 498 545 499
f 545 546 499
f 499 546 500
f 546 547 500
f 500 547 501
f 547 548 501
f 501 548 502
f 548 549 502
f 502 549 503
f 549 550 503
f 503 550 504
f 550 551 504
f 504 551 433
f 551 552 433
f 433 552 434
f 552 553 434
f 434 553 435
f 553 554 435
f 435 554 436
f 554 555 436
f 436 555 437
f 555 556 437
f 437 556 438
f 556 557 438
f 438 557 439
f 557 558 439
f 439 558 440
f 558 559 440
f 440 559 441
f 559 560 441
f 441 560 442
f 560 561 442
f 442 561 443
f 561 562 443
f 443 562 444
f 562 563 444
f 444 563 445
f 563 564 445
f 445 564 446
f 564 565 446
f 446 565 447
f 565 566 447
f 447 566 448
f 566 567 448
f 448 567 449
f 567 568 449
f 449 568 450
f 568 569 450
f 450 569 451
f 569 570 451
f 451 570 452
f 570 571 452
f 452 571 453
f 571 572 453
f 453 572 454
f 572 573 454
f 454 573 455
f 573 574 455
f 455 574 456
f 574 575 456
f 456 575 457
f 575 576 457
f 457 576 458
f 576 505 458
f 551 156 552
f 156 155 552
f 552 155 553
f 155 154 553
f 553 154 554
f 154 153 554
f 554 153 555
f 153 152 555
f 555 152 556
f 152 151 556
f 556 151 557
f 151 150 557
f 557 150 558
f 150 149 558
f 558 149 559
f 149 148 559
f 559 148 560
f 148 147 560
f 560 147 561
f 147 146 561
f 561 146 562
f 146 145 562
f 562 145 563
f 145 216 563
f 563 216 564
f 216 215 564
f 564 215 565
f 215 214 565
f 565 214 566
f 214 213 566
f 566 213 567
f 213 212 567
f 567 212 568
f 212 211 568
f 568 211 569
f 211 210 569
f 569 210 570
f 210 209 570
f 570 209 571
f 209 208 571
f 571 208 572
f 208 207 572
f 572 207 573
f 207 206 573
f 573 206 574
f 206 205 574
f 574 205 575
f 205 204 575
f 575 204 576
f 204 203 576
f 576 203 505
f 203 202 505
f 505 202 506
f 202 201 506
f 506 201 507
f 201 200 507
f 507 200 508
f 200 199 508
f 508 199 509
f 199 198 509
f 509 198 510
f 198 197 510
f 510 197 511
f 197 196 511
f 511 196 512
f 196 195 512
f 512 195 513
f 195 194 513
f 513 194 514
f 194 193 514
f 514 193 515
f 193 192 515
f 515 192 516
f 192 191 516
f 516 191 517
f 191 190 517
f 517 190 518
f 190 189 518
f 518 189 519
f 189 188 519
f 519 188 520
f 188 187 520
f 520 187 521
f 187 186 521
f 521 186 522
f 186 185 522
f 522 185 523
f 185 184 523
f 523 184 524
f 184 183 524
f 524 183 525
f 183 182 525
f 525 182 526
f 182 181 526
f 526 181 527
f 181 180 527
f 527 180 528
f 180 179 528
f 528 179 529
f 179 178 529
f 529 178 530
f 178 177 530
f 530 177 531
f 177 176 531
f 531 176 532
f 176 175 532
f 532 175 533
f 175 174 533
f 533 174 534
f 174 173 534
f 534 173 535
f 173 172 535
f 535 172 536
f 172 171 536
f 536 171 537
f 171 170 537
f 537 170 538
f 170 169 538
f 538 169 539
f 169 168 539
f 539 168 540
f 168 167 540
f 540 167 541
f 167 166 541
f 541 166 542
f 166 165 542
f 542 165 543
f 165 164 543
f 543 164 544
f 164 163 544
f 544 163 545
f 163 162 545
f 545 162 546
f 162 161 546
f 546 161 547
f 161 160 547
f 547 160 548
f 160 159 548
f 548 159 549
f 159 158 549
f 549 158 550
f 158 157 550
f 550 157 551
f 157 156 551

