# https://github.com/mikedh/trimesh
v -0.00500000 0.02100000 0.00000000
v -0.00498097 0.00000000 0.00043578
v -0.00498097 0.02100000 0.00043578
v -0.00492404 0.00000000 0.00086824
v -0.00492404 0.02100000 0.00086824
v -0.00482963 0.00000000 0.00129410
v -0.00482963 0.02100000 0.00129410
v -0.00469846 0.00000000 0.00171010
v -0.00469846 0.02100000 0.00171010
v -0.00453154 0.00000000 0.00211309
v -0.00453154 0.02100000 0.00211309
v -0.00433013 0.00000000 0.00250000
v -0.00433013 0.02100000 0.00250000
v -0.00409576 0.00000000 0.00286788
v -0.00409576 0.02100000 0.00286788
v -0.00383022 0.00000000 0.00321394
v -0.00383022 0.02100000 0.00321394
v -0.00353553 0.00000000 0.00353553
v -0.00353553 0.02100000 0.00353553
v -0.00321394 0.00000000 0.00383022
v -0.00321394 0.02100000 0.00383022
v -0.00286788 0.00000000 0.00409576
v -0.00286788 0.02100000 0.00409576
v -0.00250000 0.00000000 0.00433013
v -0.00250000 0.02100000 0.00433013
v -0.00211309 0.00000000 0.00453154
v -0.00211309 0.02100000 0.00453154
v -0.00171010 0.00000000 0.00469846
v -0.00171010 0.02100000 0.00469846
v -0.00129410 0.00000000 0.00482963
v -0.00129410 0.02100000 0.00482963
v -0.00086824 0.00000000 0.00492404
v -0.00086824 0.02100000 0.00492404
v -0.00043578 0.00000000 0.00498097
v -0.00043578 0.02100000 0.00498097
v -0.00000000 0.00000000 0.00500000
v -0.00000000 0.02100000 0.00500000
v 0.00043578 0.00000000 0.00498097
v 0.00043578 0.02100000 0.00498097
v 0.00086824 0.00000000 0.00492404
v 0.00086824 0.02100000 0.00492404
v 0.00129410 0.00000000 0.00482963
v 0.00129410 0.02100000 0.00482963
v 0.00171010 0.00000000 0.00469846
v 0.00171010 0.02100000 0.00469846
v 0.00211309 0.00000000 0.00453154
v 0.00211309 0.02100000 0.00453154
v 0.00250000 0.00000000 0.00433013
v 0.00250000 0.02100000 0.00433013
v 0.00286788 0.00000000 0.00409576
v 0.00286788 0.02100000 0.00409576
v 0.00321394 0.00000000 0.00383022
v 0.00321394 0.02100000 0.00383022
v 0.00353553 0.00000000 0.00353553
v 0.00353553 0.02100000 0.00353553
v 0.00383022 0.00000000 0.00321394
v 0.00383022 0.02100000 0.00321394
v 0.00409576 0.00000000 0.00286788
v 0.00409576 0.02100000 0.00286788
v 0.00433013 0.00000000 0.00250000
v 0.00433013 0.02100000 0.00250000
v 0.00453154 0.00000000 0.00211309
v 0.00453154 0.02100000 0.00211309
v 0.00469846 0.00000000 0.00171010
v 0.00469846 0.02100000 0.00171010
v 0.00482963 0.00000000 0.00129410
v 0.00482963 0.02100000 0.00129410
v 0.00492404 0.00000000 0.00086824
v 0.00492404 0.02100000 0.00086824
v 0.00498097 0.00000000 0.00043578
v 0.00498097 0.02100000 0.00043578
v 0.00500000 0.00000000 0.00000000
v 0.00500000 0.02100000 0.00000000
v 0.00498097 0.00000000 -0.00043578
v 0.00498097 0.02100000 -0.00043578
v 0.00492404 0.00000000 -0.00086824
v 0.00492404 0.02100000 -0.00086824
v 0.00482963 0.00000000 -0.00129410
v 0.00482963 0.02100000 -0.00129410
v 0.00469846 0.00000000 -0.00171010
v 0.00469846 0.02100000 -0.00171010
v 0.00453154 0.00000000 -0.00211309
v 0.00453154 0.02100000 -0.00211309
v 0.00433013 0.00000000 -0.00250000
v 0.00433013 0.02100000 -0.00250000
v 0.00409576 0.00000000 -0.00286788
v 0.00409576 0.02100000 -0.00286788
v 0.00383022 0.00000000 -0.00321394
v 0.00383022 0.02100000 -0.00321394
v 0.00353553 0.00000000 -0.00353553
v 0.00353553 0.02100000 -0.00353553
v 0.00321394 0.00000000 -0.00383022
v 0.00321394 0.02100000 -0.00383022
v 0.00286788 0.00000000 -0.00409576
v 0.00286788 0.02100000 -0.00409576
v 0.00250000 0.00000000 -0.00433013
v 0.00250000 0.02100000 -0.00433013
v 0.00211309 0.00000000 -0.00453154
v 0.00211309 0.02100000 -0.00453154
v 0.00171010 0.00000000 -0.00469846
v 0.00171010 0.02100000 -0.00469846
v 0.00129410 0.00000000 -0.00482963
v 0.00129410 0.02100000 -0.00482963
v 0.00086824 0.00000000 -0.00492404
v 0.00086824 0.02100000 -0.00492404
v 0.00043578 0.00000000 -0.00498097
v 0.00043578 0.02100000 -0.00498097
v 0.00000000 0.00000000 -0.00500000
v 0.00000000 0.02100000 -0.00500000
v -0.00043578 0.00000000 -0.00498097
v -0.00043578 0.02100000 -0.00498097
v -0.00086824 0.00000000 -0.00492404
v -0.00086824 0.02100000 -0.00492404
v -0.00129410 0.00000000 -0.00482963
v -0.00129410 0.02100000 -0.00482963
v -0.00171010 0.00000000 -0.00469846
v -0.00171010 0.02100000 -0.00469846
v -0.00211309 0.00000000 -0.00453154
v -0.00211309 0.02100000 -0.00453154
v -0.00250000 0.00000000 -0.00433013
v -0.00250000 0.02100000 -0.00433013
v -0.00286788 0.00000000 -0.00409576
v -0.00286788 0.02100000 -0.00409576
v -0.00321394 0.00000000 -0.00383022
v -0.00321394 0.02100000 -0.00383022
v -0.00353553 0.00000000 -0.00353553
v -0.00353553 0.02100000 -0.00353553
v -0.00383022 0.00000000 -0.00321394
v -0.00383022 0.02100000 -0.00321394
v -0.00409576 0.00000000 -0.00286788
v -0.00409576 0.02100000 -0.00286788
v -0.00433013 0.00000000 -0.00250000
v -0.00433013 0.02100000 -0.00250000
v -0.00453154 0.00000000 -0.00211309
v -0.00453154 0.02100000 -0.00211309
v -0.00469846 0.00000000 -0.00171010
v -0.00469846 0.02100000 -0.00171010
v -0.00482963 0.00000000 -0.00129410
v -0.00482963 0.02100000 -0.00129410
v -0.00492404 0.00000000 -0.00086824
v -0.00492404 0.02100000 -0.00086824
v -0.00498097 0.00000000 -0.00043578
v -0.00498097 0.02100000 -0.00043578
v -0.00500000 0.00000000 -0.00000000
v 0.00000000 0.00000000 0.00000000
v 0.00000000 0.02100000 0.00000000
f 1 2 3
f 2 4 3
f 3 4 5
f 4 6 5
f 5 6 7
f 6 8 7
f 7 8 9
f 8 10 9
f 9 10 11
f 10 12 11
f 11 12 13
f 12 14 13
f 13 14 15
f 14 16 15
f 15 16 17
f 16 18 17
f 17 18 19
f 18 20 19
f 19 20 21
f 20 22 21
f 21 22 23
f 22 24 23
f 23 24 25
f 24 26 25
f 25 26 27
f 26 28 27
f 27 28 29
f 28 30 29
f 29 30 31
f 30 32 31
f 31 32 33
f 32 34 33
f 33 34 35
f 34 36 35
f 35 36 37
f 36 38 37
f 37 38 39
f 38 40 39
f 39 40 41
f 40 42 41
f 41 42 43
f 42 44 43
f 43 44 45
f 44 46 45
f 45 46 47
f 46 48 47
f 47 48 49
f 48 50 49
f 49 50 51
f 50 52 51
f 51 52 53
f 52 54 53
f 53 54 55
f 54 56 55
f 55 56 57
f 56 58 57
f 57 58 59
f 58 60 59
f 59 60 61
f 60 62 61
f 61 62 63
f 62 64 63
f 63 64 65
f 64 66 65
f 65 66 67
f 66 68 67
f 67 68 69
f 68 70 69
f 69 70 71
f 70 72 71
f 71 72 73
f 72 74 73
f 73 74 75
f 74 76 75
f 75 76 77
f 76 78 77
f 77 78 79
f 78 80 79
f 79 80 81
f 80 82 81
f 81 82 83
f 82 84 83
f 83 84 85
f 84 86 85
f 85 86 87
f 86 88 87
f 87 88 89
f 88 90 89
f 89 90 91
f 90 92 91
f 91 92 93
f 92 94 93
f 93 94 95
f 94 96 95
f 95 96 97
f 96 98 97
f 97 98 99
f 98 100 99
f 99 100 101
f 100 102 101
f 101 102 103
f 102 104 103
f 103 104 105
f 104 106 105
f 105 106 107
f 106 108 107
f 107 108 109
f 108 110 109
f 109 110 111
f 110 112 111
f 111 112 113
f 112 114 113
f 113 114 115
f 114 116 115
f 115 116 117
f 116 118 117
f 117 118 119
f 118 120 119
f 119 120 121
f 120 122 121
f 121 122 123
f 122 124 123
f 123 124 125
f 124 126 125
f 125 126 127
f 126 128 127
f 127 128 129
f 128 130 129
f 129 130 131
f 130 132 131
f 131 132 133
f 132 134 133
f 133 134 135
f 134 136 135
f 135 136 137
f 136 138 137
f 137 138 139
f 138 140 139
f 139 140 141
f 140 142 141
f 141 142 143
f 142 144 143
f 143 144 1
f 144 2 1
f 4 2 145
f 2 144 145
f 145 144 142
f 10 8 145
f 8 6 145
f 145 6 4
f 16 14 145
f 14 12 145
f 145 12 10
f 22 20 145
f 20 18 145
f 145 18 16
f 28 26 145
f 26 24 145
f 145 24 22
f 34 32 145
f 32 30 145
f 145 30 28
f 40 38 145
f 38 36 145
f 145 36 34
f 46 44 145
f 44 42 145
f 145 42 40
f 52 50 145
f 50 48 145
f 145 48 46
f 58 56 145
f 56 54 145
f 145 54 52
f 64 62 145
f 62 60 145
f 145 60 58
f 70 68 145
f 68 66 145
f 145 66 64
f 76 74 145
f 74 72 145
f 145 72 70
f 82 80 145
f 80 78 145
f 145 78 76
f 88 86 145
f 86 84 145
f 145 84 82
f 94 92 145
f 92 90 145
f 145 90 88
f 100 98 145
f 98 96 145
f 145 96 94
f 106 104 145
f 104 102 145
f 145 102 100
f 112 110 145
f 110 108 145
f 145 108 106
f 118 116 145
f 116 114 145
f 145 114 112
f 124 122 145
f 122 120 145
f 145 120 118
f 130 128 145
f 128 126 145
f 145 126 124
f 136 134 145
f 134 132 145
f 145 132 130
f 142 140 145
f 140 138 145
f 145 138 136
f 141 143 146
f 143 1 146
f 146 1 3
f 135 137 146
f 137 139 146
f 146 139 141
f 129 131 146
f 131 133 146
f 146 133 135
f 123 125 146
f 125 127 146
f 146 127 129
f 117 119 146
f 119 121 146
f 146 121 123
f 111 113 146
f 113 115 146
f 146 115 117
f 105 107 146
f 107 109 146
f 146 109 111
f 99 101 146
f 101 103 146
f 146 103 105
f 93 95 146
f 95 97 146
f 146 97 99
f 87 89 146
f 89 91 146
f 146 91 93
f 81 83 146
f 83 85 146
f 146 85 87
f 75 77 146
f 77 79 146
f 146 79 81
f 69 71 146
f 71 73 146
f 146 73 75
f 63 65 146
f 65 67 146
f 146 67 69
f 57 59 146
f 59 61 146
f 146 61 63
f 51 53 146
f 53 55 146
f 146 55 57
f 45 47 146
f 47 49 146
f 146 49 51
f 39 41 146
f 41 43 146
f 146 43 45
f 33 35 146
f 35 37 146
f 146 37 39
f 27 29 146
f 29 31 146
f 146 31 33
f 21 23 146
f 23 25 146
f 146 25 27
f 15 17 146
f 17 19 146
f 146 19 21
f 9 11 146
f 11 13 146
f 146 13 15
f 3 5 146
f 5 7 146
f 146 7 9

