# https://github.com/mikedh/trimesh
v 0.13500001 0.01750000 0.02330000
v 0.12000000 0.01750000 0.02330000
v 0.13500001 0.01763073 0.02329429
v 0.12000000 0.01763073 0.02329429
v 0.13500001 0.01776047 0.02327721
v 0.12000000 0.01776047 0.02327721
v 0.13500001 0.01788823 0.02324889
v 0.12000000 0.01788823 0.02324889
v 0.13500001 0.01801303 0.02320954
v 0.12000000 0.01801303 0.02320954
v 0.13500001 0.01813393 0.02315946
v 0.12000000 0.01813393 0.02315946
v 0.13500001 0.01825000 0.02309904
v 0.12000000 0.01825000 0.02309904
v 0.13500001 0.01836037 0.02302873
v 0.12000000 0.01836037 0.02302873
v 0.13500001 0.01846418 0.02294907
v 0.12000000 0.01846418 0.02294907
v 0.13500001 0.01856066 0.02286066
v 0.12000000 0.01856066 0.02286066
v 0.13500001 0.01864907 0.02276418
v 0.12000000 0.01864907 0.02276418
v 0.13500001 0.01872873 0.02266037
v 0.12000000 0.01872873 0.02266037
v 0.13500001 0.01879904 0.02255000
v 0.12000000 0.01879904 0.02255000
v 0.13500001 0.01885946 0.02243393
v 0.12000000 0.01885946 0.02243393
v 0.13500001 0.01890954 0.02231303
v 0.12000000 0.01890954 0.02231303
v 0.13500001 0.01894889 0.02218823
v 0.12000000 0.01894889 0.02218823
v 0.13500001 0.01897721 0.02206047
v 0.12000000 0.01897721 0.02206047
v 0.13500001 0.01899429 0.02193073
v 0.12000000 0.01899429 0.02193073
v 0.13500001 0.01900000 0.02180000
v 0.12000000 0.01900000 0.02180000
v 0.13500001 0.01899429 0.02166927
v 0.12000000 0.01899429 0.02166927
v 0.13500001 0.01897721 0.02153953
v 0.12000000 0.01897721 0.02153953
v 0.13500001 0.01894889 0.02141177
v 0.12000000 0.01894889 0.02141177
v 0.13500001 0.01890954 0.02128697
v 0.12000000 0.01890954 0.02128697
v 0.13500001 0.01885946 0.02116607
v 0.12000000 0.01885946 0.02116607
v 0.13500001 0.01879904 0.02105000
v 0.12000000 0.01879904 0.02105000
v 0.13500001 0.01872873 0.02093964
v 0.12000000 0.01872873 0.02093964
v 0.13500001 0.01864907 0.02083582
v 0.12000000 0.01864907 0.02083582
v 0.13500001 0.01856066 0.02073934
v 0.12000000 0.01856066 0.02073934
v 0.13500001 0.01846418 0.02065093
v 0.12000000 0.01846418 0.02065093
v 0.13500001 0.01836037 0.02057127
v 0.12000000 0.01836037 0.02057127
v 0.13500001 0.01825000 0.02050096
v 0.12000000 0.01825000 0.02050096
v 0.13500001 0.01813393 0.02044054
v 0.12000000 0.01813393 0.02044054
v 0.13500001 0.01801303 0.02039046
v 0.12000000 0.01801303 0.02039046
v 0.13500001 0.01788823 0.02035111
v 0.12000000 0.01788823 0.02035111
v 0.13500001 0.01776047 0.02032279
v 0.12000000 0.01776047 0.02032279
v 0.13500001 0.01763073 0.02030571
v 0.12000000 0.01763073 0.02030571
v 0.13500001 0.01750000 0.02030000
v 0.12000000 0.01750000 0.02030000
v 0.13500001 0.01736927 0.02030571
v 0.12000000 0.01736927 0.02030571
v 0.13500001 0.01723953 0.02032279
v 0.12000000 0.01723953 0.02032279
v 0.13500001 0.01711177 0.02035111
v 0.12000000 0.01711177 0.02035111
v 0.13500001 0.01698697 0.02039046
v 0.12000000 0.01698697 0.02039046
v 0.13500001 0.01686607 0.02044054
v 0.12000000 0.01686607 0.02044054
v 0.13500001 0.01675000 0.02050096
v 0.12000000 0.01675000 0.02050096
v 0.13500001 0.01663963 0.02057127
v 0.12000000 0.01663963 0.02057127
v 0.13500001 0.01653582 0.02065093
v 0.12000000 0.01653582 0.02065093
v 0.13500001 0.01643934 0.02073934
v 0.12000000 0.01643934 0.02073934
v 0.13500001 0.01635093 0.02083582
v 0.12000000 0.01635093 0.02083582
v 0.13500001 0.01627127 0.02093964
v 0.12000000 0.01627127 0.02093964
v 0.13500001 0.01620096 0.02105000
v 0.12000000 0.01620096 0.02105000
v 0.13500001 0.01614054 0.02116607
v 0.12000000 0.01614054 0.02116607
v 0.13500001 0.01609046 0.02128697
v 0.12000000 0.01609046 0.02128697
v 0.13500001 0.01605111 0.02141177
v 0.12000000 0.01605111 0.02141177
v 0.13500001 0.01602279 0.02153953
v 0.12000000 0.01602279 0.02153953
v 0.13500001 0.01600571 0.02166927
v 0.12000000 0.01600571 0.02166927
v 0.13500001 0.01600000 0.02180000
v 0.12000000 0.01600000 0.02180000
v 0.13500001 0.01600571 0.02193073
v 0.12000000 0.01600571 0.02193073
v 0.13500001 0.01602279 0.02206047
v 0.12000000 0.01602279 0.02206047
v 0.13500001 0.01605111 0.02218823
v 0.12000000 0.01605111 0.02218823
v 0.13500001 0.01609046 0.02231303
v 0.12000000 0.01609046 0.02231303
v 0.13500001 0.01614054 0.02243393
v 0.12000000 0.01614054 0.02243393
v 0.13500001 0.01620096 0.02255000
v 0.12000000 0.01620096 0.02255000
v 0.13500001 0.01627127 0.02266037
v 0.12000000 0.01627127 0.02266037
v 0.13500001 0.01635093 0.02276418
v 0.12000000 0.01635093 0.02276418
v 0.13500001 0.01643934 0.02286066
v 0.12000000 0.01643934 0.02286066
v 0.13500001 0.01653582 0.02294907
v 0.12000000 0.01653582 0.02294907
v 0.13500001 0.01663963 0.02302873
v 0.12000000 0.01663963 0.02302873
v 0.13500001 0.01675000 0.02309904
v 0.12000000 0.01675000 0.02309904
v 0.13500001 0.01686607 0.02315946
v 0.12000000 0.01686607 0.02315946
v 0.13500001 0.01698697 0.02320954
v 0.12000000 0.01698697 0.02320954
v 0.13500001 0.01711177 0.02324889
v 0.12000000 0.01711177 0.02324889
v 0.13500001 0.01723953 0.02327721
v 0.12000000 0.01723953 0.02327721
v 0.13500001 0.01736927 0.02329429
v 0.12000000 0.01736927 0.02329429
v 0.12000000 -0.02250000 0.01270000
v 0.13500001 -0.02250000 0.01270000
v 0.12000000 -0.02250000 0.02370000
v 0.13500001 -0.02250000 0.02370000
v 0.13500001 -0.01250000 0.01270000
v 0.12000000 -0.01250000 0.01270000
v 0.13500001 0.02250000 0.02730000
v 0.13500001 0.02250000 0.01630000
v 0.12000000 0.02250000 0.02730000
v 0.12000000 0.02250000 0.01630000
v 0.12000000 0.01250000 0.01630000
v 0.13500001 0.01250000 0.01630000
v 0.13500001 0.01250000 0.02730000
v 0.12000000 0.01250000 0.02730000
v 0.13500001 -0.01500000 0.01970000
v 0.12000000 -0.01500000 0.01970000
v 0.13500001 -0.01486927 0.01969429
v 0.12000000 -0.01486927 0.01969429
v 0.13500001 -0.01473953 0.01967721
v 0.12000000 -0.01473953 0.01967721
v 0.13500001 -0.01461177 0.01964889
v 0.12000000 -0.01461177 0.01964889
v 0.13500001 -0.01448697 0.01960954
v 0.12000000 -0.01448697 0.01960954
v 0.13500001 -0.01436607 0.01955946
v 0.12000000 -0.01436607 0.01955946
v 0.13500001 -0.01425000 0.01949904
v 0.12000000 -0.01425000 0.01949904
v 0.13500001 -0.01413964 0.01942873
v 0.12000000 -0.01413964 0.01942873
v 0.13500001 -0.01403582 0.01934907
v 0.12000000 -0.01403582 0.01934907
v 0.13500001 -0.01393934 0.01926066
v 0.12000000 -0.01393934 0.01926066
v 0.13500001 -0.01385093 0.01916418
v 0.12000000 -0.01385093 0.01916418
v 0.13500001 -0.01377127 0.01906036
v 0.12000000 -0.01377127 0.01906036
v 0.13500001 -0.01370096 0.01895000
v 0.12000000 -0.01370096 0.01895000
v 0.13500001 -0.01364054 0.01883393
v 0.12000000 -0.01364054 0.01883393
v 0.13500001 -0.01359046 0.01871303
v 0.12000000 -0.01359046 0.01871303
v 0.13500001 -0.01355111 0.01858823
v 0.12000000 -0.01355111 0.01858823
v 0.13500001 -0.01352279 0.01846047
v 0.12000000 -0.01352279 0.01846047
v 0.13500001 -0.01350571 0.01833073
v 0.12000000 -0.01350571 0.01833073
v 0.13500001 -0.01350000 0.01820000
v 0.12000000 -0.01350000 0.01820000
v 0.13500001 -0.01350571 0.01806927
v 0.12000000 -0.01350571 0.01806927
v 0.13500001 -0.01352279 0.01793953
v 0.12000000 -0.01352279 0.01793953
v 0.13500001 -0.01355111 0.01781177
v 0.12000000 -0.01355111 0.01781177
v 0.13500001 -0.01359046 0.01768697
v 0.12000000 -0.01359046 0.01768697
v 0.13500001 -0.01364054 0.01756607
v 0.12000000 -0.01364054 0.01756607
v 0.13500001 -0.01370096 0.01745000
v 0.12000000 -0.01370096 0.01745000
v 0.13500001 -0.01377127 0.01733964
v 0.12000000 -0.01377127 0.01733964
v 0.13500001 -0.01385093 0.01723582
v 0.12000000 -0.01385093 0.01723582
v 0.13500001 -0.01393934 0.01713934
v 0.12000000 -0.01393934 0.01713934
v 0.13500001 -0.01403582 0.01705093
v 0.12000000 -0.01403582 0.01705093
v 0.13500001 -0.01413964 0.01697127
v 0.12000000 -0.01413964 0.01697127
v 0.13500001 -0.01425000 0.01690096
v 0.12000000 -0.01425000 0.01690096
v 0.13500001 -0.01436607 0.01684054
v 0.12000000 -0.01436607 0.01684054
v 0.13500001 -0.01448697 0.01679046
v 0.12000000 -0.01448697 0.01679046
v 0.13500001 -0.01461177 0.01675111
v 0.12000000 -0.01461177 0.01675111
v 0.13500001 -0.01473953 0.01672279
v 0.12000000 -0.01473953 0.01672279
v 0.13500001 -0.01486927 0.01670571
v 0.12000000 -0.01486927 0.01670571
v 0.13500001 -0.01500000 0.01670000
v 0.12000000 -0.01500000 0.01670000
v 0.13500001 -0.01513073 0.01670571
v 0.12000000 -0.01513073 0.01670571
v 0.13500001 -0.01526047 0.01672279
v 0.12000000 -0.01526047 0.01672279
v 0.13500001 -0.01538823 0.01675111
v 0.12000000 -0.01538823 0.01675111
v 0.13500001 -0.01551303 0.01679046
v 0.12000000 -0.01551303 0.01679046
v 0.13500001 -0.01563393 0.01684054
v 0.12000000 -0.01563393 0.01684054
v 0.13500001 -0.01575000 0.01690096
v 0.12000000 -0.01575000 0.01690096
v 0.13500001 -0.01586036 0.01697127
v 0.12000000 -0.01586036 0.01697127
v 0.13500001 -0.01596418 0.01705093
v 0.12000000 -0.01596418 0.01705093
v 0.13500001 -0.01606066 0.01713934
v 0.12000000 -0.01606066 0.01713934
v 0.13500001 -0.01614907 0.01723582
v 0.12000000 -0.01614907 0.01723582
v 0.13500001 -0.01622873 0.01733964
v 0.12000000 -0.01622873 0.01733964
v 0.13500001 -0.01629904 0.01745000
v 0.12000000 -0.01629904 0.01745000
v 0.13500001 -0.01635946 0.01756607
v 0.12000000 -0.01635946 0.01756607
v 0.13500001 -0.01640954 0.01768697
v 0.12000000 -0.01640954 0.01768697
v 0.13500001 -0.01644889 0.01781177
v 0.12000000 -0.01644889 0.01781177
v 0.13500001 -0.01647721 0.01793953
v 0.12000000 -0.01647721 0.01793953
v 0.13500001 -0.01649429 0.01806927
v 0.12000000 -0.01649429 0.01806927
v 0.13500001 -0.01650000 0.01820000
v 0.12000000 -0.01650000 0.01820000
v 0.13500001 -0.01649429 0.01833073
v 0.12000000 -0.01649429 0.01833073
v 0.13500001 -0.01647721 0.01846047
v 0.12000000 -0.01647721 0.01846047
v 0.13500001 -0.01644889 0.01858823
v 0.12000000 -0.01644889 0.01858823
v 0.13500001 -0.01640954 0.01871303
v 0.12000000 -0.01640954 0.01871303
v 0.13500001 -0.01635946 0.01883393
v 0.12000000 -0.01635946 0.01883393
v 0.13500001 -0.01629904 0.01895000
v 0.12000000 -0.01629904 0.01895000
v 0.13500001 -0.01622873 0.01906036
v 0.12000000 -0.01622873 0.01906036
v 0.13500001 -0.01614907 0.01916418
v 0.12000000 -0.01614907 0.01916418
v 0.13500001 -0.01606066 0.01926066
v 0.12000000 -0.01606066 0.01926066
v 0.13500001 -0.01596418 0.01934907
v 0.12000000 -0.01596418 0.01934907
v 0.13500001 -0.01586036 0.01942873
v 0.12000000 -0.01586036 0.01942873
v 0.13500001 -0.01575000 0.01949904
v 0.12000000 -0.01575000 0.01949904
v 0.13500001 -0.01563393 0.01955946
v 0.12000000 -0.01563393 0.01955946
v 0.13500001 -0.01551303 0.01960954
v 0.12000000 -0.01551303 0.01960954
v 0.13500001 -0.01538823 0.01964889
v 0.12000000 -0.01538823 0.01964889
v 0.13500001 -0.01526047 0.01967721
v 0.12000000 -0.01526047 0.01967721
v 0.13500001 -0.01513073 0.01969429
v 0.12000000 -0.01513073 0.01969429
v 0.06866025 -0.00776618 0.00500000
v 0.06866025 0.00776618 0.00500000
v 0.03866025 0.00500000 0.00500000
v 0.00866025 -0.00500000 0.00500000
v 0.00500000 0.00000000 0.00500000
v 0.00498097 -0.00043578 0.00500000
v 0.00043578 0.00498097 0.00500000
v 0.00086824 0.00492404 0.00500000
v 0.00866025 0.00500000 0.00500000
v 0.03866025 -0.00500000 0.00500000
v 0.00498097 0.00043578 0.00500000
v 0.00492404 0.00086824 0.00500000
v 0.00482963 0.00129410 0.00500000
v 0.00492404 -0.00086824 0.00500000
v 0.00482963 -0.00129410 0.00500000
v 0.00469846 -0.00171010 0.00500000
v 0.00129410 0.00482963 0.00500000
v 0.00171010 0.00469846 0.00500000
v 0.00211309 0.00453154 0.00500000
v 0.00409576 0.00286788 0.00500000
v 0.00433013 0.00250000 0.00500000
v 0.00453154 0.00211309 0.00500000
v 0.00469846 0.00171010 0.00500000
v 0.00250000 0.00433013 0.00500000
v 0.00286788 0.00409576 0.00500000
v 0.00321394 0.00383022 0.00500000
v 0.00353553 0.00353553 0.00500000
v 0.00383022 0.00321394 0.00500000
v 0.00422618 0.00906308 0.00500000
v -0.00000000 0.00500000 0.00500000
v 0.00500000 0.00866025 0.00500000
v 0.00573576 0.00819152 0.00500000
v 0.00342020 0.00939693 0.00500000
v 0.00258819 0.00965926 0.00500000
v 0.00173648 0.00984808 0.00500000
v 0.00819152 0.00573576 0.00500000
v 0.00766044 0.00642788 0.00500000
v 0.00087156 0.00996195 0.00500000
v -0.00000000 0.01000000 0.00500000
v -0.00043578 0.00498097 0.00500000
v -0.00087156 0.00996195 0.00500000
v -0.00086824 0.00492404 0.00500000
v -0.00173648 0.00984808 0.00500000
v -0.00129410 0.00482963 0.00500000
v -0.00258819 0.00965926 0.00500000
v -0.00171010 0.00469846 0.00500000
v -0.00342020 0.00939693 0.00500000
v -0.00211309 0.00453154 0.00500000
v -0.00422618 0.00906308 0.00500000
v -0.00250000 0.00433013 0.00500000
v -0.00500000 0.00866025 0.00500000
v -0.00286788 0.00409576 0.00500000
v -0.00573576 0.00819152 0.00500000
v -0.00321394 0.00383022 0.00500000
v -0.00642788 0.00766044 0.00500000
v -0.00353553 0.00353553 0.00500000
v -0.00707107 0.00707107 0.00500000
v -0.00383022 0.00321394 0.00500000
v -0.00766044 0.00642788 0.00500000
v -0.00409576 0.00286788 0.00500000
v -0.00819152 0.00573576 0.00500000
v -0.00433013 0.00250000 0.00500000
v -0.00866025 0.00500000 0.00500000
v -0.00453154 0.00211309 0.00500000
v -0.00906308 0.00422618 0.00500000
v -0.00469846 0.00171010 0.00500000
v -0.00939693 0.00342020 0.00500000
v -0.00482963 0.00129410 0.00500000
v -0.00965926 0.00258819 0.00500000
v -0.00492404 0.00086824 0.00500000
v -0.00984808 0.00173648 0.00500000
v -0.00498097 0.00043578 0.00500000
v -0.00996195 0.00087156 0.00500000
v -0.00500000 0.00000000 0.00500000
v -0.01000000 -0.00000000 0.00500000
v -0.00498097 -0.00043578 0.00500000
v -0.00996195 -0.00087156 0.00500000
v -0.00492404 -0.00086824 0.00500000
v -0.00984808 -0.00173648 0.00500000
v -0.00482963 -0.00129410 0.00500000
v -0.00965926 -0.00258819 0.00500000
v -0.00469846 -0.00171010 0.00500000
v -0.00939693 -0.00342020 0.00500000
v -0.00453154 -0.00211309 0.00500000
v -0.00906308 -0.00422618 0.00500000
v -0.00433013 -0.00250000 0.00500000
v -0.00866025 -0.00500000 0.00500000
v -0.00409576 -0.00286788 0.00500000
v -0.00819152 -0.00573576 0.00500000
v -0.00383022 -0.00321394 0.00500000
v -0.00766044 -0.00642788 0.00500000
v -0.00353553 -0.00353553 0.00500000
v -0.00707107 -0.00707107 0.00500000
v -0.00321394 -0.00383022 0.00500000
v -0.00642788 -0.00766044 0.00500000
v -0.00286788 -0.00409576 0.00500000
v -0.00573576 -0.00819152 0.00500000
v -0.00250000 -0.00433013 0.00500000
v -0.00500000 -0.00866025 0.00500000
v -0.00211309 -0.00453154 0.00500000
v -0.00422618 -0.00906308 0.00500000
v -0.00171010 -0.00469846 0.00500000
v -0.00342020 -0.00939693 0.00500000
v -0.00129410 -0.00482963 0.00500000
v -0.00258819 -0.00965926 0.00500000
v -0.00086824 -0.00492404 0.00500000
v -0.00173648 -0.00984808 0.00500000
v -0.00043578 -0.00498097 0.00500000
v -0.00087156 -0.00996195 0.00500000
v 0.00000000 -0.00500000 0.00500000
v 0.00000000 -0.01000000 0.00500000
v 0.00043578 -0.00498097 0.00500000
v 0.00087156 -0.00996195 0.00500000
v 0.00086824 -0.00492404 0.00500000
v 0.00173648 -0.00984808 0.00500000
v 0.00129410 -0.00482963 0.00500000
v 0.00258819 -0.00965926 0.00500000
v 0.00171010 -0.00469846 0.00500000
v 0.00342020 -0.00939693 0.00500000
v 0.00211309 -0.00453154 0.00500000
v 0.00422618 -0.00906308 0.00500000
v 0.00250000 -0.00433013 0.00500000
v 0.00500000 -0.00866025 0.00500000
v 0.00286788 -0.00409576 0.00500000
v 0.00573576 -0.00819152 0.00500000
v 0.00321394 -0.00383022 0.00500000
v 0.00642788 -0.00766044 0.00500000
v 0.00353553 -0.00353553 0.00500000
v 0.00707107 -0.00707107 0.00500000
v 0.00383022 -0.00321394 0.00500000
v 0.00766044 -0.00642788 0.00500000
v 0.00409576 -0.00286788 0.00500000
v 0.00819152 -0.00573576 0.00500000
v 0.00433013 -0.00250000 0.00500000
v 0.00453154 -0.00211309 0.00500000
v 0.00707107 0.00707107 0.00500000
v 0.00642788 0.00766044 0.00500000
v 0.06866025 0.00776618 0.03500000
v 0.06866025 -0.00776618 0.03500000
v 0.03866025 0.00500000 0.03500000
v 0.03866025 -0.00500000 0.03500000
v 0.00866025 0.00500000 0.03500000
v 0.00866025 -0.00500000 0.03500000
v 0.00819152 0.00573576 0.03500000
v 0.00087156 0.00996195 0.03500000
v 0.00173648 0.00984808 0.03500000
v 0.00258819 0.00965926 0.03500000
v 0.00342020 0.00939693 0.03500000
v 0.00422618 0.00906308 0.03500000
v 0.00500000 0.00866025 0.03500000
v 0.00573576 0.00819152 0.03500000
v 0.00642788 0.00766044 0.03500000
v 0.00453154 0.00211309 0.03500000
v 0.00433013 0.00250000 0.03500000
v 0.00409576 0.00286788 0.03500000
v 0.00383022 0.00321394 0.03500000
v 0.00707107 0.00707107 0.03500000
v 0.00766044 0.00642788 0.03500000
v 0.00453154 -0.00211309 0.03500000
v 0.00469846 -0.00171010 0.03500000
v 0.00492404 0.00086824 0.03500000
v 0.00482963 0.00129410 0.03500000
v 0.00469846 0.00171010 0.03500000
v 0.00286788 0.00409576 0.03500000
v 0.00250000 0.00433013 0.03500000
v 0.00211309 0.00453154 0.03500000
v 0.00171010 0.00469846 0.03500000
v 0.00129410 0.00482963 0.03500000
v 0.00482963 -0.00129410 0.03500000
v 0.00492404 -0.00086824 0.03500000
v 0.00498097 -0.00043578 0.03500000
v 0.00500000 0.00000000 0.03500000
v 0.00498097 0.00043578 0.03500000
v 0.00353553 0.00353553 0.03500000
v 0.00321394 0.00383022 0.03500000
v 0.00086824 0.00492404 0.03500000
v 0.00043578 0.00498097 0.03500000
v -0.00000000 0.01000000 0.03500000
v -0.00000000 0.00500000 0.03500000
v -0.00087156 0.00996195 0.03500000
v -0.00043578 0.00498097 0.03500000
v -0.00173648 0.00984808 0.03500000
v -0.00086824 0.00492404 0.03500000
v -0.00258819 0.00965926 0.03500000
v -0.00129410 0.00482963 0.03500000
v -0.00342020 0.00939693 0.03500000
v -0.00171010 0.00469846 0.03500000
v -0.00422618 0.00906308 0.03500000
v -0.00211309 0.00453154 0.03500000
v -0.00500000 0.00866025 0.03500000
v -0.00250000 0.00433013 0.03500000
v -0.00573576 0.00819152 0.03500000
v -0.00286788 0.00409576 0.03500000
v -0.00642788 0.00766044 0.03500000
v -0.00321394 0.00383022 0.03500000
v -0.00707107 0.00707107 0.03500000
v -0.00353553 0.00353553 0.03500000
v -0.00766044 0.00642788 0.03500000
v -0.00383022 0.00321394 0.03500000
v -0.00819152 0.00573576 0.03500000
v -0.00409576 0.00286788 0.03500000
v -0.00866025 0.00500000 0.03500000
v -0.00433013 0.00250000 0.03500000
v -0.00906308 0.00422618 0.03500000
v -0.00453154 0.00211309 0.03500000
v -0.00939693 0.00342020 0.03500000
v -0.00469846 0.00171010 0.03500000
v -0.00965926 0.00258819 0.03500000
v -0.00482963 0.00129410 0.03500000
v -0.00984808 0.00173648 0.03500000
v -0.00492404 0.00086824 0.03500000
v -0.00996195 0.00087156 0.03500000
v -0.00498097 0.00043578 0.03500000
v -0.01000000 -0.00000000 0.03500000
v -0.00500000 0.00000000 0.03500000
v -0.00996195 -0.00087156 0.03500000
v -0.00498097 -0.00043578 0.03500000
v -0.00984808 -0.00173648 0.03500000
v -0.00492404 -0.00086824 0.03500000
v -0.00965926 -0.00258819 0.03500000
v -0.00482963 -0.00129410 0.03500000
v -0.00939693 -0.00342020 0.03500000
v -0.00469846 -0.00171010 0.03500000
v -0.00906308 -0.00422618 0.03500000
v -0.00453154 -0.00211309 0.03500000
v -0.00866025 -0.00500000 0.03500000
v -0.00433013 -0.00250000 0.03500000
v -0.00819152 -0.00573576 0.03500000
v -0.00409576 -0.00286788 0.03500000
v -0.00766044 -0.00642788 0.03500000
v -0.00383022 -0.00321394 0.03500000
v -0.00707107 -0.00707107 0.03500000
v -0.00353553 -0.00353553 0.03500000
v -0.00642788 -0.00766044 0.03500000
v -0.00321394 -0.00383022 0.03500000
v -0.00573576 -0.00819152 0.03500000
v -0.00286788 -0.00409576 0.03500000
v -0.00500000 -0.00866025 0.03500000
v -0.00250000 -0.00433013 0.03500000
v -0.00422618 -0.00906308 0.03500000
v -0.00211309 -0.00453154 0.03500000
v -0.00342020 -0.00939693 0.03500000
v -0.00171010 -0.00469846 0.03500000
v -0.00258819 -0.00965926 0.03500000
v -0.00129410 -0.00482963 0.03500000
v -0.00173648 -0.00984808 0.03500000
v -0.00086824 -0.00492404 0.03500000
v -0.00087156 -0.00996195 0.03500000
v -0.00043578 -0.00498097 0.03500000
v 0.00000000 -0.01000000 0.03500000
v 0.00000000 -0.00500000 0.03500000
v 0.00087156 -0.00996195 0.03500000
v 0.00043578 -0.00498097 0.03500000
v 0.00173648 -0.00984808 0.03500000
v 0.00086824 -0.00492404 0.03500000
v 0.00258819 -0.00965926 0.03500000
v 0.00129410 -0.00482963 0.03500000
v 0.00342020 -0.00939693 0.03500000
v 0.00171010 -0.00469846 0.03500000
v 0.00422618 -0.00906308 0.03500000
v 0.00211309 -0.00453154 0.03500000
v 0.00500000 -0.00866025 0.03500000
v 0.00250000 -0.00433013 0.03500000
v 0.00573576 -0.00819152 0.03500000
v 0.00286788 -0.00409576 0.03500000
v 0.00642788 -0.00766044 0.03500000
v 0.00321394 -0.00383022 0.03500000
v 0.00707107 -0.00707107 0.03500000
v 0.00353553 -0.00353553 0.03500000
v 0.00766044 -0.00642788 0.03500000
v 0.00383022 -0.00321394 0.03500000
v 0.00819152 -0.00573576 0.03500000
v 0.00409576 -0.00286788 0.03500000
v 0.00433013 -0.00250000 0.03500000
v 0.13500001 -0.01250000 0.02370000
v 0.03866025 0.00500000 0.00000000
v 0.03866025 0.00500000 0.04000000
v 0.12000000 0.01250000 0.04000000
v 0.12000000 0.01250000 0.00000000
v 0.19499999 0.00000000 0.03500000
v 0.19499999 -0.00000000 0.04000000
v 0.19498098 0.00043578 0.03500000
v 0.19498098 0.00043578 0.04000000
v 0.19492404 0.00086824 0.03500000
v 0.19492404 0.00086824 0.04000000
v 0.19482963 0.00129410 0.03500000
v 0.19482963 0.00129410 0.04000000
v 0.19469847 0.00171010 0.03500000
v 0.19469847 0.00171010 0.04000000
v 0.19453155 0.00211309 0.03500000
v 0.19453155 0.00211309 0.04000000
v 0.19433013 0.00250000 0.03500000
v 0.19433013 0.00250000 0.04000000
v 0.19409576 0.00286788 0.03500000
v 0.19409576 0.00286788 0.04000000
v 0.19383022 0.00321394 0.03500000
v 0.19383022 0.00321394 0.04000000
v 0.19353554 0.00353553 0.03500000
v 0.19353554 0.00353553 0.04000000
v 0.19321394 0.00383022 0.03500000
v 0.19321394 0.00383022 0.04000000
v 0.19286788 0.00409576 0.03500000
v 0.19286788 0.00409576 0.04000000
v 0.19250000 0.00433013 0.03500000
v 0.19250000 0.00433013 0.04000000
v 0.19211309 0.00453154 0.03500000
v 0.19211309 0.00453154 0.04000000
v 0.19171010 0.00469846 0.03500000
v 0.19171010 0.00469846 0.04000000
v 0.19129409 0.00482963 0.03500000
v 0.19129409 0.00482963 0.04000000
v 0.19086824 0.00492404 0.03500000
v 0.19086824 0.00492404 0.04000000
v 0.19043578 0.00498097 0.03500000
v 0.19043578 0.00498097 0.04000000
v 0.19000000 0.00500000 0.03500000
v 0.19000000 0.00500000 0.04000000
v 0.18956423 0.00498097 0.03500000
v 0.18956423 0.00498097 0.04000000
v 0.18913177 0.00492404 0.03500000
v 0.18913177 0.00492404 0.04000000
v 0.18870591 0.00482963 0.03500000
v 0.18870591 0.00482963 0.04000000
v 0.18828990 0.00469846 0.03500000
v 0.18828990 0.00469846 0.04000000
v 0.18788691 0.00453154 0.03500000
v 0.18788691 0.00453154 0.04000000
v 0.18750000 0.00433013 0.03500000
v 0.18750000 0.00433013 0.04000000
v 0.18713212 0.00409576 0.03500000
v 0.18713212 0.00409576 0.04000000
v 0.18678606 0.00383022 0.03500000
v 0.18678606 0.00383022 0.04000000
v 0.18646446 0.00353553 0.03500000
v 0.18646446 0.00353553 0.04000000
v 0.18616977 0.00321394 0.03500000
v 0.18616977 0.00321394 0.04000000
v 0.18590423 0.00286788 0.03500000
v 0.18590423 0.00286788 0.04000000
v 0.18566987 0.00250000 0.03500000
v 0.18566987 0.00250000 0.04000000
v 0.18546847 0.00211309 0.03500000
v 0.18546847 0.00211309 0.04000000
v 0.18530154 0.00171010 0.03500000
v 0.18530154 0.00171010 0.04000000
v 0.18517037 0.00129410 0.03500000
v 0.18517037 0.00129410 0.04000000
v 0.18507597 0.00086824 0.03500000
v 0.18507597 0.00086824 0.04000000
v 0.18501903 0.00043578 0.03500000
v 0.18501903 0.00043578 0.04000000
v 0.18500000 0.00000000 0.03500000
v 0.18500000 0.00000000 0.04000000
v 0.18501903 -0.00043578 0.03500000
v 0.18501903 -0.00043578 0.04000000
v 0.18507597 -0.00086824 0.03500000
v 0.18507597 -0.00086824 0.04000000
v 0.18517037 -0.00129410 0.03500000
v 0.18517037 -0.00129410 0.04000000
v 0.18530154 -0.00171010 0.03500000
v 0.18530154 -0.00171010 0.04000000
v 0.18546847 -0.00211309 0.03500000
v 0.18546847 -0.00211309 0.04000000
v 0.18566987 -0.00250000 0.03500000
v 0.18566987 -0.00250000 0.04000000
v 0.18590423 -0.00286788 0.03500000
v 0.18590423 -0.00286788 0.04000000
v 0.18616977 -0.00321394 0.03500000
v 0.18616977 -0.00321394 0.04000000
v 0.18646446 -0.00353553 0.03500000
v 0.18646446 -0.00353553 0.04000000
v 0.18678606 -0.00383022 0.03500000
v 0.18678606 -0.00383022 0.04000000
v 0.18713212 -0.00409576 0.03500000
v 0.18713212 -0.00409576 0.04000000
v 0.18750000 -0.00433013 0.03500000
v 0.18750000 -0.00433013 0.04000000
v 0.18788691 -0.00453154 0.03500000
v 0.18788691 -0.00453154 0.04000000
v 0.18828990 -0.00469846 0.03500000
v 0.18828990 -0.00469846 0.04000000
v 0.18870591 -0.00482963 0.03500000
v 0.18870591 -0.00482963 0.04000000
v 0.18913177 -0.00492404 0.03500000
v 0.18913177 -0.00492404 0.04000000
v 0.18956423 -0.00498097 0.03500000
v 0.18956423 -0.00498097 0.04000000
v 0.19000000 -0.00500000 0.03500000
v 0.19000000 -0.00500000 0.04000000
v 0.19043578 -0.00498097 0.03500000
v 0.19043578 -0.00498097 0.04000000
v 0.19086824 -0.00492404 0.03500000
v 0.19086824 -0.00492404 0.04000000
v 0.19129409 -0.00482963 0.03500000
v 0.19129409 -0.00482963 0.04000000
v 0.19171010 -0.00469846 0.03500000
v 0.19171010 -0.00469846 0.04000000
v 0.19211309 -0.00453154 0.03500000
v 0.19211309 -0.00453154 0.04000000
v 0.19250000 -0.00433013 0.03500000
v 0.19250000 -0.00433013 0.04000000
v 0.19286788 -0.00409576 0.03500000
v 0.19286788 -0.00409576 0.04000000
v 0.19321394 -0.00383022 0.03500000
v 0.19321394 -0.00383022 0.04000000
v 0.19353554 -0.00353553 0.03500000
v 0.19353554 -0.00353553 0.04000000
v 0.19383022 -0.00321394 0.03500000
v 0.19383022 -0.00321394 0.04000000
v 0.19409576 -0.00286788 0.03500000
v 0.19409576 -0.00286788 0.04000000
v 0.19433013 -0.00250000 0.03500000
v 0.19433013 -0.00250000 0.04000000
v 0.19453155 -0.00211309 0.03500000
v 0.19453155 -0.00211309 0.04000000
v 0.19469847 -0.00171010 0.03500000
v 0.19469847 -0.00171010 0.04000000
v 0.19482963 -0.00129410 0.03500000
v 0.19482963 -0.00129410 0.04000000
v 0.19492404 -0.00086824 0.03500000
v 0.19492404 -0.00086824 0.04000000
v 0.19498098 -0.00043578 0.03500000
v 0.19498098 -0.00043578 0.04000000
v -0.00500000 0.00000000 0.00000000
v -0.00498097 0.00043578 0.00000000
v -0.00492404 0.00086824 0.00000000
v -0.00482963 0.00129410 0.00000000
v -0.00469846 0.00171010 0.00000000
v -0.00453154 0.00211309 0.00000000
v -0.00433013 0.00250000 0.00000000
v -0.00409576 0.00286788 0.00000000
v -0.00383022 0.00321394 0.00000000
v -0.00353553 0.00353553 0.00000000
v -0.00321394 0.00383022 0.00000000
v -0.00286788 0.00409576 0.00000000
v -0.00250000 0.00433013 0.00000000
v -0.00211309 0.00453154 0.00000000
v -0.00171010 0.00469846 0.00000000
v -0.00129410 0.00482963 0.00000000
v -0.00086824 0.00492404 0.00000000
v -0.00043578 0.00498097 0.00000000
v -0.00000000 0.00500000 0.00000000
v 0.00043578 0.00498097 0.00000000
v 0.00086824 0.00492404 0.00000000
v 0.00129410 0.00482963 0.00000000
v 0.00171010 0.00469846 0.00000000
v 0.00211309 0.00453154 0.00000000
v 0.00250000 0.00433013 0.00000000
v 0.00286788 0.00409576 0.00000000
v 0.00321394 0.00383022 0.00000000
v 0.00353553 0.00353553 0.00000000
v 0.00383022 0.00321394 0.00000000
v 0.00409576 0.00286788 0.00000000
v 0.00433013 0.00250000 0.00000000
v 0.00453154 0.00211309 0.00000000
v 0.00469846 0.00171010 0.00000000
v 0.00482963 0.00129410 0.00000000
v 0.00492404 0.00086824 0.00000000
v 0.00498097 0.00043578 0.00000000
v 0.00500000 0.00000000 0.00000000
v 0.00498097 -0.00043578 0.00000000
v 0.00492404 -0.00086824 0.00000000
v 0.00482963 -0.00129410 0.00000000
v 0.00469846 -0.00171010 0.00000000
v 0.00453154 -0.00211309 0.00000000
v 0.00433013 -0.00250000 0.00000000
v 0.00409576 -0.00286788 0.00000000
v 0.00383022 -0.00321394 0.00000000
v 0.00353553 -0.00353553 0.00000000
v 0.00321394 -0.00383022 0.00000000
v 0.00286788 -0.00409576 0.00000000
v 0.00250000 -0.00433013 0.00000000
v 0.00211309 -0.00453154 0.00000000
v 0.00171010 -0.00469846 0.00000000
v 0.00129410 -0.00482963 0.00000000
v 0.00086824 -0.00492404 0.00000000
v 0.00043578 -0.00498097 0.00000000
v 0.00000000 -0.00500000 0.00000000
v -0.00043578 -0.00498097 0.00000000
v -0.00086824 -0.00492404 0.00000000
v -0.00129410 -0.00482963 0.00000000
v -0.00171010 -0.00469846 0.00000000
v -0.00211309 -0.00453154 0.00000000
v -0.00250000 -0.00433013 0.00000000
v -0.00286788 -0.00409576 0.00000000
v -0.00321394 -0.00383022 0.00000000
v -0.00353553 -0.00353553 0.00000000
v -0.00383022 -0.00321394 0.00000000
v -0.00409576 -0.00286788 0.00000000
v -0.00433013 -0.00250000 0.00000000
v -0.00453154 -0.00211309 0.00000000
v -0.00469846 -0.00171010 0.00000000
v -0.00482963 -0.00129410 0.00000000
v -0.00492404 -0.00086824 0.00000000
v -0.00498097 -0.00043578 0.00000000
v 0.00866025 0.00500000 0.00000000
v 0.00819152 0.00573576 0.00000000
v 0.00766044 0.00642788 0.00000000
v 0.00707107 0.00707107 0.00000000
v 0.00642788 0.00766044 0.00000000
v 0.00573576 0.00819152 0.00000000
v 0.00500000 0.00866025 0.00000000
v 0.00422618 0.00906308 0.00000000
v 0.00342020 0.00939693 0.00000000
v 0.00258819 0.00965926 0.00000000
v 0.00173648 0.00984808 0.00000000
v 0.00087156 0.00996195 0.00000000
v -0.00000000 0.01000000 0.00000000
v -0.00087156 0.00996195 0.00000000
v -0.00173648 0.00984808 0.00000000
v -0.00258819 0.00965926 0.00000000
v -0.00342020 0.00939693 0.00000000
v -0.00422618 0.00906308 0.00000000
v -0.00500000 0.00866025 0.00000000
v -0.00573576 0.00819152 0.00000000
v -0.00642788 0.00766044 0.00000000
v -0.00707107 0.00707107 0.00000000
v -0.00766044 0.00642788 0.00000000
v -0.00819152 0.00573576 0.00000000
v -0.00866025 0.00500000 0.00000000
v -0.00906308 0.00422618 0.00000000
v -0.00939693 0.00342020 0.00000000
v -0.00965926 0.00258819 0.00000000
v -0.00984808 0.00173648 0.00000000
v -0.00996195 0.00087156 0.00000000
v -0.01000000 -0.00000000 0.00000000
v -0.00996195 -0.00087156 0.00000000
v -0.00984808 -0.00173648 0.00000000
v -0.00965926 -0.00258819 0.00000000
v -0.00939693 -0.00342020 0.00000000
v -0.00906308 -0.00422618 0.00000000
v -0.00866025 -0.00500000 0.00000000
v -0.00819152 -0.00573576 0.00000000
v -0.00766044 -0.00642788 0.00000000
v -0.00707107 -0.00707107 0.00000000
v -0.00642788 -0.00766044 0.00000000
v -0.00573576 -0.00819152 0.00000000
v -0.00500000 -0.00866025 0.00000000
v -0.00422618 -0.00906308 0.00000000
v -0.00342020 -0.00939693 0.00000000
v -0.00258819 -0.00965926 0.00000000
v -0.00173648 -0.00984808 0.00000000
v -0.00087156 -0.00996195 0.00000000
v 0.00000000 -0.01000000 0.00000000
v 0.00087156 -0.00996195 0.00000000
v 0.00173648 -0.00984808 0.00000000
v 0.00258819 -0.00965926 0.00000000
v 0.00342020 -0.00939693 0.00000000
v 0.00422618 -0.00906308 0.00000000
v 0.00500000 -0.00866025 0.00000000
v 0.00573576 -0.00819152 0.00000000
v 0.00642788 -0.00766044 0.00000000
v 0.00707107 -0.00707107 0.00000000
v 0.00766044 -0.00642788 0.00000000
v 0.00819152 -0.00573576 0.00000000
v 0.00866025 -0.00500000 0.00000000
v 0.03866025 -0.00500000 0.00000000
v 0.20000000 0.01250000 0.04000000
v 0.20000000 0.01250000 0.00000000
v 0.00866025 0.00500000 0.04000000
v 0.00819152 0.00573576 0.04000000
v 0.00766044 0.00642788 0.04000000
v 0.00707107 0.00707107 0.04000000
v 0.00642788 0.00766044 0.04000000
v 0.00573576 0.00819152 0.04000000
v 0.00500000 0.00866025 0.04000000
v 0.00422618 0.00906308 0.04000000
v 0.00342020 0.00939693 0.04000000
v 0.00258819 0.00965926 0.04000000
v 0.00173648 0.00984808 0.04000000
v 0.00087156 0.00996195 0.04000000
v -0.00000000 0.01000000 0.04000000
v -0.00087156 0.00996195 0.04000000
v -0.00173648 0.00984808 0.04000000
v -0.00258819 0.00965926 0.04000000
v -0.00342020 0.00939693 0.04000000
v -0.00422618 0.00906308 0.04000000
v -0.00500000 0.00866025 0.04000000
v -0.00573576 0.00819152 0.04000000
v -0.00642788 0.00766044 0.04000000
v -0.00707107 0.00707107 0.04000000
v -0.00766044 0.00642788 0.04000000
v -0.00819152 0.00573576 0.04000000
v -0.00866025 0.00500000 0.04000000
v -0.00906308 0.00422618 0.04000000
v -0.00939693 0.00342020 0.04000000
v -0.00965926 0.00258819 0.04000000
v -0.00984808 0.00173648 0.04000000
v -0.00996195 0.00087156 0.04000000
v -0.01000000 -0.00000000 0.04000000
v -0.00996195 -0.00087156 0.04000000
v -0.00984808 -0.00173648 0.04000000
v -0.00965926 -0.00258819 0.04000000
v -0.00939693 -0.00342020 0.04000000
v -0.00906308 -0.00422618 0.04000000
v -0.00866025 -0.00500000 0.04000000
v -0.00819152 -0.00573576 0.04000000
v -0.00766044 -0.00642788 0.04000000
v -0.00707107 -0.00707107 0.04000000
v -0.00642788 -0.00766044 0.04000000
v -0.00573576 -0.00819152 0.04000000
v -0.00500000 -0.00866025 0.04000000
v -0.00422618 -0.00906308 0.04000000
v -0.00342020 -0.00939693 0.04000000
v -0.00258819 -0.00965926 0.04000000
v -0.00173648 -0.00984808 0.04000000
v -0.00087156 -0.00996195 0.04000000
v 0.00000000 -0.01000000 0.04000000
v 0.00087156 -0.00996195 0.04000000
v 0.00173648 -0.00984808 0.04000000
v 0.00258819 -0.00965926 0.04000000
v 0.00342020 -0.00939693 0.04000000
v 0.00422618 -0.00906308 0.04000000
v 0.00500000 -0.00866025 0.04000000
v 0.00573576 -0.00819152 0.04000000
v 0.00642788 -0.00766044 0.04000000
v 0.00707107 -0.00707107 0.04000000
v 0.00766044 -0.00642788 0.04000000
v 0.00819152 -0.00573576 0.04000000
v 0.00866025 -0.00500000 0.04000000
v 0.12000000 -0.01250000 0.02370000
v 0.20000000 -0.01250000 0.00000000
v 0.12000000 -0.01250000 0.00000000
v 0.03866025 -0.00500000 0.04000000
v 0.12000000 -0.01250000 0.04000000
v 0.20000000 -0.01250000 0.04000000
v 0.19000000 0.00000000 0.03500000
v -0.00500000 0.00000000 0.04000000
v -0.00498097 0.00043578 0.04000000
v -0.00492404 0.00086824 0.04000000
v -0.00482963 0.00129410 0.04000000
v -0.00469846 0.00171010 0.04000000
v -0.00453154 0.00211309 0.04000000
v -0.00433013 0.00250000 0.04000000
v -0.00409576 0.00286788 0.04000000
v -0.00383022 0.00321394 0.04000000
v -0.00353553 0.00353553 0.04000000
v -0.00321394 0.00383022 0.04000000
v -0.00286788 0.00409576 0.04000000
v -0.00250000 0.00433013 0.04000000
v -0.00211309 0.00453154 0.04000000
v -0.00171010 0.00469846 0.04000000
v -0.00129410 0.00482963 0.04000000
v -0.00086824 0.00492404 0.04000000
v -0.00043578 0.00498097 0.04000000
v -0.00000000 0.00500000 0.04000000
v 0.00043578 0.00498097 0.04000000
v 0.00086824 0.00492404 0.04000000
v 0.00129410 0.00482963 0.04000000
v 0.00171010 0.00469846 0.04000000
v 0.00211309 0.00453154 0.04000000
v 0.00250000 0.00433013 0.04000000
v 0.00286788 0.00409576 0.04000000
v 0.00321394 0.00383022 0.04000000
v 0.00353553 0.00353553 0.04000000
v 0.00383022 0.00321394 0.04000000
v 0.00409576 0.00286788 0.04000000
v 0.00433013 0.00250000 0.04000000
v 0.00453154 0.00211309 0.04000000
v 0.00469846 0.00171010 0.04000000
v 0.00482963 0.00129410 0.04000000
v 0.00492404 0.00086824 0.04000000
v 0.00498097 0.00043578 0.04000000
v 0.00500000 0.00000000 0.04000000
v 0.00498097 -0.00043578 0.04000000
v 0.00492404 -0.00086824 0.04000000
v 0.00482963 -0.00129410 0.04000000
v 0.00469846 -0.00171010 0.04000000
v 0.00453154 -0.00211309 0.04000000
v 0.00433013 -0.00250000 0.04000000
v 0.00409576 -0.00286788 0.04000000
v 0.00383022 -0.00321394 0.04000000
v 0.00353553 -0.00353553 0.04000000
v 0.00321394 -0.00383022 0.04000000
v 0.00286788 -0.00409576 0.04000000
v 0.00250000 -0.00433013 0.04000000
v 0.00211309 -0.00453154 0.04000000
v 0.00171010 -0.00469846 0.04000000
v 0.00129410 -0.00482963 0.04000000
v 0.00086824 -0.00492404 0.04000000
v 0.00043578 -0.00498097 0.04000000
v 0.00000000 -0.00500000 0.04000000
v -0.00043578 -0.00498097 0.04000000
v -0.00086824 -0.00492404 0.04000000
v -0.00129410 -0.00482963 0.04000000
v -0.00171010 -0.00469846 0.04000000
v -0.00211309 -0.00453154 0.04000000
v -0.00250000 -0.00433013 0.04000000
v -0.00286788 -0.00409576 0.04000000
v -0.00321394 -0.00383022 0.04000000
v -0.00353553 -0.00353553 0.04000000
v -0.00383022 -0.00321394 0.04000000
v -0.00409576 -0.00286788 0.04000000
v -0.00433013 -0.00250000 0.04000000
v -0.00453154 -0.00211309 0.04000000
v -0.00469846 -0.00171010 0.04000000
v -0.00482963 -0.00129410 0.04000000
v -0.00492404 -0.00086824 0.04000000
v -0.00498097 -0.00043578 0.04000000
f 1 2 3
f 2 4 3
f 3 4 5
f 4 6 5
f 5 6 7
f 6 8 7
f 7 8 9
f 8 10 9
f 9 10 11
f 10 12 11
f 11 12 13
f 12 14 13
f 13 14 15
f 14 16 15
f 15 16 17
f 16 18 17
f 17 18 19
f 18 20 19
f 19 20 21
f 20 22 21
f 21 22 23
f 22 24 23
f 23 24 25
f 24 26 25
f 25 26 27
f 26 28 27
f 27 28 29
f 28 30 29
f 29 30 31
f 30 32 31
f 31 32 33
f 32 34 33
f 33 34 35
f 34 36 35
f 35 36 37
f 36 38 37
f 37 38 39
f 38 40 39
f 39 40 41
f 40 42 41
f 41 42 43
f 42 44 43
f 43 44 45
f 44 46 45
f 45 46 47
f 46 48 47
f 47 48 49
f 48 50 49
f 49 50 51
f 50 52 51
f 51 52 53
f 52 54 53
f 53 54 55
f 54 56 55
f 55 56 57
f 56 58 57
f 57 58 59
f 58 60 59
f 59 60 61
f 60 62 61
f 61 62 63
f 62 64 63
f 63 64 65
f 64 66 65
f 65 66 67
f 66 68 67
f 67 68 69
f 68 70 69
f 69 70 71
f 70 72 71
f 71 72 73
f 72 74 73
f 73 74 75
f 74 76 75
f 75 76 77
f 76 78 77
f 77 78 79
f 78 80 79
f 79 80 81
f 80 82 81
f 81 82 83
f 82 84 83
f 83 84 85
f 84 86 85
f 85 86 87
f 86 88 87
f 87 88 89
f 88 90 89
f 89 90 91
f 90 92 91
f 91 92 93
f 92 94 93
f 93 94 95
f 94 96 95
f 95 96 97
f 96 98 97
f 97 98 99
f 98 100 99
f 99 100 101
f 100 102 101
f 101 102 103
f 102 104 103
f 103 104 105
f 104 106 105
f 105 106 107
f 106 108 107
f 107 108 109
f 108 110 109
f 109 110 111
f 110 112 111
f 111 112 113
f 112 114 113
f 113 114 115
f 114 116 115
f 115 116 117
f 116 118 117
f 117 118 119
f 118 120 119
f 119 120 121
f 120 122 121
f 121 122 123
f 122 124 123
f 123 124 125
f 124 126 125
f 125 126 127
f 126 128 127
f 127 128 129
f 128 130 129
f 129 130 131
f 130 132 131
f 131 132 133
f 132 134 133
f 133 134 135
f 134 136 135
f 135 136 137
f 136 138 137
f 137 138 139
f 138 140 139
f 139 140 141
f 140 142 141
f 141 142 143
f 142 144 143
f 143 144 1
f 144 2 1
f 145 146 147
f 146 148 147
f 146 145 149
f 145 150 149
f 151 152 153
f 152 154 153
f 154 152 155
f 152 156 155
f 3 5 151
f 73 156 71
f 156 152 71
f 71 152 69
f 152 67 69
f 73 75 156
f 75 77 156
f 156 77 79
f 55 57 152
f 57 59 152
f 152 59 61
f 61 63 152
f 63 65 152
f 152 65 67
f 79 81 156
f 81 83 156
f 156 83 85
f 156 97 99
f 99 101 156
f 101 103 156
f 156 103 105
f 157 143 151
f 143 1 151
f 151 1 3
f 5 7 151
f 7 9 151
f 151 9 11
f 11 13 151
f 13 15 151
f 151 15 17
f 43 152 41
f 152 39 41
f 43 45 152
f 45 47 152
f 152 47 49
f 49 51 152
f 51 53 152
f 152 53 55
f 85 87 156
f 87 89 156
f 156 89 91
f 137 139 157
f 139 141 157
f 157 141 143
f 151 35 152
f 35 37 152
f 152 37 39
f 91 93 156
f 93 95 156
f 156 95 97
f 105 107 156
f 107 109 156
f 156 109 157
f 109 111 157
f 157 111 113
f 113 115 157
f 115 117 157
f 157 117 119
f 119 121 157
f 121 123 157
f 157 123 125
f 125 127 157
f 127 129 157
f 157 129 131
f 17 19 151
f 19 21 151
f 151 21 23
f 29 31 151
f 31 33 151
f 151 33 35
f 131 133 157
f 133 135 157
f 157 135 137
f 23 25 151
f 25 27 151
f 151 27 29
f 151 153 157
f 153 158 157
f 80 78 155
f 8 6 153
f 6 4 153
f 4 2 153
f 153 2 158
f 2 144 158
f 158 144 142
f 142 140 158
f 140 138 158
f 158 138 136
f 158 130 128
f 78 76 155
f 76 74 155
f 155 74 154
f 153 22 20
f 128 126 158
f 126 124 158
f 158 124 122
f 122 120 158
f 120 118 158
f 158 118 116
f 116 114 158
f 114 112 158
f 158 112 155
f 112 110 155
f 155 110 108
f 108 106 155
f 106 104 155
f 155 104 102
f 102 100 155
f 100 98 155
f 155 98 96
f 86 155 88
f 155 90 88
f 86 84 155
f 84 82 155
f 155 82 80
f 74 72 154
f 72 70 154
f 154 70 68
f 154 38 153
f 38 36 153
f 153 36 34
f 136 134 158
f 134 132 158
f 158 132 130
f 68 66 154
f 66 64 154
f 154 64 62
f 62 60 154
f 60 58 154
f 154 58 56
f 34 32 153
f 32 30 153
f 153 30 28
f 20 18 153
f 18 16 153
f 153 16 14
f 14 12 153
f 12 10 153
f 153 10 8
f 96 94 155
f 94 92 155
f 155 92 90
f 56 54 154
f 54 52 154
f 154 52 50
f 50 48 154
f 48 46 154
f 154 46 44
f 44 42 154
f 42 40 154
f 154 40 38
f 28 26 153
f 26 24 153
f 153 24 22
f 159 160 161
f 160 162 161
f 161 162 163
f 162 164 163
f 163 164 165
f 164 166 165
f 165 166 167
f 166 168 167
f 167 168 169
f 168 170 169
f 169 170 171
f 170 172 171
f 171 172 173
f 172 174 173
f 173 174 175
f 174 176 175
f 175 176 177
f 176 178 177
f 177 178 179
f 178 180 179
f 179 180 181
f 180 182 181
f 181 182 183
f 182 184 183
f 183 184 185
f 184 186 185
f 185 186 187
f 186 188 187
f 187 188 189
f 188 190 189
f 189 190 191
f 190 192 191
f 191 192 193
f 192 194 193
f 193 194 195
f 194 196 195
f 195 196 197
f 196 198 197
f 197 198 199
f 198 200 199
f 199 200 201
f 200 202 201
f 201 202 203
f 202 204 203
f 203 204 205
f 204 206 205
f 205 206 207
f 206 208 207
f 207 208 209
f 208 210 209
f 209 210 211
f 210 212 211
f 211 212 213
f 212 214 213
f 213 214 215
f 214 216 215
f 215 216 217
f 216 218 217
f 217 218 219
f 218 220 219
f 219 220 221
f 220 222 221
f 221 222 223
f 222 224 223
f 223 224 225
f 224 226 225
f 225 226 227
f 226 228 227
f 227 228 229
f 228 230 229
f 229 230 231
f 230 232 231
f 231 232 233
f 232 234 233
f 233 234 235
f 234 236 235
f 235 236 237
f 236 238 237
f 237 238 239
f 238 240 239
f 239 240 241
f 240 242 241
f 241 242 243
f 242 244 243
f 243 244 245
f 244 246 245
f 245 246 247
f 246 248 247
f 247 248 249
f 248 250 249
f 249 250 251
f 250 252 251
f 251 252 253
f 252 254 253
f 253 254 255
f 254 256 255
f 255 256 257
f 256 258 257
f 257 258 259
f 258 260 259
f 259 260 261
f 260 262 261
f 261 262 263
f 262 264 263
f 263 264 265
f 264 266 265
f 265 266 267
f 266 268 267
f 267 268 269
f 268 270 269
f 269 270 271
f 270 272 271
f 271 272 273
f 272 274 273
f 273 274 275
f 274 276 275
f 275 276 277
f 276 278 277
f 277 278 279
f 278 280 279
f 279 280 281
f 280 282 281
f 281 282 283
f 282 284 283
f 283 284 285
f 284 286 285
f 285 286 287
f 286 288 287
f 287 288 289
f 288 290 289
f 289 290 291
f 290 292 291
f 291 292 293
f 292 294 293
f 293 294 295
f 294 296 295
f 295 296 297
f 296 298 297
f 297 298 299
f 298 300 299
f 299 300 301
f 300 302 301
f 301 302 159
f 302 160 159
f 303 304 305
f 306 307 308
f 309 310 311
f 306 312 307
f 312 303 307
f 307 303 313
f 303 305 313
f 313 305 314
f 305 315 314
f 308 316 306
f 316 317 306
f 306 317 318
f 310 319 311
f 319 320 311
f 311 320 321
f 322 323 311
f 323 324 311
f 311 324 305
f 324 325 305
f 305 325 315
f 321 326 311
f 326 327 311
f 311 327 328
f 328 329 311
f 329 330 311
f 311 330 322
f 331 332 333
f 332 334 333
f 331 335 332
f 335 336 332
f 332 336 337
f 309 311 332
f 311 338 332
f 332 338 339
f 337 340 332
f 340 341 332
f 332 341 342
f 341 343 342
f 342 343 344
f 343 345 344
f 344 345 346
f 345 347 346
f 346 347 348
f 347 349 348
f 348 349 350
f 349 351 350
f 350 351 352
f 351 353 352
f 352 353 354
f 353 355 354
f 354 355 356
f 355 357 356
f 356 357 358
f 357 359 358
f 358 359 360
f 359 361 360
f 360 361 362
f 361 363 362
f 362 363 364
f 363 365 364
f 364 365 366
f 365 367 366
f 366 367 368
f 367 369 368
f 368 369 370
f 369 371 370
f 370 371 372
f 371 373 372
f 372 373 374
f 373 375 374
f 374 375 376
f 375 377 376
f 376 377 378
f 377 379 378
f 378 379 380
f 379 381 380
f 380 381 382
f 381 383 382
f 382 383 384
f 383 385 384
f 384 385 386
f 385 387 386
f 386 387 388
f 387 389 388
f 388 389 390
f 389 391 390
f 390 391 392
f 391 393 392
f 392 393 394
f 393 395 394
f 394 395 396
f 395 397 396
f 396 397 398
f 397 399 398
f 398 399 400
f 399 401 400
f 400 401 402
f 401 403 402
f 402 403 404
f 403 405 404
f 404 405 406
f 405 407 406
f 406 407 408
f 407 409 408
f 408 409 410
f 409 411 410
f 410 411 412
f 411 413 412
f 412 413 414
f 413 415 414
f 414 415 416
f 415 417 416
f 416 417 418
f 417 419 418
f 418 419 420
f 419 421 420
f 420 421 422
f 421 423 422
f 422 423 424
f 423 425 424
f 424 425 426
f 425 427 426
f 426 427 428
f 427 429 428
f 428 429 430
f 429 431 430
f 430 431 432
f 431 433 432
f 432 433 434
f 433 435 434
f 434 435 436
f 435 306 436
f 436 306 437
f 306 318 437
f 339 438 332
f 438 439 332
f 332 439 334
f 440 441 442
f 441 443 442
f 442 443 444
f 443 445 444
f 444 445 446
f 445 447 448
f 448 449 445
f 449 450 445
f 445 450 451
f 451 452 445
f 452 453 445
f 445 453 454
f 445 455 456
f 445 456 447
f 456 457 447
f 447 457 458
f 454 459 445
f 459 460 445
f 445 460 446
f 445 461 462
f 463 464 445
f 464 465 445
f 445 465 455
f 447 466 467
f 467 468 447
f 468 469 447
f 447 469 470
f 462 471 445
f 471 472 445
f 445 472 473
f 473 474 445
f 474 475 445
f 445 475 463
f 458 476 447
f 476 477 447
f 447 477 466
f 470 478 447
f 478 479 447
f 447 479 480
f 479 481 480
f 480 481 482
f 481 483 482
f 482 483 484
f 483 485 484
f 484 485 486
f 485 487 486
f 486 487 488
f 487 489 488
f 488 489 490
f 489 491 490
f 490 491 492
f 491 493 492
f 492 493 494
f 493 495 494
f 494 495 496
f 495 497 496
f 496 497 498
f 497 499 498
f 498 499 500
f 499 501 500
f 500 501 502
f 501 503 502
f 502 503 504
f 503 505 504
f 504 505 506
f 505 507 506
f 506 507 508
f 507 509 508
f 508 509 510
f 509 511 510
f 510 511 512
f 511 513 512
f 512 513 514
f 513 515 514
f 514 515 516
f 515 517 516
f 516 517 518
f 517 519 518
f 518 519 520
f 519 521 520
f 520 521 522
f 521 523 522
f 522 523 524
f 523 525 524
f 524 525 526
f 525 527 526
f 526 527 528
f 527 529 528
f 528 529 530
f 529 531 530
f 530 531 532
f 531 533 532
f 532 533 534
f 533 535 534
f 534 535 536
f 535 537 536
f 536 537 538
f 537 539 538
f 538 539 540
f 539 541 540
f 540 541 542
f 541 543 542
f 542 543 544
f 543 545 544
f 544 545 546
f 545 547 546
f 546 547 548
f 547 549 548
f 548 549 550
f 549 551 550
f 550 551 552
f 551 553 552
f 552 553 554
f 553 555 554
f 554 555 556
f 555 557 556
f 556 557 558
f 557 559 558
f 558 559 560
f 559 561 560
f 560 561 562
f 561 563 562
f 562 563 564
f 563 565 564
f 564 565 566
f 565 567 566
f 566 567 568
f 567 569 568
f 568 569 570
f 569 571 570
f 570 571 572
f 571 573 572
f 572 573 574
f 573 575 574
f 574 575 445
f 575 576 445
f 445 576 461
f 261 263 146
f 171 173 577
f 275 148 273
f 148 271 273
f 241 146 239
f 146 237 239
f 263 265 146
f 265 267 146
f 146 267 148
f 267 269 148
f 148 269 271
f 165 167 577
f 167 169 577
f 577 169 171
f 253 255 146
f 301 159 577
f 205 207 149
f 149 213 215
f 237 146 235
f 146 149 235
f 235 149 233
f 255 257 146
f 257 259 146
f 146 259 261
f 215 217 149
f 217 219 149
f 149 219 221
f 221 223 149
f 223 225 149
f 149 225 227
f 227 229 149
f 229 231 149
f 149 231 233
f 241 243 146
f 243 245 146
f 146 245 247
f 275 277 148
f 277 279 148
f 148 279 281
f 287 289 148
f 289 291 148
f 148 291 293
f 159 161 577
f 161 163 577
f 577 163 165
f 207 209 149
f 209 211 149
f 149 211 213
f 281 283 148
f 283 285 148
f 148 285 287
f 173 175 577
f 175 177 577
f 577 177 179
f 179 181 577
f 181 183 577
f 577 183 185
f 247 249 146
f 249 251 146
f 146 251 253
f 293 295 148
f 295 297 148
f 148 297 577
f 297 299 577
f 577 299 301
f 199 201 149
f 201 203 149
f 149 203 205
f 185 187 577
f 187 189 577
f 577 189 191
f 191 193 577
f 193 195 577
f 577 195 149
f 195 197 149
f 149 197 199
f 578 305 304
f 442 579 440
f 579 580 440
f 580 158 440
f 158 155 440
f 440 155 304
f 155 581 304
f 304 581 578
f 582 583 584
f 583 585 584
f 584 585 586
f 585 587 586
f 586 587 588
f 587 589 588
f 588 589 590
f 589 591 590
f 590 591 592
f 591 593 592
f 592 593 594
f 593 595 594
f 594 595 596
f 595 597 596
f 596 597 598
f 597 599 598
f 598 599 600
f 599 601 600
f 600 601 602
f 601 603 602
f 602 603 604
f 603 605 604
f 604 605 606
f 605 607 606
f 606 607 608
f 607 609 608
f 608 609 610
f 609 611 610
f 610 611 612
f 611 613 612
f 612 613 614
f 613 615 614
f 614 615 616
f 615 617 616
f 616 617 618
f 617 619 618
f 618 619 620
f 619 621 620
f 620 621 622
f 621 623 622
f 622 623 624
f 623 625 624
f 624 625 626
f 625 627 626
f 626 627 628
f 627 629 628
f 628 629 630
f 629 631 630
f 630 631 632
f 631 633 632
f 632 633 634
f 633 635 634
f 634 635 636
f 635 637 636
f 636 637 638
f 637 639 638
f 638 639 640
f 639 641 640
f 640 641 642
f 641 643 642
f 642 643 644
f 643 645 644
f 644 645 646
f 645 647 646
f 646 647 648
f 647 649 648
f 648 649 650
f 649 651 650
f 650 651 652
f 651 653 652
f 652 653 654
f 653 655 654
f 654 655 656
f 655 657 656
f 656 657 658
f 657 659 658
f 658 659 660
f 659 661 660
f 660 661 662
f 661 663 662
f 662 663 664
f 663 665 664
f 664 665 666
f 665 667 666
f 666 667 668
f 667 669 668
f 668 669 670
f 669 671 670
f 670 671 672
f 671 673 672
f 672 673 674
f 673 675 674
f 674 675 676
f 675 677 676
f 676 677 678
f 677 679 678
f 678 679 680
f 679 681 680
f 680 681 682
f 681 683 682
f 682 683 684
f 683 685 684
f 684 685 686
f 685 687 686
f 686 687 688
f 687 689 688
f 688 689 690
f 689 691 690
f 690 691 692
f 691 693 692
f 692 693 694
f 693 695 694
f 694 695 696
f 695 697 696
f 696 697 698
f 697 699 698
f 698 699 700
f 699 701 700
f 700 701 702
f 701 703 702
f 702 703 704
f 703 705 704
f 704 705 706
f 705 707 706
f 706 707 708
f 707 709 708
f 708 709 710
f 709 711 710
f 710 711 712
f 711 713 712
f 712 713 714
f 713 715 714
f 714 715 716
f 715 717 716
f 716 717 718
f 717 719 718
f 718 719 720
f 719 721 720
f 720 721 722
f 721 723 722
f 722 723 724
f 723 725 724
f 724 725 582
f 725 583 582
f 376 726 374
f 726 727 374
f 374 727 372
f 727 728 372
f 372 728 370
f 728 729 370
f 370 729 368
f 729 730 368
f 368 730 366
f 730 731 366
f 366 731 364
f 731 732 364
f 364 732 362
f 732 733 362
f 362 733 360
f 733 734 360
f 360 734 358
f 734 735 358
f 358 735 356
f 735 736 356
f 356 736 354
f 736 737 354
f 354 737 352
f 737 738 352
f 352 738 350
f 738 739 350
f 350 739 348
f 739 740 348
f 348 740 346
f 740 741 346
f 346 741 344
f 741 742 344
f 344 742 342
f 742 743 342
f 342 743 332
f 743 744 332
f 332 744 309
f 744 745 309
f 309 745 310
f 745 746 310
f 310 746 319
f 746 747 319
f 319 747 320
f 747 748 320
f 320 748 321
f 748 749 321
f 321 749 326
f 749 750 326
f 326 750 327
f 750 751 327
f 327 751 328
f 751 752 328
f 328 752 329
f 752 753 329
f 329 753 330
f 753 754 330
f 330 754 322
f 754 755 322
f 322 755 323
f 755 756 323
f 323 756 324
f 756 757 324
f 324 757 325
f 757 758 325
f 325 758 315
f 758 759 315
f 315 759 314
f 759 760 314
f 314 760 313
f 760 761 313
f 313 761 307
f 761 762 307
f 307 762 308
f 762 763 308
f 308 763 316
f 763 764 316
f 316 764 317
f 764 765 317
f 317 765 318
f 765 766 318
f 318 766 437
f 766 767 437
f 437 767 436
f 767 768 436
f 436 768 434
f 768 769 434
f 434 769 432
f 769 770 432
f 432 770 430
f 770 771 430
f 430 771 428
f 771 772 428
f 428 772 426
f 772 773 426
f 426 773 424
f 773 774 424
f 424 774 422
f 774 775 422
f 422 775 420
f 775 776 420
f 420 776 418
f 776 777 418
f 418 777 416
f 777 778 416
f 416 778 414
f 778 779 414
f 414 779 412
f 779 780 412
f 412 780 410
f 780 781 410
f 410 781 408
f 781 782 408
f 408 782 406
f 782 783 406
f 406 783 404
f 783 784 404
f 404 784 402
f 784 785 402
f 402 785 400
f 785 786 400
f 400 786 398
f 786 787 398
f 398 787 396
f 787 788 396
f 396 788 394
f 788 789 394
f 394 789 392
f 789 790 392
f 392 790 390
f 790 791 390
f 390 791 388
f 791 792 388
f 388 792 386
f 792 793 386
f 386 793 384
f 793 794 384
f 384 794 382
f 794 795 382
f 382 795 380
f 795 796 380
f 380 796 378
f 796 797 378
f 378 797 376
f 797 726 376
f 311 798 799
f 311 799 338
f 799 800 338
f 338 800 339
f 800 801 339
f 339 801 438
f 801 802 438
f 438 802 439
f 802 803 439
f 439 803 334
f 803 804 334
f 334 804 333
f 804 805 333
f 333 805 331
f 805 806 331
f 331 806 335
f 806 807 335
f 335 807 336
f 807 808 336
f 336 808 337
f 808 809 337
f 337 809 340
f 809 810 340
f 340 810 341
f 810 811 341
f 341 811 343
f 811 812 343
f 343 812 345
f 812 813 345
f 345 813 347
f 813 814 347
f 347 814 349
f 814 815 349
f 349 815 351
f 815 816 351
f 351 816 353
f 816 817 353
f 353 817 355
f 817 818 355
f 355 818 357
f 818 819 357
f 357 819 359
f 819 820 359
f 359 820 361
f 820 821 361
f 361 821 363
f 821 822 363
f 363 822 365
f 822 823 365
f 365 823 367
f 823 824 367
f 367 824 369
f 824 825 369
f 369 825 371
f 825 826 371
f 371 826 373
f 826 827 373
f 373 827 375
f 827 828 375
f 375 828 377
f 828 829 377
f 377 829 379
f 829 830 379
f 379 830 381
f 830 831 381
f 381 831 383
f 831 832 383
f 383 832 385
f 832 833 385
f 385 833 387
f 833 834 387
f 387 834 389
f 834 835 389
f 389 835 391
f 835 836 391
f 391 836 393
f 836 837 393
f 393 837 395
f 837 838 395
f 395 838 397
f 838 839 397
f 397 839 399
f 839 840 399
f 399 840 401
f 840 841 401
f 401 841 403
f 841 842 403
f 403 842 405
f 842 843 405
f 405 843 407
f 843 844 407
f 407 844 409
f 844 845 409
f 409 845 411
f 845 846 411
f 411 846 413
f 846 847 413
f 413 847 415
f 847 848 415
f 415 848 417
f 848 849 417
f 417 849 419
f 849 850 419
f 419 850 421
f 850 851 421
f 421 851 423
f 851 852 423
f 423 852 425
f 852 853 425
f 425 853 427
f 853 854 427
f 427 854 429
f 854 855 429
f 429 855 431
f 855 856 431
f 431 856 433
f 856 857 433
f 433 857 435
f 857 858 435
f 435 858 306
f 858 859 306
f 859 312 306
f 581 155 156
f 158 580 157
f 580 860 157
f 157 860 156
f 860 861 156
f 156 861 581
f 305 578 311
f 578 798 311
f 862 579 444
f 579 442 444
f 862 444 446
f 862 446 863
f 446 460 863
f 863 460 864
f 460 459 864
f 864 459 865
f 459 454 865
f 865 454 866
f 454 453 866
f 866 453 867
f 453 452 867
f 867 452 868
f 452 451 868
f 868 451 869
f 451 450 869
f 869 450 870
f 450 449 870
f 870 449 871
f 449 448 871
f 871 448 872
f 448 447 872
f 872 447 873
f 447 480 873
f 873 480 874
f 480 482 874
f 874 482 875
f 482 484 875
f 875 484 876
f 484 486 876
f 876 486 877
f 486 488 877
f 877 488 878
f 488 490 878
f 878 490 879
f 490 492 879
f 879 492 880
f 492 494 880
f 880 494 881
f 494 496 881
f 881 496 882
f 496 498 882
f 882 498 883
f 498 500 883
f 883 500 884
f 500 502 884
f 884 502 885
f 502 504 885
f 885 504 886
f 504 506 886
f 886 506 887
f 506 508 887
f 887 508 888
f 508 510 888
f 888 510 889
f 510 512 889
f 889 512 890
f 512 514 890
f 890 514 891
f 514 516 891
f 891 516 892
f 516 518 892
f 892 518 893
f 518 520 893
f 893 520 894
f 520 522 894
f 894 522 895
f 522 524 895
f 895 524 896
f 524 526 896
f 896 526 897
f 526 528 897
f 897 528 898
f 528 530 898
f 898 530 899
f 530 532 899
f 899 532 900
f 532 534 900
f 900 534 901
f 534 536 901
f 901 536 902
f 536 538 902
f 902 538 903
f 538 540 903
f 903 540 904
f 540 542 904
f 904 542 905
f 542 544 905
f 905 544 906
f 544 546 906
f 906 546 907
f 546 548 907
f 907 548 908
f 548 550 908
f 908 550 909
f 550 552 909
f 909 552 910
f 552 554 910
f 910 554 911
f 554 556 911
f 911 556 912
f 556 558 912
f 912 558 913
f 558 560 913
f 913 560 914
f 560 562 914
f 914 562 915
f 562 564 915
f 915 564 916
f 564 566 916
f 916 566 917
f 566 568 917
f 917 568 918
f 568 570 918
f 918 570 919
f 570 572 919
f 919 572 920
f 572 574 920
f 920 574 921
f 574 445 921
f 921 445 922
f 147 148 923
f 148 577 923
f 757 756 858
f 861 924 581
f 924 925 581
f 581 925 578
f 925 859 578
f 578 859 798
f 757 858 758
f 767 766 858
f 766 765 858
f 858 765 764
f 764 763 858
f 763 762 858
f 858 762 761
f 761 760 858
f 760 759 858
f 858 759 758
f 859 858 798
f 858 756 798
f 798 756 799
f 756 755 799
f 799 755 800
f 755 754 800
f 800 754 801
f 754 753 801
f 801 753 802
f 753 752 802
f 802 752 803
f 752 751 803
f 803 751 804
f 751 750 804
f 804 750 805
f 750 749 805
f 805 749 806
f 749 748 806
f 806 748 807
f 748 747 807
f 807 747 808
f 747 746 808
f 808 746 809
f 746 745 809
f 809 745 810
f 745 744 810
f 810 744 811
f 744 743 811
f 811 743 812
f 743 742 812
f 812 742 813
f 742 741 813
f 813 741 814
f 741 740 814
f 814 740 815
f 740 739 815
f 815 739 816
f 739 738 816
f 816 738 817
f 738 737 817
f 817 737 818
f 737 736 818
f 818 736 819
f 736 735 819
f 819 735 820
f 735 734 820
f 820 734 821
f 734 733 821
f 821 733 822
f 733 732 822
f 822 732 823
f 732 731 823
f 823 731 824
f 731 730 824
f 824 730 825
f 730 729 825
f 825 729 826
f 729 728 826
f 826 728 827
f 728 727 827
f 827 727 828
f 727 726 828
f 828 726 829
f 726 797 829
f 829 797 830
f 797 796 830
f 830 796 831
f 796 795 831
f 831 795 832
f 795 794 832
f 832 794 833
f 794 793 833
f 833 793 834
f 793 792 834
f 834 792 835
f 792 791 835
f 835 791 836
f 791 790 836
f 836 790 837
f 790 789 837
f 837 789 838
f 789 788 838
f 838 788 839
f 788 787 839
f 839 787 840
f 787 786 840
f 840 786 841
f 786 785 841
f 841 785 842
f 785 784 842
f 842 784 843
f 784 783 843
f 843 783 844
f 783 782 844
f 844 782 845
f 782 781 845
f 845 781 846
f 781 780 846
f 846 780 847
f 780 779 847
f 847 779 848
f 779 778 848
f 848 778 849
f 778 777 849
f 849 777 850
f 777 776 850
f 850 776 851
f 776 775 851
f 851 775 852
f 775 774 852
f 852 774 853
f 774 773 853
f 853 773 854
f 773 772 854
f 854 772 855
f 772 771 855
f 855 771 856
f 771 770 856
f 856 770 857
f 770 769 857
f 857 769 858
f 769 768 858
f 858 768 767
f 443 926 445
f 926 922 445
f 926 443 441
f 312 859 303
f 859 925 303
f 925 150 303
f 150 923 303
f 303 923 441
f 923 927 441
f 441 927 926
f 860 928 861
f 928 924 861
f 722 724 929
f 724 582 929
f 929 582 584
f 716 718 929
f 718 720 929
f 929 720 722
f 710 712 929
f 712 714 929
f 929 714 716
f 704 706 929
f 706 708 929
f 929 708 710
f 698 700 929
f 700 702 929
f 929 702 704
f 692 694 929
f 694 696 929
f 929 696 698
f 686 688 929
f 688 690 929
f 929 690 692
f 680 682 929
f 682 684 929
f 929 684 686
f 674 676 929
f 676 678 929
f 929 678 680
f 668 670 929
f 670 672 929
f 929 672 674
f 662 664 929
f 664 666 929
f 929 666 668
f 656 658 929
f 658 660 929
f 929 660 662
f 650 652 929
f 652 654 929
f 929 654 656
f 644 646 929
f 646 648 929
f 929 648 650
f 638 640 929
f 640 642 929
f 929 642 644
f 632 634 929
f 634 636 929
f 929 636 638
f 626 628 929
f 628 630 929
f 929 630 632
f 620 622 929
f 622 624 929
f 929 624 626
f 614 616 929
f 616 618 929
f 929 618 620
f 608 610 929
f 610 612 929
f 929 612 614
f 602 604 929
f 604 606 929
f 929 606 608
f 596 598 929
f 598 600 929
f 929 600 602
f 590 592 929
f 592 594 929
f 929 594 596
f 584 586 929
f 586 588 929
f 929 588 590
f 930 517 931
f 517 515 931
f 931 515 932
f 515 513 932
f 932 513 933
f 513 511 933
f 933 511 934
f 511 509 934
f 934 509 935
f 509 507 935
f 935 507 936
f 507 505 936
f 936 505 937
f 505 503 937
f 937 503 938
f 503 501 938
f 938 501 939
f 501 499 939
f 939 499 940
f 499 497 940
f 940 497 941
f 497 495 941
f 941 495 942
f 495 493 942
f 942 493 943
f 493 491 943
f 943 491 944
f 491 489 944
f 944 489 945
f 489 487 945
f 945 487 946
f 487 485 946
f 946 485 947
f 485 483 947
f 947 483 948
f 483 481 948
f 948 481 949
f 481 479 949
f 949 479 950
f 479 478 950
f 950 478 951
f 478 470 951
f 951 470 952
f 470 469 952
f 952 469 953
f 469 468 953
f 953 468 954
f 468 467 954
f 954 467 955
f 467 466 955
f 955 466 956
f 466 477 956
f 956 477 957
f 477 476 957
f 957 476 958
f 476 458 958
f 958 458 959
f 458 457 959
f 959 457 960
f 457 456 960
f 960 456 961
f 456 455 961
f 961 455 962
f 455 465 962
f 962 465 963
f 465 464 963
f 963 464 964
f 464 463 964
f 964 463 965
f 463 475 965
f 965 475 966
f 475 474 966
f 966 474 967
f 474 473 967
f 967 473 968
f 473 472 968
f 968 472 969
f 472 471 969
f 969 471 970
f 471 462 970
f 970 462 971
f 462 461 971
f 971 461 972
f 461 576 972
f 972 576 973
f 576 575 973
f 973 575 974
f 575 573 974
f 974 573 975
f 573 571 975
f 975 571 976
f 571 569 976
f 976 569 977
f 569 567 977
f 977 567 978
f 567 565 978
f 978 565 979
f 565 563 979
f 979 563 980
f 563 561 980
f 980 561 981
f 561 559 981
f 981 559 982
f 559 557 982
f 982 557 983
f 557 555 983
f 983 555 984
f 555 553 984
f 984 553 985
f 553 551 985
f 985 551 986
f 551 549 986
f 986 549 987
f 549 547 987
f 987 547 988
f 547 545 988
f 988 545 989
f 545 543 989
f 989 543 990
f 543 541 990
f 990 541 991
f 541 539 991
f 991 539 992
f 539 537 992
f 992 537 993
f 537 535 993
f 993 535 994
f 535 533 994
f 994 533 995
f 533 531 995
f 995 531 996
f 531 529 996
f 996 529 997
f 529 527 997
f 997 527 998
f 527 525 998
f 998 525 999
f 525 523 999
f 999 523 1000
f 523 521 1000
f 1000 521 1001
f 521 519 1001
f 1001 519 930
f 519 517 930
f 927 923 577
f 150 925 149
f 925 924 149
f 149 924 577
f 924 928 577
f 577 928 927
f 591 589 860
f 860 583 928
f 583 725 928
f 928 725 723
f 723 721 928
f 721 719 928
f 928 719 717
f 589 587 860
f 587 585 860
f 860 585 583
f 667 665 579
f 953 954 862
f 954 955 862
f 862 955 956
f 956 957 862
f 957 958 862
f 862 958 959
f 926 966 922
f 966 967 922
f 717 715 928
f 715 713 928
f 928 713 711
f 651 649 580
f 649 647 580
f 959 960 862
f 960 961 862
f 862 961 579
f 961 962 579
f 579 962 963
f 967 968 922
f 968 969 922
f 922 969 970
f 685 579 687
f 579 689 687
f 665 663 579
f 663 661 579
f 579 661 659
f 659 657 579
f 657 655 579
f 579 655 580
f 655 653 580
f 580 653 651
f 950 951 862
f 951 952 862
f 862 952 953
f 711 709 928
f 709 707 928
f 928 707 705
f 679 677 579
f 677 675 579
f 579 675 673
f 673 671 579
f 671 669 579
f 579 669 667
f 647 645 580
f 645 643 580
f 580 643 641
f 599 597 860
f 705 703 928
f 703 701 928
f 928 701 699
f 927 928 691
f 928 693 691
f 685 683 579
f 683 681 579
f 579 681 679
f 597 595 860
f 595 593 860
f 860 593 591
f 863 948 862
f 948 949 862
f 862 949 950
f 963 964 579
f 964 965 579
f 579 965 689
f 965 966 689
f 689 966 691
f 966 926 691
f 691 926 927
f 863 864 948
f 864 865 948
f 948 865 866
f 699 697 928
f 697 695 928
f 928 695 693
f 605 603 860
f 603 601 860
f 860 601 599
f 866 867 948
f 867 868 948
f 948 868 869
f 869 870 948
f 870 871 948
f 948 871 872
f 970 971 922
f 971 972 922
f 922 972 921
f 972 973 921
f 921 973 920
f 973 974 920
f 920 974 919
f 974 975 919
f 919 975 918
f 975 976 918
f 918 976 917
f 976 977 917
f 917 977 916
f 977 978 916
f 916 978 915
f 978 979 915
f 915 979 914
f 979 980 914
f 914 980 913
f 980 981 913
f 913 981 912
f 981 982 912
f 912 982 911
f 982 983 911
f 911 983 910
f 983 984 910
f 910 984 909
f 984 985 909
f 909 985 908
f 985 986 908
f 908 986 907
f 986 987 907
f 907 987 906
f 987 988 906
f 906 988 905
f 988 989 905
f 905 989 904
f 989 990 904
f 904 990 903
f 990 991 903
f 903 991 902
f 991 992 902
f 902 992 901
f 992 993 901
f 901 993 900
f 993 994 900
f 900 994 899
f 994 995 899
f 899 995 898
f 995 996 898
f 898 996 897
f 996 997 897
f 897 997 896
f 997 998 896
f 896 998 895
f 998 999 895
f 895 999 894
f 999 1000 894
f 894 1000 893
f 1000 1001 893
f 893 1001 892
f 1001 930 892
f 892 930 891
f 930 931 891
f 891 931 890
f 931 932 890
f 890 932 889
f 932 933 889
f 889 933 888
f 933 934 888
f 888 934 887
f 934 935 887
f 887 935 886
f 935 936 886
f 886 936 885
f 936 937 885
f 885 937 884
f 937 938 884
f 884 938 883
f 938 939 883
f 883 939 882
f 939 940 882
f 882 940 881
f 940 941 881
f 881 941 880
f 941 942 880
f 880 942 879
f 942 943 879
f 879 943 878
f 943 944 878
f 878 944 877
f 944 945 877
f 877 945 876
f 945 946 876
f 876 946 875
f 946 947 875
f 875 947 874
f 947 948 874
f 874 948 873
f 948 872 873
f 641 639 580
f 639 637 580
f 580 637 635
f 611 609 860
f 609 607 860
f 860 607 605
f 635 633 580
f 633 631 580
f 580 631 629
f 629 627 580
f 627 625 580
f 580 625 860
f 625 623 860
f 623 621 860
f 621 619 860
f 860 619 617
f 617 615 860
f 615 613 860
f 860 613 611
f 266 264 145
f 172 170 923
f 302 300 923
f 292 147 294
f 147 296 294
f 274 272 147
f 272 270 147
f 147 270 145
f 270 268 145
f 145 268 266
f 242 145 244
f 145 246 244
f 292 290 147
f 290 288 147
f 147 288 286
f 280 278 147
f 278 276 147
f 147 276 274
f 170 168 923
f 168 166 923
f 923 166 164
f 923 300 147
f 300 298 147
f 147 298 296
f 286 284 147
f 284 282 147
f 147 282 280
f 264 262 145
f 262 260 145
f 145 260 258
f 164 162 923
f 162 160 923
f 923 160 302
f 258 256 145
f 256 254 145
f 145 254 252
f 252 250 145
f 250 248 145
f 145 248 246
f 242 240 145
f 240 238 145
f 145 238 150
f 238 236 150
f 236 234 150
f 234 232 150
f 150 232 230
f 230 228 150
f 228 226 150
f 150 226 224
f 224 222 150
f 222 220 150
f 150 220 218
f 218 216 150
f 216 214 150
f 150 214 212
f 184 182 923
f 182 180 923
f 923 180 178
f 178 176 923
f 176 174 923
f 923 174 172
f 212 210 150
f 210 208 150
f 150 208 206
f 206 204 150
f 204 202 150
f 150 202 200
f 192 190 923
f 190 188 923
f 188 186 923
f 923 186 184
f 200 198 150
f 198 196 150
f 150 196 923
f 196 194 923
f 923 194 192
f 441 440 303
f 440 304 303

