# https://github.com/mikedh/trimesh
v -0.00200000 0.00453154 -0.00211309
v -0.00200000 0.00469846 -0.00171010
v -0.00200000 0.00765077 -0.00085505
v -0.00200000 0.00482963 -0.00129410
v -0.00200000 0.00758519 -0.00064705
v -0.00200000 0.00875000 -0.00216506
v -0.00200000 0.00894345 -0.00226577
v -0.00200000 0.00330403 -0.00375278
v -0.00200000 0.01234923 -0.00085505
v -0.00200000 0.01494292 -0.00130734
v -0.00200000 0.01226577 -0.00105655
v -0.00200000 0.01477212 -0.00260472
v -0.00200000 0.00808489 -0.00160697
v -0.00200000 0.00823223 -0.00176777
v -0.00200000 0.01176777 -0.00176777
v -0.00200000 0.01191511 -0.00160697
v -0.00200000 0.01452339 -0.00375115
v -0.00200000 0.01204788 -0.00143394
v -0.00200000 0.01216506 -0.00125000
v -0.00200000 0.00795212 0.00143394
v -0.00200000 0.00783494 0.00125000
v -0.00200000 0.00160697 0.00808489
v -0.00200000 -0.00204788 0.01143394
v -0.00200000 -0.00216506 0.01125000
v -0.00200000 -0.00375115 0.01452339
v -0.00200000 -0.00226577 0.01105655
v -0.00200000 -0.00234923 0.01085505
v -0.00200000 -0.00241481 0.01064705
v -0.00200000 -0.00246202 0.01043412
v -0.00200000 0.00839303 -0.00191511
v -0.00200000 0.00856606 -0.00204788
v -0.00200000 0.01494292 0.00130734
v -0.00200000 0.01241481 0.00064705
v -0.00200000 0.01234923 0.00085505
v -0.00200000 0.00191511 0.00839303
v -0.00200000 0.00204788 0.00856606
v -0.00200000 0.00839303 0.00191511
v -0.00200000 0.00353553 -0.00353553
v -0.00200000 0.00783494 -0.00125000
v -0.00200000 0.00795212 -0.00143394
v -0.00200000 0.00383022 -0.00321394
v -0.00200000 0.00409576 -0.00286788
v -0.00200000 0.00433013 -0.00250000
v -0.00200000 0.00773423 -0.00105655
v -0.00200000 0.01249049 -0.00021789
v -0.00200000 0.01500000 0.00000000
v -0.00200000 0.01246202 -0.00043412
v -0.00200000 0.01241481 -0.00064705
v -0.00200000 0.01477212 0.00260472
v -0.00200000 0.00433013 0.00250000
v -0.00200000 0.00409576 0.00286788
v -0.00200000 0.00773423 0.00105655
v -0.00200000 0.00914495 -0.00234923
v -0.00200000 0.00935295 -0.00241481
v -0.00200000 0.00956588 -0.00246202
v -0.00200000 0.01250000 0.00000000
v -0.00200000 0.01249049 0.00021789
v -0.00200000 0.01246202 0.00043412
v -0.00200000 0.00856606 0.00204788
v -0.00200000 -0.00064705 0.01241481
v -0.00200000 -0.00085505 0.01234923
v -0.00200000 -0.00130734 0.01494292
v -0.00200000 0.01043412 -0.00246202
v -0.00200000 0.01064705 -0.00241481
v -0.00200000 0.01125000 -0.00216506
v -0.00200000 0.01143394 -0.00204788
v -0.00200000 0.01160697 -0.00191511
v -0.00200000 0.00513030 0.01409539
v -0.00200000 0.00191511 0.01160697
v -0.00200000 0.00388229 0.01448889
v -0.00200000 0.00176777 0.01176777
v -0.00200000 0.00160697 0.01191511
v -0.00200000 0.00143394 0.01204788
v -0.00200000 0.00260472 0.01477212
v -0.00200000 -0.00160697 0.01191511
v -0.00200000 -0.00176777 0.01176777
v -0.00200000 -0.00191511 0.01160697
v -0.00200000 0.00978211 -0.00249049
v -0.00200000 0.01000000 -0.00250000
v -0.00200000 0.01021789 -0.00249049
v -0.00200000 0.01085505 -0.00234923
v -0.00200000 0.01105655 -0.00226577
v -0.00200000 -0.00249049 0.01021789
v -0.00200000 -0.00250000 0.01000000
v -0.00200000 -0.00375278 0.00330403
v -0.00200000 -0.00249049 0.00978211
v -0.00200000 -0.00246202 0.00956588
v -0.00200000 -0.00204788 0.00856606
v -0.00200000 -0.00216506 0.00875000
v -0.00200000 -0.00226577 0.00894345
v -0.00200000 -0.00191511 0.00839303
v -0.00200000 -0.00176777 0.00823223
v -0.00200000 -0.00160697 0.00808489
v -0.00200000 0.00021789 0.00750951
v -0.00200000 0.00043412 0.00753798
v -0.00200000 0.00043578 0.00498097
v -0.00200000 0.00086824 0.00492404
v -0.00200000 0.00250000 0.00433013
v -0.00200000 0.00211309 0.00453154
v -0.00200000 0.00125000 0.00783494
v -0.00200000 0.00171010 0.00469846
v -0.00200000 0.00105655 0.00773423
v -0.00200000 0.00383022 0.00321394
v -0.00200000 0.00353553 0.00353553
v -0.00200000 0.00321394 0.00383022
v -0.00200000 0.00286788 0.00409576
v -0.00200000 0.01125000 0.00216506
v -0.00200000 0.01105655 0.00226577
v -0.00200000 0.01226577 0.00105655
v -0.00200000 0.01216506 0.00125000
v -0.00200000 0.01448889 0.00388229
v -0.00200000 0.01204788 0.00143394
v -0.00200000 -0.00260472 0.01477212
v -0.00200000 -0.00241481 0.00935295
v -0.00200000 -0.00234923 0.00914495
v -0.00200000 -0.00125000 0.00783494
v -0.00200000 -0.00286788 0.00409576
v -0.00200000 -0.00321394 0.00383022
v -0.00200000 0.00143394 0.00795212
v -0.00200000 0.00176777 0.00823223
v -0.00200000 0.00823223 0.00176777
v -0.00200000 0.00808489 0.00160697
v -0.00200000 0.01085505 0.00234923
v -0.00200000 0.01064705 0.00241481
v -0.00200000 0.01043412 0.00246202
v -0.00200000 -0.00105655 0.01226577
v -0.00200000 -0.00125000 0.01216506
v -0.00200000 -0.00143394 0.01204788
v -0.00200000 -0.00143394 0.00795212
v -0.00200000 -0.00353553 0.00353553
v -0.00200000 0.00753798 -0.00043412
v -0.00200000 0.00492404 -0.00086824
v -0.00200000 0.00750951 -0.00021789
v -0.00200000 0.00498097 -0.00043578
v -0.00200000 0.00750000 -0.00000000
v -0.00200000 0.00500000 -0.00000000
v -0.00200000 0.00750951 0.00021789
v -0.00200000 0.00498097 0.00043578
v -0.00200000 0.00753798 0.00043412
v -0.00200000 0.00492404 0.00086824
v -0.00200000 0.00758519 0.00064705
v -0.00200000 0.00482963 0.00129410
v -0.00200000 0.00765077 0.00085505
v -0.00200000 0.00469846 0.00171010
v -0.00200000 0.00453154 0.00211309
v -0.00200000 0.01191511 0.00160697
v -0.00200000 0.01176777 0.00176777
v -0.00200000 0.01160697 0.00191511
v -0.00200000 0.00750000 0.01299038
v -0.00200000 0.00226577 0.01105655
v -0.00200000 0.00633927 0.01359462
v -0.00200000 0.00216506 0.01125000
v -0.00200000 0.00204788 0.01143394
v -0.00200000 0.00000000 0.00750000
v -0.00200000 0.00000000 0.00500000
v -0.00200000 -0.00021789 0.00750951
v -0.00200000 -0.00043578 0.00498097
v -0.00200000 -0.00043412 0.00753798
v -0.00200000 -0.00086824 0.00492404
v -0.00200000 -0.00064705 0.00758519
v -0.00200000 -0.00129410 0.00482963
v -0.00200000 -0.00085505 0.00765077
v -0.00200000 -0.00171010 0.00469846
v -0.00200000 -0.00105655 0.00773423
v -0.00200000 -0.00211309 0.00453154
v -0.00200000 -0.00250000 0.00433013
v -0.00200000 0.00129410 0.00482963
v -0.00200000 0.00064705 0.00758519
v -0.00200000 0.00085505 0.00765077
v -0.00200000 0.01021789 0.00249049
v -0.00200000 0.01000000 0.00250000
v -0.00200000 0.00978211 0.00249049
v -0.00200000 0.01143394 0.00204788
v -0.00200000 0.00216506 0.00875000
v -0.00200000 0.00226577 0.00894345
v -0.00200000 0.00125000 0.01216506
v -0.00200000 0.00105655 0.01226577
v -0.00200000 0.00130734 0.01494292
v -0.00200000 0.00085505 0.01234923
v -0.00200000 0.00021789 0.01249049
v -0.00200000 0.00000000 0.01500000
v -0.00200000 0.00043412 0.01246202
v -0.00200000 0.00064705 0.01241481
v -0.00200000 -0.00000000 0.01250000
v -0.00200000 -0.00021789 0.01249049
v -0.00200000 -0.00043412 0.01246202
v -0.00200000 0.00956588 0.00246202
v -0.00200000 0.00935295 0.00241481
v -0.00200000 0.00914495 0.00234923
v -0.00200000 0.00894345 0.00226577
v -0.00200000 0.00875000 0.00216506
v -0.00200000 0.01409539 0.00513030
v -0.00200000 0.00234923 0.00914495
v -0.00200000 0.01359462 0.00633927
v -0.00200000 0.00241481 0.00935295
v -0.00200000 0.01299038 0.00750000
v -0.00200000 0.00246202 0.00956588
v -0.00200000 0.01228728 0.00860365
v -0.00200000 0.00249049 0.00978211
v -0.00200000 0.01149067 0.00964181
v -0.00200000 0.00250000 0.01000000
v -0.00200000 0.01060660 0.01060660
v -0.00200000 0.00249049 0.01021789
v -0.00200000 0.00964181 0.01149067
v -0.00200000 0.00246202 0.01043412
v -0.00200000 0.00860365 0.01228728
v -0.00200000 0.00241481 0.01064705
v -0.00200000 0.00234923 0.01085505
v -0.00200000 -0.01246202 -0.00043412
v -0.00200000 -0.01494292 -0.00130734
v -0.00200000 -0.01249049 -0.00021789
v -0.00200000 -0.01500000 0.00000000
v -0.00200000 -0.01250000 -0.00000000
v -0.00200000 -0.00823223 -0.00176777
v -0.00200000 -0.00808489 -0.00160697
v -0.00200000 -0.00375000 -0.00375000
v -0.00200000 -0.00795212 -0.00143394
v -0.00200000 -0.00783494 -0.00125000
v -0.00200000 -0.01477212 -0.00260472
v -0.00200000 -0.01216506 -0.00125000
v -0.00200000 -0.01448889 -0.00388229
v -0.00200000 -0.01204788 -0.00143394
v -0.00200000 -0.01191511 -0.00160697
v -0.00200000 -0.01241481 -0.00064705
v -0.00200000 -0.01234923 -0.00085505
v -0.00200000 -0.01226577 -0.00105655
v -0.00200000 -0.01176777 -0.00176777
v -0.00200000 -0.01160697 -0.00191511
v -0.00200000 -0.01143394 -0.00204788
v -0.00200000 -0.01125000 -0.00216506
v -0.00200000 -0.01105655 -0.00226577
v -0.00200000 -0.01085505 -0.00234923
v -0.00200000 -0.00492404 -0.00086824
v -0.00200000 -0.00482963 -0.00129410
v -0.00200000 -0.00765077 -0.00085505
v -0.00200000 -0.00753798 0.00043412
v -0.00200000 -0.00492404 0.00086824
v -0.00200000 -0.00498097 0.00043578
v -0.00200000 -0.01477212 0.00260472
v -0.00200000 -0.01226577 0.00105655
v -0.00200000 -0.01494292 0.00130734
v -0.00200000 -0.01234923 0.00085505
v -0.00200000 -0.01241481 0.00064705
v -0.00200000 -0.01246202 0.00043412
v -0.00200000 -0.01249049 0.00021789
v -0.00200000 -0.00469846 -0.00171010
v -0.00200000 -0.00453154 -0.00211309
v -0.00200000 -0.00773423 -0.00105655
v -0.00200000 -0.00433013 -0.00250000
v -0.00200000 -0.00409576 -0.00286788
v -0.00200000 -0.00383022 -0.00321394
v -0.00200000 -0.00353553 -0.00353553
v -0.00200000 -0.01064705 -0.00241481
v -0.00200000 -0.01043412 -0.00246202
v -0.00200000 -0.01021789 -0.00249049
v -0.00200000 -0.00433013 0.00250000
v -0.00200000 -0.00453154 0.00211309
v -0.00200000 -0.00783494 0.00125000
v -0.00200000 -0.00469846 0.00171010
v -0.00200000 -0.00773423 0.00105655
v -0.00200000 -0.00839303 0.00191511
v -0.00200000 -0.00856606 0.00204788
v -0.00200000 -0.00875000 0.00216506
v -0.00200000 -0.00894345 0.00226577
v -0.00200000 -0.00388229 0.01448889
v -0.00200000 -0.01409539 0.00513030
v -0.00200000 -0.01160697 0.00191511
v -0.00200000 -0.01448889 0.00388229
v -0.00200000 -0.01176777 0.00176777
v -0.00200000 -0.01191511 0.00160697
v -0.00200000 -0.01204788 0.00143394
v -0.00200000 -0.01216506 0.00125000
v -0.00200000 -0.00875000 -0.00216506
v -0.00200000 -0.00856606 -0.00204788
v -0.00200000 -0.00839303 -0.00191511
v -0.00200000 -0.00758519 -0.00064705
v -0.00200000 -0.00753798 -0.00043412
v -0.00200000 -0.00498097 -0.00043578
v -0.00200000 -0.00750951 -0.00021789
v -0.00200000 -0.00500000 0.00000000
v -0.00200000 -0.00750000 0.00000000
v -0.00200000 -0.00750951 0.00021789
v -0.00200000 -0.00383022 0.00321394
v -0.00200000 -0.00409576 0.00286788
v -0.00200000 -0.00795212 0.00143394
v -0.00200000 -0.00808489 0.00160697
v -0.00200000 -0.00823223 0.00176777
v -0.00200000 -0.00935295 -0.00241481
v -0.00200000 -0.00914495 -0.00234923
v -0.00200000 -0.00894345 -0.00226577
v -0.00200000 -0.00482963 0.00129410
v -0.00200000 -0.00758519 0.00064705
v -0.00200000 -0.00765077 0.00085505
v -0.00200000 -0.01000000 -0.00250000
v -0.00200000 -0.00978211 -0.00249049
v -0.00200000 -0.00956588 -0.00246202
v -0.00200000 -0.00513030 0.01409539
v -0.00200000 -0.00914495 0.00234923
v -0.00200000 -0.00633927 0.01359462
v -0.00200000 -0.00935295 0.00241481
v -0.00200000 -0.00750000 0.01299038
v -0.00200000 -0.00956588 0.00246202
v -0.00200000 -0.00860365 0.01228728
v -0.00200000 -0.00978211 0.00249049
v -0.00200000 -0.00964181 0.01149067
v -0.00200000 -0.01000000 0.00250000
v -0.00200000 -0.01060660 0.01060660
v -0.00200000 -0.01021789 0.00249049
v -0.00200000 -0.01149067 0.00964181
v -0.00200000 -0.01043412 0.00246202
v -0.00200000 -0.01228728 0.00860365
v -0.00200000 -0.01064705 0.00241481
v -0.00200000 -0.01299038 0.00750000
v -0.00200000 -0.01085505 0.00234923
v -0.00200000 -0.01105655 0.00226577
v -0.00200000 -0.01359462 0.00633927
v -0.00200000 -0.01125000 0.00216506
v -0.00200000 -0.01143394 0.00204788
v -0.00200000 -0.00388229 -0.01448889
v -0.00200000 -0.00513030 -0.01409539
v -0.00200000 -0.01060660 -0.01060660
v -0.00200000 -0.00964181 -0.01149067
v -0.00200000 -0.00860365 -0.01228728
v -0.00200000 -0.00633927 -0.01359462
v -0.00200000 -0.00750000 -0.01299038
v -0.00200000 -0.01149067 -0.00964181
v -0.00200000 -0.01228728 -0.00860365
v -0.00200000 -0.01299038 -0.00750000
v -0.00200000 -0.01359462 -0.00633927
v -0.00200000 -0.01409539 -0.00513030
v -0.00200000 -0.00204788 -0.00856606
v -0.00200000 -0.00216506 -0.00875000
v -0.00200000 0.00043412 -0.01246202
v -0.00200000 0.00130734 -0.01494292
v -0.00200000 0.00021789 -0.01249049
v -0.00200000 -0.00000000 -0.01500000
v -0.00200000 -0.00000000 -0.01250000
v -0.00200000 -0.00191511 -0.01160697
v -0.00200000 -0.00176777 -0.01176777
v -0.00200000 0.00064705 -0.01241481
v -0.00200000 0.00085505 -0.01234923
v -0.00200000 0.00260472 -0.01477212
v -0.00200000 0.00143394 -0.00795212
v -0.00200000 0.00125000 -0.00783494
v -0.00200000 -0.00226577 -0.00894345
v -0.00200000 -0.00234923 -0.00914495
v -0.00200000 -0.00241481 -0.00935295
v -0.00200000 -0.00246202 -0.00956588
v -0.00200000 -0.00249049 -0.00978211
v -0.00200000 -0.00250000 -0.01000000
v -0.00200000 -0.00249049 -0.01021789
v -0.00200000 -0.00246202 -0.01043412
v -0.00200000 -0.00226577 -0.01105655
v -0.00200000 -0.00216506 -0.01125000
v -0.00200000 -0.00204788 -0.01143394
v -0.00200000 -0.00160697 -0.01191511
v -0.00200000 -0.00143394 -0.01204788
v -0.00200000 -0.00260472 -0.01477212
v -0.00200000 -0.00125000 -0.01216506
v -0.00200000 -0.00105655 -0.01226577
v -0.00200000 -0.00130734 -0.01494292
v -0.00200000 -0.00085505 -0.01234923
v -0.00200000 -0.00064705 -0.01241481
v -0.00200000 -0.00043412 -0.01246202
v -0.00200000 -0.00021789 -0.01249049
v -0.00200000 -0.00143394 -0.00795212
v -0.00200000 -0.00160697 -0.00808489
v -0.00200000 -0.00241481 -0.01064705
v -0.00200000 -0.00234923 -0.01085505
v -0.00200000 0.00105655 -0.01226577
v -0.00200000 0.00125000 -0.01216506
v -0.00200000 0.00388229 -0.01448889
v -0.00200000 0.00143394 -0.01204788
v -0.00200000 0.00160697 -0.01191511
v -0.00200000 0.00176777 -0.01176777
v -0.00200000 0.00513030 -0.01409539
v -0.00200000 -0.00176777 -0.00823223
v -0.00200000 -0.00191511 -0.00839303
v -0.00200000 0.00204788 -0.00856606
v -0.00200000 0.00191511 -0.00839303
v -0.00200000 0.00176777 -0.00823223
v -0.00200000 0.00160697 -0.00808489
v -0.00200000 0.00191511 -0.01160697
v -0.00200000 0.00204788 -0.01143394
v -0.00200000 0.00633927 -0.01359462
v -0.00200000 0.00216506 -0.01125000
v -0.00200000 0.00750000 -0.01299038
v -0.00200000 0.00211309 -0.00453154
v -0.00200000 0.00250000 -0.00433013
v -0.00200000 0.00105655 -0.00773423
v -0.00200000 0.00286788 -0.00409576
v -0.00200000 0.00321394 -0.00383022
v -0.00200000 -0.00330403 -0.00375278
v -0.00200000 -0.00321394 -0.00383022
v -0.00200000 -0.00286788 -0.00409576
v -0.00200000 -0.00250000 -0.00433013
v -0.00200000 -0.00085505 -0.00765077
v -0.00200000 -0.00105655 -0.00773423
v -0.00200000 -0.00125000 -0.00783494
v -0.00200000 -0.00211309 -0.00453154
v -0.00200000 -0.00171010 -0.00469846
v -0.00200000 -0.00129410 -0.00482963
v -0.00200000 0.00171010 -0.00469846
v -0.00200000 0.00085505 -0.00765077
v -0.00200000 0.00129410 -0.00482963
v -0.00200000 0.00064705 -0.00758519
v -0.00200000 0.00086824 -0.00492404
v -0.00200000 0.00043412 -0.00753798
v -0.00200000 0.00043578 -0.00498097
v -0.00200000 0.00021789 -0.00750951
v -0.00200000 -0.00000000 -0.00500000
v -0.00200000 -0.00000000 -0.00750000
v -0.00200000 -0.00043578 -0.00498097
v -0.00200000 -0.00021789 -0.00750951
v -0.00200000 -0.00086824 -0.00492404
v -0.00200000 -0.00043412 -0.00753798
v -0.00200000 -0.00064705 -0.00758519
v -0.00200000 0.00226577 -0.01105655
v -0.00200000 0.00234923 -0.01085505
v -0.00200000 0.00860365 -0.01228728
v -0.00200000 0.00241481 -0.01064705
v -0.00200000 0.00964181 -0.01149067
v -0.00200000 0.00246202 -0.01043412
v -0.00200000 0.01060660 -0.01060660
v -0.00200000 0.00249049 -0.01021789
v -0.00200000 0.01149067 -0.00964181
v -0.00200000 0.00250000 -0.01000000
v -0.00200000 0.01228728 -0.00860365
v -0.00200000 0.00249049 -0.00978211
v -0.00200000 0.01299038 -0.00750000
v -0.00200000 0.00246202 -0.00956588
v -0.00200000 0.01359462 -0.00633927
v -0.00200000 0.00241481 -0.00935295
v -0.00200000 0.01409539 -0.00513030
v -0.00200000 0.00234923 -0.00914495
v -0.00200000 0.01448889 -0.00388229
v -0.00200000 0.00226577 -0.00894345
v -0.00200000 0.00216506 -0.00875000
v 0.00800000 -0.00388229 -0.01448889
v 0.01000000 -0.00513030 -0.01409539
v 0.00800000 -0.00513030 -0.01409539
v 0.01000000 -0.00633927 -0.01359462
v 0.00800000 -0.00633927 -0.01359462
v 0.01000000 -0.00750000 -0.01299038
v 0.00800000 -0.00750000 -0.01299038
v 0.01000000 -0.00860365 -0.01228728
v 0.00800000 -0.00860365 -0.01228728
v 0.01000000 -0.00964181 -0.01149067
v 0.00800000 -0.00964181 -0.01149067
v 0.01000000 -0.01060660 -0.01060660
v 0.00800000 -0.01060660 -0.01060660
v 0.01000000 -0.01149067 -0.00964181
v 0.00800000 -0.01149067 -0.00964181
v 0.01000000 -0.01228728 -0.00860365
v 0.00800000 -0.01228728 -0.00860365
v 0.01000000 -0.01299038 -0.00750000
v 0.00800000 -0.01299038 -0.00750000
v 0.01000000 -0.01359462 -0.00633927
v 0.00800000 -0.01359462 -0.00633927
v 0.01000000 -0.01409539 -0.00513030
v 0.00800000 -0.01409539 -0.00513030
v 0.01000000 -0.01448889 -0.00388229
v 0.00800000 -0.01448889 -0.00388229
v 0.01000000 -0.01477212 -0.00260472
v 0.00800000 -0.01477212 -0.00260472
v 0.01000000 -0.01494292 -0.00130734
v 0.00800000 -0.01494292 -0.00130734
v 0.01000000 -0.01500000 0.00000000
v 0.00800000 -0.01500000 0.00000000
v 0.01000000 -0.01494292 0.00130734
v 0.00800000 -0.01494292 0.00130734
v 0.01000000 -0.01477212 0.00260472
v 0.00800000 -0.01477212 0.00260472
v 0.01000000 -0.01448889 0.00388229
v 0.00800000 -0.01448889 0.00388229
v 0.01000000 -0.01409539 0.00513030
v 0.00800000 -0.01409539 0.00513030
v 0.01000000 -0.01359462 0.00633927
v 0.00800000 -0.01359462 0.00633927
v 0.01000000 -0.01299038 0.00750000
v 0.00800000 -0.01299038 0.00750000
v 0.01000000 -0.01228728 0.00860365
v 0.00800000 -0.01228728 0.00860365
v 0.01000000 -0.01149067 0.00964181
v 0.00800000 -0.01149067 0.00964181
v 0.01000000 -0.01060660 0.01060660
v 0.00800000 -0.01060660 0.01060660
v 0.01000000 -0.00964181 0.01149067
v 0.00800000 -0.00964181 0.01149067
v 0.01000000 -0.00860365 0.01228728
v 0.00800000 -0.00860365 0.01228728
v 0.01000000 -0.00750000 0.01299038
v 0.00800000 -0.00750000 0.01299038
v 0.01000000 -0.00633927 0.01359462
v 0.00800000 -0.00633927 0.01359462
v 0.01000000 -0.00513030 0.01409539
v 0.00800000 -0.00513030 0.01409539
v 0.01000000 -0.00388229 0.01448889
v 0.00800000 -0.00388229 0.01448889
v 0.01000000 -0.00260472 0.01477212
v 0.00800000 -0.00260472 0.01477212
v 0.01000000 -0.00130734 0.01494292
v 0.00800000 -0.00130734 0.01494292
v 0.01000000 0.00000000 0.01500000
v 0.00800000 0.00000000 0.01500000
v 0.01000000 0.00130734 0.01494292
v 0.00800000 0.00130734 0.01494292
v 0.01000000 0.00260472 0.01477212
v 0.00800000 0.00260472 0.01477212
v 0.01000000 0.00388229 0.01448889
v 0.00800000 0.00388229 0.01448889
v 0.01000000 0.00513030 0.01409539
v 0.00800000 0.00513030 0.01409539
v 0.01000000 0.00633927 0.01359462
v 0.00800000 0.00633927 0.01359462
v 0.01000000 0.00750000 0.01299038
v 0.00800000 0.00750000 0.01299038
v 0.01000000 0.00860365 0.01228728
v 0.00800000 0.00860365 0.01228728
v 0.01000000 0.00964181 0.01149067
v 0.00800000 0.00964181 0.01149067
v 0.01000000 0.01060660 0.01060660
v 0.00800000 0.01060660 0.01060660
v 0.01000000 0.01149067 0.00964181
v 0.00800000 0.01149067 0.00964181
v 0.01000000 0.01228728 0.00860365
v 0.00800000 0.01228728 0.00860365
v 0.01000000 0.01299038 0.00750000
v 0.00800000 0.01299038 0.00750000
v 0.01000000 0.01359462 0.00633927
v 0.00800000 0.01359462 0.00633927
v 0.01000000 0.01409539 0.00513030
v 0.00800000 0.01409539 0.00513030
v 0.01000000 0.01448889 0.00388229
v 0.00800000 0.01448889 0.00388229
v 0.01000000 0.01452339 0.00375115
v 0.00800000 0.01477212 0.00260472
v 0.01000000 0.01477212 0.00260472
v 0.01000000 0.01494292 0.00130734
v 0.00800000 0.01494292 0.00130734
v 0.01000000 0.01500000 -0.00000000
v 0.00800000 0.01500000 0.00000000
v 0.01000000 0.01494292 -0.00130734
v 0.00800000 0.01494292 -0.00130734
v 0.01000000 0.01477212 -0.00260472
v 0.00800000 0.01477212 -0.00260472
v 0.01000000 0.01448889 -0.00388229
v 0.00800000 0.01448889 -0.00388229
v 0.01000000 0.01409539 -0.00513030
v 0.00800000 0.01409539 -0.00513030
v 0.01000000 0.01359462 -0.00633927
v 0.00800000 0.01359462 -0.00633927
v 0.01000000 0.01299038 -0.00750000
v 0.00800000 0.01299038 -0.00750000
v 0.01000000 0.01228728 -0.00860365
v 0.00800000 0.01228728 -0.00860365
v 0.01000000 0.01149067 -0.00964181
v 0.00800000 0.01149067 -0.00964181
v 0.01000000 0.01060660 -0.01060660
v 0.00800000 0.01060660 -0.01060660
v 0.01000000 0.00964181 -0.01149067
v 0.00800000 0.00964181 -0.01149067
v 0.01000000 0.00860365 -0.01228728
v 0.00800000 0.00860365 -0.01228728
v 0.01000000 0.00750000 -0.01299038
v 0.00800000 0.00750000 -0.01299038
v 0.01000000 0.00633927 -0.01359462
v 0.00800000 0.00633927 -0.01359462
v 0.01000000 0.00513030 -0.01409539
v 0.00800000 0.00513030 -0.01409539
v 0.01000000 0.00388229 -0.01448889
v 0.00800000 0.00388229 -0.01448889
v 0.01000000 0.00260472 -0.01477212
v 0.00800000 0.00260472 -0.01477212
v 0.01000000 0.00130734 -0.01494292
v 0.00800000 0.00130734 -0.01494292
v 0.01000000 -0.00000000 -0.01500000
v 0.00800000 -0.00000000 -0.01500000
v 0.01000000 -0.00130734 -0.01494292
v 0.00800000 -0.00130734 -0.01494292
v 0.01000000 -0.00260472 -0.01477212
v 0.00800000 -0.00260472 -0.01477212
v 0.01000000 -0.00375115 -0.01452339
v 0.01000000 -0.00388229 -0.01448889
v 0.01000000 0.01241481 -0.00064705
v 0.01000000 0.01234923 -0.00085505
v 0.01000000 -0.00204788 -0.00856606
v 0.01000000 -0.00191511 -0.00839303
v 0.01000000 -0.00375278 -0.00330403
v 0.01000000 0.00105655 -0.01226577
v 0.01000000 0.00085505 -0.01234923
v 0.01000000 0.01250000 0.00000000
v 0.01000000 0.01249049 -0.00021789
v 0.01000000 -0.00353553 -0.00353553
v 0.01000000 -0.00143394 -0.00795212
v 0.01000000 0.00176777 -0.01176777
v 0.01000000 0.00191511 -0.01160697
v 0.01000000 0.01246202 -0.00043412
v 0.01000000 0.00064705 -0.01241481
v 0.01000000 0.00043412 -0.01246202
v 0.01000000 0.00021789 -0.01249049
v 0.01000000 0.00160697 -0.01191511
v 0.01000000 0.00143394 -0.01204788
v 0.01000000 0.00125000 -0.01216506
v 0.01000000 0.00773423 0.00105655
v 0.01000000 0.00783494 0.00125000
v 0.01000000 0.00409576 0.00286788
v 0.01000000 0.01234923 0.00085505
v 0.01000000 0.01226577 0.00105655
v 0.01000000 0.01216506 0.00125000
v 0.01000000 0.00226577 -0.01105655
v 0.01000000 0.00216506 -0.01125000
v 0.01000000 0.00204788 -0.01143394
v 0.01000000 -0.00176777 -0.00823223
v 0.01000000 -0.00160697 -0.00808489
v 0.01000000 0.01241481 0.00064705
v 0.01000000 0.01246202 0.00043412
v 0.01000000 0.01249049 0.00021789
v 0.01000000 -0.00000000 -0.01250000
v 0.01000000 -0.00021789 -0.01249049
v 0.01000000 -0.00043412 -0.01246202
v 0.01000000 -0.00064705 -0.01241481
v 0.01000000 -0.00085505 -0.01234923
v 0.01000000 -0.00105655 -0.01226577
v 0.01000000 -0.00125000 -0.01216506
v 0.01000000 -0.00143394 -0.01204788
v 0.01000000 -0.00160697 -0.01191511
v 0.01000000 -0.00176777 -0.01176777
v 0.01000000 -0.00191511 -0.01160697
v 0.01000000 0.01226577 -0.00105655
v 0.01000000 0.01216506 -0.00125000
v 0.01000000 0.01204788 -0.00143394
v 0.01000000 0.01191511 -0.00160697
v 0.01000000 -0.00250000 -0.00433013
v 0.01000000 -0.00286788 -0.00409576
v 0.01000000 -0.00321394 -0.00383022
v 0.01000000 0.00808489 -0.00160697
v 0.01000000 0.00795212 -0.00143394
v 0.01000000 0.00125000 -0.00783494
v 0.01000000 0.00383022 0.00321394
v 0.01000000 -0.00204788 -0.01143394
v 0.01000000 -0.00216506 -0.01125000
v 0.01000000 -0.00226577 -0.01105655
v 0.01000000 0.00914495 -0.00234923
v 0.01000000 0.00894345 -0.00226577
v 0.01000000 0.00191511 -0.00839303
v 0.01000000 0.00875000 -0.00216506
v 0.01000000 0.00433013 -0.00250000
v 0.01000000 0.00482963 0.00129410
v 0.01000000 0.00492404 0.00086824
v 0.01000000 0.00758519 0.00064705
v 0.01000000 0.00498097 0.00043578
v 0.01000000 0.00753798 0.00043412
v 0.01000000 0.00795212 0.00143394
v 0.01000000 0.00808489 0.00160697
v 0.01000000 0.00330403 0.00375278
v 0.01000000 0.00823223 0.00176777
v 0.01000000 0.00839303 0.00191511
v 0.01000000 0.01000000 -0.00250000
v 0.01000000 0.00978211 -0.00249049
v 0.01000000 0.00226577 -0.00894345
v 0.01000000 -0.00234923 -0.01085505
v 0.01000000 -0.00241481 -0.01064705
v 0.01000000 -0.00246202 -0.01043412
v 0.01000000 -0.00085505 -0.00765077
v 0.01000000 -0.00211309 -0.00453154
v 0.01000000 -0.00105655 -0.00773423
v 0.01000000 -0.00125000 -0.00783494
v 0.01000000 0.00064705 -0.00758519
v 0.01000000 0.00129410 -0.00482963
v 0.01000000 0.00086824 -0.00492404
v 0.01000000 0.00409576 -0.00286788
v 0.01000000 0.00383022 -0.00321394
v 0.01000000 0.00353553 -0.00353553
v 0.01000000 0.00353553 0.00353553
v 0.01000000 0.01043412 0.00246202
v 0.01000000 0.01064705 0.00241481
v 0.01000000 0.01085505 0.00234923
v 0.01000000 0.01204788 0.00143394
v 0.01000000 0.01191511 0.00160697
v 0.01000000 0.01176777 -0.00176777
v 0.01000000 0.01160697 -0.00191511
v 0.01000000 0.01143394 -0.00204788
v 0.01000000 0.00956588 -0.00246202
v 0.01000000 0.00935295 -0.00241481
v 0.01000000 0.00216506 -0.00875000
v 0.01000000 0.00234923 -0.00914495
v 0.01000000 0.00241481 -0.00935295
v 0.01000000 0.00246202 -0.00956588
v 0.01000000 0.00249049 -0.00978211
v 0.01000000 0.00250000 -0.01000000
v 0.01000000 0.00249049 -0.01021789
v 0.01000000 0.00246202 -0.01043412
v 0.01000000 0.00241481 -0.01064705
v 0.01000000 0.00234923 -0.01085505
v 0.01000000 -0.00249049 -0.00978211
v 0.01000000 -0.00250000 -0.01000000
v 0.01000000 -0.00249049 -0.01021789
v 0.01000000 -0.00246202 -0.00956588
v 0.01000000 -0.00241481 -0.00935295
v 0.01000000 -0.00234923 -0.00914495
v 0.01000000 -0.00086824 -0.00492404
v 0.01000000 -0.00129410 -0.00482963
v 0.01000000 -0.00171010 -0.00469846
v 0.01000000 0.00211309 -0.00453154
v 0.01000000 0.00171010 -0.00469846
v 0.01000000 0.00105655 -0.00773423
v 0.01000000 0.00783494 -0.00125000
v 0.01000000 0.00773423 -0.00105655
v 0.01000000 0.00453154 -0.00211309
v 0.01000000 0.00765077 -0.00085505
v 0.01000000 0.00469846 -0.00171010
v 0.01000000 0.00433013 0.00250000
v 0.01000000 0.00453154 0.00211309
v 0.01000000 0.00469846 0.00171010
v 0.01000000 0.01105655 0.00226577
v 0.01000000 0.01125000 0.00216506
v 0.01000000 0.01143394 0.00204788
v 0.01000000 0.01160697 0.00191511
v 0.01000000 0.01176777 0.00176777
v 0.01000000 0.00204788 -0.00856606
v 0.01000000 -0.00226577 -0.00894345
v 0.01000000 -0.00216506 -0.00875000
v 0.01000000 -0.00064705 -0.00758519
v 0.01000000 -0.00043412 -0.00753798
v 0.01000000 -0.00043578 -0.00498097
v 0.01000000 -0.00021789 -0.00750951
v 0.01000000 -0.00000000 -0.00500000
v 0.01000000 -0.00000000 -0.00750000
v 0.01000000 0.00043578 -0.00498097
v 0.01000000 0.00021789 -0.00750951
v 0.01000000 0.00043412 -0.00753798
v 0.01000000 0.01125000 -0.00216506
v 0.01000000 0.01105655 -0.00226577
v 0.01000000 0.01085505 -0.00234923
v 0.01000000 0.01064705 -0.00241481
v 0.01000000 0.01043412 -0.00246202
v 0.01000000 0.01021789 -0.00249049
v 0.01000000 0.00321394 -0.00383022
v 0.01000000 0.00286788 -0.00409576
v 0.01000000 0.00250000 -0.00433013
v 0.01000000 0.00085505 -0.00765077
v 0.01000000 0.00143394 -0.00795212
v 0.01000000 0.00160697 -0.00808489
v 0.01000000 0.00823223 -0.00176777
v 0.01000000 0.00176777 -0.00823223
v 0.01000000 0.00839303 -0.00191511
v 0.01000000 0.00856606 -0.00204788
v 0.01000000 0.00482963 -0.00129410
v 0.01000000 0.00758519 -0.00064705
v 0.01000000 0.00492404 -0.00086824
v 0.01000000 0.00753798 -0.00043412
v 0.01000000 0.00498097 -0.00043578
v 0.01000000 0.00750951 -0.00021789
v 0.01000000 0.00500000 0.00000000
v 0.01000000 0.00750000 -0.00000000
v 0.01000000 0.00750951 0.00021789
v 0.01000000 0.00765077 0.00085505
v 0.01000000 0.00856606 0.00204788
v 0.01000000 0.00875000 0.00216506
v 0.01000000 0.00894345 0.00226577
v 0.01000000 0.00914495 0.00234923
v 0.01000000 0.00935295 0.00241481
v 0.01000000 0.00956588 0.00246202
v 0.01000000 0.00978211 0.00249049
v 0.01000000 0.01000000 0.00250000
v 0.01000000 0.01021789 0.00249049
v 0.01000000 -0.00383022 -0.00321394
v 0.01000000 -0.00783494 -0.00125000
v 0.01000000 -0.00409576 -0.00286788
v 0.01000000 -0.00433013 -0.00250000
v 0.01000000 -0.00765077 -0.00085505
v 0.01000000 -0.00453154 -0.00211309
v 0.01000000 -0.00469846 -0.00171010
v 0.01000000 -0.00482963 -0.00129410
v 0.01000000 -0.00492404 -0.00086824
v 0.01000000 -0.00758519 -0.00064705
v 0.01000000 -0.01176777 -0.00176777
v 0.01000000 -0.01191511 -0.00160697
v 0.01000000 -0.01204788 -0.00143394
v 0.01000000 -0.00773423 -0.00105655
v 0.01000000 -0.01216506 0.00125000
v 0.01000000 -0.01234923 -0.00085505
v 0.01000000 -0.01226577 -0.00105655
v 0.01000000 -0.01216506 -0.00125000
v 0.01000000 -0.01204788 0.00143394
v 0.01000000 -0.01191511 0.00160697
v 0.01000000 -0.01176777 0.00176777
v 0.01000000 -0.01160697 0.00191511
v 0.01000000 -0.01143394 0.00204788
v 0.01000000 -0.01125000 0.00216506
v 0.01000000 -0.00783494 0.00125000
v 0.01000000 -0.00375000 0.00375000
v 0.01000000 -0.00795212 0.00143394
v 0.01000000 -0.00808489 0.00160697
v 0.01000000 -0.00795212 -0.00143394
v 0.01000000 -0.00808489 -0.00160697
v 0.01000000 -0.00823223 -0.00176777
v 0.01000000 -0.00839303 -0.00191511
v 0.01000000 -0.00856606 -0.00204788
v 0.01000000 -0.00875000 -0.00216506
v 0.01000000 -0.00894345 -0.00226577
v 0.01000000 -0.01160697 -0.00191511
v 0.01000000 -0.01143394 -0.00204788
v 0.01000000 -0.01241481 -0.00064705
v 0.01000000 -0.01246202 -0.00043412
v 0.01000000 -0.01249049 -0.00021789
v 0.01000000 -0.01250000 -0.00000000
v 0.01000000 -0.01249049 0.00021789
v 0.01000000 -0.01246202 0.00043412
v 0.01000000 -0.01241481 0.00064705
v 0.01000000 -0.01234923 0.00085505
v 0.01000000 -0.01226577 0.00105655
v 0.01000000 -0.01125000 -0.00216506
v 0.01000000 -0.01105655 -0.00226577
v 0.01000000 -0.01085505 -0.00234923
v 0.01000000 -0.00978211 0.00249049
v 0.01000000 -0.00956588 0.00246202
v 0.01000000 -0.00935295 0.00241481
v 0.01000000 -0.00914495 0.00234923
v 0.01000000 -0.00894345 0.00226577
v 0.01000000 -0.00875000 0.00216506
v 0.01000000 -0.00856606 0.00204788
v 0.01000000 -0.00839303 0.00191511
v 0.01000000 -0.00823223 0.00176777
v 0.01000000 -0.00469846 0.00171010
v 0.01000000 -0.00453154 0.00211309
v 0.01000000 -0.00773423 0.00105655
v 0.01000000 -0.00765077 0.00085505
v 0.01000000 -0.00482963 0.00129410
v 0.01000000 -0.00758519 0.00064705
v 0.01000000 -0.00492404 0.00086824
v 0.01000000 -0.00753798 0.00043412
v 0.01000000 -0.00498097 0.00043578
v 0.01000000 -0.00750951 0.00021789
v 0.01000000 -0.00500000 0.00000000
v 0.01000000 -0.00750000 0.00000000
v 0.01000000 -0.00498097 -0.00043578
v 0.01000000 -0.00750951 -0.00021789
v 0.01000000 -0.00753798 -0.00043412
v 0.01000000 -0.00383022 0.00321394
v 0.01000000 -0.00409576 0.00286788
v 0.01000000 -0.00433013 0.00250000
v 0.01000000 -0.01064705 -0.00241481
v 0.01000000 -0.01043412 -0.00246202
v 0.01000000 -0.01021789 -0.00249049
v 0.01000000 -0.01000000 -0.00250000
v 0.01000000 -0.00978211 -0.00249049
v 0.01000000 -0.00956588 -0.00246202
v 0.01000000 -0.00935295 -0.00241481
v 0.01000000 -0.00914495 -0.00234923
v 0.01000000 -0.01105655 0.00226577
v 0.01000000 -0.01085505 0.00234923
v 0.01000000 -0.01064705 0.00241481
v 0.01000000 -0.01043412 0.00246202
v 0.01000000 -0.01021789 0.00249049
v 0.01000000 -0.01000000 0.00250000
v 0.01000000 -0.00204788 0.01143394
v 0.01000000 -0.00191511 0.01160697
v 0.01000000 -0.00176777 0.01176777
v 0.01000000 -0.00160697 0.01191511
v 0.01000000 -0.00143394 0.01204788
v 0.01000000 0.00204788 0.00856606
v 0.01000000 0.00191511 0.00839303
v 0.01000000 0.00176777 0.00823223
v 0.01000000 0.00160697 0.00808489
v 0.01000000 0.00143394 0.01204788
v 0.01000000 0.00125000 0.01216506
v 0.01000000 0.00105655 0.01226577
v 0.01000000 0.00160697 0.01191511
v 0.01000000 0.00176777 0.01176777
v 0.01000000 0.00171010 0.00469846
v 0.01000000 0.00211309 0.00453154
v 0.01000000 0.00125000 0.00783494
v 0.01000000 0.00250000 0.00433013
v 0.01000000 0.00286788 0.00409576
v 0.01000000 -0.00321394 0.00383022
v 0.01000000 -0.00286788 0.00409576
v 0.01000000 -0.00125000 0.00783494
v 0.01000000 -0.00160697 0.00808489
v 0.01000000 -0.00176777 0.00823223
v 0.01000000 -0.00085505 0.01234923
v 0.01000000 -0.00105655 0.01226577
v 0.01000000 -0.00125000 0.01216506
v 0.01000000 0.00191511 0.01160697
v 0.01000000 0.00204788 0.01143394
v 0.01000000 0.00216506 0.01125000
v 0.01000000 0.00143394 0.00795212
v 0.01000000 0.00321394 0.00383022
v 0.01000000 -0.00064705 0.00758519
v 0.01000000 -0.00129410 0.00482963
v 0.01000000 -0.00086824 0.00492404
v 0.01000000 -0.00353553 0.00353553
v 0.01000000 -0.00330403 0.00375278
v 0.01000000 -0.00064705 0.01241481
v 0.01000000 -0.00043412 0.01246202
v 0.01000000 -0.00021789 0.01249049
v 0.01000000 0.00226577 0.01105655
v 0.01000000 0.00234923 0.01085505
v 0.01000000 0.00241481 0.01064705
v 0.01000000 0.00246202 0.01043412
v 0.01000000 0.00249049 0.01021789
v 0.01000000 0.00250000 0.01000000
v 0.01000000 0.00249049 0.00978211
v 0.01000000 0.00246202 0.00956588
v 0.01000000 0.00241481 0.00935295
v 0.01000000 0.00234923 0.00914495
v 0.01000000 0.00226577 0.00894345
v 0.01000000 0.00216506 0.00875000
v 0.01000000 -0.00171010 0.00469846
v 0.01000000 -0.00143394 0.00795212
v 0.01000000 -0.00191511 0.00839303
v 0.01000000 -0.00204788 0.00856606
v 0.01000000 -0.00216506 0.00875000
v 0.01000000 0.00085505 0.01234923
v 0.01000000 0.00064705 0.01241481
v 0.01000000 0.00105655 0.00773423
v 0.01000000 0.00085505 0.00765077
v 0.01000000 0.00129410 0.00482963
v 0.01000000 0.00064705 0.00758519
v 0.01000000 0.00086824 0.00492404
v 0.01000000 0.00043412 0.00753798
v 0.01000000 0.00043578 0.00498097
v 0.01000000 0.00021789 0.00750951
v 0.01000000 0.00000000 0.00500000
v 0.01000000 0.00000000 0.00750000
v 0.01000000 -0.00043578 0.00498097
v 0.01000000 -0.00021789 0.00750951
v 0.01000000 -0.00043412 0.00753798
v 0.01000000 -0.00250000 0.00433013
v 0.01000000 -0.00211309 0.00453154
v 0.01000000 -0.00105655 0.00773423
v 0.01000000 -0.00085505 0.00765077
v 0.01000000 -0.00226577 0.00894345
v 0.01000000 -0.00234923 0.00914495
v 0.01000000 -0.00241481 0.00935295
v 0.01000000 0.00000000 0.01250000
v 0.01000000 0.00021789 0.01249049
v 0.01000000 0.00043412 0.01246202
v 0.01000000 -0.00246202 0.00956588
v 0.01000000 -0.00249049 0.00978211
v 0.01000000 -0.00250000 0.01000000
v 0.01000000 -0.00249049 0.01021789
v 0.01000000 -0.00246202 0.01043412
v 0.01000000 -0.00241481 0.01064705
v 0.01000000 -0.00234923 0.01085505
v 0.01000000 -0.00226577 0.01105655
v 0.01000000 -0.00216506 0.01125000
v 0.00800000 0.00000000 -0.01800000
v 0.00600000 0.00156880 -0.01793150
v 0.00800000 0.00156880 -0.01793150
v 0.00600000 0.00312567 -0.01772654
v 0.00800000 0.00312567 -0.01772654
v 0.00600000 0.00465874 -0.01738667
v 0.00800000 0.00465874 -0.01738667
v 0.00600000 0.00615636 -0.01691447
v 0.00800000 0.00615636 -0.01691447
v 0.00600000 0.00760713 -0.01631354
v 0.00800000 0.00760713 -0.01631354
v 0.00600000 0.00900000 -0.01558846
v 0.00800000 0.00900000 -0.01558846
v 0.00600000 0.01032438 -0.01474474
v 0.00800000 0.01032438 -0.01474474
v 0.00600000 0.01157018 -0.01378880
v 0.00800000 0.01157018 -0.01378880
v 0.00600000 0.01272792 -0.01272792
v 0.00800000 0.01272792 -0.01272792
v 0.00600000 0.01378880 -0.01157018
v 0.00800000 0.01378880 -0.01157018
v 0.00600000 0.01474474 -0.01032438
v 0.00800000 0.01474474 -0.01032438
v 0.00600000 0.01558846 -0.00900000
v 0.00800000 0.01558846 -0.00900000
v 0.00600000 0.01631354 -0.00760713
v 0.00800000 0.01631354 -0.00760713
v 0.00600000 0.01691447 -0.00615636
v 0.00800000 0.01691447 -0.00615636
v 0.00600000 0.01738667 -0.00465874
v 0.00800000 0.01738667 -0.00465874
v 0.00600000 0.01772654 -0.00312567
v 0.00800000 0.01772654 -0.00312567
v 0.00600000 0.01793150 -0.00156880
v 0.00800000 0.01793150 -0.00156880
v 0.00600000 0.01800000 -0.00000000
v 0.00800000 0.01800000 -0.00000000
v 0.00600000 0.01793150 0.00156880
v 0.00800000 0.01793150 0.00156880
v 0.00600000 0.01772654 0.00312567
v 0.00800000 0.01772654 0.00312567
v 0.00600000 0.01738667 0.00465874
v 0.00800000 0.01738667 0.00465874
v 0.00600000 0.01691447 0.00615636
v 0.00800000 0.01691447 0.00615636
v 0.00600000 0.01631354 0.00760713
v 0.00800000 0.01631354 0.00760713
v 0.00600000 0.01558846 0.00900000
v 0.00800000 0.01558846 0.00900000
v 0.00600000 0.01474474 0.01032438
v 0.00800000 0.01474474 0.01032438
v 0.00600000 0.01378880 0.01157018
v 0.00800000 0.01378880 0.01157018
v 0.00600000 0.01272792 0.01272792
v 0.00800000 0.01272792 0.01272792
v 0.00600000 0.01157018 0.01378880
v 0.00800000 0.01157018 0.01378880
v 0.00600000 0.01032438 0.01474474
v 0.00800000 0.01032438 0.01474474
v 0.00600000 0.00900000 0.01558846
v 0.00800000 0.00900000 0.01558846
v 0.00600000 0.00760713 0.01631354
v 0.00800000 0.00760713 0.01631354
v 0.00600000 0.00615636 0.01691447
v 0.00800000 0.00615636 0.01691447
v 0.00600000 0.00465874 0.01738667
v 0.00800000 0.00465874 0.01738667
v 0.00600000 0.00312567 0.01772654
v 0.00800000 0.00312567 0.01772654
v 0.00600000 0.00156880 0.01793150
v 0.00800000 0.00156880 0.01793150
v 0.00600000 0.00000000 0.01800000
v 0.00800000 0.00000000 0.01800000
v 0.00600000 -0.00156880 0.01793150
v 0.00800000 -0.00156880 0.01793150
v 0.00600000 -0.00312567 0.01772654
v 0.00800000 -0.00312567 0.01772654
v 0.00600000 -0.00465874 0.01738667
v 0.00800000 -0.00465874 0.01738667
v 0.00600000 -0.00615636 0.01691447
v 0.00800000 -0.00615636 0.01691447
v 0.00600000 -0.00760713 0.01631354
v 0.00800000 -0.00760713 0.01631354
v 0.00600000 -0.00900000 0.01558846
v 0.00800000 -0.00900000 0.01558846
v 0.00600000 -0.01032438 0.01474474
v 0.00800000 -0.01032438 0.01474474
v 0.00600000 -0.01157018 0.01378880
v 0.00800000 -0.01157018 0.01378880
v 0.00600000 -0.01272792 0.01272792
v 0.00800000 -0.01272792 0.01272792
v 0.00600000 -0.01378880 0.01157018
v 0.00800000 -0.01378880 0.01157018
v 0.00600000 -0.01474474 0.01032438
v 0.00800000 -0.01474474 0.01032438
v 0.00600000 -0.01558846 0.00900000
v 0.00800000 -0.01558846 0.00900000
v 0.00600000 -0.01631354 0.00760713
v 0.00800000 -0.01631354 0.00760713
v 0.00600000 -0.01691447 0.00615636
v 0.00800000 -0.01691447 0.00615636
v 0.00600000 -0.01738667 0.00465874
v 0.00800000 -0.01738667 0.00465874
v 0.00600000 -0.01772654 0.00312567
v 0.00800000 -0.01772654 0.00312567
v 0.00600000 -0.01793150 0.00156880
v 0.00800000 -0.01793150 0.00156880
v 0.00600000 -0.01800000 0.00000000
v 0.00800000 -0.01800000 0.00000000
v 0.00600000 -0.01793150 -0.00156880
v 0.00800000 -0.01793150 -0.00156880
v 0.00600000 -0.01772654 -0.00312567
v 0.00800000 -0.01772654 -0.00312567
v 0.00600000 -0.01738667 -0.00465874
v 0.00800000 -0.01738667 -0.00465874
v 0.00600000 -0.01691447 -0.00615636
v 0.00800000 -0.01691447 -0.00615636
v 0.00600000 -0.01631354 -0.00760713
v 0.00800000 -0.01631354 -0.00760713
v 0.00600000 -0.01558846 -0.00900000
v 0.00800000 -0.01558846 -0.00900000
v 0.00600000 -0.01474474 -0.01032438
v 0.00800000 -0.01474474 -0.01032438
v 0.00600000 -0.01378880 -0.01157018
v 0.00800000 -0.01378880 -0.01157018
v 0.00600000 -0.01272792 -0.01272792
v 0.00800000 -0.01272792 -0.01272792
v 0.00600000 -0.01157018 -0.01378880
v 0.00800000 -0.01157018 -0.01378880
v 0.00600000 -0.01032438 -0.01474474
v 0.00800000 -0.01032438 -0.01474474
v 0.00600000 -0.00900000 -0.01558846
v 0.00800000 -0.00900000 -0.01558846
v 0.00600000 -0.00760713 -0.01631354
v 0.00800000 -0.00760713 -0.01631354
v 0.00600000 -0.00615636 -0.01691447
v 0.00800000 -0.00615636 -0.01691447
v 0.00600000 -0.00465874 -0.01738667
v 0.00800000 -0.00465874 -0.01738667
v 0.00600000 -0.00312567 -0.01772654
v 0.00800000 -0.00312567 -0.01772654
v 0.00600000 -0.00156880 -0.01793150
v 0.00800000 -0.00156880 -0.01793150
v 0.00600000 -0.00000000 -0.01800000
v 0.00600000 0.02300000 -0.00000000
v 0.00400000 0.02291248 0.00200458
v 0.00600000 0.02291248 0.00200458
v 0.00400000 0.02265058 0.00399391
v 0.00600000 0.02265058 0.00399391
v 0.00400000 0.02221629 0.00595284
v 0.00600000 0.02221629 0.00595284
v 0.00400000 0.02161293 0.00786646
v 0.00600000 0.02161293 0.00786646
v 0.00400000 0.02084508 0.00972022
v 0.00600000 0.02084508 0.00972022
v 0.00400000 0.01991859 0.01150000
v 0.00600000 0.01991859 0.01150000
v 0.00400000 0.01884050 0.01319226
v 0.00600000 0.01884050 0.01319226
v 0.00400000 0.01761902 0.01478412
v 0.00600000 0.01761902 0.01478412
v 0.00400000 0.01626346 0.01626346
v 0.00600000 0.01626346 0.01626346
v 0.00400000 0.01478412 0.01761902
v 0.00600000 0.01478412 0.01761902
v 0.00400000 0.01319226 0.01884050
v 0.00600000 0.01319226 0.01884050
v 0.00400000 0.01150000 0.01991859
v 0.00600000 0.01150000 0.01991859
v 0.00400000 0.00972022 0.02084508
v 0.00600000 0.00972022 0.02084508
v 0.00400000 0.00786646 0.02161293
v 0.00600000 0.00786646 0.02161293
v 0.00400000 0.00595284 0.02221629
v 0.00600000 0.00595284 0.02221629
v 0.00400000 0.00399391 0.02265058
v 0.00600000 0.00399391 0.02265058
v 0.00400000 0.00200458 0.02291248
v 0.00600000 0.00200458 0.02291248
v 0.00400000 0.00000000 0.02300000
v 0.00600000 0.00000000 0.02300000
v 0.00400000 -0.00200458 0.02291248
v 0.00600000 -0.00200458 0.02291248
v 0.00400000 -0.00399391 0.02265058
v 0.00600000 -0.00399391 0.02265058
v 0.00400000 -0.00595284 0.02221629
v 0.00600000 -0.00595284 0.02221629
v 0.00400000 -0.00786646 0.02161293
v 0.00600000 -0.00786646 0.02161293
v 0.00400000 -0.00972022 0.02084508
v 0.00600000 -0.00972022 0.02084508
v 0.00400000 -0.01150000 0.01991859
v 0.00600000 -0.01150000 0.01991859
v 0.00400000 -0.01319226 0.01884050
v 0.00600000 -0.01319226 0.01884050
v 0.00400000 -0.01478412 0.01761902
v 0.00600000 -0.01478412 0.01761902
v 0.00400000 -0.01626346 0.01626346
v 0.00600000 -0.01626346 0.01626346
v 0.00400000 -0.01761902 0.01478412
v 0.00600000 -0.01761902 0.01478412
v 0.00400000 -0.01884050 0.01319226
v 0.00600000 -0.01884050 0.01319226
v 0.00400000 -0.01991859 0.01150000
v 0.00600000 -0.01991859 0.01150000
v 0.00400000 -0.02084508 0.00972022
v 0.00600000 -0.02084508 0.00972022
v 0.00400000 -0.02161293 0.00786646
v 0.00600000 -0.02161293 0.00786646
v 0.00400000 -0.02221629 0.00595284
v 0.00600000 -0.02221629 0.00595284
v 0.00400000 -0.02265058 0.00399391
v 0.00600000 -0.02265058 0.00399391
v 0.00400000 -0.02291248 0.00200458
v 0.00600000 -0.02291248 0.00200458
v 0.00400000 -0.02300000 0.00000000
v 0.00600000 -0.02300000 0.00000000
v 0.00400000 -0.02291248 -0.00200458
v 0.00600000 -0.02291248 -0.00200458
v 0.00400000 -0.02265058 -0.00399391
v 0.00600000 -0.02265058 -0.00399391
v 0.00400000 -0.02221629 -0.00595284
v 0.00600000 -0.02221629 -0.00595284
v 0.00400000 -0.02161293 -0.00786646
v 0.00600000 -0.02161293 -0.00786646
v 0.00400000 -0.02084508 -0.00972022
v 0.00600000 -0.02084508 -0.00972022
v 0.00400000 -0.01991859 -0.01150000
v 0.00600000 -0.01991859 -0.01150000
v 0.00400000 -0.01884050 -0.01319226
v 0.00600000 -0.01884050 -0.01319226
v 0.00400000 -0.01761902 -0.01478412
v 0.00600000 -0.01761902 -0.01478412
v 0.00400000 -0.01626346 -0.01626346
v 0.00600000 -0.01626346 -0.01626346
v 0.00400000 -0.01478412 -0.01761902
v 0.00600000 -0.01478412 -0.01761902
v 0.00400000 -0.01319226 -0.01884050
v 0.00600000 -0.01319226 -0.01884050
v 0.00400000 -0.01150000 -0.01991859
v 0.00600000 -0.01150000 -0.01991859
v 0.00400000 -0.00972022 -0.02084508
v 0.00600000 -0.00972022 -0.02084508
v 0.00400000 -0.00786646 -0.02161293
v 0.00600000 -0.00786646 -0.02161293
v 0.00400000 -0.00595284 -0.02221629
v 0.00600000 -0.00595284 -0.02221629
v 0.00400000 -0.00399391 -0.02265058
v 0.00600000 -0.00399391 -0.02265058
v 0.00400000 -0.00200458 -0.02291248
v 0.00600000 -0.00200458 -0.02291248
v 0.00400000 -0.00000000 -0.02300000
v 0.00600000 -0.00000000 -0.02300000
v 0.00400000 0.00200458 -0.02291248
v 0.00600000 0.00200458 -0.02291248
v 0.00400000 0.00399391 -0.02265058
v 0.00600000 0.00399391 -0.02265058
v 0.00400000 0.00595284 -0.02221629
v 0.00600000 0.00595284 -0.02221629
v 0.00400000 0.00786646 -0.02161293
v 0.00600000 0.00786646 -0.02161293
v 0.00400000 0.00972022 -0.02084508
v 0.00600000 0.00972022 -0.02084508
v 0.00400000 0.01150000 -0.01991859
v 0.00600000 0.01150000 -0.01991859
v 0.00400000 0.01319226 -0.01884050
v 0.00600000 0.01319226 -0.01884050
v 0.00400000 0.01478412 -0.01761902
v 0.00600000 0.01478412 -0.01761902
v 0.00400000 0.01626346 -0.01626346
v 0.00600000 0.01626346 -0.01626346
v 0.00400000 0.01761902 -0.01478412
v 0.00600000 0.01761902 -0.01478412
v 0.00400000 0.01884050 -0.01319226
v 0.00600000 0.01884050 -0.01319226
v 0.00400000 0.01991859 -0.01150000
v 0.00600000 0.01991859 -0.01150000
v 0.00400000 0.02084508 -0.00972022
v 0.00600000 0.02084508 -0.00972022
v 0.00400000 0.02161293 -0.00786646
v 0.00600000 0.02161293 -0.00786646
v 0.00400000 0.02221629 -0.00595284
v 0.00600000 0.02221629 -0.00595284
v 0.00400000 0.02265058 -0.00399391
v 0.00600000 0.02265058 -0.00399391
v 0.00400000 0.02291248 -0.00200458
v 0.00600000 0.02291248 -0.00200458
v 0.00400000 0.02300000 -0.00000000
v 0.00400000 0.01850000 -0.00000000
v 0.00200000 0.01842960 0.00161238
v 0.00400000 0.01842960 0.00161238
v 0.00200000 0.01821894 0.00321249
v 0.00400000 0.01821894 0.00321249
v 0.00200000 0.01786963 0.00478815
v 0.00400000 0.01786963 0.00478815
v 0.00200000 0.01738431 0.00632737
v 0.00400000 0.01738431 0.00632737
v 0.00200000 0.01676669 0.00781844
v 0.00400000 0.01676669 0.00781844
v 0.00200000 0.01602147 0.00925000
v 0.00400000 0.01602147 0.00925000
v 0.00200000 0.01515431 0.01061116
v 0.00400000 0.01515431 0.01061116
v 0.00200000 0.01417182 0.01189157
v 0.00400000 0.01417182 0.01189157
v 0.00200000 0.01308148 0.01308148
v 0.00400000 0.01308148 0.01308148
v 0.00200000 0.01189157 0.01417182
v 0.00400000 0.01189157 0.01417182
v 0.00200000 0.01061116 0.01515431
v 0.00400000 0.01061116 0.01515431
v 0.00200000 0.00925000 0.01602147
v 0.00400000 0.00925000 0.01602147
v 0.00200000 0.00781844 0.01676669
v 0.00400000 0.00781844 0.01676669
v 0.00200000 0.00632737 0.01738431
v 0.00400000 0.00632737 0.01738431
v 0.00200000 0.00478815 0.01786963
v 0.00400000 0.00478815 0.01786963
v 0.00200000 0.00321249 0.01821894
v 0.00400000 0.00321249 0.01821894
v 0.00200000 0.00161238 0.01842960
v 0.00400000 0.00161238 0.01842960
v 0.00200000 0.00000000 0.01850000
v 0.00400000 0.00000000 0.01850000
v 0.00200000 -0.00161238 0.01842960
v 0.00400000 -0.00161238 0.01842960
v 0.00200000 -0.00321249 0.01821894
v 0.00400000 -0.00321249 0.01821894
v 0.00200000 -0.00478815 0.01786963
v 0.00400000 -0.00478815 0.01786963
v 0.00200000 -0.00632737 0.01738431
v 0.00400000 -0.00632737 0.01738431
v 0.00200000 -0.00781844 0.01676669
v 0.00400000 -0.00781844 0.01676669
v 0.00200000 -0.00925000 0.01602147
v 0.00400000 -0.00925000 0.01602147
v 0.00200000 -0.01061116 0.01515431
v 0.00400000 -0.01061116 0.01515431
v 0.00200000 -0.01189157 0.01417182
v 0.00400000 -0.01189157 0.01417182
v 0.00200000 -0.01308148 0.01308148
v 0.00400000 -0.01308148 0.01308148
v 0.00200000 -0.01417182 0.01189157
v 0.00400000 -0.01417182 0.01189157
v 0.00200000 -0.01515431 0.01061116
v 0.00400000 -0.01515431 0.01061116
v 0.00200000 -0.01602147 0.00925000
v 0.00400000 -0.01602147 0.00925000
v 0.00200000 -0.01676669 0.00781844
v 0.00400000 -0.01676669 0.00781844
v 0.00200000 -0.01738431 0.00632737
v 0.00400000 -0.01738431 0.00632737
v 0.00200000 -0.01786963 0.00478815
v 0.00400000 -0.01786963 0.00478815
v 0.00200000 -0.01821894 0.00321249
v 0.00400000 -0.01821894 0.00321249
v 0.00200000 -0.01842960 0.00161238
v 0.00400000 -0.01842960 0.00161238
v 0.00200000 -0.01850000 0.00000000
v 0.00400000 -0.01850000 0.00000000
v 0.00200000 -0.01842960 -0.00161238
v 0.00400000 -0.01842960 -0.00161238
v 0.00200000 -0.01821894 -0.00321249
v 0.00400000 -0.01821894 -0.00321249
v 0.00200000 -0.01786963 -0.00478815
v 0.00400000 -0.01786963 -0.00478815
v 0.00200000 -0.01738431 -0.00632737
v 0.00400000 -0.01738431 -0.00632737
v 0.00200000 -0.01676669 -0.00781844
v 0.00400000 -0.01676669 -0.00781844
v 0.00200000 -0.01602147 -0.00925000
v 0.00400000 -0.01602147 -0.00925000
v 0.00200000 -0.01515431 -0.01061116
v 0.00400000 -0.01515431 -0.01061116
v 0.00200000 -0.01417182 -0.01189157
v 0.00400000 -0.01417182 -0.01189157
v 0.00200000 -0.01308148 -0.01308148
v 0.00400000 -0.01308148 -0.01308148
v 0.00200000 -0.01189157 -0.01417182
v 0.00400000 -0.01189157 -0.01417182
v 0.00200000 -0.01061116 -0.01515431
v 0.00400000 -0.01061116 -0.01515431
v 0.00200000 -0.00925000 -0.01602147
v 0.00400000 -0.00925000 -0.01602147
v 0.00200000 -0.00781844 -0.01676669
v 0.00400000 -0.00781844 -0.01676669
v 0.00200000 -0.00632737 -0.01738431
v 0.00400000 -0.00632737 -0.01738431
v 0.00200000 -0.00478815 -0.01786963
v 0.00400000 -0.00478815 -0.01786963
v 0.00200000 -0.00321249 -0.01821894
v 0.00400000 -0.00321249 -0.01821894
v 0.00200000 -0.00161238 -0.01842960
v 0.00400000 -0.00161238 -0.01842960
v 0.00200000 -0.00000000 -0.01850000
v 0.00400000 -0.00000000 -0.01850000
v 0.00200000 0.00161238 -0.01842960
v 0.00400000 0.00161238 -0.01842960
v 0.00200000 0.00321249 -0.01821894
v 0.00400000 0.00321249 -0.01821894
v 0.00200000 0.00478815 -0.01786963
v 0.00400000 0.00478815 -0.01786963
v 0.00200000 0.00632737 -0.01738431
v 0.00400000 0.00632737 -0.01738431
v 0.00200000 0.00781844 -0.01676669
v 0.00400000 0.00781844 -0.01676669
v 0.00200000 0.00925000 -0.01602147
v 0.00400000 0.00925000 -0.01602147
v 0.00200000 0.01061116 -0.01515431
v 0.00400000 0.01061116 -0.01515431
v 0.00200000 0.01189157 -0.01417182
v 0.00400000 0.01189157 -0.01417182
v 0.00200000 0.01308148 -0.01308148
v 0.00400000 0.01308148 -0.01308148
v 0.00200000 0.01417182 -0.01189157
v 0.00400000 0.01417182 -0.01189157
v 0.00200000 0.01515431 -0.01061116
v 0.00400000 0.01515431 -0.01061116
v 0.00200000 0.01602147 -0.00925000
v 0.00400000 0.01602147 -0.00925000
v 0.00200000 0.01676669 -0.00781844
v 0.00400000 0.01676669 -0.00781844
v 0.00200000 0.01738431 -0.00632737
v 0.00400000 0.01738431 -0.00632737
v 0.00200000 0.01786963 -0.00478815
v 0.00400000 0.01786963 -0.00478815
v 0.00200000 0.01821894 -0.00321249
v 0.00400000 0.01821894 -0.00321249
v 0.00200000 0.01842960 -0.00161238
v 0.00400000 0.01842960 -0.00161238
v 0.00200000 0.01850000 -0.00000000
v 0.00200000 0.00260472 0.01477212
v 0.00200000 0.00388229 0.01448889
v 0.00200000 0.00513030 0.01409539
v 0.00200000 0.00633927 0.01359462
v 0.00200000 0.00750000 0.01299038
v 0.00200000 0.00860365 0.01228728
v 0.00200000 0.00964181 0.01149067
v 0.00200000 0.01060660 0.01060660
v 0.00200000 0.01149067 0.00964181
v 0.00200000 0.01228728 0.00860365
v 0.00200000 0.01299038 0.00750000
v 0.00200000 0.01359462 0.00633927
v 0.00200000 0.01409539 0.00513030
v 0.00200000 0.01448889 0.00388229
v 0.00200000 0.01477212 0.00260472
v 0.00200000 0.01494292 0.00130734
v 0.00200000 0.01500000 -0.00000000
v 0.00200000 0.01494292 -0.00130734
v 0.00200000 0.01477212 -0.00260472
v 0.00200000 0.01448889 -0.00388229
v 0.00200000 0.01409539 -0.00513030
v 0.00200000 0.01359462 -0.00633927
v 0.00200000 0.01299038 -0.00750000
v 0.00200000 0.01228728 -0.00860365
v 0.00200000 0.01149067 -0.00964181
v 0.00200000 0.01060660 -0.01060660
v 0.00200000 0.00964181 -0.01149067
v 0.00200000 0.00860365 -0.01228728
v 0.00200000 0.00750000 -0.01299038
v 0.00200000 0.00633927 -0.01359462
v 0.00200000 0.00513030 -0.01409539
v 0.00200000 0.00388229 -0.01448889
v 0.00200000 0.00260472 -0.01477212
v 0.00200000 0.00130734 -0.01494292
v 0.00200000 -0.00000000 -0.01500000
v 0.00200000 -0.00130734 -0.01494292
v 0.00200000 -0.00260472 -0.01477212
v 0.00200000 -0.00388229 -0.01448889
v 0.00200000 -0.00513030 -0.01409539
v 0.00200000 -0.00633927 -0.01359462
v 0.00200000 -0.00750000 -0.01299038
v 0.00200000 -0.00860365 -0.01228728
v 0.00200000 -0.00964181 -0.01149067
v 0.00200000 -0.01060660 -0.01060660
v 0.00200000 -0.01149067 -0.00964181
v 0.00200000 -0.01228728 -0.00860365
v 0.00200000 -0.01299038 -0.00750000
v 0.00200000 -0.01359462 -0.00633927
v 0.00200000 -0.01409539 -0.00513030
v 0.00200000 -0.01448889 -0.00388229
v 0.00200000 -0.01477212 -0.00260472
v 0.00200000 -0.01494292 -0.00130734
v 0.00200000 -0.01500000 0.00000000
v 0.00200000 -0.01494292 0.00130734
v 0.00200000 -0.01477212 0.00260472
v 0.00200000 -0.01448889 0.00388229
v 0.00200000 -0.01409539 0.00513030
v 0.00200000 -0.01359462 0.00633927
v 0.00200000 -0.01299038 0.00750000
v 0.00200000 -0.01228728 0.00860365
v 0.00200000 -0.01149067 0.00964181
v 0.00200000 -0.01060660 0.01060660
v 0.00200000 -0.00964181 0.01149067
v 0.00200000 -0.00860365 0.01228728
v 0.00200000 -0.00750000 0.01299038
v 0.00200000 -0.00633927 0.01359462
v 0.00200000 -0.00513030 0.01409539
v 0.00200000 -0.00388229 0.01448889
v 0.00200000 -0.00260472 0.01477212
v 0.00200000 -0.00130734 0.01494292
v 0.00200000 0.00000000 0.01500000
v 0.00200000 0.00130734 0.01494292
f 1 2 3
f 2 4 3
f 3 4 5
f 6 7 8
f 9 10 11
f 10 12 11
f 8 13 14
f 15 16 17
f 16 18 17
f 17 18 12
f 18 19 12
f 12 19 11
f 20 21 22
f 23 24 25
f 24 26 25
f 26 27 25
f 27 28 25
f 25 28 29
f 14 30 8
f 30 31 8
f 8 31 6
f 32 33 34
f 35 36 37
f 38 39 8
f 39 40 8
f 8 40 13
f 38 41 39
f 41 42 39
f 39 42 43
f 1 3 43
f 3 44 43
f 43 44 39
f 45 46 47
f 46 10 47
f 47 10 48
f 10 9 48
f 32 34 49
f 50 51 52
f 7 53 8
f 53 54 8
f 8 54 55
f 45 56 46
f 56 57 46
f 46 57 32
f 57 58 32
f 32 58 33
f 37 36 59
f 60 61 62
f 17 63 64
f 65 66 17
f 66 67 17
f 17 67 15
f 68 69 70
f 69 71 70
f 71 72 70
f 72 73 70
f 70 73 74
f 75 76 25
f 76 77 25
f 25 77 23
f 55 78 8
f 78 79 8
f 8 79 17
f 79 80 17
f 17 80 63
f 64 81 17
f 81 82 17
f 17 82 65
f 29 83 25
f 83 84 25
f 25 84 85
f 84 86 85
f 85 86 87
f 88 85 89
f 85 90 89
f 88 91 85
f 91 92 85
f 85 92 93
f 94 95 96
f 95 97 96
f 98 99 100
f 99 101 100
f 100 101 102
f 52 51 21
f 51 103 21
f 21 103 104
f 104 105 21
f 105 106 21
f 21 106 98
f 36 107 108
f 34 109 49
f 109 110 49
f 49 110 111
f 110 112 111
f 62 61 113
f 87 114 85
f 114 115 85
f 85 115 90
f 116 117 118
f 98 100 21
f 100 119 21
f 21 119 22
f 35 37 120
f 37 121 120
f 120 121 22
f 121 122 22
f 22 122 20
f 108 123 36
f 123 124 36
f 36 124 125
f 61 126 113
f 126 127 113
f 113 127 25
f 127 128 25
f 25 128 75
f 93 129 85
f 129 116 85
f 85 116 130
f 116 118 130
f 5 4 131
f 4 132 131
f 131 132 133
f 132 134 133
f 133 134 135
f 134 136 135
f 135 136 137
f 136 138 137
f 137 138 139
f 138 140 139
f 139 140 141
f 140 142 141
f 141 142 143
f 142 144 143
f 143 144 52
f 144 145 52
f 52 145 50
f 112 146 111
f 146 147 111
f 111 147 148
f 149 150 151
f 150 152 151
f 151 152 68
f 152 153 68
f 68 153 69
f 94 96 154
f 96 155 154
f 154 155 156
f 155 157 156
f 156 157 158
f 157 159 158
f 158 159 160
f 159 161 160
f 160 161 162
f 161 163 162
f 162 163 164
f 163 165 164
f 164 165 116
f 165 166 116
f 116 166 117
f 97 95 167
f 95 168 167
f 167 168 101
f 168 169 101
f 101 169 102
f 125 170 36
f 170 171 36
f 36 171 172
f 107 36 173
f 36 174 173
f 173 174 175
f 73 176 74
f 176 177 74
f 74 177 178
f 177 179 178
f 180 181 182
f 181 178 182
f 182 178 183
f 178 179 183
f 180 184 181
f 184 185 181
f 181 185 62
f 185 186 62
f 62 186 60
f 172 187 36
f 187 188 36
f 36 188 189
f 189 190 36
f 190 191 36
f 36 191 59
f 148 173 111
f 173 175 111
f 111 175 192
f 175 193 192
f 192 193 194
f 193 195 194
f 194 195 196
f 195 197 196
f 196 197 198
f 197 199 198
f 198 199 200
f 199 201 200
f 200 201 202
f 201 203 202
f 202 203 204
f 203 205 204
f 204 205 206
f 205 207 206
f 206 207 149
f 207 208 149
f 149 208 150
f 209 210 211
f 210 212 211
f 211 212 213
f 214 215 216
f 215 217 216
f 216 217 218
f 219 220 221
f 220 222 221
f 221 222 223
f 209 224 210
f 224 225 210
f 210 225 219
f 225 226 219
f 219 226 220
f 223 227 221
f 227 228 221
f 221 228 229
f 229 230 221
f 230 231 221
f 221 231 232
f 233 234 235
f 236 237 238
f 239 240 241
f 240 242 241
f 242 243 241
f 243 244 241
f 241 244 212
f 244 245 212
f 212 245 213
f 234 246 235
f 246 247 235
f 235 247 248
f 247 249 248
f 248 249 218
f 249 250 218
f 218 250 216
f 250 251 216
f 216 251 252
f 232 253 221
f 253 254 221
f 221 254 255
f 256 257 258
f 257 259 258
f 258 259 260
f 261 262 25
f 262 263 25
f 263 264 25
f 25 264 265
f 266 267 268
f 267 269 268
f 269 270 268
f 270 271 268
f 268 271 239
f 271 272 239
f 239 272 240
f 273 274 216
f 274 275 216
f 216 275 214
f 235 276 233
f 276 277 233
f 233 277 278
f 277 279 278
f 278 279 280
f 279 281 280
f 280 281 238
f 281 282 238
f 238 282 236
f 85 283 258
f 283 284 258
f 258 284 256
f 258 285 85
f 285 286 85
f 85 286 25
f 286 287 25
f 25 287 261
f 288 289 216
f 289 290 216
f 216 290 273
f 237 236 291
f 236 292 291
f 291 292 259
f 292 293 259
f 259 293 260
f 255 294 221
f 294 295 221
f 221 295 216
f 295 296 216
f 216 296 288
f 265 264 297
f 264 298 297
f 297 298 299
f 298 300 299
f 299 300 301
f 300 302 301
f 301 302 303
f 302 304 303
f 303 304 305
f 304 306 305
f 305 306 307
f 306 308 307
f 307 308 309
f 308 310 309
f 309 310 311
f 310 312 311
f 311 312 313
f 312 314 313
f 314 315 313
f 313 315 316
f 315 317 316
f 316 317 266
f 317 318 266
f 266 318 267
f 216 319 320
f 321 216 322
f 216 323 322
f 320 324 216
f 324 325 216
f 216 325 323
f 321 326 216
f 326 327 216
f 216 327 328
f 328 329 216
f 329 330 216
f 216 330 221
f 331 332 216
f 333 334 335
f 334 336 335
f 335 336 337
f 338 339 319
f 333 340 334
f 340 341 334
f 334 341 342
f 343 344 8
f 332 345 216
f 345 346 216
f 216 346 347
f 347 348 216
f 348 349 216
f 216 349 319
f 349 350 319
f 350 351 319
f 319 351 352
f 353 354 319
f 354 355 319
f 319 355 338
f 339 356 319
f 356 357 319
f 319 357 358
f 357 359 358
f 359 360 358
f 358 360 361
f 360 362 361
f 362 363 361
f 363 364 361
f 361 364 336
f 364 365 336
f 336 365 337
f 216 366 367
f 352 368 319
f 368 369 319
f 319 369 353
f 341 370 342
f 370 371 342
f 342 371 372
f 371 373 372
f 373 374 372
f 374 375 372
f 372 375 376
f 367 377 216
f 377 378 216
f 216 378 331
f 379 380 17
f 380 381 17
f 17 381 8
f 381 382 8
f 8 382 343
f 375 383 376
f 383 384 376
f 376 384 385
f 384 386 385
f 385 386 387
f 388 389 390
f 389 391 390
f 390 391 344
f 391 392 344
f 344 392 8
f 252 393 216
f 393 394 216
f 216 394 366
f 394 395 366
f 366 395 396
f 397 398 396
f 398 399 396
f 396 399 366
f 396 400 397
f 400 401 397
f 397 401 402
f 388 390 403
f 390 404 403
f 403 404 405
f 404 406 405
f 405 406 407
f 406 408 407
f 407 408 409
f 408 410 409
f 409 410 411
f 410 412 411
f 411 412 413
f 412 414 413
f 413 414 415
f 414 416 415
f 415 416 402
f 416 417 402
f 402 417 397
f 386 418 387
f 418 419 387
f 387 419 420
f 419 421 420
f 420 421 422
f 421 423 422
f 422 423 424
f 423 425 424
f 424 425 426
f 425 427 426
f 426 427 428
f 427 429 428
f 428 429 430
f 429 431 430
f 430 431 432
f 431 433 432
f 432 433 434
f 433 435 434
f 434 435 436
f 435 437 436
f 436 437 17
f 437 438 17
f 17 438 379
f 439 440 441
f 440 442 441
f 441 442 443
f 442 444 443
f 443 444 445
f 444 446 445
f 445 446 447
f 446 448 447
f 447 448 449
f 448 450 449
f 449 450 451
f 450 452 451
f 451 452 453
f 452 454 453
f 453 454 455
f 454 456 455
f 455 456 457
f 456 458 457
f 457 458 459
f 458 460 459
f 459 460 461
f 460 462 461
f 461 462 463
f 462 464 463
f 463 464 465
f 464 466 465
f 465 466 467
f 466 468 467
f 467 468 469
f 468 470 469
f 469 470 471
f 470 472 471
f 471 472 473
f 472 474 473
f 473 474 475
f 474 476 475
f 475 476 477
f 476 478 477
f 477 478 479
f 478 480 479
f 479 480 481
f 480 482 481
f 481 482 483
f 482 484 483
f 483 484 485
f 484 486 485
f 485 486 487
f 486 488 487
f 487 488 489
f 488 490 489
f 489 490 491
f 490 492 491
f 491 492 493
f 492 494 493
f 493 494 495
f 494 496 495
f 495 496 497
f 496 498 497
f 497 498 499
f 498 500 499
f 499 500 501
f 500 502 501
f 501 502 503
f 502 504 503
f 503 504 505
f 504 506 505
f 505 506 507
f 506 508 507
f 507 508 509
f 508 510 509
f 509 510 511
f 510 512 511
f 511 512 513
f 512 514 513
f 513 514 515
f 514 516 515
f 515 516 517
f 516 518 517
f 517 518 519
f 518 520 519
f 519 520 521
f 520 522 521
f 521 522 523
f 522 524 523
f 523 524 525
f 524 526 525
f 525 526 527
f 526 528 527
f 527 528 529
f 528 530 529
f 529 530 531
f 530 532 531
f 531 532 533
f 532 534 533
f 533 534 535
f 534 536 535
f 535 536 537
f 536 538 537
f 538 539 537
f 537 539 540
f 539 541 540
f 540 541 542
f 541 543 542
f 542 543 544
f 543 545 544
f 544 545 546
f 545 547 546
f 546 547 548
f 547 549 548
f 548 549 550
f 549 551 550
f 550 551 552
f 551 553 552
f 552 553 554
f 553 555 554
f 554 555 556
f 555 557 556
f 556 557 558
f 557 559 558
f 558 559 560
f 559 561 560
f 560 561 562
f 561 563 562
f 562 563 564
f 563 565 564
f 564 565 566
f 565 567 566
f 566 567 568
f 567 569 568
f 568 569 570
f 569 571 570
f 570 571 572
f 571 573 572
f 572 573 574
f 573 575 574
f 574 575 576
f 575 577 576
f 576 577 578
f 577 579 578
f 578 579 580
f 579 581 580
f 580 581 582
f 581 583 582
f 582 583 439
f 583 584 439
f 439 584 440
f 585 586 543
f 587 588 589
f 573 590 575
f 590 591 575
f 541 592 593
f 543 586 545
f 594 589 595
f 596 571 597
f 571 569 597
f 541 593 543
f 593 598 543
f 543 598 585
f 591 599 575
f 599 600 575
f 575 600 577
f 600 601 577
f 596 602 571
f 602 603 571
f 571 603 573
f 603 604 573
f 573 604 590
f 605 606 607
f 608 539 609
f 539 538 609
f 609 538 610
f 565 611 567
f 611 612 567
f 567 612 569
f 612 613 569
f 569 613 597
f 588 614 589
f 614 615 589
f 589 615 595
f 608 616 539
f 616 617 539
f 539 617 541
f 617 618 541
f 541 618 592
f 601 619 577
f 619 620 577
f 577 620 579
f 620 621 579
f 621 622 579
f 622 623 579
f 579 623 581
f 623 624 581
f 624 625 581
f 581 625 583
f 625 626 583
f 626 627 583
f 627 628 583
f 583 628 629
f 586 630 545
f 630 631 545
f 545 631 547
f 631 632 547
f 547 632 633
f 634 635 595
f 635 636 595
f 595 636 594
f 637 638 639
f 607 606 640
f 629 641 583
f 641 642 583
f 583 642 643
f 644 645 646
f 645 647 646
f 639 638 648
f 649 650 651
f 650 652 651
f 651 652 653
f 654 655 656
f 655 657 656
f 656 657 658
f 659 660 661
f 643 662 583
f 662 663 583
f 583 663 664
f 665 666 667
f 666 634 667
f 667 634 668
f 634 595 668
f 669 670 671
f 648 672 639
f 672 673 639
f 639 673 674
f 654 656 606
f 656 675 606
f 606 675 640
f 676 677 536
f 677 678 536
f 610 538 679
f 538 536 679
f 679 536 680
f 633 681 547
f 681 682 547
f 547 682 683
f 660 684 661
f 684 685 661
f 661 685 686
f 547 661 549
f 661 687 549
f 549 687 551
f 687 688 551
f 551 688 553
f 688 689 553
f 553 689 555
f 689 690 555
f 555 690 557
f 690 691 557
f 557 691 559
f 691 692 559
f 559 692 561
f 692 693 561
f 561 693 563
f 693 694 563
f 563 694 565
f 694 695 565
f 565 695 611
f 696 589 697
f 589 583 697
f 697 583 698
f 583 664 698
f 696 699 589
f 699 700 589
f 589 700 701
f 702 703 665
f 703 704 665
f 665 704 666
f 705 706 707
f 638 708 648
f 708 709 648
f 648 709 710
f 709 711 710
f 710 711 712
f 607 713 605
f 713 714 605
f 605 714 715
f 678 716 536
f 716 717 536
f 536 717 718
f 718 719 536
f 719 720 536
f 536 720 680
f 644 646 685
f 646 721 685
f 685 721 686
f 701 722 589
f 722 723 589
f 589 723 587
f 665 724 702
f 724 725 702
f 702 725 726
f 725 727 726
f 726 727 728
f 727 729 728
f 728 729 730
f 729 731 730
f 730 731 671
f 731 732 671
f 671 732 669
f 683 733 547
f 733 734 547
f 547 734 735
f 735 736 547
f 736 737 547
f 547 737 661
f 737 738 661
f 661 738 659
f 674 739 639
f 739 740 639
f 639 740 707
f 740 741 707
f 707 741 705
f 670 669 706
f 669 742 706
f 706 742 707
f 639 743 637
f 743 744 637
f 637 744 745
f 744 746 745
f 745 746 747
f 746 646 747
f 747 646 748
f 646 647 748
f 712 711 749
f 711 750 749
f 749 750 751
f 750 752 751
f 751 752 753
f 752 754 753
f 753 754 755
f 754 756 755
f 755 756 652
f 756 757 652
f 652 757 653
f 649 651 715
f 651 758 715
f 715 758 605
f 658 759 656
f 759 760 656
f 656 760 761
f 761 762 656
f 762 763 656
f 656 763 764
f 764 765 656
f 765 766 656
f 656 766 536
f 766 767 536
f 536 767 676
f 589 768 769
f 768 770 769
f 769 770 771
f 772 773 774
f 774 775 772
f 775 776 772
f 772 776 777
f 778 779 462
f 779 780 462
f 462 780 464
f 773 772 771
f 772 781 771
f 771 781 769
f 474 472 782
f 783 466 784
f 466 464 784
f 784 464 785
f 464 780 785
f 782 786 474
f 786 787 474
f 474 787 788
f 788 789 474
f 789 790 474
f 474 790 791
f 792 793 794
f 793 795 794
f 769 796 589
f 796 797 589
f 589 797 583
f 797 798 583
f 583 798 799
f 799 800 583
f 800 801 583
f 583 801 802
f 778 462 803
f 462 460 803
f 803 460 804
f 783 805 466
f 805 806 466
f 466 806 468
f 806 807 468
f 807 808 468
f 808 809 468
f 468 809 470
f 809 810 470
f 810 811 470
f 811 812 470
f 470 812 472
f 812 813 472
f 472 813 782
f 804 460 814
f 460 458 814
f 814 458 815
f 458 456 815
f 815 456 816
f 817 818 793
f 818 819 793
f 793 819 820
f 820 821 793
f 821 822 793
f 793 822 823
f 823 824 793
f 824 825 793
f 793 825 795
f 792 826 827
f 792 828 826
f 828 829 826
f 826 829 830
f 829 831 830
f 830 831 832
f 831 833 832
f 832 833 834
f 833 835 834
f 834 835 836
f 835 837 836
f 836 837 838
f 837 839 838
f 838 839 776
f 839 840 776
f 776 840 777
f 841 793 842
f 793 792 842
f 842 792 843
f 792 827 843
f 816 456 844
f 456 454 844
f 844 454 845
f 454 452 845
f 845 452 846
f 452 450 846
f 846 450 847
f 450 448 847
f 847 448 848
f 448 446 848
f 848 446 849
f 446 444 849
f 849 444 850
f 444 442 850
f 850 442 851
f 442 440 851
f 851 440 802
f 440 584 802
f 802 584 583
f 791 852 474
f 852 853 474
f 474 853 854
f 854 855 474
f 855 856 474
f 474 856 857
f 480 478 793
f 498 496 793
f 496 494 793
f 793 494 492
f 857 817 474
f 817 793 474
f 474 793 476
f 793 478 476
f 492 490 793
f 490 488 793
f 793 488 486
f 486 484 793
f 484 482 793
f 793 482 480
f 858 859 498
f 859 860 498
f 860 861 498
f 861 862 498
f 498 862 500
f 863 864 536
f 864 865 536
f 536 865 656
f 865 866 656
f 867 510 868
f 510 508 868
f 868 508 869
f 867 870 510
f 870 871 510
f 510 871 512
f 872 873 874
f 873 875 874
f 874 875 876
f 877 878 879
f 880 881 793
f 882 502 883
f 502 500 883
f 883 500 884
f 500 862 884
f 871 885 512
f 885 886 512
f 512 886 514
f 886 887 514
f 514 887 516
f 866 888 656
f 888 874 656
f 656 874 889
f 874 876 889
f 890 891 892
f 841 893 793
f 893 894 793
f 793 894 877
f 882 895 502
f 895 896 502
f 502 896 504
f 896 897 504
f 887 898 516
f 898 899 516
f 516 899 518
f 899 900 518
f 518 900 520
f 900 901 520
f 520 901 522
f 901 902 522
f 522 902 524
f 902 903 524
f 524 903 526
f 903 904 526
f 526 904 528
f 904 905 528
f 528 905 530
f 905 906 530
f 530 906 532
f 906 907 532
f 532 907 534
f 907 908 534
f 534 908 536
f 908 909 536
f 536 909 863
f 891 890 910
f 877 879 793
f 879 911 793
f 793 911 880
f 881 912 793
f 912 913 793
f 793 913 914
f 869 508 915
f 508 506 915
f 915 506 916
f 874 917 872
f 917 918 872
f 872 918 919
f 918 920 919
f 919 920 921
f 920 922 921
f 921 922 923
f 922 924 923
f 923 924 925
f 924 926 925
f 925 926 927
f 926 928 927
f 927 928 892
f 928 929 892
f 892 929 890
f 878 930 879
f 930 931 879
f 879 931 932
f 931 910 932
f 932 910 933
f 910 890 933
f 914 934 793
f 934 935 793
f 793 935 936
f 897 937 504
f 937 938 504
f 504 938 506
f 938 939 506
f 506 939 916
f 936 940 793
f 940 941 793
f 793 941 498
f 941 942 498
f 498 942 943
f 943 944 498
f 944 945 498
f 498 945 946
f 946 947 498
f 947 948 498
f 498 948 858
f 949 950 951
f 950 952 951
f 951 952 953
f 952 954 953
f 953 954 955
f 954 956 955
f 955 956 957
f 956 958 957
f 957 958 959
f 958 960 959
f 959 960 961
f 960 962 961
f 961 962 963
f 962 964 963
f 963 964 965
f 964 966 965
f 965 966 967
f 966 968 967
f 967 968 969
f 968 970 969
f 969 970 971
f 970 972 971
f 971 972 973
f 972 974 973
f 973 974 975
f 974 976 975
f 975 976 977
f 976 978 977
f 977 978 979
f 978 980 979
f 979 980 981
f 980 982 981
f 981 982 983
f 982 984 983
f 983 984 985
f 984 986 985
f 985 986 987
f 986 988 987
f 987 988 989
f 988 990 989
f 989 990 991
f 990 992 991
f 991 992 993
f 992 994 993
f 993 994 995
f 994 996 995
f 995 996 997
f 996 998 997
f 997 998 999
f 998 1000 999
f 999 1000 1001
f 1000 1002 1001
f 1001 1002 1003
f 1002 1004 1003
f 1003 1004 1005
f 1004 1006 1005
f 1005 1006 1007
f 1006 1008 1007
f 1007 1008 1009
f 1008 1010 1009
f 1009 1010 1011
f 1010 1012 1011
f 1011 1012 1013
f 1012 1014 1013
f 1013 1014 1015
f 1014 1016 1015
f 1015 1016 1017
f 1016 1018 1017
f 1017 1018 1019
f 1018 1020 1019
f 1019 1020 1021
f 1020 1022 1021
f 1021 1022 1023
f 1022 1024 1023
f 1023 1024 1025
f 1024 1026 1025
f 1025 1026 1027
f 1026 1028 1027
f 1027 1028 1029
f 1028 1030 1029
f 1029 1030 1031
f 1030 1032 1031
f 1031 1032 1033
f 1032 1034 1033
f 1033 1034 1035
f 1034 1036 1035
f 1035 1036 1037
f 1036 1038 1037
f 1037 1038 1039
f 1038 1040 1039
f 1039 1040 1041
f 1040 1042 1041
f 1041 1042 1043
f 1042 1044 1043
f 1043 1044 1045
f 1044 1046 1045
f 1045 1046 1047
f 1046 1048 1047
f 1047 1048 1049
f 1048 1050 1049
f 1049 1050 1051
f 1050 1052 1051
f 1051 1052 1053
f 1052 1054 1053
f 1053 1054 1055
f 1054 1056 1055
f 1055 1056 1057
f 1056 1058 1057
f 1057 1058 1059
f 1058 1060 1059
f 1059 1060 1061
f 1060 1062 1061
f 1061 1062 1063
f 1062 1064 1063
f 1063 1064 1065
f 1064 1066 1065
f 1065 1066 1067
f 1066 1068 1067
f 1067 1068 1069
f 1068 1070 1069
f 1069 1070 1071
f 1070 1072 1071
f 1071 1072 1073
f 1072 1074 1073
f 1073 1074 1075
f 1074 1076 1075
f 1075 1076 1077
f 1076 1078 1077
f 1077 1078 1079
f 1078 1080 1079
f 1079 1080 1081
f 1080 1082 1081
f 1081 1082 1083
f 1082 1084 1083
f 1083 1084 1085
f 1084 1086 1085
f 1085 1086 1087
f 1086 1088 1087
f 1087 1088 1089
f 1088 1090 1089
f 1089 1090 1091
f 1090 1092 1091
f 1091 1092 949
f 1092 950 949
f 529 997 527
f 997 999 527
f 527 999 525
f 999 1001 525
f 525 1001 523
f 1001 1003 523
f 523 1003 521
f 1003 1005 521
f 521 1005 519
f 1005 1007 519
f 519 1007 517
f 1007 1009 517
f 517 1009 515
f 1009 1011 515
f 515 1011 513
f 1011 1013 513
f 513 1013 511
f 1013 1015 511
f 511 1015 509
f 1015 1017 509
f 509 1017 507
f 1017 1019 507
f 507 1019 505
f 1019 1021 505
f 505 1021 503
f 1021 1023 503
f 503 1023 501
f 1023 1025 501
f 501 1025 499
f 1025 1027 499
f 499 1027 497
f 1027 1029 497
f 497 1029 495
f 1029 1031 495
f 495 1031 493
f 1031 1033 493
f 493 1033 491
f 1033 1035 491
f 491 1035 489
f 1035 1037 489
f 489 1037 487
f 1037 1039 487
f 487 1039 485
f 1039 1041 485
f 485 1041 483
f 1041 1043 483
f 483 1043 481
f 1043 1045 481
f 481 1045 479
f 1045 1047 479
f 479 1047 477
f 1047 1049 477
f 477 1049 475
f 1049 1051 475
f 475 1051 473
f 1051 1053 473
f 473 1053 471
f 1053 1055 471
f 471 1055 469
f 1055 1057 469
f 469 1057 467
f 1057 1059 467
f 467 1059 465
f 1059 1061 465
f 465 1061 463
f 1061 1063 463
f 463 1063 461
f 1063 1065 461
f 461 1065 459
f 1065 1067 459
f 459 1067 457
f 1067 1069 457
f 457 1069 455
f 1069 1071 455
f 455 1071 453
f 1071 1073 453
f 453 1073 451
f 1073 1075 451
f 451 1075 449
f 1075 1077 449
f 449 1077 447
f 1077 1079 447
f 447 1079 445
f 1079 1081 445
f 445 1081 443
f 1081 1083 443
f 443 1083 441
f 1083 1085 441
f 441 1085 439
f 1085 1087 439
f 439 1087 582
f 1087 1089 582
f 582 1089 580
f 1089 1091 580
f 580 1091 578
f 1091 949 578
f 578 949 576
f 949 951 576
f 576 951 574
f 951 953 574
f 574 953 572
f 953 955 572
f 572 955 570
f 955 957 570
f 570 957 568
f 957 959 568
f 568 959 566
f 959 961 566
f 566 961 564
f 961 963 564
f 564 963 562
f 963 965 562
f 562 965 560
f 965 967 560
f 560 967 558
f 967 969 558
f 558 969 556
f 969 971 556
f 556 971 554
f 971 973 554
f 554 973 552
f 973 975 552
f 552 975 550
f 975 977 550
f 550 977 548
f 977 979 548
f 548 979 546
f 979 981 546
f 546 981 544
f 981 983 544
f 544 983 542
f 983 985 542
f 542 985 540
f 985 987 540
f 540 987 537
f 987 989 537
f 537 989 535
f 989 991 535
f 535 991 533
f 991 993 533
f 533 993 531
f 993 995 531
f 531 995 529
f 995 997 529
f 619 337 620
f 337 365 620
f 620 365 621
f 365 364 621
f 621 364 622
f 364 363 622
f 622 363 623
f 363 362 623
f 623 362 624
f 362 360 624
f 624 360 625
f 360 359 625
f 625 359 626
f 359 357 626
f 626 357 627
f 357 356 627
f 627 356 628
f 356 339 628
f 628 339 629
f 339 338 629
f 629 338 641
f 338 355 641
f 641 355 642
f 355 354 642
f 642 354 643
f 354 353 643
f 643 353 662
f 353 369 662
f 662 369 663
f 369 368 663
f 663 368 664
f 368 352 664
f 664 352 698
f 352 351 698
f 698 351 697
f 351 350 697
f 697 350 696
f 350 349 696
f 696 349 699
f 349 348 699
f 699 348 700
f 348 347 700
f 700 347 701
f 347 346 701
f 701 346 722
f 346 345 722
f 722 345 723
f 345 332 723
f 723 332 587
f 332 331 587
f 587 331 588
f 331 378 588
f 588 378 614
f 378 377 614
f 614 377 615
f 377 367 615
f 615 367 595
f 367 366 595
f 595 366 668
f 366 399 668
f 668 399 667
f 399 398 667
f 667 398 665
f 398 397 665
f 665 397 724
f 397 417 724
f 724 417 725
f 417 416 725
f 725 416 727
f 416 414 727
f 727 414 729
f 414 412 729
f 729 412 731
f 412 410 731
f 731 410 732
f 410 408 732
f 732 408 669
f 408 406 669
f 669 406 742
f 406 404 742
f 742 404 707
f 404 390 707
f 707 390 639
f 390 344 639
f 639 344 743
f 344 343 743
f 743 343 744
f 343 382 744
f 744 382 746
f 382 381 746
f 746 381 646
f 381 380 646
f 646 380 721
f 380 379 721
f 721 379 686
f 379 438 686
f 686 438 661
f 438 437 661
f 661 437 687
f 437 435 687
f 687 435 688
f 435 433 688
f 688 433 689
f 433 431 689
f 689 431 690
f 431 429 690
f 690 429 691
f 429 427 691
f 691 427 692
f 427 425 692
f 692 425 693
f 425 423 693
f 693 423 694
f 423 421 694
f 694 421 695
f 421 419 695
f 695 419 611
f 419 418 611
f 611 418 612
f 418 386 612
f 612 386 613
f 386 384 613
f 613 384 597
f 384 383 597
f 597 383 596
f 383 375 596
f 596 375 602
f 375 374 602
f 602 374 603
f 374 373 603
f 603 373 604
f 373 371 604
f 604 371 590
f 371 370 590
f 590 370 591
f 370 341 591
f 591 341 599
f 341 340 599
f 599 340 600
f 340 333 600
f 600 333 601
f 333 335 601
f 601 335 619
f 335 337 619
f 926 154 928
f 154 156 928
f 928 156 929
f 156 158 929
f 929 158 890
f 158 160 890
f 890 160 933
f 160 162 933
f 933 162 932
f 162 164 932
f 932 164 879
f 164 116 879
f 879 116 911
f 116 129 911
f 911 129 880
f 129 93 880
f 880 93 881
f 93 92 881
f 881 92 912
f 92 91 912
f 912 91 913
f 91 88 913
f 913 88 914
f 88 89 914
f 914 89 934
f 89 90 934
f 934 90 935
f 90 115 935
f 935 115 936
f 115 114 936
f 936 114 940
f 114 87 940
f 940 87 941
f 87 86 941
f 941 86 942
f 86 84 942
f 942 84 943
f 84 83 943
f 943 83 944
f 83 29 944
f 944 29 945
f 29 28 945
f 945 28 946
f 28 27 946
f 946 27 947
f 27 26 947
f 947 26 948
f 26 24 948
f 948 24 858
f 24 23 858
f 858 23 859
f 23 77 859
f 859 77 860
f 77 76 860
f 860 76 861
f 76 75 861
f 861 75 862
f 75 128 862
f 862 128 884
f 128 127 884
f 884 127 883
f 127 126 883
f 883 126 882
f 126 61 882
f 882 61 895
f 61 60 895
f 895 60 896
f 60 186 896
f 896 186 897
f 186 185 897
f 897 185 937
f 185 184 937
f 937 184 938
f 184 180 938
f 938 180 939
f 180 182 939
f 939 182 916
f 182 183 916
f 916 183 915
f 183 179 915
f 915 179 869
f 179 177 869
f 869 177 868
f 177 176 868
f 868 176 867
f 176 73 867
f 867 73 870
f 73 72 870
f 870 72 871
f 72 71 871
f 871 71 885
f 71 69 885
f 885 69 886
f 69 153 886
f 886 153 887
f 153 152 887
f 887 152 898
f 152 150 898
f 898 150 899
f 150 208 899
f 899 208 900
f 208 207 900
f 900 207 901
f 207 205 901
f 901 205 902
f 205 203 902
f 902 203 903
f 203 201 903
f 903 201 904
f 201 199 904
f 904 199 905
f 199 197 905
f 905 197 906
f 197 195 906
f 906 195 907
f 195 193 907
f 907 193 908
f 193 175 908
f 908 175 909
f 175 174 909
f 909 174 863
f 174 36 863
f 863 36 864
f 36 35 864
f 864 35 865
f 35 120 865
f 865 120 866
f 120 22 866
f 866 22 888
f 22 119 888
f 888 119 874
f 119 100 874
f 874 100 917
f 100 102 917
f 917 102 918
f 102 169 918
f 918 169 920
f 169 168 920
f 920 168 922
f 168 95 922
f 922 95 924
f 95 94 924
f 924 94 926
f 94 154 926
f 847 294 846
f 294 255 846
f 846 255 845
f 255 254 845
f 845 254 844
f 254 253 844
f 844 253 816
f 253 232 816
f 816 232 815
f 232 231 815
f 815 231 814
f 231 230 814
f 814 230 804
f 230 229 804
f 804 229 803
f 229 228 803
f 803 228 778
f 228 227 778
f 778 227 779
f 227 223 779
f 779 223 780
f 223 222 780
f 780 222 785
f 222 220 785
f 785 220 784
f 220 226 784
f 784 226 783
f 226 225 783
f 783 225 805
f 225 224 805
f 805 224 806
f 224 209 806
f 806 209 807
f 209 211 807
f 807 211 808
f 211 213 808
f 808 213 809
f 213 245 809
f 809 245 810
f 245 244 810
f 810 244 811
f 244 243 811
f 811 243 812
f 243 242 812
f 812 242 813
f 242 240 813
f 813 240 782
f 240 272 782
f 782 272 786
f 272 271 786
f 786 271 787
f 271 270 787
f 787 270 788
f 270 269 788
f 788 269 789
f 269 267 789
f 789 267 790
f 267 318 790
f 790 318 791
f 318 317 791
f 791 317 852
f 317 315 852
f 852 315 853
f 315 314 853
f 853 314 854
f 314 312 854
f 854 312 855
f 312 310 855
f 855 310 856
f 310 308 856
f 856 308 857
f 308 306 857
f 857 306 817
f 306 304 817
f 817 304 818
f 304 302 818
f 818 302 819
f 302 300 819
f 819 300 820
f 300 298 820
f 820 298 821
f 298 264 821
f 821 264 822
f 264 263 822
f 822 263 823
f 263 262 823
f 823 262 824
f 262 261 824
f 824 261 825
f 261 287 825
f 825 287 795
f 287 286 795
f 795 286 794
f 286 285 794
f 794 285 792
f 285 258 792
f 792 258 828
f 258 260 828
f 828 260 829
f 260 293 829
f 829 293 831
f 293 292 831
f 831 292 833
f 292 236 833
f 833 236 835
f 236 282 835
f 835 282 837
f 282 281 837
f 837 281 839
f 281 279 839
f 839 279 840
f 279 277 840
f 840 277 777
f 277 276 777
f 777 276 772
f 276 235 772
f 772 235 781
f 235 248 781
f 781 248 769
f 248 218 769
f 769 218 796
f 218 217 796
f 796 217 797
f 217 215 797
f 797 215 798
f 215 214 798
f 798 214 799
f 214 275 799
f 799 275 800
f 275 274 800
f 800 274 801
f 274 273 801
f 801 273 802
f 273 290 802
f 802 290 851
f 290 289 851
f 851 289 850
f 289 288 850
f 850 288 849
f 288 296 849
f 849 296 848
f 296 295 848
f 848 295 847
f 295 294 847
f 659 79 660
f 79 78 660
f 660 78 684
f 78 55 684
f 684 55 685
f 55 54 685
f 685 54 644
f 54 53 644
f 644 53 645
f 53 7 645
f 645 7 647
f 7 6 647
f 647 6 748
f 6 31 748
f 748 31 747
f 31 30 747
f 747 30 745
f 30 14 745
f 745 14 637
f 14 13 637
f 637 13 638
f 13 40 638
f 638 40 708
f 40 39 708
f 708 39 709
f 39 44 709
f 709 44 711
f 44 3 711
f 711 3 750
f 3 5 750
f 750 5 752
f 5 131 752
f 752 131 754
f 131 133 754
f 754 133 756
f 133 135 756
f 756 135 757
f 135 137 757
f 757 137 653
f 137 139 653
f 653 139 651
f 139 141 651
f 651 141 758
f 141 143 758
f 758 143 605
f 143 52 605
f 605 52 606
f 52 21 606
f 606 21 654
f 21 20 654
f 654 20 655
f 20 122 655
f 655 122 657
f 122 121 657
f 657 121 658
f 121 37 658
f 658 37 759
f 37 59 759
f 759 59 760
f 59 191 760
f 760 191 761
f 191 190 761
f 761 190 762
f 190 189 762
f 762 189 763
f 189 188 763
f 763 188 764
f 188 187 764
f 764 187 765
f 187 172 765
f 765 172 766
f 172 171 766
f 766 171 767
f 171 170 767
f 767 170 676
f 170 125 676
f 676 125 677
f 125 124 677
f 677 124 678
f 124 123 678
f 678 123 716
f 123 108 716
f 716 108 717
f 108 107 717
f 717 107 718
f 107 173 718
f 718 173 719
f 173 148 719
f 719 148 720
f 148 147 720
f 720 147 680
f 147 146 680
f 680 146 679
f 146 112 679
f 679 112 610
f 112 110 610
f 610 110 609
f 110 109 609
f 609 109 608
f 109 34 608
f 608 34 616
f 34 33 616
f 616 33 617
f 33 58 617
f 617 58 618
f 58 57 618
f 618 57 592
f 57 56 592
f 592 56 593
f 56 45 593
f 593 45 598
f 45 47 598
f 598 47 585
f 47 48 585
f 585 48 586
f 48 9 586
f 586 9 630
f 9 11 630
f 630 11 631
f 11 19 631
f 631 19 632
f 19 18 632
f 632 18 633
f 18 16 633
f 633 16 681
f 16 15 681
f 681 15 682
f 15 67 682
f 682 67 683
f 67 66 683
f 683 66 733
f 66 65 733
f 733 65 734
f 65 82 734
f 734 82 735
f 82 81 735
f 735 81 736
f 81 64 736
f 736 64 737
f 64 63 737
f 737 63 738
f 63 80 738
f 738 80 659
f 80 79 659
f 1093 1094 1095
f 1094 1096 1095
f 1095 1096 1097
f 1096 1098 1097
f 1097 1098 1099
f 1098 1100 1099
f 1099 1100 1101
f 1100 1102 1101
f 1101 1102 1103
f 1102 1104 1103
f 1103 1104 1105
f 1104 1106 1105
f 1105 1106 1107
f 1106 1108 1107
f 1107 1108 1109
f 1108 1110 1109
f 1109 1110 1111
f 1110 1112 1111
f 1111 1112 1113
f 1112 1114 1113
f 1113 1114 1115
f 1114 1116 1115
f 1115 1116 1117
f 1116 1118 1117
f 1117 1118 1119
f 1118 1120 1119
f 1119 1120 1121
f 1120 1122 1121
f 1121 1122 1123
f 1122 1124 1123
f 1123 1124 1125
f 1124 1126 1125
f 1125 1126 1127
f 1126 1128 1127
f 1127 1128 1129
f 1128 1130 1129
f 1129 1130 1131
f 1130 1132 1131
f 1131 1132 1133
f 1132 1134 1133
f 1133 1134 1135
f 1134 1136 1135
f 1135 1136 1137
f 1136 1138 1137
f 1137 1138 1139
f 1138 1140 1139
f 1139 1140 1141
f 1140 1142 1141
f 1141 1142 1143
f 1142 1144 1143
f 1143 1144 1145
f 1144 1146 1145
f 1145 1146 1147
f 1146 1148 1147
f 1147 1148 1149
f 1148 1150 1149
f 1149 1150 1151
f 1150 1152 1151
f 1151 1152 1153
f 1152 1154 1153
f 1153 1154 1155
f 1154 1156 1155
f 1155 1156 1157
f 1156 1158 1157
f 1157 1158 1159
f 1158 1160 1159
f 1159 1160 1161
f 1160 1162 1161
f 1161 1162 1163
f 1162 1164 1163
f 1163 1164 1165
f 1164 1166 1165
f 1165 1166 1167
f 1166 1168 1167
f 1167 1168 1169
f 1168 1170 1169
f 1169 1170 1171
f 1170 1172 1171
f 1171 1172 1173
f 1172 1174 1173
f 1173 1174 1175
f 1174 1176 1175
f 1175 1176 1177
f 1176 1178 1177
f 1177 1178 1179
f 1178 1180 1179
f 1179 1180 1181
f 1180 1182 1181
f 1181 1182 1183
f 1182 1184 1183
f 1183 1184 1185
f 1184 1186 1185
f 1185 1186 1187
f 1186 1188 1187
f 1187 1188 1189
f 1188 1190 1189
f 1189 1190 1191
f 1190 1192 1191
f 1191 1192 1193
f 1192 1194 1193
f 1193 1194 1195
f 1194 1196 1195
f 1195 1196 1197
f 1196 1198 1197
f 1197 1198 1199
f 1198 1200 1199
f 1199 1200 1201
f 1200 1202 1201
f 1201 1202 1203
f 1202 1204 1203
f 1203 1204 1205
f 1204 1206 1205
f 1205 1206 1207
f 1206 1208 1207
f 1207 1208 1209
f 1208 1210 1209
f 1209 1210 1211
f 1210 1212 1211
f 1211 1212 1213
f 1212 1214 1213
f 1213 1214 1215
f 1214 1216 1215
f 1215 1216 1217
f 1216 1218 1217
f 1217 1218 1219
f 1218 1220 1219
f 1219 1220 1221
f 1220 1222 1221
f 1221 1222 1223
f 1222 1224 1223
f 1223 1224 1225
f 1224 1226 1225
f 1225 1226 1227
f 1226 1228 1227
f 1227 1228 1229
f 1228 1230 1229
f 1229 1230 1231
f 1230 1232 1231
f 1231 1232 1233
f 1232 1234 1233
f 1233 1234 1235
f 1234 1236 1235
f 1235 1236 1093
f 1236 1094 1093
f 1237 1238 1239
f 1238 1240 1239
f 1239 1240 1241
f 1240 1242 1241
f 1241 1242 1243
f 1242 1244 1243
f 1243 1244 1245
f 1244 1246 1245
f 1245 1246 1247
f 1246 1248 1247
f 1247 1248 1249
f 1248 1250 1249
f 1249 1250 1251
f 1250 1252 1251
f 1251 1252 1253
f 1252 1254 1253
f 1253 1254 1255
f 1254 1256 1255
f 1255 1256 1257
f 1256 1258 1257
f 1257 1258 1259
f 1258 1260 1259
f 1259 1260 1261
f 1260 1262 1261
f 1261 1262 1263
f 1262 1264 1263
f 1263 1264 1265
f 1264 1266 1265
f 1265 1266 1267
f 1266 1268 1267
f 1267 1268 1269
f 1268 1270 1269
f 1269 1270 1271
f 1270 1272 1271
f 1271 1272 1273
f 1272 1274 1273
f 1273 1274 1275
f 1274 1276 1275
f 1275 1276 1277
f 1276 1278 1277
f 1277 1278 1279
f 1278 1280 1279
f 1279 1280 1281
f 1280 1282 1281
f 1281 1282 1283
f 1282 1284 1283
f 1283 1284 1285
f 1284 1286 1285
f 1285 1286 1287
f 1286 1288 1287
f 1287 1288 1289
f 1288 1290 1289
f 1289 1290 1291
f 1290 1292 1291
f 1291 1292 1293
f 1292 1294 1293
f 1293 1294 1295
f 1294 1296 1295
f 1295 1296 1297
f 1296 1298 1297
f 1297 1298 1299
f 1298 1300 1299
f 1299 1300 1301
f 1300 1302 1301
f 1301 1302 1303
f 1302 1304 1303
f 1303 1304 1305
f 1304 1306 1305
f 1305 1306 1307
f 1306 1308 1307
f 1307 1308 1309
f 1308 1310 1309
f 1309 1310 1311
f 1310 1312 1311
f 1311 1312 1313
f 1312 1314 1313
f 1313 1314 1315
f 1314 1316 1315
f 1315 1316 1317
f 1316 1318 1317
f 1317 1318 1319
f 1318 1320 1319
f 1319 1320 1321
f 1320 1322 1321
f 1321 1322 1323
f 1322 1324 1323
f 1323 1324 1325
f 1324 1326 1325
f 1325 1326 1327
f 1326 1328 1327
f 1327 1328 1329
f 1328 1330 1329
f 1329 1330 1331
f 1330 1332 1331
f 1331 1332 1333
f 1332 1334 1333
f 1333 1334 1335
f 1334 1336 1335
f 1335 1336 1337
f 1336 1338 1337
f 1337 1338 1339
f 1338 1340 1339
f 1339 1340 1341
f 1340 1342 1341
f 1341 1342 1343
f 1342 1344 1343
f 1343 1344 1345
f 1344 1346 1345
f 1345 1346 1347
f 1346 1348 1347
f 1347 1348 1349
f 1348 1350 1349
f 1349 1350 1351
f 1350 1352 1351
f 1351 1352 1353
f 1352 1354 1353
f 1353 1354 1355
f 1354 1356 1355
f 1355 1356 1357
f 1356 1358 1357
f 1357 1358 1359
f 1358 1360 1359
f 1359 1360 1361
f 1360 1362 1361
f 1361 1362 1363
f 1362 1364 1363
f 1363 1364 1365
f 1364 1366 1365
f 1365 1366 1367
f 1366 1368 1367
f 1367 1368 1369
f 1368 1370 1369
f 1369 1370 1371
f 1370 1372 1371
f 1371 1372 1373
f 1372 1374 1373
f 1373 1374 1375
f 1374 1376 1375
f 1375 1376 1377
f 1376 1378 1377
f 1377 1378 1379
f 1378 1380 1379
f 1379 1380 1237
f 1380 1238 1237
f 1249 1104 1247
f 1104 1102 1247
f 1247 1102 1245
f 1102 1100 1245
f 1245 1100 1243
f 1100 1098 1243
f 1243 1098 1241
f 1098 1096 1241
f 1241 1096 1239
f 1096 1094 1239
f 1239 1094 1237
f 1094 1236 1237
f 1237 1236 1379
f 1236 1234 1379
f 1379 1234 1377
f 1234 1232 1377
f 1377 1232 1375
f 1232 1230 1375
f 1375 1230 1373
f 1230 1228 1373
f 1373 1228 1371
f 1228 1226 1371
f 1371 1226 1369
f 1226 1224 1369
f 1369 1224 1367
f 1224 1222 1367
f 1367 1222 1365
f 1222 1220 1365
f 1365 1220 1363
f 1220 1218 1363
f 1363 1218 1361
f 1218 1216 1361
f 1361 1216 1359
f 1216 1214 1359
f 1359 1214 1357
f 1214 1212 1357
f 1357 1212 1355
f 1212 1210 1355
f 1355 1210 1353
f 1210 1208 1353
f 1353 1208 1351
f 1208 1206 1351
f 1351 1206 1349
f 1206 1204 1349
f 1349 1204 1347
f 1204 1202 1347
f 1347 1202 1345
f 1202 1200 1345
f 1345 1200 1343
f 1200 1198 1343
f 1343 1198 1341
f 1198 1196 1341
f 1341 1196 1339
f 1196 1194 1339
f 1339 1194 1337
f 1194 1192 1337
f 1337 1192 1335
f 1192 1190 1335
f 1335 1190 1333
f 1190 1188 1333
f 1333 1188 1331
f 1188 1186 1331
f 1331 1186 1329
f 1186 1184 1329
f 1329 1184 1327
f 1184 1182 1327
f 1327 1182 1325
f 1182 1180 1325
f 1325 1180 1323
f 1180 1178 1323
f 1323 1178 1321
f 1178 1176 1321
f 1321 1176 1319
f 1176 1174 1319
f 1319 1174 1317
f 1174 1172 1317
f 1317 1172 1315
f 1172 1170 1315
f 1315 1170 1313
f 1170 1168 1313
f 1313 1168 1311
f 1168 1166 1311
f 1311 1166 1309
f 1166 1164 1309
f 1309 1164 1307
f 1164 1162 1307
f 1307 1162 1305
f 1162 1160 1305
f 1305 1160 1303
f 1160 1158 1303
f 1303 1158 1301
f 1158 1156 1301
f 1301 1156 1299
f 1156 1154 1299
f 1299 1154 1297
f 1154 1152 1297
f 1297 1152 1295
f 1152 1150 1295
f 1295 1150 1293
f 1150 1148 1293
f 1293 1148 1291
f 1148 1146 1291
f 1291 1146 1289
f 1146 1144 1289
f 1289 1144 1287
f 1144 1142 1287
f 1287 1142 1285
f 1142 1140 1285
f 1285 1140 1283
f 1140 1138 1283
f 1283 1138 1281
f 1138 1136 1281
f 1281 1136 1279
f 1136 1134 1279
f 1279 1134 1277
f 1134 1132 1277
f 1277 1132 1275
f 1132 1130 1275
f 1275 1130 1273
f 1130 1128 1273
f 1273 1128 1271
f 1128 1126 1271
f 1271 1126 1269
f 1126 1124 1269
f 1269 1124 1267
f 1124 1122 1267
f 1267 1122 1265
f 1122 1120 1265
f 1265 1120 1263
f 1120 1118 1263
f 1263 1118 1261
f 1118 1116 1261
f 1261 1116 1259
f 1116 1114 1259
f 1259 1114 1257
f 1114 1112 1257
f 1257 1112 1255
f 1112 1110 1255
f 1255 1110 1253
f 1110 1108 1253
f 1253 1108 1251
f 1108 1106 1251
f 1251 1106 1249
f 1106 1104 1249
f 1381 1268 1382
f 1268 1266 1382
f 1382 1266 1383
f 1266 1264 1383
f 1383 1264 1384
f 1264 1262 1384
f 1384 1262 1385
f 1262 1260 1385
f 1385 1260 1386
f 1260 1258 1386
f 1386 1258 1387
f 1258 1256 1387
f 1387 1256 1388
f 1256 1254 1388
f 1388 1254 1389
f 1254 1252 1389
f 1389 1252 1390
f 1252 1250 1390
f 1390 1250 1391
f 1250 1248 1391
f 1391 1248 1392
f 1248 1246 1392
f 1392 1246 1393
f 1246 1244 1393
f 1393 1244 1394
f 1244 1242 1394
f 1394 1242 1395
f 1242 1240 1395
f 1395 1240 1396
f 1240 1238 1396
f 1396 1238 1397
f 1238 1380 1397
f 1397 1380 1398
f 1380 1378 1398
f 1398 1378 1399
f 1378 1376 1399
f 1399 1376 1400
f 1376 1374 1400
f 1400 1374 1401
f 1374 1372 1401
f 1401 1372 1402
f 1372 1370 1402
f 1402 1370 1403
f 1370 1368 1403
f 1403 1368 1404
f 1368 1366 1404
f 1404 1366 1405
f 1366 1364 1405
f 1405 1364 1406
f 1364 1362 1406
f 1406 1362 1407
f 1362 1360 1407
f 1407 1360 1408
f 1360 1358 1408
f 1408 1358 1409
f 1358 1356 1409
f 1409 1356 1410
f 1356 1354 1410
f 1410 1354 1411
f 1354 1352 1411
f 1411 1352 1412
f 1352 1350 1412
f 1412 1350 1413
f 1350 1348 1413
f 1413 1348 1414
f 1348 1346 1414
f 1414 1346 1415
f 1346 1344 1415
f 1415 1344 1416
f 1344 1342 1416
f 1416 1342 1417
f 1342 1340 1417
f 1417 1340 1418
f 1340 1338 1418
f 1418 1338 1419
f 1338 1336 1419
f 1419 1336 1420
f 1336 1334 1420
f 1420 1334 1421
f 1334 1332 1421
f 1421 1332 1422
f 1332 1330 1422
f 1422 1330 1423
f 1330 1328 1423
f 1423 1328 1424
f 1328 1326 1424
f 1424 1326 1425
f 1326 1324 1425
f 1425 1324 1426
f 1324 1322 1426
f 1426 1322 1427
f 1322 1320 1427
f 1427 1320 1428
f 1320 1318 1428
f 1428 1318 1429
f 1318 1316 1429
f 1429 1316 1430
f 1316 1314 1430
f 1430 1314 1431
f 1314 1312 1431
f 1431 1312 1432
f 1312 1310 1432
f 1432 1310 1433
f 1310 1308 1433
f 1433 1308 1434
f 1308 1306 1434
f 1434 1306 1435
f 1306 1304 1435
f 1435 1304 1436
f 1304 1302 1436
f 1436 1302 1437
f 1302 1300 1437
f 1437 1300 1438
f 1300 1298 1438
f 1438 1298 1439
f 1298 1296 1439
f 1439 1296 1440
f 1296 1294 1440
f 1440 1294 1441
f 1294 1292 1441
f 1441 1292 1442
f 1292 1290 1442
f 1442 1290 1443
f 1290 1288 1443
f 1443 1288 1444
f 1288 1286 1444
f 1444 1286 1445
f 1286 1284 1445
f 1445 1284 1446
f 1284 1282 1446
f 1446 1282 1447
f 1282 1280 1447
f 1447 1280 1448
f 1280 1278 1448
f 1448 1278 1449
f 1278 1276 1449
f 1449 1276 1450
f 1276 1274 1450
f 1450 1274 1451
f 1274 1272 1451
f 1451 1272 1452
f 1272 1270 1452
f 1452 1270 1381
f 1270 1268 1381
f 1448 297 1447
f 297 299 1447
f 1447 299 1446
f 299 301 1446
f 1446 301 1445
f 301 303 1445
f 1445 303 1444
f 303 305 1444
f 1444 305 1443
f 305 307 1443
f 1443 307 1442
f 307 309 1442
f 1442 309 1441
f 309 311 1441
f 1441 311 1440
f 311 313 1440
f 1440 313 1439
f 313 316 1439
f 1439 316 1438
f 316 266 1438
f 1438 266 1437
f 266 268 1437
f 1437 268 1436
f 268 239 1436
f 1436 239 1435
f 239 241 1435
f 1435 241 1434
f 241 212 1434
f 1434 212 1433
f 212 210 1433
f 1433 210 1432
f 210 219 1432
f 1432 219 1431
f 219 221 1431
f 1431 221 1430
f 221 330 1430
f 1430 330 1429
f 330 329 1429
f 1429 329 1428
f 329 328 1428
f 1428 328 1427
f 328 327 1427
f 1427 327 1426
f 327 326 1426
f 1426 326 1425
f 326 321 1425
f 1425 321 1424
f 321 322 1424
f 1424 322 1423
f 322 323 1423
f 1423 323 1422
f 323 325 1422
f 1422 325 1421
f 325 324 1421
f 1421 324 1420
f 324 320 1420
f 1420 320 1419
f 320 319 1419
f 1419 319 1418
f 319 358 1418
f 1418 358 1417
f 358 361 1417
f 1417 361 1416
f 361 336 1416
f 1416 336 1415
f 336 334 1415
f 1415 334 1414
f 334 342 1414
f 1414 342 1413
f 342 372 1413
f 1413 372 1412
f 372 376 1412
f 1412 376 1411
f 376 385 1411
f 1411 385 1410
f 385 387 1410
f 1410 387 1409
f 387 420 1409
f 1409 420 1408
f 420 422 1408
f 1408 422 1407
f 422 424 1407
f 1407 424 1406
f 424 426 1406
f 1406 426 1405
f 426 428 1405
f 1405 428 1404
f 428 430 1404
f 1404 430 1403
f 430 432 1403
f 1403 432 1402
f 432 434 1402
f 1402 434 1401
f 434 436 1401
f 1401 436 1400
f 436 17 1400
f 1400 17 1399
f 17 12 1399
f 12 10 1399
f 1399 10 1398
f 10 46 1398
f 1398 46 1397
f 46 32 1397
f 1397 32 1396
f 32 49 1396
f 1396 49 1395
f 49 111 1395
f 1395 111 1394
f 111 192 1394
f 1394 192 1393
f 192 194 1393
f 1393 194 1392
f 194 196 1392
f 1392 196 1391
f 196 198 1391
f 1391 198 1390
f 198 200 1390
f 1390 200 1389
f 200 202 1389
f 1389 202 1388
f 202 204 1388
f 1388 204 1387
f 204 206 1387
f 1387 206 1386
f 206 149 1386
f 1386 149 1385
f 149 151 1385
f 1385 151 1384
f 151 68 1384
f 1384 68 1383
f 68 70 1383
f 1383 70 1382
f 70 74 1382
f 1382 74 1381
f 74 178 1381
f 1381 178 1452
f 178 181 1452
f 1452 181 1451
f 181 62 1451
f 1451 62 1450
f 62 113 1450
f 1450 113 1449
f 113 25 1449
f 1449 25 1448
f 25 265 1448
f 1448 265 297
f 104 656 105
f 656 889 105
f 105 889 106
f 889 876 106
f 106 876 98
f 876 875 98
f 98 875 99
f 875 873 99
f 99 873 101
f 873 872 101
f 101 872 167
f 872 919 167
f 167 919 97
f 919 921 97
f 97 921 96
f 921 923 96
f 96 923 155
f 923 925 155
f 155 925 157
f 925 927 157
f 157 927 159
f 927 892 159
f 159 892 161
f 892 891 161
f 161 891 163
f 891 910 163
f 163 910 165
f 910 931 165
f 165 931 166
f 931 930 166
f 166 930 117
f 930 878 117
f 117 878 118
f 878 877 118
f 877 894 118
f 118 894 130
f 894 893 130
f 130 893 85
f 893 841 85
f 85 841 283
f 283 841 284
f 841 842 284
f 284 842 256
f 842 843 256
f 256 843 257
f 843 827 257
f 257 827 259
f 827 826 259
f 259 826 291
f 826 830 291
f 291 830 237
f 830 832 237
f 237 832 238
f 832 834 238
f 238 834 280
f 834 836 280
f 280 836 278
f 836 838 278
f 278 838 233
f 838 776 233
f 233 776 234
f 776 775 234
f 234 775 246
f 775 774 246
f 246 774 247
f 774 773 247
f 247 773 249
f 773 771 249
f 249 771 250
f 771 770 250
f 250 770 251
f 770 768 251
f 768 589 251
f 251 589 252
f 589 594 252
f 252 594 393
f 594 636 393
f 393 636 394
f 394 636 395
f 636 635 395
f 395 635 396
f 635 634 396
f 396 634 400
f 634 666 400
f 400 666 401
f 666 704 401
f 401 704 402
f 704 703 402
f 402 703 415
f 703 702 415
f 415 702 413
f 702 726 413
f 413 726 411
f 726 728 411
f 411 728 409
f 728 730 409
f 409 730 407
f 730 671 407
f 407 671 405
f 671 670 405
f 405 670 403
f 670 706 403
f 403 706 388
f 706 705 388
f 388 705 389
f 705 741 389
f 389 741 391
f 741 740 391
f 391 740 392
f 740 739 392
f 392 739 8
f 739 674 8
f 8 674 38
f 38 674 41
f 674 673 41
f 41 673 42
f 673 672 42
f 42 672 43
f 672 648 43
f 43 648 1
f 648 710 1
f 1 710 2
f 710 712 2
f 2 712 4
f 712 749 4
f 4 749 132
f 749 751 132
f 132 751 134
f 751 753 134
f 134 753 136
f 753 755 136
f 136 755 138
f 755 652 138
f 138 652 140
f 652 650 140
f 140 650 142
f 650 649 142
f 142 649 144
f 649 715 144
f 144 715 145
f 715 714 145
f 145 714 50
f 714 713 50
f 50 713 51
f 713 607 51
f 51 607 103
f 607 640 103
f 103 640 104
f 640 675 104
f 104 675 656
f 1054 1163 1056
f 1163 1165 1056
f 1056 1165 1058
f 1165 1167 1058
f 1058 1167 1060
f 1167 1169 1060
f 1060 1169 1062
f 1169 1171 1062
f 1062 1171 1064
f 1171 1173 1064
f 1064 1173 1066
f 1173 1175 1066
f 1066 1175 1068
f 1175 1177 1068
f 1068 1177 1070
f 1177 1179 1070
f 1070 1179 1072
f 1179 1181 1072
f 1072 1181 1074
f 1181 1183 1074
f 1074 1183 1076
f 1183 1185 1076
f 1076 1185 1078
f 1185 1187 1078
f 1078 1187 1080
f 1187 1189 1080
f 1080 1189 1082
f 1189 1191 1082
f 1082 1191 1084
f 1191 1193 1084
f 1084 1193 1086
f 1193 1195 1086
f 1086 1195 1088
f 1195 1197 1088
f 1088 1197 1090
f 1197 1199 1090
f 1090 1199 1092
f 1199 1201 1092
f 1092 1201 950
f 1201 1203 950
f 950 1203 952
f 1203 1205 952
f 952 1205 954
f 1205 1207 954
f 954 1207 956
f 1207 1209 956
f 956 1209 958
f 1209 1211 958
f 958 1211 960
f 1211 1213 960
f 960 1213 962
f 1213 1215 962
f 962 1215 964
f 1215 1217 964
f 964 1217 966
f 1217 1219 966
f 966 1219 968
f 1219 1221 968
f 968 1221 970
f 1221 1223 970
f 970 1223 972
f 1223 1225 972
f 972 1225 974
f 1225 1227 974
f 974 1227 976
f 1227 1229 976
f 976 1229 978
f 1229 1231 978
f 978 1231 980
f 1231 1233 980
f 980 1233 982
f 1233 1235 982
f 982 1235 984
f 1235 1093 984
f 984 1093 986
f 1093 1095 986
f 986 1095 988
f 1095 1097 988
f 988 1097 990
f 1097 1099 990
f 990 1099 992
f 1099 1101 992
f 992 1101 994
f 1101 1103 994
f 994 1103 996
f 1103 1105 996
f 996 1105 998
f 1105 1107 998
f 998 1107 1000
f 1107 1109 1000
f 1000 1109 1002
f 1109 1111 1002
f 1002 1111 1004
f 1111 1113 1004
f 1004 1113 1006
f 1113 1115 1006
f 1006 1115 1008
f 1115 1117 1008
f 1008 1117 1010
f 1117 1119 1010
f 1010 1119 1012
f 1119 1121 1012
f 1012 1121 1014
f 1121 1123 1014
f 1014 1123 1016
f 1123 1125 1016
f 1016 1125 1018
f 1125 1127 1018
f 1018 1127 1020
f 1127 1129 1020
f 1020 1129 1022
f 1129 1131 1022
f 1022 1131 1024
f 1131 1133 1024
f 1024 1133 1026
f 1133 1135 1026
f 1026 1135 1028
f 1135 1137 1028
f 1028 1137 1030
f 1137 1139 1030
f 1030 1139 1032
f 1139 1141 1032
f 1032 1141 1034
f 1141 1143 1034
f 1034 1143 1036
f 1143 1145 1036
f 1036 1145 1038
f 1145 1147 1038
f 1038 1147 1040
f 1147 1149 1040
f 1040 1149 1042
f 1149 1151 1042
f 1042 1151 1044
f 1151 1153 1044
f 1044 1153 1046
f 1153 1155 1046
f 1046 1155 1048
f 1155 1157 1048
f 1048 1157 1050
f 1157 1159 1050
f 1050 1159 1052
f 1159 1161 1052
f 1052 1161 1054
f 1161 1163 1054

