# https://github.com/mikedh/trimesh
v 0.02600000 0.06650000 0.05400000
v 0.02600000 0.06650000 0.05100000
v 0.02599049 0.06628211 0.05400000
v 0.02599049 0.06628211 0.05100000
v 0.02596202 0.06606588 0.05400000
v 0.02596202 0.06606588 0.05100000
v 0.02591481 0.06585295 0.05400000
v 0.02591481 0.06585295 0.05100000
v 0.02584923 0.06564495 0.05400000
v 0.02584923 0.06564495 0.05100000
v 0.02576577 0.06544346 0.05400000
v 0.02576577 0.06544346 0.05100000
v 0.02566506 0.06525000 0.05400000
v 0.02566506 0.06525000 0.05100000
v 0.02554788 0.06506606 0.05400000
v 0.02554788 0.06506606 0.05100000
v 0.02541511 0.06489303 0.05400000
v 0.02541511 0.06489303 0.05100000
v 0.02526777 0.06473223 0.05400000
v 0.02526777 0.06473223 0.05100000
v 0.02510697 0.06458489 0.05400000
v 0.02510697 0.06458489 0.05100000
v 0.02493394 0.06445212 0.05400000
v 0.02493394 0.06445212 0.05100000
v 0.02475000 0.06433494 0.05400000
v 0.02475000 0.06433494 0.05100000
v 0.02455655 0.06423423 0.05400000
v 0.02455655 0.06423423 0.05100000
v 0.02435505 0.06415077 0.05400000
v 0.02435505 0.06415077 0.05100000
v 0.02414705 0.06408519 0.05400000
v 0.02414705 0.06408519 0.05100000
v 0.02393412 0.06403798 0.05400000
v 0.02393412 0.06403798 0.05100000
v 0.02371789 0.06400951 0.05400000
v 0.02371789 0.06400951 0.05100000
v 0.02350000 0.06400000 0.05400000
v 0.02350000 0.06400000 0.05100000
v 0.02328211 0.06400951 0.05400000
v 0.02328211 0.06400951 0.05100000
v 0.02306588 0.06403798 0.05400000
v 0.02306588 0.06403798 0.05100000
v 0.02285295 0.06408519 0.05400000
v 0.02285295 0.06408519 0.05100000
v 0.02264495 0.06415077 0.05400000
v 0.02264495 0.06415077 0.05100000
v 0.02244345 0.06423423 0.05400000
v 0.02244345 0.06423423 0.05100000
v 0.02225000 0.06433494 0.05400000
v 0.02225000 0.06433494 0.05100000
v 0.02206606 0.06445212 0.05400000
v 0.02206606 0.06445212 0.05100000
v 0.02189303 0.06458489 0.05400000
v 0.02189303 0.06458489 0.05100000
v 0.02173223 0.06473223 0.05400000
v 0.02173223 0.06473223 0.05100000
v 0.02158489 0.06489303 0.05400000
v 0.02158489 0.06489303 0.05100000
v 0.02145212 0.06506606 0.05400000
v 0.02145212 0.06506606 0.05100000
v 0.02133494 0.06525000 0.05400000
v 0.02133494 0.06525000 0.05100000
v 0.02123423 0.06544346 0.05400000
v 0.02123423 0.06544346 0.05100000
v 0.02115077 0.06564495 0.05400000
v 0.02115077 0.06564495 0.05100000
v 0.02108519 0.06585295 0.05400000
v 0.02108519 0.06585295 0.05100000
v 0.02103798 0.06606588 0.05400000
v 0.02103798 0.06606588 0.05100000
v 0.02100951 0.06628211 0.05400000
v 0.02100951 0.06628211 0.05100000
v 0.02100000 0.06650000 0.05400000
v 0.02100000 0.06650000 0.05100000
v 0.02100951 0.06671789 0.05400000
v 0.02100951 0.06671789 0.05100000
v 0.02103798 0.06693412 0.05400000
v 0.02103798 0.06693412 0.05100000
v 0.02108519 0.06714705 0.05400000
v 0.02108519 0.06714705 0.05100000
v 0.02115077 0.06735505 0.05400000
v 0.02115077 0.06735505 0.05100000
v 0.02123423 0.06755655 0.05400000
v 0.02123423 0.06755655 0.05100000
v 0.02133494 0.06775000 0.05400000
v 0.02133494 0.06775000 0.05100000
v 0.02145212 0.06793394 0.05400000
v 0.02145212 0.06793394 0.05100000
v 0.02158489 0.06810697 0.05400000
v 0.02158489 0.06810697 0.05100000
v 0.02173223 0.06826777 0.05400000
v 0.02173223 0.06826777 0.05100000
v 0.02189303 0.06841511 0.05400000
v 0.02189303 0.06841511 0.05100000
v 0.02206606 0.06854788 0.05400000
v 0.02206606 0.06854788 0.05100000
v 0.02225000 0.06866506 0.05400000
v 0.02225000 0.06866506 0.05100000
v 0.02244345 0.06876577 0.05400000
v 0.02244345 0.06876577 0.05100000
v 0.02264495 0.06884923 0.05400000
v 0.02264495 0.06884923 0.05100000
v 0.02285295 0.06891482 0.05400000
v 0.02285295 0.06891482 0.05100000
v 0.02306588 0.06896202 0.05400000
v 0.02306588 0.06896202 0.05100000
v 0.02328211 0.06899048 0.05400000
v 0.02328211 0.06899048 0.05100000
v 0.02350000 0.06900000 0.05400000
v 0.02350000 0.06900000 0.05100000
v 0.02371789 0.06899048 0.05400000
v 0.02371789 0.06899048 0.05100000
v 0.02393412 0.06896202 0.05400000
v 0.02393412 0.06896202 0.05100000
v 0.02414705 0.06891482 0.05400000
v 0.02414705 0.06891482 0.05100000
v 0.02435505 0.06884923 0.05400000
v 0.02435505 0.06884923 0.05100000
v 0.02455655 0.06876577 0.05400000
v 0.02455655 0.06876577 0.05100000
v 0.02475000 0.06866506 0.05400000
v 0.02475000 0.06866506 0.05100000
v 0.02493394 0.06854788 0.05400000
v 0.02493394 0.06854788 0.05100000
v 0.02510697 0.06841511 0.05400000
v 0.02510697 0.06841511 0.05100000
v 0.02526777 0.06826777 0.05400000
v 0.02526777 0.06826777 0.05100000
v 0.02541511 0.06810697 0.05400000
v 0.02541511 0.06810697 0.05100000
v 0.02554788 0.06793394 0.05400000
v 0.02554788 0.06793394 0.05100000
v 0.02566506 0.06775000 0.05400000
v 0.02566506 0.06775000 0.05100000
v 0.02576577 0.06755655 0.05400000
v 0.02576577 0.06755655 0.05100000
v 0.02584923 0.06735505 0.05400000
v 0.02584923 0.06735505 0.05100000
v 0.02591481 0.06714705 0.05400000
v 0.02591481 0.06714705 0.05100000
v 0.02596202 0.06693412 0.05400000
v 0.02596202 0.06693412 0.05100000
v 0.02599049 0.06671789 0.05400000
v 0.02599049 0.06671789 0.05100000
v -0.02100000 0.06650000 0.05400000
v -0.02100000 0.06650000 0.05100000
v -0.02100951 0.06628211 0.05400000
v -0.02100951 0.06628211 0.05100000
v -0.02103798 0.06606588 0.05400000
v -0.02103798 0.06606588 0.05100000
v -0.02108519 0.06585295 0.05400000
v -0.02108519 0.06585295 0.05100000
v -0.02115077 0.06564495 0.05400000
v -0.02115077 0.06564495 0.05100000
v -0.02123423 0.06544346 0.05400000
v -0.02123423 0.06544346 0.05100000
v -0.02133494 0.06525000 0.05400000
v -0.02133494 0.06525000 0.05100000
v -0.02145212 0.06506606 0.05400000
v -0.02145212 0.06506606 0.05100000
v -0.02158489 0.06489303 0.05400000
v -0.02158489 0.06489303 0.05100000
v -0.02173223 0.06473223 0.05400000
v -0.02173223 0.06473223 0.05100000
v -0.02189303 0.06458489 0.05400000
v -0.02189303 0.06458489 0.05100000
v -0.02206606 0.06445212 0.05400000
v -0.02206606 0.06445212 0.05100000
v -0.02225000 0.06433494 0.05400000
v -0.02225000 0.06433494 0.05100000
v -0.02244345 0.06423423 0.05400000
v -0.02244345 0.06423423 0.05100000
v -0.02264495 0.06415077 0.05400000
v -0.02264495 0.06415077 0.05100000
v -0.02285295 0.06408519 0.05400000
v -0.02285295 0.06408519 0.05100000
v -0.02306588 0.06403798 0.05400000
v -0.02306588 0.06403798 0.05100000
v -0.02328211 0.06400951 0.05400000
v -0.02328211 0.06400951 0.05100000
v -0.02350000 0.06400000 0.05400000
v -0.02350000 0.06400000 0.05100000
v -0.02371789 0.06400951 0.05400000
v -0.02371789 0.06400951 0.05100000
v -0.02393412 0.06403798 0.05400000
v -0.02393412 0.06403798 0.05100000
v -0.02414705 0.06408519 0.05400000
v -0.02414705 0.06408519 0.05100000
v -0.02435505 0.06415077 0.05400000
v -0.02435505 0.06415077 0.05100000
v -0.02455655 0.06423423 0.05400000
v -0.02455655 0.06423423 0.05100000
v -0.02475000 0.06433494 0.05400000
v -0.02475000 0.06433494 0.05100000
v -0.02493394 0.06445212 0.05400000
v -0.02493394 0.06445212 0.05100000
v -0.02510697 0.06458489 0.05400000
v -0.02510697 0.06458489 0.05100000
v -0.02526777 0.06473223 0.05400000
v -0.02526777 0.06473223 0.05100000
v -0.02541511 0.06489303 0.05400000
v -0.02541511 0.06489303 0.05100000
v -0.02554788 0.06506606 0.05400000
v -0.02554788 0.06506606 0.05100000
v -0.02566506 0.06525000 0.05400000
v -0.02566506 0.06525000 0.05100000
v -0.02576577 0.06544346 0.05400000
v -0.02576577 0.06544346 0.05100000
v -0.02584923 0.06564495 0.05400000
v -0.02584923 0.06564495 0.05100000
v -0.02591481 0.06585295 0.05400000
v -0.02591481 0.06585295 0.05100000
v -0.02596202 0.06606588 0.05400000
v -0.02596202 0.06606588 0.05100000
v -0.02599049 0.06628211 0.05400000
v -0.02599049 0.06628211 0.05100000
v -0.02600000 0.06650000 0.05400000
v -0.02600000 0.06650000 0.05100000
v -0.02599049 0.06671789 0.05400000
v -0.02599049 0.06671789 0.05100000
v -0.02596202 0.06693412 0.05400000
v -0.02596202 0.06693412 0.05100000
v -0.02591481 0.06714705 0.05400000
v -0.02591481 0.06714705 0.05100000
v -0.02584923 0.06735505 0.05400000
v -0.02584923 0.06735505 0.05100000
v -0.02576577 0.06755655 0.05400000
v -0.02576577 0.06755655 0.05100000
v -0.02566506 0.06775000 0.05400000
v -0.02566506 0.06775000 0.05100000
v -0.02554788 0.06793394 0.05400000
v -0.02554788 0.06793394 0.05100000
v -0.02541511 0.06810697 0.05400000
v -0.02541511 0.06810697 0.05100000
v -0.02526777 0.06826777 0.05400000
v -0.02526777 0.06826777 0.05100000
v -0.02510697 0.06841511 0.05400000
v -0.02510697 0.06841511 0.05100000
v -0.02493394 0.06854788 0.05400000
v -0.02493394 0.06854788 0.05100000
v -0.02475000 0.06866506 0.05400000
v -0.02475000 0.06866506 0.05100000
v -0.02455655 0.06876577 0.05400000
v -0.02455655 0.06876577 0.05100000
v -0.02435505 0.06884923 0.05400000
v -0.02435505 0.06884923 0.05100000
v -0.02414705 0.06891482 0.05400000
v -0.02414705 0.06891482 0.05100000
v -0.02393412 0.06896202 0.05400000
v -0.02393412 0.06896202 0.05100000
v -0.02371789 0.06899048 0.05400000
v -0.02371789 0.06899048 0.05100000
v -0.02350000 0.06900000 0.05400000
v -0.02350000 0.06900000 0.05100000
v -0.02328211 0.06899048 0.05400000
v -0.02328211 0.06899048 0.05100000
v -0.02306588 0.06896202 0.05400000
v -0.02306588 0.06896202 0.05100000
v -0.02285295 0.06891482 0.05400000
v -0.02285295 0.06891482 0.05100000
v -0.02264495 0.06884923 0.05400000
v -0.02264495 0.06884923 0.05100000
v -0.02244345 0.06876577 0.05400000
v -0.02244345 0.06876577 0.05100000
v -0.02225000 0.06866506 0.05400000
v -0.02225000 0.06866506 0.05100000
v -0.02206606 0.06854788 0.05400000
v -0.02206606 0.06854788 0.05100000
v -0.02189303 0.06841511 0.05400000
v -0.02189303 0.06841511 0.05100000
v -0.02173223 0.06826777 0.05400000
v -0.02173223 0.06826777 0.05100000
v -0.02158489 0.06810697 0.05400000
v -0.02158489 0.06810697 0.05100000
v -0.02145212 0.06793394 0.05400000
v -0.02145212 0.06793394 0.05100000
v -0.02133494 0.06775000 0.05400000
v -0.02133494 0.06775000 0.05100000
v -0.02123423 0.06755655 0.05400000
v -0.02123423 0.06755655 0.05100000
v -0.02115077 0.06735505 0.05400000
v -0.02115077 0.06735505 0.05100000
v -0.02108519 0.06714705 0.05400000
v -0.02108519 0.06714705 0.05100000
v -0.02103798 0.06693412 0.05400000
v -0.02103798 0.06693412 0.05100000
v -0.02100951 0.06671789 0.05400000
v -0.02100951 0.06671789 0.05100000
v 0.02600000 0.01950000 0.05400000
v 0.02600000 0.01950000 0.05100000
v 0.02599049 0.01928211 0.05400000
v 0.02599049 0.01928211 0.05100000
v 0.02596202 0.01906588 0.05400000
v 0.02596202 0.01906588 0.05100000
v 0.02591481 0.01885295 0.05400000
v 0.02591481 0.01885295 0.05100000
v 0.02584923 0.01864495 0.05400000
v 0.02584923 0.01864495 0.05100000
v 0.02576577 0.01844345 0.05400000
v 0.02576577 0.01844345 0.05100000
v 0.02566506 0.01825000 0.05400000
v 0.02566506 0.01825000 0.05100000
v 0.02554788 0.01806606 0.05400000
v 0.02554788 0.01806606 0.05100000
v 0.02541511 0.01789303 0.05400000
v 0.02541511 0.01789303 0.05100000
v 0.02526777 0.01773223 0.05400000
v 0.02526777 0.01773223 0.05100000
v 0.02510697 0.01758489 0.05400000
v 0.02510697 0.01758489 0.05100000
v 0.02493394 0.01745212 0.05400000
v 0.02493394 0.01745212 0.05100000
v 0.02475000 0.01733494 0.05400000
v 0.02475000 0.01733494 0.05100000
v 0.02455655 0.01723423 0.05400000
v 0.02455655 0.01723423 0.05100000
v 0.02435505 0.01715077 0.05400000
v 0.02435505 0.01715077 0.05100000
v 0.02414705 0.01708519 0.05400000
v 0.02414705 0.01708519 0.05100000
v 0.02393412 0.01703798 0.05400000
v 0.02393412 0.01703798 0.05100000
v 0.02371789 0.01700951 0.05400000
v 0.02371789 0.01700951 0.05100000
v 0.02350000 0.01700000 0.05400000
v 0.02350000 0.01700000 0.05100000
v 0.02328211 0.01700951 0.05400000
v 0.02328211 0.01700951 0.05100000
v 0.02306588 0.01703798 0.05400000
v 0.02306588 0.01703798 0.05100000
v 0.02285295 0.01708519 0.05400000
v 0.02285295 0.01708519 0.05100000
v 0.02264495 0.01715077 0.05400000
v 0.02264495 0.01715077 0.05100000
v 0.02244345 0.01723423 0.05400000
v 0.02244345 0.01723423 0.05100000
v 0.02225000 0.01733494 0.05400000
v 0.02225000 0.01733494 0.05100000
v 0.02206606 0.01745212 0.05400000
v 0.02206606 0.01745212 0.05100000
v 0.02189303 0.01758489 0.05400000
v 0.02189303 0.01758489 0.05100000
v 0.02173223 0.01773223 0.05400000
v 0.02173223 0.01773223 0.05100000
v 0.02158489 0.01789303 0.05400000
v 0.02158489 0.01789303 0.05100000
v 0.02145212 0.01806606 0.05400000
v 0.02145212 0.01806606 0.05100000
v 0.02133494 0.01825000 0.05400000
v 0.02133494 0.01825000 0.05100000
v 0.02123423 0.01844345 0.05400000
v 0.02123423 0.01844345 0.05100000
v 0.02115077 0.01864495 0.05400000
v 0.02115077 0.01864495 0.05100000
v 0.02108519 0.01885295 0.05400000
v 0.02108519 0.01885295 0.05100000
v 0.02103798 0.01906588 0.05400000
v 0.02103798 0.01906588 0.05100000
v 0.02100951 0.01928211 0.05400000
v 0.02100951 0.01928211 0.05100000
v 0.02100000 0.01950000 0.05400000
v 0.02100000 0.01950000 0.05100000
v 0.02100951 0.01971789 0.05400000
v 0.02100951 0.01971789 0.05100000
v 0.02103798 0.01993412 0.05400000
v 0.02103798 0.01993412 0.05100000
v 0.02108519 0.02014705 0.05400000
v 0.02108519 0.02014705 0.05100000
v 0.02115077 0.02035505 0.05400000
v 0.02115077 0.02035505 0.05100000
v 0.02123423 0.02055654 0.05400000
v 0.02123423 0.02055654 0.05100000
v 0.02133494 0.02075000 0.05400000
v 0.02133494 0.02075000 0.05100000
v 0.02145212 0.02093394 0.05400000
v 0.02145212 0.02093394 0.05100000
v 0.02158489 0.02110697 0.05400000
v 0.02158489 0.02110697 0.05100000
v 0.02173223 0.02126777 0.05400000
v 0.02173223 0.02126777 0.05100000
v 0.02189303 0.02141511 0.05400000
v 0.02189303 0.02141511 0.05100000
v 0.02206606 0.02154788 0.05400000
v 0.02206606 0.02154788 0.05100000
v 0.02225000 0.02166506 0.05400000
v 0.02225000 0.02166506 0.05100000
v 0.02244345 0.02176577 0.05400000
v 0.02244345 0.02176577 0.05100000
v 0.02264495 0.02184923 0.05400000
v 0.02264495 0.02184923 0.05100000
v 0.02285295 0.02191481 0.05400000
v 0.02285295 0.02191481 0.05100000
v 0.02306588 0.02196202 0.05400000
v 0.02306588 0.02196202 0.05100000
v 0.02328211 0.02199049 0.05400000
v 0.02328211 0.02199049 0.05100000
v 0.02350000 0.02200000 0.05400000
v 0.02350000 0.02200000 0.05100000
v 0.02371789 0.02199049 0.05400000
v 0.02371789 0.02199049 0.05100000
v 0.02393412 0.02196202 0.05400000
v 0.02393412 0.02196202 0.05100000
v 0.02414705 0.02191481 0.05400000
v 0.02414705 0.02191481 0.05100000
v 0.02435505 0.02184923 0.05400000
v 0.02435505 0.02184923 0.05100000
v 0.02455655 0.02176577 0.05400000
v 0.02455655 0.02176577 0.05100000
v 0.02475000 0.02166506 0.05400000
v 0.02475000 0.02166506 0.05100000
v 0.02493394 0.02154788 0.05400000
v 0.02493394 0.02154788 0.05100000
v 0.02510697 0.02141511 0.05400000
v 0.02510697 0.02141511 0.05100000
v 0.02526777 0.02126777 0.05400000
v 0.02526777 0.02126777 0.05100000
v 0.02541511 0.02110697 0.05400000
v 0.02541511 0.02110697 0.05100000
v 0.02554788 0.02093394 0.05400000
v 0.02554788 0.02093394 0.05100000
v 0.02566506 0.02075000 0.05400000
v 0.02566506 0.02075000 0.05100000
v 0.02576577 0.02055654 0.05400000
v 0.02576577 0.02055654 0.05100000
v 0.02584923 0.02035505 0.05400000
v 0.02584923 0.02035505 0.05100000
v 0.02591481 0.02014705 0.05400000
v 0.02591481 0.02014705 0.05100000
v 0.02596202 0.01993412 0.05400000
v 0.02596202 0.01993412 0.05100000
v 0.02599049 0.01971789 0.05400000
v 0.02599049 0.01971789 0.05100000
v 0.04000000 0.08300000 0.05400000
v 0.04000000 0.04300000 0.05400000
v -0.00000000 0.08300000 0.05400000
v 0.02015254 0.06315254 0.05400000
v 0.02752889 0.05037634 0.05400000
v 0.02806702 0.04794897 0.05400000
v 0.02839155 0.04548394 0.05400000
v 0.02850000 0.04300000 0.05400000
v 0.02334583 0.05934693 0.05400000
v 0.02183227 0.06131945 0.05400000
v 0.02468172 0.05725000 0.05400000
v 0.02582977 0.05504462 0.05400000
v 0.02678124 0.05274757 0.05400000
v 0.01831945 0.06483227 0.05400000
v 0.01204462 0.06882977 0.05400000
v 0.00974757 0.06978124 0.05400000
v 0.00737634 0.07052889 0.05400000
v -0.00000000 0.07150000 0.05400000
v 0.00248394 0.07139155 0.05400000
v 0.00494897 0.07106702 0.05400000
v 0.01634693 0.06634583 0.05400000
v 0.01425000 0.06768172 0.05400000
v -0.04000000 0.08300000 0.05400000
v -0.02015254 0.06315254 0.05400000
v -0.04000000 0.04300000 0.05400000
v -0.02806702 0.04794897 0.05400000
v -0.02752889 0.05037634 0.05400000
v -0.02183227 0.06131945 0.05400000
v -0.02334583 0.05934693 0.05400000
v -0.02678124 0.05274757 0.05400000
v -0.02582977 0.05504462 0.05400000
v -0.00737634 0.07052889 0.05400000
v -0.00494897 0.07106702 0.05400000
v -0.00248394 0.07139155 0.05400000
v -0.02468172 0.05725000 0.05400000
v -0.01634693 0.06634583 0.05400000
v -0.01831945 0.06483227 0.05400000
v -0.01425000 0.06768172 0.05400000
v -0.01204462 0.06882977 0.05400000
v -0.00974757 0.06978124 0.05400000
v -0.02554788 0.02093394 0.05400000
v -0.02541511 0.02110697 0.05400000
v -0.02108519 0.01885295 0.05400000
v -0.02115077 0.01864495 0.05400000
v -0.01204462 0.01717023 0.05400000
v -0.02526777 0.02126777 0.05400000
v -0.02510697 0.02141511 0.05400000
v -0.02493394 0.02154788 0.05400000
v -0.02839155 0.04051606 0.05400000
v -0.02850000 0.04300000 0.05400000
v -0.02839155 0.04548394 0.05400000
v -0.00248394 0.01460845 0.05400000
v -0.00494897 0.01493298 0.05400000
v -0.00000000 0.00000000 0.05400000
v -0.02526777 0.01773223 0.05400000
v -0.02541511 0.01789303 0.05400000
v -0.04000000 0.00000000 0.05400000
v -0.00974757 0.01621876 0.05400000
v -0.02173223 0.01773223 0.05400000
v -0.02158489 0.01789303 0.05400000
v -0.02145212 0.01806606 0.05400000
v -0.02554788 0.01806606 0.05400000
v -0.02566506 0.01825000 0.05400000
v -0.02576577 0.01844345 0.05400000
v -0.00737634 0.01547111 0.05400000
v -0.02123423 0.01844345 0.05400000
v -0.02189303 0.01758489 0.05400000
v -0.02206606 0.01745212 0.05400000
v -0.02225000 0.01733494 0.05400000
v -0.02596202 0.01993412 0.05400000
v -0.02591481 0.02014705 0.05400000
v -0.02584923 0.02035505 0.05400000
v -0.02475000 0.02166506 0.05400000
v -0.02455655 0.02176577 0.05400000
v -0.02435505 0.02184923 0.05400000
v -0.02015254 0.02284746 0.05400000
v -0.02189303 0.02141511 0.05400000
v -0.02173223 0.02126777 0.05400000
v -0.02133494 0.01825000 0.05400000
v -0.02244345 0.01723423 0.05400000
v -0.02264495 0.01715077 0.05400000
v -0.02285295 0.01708519 0.05400000
v -0.02584923 0.01864495 0.05400000
v -0.02591481 0.01885295 0.05400000
v -0.02596202 0.01906588 0.05400000
v -0.02599049 0.01928211 0.05400000
v -0.02600000 0.01950000 0.05400000
v -0.02599049 0.01971789 0.05400000
v -0.02576577 0.02055654 0.05400000
v -0.02566506 0.02075000 0.05400000
v -0.02123423 0.02055654 0.05400000
v -0.02115077 0.02035505 0.05400000
v -0.01831945 0.02116773 0.05400000
v -0.02108519 0.02014705 0.05400000
v -0.01634693 0.01965417 0.05400000
v -0.02103798 0.01993412 0.05400000
v -0.02100951 0.01971789 0.05400000
v -0.02100000 0.01950000 0.05400000
v -0.01425000 0.01831828 0.05400000
v -0.02100951 0.01928211 0.05400000
v -0.02103798 0.01906588 0.05400000
v -0.02306588 0.01703798 0.05400000
v -0.02328211 0.01700951 0.05400000
v -0.02350000 0.01700000 0.05400000
v -0.02475000 0.01733494 0.05400000
v -0.02493394 0.01745212 0.05400000
v -0.02510697 0.01758489 0.05400000
v -0.02350000 0.02200000 0.05400000
v -0.02334583 0.02665307 0.05400000
v -0.02371789 0.02199049 0.05400000
v -0.02468172 0.02875000 0.05400000
v -0.02393412 0.02196202 0.05400000
v -0.02582977 0.03095538 0.05400000
v -0.02414705 0.02191481 0.05400000
v -0.02678124 0.03325243 0.05400000
v -0.02752889 0.03562366 0.05400000
v -0.02806702 0.03805103 0.05400000
v -0.02328211 0.02199049 0.05400000
v -0.02306588 0.02196202 0.05400000
v -0.02183227 0.02468055 0.05400000
v -0.02285295 0.02191481 0.05400000
v -0.02264495 0.02184923 0.05400000
v -0.02244345 0.02176577 0.05400000
v -0.02225000 0.02166506 0.05400000
v -0.02206606 0.02154788 0.05400000
v -0.02158489 0.02110697 0.05400000
v -0.02145212 0.02093394 0.05400000
v -0.02133494 0.02075000 0.05400000
v -0.02371789 0.01700951 0.05400000
v -0.02393412 0.01703798 0.05400000
v -0.02414705 0.01708519 0.05400000
v -0.02435505 0.01715077 0.05400000
v -0.02455655 0.01723423 0.05400000
v 0.04000000 0.00000000 0.05400000
v 0.02015254 0.02284746 0.05400000
v 0.02334583 0.02665307 0.05400000
v 0.02183227 0.02468055 0.05400000
v 0.00494897 0.01493298 0.05400000
v 0.00248394 0.01460845 0.05400000
v 0.00000000 0.01450000 0.05400000
v 0.00737634 0.01547111 0.05400000
v 0.01831945 0.02116773 0.05400000
v 0.02752889 0.03562366 0.05400000
v 0.02678124 0.03325243 0.05400000
v 0.02582977 0.03095538 0.05400000
v 0.01634693 0.01965417 0.05400000
v 0.01425000 0.01831828 0.05400000
v 0.01204462 0.01717023 0.05400000
v 0.00974757 0.01621876 0.05400000
v 0.02468172 0.02875000 0.05400000
v 0.02839155 0.04051606 0.05400000
v 0.02806702 0.03805103 0.05400000
v -0.04000000 0.08300000 -0.03160000
v -0.04000000 0.08300000 -0.03460000
v -0.04000000 0.00300000 -0.03160000
v -0.04000000 0.00000000 -0.03460000
v -0.04000000 0.00300000 0.05100000
v -0.04000000 0.04300000 0.05100000
v -0.04000000 0.08300000 0.05100000
v 0.04000000 0.08300000 -0.03460000
v 0.04000000 0.00000000 -0.03460000
v 0.04000000 0.08300000 0.05100000
v 0.04000000 0.04300000 0.05100000
v 0.04000000 0.00300000 0.05100000
v 0.04000000 0.00300000 -0.03160000
v 0.04000000 0.08300000 -0.03160000
v 0.02543412 0.00000000 -0.00246202
v 0.02521789 0.00000000 -0.00249049
v -0.00143394 0.00000000 -0.02295212
v 0.02605654 0.00000000 -0.00226577
v 0.02585505 0.00000000 -0.00234923
v 0.02564705 0.00000000 -0.00241481
v 0.02625000 0.00000000 -0.00216506
v -0.00125000 0.00000000 -0.02283494
v 0.02643394 0.00000000 -0.00204788
v -0.00105655 0.00000000 -0.02273423
v -0.00085505 0.00000000 -0.02265077
v -0.00064705 0.00000000 -0.02258519
v -0.00043412 0.00000000 -0.02253798
v -0.00021789 0.00000000 -0.02250951
v 0.00043412 0.00000000 -0.02746202
v 0.00021789 0.00000000 -0.02749049
v 0.00000000 0.00000000 -0.02750000
v -0.00021789 0.00000000 -0.02749049
v -0.00043412 0.00000000 -0.02746202
v -0.00241481 0.00000000 -0.02435295
v -0.00234923 0.00000000 -0.02414495
v 0.00021789 0.00000000 0.02250951
v -0.00216506 0.00000000 -0.02375000
v -0.00204788 0.00000000 -0.02356606
v 0.00249049 0.00000000 0.02478211
v 0.00064705 0.00000000 -0.02258519
v 0.00085505 0.00000000 -0.02265077
v 0.02660697 0.00000000 -0.00191511
v 0.00160697 0.00000000 -0.02691511
v 0.00143394 0.00000000 -0.02704788
v 0.00125000 0.00000000 -0.02716506
v 0.00105655 0.00000000 -0.02726577
v -0.00226577 0.00000000 -0.02394345
v 0.00000000 0.00000000 -0.02250000
v 0.00021789 0.00000000 -0.02250951
v 0.00043412 0.00000000 -0.02253798
v 0.00085505 0.00000000 -0.02734923
v 0.00064705 0.00000000 -0.02741481
v 0.00105655 0.00000000 -0.02273423
v 0.00125000 0.00000000 -0.02283494
v 0.00143394 0.00000000 -0.02295212
v 0.00085505 0.00000000 0.02265077
v 0.00064705 0.00000000 0.02258519
v 0.00043412 0.00000000 0.02253798
v 0.00160697 0.00000000 -0.02308489
v 0.00176777 0.00000000 -0.02323223
v 0.00191511 0.00000000 -0.02339303
v -0.00105655 0.00000000 -0.02726577
v -0.00125000 0.00000000 -0.02716506
v -0.00226577 0.00000000 0.02605654
v -0.00216506 0.00000000 0.02625000
v 0.02283494 0.00000000 -0.00125000
v 0.02273423 0.00000000 -0.00105655
v -0.00160697 0.00000000 -0.02308489
v 0.00216506 0.00000000 0.02375000
v 0.00204788 0.00000000 0.02356606
v 0.00191511 0.00000000 0.02339303
v -0.00143394 0.00000000 -0.02704788
v -0.00160697 0.00000000 -0.02691511
v -0.00176777 0.00000000 -0.02676777
v 0.00246202 0.00000000 0.02456588
v 0.00241481 0.00000000 0.02435295
v 0.00176777 0.00000000 0.02323223
v 0.00160697 0.00000000 0.02308489
v 0.00143394 0.00000000 0.02295212
v 0.00125000 0.00000000 0.02283494
v 0.00105655 0.00000000 0.02273423
v -0.02676777 0.00000000 -0.00176777
v -0.02691511 0.00000000 -0.00160697
v -0.00064705 0.00000000 -0.02741481
v -0.00085505 0.00000000 -0.02734923
v -0.00064705 0.00000000 0.02258519
v -0.00085505 0.00000000 0.02265077
v -0.02660697 0.00000000 0.00191511
v -0.00204788 0.00000000 0.02643394
v -0.00191511 0.00000000 0.02660697
v -0.00176777 0.00000000 0.02676777
v 0.00204788 0.00000000 -0.02356606
v 0.00216506 0.00000000 -0.02375000
v 0.00226577 0.00000000 -0.02394345
v 0.00234923 0.00000000 0.02414495
v 0.00226577 0.00000000 0.02394345
v -0.00043412 0.00000000 0.02253798
v -0.02375000 0.00000000 -0.00216506
v -0.02394345 0.00000000 -0.00226577
v -0.00191511 0.00000000 -0.02660697
v -0.02660697 0.00000000 -0.00191511
v -0.02704788 0.00000000 -0.00143394
v -0.02716506 0.00000000 -0.00125000
v -0.02726577 0.00000000 -0.00105655
v 0.02500000 0.00000000 -0.00250000
v 0.02478211 0.00000000 -0.00249049
v 0.02456588 0.00000000 -0.00246202
v -0.00105655 0.00000000 0.02726577
v -0.00085505 0.00000000 0.02734923
v -0.02394345 0.00000000 0.00226577
v -0.02375000 0.00000000 0.00216506
v -0.00021789 0.00000000 0.02250951
v -0.02356606 0.00000000 0.00204788
v -0.00105655 0.00000000 0.02273423
v -0.00125000 0.00000000 0.02283494
v -0.00143394 0.00000000 0.02295212
v -0.02253798 0.00000000 0.00043412
v -0.02250951 0.00000000 0.00021789
v -0.00000000 0.00000000 0.02250000
v -0.02250000 0.00000000 0.00000000
v -0.00249049 0.00000000 -0.02478211
v -0.02250951 0.00000000 -0.00021789
v -0.02253798 0.00000000 -0.00043412
v -0.02356606 0.00000000 -0.00204788
v -0.02734923 0.00000000 -0.00085505
v -0.02741481 0.00000000 -0.00064705
v -0.02746202 0.00000000 -0.00043412
v 0.02435295 0.00000000 -0.00241481
v 0.02414495 0.00000000 -0.00234923
v 0.02394345 0.00000000 -0.00226577
v 0.02375000 0.00000000 -0.00216506
v 0.02356606 0.00000000 -0.00204788
v 0.02339303 0.00000000 -0.00191511
v 0.02323223 0.00000000 -0.00176777
v 0.02308489 0.00000000 -0.00160697
v 0.02295212 0.00000000 -0.00143394
v -0.00160697 0.00000000 0.02691511
v -0.00143394 0.00000000 0.02704788
v -0.00125000 0.00000000 0.02716506
v 0.00234923 0.00000000 -0.02585505
v 0.00226577 0.00000000 -0.02605654
v 0.00216506 0.00000000 -0.02625000
v 0.00204788 0.00000000 -0.02643394
v -0.00246202 0.00000000 -0.02456588
v -0.02258519 0.00000000 -0.00064705
v -0.02265077 0.00000000 -0.00085505
v -0.02273423 0.00000000 -0.00105655
v -0.02283494 0.00000000 -0.00125000
v -0.02295212 0.00000000 -0.00143394
v -0.00250000 0.00000000 -0.02500000
v -0.02500000 0.00000000 -0.00250000
v -0.02521789 0.00000000 -0.00249049
v -0.02543412 0.00000000 -0.00246202
v -0.02564705 0.00000000 -0.00241481
v -0.02585505 0.00000000 -0.00234923
v -0.02605654 0.00000000 -0.00226577
v 0.02564705 0.00000000 0.00241481
v 0.02585505 0.00000000 0.00234923
v 0.02605654 0.00000000 0.00226577
v 0.02625000 0.00000000 0.00216506
v 0.02704788 0.00000000 0.00143394
v 0.02691511 0.00000000 0.00160697
v 0.02676777 0.00000000 0.00176777
v 0.00191511 0.00000000 -0.02660697
v 0.00176777 0.00000000 -0.02676777
v -0.02643394 0.00000000 0.00204788
v -0.02625000 0.00000000 0.00216506
v -0.02564705 0.00000000 0.00241481
v -0.02543412 0.00000000 0.00246202
v -0.02521789 0.00000000 0.00249049
v -0.02339303 0.00000000 0.00191511
v -0.02323223 0.00000000 0.00176777
v -0.02308489 0.00000000 0.00160697
v -0.02295212 0.00000000 0.00143394
v -0.02283494 0.00000000 0.00125000
v -0.02273423 0.00000000 0.00105655
v -0.02265077 0.00000000 0.00085505
v -0.02258519 0.00000000 0.00064705
v -0.00216506 0.00000000 -0.02625000
v -0.00226577 0.00000000 -0.02605654
v -0.02339303 0.00000000 -0.00191511
v -0.00234923 0.00000000 -0.02585505
v -0.00241481 0.00000000 -0.02564705
v -0.02323223 0.00000000 -0.00176777
v -0.00246202 0.00000000 -0.02543412
v -0.02308489 0.00000000 -0.00160697
v -0.00249049 0.00000000 -0.02521789
v -0.02625000 0.00000000 -0.00216506
v -0.02643394 0.00000000 -0.00204788
v -0.02746202 0.00000000 0.00043412
v -0.02741481 0.00000000 0.00064705
v -0.02734923 0.00000000 0.00085505
v -0.02726577 0.00000000 0.00105655
v -0.00160697 0.00000000 0.02308489
v -0.00176777 0.00000000 0.02323223
v -0.00191511 0.00000000 0.02339303
v 0.02265077 0.00000000 -0.00085505
v 0.02258519 0.00000000 -0.00064705
v -0.00176777 0.00000000 -0.02323223
v 0.02253798 0.00000000 -0.00043412
v -0.00064705 0.00000000 0.02741481
v -0.00043412 0.00000000 0.02746202
v -0.00021789 0.00000000 0.02749049
v 0.02414495 0.00000000 0.00234923
v 0.02394345 0.00000000 0.00226577
v 0.02375000 0.00000000 0.00216506
v 0.02643394 0.00000000 0.00204788
v 0.02660697 0.00000000 0.00191511
v 0.02716506 0.00000000 0.00125000
v 0.02726577 0.00000000 0.00105655
v 0.02734923 0.00000000 0.00085505
v -0.02605654 0.00000000 0.00226577
v -0.02585505 0.00000000 0.00234923
v -0.02500000 0.00000000 0.00250000
v -0.02478211 0.00000000 0.00249049
v -0.02456588 0.00000000 0.00246202
v -0.02435295 0.00000000 0.00241481
v -0.02414495 0.00000000 0.00234923
v -0.00204788 0.00000000 -0.02643394
v -0.02414495 0.00000000 -0.00234923
v -0.02435295 0.00000000 -0.00241481
v -0.02456588 0.00000000 -0.00246202
v -0.02478211 0.00000000 -0.00249049
v -0.02749049 0.00000000 -0.00021789
v -0.02750000 0.00000000 -0.00000000
v -0.02749049 0.00000000 0.00021789
v 0.02250951 0.00000000 -0.00021789
v -0.00191511 0.00000000 -0.02339303
v -0.00000000 0.00000000 0.02750000
v 0.00021789 0.00000000 0.02749049
v 0.00043412 0.00000000 0.02746202
v 0.02741481 0.00000000 0.00064705
v 0.02746202 0.00000000 0.00043412
v 0.02749049 0.00000000 0.00021789
v 0.02750000 0.00000000 0.00000000
v 0.02749049 0.00000000 -0.00021789
v 0.02746202 0.00000000 -0.00043412
v 0.02741481 0.00000000 -0.00064705
v -0.02716506 0.00000000 0.00125000
v -0.02704788 0.00000000 0.00143394
v -0.02691511 0.00000000 0.00160697
v -0.00204788 0.00000000 0.02356606
v -0.00216506 0.00000000 0.02375000
v -0.00226577 0.00000000 0.02394345
v -0.00234923 0.00000000 0.02414495
v -0.00241481 0.00000000 0.02435295
v -0.00246202 0.00000000 0.02456588
v -0.00249049 0.00000000 0.02478211
v 0.02250000 0.00000000 0.00000000
v 0.02250951 0.00000000 0.00021789
v 0.02253798 0.00000000 0.00043412
v 0.00064705 0.00000000 0.02741481
v 0.00085505 0.00000000 0.02734923
v 0.00105655 0.00000000 0.02726577
v 0.02500000 0.00000000 0.00250000
v 0.02521789 0.00000000 0.00249049
v 0.02543412 0.00000000 0.00246202
v 0.02734923 0.00000000 -0.00085505
v 0.02726577 0.00000000 -0.00105655
v 0.02716506 0.00000000 -0.00125000
v -0.02676777 0.00000000 0.00176777
v -0.00250000 0.00000000 0.02500000
v -0.00249049 0.00000000 0.02521789
v -0.00246202 0.00000000 0.02543412
v -0.00241481 0.00000000 0.02564705
v -0.00234923 0.00000000 0.02585505
v 0.02435295 0.00000000 0.00241481
v 0.02456588 0.00000000 0.00246202
v 0.02478211 0.00000000 0.00249049
v 0.00204788 0.00000000 0.02643394
v 0.00216506 0.00000000 0.02625000
v 0.02265077 0.00000000 0.00085505
v 0.00226577 0.00000000 0.02605654
v 0.00234923 0.00000000 0.02585505
v 0.00241481 0.00000000 0.02564705
v 0.00246202 0.00000000 0.02543412
v 0.00249049 0.00000000 0.02521789
v 0.02258519 0.00000000 0.00064705
v 0.00250000 0.00000000 0.02500000
v 0.02273423 0.00000000 0.00105655
v 0.02283494 0.00000000 0.00125000
v 0.00191511 0.00000000 0.02660697
v 0.02295212 0.00000000 0.00143394
v 0.02308489 0.00000000 0.00160697
v 0.00125000 0.00000000 0.02716506
v 0.00143394 0.00000000 0.02704788
v 0.00160697 0.00000000 0.02691511
v 0.00250000 0.00000000 -0.02500000
v 0.00249049 0.00000000 -0.02521789
v 0.02323223 0.00000000 0.00176777
v 0.02339303 0.00000000 0.00191511
v 0.02356606 0.00000000 0.00204788
v 0.02704788 0.00000000 -0.00143394
v 0.02691511 0.00000000 -0.00160697
v 0.02676777 0.00000000 -0.00176777
v 0.00246202 0.00000000 -0.02543412
v 0.00241481 0.00000000 -0.02564705
v 0.00234923 0.00000000 -0.02414495
v 0.00241481 0.00000000 -0.02435295
v 0.00246202 0.00000000 -0.02456588
v 0.00249049 0.00000000 -0.02478211
v 0.00176777 0.00000000 0.02676777
v -0.00021789 0.00300000 -0.02250951
v -0.00043412 0.00300000 -0.02253798
v -0.00249049 0.00300000 0.02478211
v -0.00085505 0.00300000 -0.02265077
v -0.00105655 0.00300000 -0.02273423
v -0.02660697 0.00300000 -0.00191511
v -0.00125000 0.00300000 -0.02283494
v 0.00021789 0.00300000 0.02749049
v -0.00000000 0.00300000 0.02750000
v 0.00000000 0.00300000 0.05100000
v -0.02478211 0.00300000 0.00249049
v -0.02500000 0.00300000 0.00250000
v -0.00021789 0.00300000 -0.02749049
v -0.00021789 0.00300000 0.02749049
v -0.00043412 0.00300000 0.02746202
v -0.00064705 0.00300000 0.02741481
v -0.00176777 0.00300000 0.02676777
v -0.00160697 0.00300000 0.02691511
v -0.00143394 0.00300000 0.02704788
v -0.00143394 0.00300000 -0.02295212
v -0.00160697 0.00300000 -0.02308489
v -0.00176777 0.00300000 -0.02323223
v -0.00085505 0.00300000 0.02734923
v -0.00105655 0.00300000 0.02726577
v -0.00125000 0.00300000 0.02716506
v -0.00191511 0.00300000 0.02660697
v -0.00204788 0.00300000 0.02643394
v -0.00216506 0.00300000 0.02625000
v 0.00000000 0.00300000 -0.02750000
v 0.00021789 0.00300000 -0.02749049
v 0.00043412 0.00300000 -0.02746202
v 0.00105655 0.00300000 -0.02726577
v 0.00125000 0.00300000 -0.02716506
v 0.00143394 0.00300000 -0.02704788
v 0.00160697 0.00300000 -0.02691511
v 0.00176777 0.00300000 -0.02676777
v -0.00191511 0.00300000 -0.02660697
v -0.00176777 0.00300000 -0.02676777
v -0.00125000 0.00300000 -0.02716506
v -0.00105655 0.00300000 -0.02726577
v -0.00085505 0.00300000 -0.02734923
v -0.00204788 0.00300000 0.02356606
v -0.00191511 0.00300000 0.02339303
v 0.00000000 0.00300000 -0.02250000
v -0.00176777 0.00300000 0.02323223
v -0.00160697 0.00300000 -0.02691511
v -0.00143394 0.00300000 -0.02704788
v -0.00064705 0.00300000 -0.02741481
v -0.00043412 0.00300000 -0.02746202
v 0.00125000 0.00300000 -0.02283494
v 0.00105655 0.00300000 -0.02273423
v 0.00105655 0.00300000 0.02726577
v 0.00085505 0.00300000 0.02734923
v -0.00241481 0.00300000 0.02435295
v -0.00234923 0.00300000 0.02414495
v -0.00160697 0.00300000 0.02308489
v -0.00143394 0.00300000 0.02295212
v -0.00125000 0.00300000 0.02283494
v -0.00105655 0.00300000 0.02273423
v -0.00085505 0.00300000 0.02265077
v -0.00064705 0.00300000 0.02258519
v -0.00064705 0.00300000 -0.02258519
v -0.02375000 0.00300000 -0.00216506
v -0.02356606 0.00300000 -0.00204788
v -0.02339303 0.00300000 -0.00191511
v -0.02323223 0.00300000 -0.00176777
v -0.02308489 0.00300000 -0.00160697
v -0.02356606 0.00300000 0.00204788
v -0.02375000 0.00300000 0.00216506
v -0.02394345 0.00300000 0.00226577
v -0.00191511 0.00300000 -0.02339303
v -0.00204788 0.00300000 -0.02356606
v -0.00216506 0.00300000 -0.02375000
v 0.00064705 0.00300000 -0.02741481
v 0.00085505 0.00300000 -0.02734923
v 0.00216506 0.00300000 -0.02625000
v 0.00226577 0.00300000 -0.02605654
v 0.02585505 0.00300000 0.00234923
v 0.02605654 0.00300000 0.00226577
v 0.02625000 0.00300000 0.00216506
v 0.02265077 0.00300000 -0.00085505
v 0.02273423 0.00300000 -0.00105655
v 0.02283494 0.00300000 -0.00125000
v -0.00226577 0.00300000 0.02394345
v -0.00216506 0.00300000 0.02375000
v -0.00043412 0.00300000 0.02253798
v -0.00021789 0.00300000 0.02250951
v 0.00021789 0.00300000 -0.02250951
v -0.00000000 0.00300000 0.02250000
v -0.02625000 0.00300000 -0.00216506
v -0.02605654 0.00300000 -0.00226577
v -0.02585505 0.00300000 -0.00234923
v -0.02564705 0.00300000 -0.00241481
v -0.02295212 0.00300000 -0.00143394
v -0.02283494 0.00300000 -0.00125000
v -0.02273423 0.00300000 -0.00105655
v -0.02265077 0.00300000 -0.00085505
v -0.02258519 0.00300000 -0.00064705
v -0.02253798 0.00300000 -0.00043412
v -0.02250951 0.00300000 -0.00021789
v -0.02250000 0.00300000 0.00000000
v -0.02250951 0.00300000 0.00021789
v -0.02253798 0.00300000 0.00043412
v -0.00246202 0.00300000 0.02543412
v -0.00249049 0.00300000 0.02521789
v -0.02295212 0.00300000 0.00143394
v 0.02746202 0.00300000 0.00043412
v 0.02741481 0.00300000 0.00064705
v 0.02564705 0.00300000 0.00241481
v 0.02543412 0.00300000 0.00246202
v 0.02521789 0.00300000 0.00249049
v 0.02295212 0.00300000 -0.00143394
v 0.02308489 0.00300000 -0.00160697
v 0.00143394 0.00300000 -0.02295212
v 0.00064705 0.00300000 0.02741481
v 0.00043412 0.00300000 0.02746202
v -0.00246202 0.00300000 0.02456588
v 0.00021789 0.00300000 0.02250951
v 0.00043412 0.00300000 0.02253798
v 0.00064705 0.00300000 0.02258519
v -0.02643394 0.00300000 -0.00204788
v -0.02543412 0.00300000 -0.00246202
v -0.02521789 0.00300000 -0.00249049
v -0.02500000 0.00300000 -0.00250000
v -0.02478211 0.00300000 -0.00249049
v -0.02456588 0.00300000 -0.00246202
v -0.02435295 0.00300000 -0.00241481
v -0.02414495 0.00300000 -0.00234923
v -0.02394345 0.00300000 -0.00226577
v -0.02258519 0.00300000 0.00064705
v -0.02265077 0.00300000 0.00085505
v -0.02273423 0.00300000 0.00105655
v -0.00250000 0.00300000 0.02500000
v -0.02283494 0.00300000 0.00125000
v -0.02734923 0.00300000 -0.00085505
v -0.02726577 0.00300000 -0.00105655
v -0.02716506 0.00300000 -0.00125000
v -0.02704788 0.00300000 -0.00143394
v 0.02716506 0.00300000 0.00125000
v 0.02704788 0.00300000 0.00143394
v 0.02691511 0.00300000 0.00160697
v 0.02676777 0.00300000 0.00176777
v 0.02250000 0.00300000 0.00000000
v 0.02250951 0.00300000 -0.00021789
v 0.00085505 0.00300000 0.02265077
v 0.00105655 0.00300000 0.02273423
v 0.00125000 0.00300000 0.02283494
v -0.02339303 0.00300000 0.00191511
v -0.00226577 0.00300000 0.02605654
v -0.02323223 0.00300000 0.00176777
v -0.00234923 0.00300000 0.02585505
v -0.02308489 0.00300000 0.00160697
v -0.00241481 0.00300000 0.02564705
v -0.02414495 0.00300000 0.00234923
v -0.02435295 0.00300000 0.00241481
v -0.02456588 0.00300000 0.00246202
v -0.02749049 0.00300000 -0.00021789
v -0.02746202 0.00300000 -0.00043412
v -0.02741481 0.00300000 -0.00064705
v -0.02691511 0.00300000 -0.00160697
v -0.02676777 0.00300000 -0.00176777
v -0.00246202 0.00300000 -0.02456588
v -0.00249049 0.00300000 -0.02478211
v -0.00250000 0.00300000 -0.02500000
v -0.00226577 0.00300000 -0.02605654
v -0.00234923 0.00300000 -0.02585505
v -0.00241481 0.00300000 -0.02564705
v -0.00216506 0.00300000 -0.02625000
v -0.00204788 0.00300000 -0.02643394
v 0.00191511 0.00300000 -0.02660697
v 0.00204788 0.00300000 -0.02643394
v 0.02660697 0.00300000 0.00191511
v 0.02643394 0.00300000 0.00204788
v 0.02500000 0.00300000 0.00250000
v 0.02478211 0.00300000 0.00249049
v 0.02456588 0.00300000 0.00246202
v 0.02435295 0.00300000 0.00241481
v 0.02414495 0.00300000 0.00234923
v 0.02394345 0.00300000 0.00226577
v 0.02253798 0.00300000 -0.00043412
v 0.02258519 0.00300000 -0.00064705
v 0.00191511 0.00300000 0.02660697
v 0.00204788 0.00300000 0.02643394
v 0.00216506 0.00300000 0.02625000
v 0.00143394 0.00300000 0.02704788
v 0.00125000 0.00300000 0.02716506
v 0.00143394 0.00300000 0.02295212
v 0.00160697 0.00300000 0.02308489
v 0.00176777 0.00300000 0.02323223
v -0.00226577 0.00300000 -0.02394345
v -0.00234923 0.00300000 -0.02414495
v -0.00241481 0.00300000 -0.02435295
v -0.00249049 0.00300000 -0.02521789
v -0.00246202 0.00300000 -0.02543412
v 0.00234923 0.00300000 -0.02585505
v 0.00241481 0.00300000 -0.02564705
v 0.00246202 0.00300000 -0.02543412
v 0.00249049 0.00300000 -0.02521789
v 0.00250000 0.00300000 -0.02500000
v 0.00249049 0.00300000 -0.02478211
v 0.02625000 0.00300000 -0.00216506
v 0.02643394 0.00300000 -0.00204788
v 0.00216506 0.00300000 -0.02375000
v 0.02660697 0.00300000 -0.00191511
v 0.00226577 0.00300000 -0.02394345
v 0.02734923 0.00300000 0.00085505
v 0.02726577 0.00300000 0.00105655
v 0.02375000 0.00300000 0.00216506
v 0.02356606 0.00300000 0.00204788
v 0.02339303 0.00300000 0.00191511
v 0.02323223 0.00300000 0.00176777
v 0.02308489 0.00300000 0.00160697
v 0.02295212 0.00300000 0.00143394
v 0.02283494 0.00300000 0.00125000
v 0.00241481 0.00300000 0.02564705
v 0.00234923 0.00300000 0.02585505
v 0.00226577 0.00300000 0.02605654
v 0.00176777 0.00300000 0.02676777
v 0.00160697 0.00300000 0.02691511
v 0.00191511 0.00300000 0.02339303
v 0.00204788 0.00300000 0.02356606
v 0.00216506 0.00300000 0.02375000
v -0.02521789 0.00300000 0.00249049
v -0.02543412 0.00300000 0.00246202
v -0.02564705 0.00300000 0.00241481
v -0.02585505 0.00300000 0.00234923
v -0.02605654 0.00300000 0.00226577
v -0.02625000 0.00300000 0.00216506
v -0.02716506 0.00300000 0.00125000
v -0.02726577 0.00300000 0.00105655
v -0.02734923 0.00300000 0.00085505
v -0.02741481 0.00300000 0.00064705
v 0.02746202 0.00300000 -0.00043412
v 0.02741481 0.00300000 -0.00064705
v 0.02734923 0.00300000 -0.00085505
v 0.02749049 0.00300000 -0.00021789
v 0.02750000 0.00300000 0.00000000
v 0.02749049 0.00300000 0.00021789
v 0.02258519 0.00300000 0.00064705
v 0.02253798 0.00300000 0.00043412
v 0.02250951 0.00300000 0.00021789
v 0.02339303 0.00300000 -0.00191511
v 0.02356606 0.00300000 -0.00204788
v 0.02375000 0.00300000 -0.00216506
v 0.02500000 0.00300000 -0.00250000
v 0.02521789 0.00300000 -0.00249049
v 0.02543412 0.00300000 -0.00246202
v 0.02564705 0.00300000 -0.00241481
v 0.02585505 0.00300000 -0.00234923
v 0.02605654 0.00300000 -0.00226577
v 0.00250000 0.00300000 0.02500000
v 0.00249049 0.00300000 0.02521789
v 0.00246202 0.00300000 0.02543412
v 0.00226577 0.00300000 0.02394345
v 0.00234923 0.00300000 0.02414495
v 0.00241481 0.00300000 0.02435295
v -0.02643394 0.00300000 0.00204788
v -0.02660697 0.00300000 0.00191511
v -0.02676777 0.00300000 0.00176777
v -0.02691511 0.00300000 0.00160697
v -0.02704788 0.00300000 0.00143394
v -0.02746202 0.00300000 0.00043412
v -0.02749049 0.00300000 0.00021789
v -0.02750000 0.00300000 -0.00000000
v 0.02676777 0.00300000 -0.00176777
v 0.02691511 0.00300000 -0.00160697
v 0.02704788 0.00300000 -0.00143394
v 0.02273423 0.00300000 0.00105655
v 0.02265077 0.00300000 0.00085505
v 0.00204788 0.00300000 -0.02356606
v 0.00191511 0.00300000 -0.02339303
v 0.02323223 0.00300000 -0.00176777
v 0.00176777 0.00300000 -0.02323223
v 0.00160697 0.00300000 -0.02308489
v 0.02394345 0.00300000 -0.00226577
v 0.02414495 0.00300000 -0.00234923
v 0.02435295 0.00300000 -0.00241481
v 0.02456588 0.00300000 -0.00246202
v 0.02478211 0.00300000 -0.00249049
v 0.00246202 0.00300000 -0.02456588
v 0.00241481 0.00300000 -0.02435295
v 0.00234923 0.00300000 -0.02414495
v 0.02716506 0.00300000 -0.00125000
v 0.02726577 0.00300000 -0.00105655
v 0.00246202 0.00300000 0.02456588
v 0.00249049 0.00300000 0.02478211
v 0.00043412 0.00300000 -0.02253798
v 0.00064705 0.00300000 -0.02258519
v 0.00085505 0.00300000 -0.02265077
v 0.00000000 0.08300000 0.05100000
v 0.01204462 0.01717023 0.05100000
v 0.02015254 0.02284746 0.05100000
v 0.01831945 0.02116773 0.05100000
v 0.01634693 0.01965417 0.05100000
v 0.02183227 0.02468055 0.05100000
v 0.01425000 0.01831828 0.05100000
v 0.00248394 0.01460845 0.05100000
v 0.00494897 0.01493298 0.05100000
v 0.00737634 0.01547111 0.05100000
v 0.02334583 0.02665307 0.05100000
v 0.00974757 0.01621876 0.05100000
v 0.02752889 0.03562366 0.05100000
v 0.02806702 0.03805103 0.05100000
v 0.02839155 0.04051606 0.05100000
v 0.02850000 0.04300000 0.05100000
v 0.02468172 0.02875000 0.05100000
v 0.02582977 0.03095538 0.05100000
v 0.02678124 0.03325243 0.05100000
v -0.02600000 0.01950000 0.05100000
v -0.02599049 0.01928211 0.05100000
v -0.02599049 0.01971789 0.05100000
v -0.02596202 0.01993412 0.05100000
v -0.02596202 0.01906588 0.05100000
v -0.02591481 0.01885295 0.05100000
v -0.02584923 0.01864495 0.05100000
v -0.02576577 0.01844345 0.05100000
v -0.02566506 0.01825000 0.05100000
v -0.02554788 0.01806606 0.05100000
v -0.02566506 0.02075000 0.05100000
v -0.02576577 0.02055654 0.05100000
v -0.02584923 0.02035505 0.05100000
v -0.02591481 0.02014705 0.05100000
v -0.02541511 0.01789303 0.05100000
v -0.02526777 0.01773223 0.05100000
v -0.02510697 0.01758489 0.05100000
v -0.02015254 0.02284746 0.05100000
v -0.02158489 0.02110697 0.05100000
v -0.02173223 0.02126777 0.05100000
v -0.02306588 0.01703798 0.05100000
v -0.02285295 0.01708519 0.05100000
v -0.02173223 0.01773223 0.05100000
v -0.02158489 0.01789303 0.05100000
v -0.02145212 0.01806606 0.05100000
v -0.02133494 0.01825000 0.05100000
v -0.00737634 0.01547111 0.05100000
v -0.00494897 0.01493298 0.05100000
v -0.02100000 0.01950000 0.05100000
v -0.02100951 0.01971789 0.05100000
v -0.01634693 0.01965417 0.05100000
v -0.02103798 0.01993412 0.05100000
v -0.01831945 0.02116773 0.05100000
v -0.02108519 0.02014705 0.05100000
v -0.02115077 0.02035505 0.05100000
v -0.02123423 0.02055654 0.05100000
v -0.02133494 0.02075000 0.05100000
v -0.02145212 0.02093394 0.05100000
v -0.02493394 0.01745212 0.05100000
v -0.02475000 0.01733494 0.05100000
v -0.02455655 0.01723423 0.05100000
v -0.02393412 0.01703798 0.05100000
v -0.02371789 0.01700951 0.05100000
v -0.02350000 0.01700000 0.05100000
v -0.02328211 0.01700951 0.05100000
v -0.00248394 0.01460845 0.05100000
v 0.00000000 0.01450000 0.05100000
v -0.02839155 0.04051606 0.05100000
v -0.02806702 0.03805103 0.05100000
v -0.02752889 0.03562366 0.05100000
v -0.02526777 0.02126777 0.05100000
v -0.02510697 0.02141511 0.05100000
v -0.02493394 0.02154788 0.05100000
v -0.02541511 0.02110697 0.05100000
v -0.02554788 0.02093394 0.05100000
v -0.02435505 0.01715077 0.05100000
v -0.02414705 0.01708519 0.05100000
v -0.02108519 0.01885295 0.05100000
v -0.02115077 0.01864495 0.05100000
v -0.02123423 0.01844345 0.05100000
v -0.02100951 0.01928211 0.05100000
v -0.01425000 0.01831828 0.05100000
v -0.02103798 0.01906588 0.05100000
v -0.01204462 0.01717023 0.05100000
v -0.00974757 0.01621876 0.05100000
v -0.02189303 0.02141511 0.05100000
v -0.02206606 0.02154788 0.05100000
v -0.02183227 0.02468055 0.05100000
v -0.02225000 0.02166506 0.05100000
v -0.02244345 0.02176577 0.05100000
v -0.02264495 0.02184923 0.05100000
v -0.02285295 0.02191481 0.05100000
v -0.02334583 0.02665307 0.05100000
v -0.02306588 0.02196202 0.05100000
v -0.02328211 0.02199049 0.05100000
v -0.02350000 0.02200000 0.05100000
v -0.02468172 0.02875000 0.05100000
v -0.02371789 0.02199049 0.05100000
v -0.02582977 0.03095538 0.05100000
v -0.02393412 0.02196202 0.05100000
v -0.02414705 0.02191481 0.05100000
v -0.02678124 0.03325243 0.05100000
v -0.02435505 0.02184923 0.05100000
v -0.02455655 0.02176577 0.05100000
v -0.02475000 0.02166506 0.05100000
v -0.02264495 0.01715077 0.05100000
v -0.02244345 0.01723423 0.05100000
v -0.02225000 0.01733494 0.05100000
v -0.02206606 0.01745212 0.05100000
v -0.02189303 0.01758489 0.05100000
v -0.02806702 0.04794897 0.05100000
v -0.02839155 0.04548394 0.05100000
v -0.02850000 0.04300000 0.05100000
v -0.02752889 0.05037634 0.05100000
v -0.02334583 0.05934693 0.05100000
v -0.02183227 0.06131945 0.05100000
v -0.02015254 0.06315254 0.05100000
v -0.02468172 0.05725000 0.05100000
v -0.02582977 0.05504462 0.05100000
v -0.02678124 0.05274757 0.05100000
v -0.01831945 0.06483227 0.05100000
v -0.01634693 0.06634583 0.05100000
v -0.01204462 0.06882977 0.05100000
v -0.00974757 0.06978124 0.05100000
v -0.00737634 0.07052889 0.05100000
v -0.00000000 0.07150000 0.05100000
v -0.00248394 0.07139155 0.05100000
v -0.00494897 0.07106702 0.05100000
v -0.01425000 0.06768172 0.05100000
v 0.02015254 0.06315254 0.05100000
v 0.02183227 0.06131945 0.05100000
v 0.02334583 0.05934693 0.05100000
v 0.02752889 0.05037634 0.05100000
v 0.02678124 0.05274757 0.05100000
v 0.02582977 0.05504462 0.05100000
v 0.01634693 0.06634583 0.05100000
v 0.01831945 0.06483227 0.05100000
v 0.01425000 0.06768172 0.05100000
v 0.01204462 0.06882977 0.05100000
v 0.02468172 0.05725000 0.05100000
v 0.02839155 0.04548394 0.05100000
v 0.02806702 0.04794897 0.05100000
v 0.00737634 0.07052889 0.05100000
v 0.00494897 0.07106702 0.05100000
v 0.00248394 0.07139155 0.05100000
v 0.00974757 0.06978124 0.05100000
f 1 2 3
f 2 4 3
f 3 4 5
f 4 6 5
f 5 6 7
f 6 8 7
f 7 8 9
f 8 10 9
f 9 10 11
f 10 12 11
f 11 12 13
f 12 14 13
f 13 14 15
f 14 16 15
f 15 16 17
f 16 18 17
f 17 18 19
f 18 20 19
f 19 20 21
f 20 22 21
f 21 22 23
f 22 24 23
f 23 24 25
f 24 26 25
f 25 26 27
f 26 28 27
f 27 28 29
f 28 30 29
f 29 30 31
f 30 32 31
f 31 32 33
f 32 34 33
f 33 34 35
f 34 36 35
f 35 36 37
f 36 38 37
f 37 38 39
f 38 40 39
f 39 40 41
f 40 42 41
f 41 42 43
f 42 44 43
f 43 44 45
f 44 46 45
f 45 46 47
f 46 48 47
f 47 48 49
f 48 50 49
f 49 50 51
f 50 52 51
f 51 52 53
f 52 54 53
f 53 54 55
f 54 56 55
f 55 56 57
f 56 58 57
f 57 58 59
f 58 60 59
f 59 60 61
f 60 62 61
f 61 62 63
f 62 64 63
f 63 64 65
f 64 66 65
f 65 66 67
f 66 68 67
f 67 68 69
f 68 70 69
f 69 70 71
f 70 72 71
f 71 72 73
f 72 74 73
f 73 74 75
f 74 76 75
f 75 76 77
f 76 78 77
f 77 78 79
f 78 80 79
f 79 80 81
f 80 82 81
f 81 82 83
f 82 84 83
f 83 84 85
f 84 86 85
f 85 86 87
f 86 88 87
f 87 88 89
f 88 90 89
f 89 90 91
f 90 92 91
f 91 92 93
f 92 94 93
f 93 94 95
f 94 96 95
f 95 96 97
f 96 98 97
f 97 98 99
f 98 100 99
f 99 100 101
f 100 102 101
f 101 102 103
f 102 104 103
f 103 104 105
f 104 106 105
f 105 106 107
f 106 108 107
f 107 108 109
f 108 110 109
f 109 110 111
f 110 112 111
f 111 112 113
f 112 114 113
f 113 114 115
f 114 116 115
f 115 116 117
f 116 118 117
f 117 118 119
f 118 120 119
f 119 120 121
f 120 122 121
f 121 122 123
f 122 124 123
f 123 124 125
f 124 126 125
f 125 126 127
f 126 128 127
f 127 128 129
f 128 130 129
f 129 130 131
f 130 132 131
f 131 132 133
f 132 134 133
f 133 134 135
f 134 136 135
f 135 136 137
f 136 138 137
f 137 138 139
f 138 140 139
f 139 140 141
f 140 142 141
f 141 142 143
f 142 144 143
f 143 144 1
f 144 2 1
f 145 146 147
f 146 148 147
f 147 148 149
f 148 150 149
f 149 150 151
f 150 152 151
f 151 152 153
f 152 154 153
f 153 154 155
f 154 156 155
f 155 156 157
f 156 158 157
f 157 158 159
f 158 160 159
f 159 160 161
f 160 162 161
f 161 162 163
f 162 164 163
f 163 164 165
f 164 166 165
f 165 166 167
f 166 168 167
f 167 168 169
f 168 170 169
f 169 170 171
f 170 172 171
f 171 172 173
f 172 174 173
f 173 174 175
f 174 176 175
f 175 176 177
f 176 178 177
f 177 178 179
f 178 180 179
f 179 180 181
f 180 182 181
f 181 182 183
f 182 184 183
f 183 184 185
f 184 186 185
f 185 186 187
f 186 188 187
f 187 188 189
f 188 190 189
f 189 190 191
f 190 192 191
f 191 192 193
f 192 194 193
f 193 194 195
f 194 196 195
f 195 196 197
f 196 198 197
f 197 198 199
f 198 200 199
f 199 200 201
f 200 202 201
f 201 202 203
f 202 204 203
f 203 204 205
f 204 206 205
f 205 206 207
f 206 208 207
f 207 208 209
f 208 210 209
f 209 210 211
f 210 212 211
f 211 212 213
f 212 214 213
f 213 214 215
f 214 216 215
f 215 216 217
f 216 218 217
f 217 218 219
f 218 220 219
f 219 220 221
f 220 222 221
f 221 222 223
f 222 224 223
f 223 224 225
f 224 226 225
f 225 226 227
f 226 228 227
f 227 228 229
f 228 230 229
f 229 230 231
f 230 232 231
f 231 232 233
f 232 234 233
f 233 234 235
f 234 236 235
f 235 236 237
f 236 238 237
f 237 238 239
f 238 240 239
f 239 240 241
f 240 242 241
f 241 242 243
f 242 244 243
f 243 244 245
f 244 246 245
f 245 246 247
f 246 248 247
f 247 248 249
f 248 250 249
f 249 250 251
f 250 252 251
f 251 252 253
f 252 254 253
f 253 254 255
f 254 256 255
f 255 256 257
f 256 258 257
f 257 258 259
f 258 260 259
f 259 260 261
f 260 262 261
f 261 262 263
f 262 264 263
f 263 264 265
f 264 266 265
f 265 266 267
f 266 268 267
f 267 268 269
f 268 270 269
f 269 270 271
f 270 272 271
f 271 272 273
f 272 274 273
f 273 274 275
f 274 276 275
f 275 276 277
f 276 278 277
f 277 278 279
f 278 280 279
f 279 280 281
f 280 282 281
f 281 282 283
f 282 284 283
f 283 284 285
f 284 286 285
f 285 286 287
f 286 288 287
f 287 288 145
f 288 146 145
f 289 290 291
f 290 292 291
f 291 292 293
f 292 294 293
f 293 294 295
f 294 296 295
f 295 296 297
f 296 298 297
f 297 298 299
f 298 300 299
f 299 300 301
f 300 302 301
f 301 302 303
f 302 304 303
f 303 304 305
f 304 306 305
f 305 306 307
f 306 308 307
f 307 308 309
f 308 310 309
f 309 310 311
f 310 312 311
f 311 312 313
f 312 314 313
f 313 314 315
f 314 316 315
f 315 316 317
f 316 318 317
f 317 318 319
f 318 320 319
f 319 320 321
f 320 322 321
f 321 322 323
f 322 324 323
f 323 324 325
f 324 326 325
f 325 326 327
f 326 328 327
f 327 328 329
f 328 330 329
f 329 330 331
f 330 332 331
f 331 332 333
f 332 334 333
f 333 334 335
f 334 336 335
f 335 336 337
f 336 338 337
f 337 338 339
f 338 340 339
f 339 340 341
f 340 342 341
f 341 342 343
f 342 344 343
f 343 344 345
f 344 346 345
f 345 346 347
f 346 348 347
f 347 348 349
f 348 350 349
f 349 350 351
f 350 352 351
f 351 352 353
f 352 354 353
f 353 354 355
f 354 356 355
f 355 356 357
f 356 358 357
f 357 358 359
f 358 360 359
f 359 360 361
f 360 362 361
f 361 362 363
f 362 364 363
f 363 364 365
f 364 366 365
f 365 366 367
f 366 368 367
f 367 368 369
f 368 370 369
f 369 370 371
f 370 372 371
f 371 372 373
f 372 374 373
f 373 374 375
f 374 376 375
f 375 376 377
f 376 378 377
f 377 378 379
f 378 380 379
f 379 380 381
f 380 382 381
f 381 382 383
f 382 384 383
f 383 384 385
f 384 386 385
f 385 386 387
f 386 388 387
f 387 388 389
f 388 390 389
f 389 390 391
f 390 392 391
f 391 392 393
f 392 394 393
f 393 394 395
f 394 396 395
f 395 396 397
f 396 398 397
f 397 398 399
f 398 400 399
f 399 400 401
f 400 402 401
f 401 402 403
f 402 404 403
f 403 404 405
f 404 406 405
f 405 406 407
f 406 408 407
f 407 408 409
f 408 410 409
f 409 410 411
f 410 412 411
f 411 412 413
f 412 414 413
f 413 414 415
f 414 416 415
f 415 416 417
f 416 418 417
f 417 418 419
f 418 420 419
f 419 420 421
f 420 422 421
f 421 422 423
f 422 424 423
f 423 424 425
f 424 426 425
f 425 426 427
f 426 428 427
f 427 428 429
f 428 430 429
f 429 430 431
f 430 432 431
f 431 432 289
f 432 290 289
f 433 1 434
f 1 3 434
f 434 3 5
f 5 7 434
f 7 9 434
f 434 9 11
f 109 433 107
f 433 435 107
f 109 111 433
f 111 113 433
f 433 113 115
f 139 141 433
f 141 143 433
f 433 143 1
f 95 97 435
f 97 99 435
f 435 99 101
f 101 103 435
f 103 105 435
f 435 105 107
f 115 117 433
f 117 119 433
f 433 119 121
f 121 123 433
f 123 125 433
f 433 125 127
f 434 17 19
f 436 53 55
f 87 89 435
f 127 129 433
f 129 131 433
f 433 131 133
f 11 13 434
f 13 15 434
f 434 15 17
f 437 438 434
f 438 439 434
f 434 439 440
f 37 39 441
f 39 41 441
f 441 41 442
f 41 43 442
f 442 43 45
f 89 91 435
f 91 93 435
f 435 93 95
f 133 135 433
f 135 137 433
f 433 137 139
f 19 21 434
f 21 23 434
f 434 23 25
f 45 47 442
f 47 49 442
f 442 49 436
f 49 51 436
f 436 51 53
f 37 441 35
f 441 443 35
f 35 443 33
f 443 444 33
f 33 444 31
f 444 445 31
f 445 437 31
f 31 437 29
f 437 434 29
f 29 434 27
f 434 25 27
f 55 57 436
f 57 59 436
f 436 59 446
f 59 61 446
f 446 61 63
f 447 79 448
f 79 449 448
f 450 451 435
f 451 452 435
f 435 452 449
f 63 65 446
f 65 67 446
f 446 67 453
f 67 69 453
f 69 71 453
f 71 73 453
f 453 73 454
f 73 75 454
f 454 75 447
f 75 77 447
f 447 77 79
f 79 81 449
f 81 83 449
f 449 83 435
f 83 85 435
f 435 85 87
f 243 245 455
f 257 259 435
f 251 253 455
f 235 237 455
f 455 253 435
f 253 255 435
f 435 255 257
f 259 261 435
f 261 263 435
f 435 263 265
f 456 161 163
f 457 458 459
f 237 239 455
f 239 241 455
f 455 241 243
f 245 247 455
f 247 249 455
f 455 249 251
f 171 173 460
f 173 175 460
f 460 175 461
f 175 177 461
f 459 462 187
f 462 463 187
f 197 199 457
f 265 267 435
f 267 269 435
f 435 269 271
f 271 273 435
f 273 275 435
f 435 275 277
f 163 165 456
f 165 167 456
f 456 167 460
f 167 169 460
f 460 169 171
f 197 457 195
f 464 465 435
f 465 466 435
f 435 466 450
f 177 179 461
f 179 181 461
f 461 181 467
f 181 183 467
f 467 183 463
f 183 185 463
f 463 185 187
f 145 147 468
f 147 149 468
f 468 149 469
f 149 151 469
f 469 151 153
f 153 155 469
f 155 157 469
f 469 157 456
f 157 159 456
f 456 159 161
f 187 189 459
f 189 191 459
f 459 191 457
f 191 193 457
f 457 193 195
f 145 468 287
f 468 470 287
f 287 470 285
f 470 471 285
f 285 471 283
f 205 207 457
f 207 209 457
f 457 209 211
f 211 213 457
f 213 215 457
f 457 215 455
f 215 217 455
f 217 219 455
f 219 221 455
f 455 221 223
f 471 472 283
f 472 464 283
f 283 464 281
f 464 435 281
f 281 435 279
f 435 277 279
f 199 201 457
f 201 203 457
f 457 203 205
f 229 231 455
f 231 233 455
f 455 233 235
f 223 225 455
f 225 227 455
f 455 227 229
f 473 474 457
f 475 476 477
f 474 478 457
f 478 479 457
f 457 479 480
f 481 482 457
f 482 483 457
f 457 483 458
f 484 485 486
f 487 488 489
f 477 476 490
f 491 486 492
f 486 493 492
f 488 494 489
f 494 495 489
f 489 495 496
f 490 476 497
f 476 498 497
f 497 498 485
f 491 499 486
f 499 500 486
f 486 500 501
f 502 503 457
f 503 504 457
f 480 505 457
f 505 506 457
f 457 506 507
f 508 509 510
f 485 498 486
f 498 511 486
f 486 511 493
f 501 512 486
f 512 513 486
f 486 513 514
f 496 515 489
f 515 516 489
f 489 516 517
f 517 518 489
f 518 519 489
f 489 519 457
f 519 520 457
f 457 520 502
f 504 521 457
f 521 522 457
f 457 522 473
f 523 524 525
f 524 526 525
f 525 526 527
f 526 528 527
f 528 529 527
f 529 530 527
f 527 530 531
f 530 532 531
f 531 532 477
f 532 533 477
f 477 533 475
f 514 534 486
f 534 535 486
f 486 535 489
f 535 536 489
f 537 538 489
f 538 539 489
f 489 539 487
f 540 541 542
f 541 543 542
f 542 543 544
f 543 545 544
f 544 545 546
f 545 547 546
f 546 547 507
f 547 548 507
f 507 548 457
f 548 549 457
f 457 549 481
f 540 550 541
f 550 551 541
f 541 551 552
f 551 553 552
f 552 553 554
f 554 555 552
f 555 556 552
f 552 556 508
f 556 557 508
f 508 557 509
f 510 558 508
f 558 559 508
f 508 559 525
f 559 560 525
f 525 560 523
f 536 561 489
f 561 562 489
f 489 562 563
f 563 564 489
f 564 565 489
f 489 565 537
f 295 566 293
f 566 291 293
f 295 297 566
f 297 299 566
f 566 299 301
f 427 429 434
f 429 431 434
f 434 431 566
f 431 289 566
f 566 289 291
f 301 303 566
f 303 305 566
f 566 305 307
f 411 413 434
f 413 415 434
f 421 423 434
f 423 425 434
f 434 425 427
f 415 417 434
f 417 419 434
f 434 419 421
f 343 345 486
f 329 331 486
f 567 377 379
f 393 568 391
f 568 569 391
f 391 569 389
f 569 387 389
f 566 313 315
f 315 317 566
f 317 319 566
f 566 319 321
f 321 323 566
f 323 325 566
f 566 325 486
f 325 327 486
f 486 327 329
f 570 571 486
f 571 572 486
f 486 572 484
f 307 309 566
f 309 311 566
f 566 311 313
f 337 339 486
f 339 341 486
f 486 341 343
f 379 381 567
f 381 383 567
f 567 383 569
f 383 385 569
f 569 385 387
f 331 333 486
f 333 335 486
f 486 335 337
f 345 347 486
f 347 349 486
f 486 349 570
f 349 351 570
f 570 351 573
f 351 353 573
f 573 353 355
f 369 371 574
f 371 373 574
f 574 373 567
f 373 375 567
f 567 375 377
f 575 576 403
f 576 577 403
f 361 363 578
f 363 365 578
f 578 365 574
f 365 367 574
f 574 367 369
f 361 578 359
f 578 579 359
f 359 579 357
f 579 580 357
f 357 580 355
f 580 581 355
f 355 581 573
f 393 395 568
f 395 397 568
f 568 397 582
f 397 399 582
f 582 399 577
f 399 401 577
f 577 401 403
f 440 583 434
f 583 584 434
f 434 584 575
f 403 405 575
f 405 407 575
f 575 407 434
f 407 409 434
f 434 409 411
f 585 586 587
f 586 588 587
f 587 588 589
f 588 489 589
f 589 489 590
f 489 457 590
f 590 457 591
f 457 455 591
f 586 592 588
f 592 593 588
f 594 433 595
f 433 434 595
f 595 434 596
f 434 566 596
f 596 566 597
f 566 593 597
f 597 593 598
f 593 592 598
f 599 600 601
f 602 603 601
f 603 604 601
f 601 604 599
f 602 601 605
f 601 606 605
f 605 606 607
f 606 608 607
f 607 608 609
f 609 610 607
f 610 611 607
f 607 611 612
f 613 614 593
f 614 615 593
f 593 615 588
f 615 616 588
f 588 616 617
f 618 619 620
f 621 622 623
f 624 625 626
f 627 628 593
f 628 629 593
f 593 629 630
f 621 623 631
f 612 632 607
f 632 633 607
f 607 633 626
f 633 634 626
f 626 634 624
f 630 635 593
f 635 636 593
f 593 636 613
f 625 637 626
f 637 638 626
f 626 638 639
f 640 641 619
f 641 642 619
f 619 642 620
f 639 643 626
f 643 644 626
f 626 644 645
f 646 647 588
f 648 649 489
f 650 651 652
f 653 654 619
f 654 655 619
f 647 656 588
f 656 657 588
f 588 657 658
f 631 623 619
f 623 659 619
f 619 659 660
f 655 661 619
f 661 662 619
f 619 662 663
f 663 664 619
f 664 665 619
f 619 665 640
f 666 667 588
f 617 668 588
f 668 669 588
f 588 669 646
f 670 671 672
f 649 673 489
f 673 674 489
f 489 674 675
f 645 676 626
f 676 677 626
f 626 677 678
f 660 679 619
f 679 680 619
f 619 680 653
f 670 672 681
f 682 683 684
f 666 588 685
f 667 686 588
f 686 687 588
f 588 687 688
f 600 689 601
f 689 690 601
f 601 690 691
f 486 692 693
f 694 695 696
f 695 697 696
f 671 698 672
f 698 699 672
f 672 699 700
f 701 702 703
f 702 704 703
f 705 706 707
f 682 684 708
f 688 709 588
f 709 710 588
f 588 710 711
f 691 712 601
f 712 713 601
f 601 713 714
f 714 715 601
f 715 716 601
f 601 716 717
f 717 718 601
f 718 719 601
f 601 719 652
f 719 720 652
f 652 720 650
f 675 721 489
f 721 722 489
f 489 722 486
f 722 723 486
f 486 723 692
f 724 725 593
f 725 726 593
f 593 726 727
f 618 620 728
f 620 703 728
f 728 703 705
f 703 704 705
f 705 704 706
f 707 729 705
f 729 730 705
f 705 730 731
f 731 732 705
f 732 733 705
f 705 733 734
f 735 736 588
f 736 737 588
f 737 738 588
f 738 739 588
f 588 739 740
f 741 742 566
f 742 743 566
f 566 743 744
f 745 566 746
f 566 747 746
f 727 748 593
f 748 749 593
f 593 749 627
f 681 672 696
f 672 750 696
f 696 750 751
f 752 753 696
f 753 754 696
f 697 755 696
f 755 756 696
f 696 756 703
f 756 757 703
f 757 758 703
f 758 759 703
f 703 759 760
f 760 761 703
f 761 762 703
f 703 762 701
f 763 764 765
f 764 766 765
f 766 767 765
f 765 767 768
f 767 769 768
f 768 769 770
f 770 769 733
f 769 771 733
f 733 771 734
f 740 772 588
f 772 773 588
f 588 773 685
f 774 775 489
f 775 776 489
f 489 776 777
f 700 778 672
f 778 779 672
f 672 779 780
f 651 781 652
f 781 782 652
f 652 782 783
f 782 784 783
f 693 785 486
f 785 786 486
f 486 786 787
f 788 486 789
f 486 790 789
f 744 791 566
f 791 792 566
f 566 792 747
f 745 793 566
f 793 794 566
f 566 794 795
f 751 796 696
f 796 797 696
f 696 797 752
f 754 798 696
f 798 799 696
f 696 799 800
f 800 801 696
f 801 802 696
f 696 802 694
f 708 684 765
f 684 803 765
f 765 803 763
f 683 804 684
f 804 805 684
f 684 805 658
f 805 806 658
f 658 806 588
f 806 807 588
f 588 807 735
f 711 808 588
f 808 809 588
f 588 809 489
f 809 810 489
f 489 810 774
f 784 811 783
f 811 623 783
f 783 623 812
f 623 622 812
f 787 813 486
f 813 814 486
f 486 814 815
f 795 816 566
f 816 817 566
f 566 817 593
f 817 818 593
f 593 818 819
f 819 820 593
f 820 821 593
f 593 821 822
f 777 823 489
f 823 824 489
f 489 824 825
f 780 826 672
f 826 827 672
f 672 827 828
f 829 830 489
f 830 831 489
f 489 831 832
f 811 833 623
f 833 834 623
f 623 834 835
f 815 836 486
f 836 837 486
f 486 837 838
f 839 840 566
f 840 841 566
f 566 841 741
f 822 842 593
f 842 843 593
f 593 843 844
f 825 845 489
f 845 672 489
f 489 672 829
f 672 828 829
f 832 846 489
f 846 847 489
f 489 847 848
f 848 849 489
f 849 850 489
f 489 850 648
f 788 851 486
f 851 852 486
f 486 852 566
f 852 853 566
f 566 853 839
f 854 855 856
f 855 857 856
f 856 857 858
f 858 859 856
f 859 860 856
f 856 860 861
f 835 862 623
f 862 856 623
f 623 856 863
f 856 861 863
f 856 864 854
f 864 865 854
f 854 865 866
f 865 867 866
f 866 867 868
f 838 869 486
f 869 870 486
f 486 870 871
f 593 872 873
f 868 874 866
f 874 875 866
f 866 875 876
f 844 877 593
f 877 878 593
f 593 878 879
f 873 880 593
f 880 881 593
f 593 881 724
f 678 882 626
f 882 883 626
f 626 883 879
f 883 884 879
f 879 884 593
f 884 885 593
f 593 885 872
f 871 886 486
f 886 866 486
f 486 866 790
f 866 876 790
f 887 888 889
f 890 891 892
f 891 893 892
f 894 895 896
f 897 898 589
f 899 597 587
f 895 900 896
f 900 901 896
f 896 901 902
f 903 589 904
f 589 905 904
f 893 906 892
f 906 907 892
f 892 907 908
f 902 909 896
f 909 910 896
f 896 910 589
f 910 911 589
f 589 911 905
f 903 912 589
f 912 913 589
f 589 913 914
f 899 915 597
f 915 916 597
f 597 916 917
f 918 919 597
f 919 920 597
f 920 921 597
f 597 921 922
f 923 924 587
f 925 926 587
f 926 927 587
f 928 929 930
f 929 931 930
f 924 932 587
f 932 933 587
f 587 933 925
f 927 934 587
f 934 935 587
f 587 935 899
f 596 936 937
f 938 939 896
f 940 941 930
f 931 942 930
f 942 943 930
f 930 943 944
f 944 945 930
f 945 946 930
f 930 946 947
f 948 949 950
f 950 951 948
f 951 952 948
f 948 952 888
f 952 953 888
f 954 955 914
f 955 956 914
f 908 957 892
f 957 958 892
f 892 958 959
f 917 960 597
f 960 961 597
f 597 961 918
f 962 963 597
f 964 596 965
f 596 966 965
f 967 968 936
f 968 969 936
f 941 970 930
f 970 971 930
f 930 971 928
f 947 972 930
f 972 973 930
f 930 973 974
f 973 975 974
f 976 977 948
f 977 978 948
f 948 978 979
f 953 980 888
f 980 981 888
f 888 981 982
f 982 983 888
f 983 984 888
f 888 984 985
f 985 986 888
f 986 987 888
f 888 987 889
f 987 988 889
f 889 988 989
f 990 991 992
f 993 994 596
f 964 995 596
f 995 996 596
f 596 996 997
f 969 998 936
f 998 999 936
f 936 999 1000
f 939 1001 896
f 1001 1002 896
f 896 1002 894
f 887 889 930
f 889 1003 930
f 930 1003 940
f 975 1004 974
f 1004 1005 974
f 974 1005 1006
f 890 892 948
f 892 1007 948
f 948 1007 976
f 979 1008 948
f 1008 1009 948
f 948 1009 1010
f 1010 1011 948
f 1011 1012 948
f 948 1012 1013
f 1013 1014 948
f 1014 1015 948
f 948 1015 949
f 989 1016 889
f 1016 1017 889
f 889 1017 1018
f 991 1019 992
f 1019 889 992
f 992 889 1020
f 889 1018 1020
f 1021 1022 587
f 1022 1023 587
f 587 1023 1024
f 1025 1026 596
f 1026 1027 596
f 596 1027 1028
f 1029 1030 936
f 1006 1031 974
f 1031 1032 974
f 974 1032 1033
f 954 914 1034
f 914 1035 1034
f 1034 1035 1036
f 1035 1037 1036
f 1036 1037 1038
f 1038 1037 992
f 1037 1039 992
f 992 1039 990
f 956 1040 914
f 1040 1041 914
f 914 1041 589
f 1041 1042 589
f 589 1042 897
f 1043 1044 587
f 1044 1045 587
f 587 1045 1021
f 1024 1046 587
f 1046 1047 587
f 587 1047 892
f 1048 1049 587
f 1049 1050 587
f 1051 587 1052
f 587 1053 1052
f 1051 1054 587
f 1054 1055 587
f 587 1055 923
f 922 1056 597
f 1056 1057 597
f 597 1057 962
f 1028 1058 596
f 1058 1059 596
f 596 1059 966
f 997 1060 596
f 1060 1061 596
f 596 1061 1062
f 1062 1063 596
f 1063 1064 596
f 596 1064 1065
f 1030 1066 936
f 1066 1067 936
f 936 1067 967
f 1068 596 1069
f 596 1070 1069
f 596 1071 896
f 1071 1072 896
f 896 1072 938
f 1033 1073 974
f 1073 1074 974
f 974 1074 1075
f 959 1076 892
f 1076 1077 892
f 892 1077 587
f 1077 1078 587
f 587 1078 1048
f 1050 1079 587
f 1079 1080 587
f 587 1080 1053
f 963 1081 597
f 1081 1082 597
f 597 1082 1083
f 1083 1084 597
f 1084 1085 597
f 597 1085 1086
f 1087 1088 1089
f 1088 1090 1089
f 1089 1090 1091
f 994 1092 596
f 1092 1093 596
f 596 1093 1025
f 1065 1094 596
f 1094 1095 596
f 596 1095 1096
f 1096 1097 596
f 1097 1098 596
f 596 1098 936
f 1098 1099 936
f 936 1099 1100
f 1101 1102 596
f 1102 1103 596
f 596 1103 1070
f 1068 1104 596
f 1104 1105 596
f 596 1105 1071
f 1075 1106 974
f 1106 1107 974
f 974 1107 1108
f 898 1109 589
f 1109 1110 589
f 589 1110 1111
f 1111 1112 589
f 1112 1113 589
f 589 1113 1114
f 1115 1116 589
f 1116 1117 589
f 589 1117 1118
f 1119 597 1120
f 597 1121 1120
f 1119 1122 597
f 1122 1123 597
f 597 1123 596
f 1123 1124 596
f 596 1124 993
f 1125 1126 936
f 1126 1127 936
f 936 1127 1029
f 1128 1129 1089
f 1129 1130 1089
f 1131 1132 1089
f 1132 1133 1089
f 1089 1133 1134
f 1134 1135 1089
f 1135 1136 1089
f 1089 1136 1087
f 1137 1138 596
f 1138 1139 596
f 596 1139 1101
f 1108 1140 974
f 1140 1141 974
f 974 1141 1142
f 1114 1143 589
f 1143 1144 589
f 589 1144 1145
f 1145 1146 589
f 1146 1147 589
f 589 1147 1115
f 1118 1148 589
f 1148 1149 589
f 589 1149 587
f 1149 1150 587
f 587 1150 1043
f 1090 1151 597
f 1151 1152 597
f 597 1152 1153
f 1100 1154 936
f 1154 1155 936
f 936 1155 1125
f 1089 1156 1128
f 1156 1157 1128
f 1128 1157 1158
f 1157 1159 1158
f 1158 1159 999
f 1159 1160 999
f 999 1160 1000
f 1130 1161 1089
f 1161 1162 1089
f 1089 1162 1163
f 1163 1164 1089
f 1164 1165 1089
f 1089 1165 1131
f 1086 1166 597
f 1166 1167 597
f 597 1167 1090
f 1167 1168 1090
f 1090 1168 1091
f 1153 1169 597
f 1169 1170 597
f 597 1170 1121
f 1142 1171 974
f 1171 1172 974
f 974 1172 1173
f 1172 1137 1173
f 1173 1137 1174
f 1137 596 1174
f 1174 596 1175
f 596 937 1175
f 704 987 706
f 987 986 706
f 706 986 707
f 986 985 707
f 707 985 729
f 985 984 729
f 729 984 730
f 984 983 730
f 730 983 731
f 983 982 731
f 731 982 732
f 982 981 732
f 732 981 733
f 981 980 733
f 733 980 770
f 980 953 770
f 770 953 768
f 953 952 768
f 768 952 765
f 952 951 765
f 765 951 708
f 951 950 708
f 708 950 682
f 950 949 682
f 682 949 683
f 949 1015 683
f 683 1015 804
f 1015 1014 804
f 804 1014 805
f 1014 1013 805
f 805 1013 806
f 1013 1012 806
f 806 1012 807
f 1012 1011 807
f 807 1011 735
f 1011 1010 735
f 735 1010 736
f 1010 1009 736
f 736 1009 737
f 1009 1008 737
f 737 1008 738
f 1008 979 738
f 738 979 739
f 979 978 739
f 739 978 740
f 978 977 740
f 740 977 772
f 977 976 772
f 772 976 773
f 976 1007 773
f 773 1007 685
f 1007 892 685
f 685 892 666
f 892 1047 666
f 666 1047 667
f 1047 1046 667
f 667 1046 686
f 1046 1024 686
f 686 1024 687
f 1024 1023 687
f 687 1023 688
f 1023 1022 688
f 688 1022 709
f 1022 1021 709
f 709 1021 710
f 1021 1045 710
f 710 1045 711
f 1045 1044 711
f 711 1044 808
f 1044 1043 808
f 808 1043 809
f 1043 1150 809
f 809 1150 810
f 1150 1149 810
f 810 1149 774
f 1149 1148 774
f 774 1148 775
f 1148 1118 775
f 775 1118 776
f 1118 1117 776
f 776 1117 777
f 1117 1116 777
f 777 1116 823
f 1116 1115 823
f 823 1115 824
f 1115 1147 824
f 824 1147 825
f 1147 1146 825
f 825 1146 845
f 1146 1145 845
f 845 1145 672
f 1145 1144 672
f 672 1144 750
f 1144 1143 750
f 750 1143 751
f 1143 1114 751
f 751 1114 796
f 1114 1113 796
f 796 1113 797
f 1113 1112 797
f 797 1112 752
f 1112 1111 752
f 752 1111 753
f 1111 1110 753
f 753 1110 754
f 1110 1109 754
f 754 1109 798
f 1109 898 798
f 798 898 799
f 898 897 799
f 799 897 800
f 897 1042 800
f 800 1042 801
f 1042 1041 801
f 801 1041 802
f 1041 1040 802
f 802 1040 694
f 1040 956 694
f 694 956 695
f 956 955 695
f 695 955 697
f 955 954 697
f 697 954 755
f 954 1034 755
f 755 1034 756
f 1034 1036 756
f 756 1036 757
f 1036 1038 757
f 757 1038 758
f 1038 992 758
f 758 992 759
f 992 1020 759
f 759 1020 760
f 1020 1018 760
f 760 1018 761
f 1018 1017 761
f 761 1017 762
f 1017 1016 762
f 762 1016 701
f 1016 989 701
f 701 989 702
f 989 988 702
f 702 988 704
f 988 987 704
f 863 1137 623
f 1137 1172 623
f 623 1172 659
f 1172 1171 659
f 659 1171 660
f 1171 1142 660
f 660 1142 679
f 1142 1141 679
f 679 1141 680
f 1141 1140 680
f 680 1140 653
f 1140 1108 653
f 653 1108 654
f 1108 1107 654
f 654 1107 655
f 1107 1106 655
f 655 1106 661
f 1106 1075 661
f 661 1075 662
f 1075 1074 662
f 662 1074 663
f 1074 1073 663
f 663 1073 664
f 1073 1033 664
f 664 1033 665
f 1033 1032 665
f 665 1032 640
f 1032 1031 640
f 640 1031 641
f 1031 1006 641
f 641 1006 642
f 1006 1005 642
f 642 1005 620
f 1005 1004 620
f 620 1004 703
f 1004 975 703
f 703 975 696
f 975 973 696
f 696 973 681
f 973 972 681
f 681 972 670
f 972 947 670
f 670 947 671
f 947 946 671
f 671 946 698
f 946 945 698
f 698 945 699
f 945 944 699
f 699 944 700
f 944 943 700
f 700 943 778
f 943 942 778
f 778 942 779
f 942 931 779
f 779 931 780
f 931 929 780
f 780 929 826
f 929 928 826
f 826 928 827
f 928 971 827
f 827 971 828
f 971 970 828
f 828 970 829
f 970 941 829
f 829 941 830
f 941 940 830
f 830 940 831
f 940 1003 831
f 831 1003 832
f 1003 889 832
f 832 889 846
f 889 1019 846
f 846 1019 847
f 1019 991 847
f 847 991 848
f 991 990 848
f 848 990 849
f 990 1039 849
f 849 1039 850
f 1039 1037 850
f 850 1037 648
f 1037 1035 648
f 648 1035 649
f 1035 914 649
f 649 914 673
f 914 913 673
f 673 913 674
f 913 912 674
f 674 912 675
f 912 903 675
f 675 903 721
f 903 904 721
f 721 904 722
f 904 905 722
f 722 905 723
f 905 911 723
f 723 911 692
f 911 910 692
f 692 910 693
f 910 909 693
f 693 909 785
f 909 902 785
f 785 902 786
f 902 901 786
f 786 901 787
f 901 900 787
f 787 900 813
f 900 895 813
f 813 895 814
f 895 894 814
f 814 894 815
f 894 1002 815
f 815 1002 836
f 1002 1001 836
f 836 1001 837
f 1001 939 837
f 837 939 838
f 939 938 838
f 838 938 869
f 938 1072 869
f 869 1072 870
f 1072 1071 870
f 870 1071 871
f 1071 1105 871
f 871 1105 886
f 1105 1104 886
f 886 1104 866
f 1104 1068 866
f 866 1068 854
f 1068 1069 854
f 854 1069 855
f 1069 1070 855
f 855 1070 857
f 1070 1103 857
f 857 1103 858
f 1103 1102 858
f 858 1102 859
f 1102 1101 859
f 859 1101 860
f 1101 1139 860
f 860 1139 861
f 1139 1138 861
f 861 1138 863
f 1138 1137 863
f 819 1123 820
f 1123 1122 820
f 820 1122 821
f 1122 1119 821
f 821 1119 822
f 1119 1120 822
f 822 1120 842
f 1120 1121 842
f 842 1121 843
f 1121 1170 843
f 843 1170 844
f 1170 1169 844
f 844 1169 877
f 1169 1153 877
f 877 1153 878
f 1153 1152 878
f 878 1152 879
f 1152 1151 879
f 879 1151 626
f 1151 1090 626
f 626 1090 607
f 1090 1088 607
f 607 1088 605
f 1088 1087 605
f 605 1087 602
f 1087 1136 602
f 602 1136 603
f 1136 1135 603
f 603 1135 604
f 1135 1134 604
f 604 1134 599
f 1134 1133 599
f 599 1133 600
f 1133 1132 600
f 600 1132 689
f 1132 1131 689
f 689 1131 690
f 1131 1165 690
f 690 1165 691
f 1165 1164 691
f 691 1164 712
f 1164 1163 712
f 712 1163 713
f 1163 1162 713
f 713 1162 714
f 1162 1161 714
f 714 1161 715
f 1161 1130 715
f 715 1130 716
f 1130 1129 716
f 716 1129 717
f 1129 1128 717
f 717 1128 718
f 1128 1158 718
f 718 1158 719
f 1158 999 719
f 719 999 720
f 999 998 720
f 720 998 650
f 998 969 650
f 650 969 651
f 969 968 651
f 651 968 781
f 968 967 781
f 781 967 782
f 967 1067 782
f 782 1067 784
f 1067 1066 784
f 784 1066 811
f 1066 1030 811
f 811 1030 833
f 1030 1029 833
f 833 1029 834
f 1029 1127 834
f 834 1127 835
f 1127 1126 835
f 835 1126 862
f 1126 1125 862
f 862 1125 856
f 1125 1155 856
f 856 1155 864
f 1155 1154 864
f 864 1154 865
f 1154 1100 865
f 865 1100 867
f 1100 1099 867
f 867 1099 868
f 1099 1098 868
f 868 1098 874
f 1098 1097 874
f 874 1097 875
f 1097 1096 875
f 875 1096 876
f 1096 1095 876
f 876 1095 790
f 1095 1094 790
f 790 1094 789
f 1094 1065 789
f 789 1065 788
f 1065 1064 788
f 788 1064 851
f 1064 1063 851
f 851 1063 852
f 1063 1062 852
f 852 1062 853
f 1062 1061 853
f 853 1061 839
f 1061 1060 839
f 839 1060 840
f 1060 997 840
f 840 997 841
f 997 996 841
f 841 996 741
f 996 995 741
f 741 995 742
f 995 964 742
f 742 964 743
f 964 965 743
f 743 965 744
f 965 966 744
f 744 966 791
f 966 1059 791
f 791 1059 792
f 1059 1058 792
f 792 1058 747
f 1058 1028 747
f 747 1028 746
f 1028 1027 746
f 746 1027 745
f 1027 1026 745
f 745 1026 793
f 1026 1025 793
f 793 1025 794
f 1025 1093 794
f 794 1093 795
f 1093 1092 795
f 795 1092 816
f 1092 994 816
f 816 994 817
f 994 993 817
f 817 993 818
f 993 1124 818
f 818 1124 819
f 1124 1123 819
f 872 1085 873
f 1085 1084 873
f 873 1084 880
f 1084 1083 880
f 880 1083 881
f 1083 1082 881
f 881 1082 724
f 1082 1081 724
f 724 1081 725
f 1081 963 725
f 725 963 726
f 963 962 726
f 726 962 727
f 962 1057 727
f 727 1057 748
f 1057 1056 748
f 748 1056 749
f 1056 922 749
f 749 922 627
f 922 921 627
f 627 921 628
f 921 920 628
f 628 920 629
f 920 919 629
f 629 919 630
f 919 918 630
f 630 918 635
f 918 961 635
f 635 961 636
f 961 960 636
f 636 960 613
f 960 917 613
f 613 917 614
f 917 916 614
f 614 916 615
f 916 915 615
f 615 915 616
f 915 899 616
f 616 899 617
f 899 935 617
f 617 935 668
f 935 934 668
f 668 934 669
f 934 927 669
f 669 927 646
f 927 926 646
f 646 926 647
f 926 925 647
f 647 925 656
f 925 933 656
f 656 933 657
f 933 932 657
f 657 932 658
f 932 924 658
f 658 924 684
f 924 923 684
f 684 923 803
f 923 1055 803
f 803 1055 763
f 1055 1054 763
f 763 1054 764
f 1054 1051 764
f 764 1051 766
f 1051 1052 766
f 766 1052 767
f 1052 1053 767
f 767 1053 769
f 1053 1080 769
f 769 1080 771
f 1080 1079 771
f 771 1079 734
f 1079 1050 734
f 734 1050 705
f 1050 1049 705
f 705 1049 728
f 1049 1048 728
f 728 1048 618
f 1048 1078 618
f 618 1078 619
f 1078 1077 619
f 619 1077 631
f 1077 1076 631
f 631 1076 621
f 1076 959 621
f 621 959 622
f 959 958 622
f 622 958 812
f 958 957 812
f 812 957 783
f 957 908 783
f 783 908 652
f 908 907 652
f 652 907 601
f 907 906 601
f 601 906 606
f 906 893 606
f 606 893 608
f 893 891 608
f 608 891 609
f 891 890 609
f 609 890 610
f 890 948 610
f 610 948 611
f 948 888 611
f 611 888 612
f 888 887 612
f 612 887 632
f 887 930 632
f 632 930 633
f 930 974 633
f 633 974 634
f 974 1173 634
f 634 1173 624
f 1173 1174 624
f 624 1174 625
f 1174 1175 625
f 625 1175 637
f 1175 937 637
f 637 937 638
f 937 936 638
f 638 936 639
f 936 1000 639
f 639 1000 643
f 1000 1160 643
f 643 1160 644
f 1160 1159 644
f 644 1159 645
f 1159 1157 645
f 645 1157 676
f 1157 1156 676
f 676 1156 677
f 1156 1089 677
f 677 1089 678
f 1089 1091 678
f 678 1091 882
f 1091 1168 882
f 882 1168 883
f 1168 1167 883
f 883 1167 884
f 1167 1166 884
f 884 1166 885
f 1166 1086 885
f 885 1086 872
f 1086 1085 872
f 433 594 435
f 594 1176 435
f 435 1176 455
f 1176 591 455
f 356 354 1177
f 412 410 595
f 350 348 896
f 348 346 896
f 896 346 344
f 1178 382 380
f 380 378 1178
f 378 376 1178
f 1178 376 1179
f 376 374 1179
f 1179 374 372
f 372 370 1179
f 370 368 1179
f 1179 368 1180
f 368 366 1180
f 596 308 306
f 390 388 1181
f 388 386 1181
f 1181 386 1178
f 386 384 1178
f 1178 384 382
f 366 364 1180
f 364 362 1180
f 1180 362 1182
f 362 360 1182
f 1182 360 1177
f 360 358 1177
f 1177 358 356
f 1183 1184 896
f 1184 1185 896
f 314 312 596
f 312 310 596
f 596 310 308
f 306 304 596
f 304 302 596
f 596 302 300
f 418 416 595
f 416 414 595
f 595 414 412
f 398 396 1186
f 396 394 1186
f 1186 394 1181
f 394 392 1181
f 1181 392 390
f 350 896 352
f 896 1185 352
f 352 1185 354
f 1185 1187 354
f 354 1187 1177
f 320 596 322
f 596 324 322
f 320 318 596
f 318 316 596
f 596 316 314
f 300 298 596
f 298 296 596
f 596 296 294
f 344 342 896
f 342 340 896
f 896 340 338
f 294 292 596
f 292 290 596
f 596 290 595
f 290 432 595
f 595 432 430
f 1188 1189 595
f 1189 1190 595
f 595 1190 1191
f 430 428 595
f 428 426 595
f 595 426 424
f 424 422 595
f 422 420 595
f 595 420 418
f 338 336 896
f 336 334 896
f 896 334 332
f 332 330 896
f 330 328 896
f 896 328 596
f 328 326 596
f 596 326 324
f 398 1186 400
f 1186 1192 400
f 400 1192 402
f 1192 1193 402
f 402 1193 404
f 1193 1194 404
f 1194 1188 404
f 404 1188 406
f 1188 595 406
f 406 595 408
f 595 410 408
f 589 1195 1196
f 1195 589 1197
f 589 590 1197
f 1197 590 1198
f 1196 1199 589
f 1199 1200 589
f 589 1200 1201
f 1201 1202 589
f 1202 1203 589
f 589 1203 1204
f 1205 1206 590
f 1206 1207 590
f 1207 1208 590
f 590 1208 1198
f 1204 1209 589
f 1209 1210 589
f 589 1210 1211
f 1212 1213 1214
f 1215 1216 896
f 1217 1218 896
f 1218 1219 896
f 896 1219 1220
f 1221 1222 896
f 1223 1224 1225
f 1224 1226 1225
f 1225 1226 1227
f 1226 1228 1227
f 1227 1228 1229
f 1229 1230 1227
f 1230 1231 1227
f 1227 1231 1212
f 1231 1232 1212
f 1212 1232 1213
f 1211 1233 589
f 1233 1234 589
f 589 1234 1235
f 1236 1237 589
f 1237 1238 589
f 589 1238 896
f 1238 1239 896
f 896 1239 1215
f 1222 1240 896
f 1240 1241 896
f 896 1241 1183
f 1242 1243 590
f 1243 1244 590
f 1245 590 1246
f 590 1247 1246
f 1245 1248 590
f 1248 1249 590
f 590 1249 1205
f 1235 1250 589
f 1250 1251 589
f 589 1251 1236
f 1252 1221 1253
f 1221 896 1253
f 1253 896 1254
f 896 1220 1254
f 1223 1225 1255
f 1225 1256 1255
f 1255 1256 1257
f 1256 1258 1257
f 1257 1258 1252
f 1258 1259 1252
f 1252 1259 1221
f 1214 1260 1212
f 1260 1261 1212
f 1212 1261 1262
f 1261 1263 1262
f 1262 1263 1264
f 1264 1265 1262
f 1265 1266 1262
f 1262 1266 1267
f 1266 1268 1267
f 1268 1269 1267
f 1269 1270 1267
f 1267 1270 1271
f 1270 1272 1271
f 1271 1272 1273
f 1272 1274 1273
f 1274 1275 1273
f 1273 1275 1276
f 1275 1277 1276
f 1276 1277 1244
f 1277 1278 1244
f 1244 1278 590
f 1278 1279 590
f 590 1279 1247
f 1216 1280 896
f 1280 1281 896
f 896 1281 1282
f 1282 1283 896
f 1283 1284 896
f 896 1284 1217
f 226 224 591
f 224 222 591
f 1285 1286 590
f 1286 1287 590
f 590 1287 1242
f 258 256 1176
f 222 220 591
f 220 218 591
f 591 218 590
f 218 216 590
f 590 216 214
f 1176 256 591
f 256 254 591
f 254 252 591
f 591 252 250
f 244 242 591
f 242 240 591
f 591 240 238
f 238 236 591
f 236 234 591
f 591 234 232
f 214 212 590
f 212 210 590
f 590 210 208
f 202 200 590
f 200 198 590
f 590 198 196
f 1285 590 1288
f 590 190 1288
f 1288 190 188
f 250 248 591
f 248 246 591
f 591 246 244
f 232 230 591
f 230 228 591
f 591 228 226
f 208 206 590
f 206 204 590
f 590 204 202
f 196 194 590
f 194 192 590
f 590 192 190
f 182 180 1289
f 180 178 1289
f 1289 178 1290
f 178 176 1290
f 1290 176 174
f 1291 166 164
f 266 264 1176
f 174 172 1290
f 172 170 1290
f 1290 170 1291
f 170 168 1291
f 1291 168 166
f 266 1176 268
f 264 262 1176
f 262 260 1176
f 1176 260 258
f 182 1289 184
f 1289 1292 184
f 184 1292 186
f 1292 1293 186
f 186 1293 188
f 1293 1294 188
f 188 1294 1288
f 1176 276 274
f 164 162 1291
f 162 160 1291
f 1291 160 1295
f 160 158 1295
f 1295 158 156
f 156 154 1295
f 154 152 1295
f 1295 152 1296
f 152 150 1296
f 274 272 1176
f 272 270 1176
f 1176 270 268
f 1297 284 1298
f 284 1299 1298
f 1300 1301 1176
f 1301 1302 1176
f 1176 1302 1299
f 150 148 1296
f 148 146 1296
f 1296 146 1303
f 146 288 1303
f 1303 288 1297
f 288 286 1297
f 1297 286 284
f 284 282 1299
f 282 280 1299
f 1299 280 1176
f 280 278 1176
f 1176 278 276
f 100 98 1176
f 58 56 1304
f 98 96 1176
f 96 94 1176
f 1176 94 92
f 114 112 594
f 112 110 594
f 594 110 1176
f 110 108 1176
f 1176 108 106
f 122 120 594
f 106 104 1176
f 104 102 1176
f 1176 102 100
f 56 54 1304
f 54 52 1304
f 1304 52 1305
f 52 50 1305
f 1305 50 48
f 48 46 1305
f 46 44 1305
f 1305 44 1306
f 44 42 1306
f 1307 1308 32
f 1308 1309 32
f 24 22 595
f 22 20 595
f 595 20 18
f 120 118 594
f 118 116 594
f 594 116 114
f 92 90 1176
f 90 88 1176
f 1176 88 86
f 74 72 1310
f 72 70 1310
f 1310 70 1311
f 70 68 1311
f 1311 68 66
f 66 64 1311
f 64 62 1311
f 1311 62 1304
f 62 60 1304
f 1304 60 58
f 6 4 595
f 74 1310 76
f 1310 1312 76
f 76 1312 78
f 1312 1313 78
f 78 1313 80
f 42 40 1306
f 40 38 1306
f 1306 38 1314
f 38 36 1314
f 1314 36 1309
f 36 34 1309
f 1309 34 32
f 1191 1315 595
f 1315 1316 595
f 595 1316 1307
f 128 594 130
f 594 132 130
f 128 126 594
f 126 124 594
f 594 124 122
f 1317 1318 1176
f 1318 1319 1176
f 1176 1319 1300
f 32 30 1307
f 30 28 1307
f 1307 28 595
f 28 26 595
f 595 26 24
f 138 136 594
f 136 134 594
f 594 134 132
f 18 16 595
f 16 14 595
f 595 14 12
f 595 4 594
f 4 2 594
f 594 2 144
f 144 142 594
f 142 140 594
f 594 140 138
f 1313 1320 80
f 1320 1317 80
f 80 1317 82
f 1317 1176 82
f 82 1176 84
f 1176 86 84
f 12 10 595
f 10 8 595
f 595 8 6
f 586 585 592
f 585 598 592
f 598 585 597
f 585 587 597
f 440 1191 583
f 1191 1190 583
f 583 1190 584
f 1190 1189 584
f 584 1189 575
f 1189 1188 575
f 575 1188 576
f 1188 1194 576
f 576 1194 577
f 1194 1193 577
f 577 1193 582
f 1193 1192 582
f 582 1192 568
f 1192 1186 568
f 568 1186 569
f 1186 1181 569
f 569 1181 567
f 1181 1178 567
f 567 1178 574
f 1178 1179 574
f 574 1179 578
f 1179 1180 578
f 578 1180 579
f 1180 1182 579
f 579 1182 580
f 1182 1177 580
f 580 1177 581
f 1177 1187 581
f 581 1187 573
f 1187 1185 573
f 573 1185 570
f 1185 1184 570
f 570 1184 571
f 1184 1183 571
f 571 1183 572
f 1183 1241 572
f 572 1241 484
f 1241 1240 484
f 484 1240 485
f 1240 1222 485
f 485 1222 497
f 1222 1221 497
f 497 1221 490
f 1221 1259 490
f 490 1259 477
f 1259 1258 477
f 477 1258 531
f 1258 1256 531
f 531 1256 527
f 1256 1225 527
f 527 1225 525
f 1225 1227 525
f 525 1227 508
f 1227 1212 508
f 508 1212 552
f 1212 1262 552
f 552 1262 541
f 1262 1267 541
f 541 1267 543
f 1267 1271 543
f 543 1271 545
f 1271 1273 545
f 545 1273 547
f 1273 1276 547
f 547 1276 548
f 1276 1244 548
f 548 1244 549
f 1244 1243 549
f 549 1243 481
f 1243 1242 481
f 481 1242 482
f 1242 1287 482
f 482 1287 483
f 1287 1286 483
f 483 1286 458
f 1286 1285 458
f 458 1285 459
f 1285 1288 459
f 459 1288 462
f 1288 1294 462
f 462 1294 463
f 1294 1293 463
f 463 1293 467
f 1293 1292 467
f 467 1292 461
f 1292 1289 461
f 461 1289 460
f 1289 1290 460
f 460 1290 456
f 1290 1291 456
f 456 1291 469
f 1291 1295 469
f 469 1295 468
f 1295 1296 468
f 468 1296 470
f 1296 1303 470
f 470 1303 471
f 1303 1297 471
f 471 1297 472
f 1297 1298 472
f 472 1298 464
f 1298 1299 464
f 464 1299 465
f 1299 1302 465
f 465 1302 466
f 1302 1301 466
f 466 1301 450
f 1301 1300 450
f 450 1300 451
f 1300 1319 451
f 451 1319 452
f 1319 1318 452
f 452 1318 449
f 1318 1317 449
f 449 1317 448
f 1317 1320 448
f 448 1320 447
f 1320 1313 447
f 447 1313 454
f 1313 1312 454
f 454 1312 453
f 1312 1310 453
f 453 1310 446
f 1310 1311 446
f 446 1311 436
f 1311 1304 436
f 436 1304 442
f 1304 1305 442
f 442 1305 441
f 1305 1306 441
f 441 1306 443
f 1306 1314 443
f 443 1314 444
f 1314 1309 444
f 444 1309 445
f 1309 1308 445
f 445 1308 437
f 1308 1307 437
f 437 1307 438
f 1307 1316 438
f 438 1316 439
f 1316 1315 439
f 439 1315 440
f 1315 1191 440
f 530 1223 532
f 1223 1255 532
f 532 1255 533
f 1255 1257 533
f 533 1257 475
f 1257 1252 475
f 475 1252 476
f 1252 1253 476
f 476 1253 498
f 1253 1254 498
f 498 1254 511
f 1254 1220 511
f 511 1220 493
f 1220 1219 493
f 493 1219 492
f 1219 1218 492
f 492 1218 491
f 1218 1217 491
f 491 1217 499
f 1217 1284 499
f 499 1284 500
f 1284 1283 500
f 500 1283 501
f 1283 1282 501
f 501 1282 512
f 1282 1281 512
f 512 1281 513
f 1281 1280 513
f 513 1280 514
f 1280 1216 514
f 514 1216 534
f 1216 1215 534
f 534 1215 535
f 1215 1239 535
f 535 1239 536
f 1239 1238 536
f 536 1238 561
f 1238 1237 561
f 561 1237 562
f 1237 1236 562
f 562 1236 563
f 1236 1251 563
f 563 1251 564
f 1251 1250 564
f 564 1250 565
f 1250 1235 565
f 565 1235 537
f 1235 1234 537
f 537 1234 538
f 1234 1233 538
f 538 1233 539
f 1233 1211 539
f 539 1211 487
f 1211 1210 487
f 487 1210 488
f 1210 1209 488
f 488 1209 494
f 1209 1204 494
f 494 1204 495
f 1204 1203 495
f 495 1203 496
f 1203 1202 496
f 496 1202 515
f 1202 1201 515
f 515 1201 516
f 1201 1200 516
f 516 1200 517
f 1200 1199 517
f 517 1199 518
f 1199 1196 518
f 518 1196 519
f 1196 1195 519
f 519 1195 520
f 1195 1197 520
f 520 1197 502
f 1197 1198 502
f 502 1198 503
f 1198 1208 503
f 503 1208 504
f 1208 1207 504
f 504 1207 521
f 1207 1206 521
f 521 1206 522
f 1206 1205 522
f 522 1205 473
f 1205 1249 473
f 473 1249 474
f 1249 1248 474
f 474 1248 478
f 1248 1245 478
f 478 1245 479
f 1245 1246 479
f 479 1246 480
f 1246 1247 480
f 480 1247 505
f 1247 1279 505
f 505 1279 506
f 1279 1278 506
f 506 1278 507
f 1278 1277 507
f 507 1277 546
f 1277 1275 546
f 546 1275 544
f 1275 1274 544
f 544 1274 542
f 1274 1272 542
f 542 1272 540
f 1272 1270 540
f 540 1270 550
f 1270 1269 550
f 550 1269 551
f 1269 1268 551
f 551 1268 553
f 1268 1266 553
f 553 1266 554
f 1266 1265 554
f 554 1265 555
f 1265 1264 555
f 555 1264 556
f 1264 1263 556
f 556 1263 557
f 1263 1261 557
f 557 1261 509
f 1261 1260 509
f 509 1260 510
f 1260 1214 510
f 510 1214 558
f 1214 1213 558
f 558 1213 559
f 1213 1232 559
f 559 1232 560
f 1232 1231 560
f 560 1231 523
f 1231 1230 523
f 523 1230 524
f 1230 1229 524
f 524 1229 526
f 1229 1228 526
f 526 1228 528
f 1228 1226 528
f 528 1226 529
f 1226 1224 529
f 529 1224 530
f 1224 1223 530

